<svg xmlns="http://www.w3.org/2000/svg" xmlns:xlink="http://www.w3.org/1999/xlink" width="108" height="108" viewBox="0 0 108 108">
  <defs>
    <filter id="Trazado_904820" x="0" y="0" width="108" height="108" filterUnits="userSpaceOnUse">
      <feOffset dy="3" input="SourceAlpha"/>
      <feGaussianBlur stdDeviation="3" result="blur"/>
      <feFlood flood-opacity="0.161"/>
      <feComposite operator="in" in2="blur"/>
      <feComposite in="SourceGraphic"/>
    </filter>
  </defs>
  <g id="Grupo_1235454" data-name="Grupo 1235454" transform="translate(-618 -4781.584)">
    <g id="Grupo_1235136" data-name="Grupo 1235136" transform="translate(627 4787.584)">
      <g id="Grupo_1233818" data-name="Grupo 1233818">
        <g id="Grupo_1228307" data-name="Grupo 1228307">
          <g id="Grupo_1228100" data-name="Grupo 1228100">
            <g id="Grupo_1221597" data-name="Grupo 1221597" transform="translate(0 0)">
              <g id="Grupo_1219744" data-name="Grupo 1219744">
                <g id="Grupo_1202418" data-name="Grupo 1202418">
                  <g id="Grupo_1177315" data-name="Grupo 1177315">
                    <g id="Grupo_1173585" data-name="Grupo 1173585">
                      <g id="Grupo_1173428" data-name="Grupo 1173428">
                        <g id="Grupo_1171958" data-name="Grupo 1171958">
                          <g id="Grupo_1167341" data-name="Grupo 1167341">
                            <g id="Grupo_1166792" data-name="Grupo 1166792">
                              <g transform="matrix(1, 0, 0, 1, -9, -6)" filter="url(#Trazado_904820)">
                                <g id="Trazado_904820-2" data-name="Trazado 904820" transform="translate(9 6)" fill="#f6f3ef">
                                  <path d="M 44.99999618530273 88.49995422363281 C 39.12687301635742 88.49995422363281 33.43022155761719 87.35002899169922 28.06829643249512 85.08213043212891 C 22.88852119445801 82.89126586914062 18.23629570007324 79.75455474853516 14.24084663391113 75.75910186767578 C 10.24540901184082 71.76364898681641 7.108683586120605 67.11144256591797 4.917821407318115 61.93166351318359 C 2.649921178817749 56.56974029541016 1.499996185302734 50.87310028076172 1.499996185302734 44.99997711181641 C 1.499996185302734 39.12685394287109 2.649921178817749 33.43021392822266 4.917821407318115 28.06828880310059 C 7.108683586120605 22.88851547241211 10.24540901184082 18.23630142211914 14.24084663391113 14.24085235595703 C 18.23629570007324 10.24540233612061 22.88852119445801 7.108689785003662 28.06829643249512 4.917827129364014 C 33.43022155761719 2.649927139282227 39.12687301635742 1.500002145767212 44.99999618530273 1.500002145767212 C 50.87311935424805 1.500002145767212 56.56977081298828 2.649927139282227 61.93169784545898 4.917827129364014 C 67.11147308349609 7.108689785003662 71.76369476318359 10.24540233612061 75.75914764404297 14.24085235595703 C 79.75458526611328 18.23630142211914 82.89131164550781 22.88851547241211 85.08216857910156 28.06828880310059 C 87.35007476806641 33.43021392822266 88.5 39.12685394287109 88.5 44.99997711181641 C 88.5 50.87310028076172 87.35007476806641 56.56974029541016 85.08216857910156 61.93166351318359 C 82.89131164550781 67.11144256591797 79.75458526611328 71.76364898681641 75.75914764404297 75.75910186767578 C 71.76369476318359 79.75455474853516 67.11147308349609 82.89126586914062 61.93169784545898 85.08213043212891 C 56.56977081298828 87.35002899169922 50.87311935424805 88.49995422363281 44.99999618530273 88.49995422363281 Z" stroke="none"/>
                                  <path d="M 44.99999618530273 2.999992370605469 C 39.32870864868164 2.999992370605469 33.82865142822266 4.11004638671875 28.65262603759766 6.299331665039062 C 23.65165710449219 8.414566040039062 19.15968322753906 11.44333648681641 15.301513671875 15.30150604248047 C 11.44333648681641 19.15967559814453 8.414566040039062 23.65163421630859 6.299339294433594 28.65260696411133 C 4.110054016113281 33.82864761352539 2.999992370605469 39.32868957519531 2.999992370605469 44.99997711181641 C 2.999992370605469 50.6712646484375 4.110054016113281 56.17130661010742 6.299339294433594 61.34733581542969 C 8.414566040039062 66.34830474853516 11.44333648681641 70.84026336669922 15.301513671875 74.69844818115234 C 19.15968322753906 78.55661773681641 23.65165710449219 81.58537292480469 28.65262603759766 83.70062255859375 C 33.82865142822266 85.889892578125 39.32870864868164 86.99994659423828 44.99999618530273 86.99994659423828 C 50.67128372192383 86.99994659423828 56.17134094238281 85.889892578125 61.34736633300781 83.70062255859375 C 66.34834289550781 81.58537292480469 70.84030914306641 78.55661773681641 74.69847869873047 74.69844818115234 C 78.55665588378906 70.84026336669922 81.58542633056641 66.34830474853516 83.70065307617188 61.34733581542969 C 85.88993835449219 56.17130661010742 87 50.6712646484375 87 44.99997711181641 C 87 39.32868957519531 85.88993835449219 33.82864761352539 83.70065307617188 28.65260696411133 C 81.58542633056641 23.65163421630859 78.55665588378906 19.15967559814453 74.69847869873047 15.30150604248047 C 70.84030914306641 11.44333648681641 66.34834289550781 8.414566040039062 61.34736633300781 6.299331665039062 C 56.17134094238281 4.11004638671875 50.67128372192383 2.999992370605469 44.99999618530273 2.999992370605469 M 44.99999618530273 -7.62939453125e-06 C 69.85281372070312 -7.62939453125e-06 90 20.14717864990234 90 44.99997711181641 C 90 69.85277557373047 69.85281372070312 89.99994659423828 44.99999618530273 89.99994659423828 C 20.14717864990234 89.99994659423828 -7.62939453125e-06 69.85277557373047 -7.62939453125e-06 44.99997711181641 C -7.62939453125e-06 20.14717864990234 20.14717864990234 -7.62939453125e-06 44.99999618530273 -7.62939453125e-06 Z" stroke="none" fill="#7b776f"/>
                                </g>
                              </g>
                            </g>
                          </g>
                        </g>
                      </g>
                    </g>
                  </g>
                </g>
              </g>
            </g>
          </g>
        </g>
      </g>
    </g>
    <g id="lider_3_" data-name="lider (3)" transform="translate(643.039 4803.458)">
      <g id="Grupo_1235451" data-name="Grupo 1235451" transform="translate(1.131 1.317)">
        <path id="Trazado_1295841" data-name="Trazado 1295841" d="M302.721,272.732v-5.323H288.184v20.6h14.537V272.732Z" transform="translate(-256.714 -238.31)" fill="#fff"/>
        <path id="Trazado_1295842" data-name="Trazado 1295842" d="M416.689,263.218v5.329l9.651-.091v-23l-9.651,2.483v15.276Z" transform="translate(-370.682 -218.843)" fill="#5c90ae"/>
        <path id="Trazado_1295843" data-name="Trazado 1295843" d="M41.47,231.406H39.759c-3.133,0-4.133-2.451-5.377-4.017l-.869-1.094a6.56,6.56,0,0,0-5.136-2.479H21l.751,4.877h-8.4a2.714,2.714,0,0,0,0,5.427h-.636a2.714,2.714,0,1,0,0,5.427h1.768a2.714,2.714,0,0,0,0,5.428H15.5a2.714,2.714,0,0,0,0,5.427H29.163a6.56,6.56,0,0,0,4.27-1.58l.887-.761a6.56,6.56,0,0,1,4.27-1.58H41.47Z" transform="translate(-10 -199.648)" fill="#ffc6ae"/>
        <path id="Trazado_1295844" data-name="Trazado 1295844" d="M43.013,39.229,38.854,12.264a2.452,2.452,0,1,0-4.846.755l4.138,26.21Z" transform="translate(-31.265 -10.185)" fill="#f9f5f3"/>
        <path id="Trazado_1295845" data-name="Trazado 1295845" d="M107.891,458.832l.3,2.223a2.333,2.333,0,1,1-4.627.594l-.354-2.817Z" transform="translate(-92.663 -408.078)" fill="#f9f5f3"/>
        <g id="Grupo_1235450" data-name="Grupo 1235450" transform="translate(7.633 2.392)">
          <path id="Trazado_1295846" data-name="Trazado 1295846" d="M77.472,31.329H91.134L89.282,44.9H79.538Z" transform="translate(-77.472 -31.329)" fill="#ff7e96"/>
          <path id="Trazado_1295847" data-name="Trazado 1295847" d="M179.067,65.365h9.886l-2.895,7.009,4.961,6.557h-13.8Z" transform="translate(-165.931 -61.515)" fill="#ff7e96"/>
        </g>
      </g>
      <g id="Grupo_1235453" data-name="Grupo 1235453" transform="translate(0 0.186)">
        <g id="Grupo_1235452" data-name="Grupo 1235452" transform="translate(0 0)">
          <path id="Trazado_1295848" data-name="Trazado 1295848" d="M408.888,349.192a1.13,1.13,0,1,0-.612,1.478A1.142,1.142,0,0,0,408.888,349.192Z" transform="translate(-360.705 -309.093)"/>
          <path id="Trazado_1295849" data-name="Trazado 1295849" d="M57.483,27.039a1.131,1.131,0,0,0-.975-.2L47,29.285H32.6a1.131,1.131,0,0,0-1.131,1.131v1.528h-.579c-1.968,0-2.806-1.206-3.775-2.6-.229-.33-1.585-2.081-1.585-2.081a7.65,7.65,0,0,0-6.022-2.907H13.1l-.917-5.946h7.1l-.35,2.566a1.145,1.145,0,0,0,1.121,1.284h13.8a1.141,1.141,0,0,0,.9-1.814L30.183,14.4l2.648-6.411a1.131,1.131,0,0,0-1.046-1.563H23.2l.35-2.566a1.145,1.145,0,0,0-1.121-1.284H9.678A3.561,3.561,0,0,0,6.3.186a3.617,3.617,0,0,0-3.54,4.142l3.931,24.9H4.482a3.843,3.843,0,0,0-3,6.243,3.843,3.843,0,0,0,.8,6.541A3.841,3.841,0,0,0,3.5,47.139,3.843,3.843,0,0,0,6.635,53.2h4.042l.229,1.825a3.464,3.464,0,1,0,6.871-.883l-.126-.942h2.642A7.7,7.7,0,0,0,25.3,51.35l.887-.761a5.432,5.432,0,0,1,3.533-1.307H31.47v1.738A1.131,1.131,0,0,0,32.6,52.152H47.149l9.651-.091a1.131,1.131,0,0,0,1.121-1.131v-23a1.132,1.132,0,0,0-.438-.894ZM30.094,8.691l-2.249,5.446a1.131,1.131,0,0,0,.143,1.114l3.589,4.743H21.344l1.544-11.3h7.207Zm-9.313-1.3,0,.015-1.193,8.738H11.831L10.088,4.84H21.13ZM4.992,3.975A1.334,1.334,0,0,1,6.3,2.449c.872,0,1.235.682,1.349,1.431L11.56,29.23H8.979ZM15.535,54.443a1.2,1.2,0,1,1-2.383.3L12.958,53.2h2.412ZM29.721,47.02a7.7,7.7,0,0,0-5.006,1.852l-.887.761a5.432,5.432,0,0,1-3.533,1.307H6.635a1.582,1.582,0,0,1,0-3.165,1.131,1.131,0,0,0,0-2.263H5.613a1.582,1.582,0,0,1,0-3.165,1.131,1.131,0,0,0,0-2.263H3.845a1.582,1.582,0,1,1,0-3.165h.636a1.131,1.131,0,0,0,0-2.263,1.582,1.582,0,0,1,0-3.165H18.069a1.131,1.131,0,0,0,0-2.263h-4.22l-.4-2.614h6.061a5.4,5.4,0,0,1,4.251,2.052s1.28,1.649,1.5,1.963c1.047,1.509,2.482,3.575,5.634,3.575h.579V47.02h-1.75Zm25.938,2.79-7.388.069V45.692a1.131,1.131,0,0,0-2.263,0v4.2H33.733V31.547H46.007v4.192a1.131,1.131,0,0,0,2.263,0V31.293l7.388-1.9Z" transform="translate(0 -0.186)"/>
        </g>
      </g>
    </g>
  </g>
</svg>
