<svg xmlns="http://www.w3.org/2000/svg" xmlns:xlink="http://www.w3.org/1999/xlink" width="108" height="108" viewBox="0 0 108 108">
  <defs>
    <filter id="Trazado_904820" x="0" y="0" width="108" height="108" filterUnits="userSpaceOnUse">
      <feOffset dy="3" input="SourceAlpha"/>
      <feGaussianBlur stdDeviation="3" result="blur"/>
      <feFlood flood-opacity="0.161"/>
      <feComposite operator="in" in2="blur"/>
      <feComposite in="SourceGraphic"/>
    </filter>
  </defs>
  <g id="Grupo_1235355" data-name="Grupo 1235355" transform="translate(-198 -535.1)">
    <g id="Grupo_1235127" data-name="Grupo 1235127" transform="translate(0 11.1)">
      <g id="Grupo_1233829" data-name="Grupo 1233829" transform="translate(207 530)">
        <g id="Grupo_1228307" data-name="Grupo 1228307" transform="translate(0 0)">
          <g id="Grupo_1228100" data-name="Grupo 1228100" transform="translate(0)">
            <g id="Grupo_1221597" data-name="Grupo 1221597">
              <g id="Grupo_1219744" data-name="Grupo 1219744">
                <g id="Grupo_1202418" data-name="Grupo 1202418">
                  <g id="Grupo_1177315" data-name="Grupo 1177315">
                    <g id="Grupo_1173585" data-name="Grupo 1173585">
                      <g id="Grupo_1173428" data-name="Grupo 1173428">
                        <g id="Grupo_1171958" data-name="Grupo 1171958">
                          <g id="Grupo_1167341" data-name="Grupo 1167341">
                            <g id="Grupo_1166792" data-name="Grupo 1166792">
                              <g transform="matrix(1, 0, 0, 1, -9, -6)" filter="url(#Trazado_904820)">
                                <g id="Trazado_904820-2" data-name="Trazado 904820" transform="translate(9 6)" fill="#fff4e6">
                                  <path d="M 44.99999618530273 88.49994659423828 C 39.12687301635742 88.49994659423828 33.43022155761719 87.35002136230469 28.06829643249512 85.08212280273438 C 22.88852119445801 82.89125823974609 18.23629570007324 79.75454711914062 14.24084663391113 75.75910186767578 C 10.24540901184082 71.76364898681641 7.108683586120605 67.11143493652344 4.917821407318115 61.93165969848633 C 2.649921178817749 56.56973648071289 1.499996185302734 50.87309646606445 1.499996185302734 44.99997329711914 C 1.499996185302734 39.12685012817383 2.649921178817749 33.43021011352539 4.917821407318115 28.06828498840332 C 7.108683586120605 22.88851165771484 10.24540901184082 18.23629760742188 14.24084663391113 14.24084854125977 C 18.23629570007324 10.24539852142334 22.88852119445801 7.108685970306396 28.06829643249512 4.917823314666748 C 33.43022155761719 2.649923324584961 39.12687301635742 1.499998331069946 44.99999618530273 1.499998331069946 C 50.87311935424805 1.499998331069946 56.56977081298828 2.649923324584961 61.93169784545898 4.917823314666748 C 67.11147308349609 7.108685970306396 71.76369476318359 10.24539852142334 75.75914764404297 14.24084854125977 C 79.75458526611328 18.23629760742188 82.89131164550781 22.88851165771484 85.08216857910156 28.06828498840332 C 87.35007476806641 33.43021011352539 88.5 39.12685012817383 88.5 44.99997329711914 C 88.5 50.87309646606445 87.35007476806641 56.56973648071289 85.08216857910156 61.93165969848633 C 82.89131164550781 67.11143493652344 79.75458526611328 71.76364898681641 75.75914764404297 75.75910186767578 C 71.76369476318359 79.75454711914062 67.11147308349609 82.89125823974609 61.93169784545898 85.08212280273438 C 56.56977081298828 87.35002136230469 50.87311935424805 88.49994659423828 44.99999618530273 88.49994659423828 Z" stroke="none"/>
                                  <path d="M 44.99999618530273 3 C 39.32870864868164 3 33.82865142822266 4.110061645507812 28.65262603759766 6.299331665039062 C 23.65165710449219 8.414573669433594 19.15968322753906 11.44332885742188 15.301513671875 15.30149841308594 C 11.44333648681641 19.15969085693359 8.414566040039062 23.65164184570312 6.299339294433594 28.65261459350586 C 4.110054016113281 33.82864379882812 2.999992370605469 39.32868576049805 2.999992370605469 44.99997329711914 C 2.999992370605469 50.67126083374023 4.110054016113281 56.17130279541016 6.299339294433594 61.34732818603516 C 8.414566040039062 66.34829711914062 11.44333648681641 70.84025573730469 15.301513671875 74.69844055175781 C 19.15968322753906 78.55661773681641 23.65165710449219 81.58537292480469 28.65262603759766 83.70061492919922 C 33.82865142822266 85.88988494873047 39.32870864868164 86.99994659423828 44.99999618530273 86.99994659423828 C 50.67128372192383 86.99994659423828 56.17134094238281 85.88988494873047 61.34736633300781 83.70061492919922 C 66.34834289550781 81.58537292480469 70.84030914306641 78.55661773681641 74.69847869873047 74.69844055175781 C 78.55665588378906 70.84025573730469 81.58542633056641 66.34829711914062 83.70065307617188 61.34732818603516 C 85.88993835449219 56.17130279541016 87 50.67126083374023 87 44.99997329711914 C 87 39.32868576049805 85.88993835449219 33.82864379882812 83.70065307617188 28.65261459350586 C 81.58542633056641 23.65164184570312 78.55665588378906 19.15969085693359 74.69847869873047 15.30149841308594 C 70.84030914306641 11.44332885742188 66.34834289550781 8.414573669433594 61.34736633300781 6.299331665039062 C 56.17134094238281 4.110061645507812 50.67128372192383 3 44.99999618530273 3 M 44.99999618530273 0 C 69.85281372070312 0 90 20.14717102050781 90 44.99997329711914 C 90 69.85277557373047 69.85281372070312 89.99994659423828 44.99999618530273 89.99994659423828 C 20.14717864990234 89.99994659423828 -7.62939453125e-06 69.85277557373047 -7.62939453125e-06 44.99997329711914 C -7.62939453125e-06 20.14717102050781 20.14717864990234 0 44.99999618530273 0 Z" stroke="none" fill="#8b550e"/>
                                </g>
                              </g>
                            </g>
                          </g>
                        </g>
                      </g>
                    </g>
                  </g>
                </g>
              </g>
            </g>
          </g>
        </g>
      </g>
    </g>
    <g id="liderazgo-intelectual_3_" data-name="liderazgo-intelectual (3)" transform="translate(185.161 551.624)">
      <g id="Grupo_1235353" data-name="Grupo 1235353" transform="translate(35.849 1.01)">
        <path id="Trazado_1295705" data-name="Trazado 1295705" d="M179.573,128.217l-4.274-6a5.051,5.051,0,0,1-.938-2.934,20.14,20.14,0,0,0-8.018-16.1,4.492,4.492,0,0,1-1.521.866l-.083.028-.008.087a3.174,3.174,0,0,1-1.161,2.172l-.011.009-.009.012a10.636,10.636,0,0,1-18.868-4.892,20.112,20.112,0,0,0-4.517,3.28,7.181,7.181,0,0,1,.223,1.781c0,.111,0,.22-.009.33l0,.063.046.043a10.635,10.635,0,0,1-5.492,18.342,20.077,20.077,0,0,0,2.35,4.983,10.639,10.639,0,1,1,6.593,18.99,10.843,10.843,0,0,1-1.225-.07v5.39A1.347,1.347,0,0,0,144,155.947h18.944a1.347,1.347,0,0,0,1.347-1.347v-8.462a2.02,2.02,0,0,1,2.02-2.02h4.015a4.04,4.04,0,0,0,4.04-4.04v-6.807a1.347,1.347,0,0,1,1.347-1.347h1.955a2.346,2.346,0,0,0,1.91-3.707Z" transform="translate(-122.462 -88.814)" fill="#ffb09e"/>
        <path id="Trazado_1295706" data-name="Trazado 1295706" d="M228.915,134.476l-4.279-6a5.056,5.056,0,0,1-.939-2.937,20.174,20.174,0,0,0-8.986-16.8A33.583,33.583,0,0,1,191.952,156.9v3.986a1.348,1.348,0,0,0,1.348,1.348h18.964a1.348,1.348,0,0,0,1.348-1.348v-8.47a2.022,2.022,0,0,1,2.022-2.022h4.02a4.044,4.044,0,0,0,4.044-4.044v-6.814a1.348,1.348,0,0,1,1.348-1.348H227a2.348,2.348,0,0,0,1.912-3.711Z" transform="translate(-171.804 -95.102)" fill="#f89580"/>
        <path id="Trazado_1295707" data-name="Trazado 1295707" d="M60.26,138.341a7,7,0,0,1-2.218,4.933,5.007,5.007,0,0,0-1.6,3.613v3.485a1.887,1.887,0,0,1-1.885,1.885h-2.74a1.887,1.887,0,0,1-1.885-1.885v-3.485A4.81,4.81,0,0,0,48.4,143.34a7.089,7.089,0,0,1-2.292-5.127,10.773,10.773,0,1,0,14.147.128Z" transform="translate(-42.339 -120.61)" fill="#05e39c"/>
        <path id="Trazado_1295708" data-name="Trazado 1295708" d="M147.814,296a10.751,10.751,0,0,0-8.33,3.942h9a3.236,3.236,0,0,1,3.232,3.232v7.2a3.236,3.236,0,0,1-3.232,3.232h-5.208a.536.536,0,0,0-.381.158l-1.594,1.594A10.773,10.773,0,1,0,147.814,296Z" transform="translate(-126.402 -257.148)" fill="#ffe177"/>
        <g id="Grupo_1235348" data-name="Grupo 1235348" transform="translate(3.636 10.302)">
          <path id="Trazado_1295709" data-name="Trazado 1295709" d="M76.782,84a7.281,7.281,0,0,0-7.443,7.147,7.191,7.191,0,0,0,2.338,5.377,4.669,4.669,0,0,1,1.484,3.448v.181h6.78v-.181A4.842,4.842,0,0,1,81.5,96.46,7.212,7.212,0,0,0,76.782,84Z" transform="translate(-69.339 -84)" fill="#ffe177"/>
          <path id="Trazado_1295710" data-name="Trazado 1295710" d="M76.782,84a7.281,7.281,0,0,0-7.443,7.147,7.191,7.191,0,0,0,2.338,5.377,4.669,4.669,0,0,1,1.484,3.448v.181h6.78v-.181A4.842,4.842,0,0,1,81.5,96.46,7.212,7.212,0,0,0,76.782,84Z" transform="translate(-69.339 -84)" fill="#ffe177"/>
          <path id="Trazado_1295711" data-name="Trazado 1295711" d="M90.588,89.46a7.546,7.546,0,0,1-8.694,11.113,7.279,7.279,0,0,0,.647.679,4.67,4.67,0,0,1,1.484,3.448v.181h6.78V104.7a4.842,4.842,0,0,1,1.557-3.515A7.211,7.211,0,0,0,90.588,89.46Z" transform="translate(-80.203 -88.725)" fill="#ffd15b"/>
          <path id="Trazado_1295712" data-name="Trazado 1295712" d="M102.484,209.289h-2.74a2.02,2.02,0,0,1-2.02-2.02v-3.3h6.78v3.3A2.02,2.02,0,0,1,102.484,209.289Z" transform="translate(-93.901 -187.809)" fill="#cbc4cc"/>
          <path id="Trazado_1295713" data-name="Trazado 1295713" d="M101.691,204.576a2.02,2.02,0,0,1-2.02,2.02H97.724v.673a2.02,2.02,0,0,0,2.02,2.02h2.74a2.02,2.02,0,0,0,2.02-2.02v-3.3h-2.813v.611Z" transform="translate(-93.901 -187.809)" fill="#b5adb6"/>
        </g>
        <g id="Grupo_1235351" data-name="Grupo 1235351" transform="translate(21.951)">
          <path id="Trazado_1295714" data-name="Trazado 1295714" d="M222.474,25.546a3.2,3.2,0,0,1-3.2-3.2V14.2a3.2,3.2,0,0,1,5.305-2.41v-.171a10.774,10.774,0,1,0,0,13.31v-.171A3.189,3.189,0,0,1,222.474,25.546Z" transform="translate(-205.339 -7.5)" fill="#ffe177"/>
          <g id="Grupo_1235350" data-name="Grupo 1235350" transform="translate(3.988 3.367)">
            <path id="Trazado_1295715" data-name="Trazado 1295715" d="M241.435,32.5a3.333,3.333,0,0,0-3.317,3.016,4.629,4.629,0,0,0,0,8.782,3.333,3.333,0,0,0,6.65-.317V35.833A3.333,3.333,0,0,0,241.435,32.5Z" transform="translate(-234.954 -32.5)" fill="#fd8087"/>
            <g id="Grupo_1235349" data-name="Grupo 1235349" transform="translate(3.742 0.023)">
              <path id="Trazado_1295716" data-name="Trazado 1295716" d="M265.866,32.67V42.695a3.333,3.333,0,0,1-3.124,3.326,3.33,3.33,0,0,0,6.072-1.893V35.98A3.333,3.333,0,0,0,265.866,32.67Z" transform="translate(-262.742 -32.67)" fill="#fe646f"/>
            </g>
            <path id="Trazado_1295717" data-name="Trazado 1295717" d="M311.162,32.5a3.333,3.333,0,0,1,3.317,3.016,4.629,4.629,0,0,1,0,8.782,3.333,3.333,0,0,1-6.65-.317V35.833A3.333,3.333,0,0,1,311.162,32.5Z" transform="translate(-298.015 -32.5)" fill="#fd8087"/>
            <path id="Trazado_1295718" data-name="Trazado 1295718" d="M311.162,32.5a3.333,3.333,0,0,1,3.317,3.016,4.629,4.629,0,0,1,0,8.782,3.333,3.333,0,0,1-6.65-.317V35.833A3.333,3.333,0,0,1,311.162,32.5Z" transform="translate(-298.015 -32.5)" fill="#fd8087"/>
            <path id="Trazado_1295719" data-name="Trazado 1295719" d="M318.972,57.864a5.529,5.529,0,0,1-3.137,6.169,1.1,1.1,0,0,0-.613.753,3.981,3.981,0,0,1-3.215,3,3.333,3.333,0,0,0,6.088-1.536,4.628,4.628,0,0,0,.877-8.382Z" transform="translate(-301.63 -54.448)" fill="#fe646f"/>
          </g>
        </g>
        <g id="Grupo_1235352" data-name="Grupo 1235352" transform="translate(7.285 42.659)">
          <path id="Trazado_1295720" data-name="Trazado 1295720" d="M111.235,324.27H99.8a3.367,3.367,0,0,0-3.367,3.367v7.2A3.367,3.367,0,0,0,99.8,338.2h1.557a.4.4,0,0,1,.4.4v2.719a.4.4,0,0,0,.69.286l3.29-3.29a.4.4,0,0,1,.286-.118h5.208a3.367,3.367,0,0,0,3.367-3.367v-7.2A3.367,3.367,0,0,0,111.235,324.27Z" transform="translate(-96.434 -324.27)" fill="#26a6fe"/>
          <path id="Trazado_1295721" data-name="Trazado 1295721" d="M111.235,324.27v8.546a2.02,2.02,0,0,1-2.02,2.02H96.434A3.367,3.367,0,0,0,99.8,338.2h1.557a.4.4,0,0,1,.4.4v2.719a.4.4,0,0,0,.69.286l3.29-3.29a.4.4,0,0,1,.286-.118h5.208a3.367,3.367,0,0,0,3.367-3.367v-7.2a3.366,3.366,0,0,0-3.367-3.367Z" transform="translate(-96.434 -324.27)" fill="#0593fc"/>
        </g>
      </g>
      <g id="Grupo_1235354" data-name="Grupo 1235354" transform="translate(34.839 0)">
        <path id="Trazado_1295722" data-name="Trazado 1295722" d="M93.783,39.625l-4.274-6a4.019,4.019,0,0,1-.75-2.347A21.025,21.025,0,0,0,81.31,15.155a5.642,5.642,0,0,0-2.158-8.491A4.314,4.314,0,0,0,77.623,4.29l.026-.022A11.779,11.779,0,0,0,61.781,2.157a1.01,1.01,0,0,0,1.166,1.65,9.754,9.754,0,0,1,10.831-.282,4.353,4.353,0,0,0-2.176,1.4,4.341,4.341,0,0,0-7.549,1.734,5.64,5.64,0,0,0,0,10.24A4.341,4.341,0,0,0,71.6,18.638a4.355,4.355,0,0,0,2.179,1.406A9.763,9.763,0,0,1,60.054,7.018a1.041,1.041,0,0,0-.325-1.4,1.01,1.01,0,0,0-1.41.361,11.795,11.795,0,0,0-1.467,7,21.121,21.121,0,0,0-2.764,1.93,8.228,8.228,0,0,0-7.127-4.611,8.125,8.125,0,0,0-4.374,1.125,1.01,1.01,0,1,0,1.023,1.742,6.1,6.1,0,0,1,3.287-.848,6.2,6.2,0,0,1,4.054,10.712,5.95,5.95,0,0,0-1.811,3.421H47.707V20.688h.517a1.01,1.01,0,1,0,0-2.02H45.171a1.01,1.01,0,1,0,0,2.02h.517v5.769H44.259a5.644,5.644,0,0,0-1.753-3.363A6.213,6.213,0,0,1,40.5,18.471a6.016,6.016,0,0,1,.445-2.217,1.01,1.01,0,1,0-1.872-.759,8.028,8.028,0,0,0-.587,2.79,11.78,11.78,0,0,0,8.142,20.3c.354,0,.7-.017,1.049-.047a21.092,21.092,0,0,0,1.615,3.429q-.36.331-.694.694H46.5a4.382,4.382,0,0,0-4.377,4.377v.906a1.01,1.01,0,0,0,2.02,0v-.906A2.359,2.359,0,0,1,46.5,44.679H57.935a2.359,2.359,0,0,1,2.357,2.357v7.2a2.359,2.359,0,0,1-2.357,2.357H52.726a1.4,1.4,0,0,0-1,.414l-2.255,2.255V58.006a1.416,1.416,0,0,0-1.414-1.414H46.5a2.359,2.359,0,0,1-2.357-2.357v-1.58a1.01,1.01,0,1,0-2.02,0v1.58A4.382,4.382,0,0,0,46.5,58.612h.95v2.113a1.413,1.413,0,0,0,2.414,1l1.118-1.118a11.653,11.653,0,0,0,4.043,1.6v4.388a2.359,2.359,0,0,0,2.357,2.357H76.326a2.359,2.359,0,0,0,2.357-2.357V58.133a1.011,1.011,0,0,1,1.01-1.01h4.015a5.056,5.056,0,0,0,5.05-5.05V45.265a.337.337,0,0,1,.337-.337H91.05a3.356,3.356,0,0,0,2.733-5.3ZM70.592,15.857a2.323,2.323,0,0,1-4.494.827l1.374-.783a1.01,1.01,0,1,0-1-1.756l-1.6.909a3.615,3.615,0,0,1,0-6.544l1.086.619v1.033a1.01,1.01,0,1,0,2.02,0V9.081A1.94,1.94,0,0,0,67.005,7.4L66.1,6.883a2.323,2.323,0,0,1,4.494.827Zm2.02,0V7.71a2.323,2.323,0,0,1,4.494-.827L76.2,7.4a1.94,1.94,0,0,0-.978,1.682v1.082a1.01,1.01,0,0,0,2.02,0V9.13l1.086-.619a3.615,3.615,0,0,1,0,6.544l-1.6-.909a1.01,1.01,0,1,0-1,1.756l1.374.783a2.323,2.323,0,0,1-4.494-.827ZM44.318,28.478h4.76v2.294a1.011,1.011,0,0,1-1.01,1.01h-2.74a1.011,1.011,0,0,1-1.01-1.01Zm2.3,8.085a9.757,9.757,0,0,1-7.788-15.644,8.233,8.233,0,0,0,2.306,3.665,3.663,3.663,0,0,1,1.157,2.7v3.485a3.033,3.033,0,0,0,3.03,3.03h2.74a3.033,3.033,0,0,0,3.03-3.03V27.287a3.807,3.807,0,0,1,1.24-2.78,8.246,8.246,0,0,0,2.178-3.448,9.758,9.758,0,0,1-7.893,15.5Zm6.355,22.049h4.957a4.382,4.382,0,0,0,4.377-4.377v-7.2a4.382,4.382,0,0,0-4.377-4.377h-6.3a9.76,9.76,0,1,1,.815,16.476Zm38.073-15.7H89.1a2.359,2.359,0,0,0-2.357,2.357v6.807a3.033,3.033,0,0,1-3.03,3.03H79.693a3.033,3.033,0,0,0-3.03,3.03v8.462a.337.337,0,0,1-.337.337H57.383a.337.337,0,0,1-.337-.337V62.416c.072,0,.143,0,.215,0a11.784,11.784,0,1,0-6.362-21.7,19.1,19.1,0,0,1-1.205-2.542,11.781,11.781,0,0,0,5.223-19.743,8.3,8.3,0,0,0-.142-1.446A19.108,19.108,0,0,1,57.266,15.1a11.781,11.781,0,0,0,20.48,4.075A4.313,4.313,0,0,0,79.152,16.9a5.645,5.645,0,0,0,.665-.364A19.024,19.024,0,0,1,86.739,31.28a6.029,6.029,0,0,0,1.125,3.52l4.274,6a1.336,1.336,0,0,1-1.088,2.111Z" transform="translate(-34.839 0)"/>
        <path id="Trazado_1295723" data-name="Trazado 1295723" d="M131.824,356H122.4a1.01,1.01,0,1,0,0,2.02h9.427a1.01,1.01,0,0,0,0-2.02Z" transform="translate(-109.732 -308.058)"/>
        <path id="Trazado_1295724" data-name="Trazado 1295724" d="M122.4,383.02h1.569a1.01,1.01,0,0,0,0-2.02H122.4a1.01,1.01,0,1,0,0,2.02Z" transform="translate(-109.732 -329.691)"/>
        <path id="Trazado_1295725" data-name="Trazado 1295725" d="M160.945,381H156.05a1.01,1.01,0,1,0,0,2.02h4.895a1.01,1.01,0,0,0,0-2.02Z" transform="translate(-138.853 -329.691)"/>
      </g>
    </g>
  </g>
</svg>
