<svg xmlns="http://www.w3.org/2000/svg" xmlns:xlink="http://www.w3.org/1999/xlink" width="108" height="108" viewBox="0 0 108 108">
  <defs>
    <filter id="Trazado_904820" x="0" y="0" width="108" height="108" filterUnits="userSpaceOnUse">
      <feOffset dy="3" input="SourceAlpha"/>
      <feGaussianBlur stdDeviation="3" result="blur"/>
      <feFlood flood-opacity="0.161"/>
      <feComposite operator="in" in2="blur"/>
      <feComposite in="SourceGraphic"/>
    </filter>
  </defs>
  <g id="Grupo_1235473" data-name="Grupo 1235473" transform="translate(9 6)">
    <g id="Grupo_1235155" data-name="Grupo 1235155" transform="translate(0 0)">
      <g id="Grupo_1233818" data-name="Grupo 1233818">
        <g id="Grupo_1228307" data-name="Grupo 1228307">
          <g id="Grupo_1228100" data-name="Grupo 1228100">
            <g id="Grupo_1221597" data-name="Grupo 1221597">
              <g id="Grupo_1219744" data-name="Grupo 1219744">
                <g id="Grupo_1202418" data-name="Grupo 1202418">
                  <g id="Grupo_1177315" data-name="Grupo 1177315">
                    <g id="Grupo_1173585" data-name="Grupo 1173585">
                      <g id="Grupo_1173428" data-name="Grupo 1173428">
                        <g id="Grupo_1171958" data-name="Grupo 1171958">
                          <g id="Grupo_1167341" data-name="Grupo 1167341">
                            <g id="Grupo_1166792" data-name="Grupo 1166792">
                              <g transform="matrix(1, 0, 0, 1, -9, -6)" filter="url(#Trazado_904820)">
                                <g id="Trazado_904820-2" data-name="Trazado 904820" transform="translate(9 6)" fill="#e9f9fd">
                                  <path d="M 44.99999237060547 88.49993133544922 C 39.12686920166016 88.49993133544922 33.43022918701172 87.35000610351562 28.06829261779785 85.08209991455078 C 22.88853073120117 82.89124298095703 18.23630523681641 79.75453186035156 14.24085521697998 75.75907897949219 C 10.24540519714355 71.76364135742188 7.108692169189453 67.11141204833984 4.917829990386963 61.9316520690918 C 2.649929761886597 56.56972885131836 1.500004887580872 50.87307739257812 1.500004887580872 44.99996566772461 C 1.500004887580872 39.1268424987793 2.649929761886597 33.43020248413086 4.917829990386963 28.06827735900879 C 7.108692169189453 22.88850402832031 10.24540519714355 18.23628997802734 14.24085521697998 14.24084091186523 C 18.23630523681641 10.24540328979492 22.88853073120117 7.108690738677979 28.06829261779785 4.91782808303833 C 33.43022918701172 2.649928092956543 39.12686920166016 1.500003218650818 44.99999237060547 1.500003218650818 C 50.87311553955078 1.500003218650818 56.56976699829102 2.649928092956543 61.93169403076172 4.91782808303833 C 67.11146545410156 7.108690738677979 71.76369476318359 10.24540328979492 75.75914001464844 14.24084091186523 C 79.75457763671875 18.23628997802734 82.89130401611328 22.88850402832031 85.08216857910156 28.06827735900879 C 87.35006713867188 33.43020248413086 88.49999237060547 39.1268424987793 88.49999237060547 44.99996566772461 C 88.49999237060547 50.87307739257812 87.35006713867188 56.56972885131836 85.08216857910156 61.9316520690918 C 82.89130401611328 67.11141204833984 79.75457763671875 71.76364135742188 75.75914001464844 75.75907897949219 C 71.76369476318359 79.75453186035156 67.11146545410156 82.89124298095703 61.93169403076172 85.08209991455078 C 56.56976699829102 87.35000610351562 50.87311553955078 88.49993133544922 44.99999237060547 88.49993133544922 Z" stroke="none"/>
                                  <path d="M 44.99999237060547 2.999992370605469 C 39.32870483398438 2.999992370605469 33.82866287231445 4.110054016113281 28.65262222290039 6.299324035644531 C 23.65164947509766 8.414566040039062 19.15969085693359 11.44332122802734 15.30150604248047 15.30149078369141 C 11.44333648681641 19.15968322753906 8.414566040039062 23.65163421630859 6.299331665039062 28.65260696411133 C 4.11004638671875 33.82863616943359 2.999992370605469 39.32867813110352 2.999992370605469 44.99996566772461 C 2.999992370605469 50.67123794555664 4.11004638671875 56.17129516601562 6.299331665039062 61.34732055664062 C 8.414566040039062 66.34829711914062 11.44333648681641 70.84025573730469 15.30150604248047 74.69842529296875 C 19.15969085693359 78.55659484863281 23.65164947509766 81.58535003662109 28.65262222290039 83.70059204101562 C 33.82866287231445 85.88986206054688 39.32870483398438 86.99992370605469 44.99999237060547 86.99992370605469 C 50.67127990722656 86.99992370605469 56.17132186889648 85.88986206054688 61.34736633300781 83.70059204101562 C 66.34833526611328 81.58535003662109 70.84029388427734 78.55659484863281 74.69846343994141 74.69842529296875 C 78.55663299560547 70.84025573730469 81.58540344238281 66.34829711914062 83.70063781738281 61.34732055664062 C 85.88992309570312 56.17129516601562 86.99997711181641 50.67123794555664 86.99997711181641 44.99996566772461 C 86.99997711181641 39.32867813110352 85.88992309570312 33.82863616943359 83.70063781738281 28.65260696411133 C 81.58540344238281 23.65163421630859 78.55663299560547 19.15968322753906 74.69846343994141 15.30149078369141 C 70.84029388427734 11.44332122802734 66.34833526611328 8.414566040039062 61.34736633300781 6.299324035644531 C 56.17132186889648 4.110054016113281 50.67127990722656 2.999992370605469 44.99999237060547 2.999992370605469 M 44.99999237060547 -7.62939453125e-06 C 69.85279083251953 -7.62939453125e-06 89.99997711181641 20.14716339111328 89.99997711181641 44.99996566772461 C 89.99997711181641 69.85275268554688 69.85279083251953 89.99992370605469 44.99999237060547 89.99992370605469 C 20.14719390869141 89.99992370605469 -7.62939453125e-06 69.85275268554688 -7.62939453125e-06 44.99996566772461 C -7.62939453125e-06 20.14716339111328 20.14719390869141 -7.62939453125e-06 44.99999237060547 -7.62939453125e-06 Z" stroke="none" fill="#1d7083"/>
                                </g>
                              </g>
                            </g>
                          </g>
                        </g>
                      </g>
                    </g>
                  </g>
                </g>
              </g>
            </g>
          </g>
        </g>
      </g>
    </g>
    <g id="gestion-de-proyectos_2_" data-name="gestion-de-proyectos (2)" transform="translate(19.08 16.738)">
      <g id="Grupo_1235457" data-name="Grupo 1235457" transform="translate(0.828 0.828)">
        <path id="Trazado_1295850" data-name="Trazado 1295850" d="M30.945,7.5H59.462a2.231,2.231,0,0,1,1.577.653l9.4,9.4a2.23,2.23,0,0,1,.653,1.577V60.137a2.23,2.23,0,0,1-2.23,2.23H30.945a2.23,2.23,0,0,1-2.23-2.23V9.73a2.23,2.23,0,0,1,2.23-2.23Z" transform="translate(-28.715 -7.5)" fill="#e6f7fe"/>
      </g>
      <g id="Grupo_1235458" data-name="Grupo 1235458" transform="translate(29.6 0.828)">
        <path id="Trazado_1295851" data-name="Trazado 1295851" d="M302.289,17.552l-9.4-9.4a2.231,2.231,0,0,0-1.577-.653h-1.976v8.475a5.13,5.13,0,0,0,5.13,5.13h3.346a2.23,2.23,0,0,1,2.23,2.23v36.8a2.23,2.23,0,0,1-2.23,2.23h2.9a2.23,2.23,0,0,0,2.23-2.23V19.13a2.23,2.23,0,0,0-.653-1.577Z" transform="translate(-289.337 -7.5)" fill="#d3effd"/>
      </g>
      <g id="Grupo_1235459" data-name="Grupo 1235459" transform="translate(32.499 1.031)">
        <path id="Trazado_1295852" data-name="Trazado 1295852" d="M315.6,17.611a2.23,2.23,0,0,0,2.23,2.23H326.1a2.229,2.229,0,0,0-.45-.653l-9.4-9.4a2.226,2.226,0,0,0-.653-.45Z" transform="translate(-315.601 -9.339)" fill="#b2e5fb"/>
      </g>
      <g id="Grupo_1235464" data-name="Grupo 1235464" transform="translate(6.404 15.994)">
        <g id="Grupo_1235461" data-name="Grupo 1235461">
          <g id="Grupo_1235460" data-name="Grupo 1235460" transform="translate(0)">
            <path id="Trazado_1295853" data-name="Trazado 1295853" d="M91.045,160.495H80.785a1.561,1.561,0,0,1-1.561-1.561v-12.49a1.561,1.561,0,0,1,1.561-1.561h10.26a1.561,1.561,0,0,1,1.561,1.561v12.49A1.561,1.561,0,0,1,91.045,160.495Z" transform="translate(-79.224 -144.882)" fill="#f7e365"/>
          </g>
        </g>
        <g id="Grupo_1235463" data-name="Grupo 1235463" transform="translate(17.843)">
          <g id="Grupo_1235462" data-name="Grupo 1235462">
            <path id="Trazado_1295854" data-name="Trazado 1295854" d="M252.671,160.495h-10.26a1.561,1.561,0,0,1-1.561-1.561v-12.49a1.561,1.561,0,0,1,1.561-1.561h10.26a1.561,1.561,0,0,1,1.561,1.561v12.49A1.561,1.561,0,0,1,252.671,160.495Z" transform="translate(-240.85 -144.882)" fill="#f7e365"/>
          </g>
        </g>
      </g>
      <g id="Grupo_1235469" data-name="Grupo 1235469" transform="translate(24.247 25.362)">
        <g id="Grupo_1235465" data-name="Grupo 1235465" transform="translate(0)">
          <path id="Trazado_1295855" data-name="Trazado 1295855" d="M267.612,244.366v-2.5l-2.834-.591a10.631,10.631,0,0,0-.492-1.843l2.158-1.927-1.249-2.163-2.752.906A10.78,10.78,0,0,0,261.1,234.9l.906-2.752L259.84,230.9l-1.927,2.158a10.639,10.639,0,0,0-1.842-.492l-.591-2.834h-2.5l-.59,2.834a10.629,10.629,0,0,0-1.843.492l-1.927-2.158-2.163,1.249.906,2.752a10.772,10.772,0,0,0-1.347,1.347l-2.752-.906-1.249,2.163,2.158,1.927a10.625,10.625,0,0,0-.492,1.843l-2.834.59v2.5l2.834.591a10.625,10.625,0,0,0,.492,1.843l-2.158,1.927,1.249,2.163,2.752-.906a10.781,10.781,0,0,0,1.347,1.347l-.906,2.752,2.163,1.249,1.927-2.158a10.641,10.641,0,0,0,1.843.492l.59,2.834h2.5l.591-2.834a10.631,10.631,0,0,0,1.842-.492l1.927,2.158L262,254.082l-.906-2.752a10.77,10.77,0,0,0,1.347-1.347l2.751.906,1.249-2.163-2.158-1.927a10.639,10.639,0,0,0,.492-1.843Z" transform="translate(-240.848 -229.735)" fill="#62a4fb"/>
        </g>
        <g id="Grupo_1235466" data-name="Grupo 1235466" transform="translate(5.609 5.609)">
          <path id="Trazado_1295856" data-name="Trazado 1295856" d="M312.815,289.569v-2.5l-2.834-.591a10.627,10.627,0,0,0-.492-1.842l2.158-1.927-1.249-2.163-2.492.821A13.668,13.668,0,0,1,292.4,297.037l-.74,2.247,2.163,1.249,1.927-2.158a10.639,10.639,0,0,0,1.843.492l.59,2.834h2.5l.59-2.834a10.628,10.628,0,0,0,1.843-.492l1.927,2.158,2.163-1.249-.906-2.752a10.769,10.769,0,0,0,1.347-1.347l2.752.906,1.249-2.163L309.489,292a10.635,10.635,0,0,0,.492-1.842Z" transform="translate(-291.66 -280.547)" fill="#5392f9"/>
        </g>
        <g id="Grupo_1235467" data-name="Grupo 1235467" transform="translate(6.134 6.134)">
          <ellipse id="Elipse_11596" data-name="Elipse 11596" cx="7.249" cy="7.249" rx="7.249" ry="7.249" fill="#e6f7fe"/>
        </g>
        <g id="Grupo_1235468" data-name="Grupo 1235468" transform="translate(10.706 10.706)">
          <ellipse id="Elipse_11597" data-name="Elipse 11597" cx="2.676" cy="2.676" rx="2.676" ry="2.676" fill="#62a4fb"/>
        </g>
      </g>
      <g id="Grupo_1235470" data-name="Grupo 1235470" transform="translate(6.404 4.397)">
        <path id="Trazado_1295857" data-name="Trazado 1295857" d="M79.223,39.825h19.4v3.569h-19.4Z" transform="translate(-79.223 -39.825)" fill="#e175a5"/>
      </g>
      <g id="Grupo_1235471" data-name="Grupo 1235471" transform="translate(6.404 48.558)">
        <path id="Trazado_1295858" data-name="Trazado 1295858" d="M79.223,439.85H93.5v3.569H79.223Z" transform="translate(-79.223 -439.85)" fill="#ad7fdd"/>
      </g>
      <g id="Grupo_1235472" data-name="Grupo 1235472" transform="translate(0 0)">
        <path id="Trazado_1295859" data-name="Trazado 1295859" d="M22.04,45.263a.828.828,0,0,0,.828-.828V3.058a1.4,1.4,0,0,1,1.4-1.4H52.788c.032,0,.064,0,.1,0V9.3a3.062,3.062,0,0,0,3.058,3.058h7.643c0,.032,0,.063,0,.1v4.356a.828.828,0,1,0,1.656,0V12.457a3.079,3.079,0,0,0-.9-2.162L54.951.9A3.039,3.039,0,0,0,52.788,0H24.271a3.062,3.062,0,0,0-3.059,3.058V44.435A.828.828,0,0,0,22.04,45.263ZM62.418,10.706H55.942a1.4,1.4,0,0,1-1.4-1.4V2.827Z" transform="translate(-21.212 0)"/>
        <path id="Trazado_1295860" data-name="Trazado 1295860" d="M71.722,152.259a2.392,2.392,0,0,0,2.389,2.389h10.26a2.392,2.392,0,0,0,2.389-2.389v-5.905a.828.828,0,1,0-1.656,0v5.905a.734.734,0,0,1-.733.733H74.111a.734.734,0,0,1-.733-.733v-12.49a.734.734,0,0,1,.733-.733h10.26a.734.734,0,0,1,.733.733v2.723a.828.828,0,0,0,1.656,0v-2.723a2.392,2.392,0,0,0-2.389-2.389H74.111a2.392,2.392,0,0,0-2.389,2.389Z" transform="translate(-66.146 -122.214)"/>
        <path id="Trazado_1295861" data-name="Trazado 1295861" d="M104.877,171.364h2.676a.828.828,0,1,0,0-1.656h-2.676a.828.828,0,1,0,0,1.656Z" transform="translate(-94.904 -150.973)"/>
        <path id="Trazado_1295862" data-name="Trazado 1295862" d="M111.121,202.033h-6.245a.828.828,0,1,0,0,1.656h6.245a.828.828,0,1,0,0-1.656Z" transform="translate(-94.903 -179.729)"/>
        <path id="Trazado_1295863" data-name="Trazado 1295863" d="M111.121,234.358h-6.245a.828.828,0,0,0,0,1.656h6.245a.828.828,0,0,0,0-1.656Z" transform="translate(-94.903 -208.486)"/>
        <path id="Trazado_1295864" data-name="Trazado 1295864" d="M266.5,171.364h2.676a.828.828,0,0,0,0-1.656H266.5a.828.828,0,0,0,0,1.656Z" transform="translate(-238.687 -150.973)"/>
        <path id="Trazado_1295865" data-name="Trazado 1295865" d="M266.5,203.689h5.576a.828.828,0,1,0,0-1.656H266.5a.828.828,0,1,0,0,1.656Z" transform="translate(-238.687 -179.729)"/>
        <path id="Trazado_1295866" data-name="Trazado 1295866" d="M72.392,158.9l-2.3-.479c-.067-.3-.147-.6-.238-.89l1.75-1.563a.828.828,0,0,0,.165-1.032l-1.249-2.163a.828.828,0,0,0-.976-.372l-2.232.735q-.312-.337-.65-.65l.735-2.232a.828.828,0,0,0-.372-.976l-1.782-1.029v-5.356a.828.828,0,0,0-1.656,0v5.574l-1.32,1.478q-.439-.136-.89-.238l-.479-2.3a.828.828,0,0,0-.811-.659h-.421v-6.978a2.392,2.392,0,0,0-2.389-2.389H47.02a2.392,2.392,0,0,0-2.389,2.389v12.49a2.393,2.393,0,0,0,1.536,2.231l-.256.444a.828.828,0,0,0,.165,1.032l1.75,1.563q-.136.439-.238.89l-2.3.479a.828.828,0,0,0-.659.811v2.5a.828.828,0,0,0,.659.811l2.3.479q.1.45.238.89l-1.75,1.563a.828.828,0,0,0-.165,1.032l1.249,2.163a.828.828,0,0,0,.976.372l2.232-.735q.312.337.65.65l-.735,2.232a.828.828,0,0,0,.372.976l2.163,1.249a.828.828,0,0,0,1.032-.165l1.563-1.75q.439.136.89.238l.479,2.3a.828.828,0,0,0,.811.659h2.5a.828.828,0,0,0,.811-.659l.479-2.3c.3-.067.6-.147.89-.238l1.32,1.478v2.228a1.4,1.4,0,0,1-1.4,1.4H24.271a1.4,1.4,0,0,1-1.4-1.4v-5.167a.828.828,0,1,0-1.656,0v5.167a3.062,3.062,0,0,0,3.059,3.058H62.187a3.062,3.062,0,0,0,3.059-3.058v-2.01l1.782-1.029a.828.828,0,0,0,.372-.976l-.735-2.232q.337-.312.65-.65l2.232.735a.828.828,0,0,0,.976-.372l1.249-2.163a.828.828,0,0,0-.165-1.032l-1.75-1.563q.136-.439.238-.89l2.3-.479a.828.828,0,0,0,.659-.811v-2.5A.828.828,0,0,0,72.392,158.9ZM47.02,152.995a.734.734,0,0,1-.733-.733v-12.49a.734.734,0,0,1,.733-.733H57.28a.734.734,0,0,1,.733.733v6.978h-.421a.828.828,0,0,0-.811.659l-.479,2.3c-.3.067-.6.147-.89.238l-1.563-1.75a.828.828,0,0,0-1.032-.165l-2.163,1.249a.828.828,0,0,0-.372.976l.735,2.232q-.337.312-.65.65l-2.232-.735a.828.828,0,0,0-.976.372l-.128.222H47.02ZM71.4,161.535l-2.175.453a.828.828,0,0,0-.647.669,9.832,9.832,0,0,1-.454,1.7.828.828,0,0,0,.226.9L70,166.738l-.576,1-2.112-.7a.828.828,0,0,0-.894.255,9.967,9.967,0,0,1-1.243,1.243.828.828,0,0,0-.255.894l.7,2.112-1,.576-1.479-1.656a.828.828,0,0,0-.9-.226,9.832,9.832,0,0,1-1.7.454.828.828,0,0,0-.669.647l-.453,2.175H58.266l-.453-2.175a.828.828,0,0,0-.669-.647,9.832,9.832,0,0,1-1.7-.454.828.828,0,0,0-.9.226l-1.479,1.656-1-.576.7-2.112a.828.828,0,0,0-.255-.894,9.959,9.959,0,0,1-1.243-1.243.828.828,0,0,0-.894-.255l-2.112.7-.576-1,1.656-1.479a.828.828,0,0,0,.226-.9,9.827,9.827,0,0,1-.454-1.7.828.828,0,0,0-.647-.669l-2.175-.453v-1.151l2.175-.453a.828.828,0,0,0,.647-.669,9.827,9.827,0,0,1,.454-1.7.828.828,0,0,0-.226-.9l-1.656-1.479.576-1,2.112.7a.828.828,0,0,0,.894-.255,9.959,9.959,0,0,1,1.243-1.243.828.828,0,0,0,.255-.894l-.7-2.112,1-.576,1.479,1.656a.828.828,0,0,0,.9.226,9.822,9.822,0,0,1,1.7-.454.828.828,0,0,0,.669-.647l.453-2.175h1.151l.453,2.175a.828.828,0,0,0,.669.647,9.834,9.834,0,0,1,1.7.454.828.828,0,0,0,.9-.226L64.62,149.8l1,.576-.7,2.112a.828.828,0,0,0,.255.894,9.966,9.966,0,0,1,1.243,1.243.828.828,0,0,0,.894.255l2.112-.7.576,1-1.656,1.479a.828.828,0,0,0-.226.9,9.831,9.831,0,0,1,.454,1.7.828.828,0,0,0,.647.669l2.175.453v1.151Z" transform="translate(-21.212 -122.216)"/>
        <path id="Trazado_1295867" data-name="Trazado 1295867" d="M333.829,319.211a3.5,3.5,0,1,0,3.5,3.5A3.508,3.508,0,0,0,333.829,319.211Zm0,5.353a1.848,1.848,0,1,1,1.848-1.848A1.851,1.851,0,0,1,333.829,324.564Z" transform="translate(-296.2 -283.971)"/>
        <path id="Trazado_1295868" data-name="Trazado 1295868" d="M296.986,277.795a8.077,8.077,0,1,0,8.077,8.077A8.086,8.086,0,0,0,296.986,277.795Zm0,14.5a6.421,6.421,0,1,1,6.421-6.421A6.428,6.428,0,0,1,296.986,292.292Z" transform="translate(-259.356 -247.127)"/>
        <path id="Trazado_1295869" data-name="Trazado 1295869" d="M92.783,33.153a.828.828,0,0,0-.828-.828h-19.4a.828.828,0,0,0-.828.828v3.569a.828.828,0,0,0,.828.828h19.4a.828.828,0,0,0,.828-.828Zm-1.656,2.741H73.379V33.981H91.127Z" transform="translate(-66.147 -28.756)"/>
        <path id="Trazado_1295870" data-name="Trazado 1295870" d="M72.551,437.575H86.825a.828.828,0,0,0,.828-.828v-3.569a.828.828,0,0,0-.828-.828H72.551a.828.828,0,0,0-.828.828v3.569a.828.828,0,0,0,.828.828Zm.828-3.569H86v1.913H73.379Z" transform="translate(-66.147 -384.62)"/>
        <path id="Trazado_1295871" data-name="Trazado 1295871" d="M76.12,98.632a.828.828,0,0,0,0-1.656H72.551a.828.828,0,0,0,0,1.656Z" transform="translate(-66.147 -86.27)"/>
        <path id="Trazado_1295872" data-name="Trazado 1295872" d="M150.3,97.8a.828.828,0,0,0-.828-.828H137.2a.828.828,0,0,0,0,1.656h12.267A.828.828,0,0,0,150.3,97.8Z" transform="translate(-123.661 -86.27)"/>
        <path id="Trazado_1295873" data-name="Trazado 1295873" d="M160.514,329.313h-5.13a.828.828,0,0,0,0,1.656h5.13a.828.828,0,0,0,0-1.656Z" transform="translate(-139.835 -292.958)"/>
        <path id="Trazado_1295874" data-name="Trazado 1295874" d="M102.856,329.313a.828.828,0,0,0,0,1.656h2.23a.828.828,0,0,0,0-1.656Z" transform="translate(-93.106 -292.958)"/>
        <path id="Trazado_1295875" data-name="Trazado 1295875" d="M86.825,361.638H72.551a.828.828,0,1,0,0,1.656H86.825a.828.828,0,1,0,0-1.656Z" transform="translate(-66.147 -321.714)"/>
        <path id="Trazado_1295876" data-name="Trazado 1295876" d="M72.551,395.619h8.475a.828.828,0,1,0,0-1.656H72.551a.828.828,0,1,0,0,1.656Z" transform="translate(-66.147 -350.471)"/>
        <path id="Trazado_1295877" data-name="Trazado 1295877" d="M183.879,393.963h-2.23a.828.828,0,0,0,0,1.656h2.23a.828.828,0,1,0,0-1.656Z" transform="translate(-163.201 -350.471)"/>
      </g>
    </g>
  </g>
</svg>
