<svg xmlns="http://www.w3.org/2000/svg" xmlns:xlink="http://www.w3.org/1999/xlink" width="106.16" height="106.16" viewBox="0 0 106.16 106.16">
  <defs>
    <filter id="Trazado_982547" x="0" y="0" width="106.16" height="106.16" filterUnits="userSpaceOnUse">
      <feOffset dy="3" input="SourceAlpha"/>
      <feGaussianBlur stdDeviation="3" result="blur"/>
      <feFlood flood-opacity="0.161"/>
      <feComposite operator="in" in2="blur"/>
      <feComposite in="SourceGraphic"/>
    </filter>
  </defs>
  <g id="Grupo_1235379" data-name="Grupo 1235379" transform="translate(-190.42 -1125)">
    <g id="Grupo_1235128" data-name="Grupo 1235128" transform="translate(199.42 1131)">
      <g id="Grupo_1233884" data-name="Grupo 1233884" transform="translate(0 0)">
        <g id="Grupo_1228506" data-name="Grupo 1228506" transform="translate(0 0)">
          <g id="Grupo_1206132" data-name="Grupo 1206132" transform="translate(0 0)">
            <g id="Grupo_1203794" data-name="Grupo 1203794">
              <g id="Grupo_1203345" data-name="Grupo 1203345">
                <g id="Grupo_1177900" data-name="Grupo 1177900">
                  <g id="Grupo_1172010" data-name="Grupo 1172010">
                    <g id="Grupo_1171046" data-name="Grupo 1171046">
                      <g id="Grupo_1148525" data-name="Grupo 1148525">
                        <g transform="matrix(1, 0, 0, 1, -9, -6)" filter="url(#Trazado_982547)">
                          <g id="Trazado_982547-2" data-name="Trazado 982547" transform="translate(9 6)" fill="#e9f9fd">
                            <path d="M 44.0802001953125 86.660400390625 C 38.33124923706055 86.660400390625 32.75506210327148 85.53479766845703 27.50652503967285 83.31484985351562 C 22.43628692626953 81.17032623291016 17.88242530822754 78.09992218017578 13.97144985198975 74.18894958496094 C 10.06047534942627 70.27797698974609 6.99007511138916 65.72411346435547 4.845550060272217 60.65387344360352 C 2.625600099563599 55.40533828735352 1.500000238418579 49.82915115356445 1.500000238418579 44.0802001953125 C 1.500000238418579 38.33124923706055 2.625600099563599 32.75506210327148 4.845550060272217 27.50652503967285 C 6.99007511138916 22.43628692626953 10.06047534942627 17.88242530822754 13.97144985198975 13.97144985198975 C 17.88242530822754 10.06047534942627 22.43628692626953 6.99007511138916 27.50652503967285 4.845550060272217 C 32.75506210327148 2.625600099563599 38.33124923706055 1.500000238418579 44.0802001953125 1.500000238418579 C 49.82915115356445 1.500000238418579 55.40533828735352 2.625600099563599 60.65387344360352 4.845550060272217 C 65.72411346435547 6.99007511138916 70.27797698974609 10.06047534942627 74.18894958496094 13.97144985198975 C 78.09992218017578 17.88242530822754 81.17032623291016 22.43628692626953 83.31484985351562 27.50652503967285 C 85.53479766845703 32.75506210327148 86.660400390625 38.33124923706055 86.660400390625 44.0802001953125 C 86.660400390625 49.82915115356445 85.53479766845703 55.40533828735352 83.31484985351562 60.65387344360352 C 81.17032623291016 65.72411346435547 78.09992218017578 70.27797698974609 74.18894958496094 74.18894958496094 C 70.27797698974609 78.09992218017578 65.72411346435547 81.17032623291016 60.65387344360352 83.31484985351562 C 55.40533828735352 85.53479766845703 49.82915115356445 86.660400390625 44.0802001953125 86.660400390625 Z" stroke="none"/>
                            <path d="M 44.0802001953125 3 C 38.53308486938477 3 33.15349960327148 4.085746765136719 28.09085845947266 6.227058410644531 C 23.19941711425781 8.29595947265625 18.80581665039062 11.25841522216797 15.03211212158203 15.03211212158203 C 11.25841522216797 18.80581665039062 8.29595947265625 23.19941711425781 6.227058410644531 28.09085845947266 C 4.085746765136719 33.15349960327148 3 38.53308486938477 3 44.0802001953125 C 3 49.62731552124023 4.085746765136719 55.00691604614258 6.227058410644531 60.06954193115234 C 8.29595947265625 64.96098327636719 11.25841522216797 69.35458374023438 15.03211212158203 73.12828826904297 C 18.80581665039062 76.90198516845703 23.19941711425781 79.86444091796875 28.09085845947266 81.93334197998047 C 33.15349960327148 84.07466125488281 38.53308486938477 85.160400390625 44.0802001953125 85.160400390625 C 49.62731552124023 85.160400390625 55.00691604614258 84.07466125488281 60.06954193115234 81.93334197998047 C 64.96099853515625 79.86444091796875 69.35458374023438 76.90198516845703 73.12828826904297 73.12828826904297 C 76.90198516845703 69.35458374023438 79.86444091796875 64.96099853515625 81.93334197998047 60.06954193115234 C 84.07466125488281 55.00691604614258 85.160400390625 49.62731552124023 85.160400390625 44.0802001953125 C 85.160400390625 38.53308486938477 84.07466125488281 33.15349960327148 81.93334197998047 28.09085845947266 C 79.86444091796875 23.19941711425781 76.90198516845703 18.80581665039062 73.12828826904297 15.03211212158203 C 69.35458374023438 11.25841522216797 64.96098327636719 8.29595947265625 60.06954193115234 6.227058410644531 C 55.00691604614258 4.085746765136719 49.62731552124023 3 44.0802001953125 3 M 44.0802001953125 0 C 68.42502593994141 0 88.160400390625 19.73538970947266 88.160400390625 44.0802001953125 C 88.160400390625 68.42502593994141 68.42502593994141 88.160400390625 44.0802001953125 88.160400390625 C 19.73538970947266 88.160400390625 0 68.42502593994141 0 44.0802001953125 C 0 19.73538970947266 19.73538970947266 0 44.0802001953125 0 Z" stroke="none" fill="#1d7083"/>
                          </g>
                        </g>
                      </g>
                    </g>
                  </g>
                </g>
              </g>
            </g>
          </g>
        </g>
      </g>
    </g>
    <g id="trabajo-en-equipo_9_" data-name="trabajo-en-equipo (9)" transform="translate(213 1144)">
      <g id="Grupo_1235377" data-name="Grupo 1235377">
        <g id="Grupo_1235356" data-name="Grupo 1235356">
          <circle id="Elipse_11578" data-name="Elipse 11578" cx="16" cy="16" r="16" transform="translate(3 29)" fill="#ffeaa7"/>
        </g>
        <g id="Grupo_1235357" data-name="Grupo 1235357">
          <circle id="Elipse_11579" data-name="Elipse 11579" cx="16" cy="16" r="16" transform="translate(29 11)" fill="#ffeaa7"/>
        </g>
        <g id="Grupo_1235358" data-name="Grupo 1235358">
          <circle id="Elipse_11580" data-name="Elipse 11580" cx="16" cy="16" r="16" transform="translate(1 5)" fill="#ffeaa7"/>
        </g>
        <g id="Grupo_1235359" data-name="Grupo 1235359">
          <path id="Trazado_1295726" data-name="Trazado 1295726" d="M48,33a7.53,7.53,0,0,1,3.06,1.63c.06.05.12.11.17.16a7.145,7.145,0,0,1,1.9,3.17l.69,2.39A15.879,15.879,0,0,1,45,43h-.02L45,42a16.753,16.753,0,0,0,2.59-6.56l.07-.44Z" fill="#ff826e"/>
        </g>
        <g id="Grupo_1235360" data-name="Grupo 1235360">
          <path id="Trazado_1295727" data-name="Trazado 1295727" d="M42.34,35l.07.44A16.753,16.753,0,0,0,45,42l-.02,1a15.869,15.869,0,0,1-8.8-2.65l.69-2.39a7.145,7.145,0,0,1,1.9-3.17c.05-.05.11-.11.17-.16A7.53,7.53,0,0,1,42,33Z" fill="#ff826e"/>
        </g>
        <g id="Grupo_1235361" data-name="Grupo 1235361">
          <path id="Trazado_1295728" data-name="Trazado 1295728" d="M47.66,35l-.07.44A16.753,16.753,0,0,1,45,42a16.753,16.753,0,0,1-2.59-6.56L42.34,35Z" fill="#b4dd7f"/>
        </g>
        <g id="Grupo_1235362" data-name="Grupo 1235362">
          <path id="Trazado_1295729" data-name="Trazado 1295729" d="M39.34,28.66l3.43,2.02L42,33a7.53,7.53,0,0,0-3.06,1.63A9.656,9.656,0,0,1,33,25.72V19a11.858,11.858,0,0,1,.38-3,12,12,0,0,1,23.24,0A11.858,11.858,0,0,1,57,19v6.72a9.656,9.656,0,0,1-5.94,8.91A7.53,7.53,0,0,0,48,33l-.77-2.32A7.991,7.991,0,0,0,53,23V18.83a2.009,2.009,0,0,0-1.82-2l-4.73-.43a8,8,0,0,1-3.42-1.12l-4.58,1.31A1.992,1.992,0,0,0,37,18.51V23a8.014,8.014,0,0,0,2.34,5.66Z" fill="#656d78"/>
        </g>
        <g id="Grupo_1235363" data-name="Grupo 1235363">
          <path id="Trazado_1295730" data-name="Trazado 1295730" d="M15.03,9.28l-4.58,1.31A1.992,1.992,0,0,0,9,12.51V15H7V10a9.335,9.335,0,0,1,.14-1.6A9.01,9.01,0,0,1,16,1h2a9.01,9.01,0,0,1,8.86,7.4A9.335,9.335,0,0,1,27,10v5H25V12.83a2.009,2.009,0,0,0-1.82-2l-4.73-.43a8,8,0,0,1-3.42-1.12Z" fill="#656d78"/>
        </g>
        <g id="Grupo_1235364" data-name="Grupo 1235364">
          <path id="Trazado_1295731" data-name="Trazado 1295731" d="M17.03,33.28l-4.58,1.31A1.992,1.992,0,0,0,11,36.51V39H9L7.85,36.71a8.19,8.19,0,0,1-.76-2.4,7.4,7.4,0,0,1-.08-.81C7,33.36,7,33.23,7,33.09A8.087,8.087,0,0,1,15.09,25h7.3A11.943,11.943,0,0,0,29,23l.21.42c.04.09.09.18.13.27A17.209,17.209,0,0,1,31,31a16.951,16.951,0,0,1-.29,3.1,16.654,16.654,0,0,1-1.5,4.48L29,39H27V36.83a2.009,2.009,0,0,0-1.82-2l-4.73-.43a8,8,0,0,1-3.42-1.12Z" fill="#b27946"/>
        </g>
        <g id="Grupo_1235365" data-name="Grupo 1235365">
          <path id="Trazado_1295732" data-name="Trazado 1295732" d="M22,51a7.121,7.121,0,0,1,5.13,4.96l.69,2.39A15.879,15.879,0,0,1,19,61h-.02L19,60l2-3-1-4Z" fill="#e6e9ed"/>
        </g>
        <g id="Grupo_1235366" data-name="Grupo 1235366">
          <path id="Trazado_1295733" data-name="Trazado 1295733" d="M17,57l2,3-.02,1a15.893,15.893,0,0,1-8.8-2.65l.69-2.39A7.121,7.121,0,0,1,16,51l2,2Z" fill="#e6e9ed"/>
        </g>
        <g id="Grupo_1235367" data-name="Grupo 1235367">
          <path id="Trazado_1295734" data-name="Trazado 1295734" d="M20,53l1,4-2,3-2-3,1-4Z" fill="#ff826e"/>
        </g>
        <g id="Grupo_1235368" data-name="Grupo 1235368">
          <path id="Trazado_1295735" data-name="Trazado 1295735" d="M29,39a2.006,2.006,0,0,1,2,2,2.015,2.015,0,0,1-2,2H26.75A8.239,8.239,0,0,0,27,41V39Z" fill="#f0d0b4"/>
        </g>
        <g id="Grupo_1235369" data-name="Grupo 1235369">
          <path id="Trazado_1295736" data-name="Trazado 1295736" d="M21.23,48.68,22,51l-2,2H18l-2-2,.77-2.32a7.93,7.93,0,0,0,4.46,0Z" fill="#f0d0b4"/>
        </g>
        <g id="Grupo_1235370" data-name="Grupo 1235370">
          <path id="Trazado_1295737" data-name="Trazado 1295737" d="M27,39v2a8.239,8.239,0,0,1-.25,2,8.028,8.028,0,0,1-5.52,5.68,7.93,7.93,0,0,1-4.46,0l-3.43-2.02A8.122,8.122,0,0,1,11.25,43,8.239,8.239,0,0,1,11,41V36.51a1.992,1.992,0,0,1,1.45-1.92l4.58-1.31a8,8,0,0,0,3.42,1.12l4.73.43a2.009,2.009,0,0,1,1.82,2Z" fill="#f0d0b4"/>
        </g>
        <g id="Grupo_1235371" data-name="Grupo 1235371">
          <path id="Trazado_1295738" data-name="Trazado 1295738" d="M11,39v2a8.239,8.239,0,0,0,.25,2H9a2.015,2.015,0,0,1-2-2,2.006,2.006,0,0,1,2-2Z" fill="#f0d0b4"/>
        </g>
        <g id="Grupo_1235372" data-name="Grupo 1235372">
          <path id="Trazado_1295739" data-name="Trazado 1295739" d="M47.23,30.68,48,33l-.34,2H42.34L42,33l.77-2.32a7.93,7.93,0,0,0,4.46,0Z" fill="#f0d0b4"/>
        </g>
        <g id="Grupo_1235373" data-name="Grupo 1235373">
          <path id="Trazado_1295740" data-name="Trazado 1295740" d="M53,18.83V23a7.991,7.991,0,0,1-5.77,7.68,7.93,7.93,0,0,1-4.46,0l-3.43-2.02A8.014,8.014,0,0,1,37,23V18.51a1.992,1.992,0,0,1,1.45-1.92l4.58-1.31a8,8,0,0,0,3.42,1.12l4.73.43a2.009,2.009,0,0,1,1.82,2Z" fill="#f0d0b4"/>
        </g>
        <g id="Grupo_1235374" data-name="Grupo 1235374">
          <path id="Trazado_1295741" data-name="Trazado 1295741" d="M27,15a2.006,2.006,0,0,1,2,2,2.015,2.015,0,0,1-2,2H24.75A8.239,8.239,0,0,0,25,17V15Z" fill="#f0d0b4"/>
        </g>
        <g id="Grupo_1235375" data-name="Grupo 1235375">
          <path id="Trazado_1295742" data-name="Trazado 1295742" d="M25,15v2a8.239,8.239,0,0,1-.25,2,8.009,8.009,0,0,1-13.41,3.66A8.122,8.122,0,0,1,9.25,19,8.239,8.239,0,0,1,9,17V12.51a1.992,1.992,0,0,1,1.45-1.92l4.58-1.31a8,8,0,0,0,3.42,1.12l4.73.43a2.009,2.009,0,0,1,1.82,2Z" fill="#f0d0b4"/>
        </g>
        <g id="Grupo_1235376" data-name="Grupo 1235376">
          <path id="Trazado_1295743" data-name="Trazado 1295743" d="M9.25,19H7a2.015,2.015,0,0,1-2-2,2.006,2.006,0,0,1,2-2H9v2A8.239,8.239,0,0,0,9.25,19Z" fill="#f0d0b4"/>
        </g>
      </g>
      <g id="Grupo_1235378" data-name="Grupo 1235378">
        <circle id="Elipse_11581" data-name="Elipse 11581" cx="1" cy="1" r="1" transform="translate(14 38)"/>
        <circle id="Elipse_11582" data-name="Elipse 11582" cx="1" cy="1" r="1" transform="translate(22 38)"/>
        <path id="Trazado_1295744" data-name="Trazado 1295744" d="M21,42.764a2.236,2.236,0,0,1-4,0l-.1-.211-1.789.9.1.211a4.236,4.236,0,0,0,7.578,0l.1-.211-1.789-.9Z"/>
        <circle id="Elipse_11583" data-name="Elipse 11583" cx="1" cy="1" r="1" transform="translate(12 14)"/>
        <circle id="Elipse_11584" data-name="Elipse 11584" cx="1" cy="1" r="1" transform="translate(20 14)"/>
        <path id="Trazado_1295745" data-name="Trazado 1295745" d="M19,18.764a2.236,2.236,0,0,1-4,0l-.1-.211-1.789.9.1.211a4.236,4.236,0,0,0,7.578,0l.1-.211-1.789-.9Z"/>
        <circle id="Elipse_11585" data-name="Elipse 11585" cx="1" cy="1" r="1" transform="translate(40 20)"/>
        <circle id="Elipse_11586" data-name="Elipse 11586" cx="1" cy="1" r="1" transform="translate(48 20)"/>
        <path id="Trazado_1295746" data-name="Trazado 1295746" d="M47,24.764a2.236,2.236,0,0,1-4,0l-.1-.211-1.789.9.1.211a4.236,4.236,0,0,0,7.578,0l.1-.211-1.789-.9Z"/>
        <path id="Trazado_1295747" data-name="Trazado 1295747" d="M57.508,15.5a12.981,12.981,0,0,0-24.747-.842,17.109,17.109,0,0,0-5-6.8A10.014,10.014,0,0,0,18,0H16A10.014,10.014,0,0,0,6.235,7.864a16.951,16.951,0,0,0-.183,26.117.193.193,0,0,1,0,.024,17.017,17.017,0,1,0,29.482,7.112A16.833,16.833,0,0,0,45,44,16.989,16.989,0,0,0,57.508,15.5ZM45,8A11.013,11.013,0,0,1,56,19v6.72a8.6,8.6,0,0,1-4.823,7.733,8.124,8.124,0,0,0-2.394-1.268l-.3-.888A9.016,9.016,0,0,0,54,23V18.826a2.985,2.985,0,0,0-2.729-2.987l-4.727-.43a6.986,6.986,0,0,1-5.65-3.856l-1.789.895a9.089,9.089,0,0,0,1.748,2.412l-2.677.765A3.011,3.011,0,0,0,36,18.509V23a9.014,9.014,0,0,0,5.513,8.3l-.3.888a8.124,8.124,0,0,0-2.394,1.268A8.6,8.6,0,0,1,34,25.72V19A11.013,11.013,0,0,1,45,8ZM34.215,37.417a17.03,17.03,0,0,0-2.443-3.612A17.731,17.731,0,0,0,30.4,23.6,14.9,14.9,0,0,1,32,19.528V25.72a10.61,10.61,0,0,0,5.315,9.214,8.1,8.1,0,0,0-1.409,2.756l-.285,1A15.146,15.146,0,0,1,34.215,37.417ZM19.219,54l.7,2.813L19,58.2l-.922-1.384.7-2.813Zm-3.5-1.863,1.169,1.169-.97,3.88,1.834,2.75a14.873,14.873,0,0,1-6.4-2.053l.47-1.645a6.156,6.156,0,0,1,3.9-4.1Zm6.355,5.05-.97-3.88,1.169-1.169a6.154,6.154,0,0,1,3.9,4.1l.47,1.645a14.863,14.863,0,0,1-6.4,2.052ZM20.856,50.73,19.586,52H18.414l-1.27-1.27.292-.875a8.507,8.507,0,0,0,3.128,0ZM19,48a7.008,7.008,0,0,1-7-7V36.509a1,1,0,0,1,.726-.961l4.159-1.189A9.045,9.045,0,0,0,20.364,35.4l4.727.43a1,1,0,0,1,.91.995V41A7.01,7.01,0,0,1,19,48Zm6.271-14.161-4.727-.43a6.986,6.986,0,0,1-5.65-3.856l-1.789.9a9.089,9.089,0,0,0,1.748,2.412l-2.677.765A3.011,3.011,0,0,0,10,36.509V38H9.618l-.87-1.739A7.091,7.091,0,0,1,15.09,26h7.3a12.863,12.863,0,0,0,6.185-1.578A15.9,15.9,0,0,1,28.372,38H28V36.826A2.985,2.985,0,0,0,25.271,33.839ZM9,40h1v1a8.935,8.935,0,0,0,.059,1H9a1,1,0,0,1,0-2Zm8-16a7.008,7.008,0,0,1-7-7V12.509a1,1,0,0,1,.726-.961l4.159-1.189A9.045,9.045,0,0,0,18.364,11.4l4.727.43a1,1,0,0,1,.91.995V17A7.01,7.01,0,0,1,17,24ZM28,41V40h1a1,1,0,0,1,0,2H27.941A8.935,8.935,0,0,0,28,41Zm9.829-2.761a6.152,6.152,0,0,1,3.381-3.9l.211,1.265A17.674,17.674,0,0,0,43.8,41.94,14.789,14.789,0,0,1,37.355,39.9ZM45,30a7.008,7.008,0,0,1-7-7V18.509a1,1,0,0,1,.726-.961l4.159-1.189A9.045,9.045,0,0,0,46.364,17.4l4.727.43a1,1,0,0,1,.91,1V23a7.01,7.01,0,0,1-7,7Zm0,2a9.061,9.061,0,0,0,1.564-.145l.409,1.227L46.82,34H43.18l-.153-.919.409-1.227A8.963,8.963,0,0,0,45,32Zm1.457,4A15.616,15.616,0,0,1,45,40.049,15.652,15.652,0,0,1,43.543,36Zm2.122-.393.211-1.265a6.152,6.152,0,0,1,3.381,3.9l.47,1.645A14.874,14.874,0,0,1,46.2,41.939,17.655,17.655,0,0,0,48.579,35.607ZM31.4,16.817a16.94,16.94,0,0,0-2.624,5.133l-.327.218a10.873,10.873,0,0,1-5.788,1.822A9.038,9.038,0,0,0,25.476,20H27a2.993,2.993,0,0,0,1-5.816V10.808A15.069,15.069,0,0,1,31.4,16.817ZM26,17V16h1a1,1,0,0,1,0,2H25.941A8.935,8.935,0,0,0,26,17ZM8,10a8.009,8.009,0,0,1,8-8h2a8.009,8.009,0,0,1,8,8v2.826a2.985,2.985,0,0,0-2.729-2.987l-4.727-.43a6.986,6.986,0,0,1-5.65-3.856l-1.789.895A9.089,9.089,0,0,0,12.853,8.86l-2.677.765A3.011,3.011,0,0,0,8,12.509ZM7,16H8v1a8.935,8.935,0,0,0,.059,1H7a1,1,0,0,1,0-2ZM2,21A14.885,14.885,0,0,1,6,10.831v3.353A2.993,2.993,0,0,0,7,20H8.525a9.033,9.033,0,0,0,3.551,4.525A9.112,9.112,0,0,0,6.17,31.361,14.91,14.91,0,0,1,2,21ZM4,45a14.962,14.962,0,0,1,2.67-8.519c.091.227.18.456.289.675l.612,1.223A2.989,2.989,0,0,0,9,44h1.525a9.044,9.044,0,0,0,4.989,5.3l-.3.888a8.166,8.166,0,0,0-5.312,5.506l-.285,1A14.972,14.972,0,0,1,4,45ZM28.379,56.688l-.285-1a8.168,8.168,0,0,0-5.312-5.506l-.3-.888A9.041,9.041,0,0,0,27.475,44H29a2.99,2.99,0,0,0,1.41-5.632,17.927,17.927,0,0,0,.785-2.077,14.946,14.946,0,0,1-2.816,20.4Zm26-18-.285-1a8.093,8.093,0,0,0-1.409-2.756A10.614,10.614,0,0,0,58,25.72V19.543a14.941,14.941,0,0,1-3.621,19.145Z"/>
      </g>
    </g>
  </g>
</svg>
