<svg xmlns="http://www.w3.org/2000/svg" xmlns:xlink="http://www.w3.org/1999/xlink" width="113" height="113" viewBox="0 0 113 113">
  <defs>
    <filter id="Trazado_982547" x="0" y="0" width="113" height="113" filterUnits="userSpaceOnUse">
      <feOffset dy="3" input="SourceAlpha"/>
      <feGaussianBlur stdDeviation="3" result="blur"/>
      <feFlood flood-opacity="0.161"/>
      <feComposite operator="in" in2="blur"/>
      <feComposite in="SourceGraphic"/>
    </filter>
  </defs>
  <g id="Grupo_1235256" data-name="Grupo 1235256" transform="translate(-744.696 -3176.259)">
    <g id="Grupo_1235056" data-name="Grupo 1235056" transform="translate(753.696 3182.259)">
      <g id="Grupo_1232526" data-name="Grupo 1232526">
        <g id="Grupo_1230113" data-name="Grupo 1230113">
          <g id="Grupo_1230104" data-name="Grupo 1230104">
            <g id="Grupo_1224257" data-name="Grupo 1224257">
              <g id="Grupo_1223773" data-name="Grupo 1223773">
                <g id="Grupo_1206282" data-name="Grupo 1206282">
                  <g id="Grupo_1203803" data-name="Grupo 1203803">
                    <g id="Grupo_1202425" data-name="Grupo 1202425">
                      <g id="Grupo_1178324" data-name="Grupo 1178324">
                        <g id="Grupo_1177680" data-name="Grupo 1177680">
                          <g id="Grupo_1172010" data-name="Grupo 1172010">
                            <g id="Grupo_1171046" data-name="Grupo 1171046">
                              <g id="Grupo_1148525" data-name="Grupo 1148525">
                                <g transform="matrix(1, 0, 0, 1, -9, -6)" filter="url(#Trazado_982547)">
                                  <g id="Trazado_982547-2" data-name="Trazado 982547" transform="translate(9 6)" fill="#ffe1b9">
                                    <path d="M 47.5 93.5 C 41.28937149047852 93.5 35.26533508300781 92.28397369384766 29.59518623352051 89.88570404052734 C 24.11771965026855 87.56893157958984 19.19813346862793 84.25196075439453 14.97309303283691 80.02691650390625 C 10.74804019927979 75.80186462402344 7.431066513061523 70.88229370117188 5.114293098449707 65.40481567382812 C 2.716026782989502 59.73468017578125 1.5 53.71062850952148 1.5 47.5 C 1.5 41.28937149047852 2.716026782989502 35.26533508300781 5.114293098449707 29.59518623352051 C 7.431066513061523 24.11771965026855 10.74804019927979 19.19813346862793 14.97309303283691 14.97309303283691 C 19.19813346862793 10.74804019927979 24.11771965026855 7.431066513061523 29.59518623352051 5.114293098449707 C 35.26533508300781 2.716026782989502 41.28937149047852 1.5 47.5 1.5 C 53.71062850952148 1.5 59.73468017578125 2.716026782989502 65.40481567382812 5.114293098449707 C 70.88229370117188 7.431066513061523 75.80186462402344 10.74804019927979 80.02691650390625 14.97309303283691 C 84.25196075439453 19.19813346862793 87.56893157958984 24.11771965026855 89.88570404052734 29.59518623352051 C 92.28397369384766 35.26533508300781 93.5 41.28937149047852 93.5 47.5 C 93.5 53.71062850952148 92.28397369384766 59.73468017578125 89.88570404052734 65.40481567382812 C 87.56893157958984 70.88229370117188 84.25196075439453 75.80186462402344 80.02691650390625 80.02691650390625 C 75.80186462402344 84.25196075439453 70.88229370117188 87.56893157958984 65.40481567382812 89.88570404052734 C 59.73468017578125 92.28397369384766 53.71062850952148 93.5 47.5 93.5 Z" stroke="none"/>
                                    <path d="M 47.5 3 C 41.49121475219727 3 35.66376876831055 4.176155090332031 30.17950439453125 6.495796203613281 C 24.88084411621094 8.736953735351562 20.12152099609375 11.94598388671875 16.03375244140625 16.03375244140625 C 11.94598388671875 20.12152099609375 8.736953735351562 24.88084411621094 6.495796203613281 30.17950439453125 C 4.176155090332031 35.66376876831055 3 41.49121475219727 3 47.5 C 3 53.50878524780273 4.176155090332031 59.33623123168945 6.495796203613281 64.82049560546875 C 8.736953735351562 70.11915588378906 11.94598388671875 74.87847900390625 16.03375244140625 78.96624755859375 C 20.12152099609375 83.05401611328125 24.88084411621094 86.26304626464844 30.17950439453125 88.50419616699219 C 35.66376876831055 90.82384490966797 41.49121475219727 92 47.5 92 C 53.50878524780273 92 59.33623123168945 90.82384490966797 64.82049560546875 88.50419616699219 C 70.11915588378906 86.26304626464844 74.87847900390625 83.05401611328125 78.96624755859375 78.96624755859375 C 83.05401611328125 74.87847900390625 86.26304626464844 70.11915588378906 88.50419616699219 64.82049560546875 C 90.82384490966797 59.33623123168945 92 53.50878524780273 92 47.5 C 92 41.49121475219727 90.82384490966797 35.66376876831055 88.50419616699219 30.17950439453125 C 86.26304626464844 24.88084411621094 83.05401611328125 20.12152099609375 78.96624755859375 16.03375244140625 C 74.87847900390625 11.94598388671875 70.11915588378906 8.736953735351562 64.82049560546875 6.495796203613281 C 59.33623123168945 4.176155090332031 53.50878524780273 3 47.5 3 M 47.5 0 C 73.7335205078125 0 95 21.2664794921875 95 47.5 C 95 73.7335205078125 73.7335205078125 95 47.5 95 C 21.2664794921875 95 0 73.7335205078125 0 47.5 C 0 21.2664794921875 21.2664794921875 0 47.5 0 Z" stroke="none" fill="#ff9d1c"/>
                                  </g>
                                </g>
                              </g>
                            </g>
                          </g>
                        </g>
                      </g>
                    </g>
                  </g>
                </g>
              </g>
            </g>
          </g>
        </g>
      </g>
    </g>
    <g id="cuadro" transform="translate(765.216 3133.865)">
      <g id="Grupo_1235223" data-name="Grupo 1235223" transform="translate(26.596 63.12)">
        <g id="Grupo_1235222" data-name="Grupo 1235222" transform="translate(0 0)">
          <path id="Trazado_1295354" data-name="Trazado 1295354" d="M200.689,86.167h-13.01a2.887,2.887,0,0,1-2.878-2.878V70.278a2.887,2.887,0,0,1,2.878-2.878h13.01a2.887,2.887,0,0,1,2.878,2.878v13.01A2.878,2.878,0,0,1,200.689,86.167Z" transform="translate(-184.8 -67.4)" fill="#83e1e5"/>
        </g>
      </g>
      <g id="Grupo_1235225" data-name="Grupo 1235225" transform="translate(52.473 96.912)">
        <g id="Grupo_1235224" data-name="Grupo 1235224">
          <path id="Trazado_1295355" data-name="Trazado 1295355" d="M380.489,320.967h-13.01a2.887,2.887,0,0,1-2.878-2.878v-13.01a2.887,2.887,0,0,1,2.878-2.878h13.01a2.887,2.887,0,0,1,2.878,2.878v13.01A2.878,2.878,0,0,1,380.489,320.967Z" transform="translate(-364.6 -302.2)" fill="#83e1e5"/>
        </g>
      </g>
      <g id="Grupo_1235227" data-name="Grupo 1235227" transform="translate(26.596 96.912)">
        <g id="Grupo_1235226" data-name="Grupo 1235226">
          <path id="Trazado_1295356" data-name="Trazado 1295356" d="M200.689,320.967h-13.01a2.887,2.887,0,0,1-2.878-2.878v-13.01a2.887,2.887,0,0,1,2.878-2.878h13.01a2.887,2.887,0,0,1,2.878,2.878v13.01A2.868,2.868,0,0,1,200.689,320.967Z" transform="translate(-184.8 -302.2)" fill="#83e1e5"/>
        </g>
      </g>
      <g id="Grupo_1235229" data-name="Grupo 1235229" transform="translate(0.72 96.912)">
        <g id="Grupo_1235228" data-name="Grupo 1235228">
          <path id="Trazado_1295357" data-name="Trazado 1295357" d="M20.889,320.967H7.878A2.887,2.887,0,0,1,5,318.089v-13.01A2.887,2.887,0,0,1,7.878,302.2h13.01a2.887,2.887,0,0,1,2.878,2.878v13.01A2.868,2.868,0,0,1,20.889,320.967Z" transform="translate(-5 -302.2)" fill="#83e1e5"/>
        </g>
      </g>
      <g id="Grupo_1235231" data-name="Grupo 1235231" transform="translate(25.877 62.4)">
        <g id="Grupo_1235230" data-name="Grupo 1235230" transform="translate(0 0)">
          <path id="Trazado_1295358" data-name="Trazado 1295358" d="M196.408,82.606H183.4a3.6,3.6,0,0,1-3.6-3.6V66a3.6,3.6,0,0,1,3.6-3.6h13.01a3.6,3.6,0,0,1,3.6,3.6v13.01A3.6,3.6,0,0,1,196.408,82.606ZM183.4,63.839A2.156,2.156,0,0,0,181.239,66v13.01a2.156,2.156,0,0,0,2.159,2.159h13.01a2.156,2.156,0,0,0,2.159-2.159V66a2.156,2.156,0,0,0-2.159-2.159Z" transform="translate(-179.8 -62.4)" fill="#1c1d21"/>
        </g>
      </g>
      <g id="Grupo_1235233" data-name="Grupo 1235233" transform="translate(51.753 96.192)">
        <g id="Grupo_1235232" data-name="Grupo 1235232">
          <path id="Trazado_1295359" data-name="Trazado 1295359" d="M376.208,317.406H363.2a3.6,3.6,0,0,1-3.6-3.6V300.8a3.6,3.6,0,0,1,3.6-3.6h13.01a3.6,3.6,0,0,1,3.6,3.6v13.01A3.6,3.6,0,0,1,376.208,317.406ZM363.2,298.639a2.156,2.156,0,0,0-2.159,2.159v13.01a2.156,2.156,0,0,0,2.159,2.159h13.01a2.156,2.156,0,0,0,2.159-2.159V300.8a2.156,2.156,0,0,0-2.159-2.159Z" transform="translate(-359.6 -297.2)" fill="#1c1d21"/>
        </g>
      </g>
      <g id="Grupo_1235235" data-name="Grupo 1235235" transform="translate(25.877 96.192)">
        <g id="Grupo_1235234" data-name="Grupo 1235234">
          <path id="Trazado_1295360" data-name="Trazado 1295360" d="M196.408,317.406H183.4a3.6,3.6,0,0,1-3.6-3.6V300.8a3.6,3.6,0,0,1,3.6-3.6h13.01a3.6,3.6,0,0,1,3.6,3.6v13.01A3.6,3.6,0,0,1,196.408,317.406ZM183.4,298.639a2.156,2.156,0,0,0-2.159,2.159v13.01a2.156,2.156,0,0,0,2.159,2.159h13.01a2.156,2.156,0,0,0,2.159-2.159V300.8a2.156,2.156,0,0,0-2.159-2.159Z" transform="translate(-179.8 -297.2)" fill="#1c1d21"/>
        </g>
      </g>
      <g id="Grupo_1235237" data-name="Grupo 1235237" transform="translate(0 96.192)">
        <g id="Grupo_1235236" data-name="Grupo 1235236">
          <path id="Trazado_1295361" data-name="Trazado 1295361" d="M16.608,317.406H3.6a3.6,3.6,0,0,1-3.6-3.6V300.8a3.6,3.6,0,0,1,3.6-3.6h13.01a3.6,3.6,0,0,1,3.6,3.6v13.01A3.6,3.6,0,0,1,16.608,317.406ZM3.6,298.639A2.156,2.156,0,0,0,1.439,300.8v13.01A2.156,2.156,0,0,0,3.6,315.967h13.01a2.156,2.156,0,0,0,2.159-2.159V300.8a2.156,2.156,0,0,0-2.159-2.159Z" transform="translate(0 -297.2)" fill="#1c1d21"/>
        </g>
      </g>
      <g id="Grupo_1235244" data-name="Grupo 1235244" transform="translate(9.384 87.759)">
        <g id="Grupo_1235239" data-name="Grupo 1235239" transform="translate(8.65 0.014)">
          <g id="Grupo_1235238" data-name="Grupo 1235238">
            <path id="Trazado_1295362" data-name="Trazado 1295362" d="M143.247,240.139H126.02a.72.72,0,0,1,0-1.439h17.227a.713.713,0,0,1,.72.72A.722.722,0,0,1,143.247,240.139Z" transform="translate(-125.3 -238.7)" fill="#1c1d21"/>
          </g>
        </g>
        <g id="Grupo_1235241" data-name="Grupo 1235241" transform="translate(0 0)">
          <g id="Grupo_1235240" data-name="Grupo 1235240">
            <path id="Trazado_1295363" data-name="Trazado 1295363" d="M65.92,242.644a.713.713,0,0,1-.72-.72,3.335,3.335,0,0,1,3.325-3.325h2.216a.72.72,0,1,1,0,1.439H68.525a1.892,1.892,0,0,0-1.885,1.885A.713.713,0,0,1,65.92,242.644Z" transform="translate(-65.2 -238.6)" fill="#1c1d21"/>
          </g>
        </g>
        <g id="Grupo_1235243" data-name="Grupo 1235243" transform="translate(0 5.757)">
          <g id="Grupo_1235242" data-name="Grupo 1235242">
            <path id="Trazado_1295364" data-name="Trazado 1295364" d="M65.92,282.716a.713.713,0,0,1-.72-.72V279.32a.72.72,0,1,1,1.439,0V282A.713.713,0,0,1,65.92,282.716Z" transform="translate(-65.2 -278.6)" fill="#1c1d21"/>
          </g>
        </g>
      </g>
      <g id="Grupo_1235251" data-name="Grupo 1235251" transform="translate(35.26 87.759)">
        <g id="Grupo_1235246" data-name="Grupo 1235246" transform="translate(0 0.014)">
          <g id="Grupo_1235245" data-name="Grupo 1235245">
            <path id="Trazado_1295365" data-name="Trazado 1295365" d="M262.947,240.139H245.72a.72.72,0,0,1,0-1.439h17.227a.713.713,0,0,1,.72.72A.731.731,0,0,1,262.947,240.139Z" transform="translate(-245 -238.7)" fill="#1c1d21"/>
          </g>
        </g>
        <g id="Grupo_1235248" data-name="Grupo 1235248" transform="translate(21.055 0)">
          <g id="Grupo_1235247" data-name="Grupo 1235247">
            <path id="Trazado_1295366" data-name="Trazado 1295366" d="M396.841,242.644a.713.713,0,0,1-.72-.72,1.892,1.892,0,0,0-1.885-1.885H392.02a.72.72,0,1,1,0-1.439h2.216a3.335,3.335,0,0,1,3.325,3.325A.722.722,0,0,1,396.841,242.644Z" transform="translate(-391.3 -238.6)" fill="#1c1d21"/>
          </g>
        </g>
        <g id="Grupo_1235250" data-name="Grupo 1235250" transform="translate(25.877 5.757)">
          <g id="Grupo_1235249" data-name="Grupo 1235249">
            <path id="Trazado_1295367" data-name="Trazado 1295367" d="M425.52,282.716a.713.713,0,0,1-.72-.72V279.32a.72.72,0,0,1,1.439,0V282A.722.722,0,0,1,425.52,282.716Z" transform="translate(-424.8 -278.6)" fill="#1c1d21"/>
          </g>
        </g>
      </g>
      <g id="Grupo_1235253" data-name="Grupo 1235253" transform="translate(35.26 81.167)">
        <g id="Grupo_1235252" data-name="Grupo 1235252">
          <path id="Trazado_1295368" data-name="Trazado 1295368" d="M245.72,203.436a.713.713,0,0,1-.72-.72v-9.2a.72.72,0,1,1,1.439,0v9.2A.713.713,0,0,1,245.72,203.436Z" transform="translate(-245 -192.8)" fill="#1c1d21"/>
        </g>
      </g>
      <g id="Grupo_1235255" data-name="Grupo 1235255" transform="translate(35.26 93.285)">
        <g id="Grupo_1235254" data-name="Grupo 1235254">
          <path id="Trazado_1295369" data-name="Trazado 1295369" d="M245.72,281.346a.713.713,0,0,1-.72-.72V277.72a.72.72,0,1,1,1.439,0v2.907A.713.713,0,0,1,245.72,281.346Z" transform="translate(-245 -277)" fill="#1c1d21"/>
        </g>
      </g>
    </g>
  </g>
</svg>
