<svg xmlns="http://www.w3.org/2000/svg" xmlns:xlink="http://www.w3.org/1999/xlink" width="400" height="342" viewBox="0 0 400 342">
  <defs>
    <clipPath id="clip-path">
      <rect id="Rect치ngulo_422982" data-name="Rect치ngulo 422982" width="400" height="342" transform="translate(180 2399)" fill="#fff" stroke="#707070" stroke-width="1"/>
    </clipPath>
  </defs>
  <g id="Grupo_1235211" data-name="Grupo 1235211" transform="translate(-180 -2388)">
    <rect id="Rect치ngulo_422983" data-name="Rect치ngulo 422983" width="400" height="200" rx="7" transform="translate(180 2487)" fill="#e6f0cd"/>
    <g id="Enmascarar_grupo_1211520" data-name="Enmascarar grupo 1211520" transform="translate(0 -11)" clip-path="url(#clip-path)">
      <g id="Grupo_1235210" data-name="Grupo 1235210" transform="translate(4344 -653.086)">
        <g id="XMLID_90_" transform="translate(-4129.259 3091.192)">
          <path id="XMLID_22_" d="M599.124,486.543H291.417a8.49,8.49,0,0,1-8.465-8.465V285.844a8.49,8.49,0,0,1,8.465-8.465H599.124a8.49,8.49,0,0,1,8.465,8.465V478.077A8.491,8.491,0,0,1,599.124,486.543Z" transform="translate(-279.267 -273.694)" fill="#e6e6e6"/>
          <path id="XMLID_24_" d="M332.611,514.583V324.556a3.836,3.836,0,0,1,3.836-3.836h305.5a3.836,3.836,0,0,1,3.836,3.836V514.583a3.836,3.836,0,0,1-3.836,3.836h-305.5A3.836,3.836,0,0,1,332.611,514.583Z" transform="translate(-322.357 -311.302)" fill="#fff"/>
          <path id="XMLID_28_" d="M293.435,1789.922H597.107a10.514,10.514,0,0,0,10.483-10.483H282.952A10.513,10.513,0,0,0,293.435,1789.922Z" transform="translate(-279.267 -1577.072)" fill="#b3b3b3" opacity="0.5"/>
          <g id="XMLID_21_" transform="translate(0 0)">
            <path id="XMLID_26_" d="M621.283,305.241v0H317.61v0a6.805,6.805,0,0,0-6.8,6.8h0v188.2h0a6.805,6.805,0,0,0,6.8,6.8v0H621.283v0a6.805,6.805,0,0,0,6.8-6.8h0v-188.2h0A6.806,6.806,0,0,0,621.283,305.241Z" transform="translate(-303.442 -297.87)" fill="none"/>
            <rect id="XMLID_36_" width="303.673" height="7.371" transform="translate(14.168 0)" fill="#666"/>
            <path id="XMLID_38_" d="M269.258,256.889v-7.371a14.184,14.184,0,0,0-14.168,14.168h7.371A6.805,6.805,0,0,1,269.258,256.889Z" transform="translate(-255.09 -249.518)" fill="#898989"/>
            <rect id="XMLID_39_" width="7.371" height="188.199" transform="translate(0 14.168)" fill="#666"/>
            <path id="XMLID_40_" d="M2664.807,263.685h7.371a14.184,14.184,0,0,0-14.168-14.168v7.371A6.8,6.8,0,0,1,2664.807,263.685Z" transform="translate(-2340.169 -249.517)" fill="#898989"/>
            <path id="XMLID_41_" d="M2658.01,1786.238v7.371a14.184,14.184,0,0,0,14.168-14.168h-7.371A6.805,6.805,0,0,1,2658.01,1786.238Z" transform="translate(-2340.17 -1577.074)" fill="#898989"/>
            <path id="XMLID_42_" d="M262.461,1779.44H255.09a14.184,14.184,0,0,0,14.168,14.168v-7.371A6.805,6.805,0,0,1,262.461,1779.44Z" transform="translate(-255.09 -1577.073)" fill="#898989"/>
            <rect id="XMLID_43_" width="7.371" height="188.199" transform="translate(324.638 14.168)" fill="#666"/>
            <rect id="XMLID_44_" width="303.673" height="7.371" transform="translate(14.168 209.164)" fill="#666"/>
          </g>
        </g>
        <g id="XMLID_75_" transform="translate(-4108.333 3107.817)">
          <g id="XMLID_252_" transform="translate(0 20.272)">
            <path id="XMLID_350_" d="M704.711,530.106h-290.6a.819.819,0,0,1,0-1.638h290.6a.819.819,0,1,1,0,1.638Z" transform="translate(-413.295 -528.468)" fill="gray"/>
          </g>
          <g id="XMLID_253_" transform="translate(78.351 0)">
            <path id="XMLID_349_" d="M1006.457,543.984a.819.819,0,0,1-.819-.819V376.025a.819.819,0,1,1,1.638,0V543.166A.818.818,0,0,1,1006.457,543.984Z" transform="translate(-1005.638 -375.206)" fill="gray"/>
          </g>
          <g id="XMLID_254_" transform="translate(207.663 0)">
            <path id="XMLID_348_" d="M1984.077,545.949a.819.819,0,0,1-.819-.819V376.025a.819.819,0,0,1,1.638,0V545.13A.819.819,0,0,1,1984.077,545.949Z" transform="translate(-1983.258 -375.206)" fill="gray"/>
          </g>
        </g>
        <g id="XMLID_19_" transform="translate(-4099.185 3108.938)">
          <g id="XMLID_23_" transform="translate(0 0)">
            <path id="XMLID_336_" d="M485.96,391.4a2.434,2.434,0,0,0-.3.035l-.52.084q-.3.05-.624.114t-.614.114l-.5.084a2.229,2.229,0,0,1-.282.035q-.663,0-.663-.693a2,2,0,0,1,.035-.371,1.058,1.058,0,0,1,.124-.337.857.857,0,0,1,.238-.262.885.885,0,0,1,.376-.149q1.158-.178,2.307-.376t2.317-.416q.257-.049.465-.094t.465-.124q.277-.079.6-.153t.658-.134q.332-.059.643-.1a4.569,4.569,0,0,1,.569-.04.58.58,0,0,1,.48.2.886.886,0,0,1,.163.569,2.143,2.143,0,0,1-.03.361.945.945,0,0,1-.109.312.655.655,0,0,1-.218.228.783.783,0,0,1-.356.109q-.564.079-1.208.193a10.723,10.723,0,0,0-1.119.253.551.551,0,0,0-.3.193.73.73,0,0,0-.129.332,2.939,2.939,0,0,0-.035.381q0,.193-.005.371,0,.416.035.832t.064.832q.089,1.426.272,2.821t.4,2.821a.264.264,0,0,1,.02.1v.1a.8.8,0,0,1-.614.772l-.445.139a1.094,1.094,0,0,1-.347.059.553.553,0,0,1-.416-.163.863.863,0,0,1-.208-.48q-.277-1.7-.485-3.391t-.267-3.4q-.02-.277-.03-.6t-.01-.673Q486.366,391.4,485.96,391.4Z" transform="translate(-482.455 -387.967)" fill="gray"/>
            <path id="XMLID_338_" d="M550.37,415.629a2.025,2.025,0,0,1,.04-.376,2.447,2.447,0,0,0,.039-.456.286.286,0,0,0-.143-.257l-.322-.2a1.332,1.332,0,0,1-.322-.277.727.727,0,0,1-.143-.485.944.944,0,0,1,.124-.455,1.367,1.367,0,0,1,.361-.416,10.531,10.531,0,0,1,1.213-.782,9.743,9.743,0,0,1,1.257-.584,8.383,8.383,0,0,1,1.242-.366,5.746,5.746,0,0,1,1.178-.129,4.563,4.563,0,0,1,4.222,2.737,4.271,4.271,0,0,1,.361,1.747,4.036,4.036,0,0,1-.381,1.727,4.713,4.713,0,0,1-1.025,1.431,4.89,4.89,0,0,1-1.51.975,4.871,4.871,0,0,1-3.569.045,4.226,4.226,0,0,1-1.386-.876,3.965,3.965,0,0,1-.911-1.327A4.229,4.229,0,0,1,550.37,415.629Zm4.584,2.416a2.43,2.43,0,0,0,.861-.168,2.694,2.694,0,0,0,.817-.49,2.65,2.65,0,0,0,.614-.787,2.237,2.237,0,0,0,.242-1.049,2.81,2.81,0,0,0-.817-2,2.779,2.779,0,0,0-.9-.6,2.877,2.877,0,0,0-1.124-.218,2.314,2.314,0,0,0-1.683.569,2.341,2.341,0,0,0-.584,1.747,3.576,3.576,0,0,0,.193,1.193,2.914,2.914,0,0,0,.54.951,2.521,2.521,0,0,0,.817.629A2.318,2.318,0,0,0,554.954,418.045Z" transform="translate(-540.648 -407.254)" fill="gray"/>
            <path id="XMLID_341_" d="M675.865,388.105a.274.274,0,0,0,.119.02q.218,0,.218-.287v-3.079a1.107,1.107,0,0,1,.262-.832,1.258,1.258,0,0,1,.876-.247.955.955,0,0,1,1.138,1.138q0,.238-.03.7t-.064,1.045q-.035.584-.064,1.252t-.03,1.322a9.5,9.5,0,0,0,.139,1.742,4.244,4.244,0,0,0,.4,1.213,1.891,1.891,0,0,0,.614.713,1.435,1.435,0,0,0,.8.233,1.478,1.478,0,0,0,.45-.064,1.6,1.6,0,0,1,.48-.064.39.39,0,0,1,.332.2.871.871,0,0,1,.134.49.852.852,0,0,1-.153.485,1.408,1.408,0,0,1-.416.4,2.17,2.17,0,0,1-.609.262,2.743,2.743,0,0,1-.723.094,2.433,2.433,0,0,1-1.485-.5,2.989,2.989,0,0,1-1.01-1.53c-.02-.106-.053-.158-.1-.158s-.1.053-.129.158a5.172,5.172,0,0,1-.7,1.3,4.581,4.581,0,0,1-1,.99,4.441,4.441,0,0,1-1.247.629,4.652,4.652,0,0,1-1.431.218,3.886,3.886,0,0,1-1.45-.262,3.321,3.321,0,0,1-1.876-1.841,3.541,3.541,0,0,1-.267-1.381,4.156,4.156,0,0,1,.4-1.792,4.737,4.737,0,0,1,1.074-1.47,5.154,5.154,0,0,1,1.579-.995,5.052,5.052,0,0,1,1.921-.366,6.453,6.453,0,0,1,.881.064A7.66,7.66,0,0,1,675.865,388.105Zm-2.841,6.059a2.015,2.015,0,0,0,1-.247,3.053,3.053,0,0,0,.782-.629,4.011,4.011,0,0,0,.579-.842,6.571,6.571,0,0,0,.386-.9,6.237,6.237,0,0,0,.218-.782,2.916,2.916,0,0,0,.069-.495.327.327,0,0,0-.059-.193.4.4,0,0,0-.178-.134q-.267-.069-.554-.124t-.564-.094q-.277-.039-.53-.059t-.46-.02a3.11,3.11,0,0,0-1.079.178,2.351,2.351,0,0,0-.827.5,2.272,2.272,0,0,0-.53.777,2.529,2.529,0,0,0-.188.985,2.415,2.415,0,0,0,.143.856,1.91,1.91,0,0,0,.4.648,1.753,1.753,0,0,0,.609.416A2.01,2.01,0,0,0,673.024,394.164Z" transform="translate(-644.364 -383.68)" fill="gray"/>
            <path id="XMLID_344_" d="M763.08,415.629a2.02,2.02,0,0,1,.04-.376,2.447,2.447,0,0,0,.04-.456.286.286,0,0,0-.144-.257l-.322-.2a1.332,1.332,0,0,1-.322-.277.727.727,0,0,1-.143-.485.945.945,0,0,1,.124-.455,1.367,1.367,0,0,1,.361-.416,10.527,10.527,0,0,1,1.213-.782,9.733,9.733,0,0,1,1.257-.584,8.387,8.387,0,0,1,1.242-.366,5.747,5.747,0,0,1,1.178-.129,4.563,4.563,0,0,1,4.222,2.737,4.271,4.271,0,0,1,.361,1.747,4.036,4.036,0,0,1-.381,1.727,4.713,4.713,0,0,1-1.025,1.431,4.892,4.892,0,0,1-1.51.975,4.871,4.871,0,0,1-3.569.045,4.226,4.226,0,0,1-1.386-.876,3.964,3.964,0,0,1-.911-1.327A4.232,4.232,0,0,1,763.08,415.629Zm4.584,2.416a2.43,2.43,0,0,0,.861-.168,2.693,2.693,0,0,0,.817-.49,2.648,2.648,0,0,0,.614-.787,2.237,2.237,0,0,0,.242-1.049,2.81,2.81,0,0,0-.817-2,2.78,2.78,0,0,0-.9-.6,2.877,2.877,0,0,0-1.124-.218,2.314,2.314,0,0,0-1.683.569,2.341,2.341,0,0,0-.584,1.747,3.574,3.574,0,0,0,.193,1.193,2.912,2.912,0,0,0,.54.951,2.52,2.52,0,0,0,.817.629A2.318,2.318,0,0,0,767.664,418.045Z" transform="translate(-725.223 -407.254)" fill="gray"/>
          </g>
          <g id="XMLID_27_" transform="translate(88.135 1.564)">
            <path id="XMLID_312_" d="M1148.77,396.357a.647.647,0,0,1,.089-.332.863.863,0,0,1,.248-.267,1.346,1.346,0,0,1,.371-.183,1.444,1.444,0,0,1,.45-.069,1.232,1.232,0,0,1,.683.149.654.654,0,0,1,.267.465q.168,1.317.282,2.49t.183,2.237q.069,1.064.1,2.039t.03,1.886a.848.848,0,0,1-.351.742,1.774,1.774,0,0,1-1.025.247.732.732,0,0,1-.48-.144.515.515,0,0,1-.173-.421q0-1.7-.1-3.193t-.233-2.648q-.129-1.158-.233-1.935A10,10,0,0,1,1148.77,396.357Z" transform="translate(-1148.77 -395.506)" fill="gray"/>
            <path id="XMLID_314_" d="M1179.31,406.124a.437.437,0,0,1,.129-.292,1.26,1.26,0,0,1,.337-.257,2.264,2.264,0,0,1,.47-.188,1.939,1.939,0,0,1,.53-.074.4.4,0,0,1,.252.079.651.651,0,0,1,.183.3,3.682,3.682,0,0,1,.143.624q.064.4.124,1.045a2.682,2.682,0,0,0,.074.3c.023.069.055.1.094.1q.089,0,.178-.307.723-2.089,2.089-2.089a1.859,1.859,0,0,1,1.153.4,3.672,3.672,0,0,1,.97,1.292,13.292,13.292,0,0,1,.856,2.356q.406,1.46.812,3.6.02.109.03.2a1.53,1.53,0,0,1,.01.168.712.712,0,0,1-.1.391.842.842,0,0,1-.272.267,1.371,1.371,0,0,1-.376.158,1.638,1.638,0,0,1-.416.054,1.465,1.465,0,0,1-.6-.089.441.441,0,0,1-.233-.337q-.287-1.5-.559-2.673t-.535-1.965a5.89,5.89,0,0,0-.52-1.213q-.257-.416-.515-.416a.61.61,0,0,0-.48.322,3.768,3.768,0,0,0-.43,1,16.182,16.182,0,0,0-.4,1.733q-.193,1.049-.371,2.5a.873.873,0,0,1-.4.634,1.525,1.525,0,0,1-.881.238.862.862,0,0,1-.544-.149.545.545,0,0,1-.208-.406q-.089-2.059-.193-3.391t-.193-2.138q-.089-.807-.148-1.2A4.356,4.356,0,0,1,1179.31,406.124Z" transform="translate(-1175.27 -404.015)" fill="gray"/>
            <path id="XMLID_316_" d="M1283.05,406.681a.645.645,0,0,1,.347-.589,1.979,1.979,0,0,1,.99-.2.848.848,0,0,1,.267.04.471.471,0,0,1,.213.153,1.187,1.187,0,0,1,.173.312,4.294,4.294,0,0,1,.158.5q.079.347.158.347t.168-.287a3.632,3.632,0,0,1,.47-.985,3.136,3.136,0,0,1,.658-.7,2.606,2.606,0,0,1,.8-.421,2.941,2.941,0,0,1,.906-.139,4.447,4.447,0,0,1,1.792.361,4.326,4.326,0,0,1,1.436,1,4.713,4.713,0,0,1,.95,1.5,5,5,0,0,1,.347,1.876,5.2,5.2,0,0,1-.371,1.98,4.661,4.661,0,0,1-1.035,1.569,4.74,4.74,0,0,1-1.579,1.03,5.287,5.287,0,0,1-2,.371l-.505-.02q-.445,0-.445.5l.5,4.544a.581.581,0,0,1-.114.312.984.984,0,0,1-.277.253,1.419,1.419,0,0,1-.406.168,1.937,1.937,0,0,1-.48.059q-.713,0-.772-.465-.208-1.8-.46-3.425t-.515-3.024q-.262-1.4-.51-2.549t-.441-2q-.193-.851-.307-1.386A4.356,4.356,0,0,1,1283.05,406.681Zm3.217,2.614q0,.644.05,1.272t.158,1.361a.527.527,0,0,0,.485.5q.257.059.579.114a3.259,3.259,0,0,0,1.688-.134,2.487,2.487,0,0,0,.881-.54,2.406,2.406,0,0,0,.564-.836,2.831,2.831,0,0,0,.2-1.079,4.482,4.482,0,0,0-.2-1.351,3.727,3.727,0,0,0-.54-1.094,2.631,2.631,0,0,0-.8-.733,1.947,1.947,0,0,0-.995-.267,1.774,1.774,0,0,0-.847.2,1.977,1.977,0,0,0-.653.564,2.668,2.668,0,0,0-.421.876A4.077,4.077,0,0,0,1286.267,409.295Z" transform="translate(-1265.288 -403.493)" fill="gray"/>
            <path id="XMLID_319_" d="M1365.378,403.915a1.1,1.1,0,0,0-.644.193,1.637,1.637,0,0,0-.475.535,3.435,3.435,0,0,0-.327.8,8.043,8.043,0,0,0-.208,1q-.079.544-.109,1.138t-.03,1.2q0,.792.064,1.559t.064,1.421a.8.8,0,0,1-.317.668,1.457,1.457,0,0,1-.9.243,1.787,1.787,0,0,1-.247-.02.892.892,0,0,1-.262-.079.7.7,0,0,1-.218-.163.442.442,0,0,1-.1-.282q-.089-.871-.257-1.782t-.421-1.817a18.244,18.244,0,0,0-.6-1.8,16.675,16.675,0,0,0-.807-1.742q-.079-.148-.134-.277a.639.639,0,0,1-.054-.247.54.54,0,0,1,.134-.322,1.657,1.657,0,0,1,.337-.322,1.932,1.932,0,0,1,.445-.243,1.3,1.3,0,0,1,.47-.094q.376,0,.663.52a6.53,6.53,0,0,1,.535,1.658q.049.2.079.277c.02.053.046.079.079.079q.109,0,.139-.337a6.123,6.123,0,0,1,.406-1.619,3.564,3.564,0,0,1,.718-1.119,2.673,2.673,0,0,1,.99-.648,3.51,3.51,0,0,1,1.232-.208,4.538,4.538,0,0,1,.782.069,3.123,3.123,0,0,1,.713.208,1.66,1.66,0,0,1,.515.337.616.616,0,0,1,.2.445,1.466,1.466,0,0,1-.074.421,2.6,2.6,0,0,1-.193.465,1.574,1.574,0,0,1-.272.376.446.446,0,0,1-.312.153.652.652,0,0,1-.347-.1l-.361-.223q-.193-.119-.406-.223A1.074,1.074,0,0,0,1365.378,403.915Z" transform="translate(-1331.529 -401.223)" fill="gray"/>
            <path id="XMLID_321_" d="M1423.634,415.629a2.02,2.02,0,0,1,.04-.376,2.431,2.431,0,0,0,.04-.456.286.286,0,0,0-.144-.257l-.322-.2a1.336,1.336,0,0,1-.322-.277.727.727,0,0,1-.144-.485.945.945,0,0,1,.124-.455,1.369,1.369,0,0,1,.361-.416,10.547,10.547,0,0,1,1.213-.782,9.725,9.725,0,0,1,1.257-.584,8.387,8.387,0,0,1,1.242-.366,5.745,5.745,0,0,1,1.178-.129,4.564,4.564,0,0,1,4.222,2.737,4.273,4.273,0,0,1,.361,1.747,4.037,4.037,0,0,1-.381,1.727,4.716,4.716,0,0,1-1.025,1.431,4.893,4.893,0,0,1-1.51.975,4.871,4.871,0,0,1-3.569.045,4.225,4.225,0,0,1-1.386-.876,3.964,3.964,0,0,1-.911-1.327A4.231,4.231,0,0,1,1423.634,415.629Zm4.583,2.416a2.43,2.43,0,0,0,.861-.168,2.694,2.694,0,0,0,.817-.49,2.647,2.647,0,0,0,.614-.787,2.234,2.234,0,0,0,.242-1.049,2.81,2.81,0,0,0-.817-2,2.78,2.78,0,0,0-.9-.6,2.876,2.876,0,0,0-1.124-.218,2.315,2.315,0,0,0-1.683.569,2.342,2.342,0,0,0-.584,1.747,3.572,3.572,0,0,0,.193,1.193,2.911,2.911,0,0,0,.54.951,2.521,2.521,0,0,0,.817.629A2.32,2.32,0,0,0,1428.218,418.045Z" transform="translate(-1386.539 -408.818)" fill="gray"/>
            <path id="XMLID_324_" d="M1509.943,412.624a5.247,5.247,0,0,1,.9.074q.425.074.772.158t.594.158a1.436,1.436,0,0,0,.356.074.223.223,0,0,0,.168-.094,2.272,2.272,0,0,1,.2-.2,1.3,1.3,0,0,1,.317-.2,1.237,1.237,0,0,1,.525-.094.864.864,0,0,1,.594.193.616.616,0,0,1,.218.48q0,3.623-.248,6.153a18.087,18.087,0,0,1-.8,4.113,5.009,5.009,0,0,1-1.435,2.3,3.292,3.292,0,0,1-2.138.713,3.1,3.1,0,0,1-1.193-.257,4.9,4.9,0,0,1-1.134-.658,3.96,3.96,0,0,1-.846-.886,1.66,1.66,0,0,1-.332-.931.591.591,0,0,1,.158-.347,2.658,2.658,0,0,1,.386-.386,2.7,2.7,0,0,1,.475-.317.958.958,0,0,1,.426-.129.4.4,0,0,1,.317.153,1.951,1.951,0,0,1,.242.381q.114.228.233.5a2.306,2.306,0,0,0,.3.5,1.56,1.56,0,0,0,.436.381,1.239,1.239,0,0,0,.644.153q2.158,0,2.534-6.593,0-.3-.168-.3a.242.242,0,0,0-.218.139,6.176,6.176,0,0,1-2.173,1.886,6.018,6.018,0,0,1-2.757.629,3.814,3.814,0,0,1-1.3-.213,3.1,3.1,0,0,1-1.025-.594,2.647,2.647,0,0,1-.668-.911,2.807,2.807,0,0,1-.238-1.163,3.559,3.559,0,0,1,.223-1.233,4.522,4.522,0,0,1,.624-1.148,5.637,5.637,0,0,1,.955-.995,6.615,6.615,0,0,1,2.589-1.3A6.087,6.087,0,0,1,1509.943,412.624Zm-2.346,5.92a4.018,4.018,0,0,0,2.485-.856,6.821,6.821,0,0,0,1.93-2.49c.013-.04.023-.071.03-.094a.279.279,0,0,0,.01-.074q0-.1-.208-.208a2.37,2.37,0,0,0-.544-.188,7.461,7.461,0,0,0-.767-.134,6.916,6.916,0,0,0-.866-.055,3.938,3.938,0,0,0-1.356.238,4.174,4.174,0,0,0-1.158.634,3.362,3.362,0,0,0-.812.9,1.992,1.992,0,0,0-.307,1.049,1.133,1.133,0,0,0,.431.931A1.751,1.751,0,0,0,1507.6,418.544Z" transform="translate(-1457.068 -410.248)" fill="gray"/>
            <path id="XMLID_327_" d="M1594.328,403.915a1.1,1.1,0,0,0-.644.193,1.639,1.639,0,0,0-.475.535,3.439,3.439,0,0,0-.327.8,8.021,8.021,0,0,0-.208,1q-.079.544-.109,1.138t-.03,1.2q0,.792.064,1.559t.064,1.421a.8.8,0,0,1-.317.668,1.456,1.456,0,0,1-.9.243,1.786,1.786,0,0,1-.248-.02.9.9,0,0,1-.262-.079.7.7,0,0,1-.218-.163.442.442,0,0,1-.1-.282q-.089-.871-.258-1.782t-.421-1.817a18.275,18.275,0,0,0-.6-1.8,16.727,16.727,0,0,0-.807-1.742q-.079-.148-.134-.277a.633.633,0,0,1-.054-.247.541.541,0,0,1,.134-.322,1.661,1.661,0,0,1,.337-.322,1.936,1.936,0,0,1,.446-.243,1.3,1.3,0,0,1,.47-.094q.376,0,.663.52a6.531,6.531,0,0,1,.534,1.658q.049.2.079.277c.02.053.046.079.079.079q.109,0,.138-.337a6.127,6.127,0,0,1,.406-1.619,3.567,3.567,0,0,1,.718-1.119,2.674,2.674,0,0,1,.99-.648,3.511,3.511,0,0,1,1.233-.208,4.534,4.534,0,0,1,.782.069,3.13,3.13,0,0,1,.713.208,1.662,1.662,0,0,1,.515.337.616.616,0,0,1,.2.445,1.471,1.471,0,0,1-.074.421,2.612,2.612,0,0,1-.193.465,1.58,1.58,0,0,1-.272.376.446.446,0,0,1-.312.153.651.651,0,0,1-.346-.1l-.361-.223q-.193-.119-.406-.223A1.075,1.075,0,0,0,1594.328,403.915Z" transform="translate(-1530.196 -401.223)" fill="gray"/>
            <path id="XMLID_329_" d="M1660.634,419.152a.874.874,0,0,1,.564-.247.537.537,0,0,1,.287.079,1.491,1.491,0,0,1,.287.247,2.951,2.951,0,0,1,.213.371.689.689,0,0,1,.064.282.764.764,0,0,1-.3.564,6.845,6.845,0,0,1-1.029.708,7.678,7.678,0,0,1-1.158.53,7.562,7.562,0,0,1-1.247.332,7.33,7.33,0,0,1-1.277.114,5.407,5.407,0,0,1-1.5-.2,4.327,4.327,0,0,1-1.252-.579,3.655,3.655,0,0,1-.925-.906,3.4,3.4,0,0,1-.535-1.193,1.139,1.139,0,0,0-.163-.361.309.309,0,0,0-.242-.084.815.815,0,0,1-.564-.178.656.656,0,0,1-.2-.515.485.485,0,0,1,.02-.178l.02-.2a.961.961,0,0,1,.193-.515.58.58,0,0,1,.451-.158h.148a.592.592,0,0,0,.584-.386,5.29,5.29,0,0,1,.782-1.247,5.19,5.19,0,0,1,1.069-.965,5.117,5.117,0,0,1,1.272-.624,4.4,4.4,0,0,1,1.381-.223,4.312,4.312,0,0,1,1.371.213,3.623,3.623,0,0,1,1.114.589,2.838,2.838,0,0,1,.748.881,2.26,2.26,0,0,1,.272,1.089,1.693,1.693,0,0,1-.614,1.331,2.407,2.407,0,0,1-.718.411,3.663,3.663,0,0,1-.955.208l-3.435.346a.5.5,0,0,0-.322.1.324.324,0,0,0-.124.267.775.775,0,0,0,.193.495,1.8,1.8,0,0,0,.515.421,3.014,3.014,0,0,0,.743.292,3.434,3.434,0,0,0,.866.109,4.763,4.763,0,0,0,.876-.084,5.735,5.735,0,0,0,.891-.242,6.365,6.365,0,0,0,.856-.381A5.252,5.252,0,0,0,1660.634,419.152Zm-2.208-2.554a.481.481,0,0,0,.258-.144.393.393,0,0,0,.109-.282.423.423,0,0,0-.109-.277,1.056,1.056,0,0,0-.3-.233,1.742,1.742,0,0,0-.436-.163,2.248,2.248,0,0,0-.525-.059,3.085,3.085,0,0,0-.832.119,3.532,3.532,0,0,0-.772.312,2.3,2.3,0,0,0-.564.426.684.684,0,0,0-.218.46q0,.228.277.228.168,0,.544-.04t.832-.094q.455-.054.921-.124C1657.925,416.681,1658.2,416.638,1658.426,416.6Z" transform="translate(-1585.136 -411.222)" fill="gray"/>
            <path id="XMLID_332_" d="M1731.611,406.883a5.707,5.707,0,0,1,1.366.173,7.029,7.029,0,0,1,1.287.445,3.911,3.911,0,0,1,.96.609.924.924,0,0,1,.376.653.621.621,0,0,1-.139.351,2.173,2.173,0,0,1-.337.366,1.961,1.961,0,0,1-.43.287.959.959,0,0,1-.411.114.971.971,0,0,1-.53-.2q-.292-.2-.644-.441a5.569,5.569,0,0,0-.767-.44,2.07,2.07,0,0,0-.9-.2.838.838,0,0,0-.52.153.509.509,0,0,0-.2.431.742.742,0,0,0,.238.5,3.838,3.838,0,0,0,.629.52q.391.267.886.564t1.015.634q.52.337,1.015.733a6.266,6.266,0,0,1,.886.861,4.1,4.1,0,0,1,.629,1.015,2.975,2.975,0,0,1,.238,1.193,2.509,2.509,0,0,1-.2,1.01,2.227,2.227,0,0,1-.564.782,2.585,2.585,0,0,1-.871.5,3.313,3.313,0,0,1-1.109.178,4.107,4.107,0,0,1-1.406-.233,3.454,3.454,0,0,1-1.109-.638,2.874,2.874,0,0,1-.99-2.208,2.056,2.056,0,0,1,.312-1.267,1.178,1.178,0,0,1,.985-.4,1.219,1.219,0,0,1,.663.158.457.457,0,0,1,.247.386.791.791,0,0,1-.04.243c-.026.083-.054.168-.084.257s-.056.183-.079.282a1.3,1.3,0,0,0-.035.3,1.093,1.093,0,0,0,.119.495,1.415,1.415,0,0,0,.322.421,1.593,1.593,0,0,0,.47.292,1.484,1.484,0,0,0,.564.109q.792,0,.792-.653a1.456,1.456,0,0,0-.406-.975,6.082,6.082,0,0,0-1.02-.9q-.614-.44-1.322-.886a15.045,15.045,0,0,1-1.322-.931,5.472,5.472,0,0,1-1.02-1.035,1.965,1.965,0,0,1-.406-1.193,2.164,2.164,0,0,1,.223-.98,2.366,2.366,0,0,1,.609-.767,2.839,2.839,0,0,1,.906-.5A3.432,3.432,0,0,1,1731.611,406.883Z" transform="translate(-1652.035 -405.378)" fill="gray"/>
            <path id="XMLID_334_" d="M1787.291,406.883a5.7,5.7,0,0,1,1.366.173,7.035,7.035,0,0,1,1.287.445,3.916,3.916,0,0,1,.96.609.924.924,0,0,1,.376.653.621.621,0,0,1-.138.351,2.173,2.173,0,0,1-.337.366,1.959,1.959,0,0,1-.431.287.958.958,0,0,1-.411.114.971.971,0,0,1-.53-.2q-.292-.2-.644-.441a5.571,5.571,0,0,0-.767-.44,2.069,2.069,0,0,0-.9-.2.839.839,0,0,0-.52.153.509.509,0,0,0-.2.431.741.741,0,0,0,.238.5,3.832,3.832,0,0,0,.629.52q.391.267.886.564t1.015.634q.52.337,1.015.733a6.273,6.273,0,0,1,.886.861,4.1,4.1,0,0,1,.629,1.015,2.972,2.972,0,0,1,.238,1.193,2.507,2.507,0,0,1-.2,1.01,2.228,2.228,0,0,1-.564.782,2.585,2.585,0,0,1-.871.5,3.313,3.313,0,0,1-1.109.178,4.107,4.107,0,0,1-1.406-.233,3.454,3.454,0,0,1-1.109-.638,2.873,2.873,0,0,1-.99-2.208,2.056,2.056,0,0,1,.312-1.267,1.178,1.178,0,0,1,.985-.4,1.218,1.218,0,0,1,.663.158.457.457,0,0,1,.247.386.794.794,0,0,1-.04.243c-.026.083-.054.168-.084.257s-.056.183-.079.282a1.3,1.3,0,0,0-.035.3,1.091,1.091,0,0,0,.119.495,1.411,1.411,0,0,0,.322.421,1.59,1.59,0,0,0,.47.292,1.483,1.483,0,0,0,.564.109q.792,0,.792-.653a1.455,1.455,0,0,0-.406-.975,6.07,6.07,0,0,0-1.02-.9q-.614-.44-1.322-.886a15.061,15.061,0,0,1-1.322-.931,5.477,5.477,0,0,1-1.02-1.035,1.967,1.967,0,0,1-.406-1.193,2.16,2.16,0,0,1,.223-.98,2.366,2.366,0,0,1,.609-.767,2.837,2.837,0,0,1,.906-.5A3.443,3.443,0,0,1,1787.291,406.883Z" transform="translate(-1700.35 -405.378)" fill="gray"/>
          </g>
          <g id="XMLID_29_" transform="translate(218.639 2.049)">
            <path id="XMLID_91_" d="M2136.38,401.222c-.086.013-.158.023-.218.03a1.385,1.385,0,0,1-.148.01.626.626,0,0,1-.475-.193.937.937,0,0,1-.139-.579.951.951,0,0,1,.772-1.01,11.183,11.183,0,0,1,1.465-.233q.782-.074,1.743-.074a13.385,13.385,0,0,1,2.559.247,15.257,15.257,0,0,1,2.425.678,13.25,13.25,0,0,1,2.144,1.02,9.726,9.726,0,0,1,1.717,1.277,5.826,5.826,0,0,1,1.139,1.445,3.16,3.16,0,0,1,.411,1.52,2.425,2.425,0,0,1-.52,1.47,4.858,4.858,0,0,1-1.4,1.233,7.964,7.964,0,0,1-2.04.851,9.155,9.155,0,0,1-2.425.317,12.52,12.52,0,0,1-2.109-.188,18.768,18.768,0,0,1-2.425-.6.73.73,0,0,1-.614-.752.484.484,0,0,1,.06-.238q.059-.109.124-.208t.124-.193a.355.355,0,0,0,.059-.193q0-.564-.054-1.208t-.148-1.287q-.094-.643-.218-1.233t-.252-1.044a4.458,4.458,0,0,0-.262-.728q-.134-.272-.243-.272a2.642,2.642,0,0,0-.411.04Q2136.775,401.163,2136.38,401.222Zm3.811-.158q-.287,0-.287.2a.8.8,0,0,0,.03.168q.03.119.089.376.089.416.168.891t.159,1.064q.078.589.153,1.317t.153,1.638q.01.149.267.282a3.125,3.125,0,0,0,.684.238,8.116,8.116,0,0,0,.975.168,9.714,9.714,0,0,0,1.133.064,5.878,5.878,0,0,0,1.48-.183,5.1,5.1,0,0,0,1.248-.49,2.924,2.924,0,0,0,.861-.713,1.341,1.341,0,0,0,.322-.841,2.182,2.182,0,0,0-.569-1.406,5.527,5.527,0,0,0-1.569-1.242,11.524,11.524,0,0,0-2.356-.96A16.526,16.526,0,0,0,2140.191,401.064Z" transform="translate(-2135.4 -399.173)" fill="gray"/>
            <path id="XMLID_276_" d="M2249.865,415.629a2.031,2.031,0,0,1,.04-.376,2.462,2.462,0,0,0,.04-.456.286.286,0,0,0-.144-.257l-.322-.2a1.338,1.338,0,0,1-.322-.277.727.727,0,0,1-.144-.485.946.946,0,0,1,.124-.455,1.365,1.365,0,0,1,.361-.416,10.539,10.539,0,0,1,1.213-.782,9.753,9.753,0,0,1,1.257-.584,8.39,8.39,0,0,1,1.243-.366,5.745,5.745,0,0,1,1.178-.129,4.562,4.562,0,0,1,4.222,2.737,4.273,4.273,0,0,1,.361,1.747,4.031,4.031,0,0,1-.381,1.727,4.709,4.709,0,0,1-1.024,1.431,4.895,4.895,0,0,1-1.51.975,4.871,4.871,0,0,1-3.569.045,4.224,4.224,0,0,1-1.386-.876,3.956,3.956,0,0,1-.911-1.327A4.227,4.227,0,0,1,2249.865,415.629Zm4.583,2.416a2.428,2.428,0,0,0,.861-.168,2.688,2.688,0,0,0,.817-.49,2.651,2.651,0,0,0,.614-.787,2.24,2.24,0,0,0,.242-1.049,2.809,2.809,0,0,0-.817-2,2.778,2.778,0,0,0-.9-.6,2.878,2.878,0,0,0-1.124-.218,2.314,2.314,0,0,0-1.683.569,2.342,2.342,0,0,0-.584,1.747,3.582,3.582,0,0,0,.193,1.193,2.92,2.92,0,0,0,.54.951,2.521,2.521,0,0,0,.817.629A2.322,2.322,0,0,0,2254.448,418.045Z" transform="translate(-2233.985 -409.303)" fill="gray"/>
            <path id="XMLID_280_" d="M2330.67,406.124a.438.438,0,0,1,.129-.292,1.257,1.257,0,0,1,.337-.257,2.262,2.262,0,0,1,.47-.188,1.94,1.94,0,0,1,.53-.074.4.4,0,0,1,.252.079.646.646,0,0,1,.183.3,3.737,3.737,0,0,1,.144.624q.064.4.124,1.045a2.71,2.71,0,0,0,.074.3c.023.069.054.1.094.1q.089,0,.178-.307.723-2.089,2.089-2.089a1.861,1.861,0,0,1,1.154.4,3.679,3.679,0,0,1,.97,1.292,13.322,13.322,0,0,1,.856,2.356q.406,1.46.812,3.6c.013.073.023.139.03.2a1.53,1.53,0,0,1,.01.168.712.712,0,0,1-.1.391.844.844,0,0,1-.272.267,1.371,1.371,0,0,1-.376.158,1.64,1.64,0,0,1-.416.054,1.464,1.464,0,0,1-.6-.089.442.442,0,0,1-.233-.337q-.287-1.5-.559-2.673t-.534-1.965a5.915,5.915,0,0,0-.52-1.213q-.257-.416-.515-.416a.609.609,0,0,0-.48.322,3.754,3.754,0,0,0-.431,1,16.182,16.182,0,0,0-.4,1.733q-.193,1.049-.371,2.5a.874.874,0,0,1-.4.634,1.527,1.527,0,0,1-.881.238.863.863,0,0,1-.544-.149.546.546,0,0,1-.208-.406q-.089-2.059-.193-3.391t-.193-2.138q-.089-.807-.148-1.2A4.462,4.462,0,0,1,2330.67,406.124Z" transform="translate(-2304.841 -404.5)" fill="gray"/>
            <path id="XMLID_308_" d="M2404.914,419.152a.875.875,0,0,1,.564-.247.538.538,0,0,1,.287.079,1.5,1.5,0,0,1,.287.247,2.932,2.932,0,0,1,.213.371.686.686,0,0,1,.064.282.764.764,0,0,1-.3.564,6.865,6.865,0,0,1-1.03.708,7.673,7.673,0,0,1-1.158.53,7.564,7.564,0,0,1-1.247.332,7.332,7.332,0,0,1-1.277.114,5.4,5.4,0,0,1-1.5-.2,4.332,4.332,0,0,1-1.253-.579,3.652,3.652,0,0,1-.925-.906,3.4,3.4,0,0,1-.535-1.193,1.145,1.145,0,0,0-.163-.361.31.31,0,0,0-.242-.084.815.815,0,0,1-.564-.178.656.656,0,0,1-.2-.515.492.492,0,0,1,.02-.178l.02-.2a.959.959,0,0,1,.193-.515.579.579,0,0,1,.45-.158h.148a.592.592,0,0,0,.584-.386,5.3,5.3,0,0,1,.782-1.247,5.19,5.19,0,0,1,1.069-.965,5.116,5.116,0,0,1,1.272-.624,4.4,4.4,0,0,1,1.381-.223,4.312,4.312,0,0,1,1.371.213,3.623,3.623,0,0,1,1.114.589,2.838,2.838,0,0,1,.747.881,2.26,2.26,0,0,1,.272,1.089,1.723,1.723,0,0,1-.158.742,1.744,1.744,0,0,1-.455.589,2.411,2.411,0,0,1-.718.411,3.66,3.66,0,0,1-.955.208l-3.436.346a.5.5,0,0,0-.322.1.324.324,0,0,0-.124.267.775.775,0,0,0,.193.495,1.8,1.8,0,0,0,.515.421,3.018,3.018,0,0,0,.743.292,3.435,3.435,0,0,0,.866.109,4.757,4.757,0,0,0,.876-.084,5.737,5.737,0,0,0,.891-.242,6.379,6.379,0,0,0,.856-.381A5.381,5.381,0,0,0,2404.914,419.152Zm-2.208-2.554a.482.482,0,0,0,.258-.144.393.393,0,0,0,.109-.282.423.423,0,0,0-.109-.277,1.055,1.055,0,0,0-.3-.233,1.738,1.738,0,0,0-.436-.163,2.247,2.247,0,0,0-.525-.059,3.085,3.085,0,0,0-.832.119,3.531,3.531,0,0,0-.772.312,2.291,2.291,0,0,0-.564.426.685.685,0,0,0-.218.46q0,.228.277.228.168,0,.544-.04t.832-.094q.455-.054.921-.124T2402.707,416.6Z" transform="translate(-2361.473 -411.707)" fill="gray"/>
          </g>
        </g>
        <g id="XMLID_18_" transform="translate(-4086.064 3141.538)">
          <g id="XMLID_251_" transform="translate(134.615 74.675)">
            <path id="XMLID_374_" d="M1607.883,1196.686q-3.913,0-7.805-.09a.737.737,0,0,1,.017-1.474h.017c8.788.2,17.7.06,26.476-.426a.737.737,0,1,1,.082,1.472C1620.443,1196.513,1614.151,1196.686,1607.883,1196.686Z" transform="translate(-1599.358 -1194.695)" fill="gray"/>
          </g>
          <g id="XMLID_255_" transform="translate(135.829 78.774)">
            <path id="XMLID_373_" d="M1636.568,1227.871q-.038,0-.076,0a136.852,136.852,0,0,0-27.144-.062.737.737,0,1,1-.143-1.467,138.287,138.287,0,0,1,27.437.063.737.737,0,0,1-.074,1.47Z" transform="translate(-1608.539 -1225.687)" fill="gray"/>
          </g>
          <g id="XMLID_256_" transform="translate(137.071 84.218)">
            <path id="XMLID_372_" d="M1638.859,1269.081c-6.745,0-13.541-.257-20.248-.766a.737.737,0,1,1,.112-1.47c7.711.585,15.541.835,23.274.743h.009a.737.737,0,0,1,.009,1.474Q1640.44,1269.08,1638.859,1269.081Z" transform="translate(-1617.929 -1266.843)" fill="gray"/>
          </g>
          <g id="XMLID_257_" transform="translate(137.562 89.356)">
            <path id="XMLID_371_" d="M1644.983,1307.258h-.011c-7.493-.107-15.092-.124-22.587-.048h-.008a.737.737,0,0,1-.007-1.474c7.506-.075,15.117-.059,22.622.048a.737.737,0,0,1-.01,1.474Z" transform="translate(-1621.642 -1305.689)" fill="gray"/>
          </g>
          <g id="XMLID_258_" transform="translate(76.143 35.089)">
            <path id="XMLID_370_" d="M1174.263,898l-.051,0-16.223-1.1a.737.737,0,1,1,.1-1.471l16.223,1.1a.737.737,0,0,1-.049,1.472Z" transform="translate(-1157.302 -895.419)" fill="gray"/>
          </g>
          <g id="XMLID_259_" transform="translate(75.653 38.709)">
            <path id="XMLID_369_" d="M1169.322,924.592h-.016l-14.985-.326a.737.737,0,0,1,.032-1.474l14.984.326a.737.737,0,0,1-.016,1.474Z" transform="translate(-1153.6 -922.792)" fill="gray"/>
          </g>
          <g id="XMLID_260_" transform="translate(75.409 42.676)">
            <path id="XMLID_368_" d="M1167.964,955.314h-.007a132.2,132.2,0,0,1-15.561-1.067.737.737,0,0,1,.188-1.462,130.684,130.684,0,0,0,15.386,1.055.737.737,0,0,1-.006,1.474Z" transform="translate(-1151.753 -952.779)" fill="gray"/>
          </g>
          <g id="XMLID_261_" transform="translate(26.009 111.899)">
            <path id="XMLID_367_" d="M779.02,1478.194a.737.737,0,0,1-.024-1.474l18.669-.606h.024a.737.737,0,0,1,.023,1.474l-18.669.606Z" transform="translate(-778.283 -1476.114)" fill="gray"/>
          </g>
          <g id="XMLID_262_" transform="translate(25.197 115.818)">
            <path id="XMLID_366_" d="M786.348,1507.842c-4.519,0-9.056-.208-13.539-.623a.737.737,0,1,1,.136-1.468,145.981,145.981,0,0,0,17.429.561.737.737,0,1,1,.041,1.474Q788.387,1507.842,786.348,1507.842Z" transform="translate(-772.14 -1505.747)" fill="gray"/>
          </g>
          <g id="XMLID_263_" transform="translate(25.688 120.063)">
            <path id="XMLID_365_" d="M787.2,1539.734c-3.561,0-7.128-.141-10.662-.421a.737.737,0,1,1,.117-1.469,133.693,133.693,0,0,0,16.445.286.737.737,0,1,1,.066,1.472Q790.189,1539.735,787.2,1539.734Z" transform="translate(-775.855 -1537.842)" fill="gray"/>
          </g>
          <g id="XMLID_264_" transform="translate(126.8 87.36)">
            <path id="XMLID_364_" d="M1553.723,1310.225a15.54,15.54,0,0,1-10.516-3.783,9.217,9.217,0,0,1-2.932-6.943,14.89,14.89,0,0,1,.8-4.168,8.8,8.8,0,0,1,2.624-4.573.737.737,0,1,1,.91,1.16,7.588,7.588,0,0,0-2.125,3.846,13.61,13.61,0,0,0-.735,3.752,7.676,7.676,0,0,0,2.474,5.858c2.393,2.277,6.508,3.59,10.479,3.347a.737.737,0,0,1,.09,1.471C1554.436,1310.214,1554.079,1310.225,1553.723,1310.225Z" transform="translate(-1540.274 -1290.6)" fill="gray"/>
          </g>
          <g id="XMLID_265_" transform="translate(136.801 102.839)">
            <path id="XMLID_363_" d="M1617.343,1413.976a.737.737,0,0,1-.362-1.38c.37-.208.746-.4,1.11-.58a13.616,13.616,0,0,0,1.734-.978,11.316,11.316,0,0,1-3.686-2.122.737.737,0,0,1,.963-1.116,9.833,9.833,0,0,0,4.35,2.165l1.185.254-.771.935a8.995,8.995,0,0,1-3.113,2.178c-.349.176-.709.357-1.049.549A.743.743,0,0,1,1617.343,1413.976Z" transform="translate(-1615.883 -1407.62)" fill="gray"/>
          </g>
          <g id="XMLID_266_" transform="translate(31.251 125.579)">
            <path id="XMLID_362_" d="M820.079,1588.706a.737.737,0,0,1-.547-1.231,9.786,9.786,0,0,1,3.369-2.156c.555-.255,1.079-.5,1.572-.78a1.413,1.413,0,0,0,.409-.307.91.91,0,0,0,.112-.556,2.761,2.761,0,0,0-1.553-2.207,5.056,5.056,0,0,0-3.054-.377,1.629,1.629,0,0,0-.8.283.862.862,0,0,0-.156.846,2.121,2.121,0,0,0,.77,1,.737.737,0,1,1-.911,1.158,3.543,3.543,0,0,1-1.27-1.729,2.3,2.3,0,0,1,.565-2.356,2.917,2.917,0,0,1,1.577-.658,6.424,6.424,0,0,1,3.96.526,4.253,4.253,0,0,1,2.346,3.447,2.32,2.32,0,0,1-.394,1.494,2.651,2.651,0,0,1-.863.714c-.552.318-1.132.585-1.693.842a8.562,8.562,0,0,0-2.891,1.8A.736.736,0,0,1,820.079,1588.706Z" transform="translate(-817.909 -1579.538)" fill="gray"/>
          </g>
          <g id="XMLID_267_" transform="translate(31.877 135.564)">
            <path id="XMLID_359_" d="M824.3,1658.716a1.648,1.648,0,0,1-.735-.171,1.7,1.7,0,0,1-.863-1.972,1.757,1.757,0,0,0,1.022-1.374,1.56,1.56,0,0,1,1.943.443,2,2,0,0,1,.312,1.7,1.949,1.949,0,0,1-.32.7A1.694,1.694,0,0,1,824.3,1658.716Zm-.182-2.136a.733.733,0,0,1,0,.407.2.2,0,0,0,.357.178.518.518,0,0,0,.072-.176.558.558,0,0,0-.045-.442.151.151,0,0,0-.082-.048A.724.724,0,0,1,824.123,1656.579Z" transform="translate(-822.641 -1655.026)" fill="gray"/>
          </g>
          <g id="XMLID_268_" transform="translate(241.07 0)">
            <path id="XMLID_358_" d="M2426.855,632.013h-.014l-21.947-.395a.737.737,0,0,1,.027-1.474l21.947.395a.737.737,0,0,1-.013,1.474Z" transform="translate(-2404.171 -630.144)" fill="gray"/>
          </g>
          <g id="XMLID_269_" transform="translate(243.362 3.981)">
            <path id="XMLID_357_" d="M2441.549,662.566a.729.729,0,0,1-.081,0,142.666,142.666,0,0,0-19.212-.8.737.737,0,1,1-.039-1.474,144.159,144.159,0,0,1,19.412.8.737.737,0,0,1-.079,1.47Z" transform="translate(-2421.499 -660.243)" fill="gray"/>
          </g>
          <g id="XMLID_270_" transform="translate(112.767 118.126)">
            <path id="XMLID_356_" d="M1436.081,1537.942a.737.737,0,0,1-.733-.673L1434.184,1524a.737.737,0,0,1,1.468-.129l1.163,13.272a.737.737,0,0,1-.67.8Z" transform="translate(-1434.181 -1523.196)" fill="gray"/>
          </g>
          <g id="XMLID_271_" transform="translate(113.843 135.414)">
            <path id="XMLID_353_" d="M1443.99,1657.679a1.712,1.712,0,0,1-1.008-.336,1.588,1.588,0,0,1-.651-1.1,2.037,2.037,0,0,1,1.278-1.967l0-.008a.737.737,0,0,1,1-.29,2.156,2.156,0,0,1,1.131,1.862,1.862,1.862,0,0,1-1.446,1.8A1.518,1.518,0,0,1,1443.99,1657.679Zm.238-2.053c-.295.181-.442.359-.431.461a.157.157,0,0,0,.063.071.222.222,0,0,0,.152.045.4.4,0,0,0,.26-.369A.526.526,0,0,0,1444.228,1655.626Z" transform="translate(-1442.321 -1653.891)" fill="gray"/>
          </g>
          <g id="XMLID_272_" transform="translate(0 89.274)">
            <path id="XMLID_352_" d="M593.685,1307.42a74.357,74.357,0,0,1-11.412-.883.737.737,0,1,1,.227-1.456,72.72,72.72,0,0,0,11.658.864h0a.737.737,0,0,1,0,1.474Z" transform="translate(-581.649 -1305.072)" fill="gray"/>
          </g>
          <g id="XMLID_273_" transform="translate(0.472 93.34)">
            <path id="XMLID_351_" d="M599.475,1338.044h-.016c-4.512-.094-9.077-.352-13.571-.766a.737.737,0,0,1,.135-1.468c4.459.411,8.99.667,13.467.76a.737.737,0,0,1-.015,1.474Z" transform="translate(-585.219 -1335.807)" fill="gray"/>
          </g>
        </g>
        <g id="XMLID_5_" transform="translate(-4102.724 3131.57)">
          <g id="XMLID_120_" transform="translate(26.867 49.788)">
            <path id="XMLID_49_" d="M702.122,967.551l-30.138-3.275.994-33.088,31.657,2.743Z" transform="translate(-670.242 -931.188)" fill="#b3b3b3" opacity="0.5"/>
            <rect id="XMLID_7_" width="31.776" height="31.776" transform="translate(2.742 0.002) rotate(4.951)" fill="#c1e955"/>
          </g>
          <g id="XMLID_118_" transform="translate(26.461 9.751)">
            <path id="XMLID_31_" d="M692.627,663.359l-31.568,3.631-5.315-34.857,31.568-3.631Z" transform="translate(-655.744 -628.502)" fill="#b3b3b3" opacity="0.5"/>
            <rect id="XMLID_8_" width="31.776" height="31.776" transform="matrix(0.993, -0.114, 0.114, 0.993, 0.007, 3.632)" fill="#ffa42c"/>
          </g>
          <g id="XMLID_113_" transform="translate(226.441 110.127)">
            <path id="XMLID_106_" d="M2203.008,1421.011l-31.685,2.393-3.7-33.651,31.686-2.393Z" transform="translate(-2167.62 -1387.36)" fill="#b3b3b3" opacity="0.5"/>
            <rect id="XMLID_67_" width="31.776" height="31.776" transform="translate(0.011 2.401) rotate(-4.318)" fill="#ffa42c"/>
          </g>
          <g id="XMLID_114_" transform="translate(100.897 82.876)">
            <path id="XMLID_73_" d="M1251.413,1216.883h-31.776l-1.147-35.543h31.776Z" transform="translate(-1218.49 -1181.34)" fill="#b3b3b3" opacity="0.5"/>
            <rect id="XMLID_10_" width="31.776" height="31.776" fill="#c1e955"/>
          </g>
          <g id="XMLID_116_" transform="translate(130.794 17.444)">
            <path id="XMLID_70_" d="M1488.4,724.163l-31.522-4.016,2.378-33.486,31.522,4.016Z" transform="translate(-1455.245 -686.661)" fill="#b3b3b3" opacity="0.5"/>
            <rect id="XMLID_14_" width="31.776" height="31.776" transform="translate(4.016 0.005) rotate(7.261)" fill="#40c3f2"/>
          </g>
          <g id="XMLID_121_" transform="translate(1.478 112.517)">
            <path id="XMLID_104_" d="M515.651,1444.8l-31.444-4.582,2.289-34.72,31.444,4.583Z" transform="translate(-481.914 -1405.491)" fill="#b3b3b3" opacity="0.5"/>
            <rect id="XMLID_11_" width="31.776" height="31.776" transform="translate(4.582 0) rotate(8.291)" fill="#ffa42c"/>
          </g>
          <g id="XMLID_110_" transform="translate(214.227 1.94)">
            <path id="XMLID_109_" d="M2115.5,606.037l-31.582-3.509,2.361-33.056,31.581,3.509Z" transform="translate(-2082.778 -569.47)" fill="#b3b3b3" opacity="0.5"/>
            <rect id="XMLID_12_" width="31.776" height="31.776" transform="translate(3.508 0) rotate(6.338)" fill="#fe69a9"/>
          </g>
          <g id="XMLID_123_" transform="translate(35.036 76.981)">
            <path id="XMLID_125_" d="M760.788,1173.334l-31.581-3.509,2.362-33.055,31.582,3.508Z" transform="translate(-728.065 -1136.77)" fill="#b3b3b3" opacity="0.5"/>
            <rect id="XMLID_124_" width="31.776" height="31.776" transform="translate(3.508 0) rotate(6.338)" fill="#40c3f2"/>
          </g>
          <g id="XMLID_115_" transform="translate(91.069 125.595)">
            <path id="XMLID_98_" d="M1177.6,1537.877h-31.776l-1.637-33.577h31.776Z" transform="translate(-1144.19 -1504.3)" fill="#b3b3b3" opacity="0.5"/>
            <rect id="XMLID_60_" width="31.776" height="31.776" fill="#fe69a9"/>
          </g>
          <g id="XMLID_111_" transform="translate(205.948 70.658)">
            <path id="XMLID_108_" d="M2051.866,1124.552l-31.7-2.238,1.254-33.334,31.7,2.237Z" transform="translate(-2019.181 -1088.979)" fill="#b3b3b3" opacity="0.5"/>
            <rect id="XMLID_13_" width="31.776" height="31.776" transform="translate(2.237 0) rotate(4.037)" fill="#40c3f2"/>
          </g>
          <g id="XMLID_112_" transform="translate(249.293 89.105)">
            <rect id="XMLID_107_" width="31.776" height="31.776" transform="translate(0 3.112)" fill="#b3b3b3" opacity="0.5"/>
            <rect id="XMLID_16_" width="31.776" height="31.776" fill="#c1e955"/>
          </g>
          <g id="XMLID_129_" transform="translate(158.306 0)">
            <rect id="XMLID_131_" width="31.776" height="31.776" transform="translate(0 3.112)" fill="#b3b3b3" opacity="0.5"/>
            <rect id="XMLID_130_" width="31.776" height="31.776" fill="#c1e955"/>
          </g>
          <g id="XMLID_117_" transform="translate(90.682 3.21)">
            <path id="XMLID_47_" d="M1179.551,614.53l-31.765-.788-.575-34.684,31.765.788Z" transform="translate(-1146.424 -579.057)" fill="#b3b3b3" opacity="0.5"/>
            <rect id="XMLID_6_" width="31.776" height="31.776" transform="translate(0.788 0) rotate(1.421)" fill="#fe69a9"/>
          </g>
          <g id="XMLID_119_" transform="translate(0 26.008)">
            <path id="XMLID_57_" d="M488.781,785.641H457.005l-1.31-34.232h31.776Z" transform="translate(-455.695 -751.409)" fill="#b3b3b3" opacity="0.5"/>
            <rect id="XMLID_4_" width="31.776" height="31.776" fill="#fe69a9"/>
          </g>
          <g id="XMLID_126_" transform="translate(161.582 46.503)">
            <path id="XMLID_128_" d="M1710.367,940.585h-31.776l-1.311-34.233h31.776Z" transform="translate(-1677.28 -906.352)" fill="#b3b3b3" opacity="0.5"/>
            <rect id="XMLID_127_" width="31.776" height="31.776" fill="#ffa42c"/>
          </g>
        </g>
        <g id="XMLID_20_" transform="translate(-3954.742 3239.11)">
          <g id="XMLID_25_" transform="translate(0)">
            <path id="XMLID_55_" d="M1735.8,1518.838c1.19,1.035,1.154,1.639,3.483,6.552a18.776,18.776,0,0,0,4.136,6.2c.431.4,1.875,1.688,2.618,1.283.267-.145.177-.364.623-.942a3.748,3.748,0,0,1,1.705-1.27c.611-.206.706-.019.889-.2.672-.655-1.233-2.553-.762-4.646a1.164,1.164,0,0,0-.019-.893c-.278-.448-.889-.219-1.691-.535a4.663,4.663,0,0,1-1.934-1.887c-.669-.933-.643-1.28-1.14-1.512a2.542,2.542,0,0,0-1.767.092c-1.659.435-1.9,1.043-2.5.894-.763-.19-.506-1.209-1.669-2.822a8.023,8.023,0,0,0-2.8-2.476c-.892-.457-1.268-.4-1.319-.668-.035-.184.117-.375.81-.748l-4.107,1.927C1732.655,1516.26,1735.209,1518.327,1735.8,1518.838Z" transform="translate(-1709.729 -1495.755)" fill="#ea9357"/>
            <path id="XMLID_48_" d="M1808.109,1606.252c.267-.146.177-.364.623-.942a3.746,3.746,0,0,1,1.705-1.27,2.1,2.1,0,0,1,.371-.093h0a14.443,14.443,0,0,1-1.418-1.242c-.7-.708-2.423-2.163-2.891-2.565s-1.521-.3-2.4-.312c-.754-.014-1.91.026-2.216.038a16.746,16.746,0,0,0,3.6,5.1C1805.922,1605.368,1807.365,1606.657,1808.109,1606.252Z" transform="translate(-1771.804 -1569.134)" fill="#ea9357" opacity="0.3"/>
            <g id="XMLID_34_">
              <path id="XMLID_46_" d="M1779.169,1498.06c-.7-1.061-1.763-1.585-3.111-2.577a41.445,41.445,0,0,0-7.929-4.812,7.338,7.338,0,0,0-3.378-.892,7.613,7.613,0,0,0-3.054.852c-5.687,2.416-6.529,2.856-6.45,3.266.051.264.427.211,1.319.668a8.027,8.027,0,0,1,2.8,2.476c1.163,1.613.906,2.632,1.669,2.822.6.149.841-.459,2.5-.894a2.539,2.539,0,0,1,1.767-.092c.5.232.471.578,1.14,1.512a4.663,4.663,0,0,0,1.934,1.888c.8.316,1.413.087,1.691.535a1.163,1.163,0,0,1,.019.893c-.472,2.093,1.433,3.991.762,4.646-.183.178-.278-.008-.889.2a3.746,3.746,0,0,0-1.705,1.27c-.446.578-.355.8-.623.942a26.837,26.837,0,0,1,9.5,10.515c1.7,3.547,3.294,10,4.435,15.43,3.932-2.068,6.484-3.012,6.314-4.214-.118-.828-3.783-6.385-5.66-18.01-.751-4.652-.769-9.841-1.852-13.734A9.327,9.327,0,0,0,1779.169,1498.06Z" transform="translate(-1731.331 -1473.644)" fill="#fcbc86"/>
              <path id="XMLID_74_" d="M1611.054,1405.338l-31.654-2.771,2.115-34.767,31.656,2.77Z" transform="translate(-1578.747 -1367.8)" fill="#b3b3b3" opacity="0.5"/>
              <rect id="XMLID_45_" width="31.776" height="31.776" transform="translate(2.771 0) rotate(5.002)" fill="#40c3f2"/>
              <path id="XMLID_37_" d="M1739.473,1554.485a26.835,26.835,0,0,0-9.5-10.515c-.744.4-2.187-.883-2.618-1.283a18.779,18.779,0,0,1-4.136-6.2c-2.328-4.914-2.293-5.517-3.483-6.552-.587-.511-3.141-2.578-5.449-1.651a4.322,4.322,0,0,0-2.349,3.36c-.353,1.91.309,3.331.82,5a19.73,19.73,0,0,0,3.954,6.934,11.832,11.832,0,0,1,1.494,2.872,24.954,24.954,0,0,1,1.382,3.852c.172,1.762-.017,4.063,1.786,6.8a16.292,16.292,0,0,0,4.25,4.738,24.625,24.625,0,0,1,3.169,1.986,15.428,15.428,0,0,1,3.273,4.288c2.415,4.01,1.943,5.518,3.239,6.04,1.262.508,2.249-.617,6.013-2.81.913-.532,1.778-1,2.586-1.428C1742.767,1564.487,1741.177,1558.032,1739.473,1554.485Z" transform="translate(-1693.67 -1506.852)" fill="#fcbc86"/>
              <path id="XMLID_35_" d="M1724.873,1540.648a3.24,3.24,0,0,0-1.79,2.29c-.371,1.3.378,2.951.922,3.906a.991.991,0,0,0,1.3.4l3.688-1.8a1,1,0,0,0,.482-1.279,7.735,7.735,0,0,0-1.707-2.81A3.27,3.27,0,0,0,1724.873,1540.648Z" transform="translate(-1703.338 -1517.674)" fill="#f4d5bd"/>
            </g>
            <g id="XMLID_30_" transform="translate(34.543 51.221)">
              <path id="XMLID_33_" d="M1866.352,1772.922l-24.46,10.218-4.167-9.975a.567.567,0,0,1,.305-.743l23.413-9.781a.568.568,0,0,1,.743.3Z" transform="translate(-1837.681 -1762.598)" fill="#e6e6e6"/>
              <path id="XMLID_156_" d="M1869.819,1799.587c-.623-1.492-1.715-2.456-2.44-2.154l-27.266,11.39c-.724.3-.806,1.757-.182,3.249l37.051,92.488,38.519-5.334Z" transform="translate(-1839.27 -1792.777)" fill="#666"/>
              <path id="XMLID_157_" d="M1986.316,1799.587c-.623-1.492-1.716-2.456-2.44-2.154l-10.109,4.223,22.733,54.77h13.67Z" transform="translate(-1955.766 -1792.777)" fill="#666" opacity="0.3"/>
            </g>
          </g>
        </g>
        <g id="XMLID_80_" transform="translate(-4068.516 3174.808)">
          <g id="XMLID_87_" transform="translate(0 0)">
            <path id="XMLID_102_" d="M1316.4,1014.078c-1.19,1.035-1.155,1.639-3.483,6.552a18.778,18.778,0,0,1-4.136,6.2c-.431.4-1.875,1.688-2.618,1.283-.267-.146-.177-.364-.623-.942a3.749,3.749,0,0,0-1.705-1.27c-.611-.206-.706-.019-.889-.2-.672-.655,1.233-2.553.762-4.646a1.163,1.163,0,0,1,.019-.893c.278-.449.889-.219,1.691-.535a4.663,4.663,0,0,0,1.934-1.887c.669-.933.643-1.28,1.14-1.512a2.541,2.541,0,0,1,1.767.092c1.659.435,1.9,1.043,2.5.894.763-.19.506-1.209,1.669-2.822a8.02,8.02,0,0,1,2.8-2.476c.892-.457,1.268-.4,1.319-.668.035-.184-.117-.375-.81-.748l4.108,1.927C1319.539,1011.5,1316.986,1013.567,1316.4,1014.078Z" transform="translate(-1224.96 -993.459)" fill="#ea9357"/>
            <path id="XMLID_101_" d="M1310.5,1101.482c-.267-.146-.177-.364-.623-.943a3.747,3.747,0,0,0-1.705-1.27,2.1,2.1,0,0,0-.371-.093h0a14.408,14.408,0,0,0,1.418-1.242c.7-.708,2.423-2.163,2.891-2.565s1.522-.3,2.4-.312c.754-.014,1.91.026,2.216.038a16.744,16.744,0,0,1-3.6,5.1C1312.693,1100.6,1311.25,1101.887,1310.5,1101.482Z" transform="translate(-1229.304 -1066.829)" fill="#ea9357" opacity="0.3"/>
            <g id="XMLID_93_" transform="translate(60.947)">
              <path id="XMLID_100_" d="M1183.808,993.3c.7-1.061,1.763-1.585,3.111-2.577a41.439,41.439,0,0,1,7.929-4.813,7.339,7.339,0,0,1,3.378-.891,7.614,7.614,0,0,1,3.054.852c5.687,2.416,6.529,2.856,6.45,3.266-.051.264-.427.211-1.319.668a8.027,8.027,0,0,0-2.8,2.476c-1.163,1.613-.906,2.632-1.669,2.822-.6.149-.841-.459-2.5-.894a2.541,2.541,0,0,0-1.767-.092c-.5.232-.471.578-1.14,1.512a4.662,4.662,0,0,1-1.934,1.888c-.8.316-1.413.087-1.691.535a1.162,1.162,0,0,0-.019.893c.472,2.093-1.433,3.992-.762,4.646.183.178.278-.008.889.2a3.748,3.748,0,0,1,1.705,1.27c.446.578.355.8.623.942a26.837,26.837,0,0,0-9.5,10.515c-1.7,3.547-3.294,10-4.435,15.43-3.932-2.068-6.485-3.011-6.314-4.213.118-.828,3.783-6.385,5.66-18.01.751-4.652.769-9.841,1.852-13.734A9.224,9.224,0,0,1,1183.808,993.3Z" transform="translate(-1175.087 -971.348)" fill="#fcbc86"/>
              <path id="XMLID_56_" d="M1408.347,915.247h-31.776l-1.311-33.577h31.776Z" transform="translate(-1348.783 -881.67)" fill="#b3b3b3" opacity="0.5"/>
              <rect id="XMLID_9_" width="31.776" height="31.776" transform="translate(26.477)" fill="#fe69a9"/>
              <path id="XMLID_95_" d="M1227.315,1049.725a26.835,26.835,0,0,1,9.5-10.515c.744.4,2.187-.883,2.618-1.283a18.78,18.78,0,0,0,4.136-6.2c2.328-4.914,2.293-5.517,3.483-6.552.587-.511,3.141-2.578,5.449-1.651a4.322,4.322,0,0,1,2.349,3.36c.353,1.909-.309,3.331-.82,5a19.731,19.731,0,0,1-3.954,6.934,11.824,11.824,0,0,0-1.494,2.872,24.963,24.963,0,0,0-1.382,3.852c-.172,1.762.017,4.063-1.786,6.8a16.293,16.293,0,0,1-4.25,4.738,24.659,24.659,0,0,0-3.169,1.986,15.426,15.426,0,0,0-3.273,4.288c-2.415,4.01-1.944,5.519-3.239,6.04-1.262.508-2.249-.617-6.013-2.81-.913-.532-1.778-1-2.586-1.428C1224.021,1059.726,1225.611,1053.271,1227.315,1049.725Z" transform="translate(-1216.558 -1004.556)" fill="#fcbc86"/>
              <path id="XMLID_94_" d="M1409.2,1035.882a3.24,3.24,0,0,1,1.79,2.29c.371,1.3-.378,2.951-.922,3.906a.991.991,0,0,1-1.3.4l-3.689-1.8a1,1,0,0,1-.481-1.279,7.732,7.732,0,0,1,1.707-2.81A3.278,3.278,0,0,1,1409.2,1035.882Z" transform="translate(-1374.174 -1015.373)" fill="#f4d5bd"/>
            </g>
            <g id="XMLID_88_" transform="translate(0 49.757)">
              <path id="XMLID_92_" d="M1122.7,1268.162l24.46,10.218,4.167-9.975a.568.568,0,0,0-.305-.743l-23.413-9.781a.568.568,0,0,0-.743.305Z" transform="translate(-1068.682 -1257.838)" fill="#e6e6e6"/>
              <path id="XMLID_32_" d="M796.163,1304.063l-27.267-11.39c-.724-.3-1.816.662-2.44,2.154l-75.746,163.7,40,3.259,65.634-154.476C796.968,1305.82,796.886,1304.366,796.163,1304.063Z" transform="translate(-714.316 -1288.017)" fill="#30323f"/>
              <path id="XMLID_58_" d="M958.006,1358.718l-7.456-3.115c.365.152-36.393,86.539-49.72,117.484h10.389l46.97-111.12C958.812,1360.474,958.73,1359.021,958.006,1358.718Z" transform="translate(-876.159 -1342.671)" fill="#30323f" opacity="0.3"/>
            </g>
          </g>
        </g>
        <g id="XMLID_15_" transform="translate(-3882.73 3160.477)">
          <path id="XMLID_105_" d="M2278.9,869.309a28.313,28.313,0,0,1,2.12,3.959c.314.9,2.779,2.062,4.482,3.586a7.806,7.806,0,0,0,4.082,1.439c.015-.132.019-.206.019-.206a1.4,1.4,0,0,0,.672-1.121l.045-.784a1.642,1.642,0,0,0,1.022-.5,7.775,7.775,0,0,0-1.448-4.656c-.986-1.255-1.613-5.513-2.017-6.992a3.119,3.119,0,0,0-1.614-2.42c-1.076-.762-1.031-1.031-1.031-1.031s-2.375,1.434-3,1.748a1.3,1.3,0,0,0-.184.116c-.846,1.66-1.589,3.166-1.7,3.529C2280.2,866.48,2279.51,867.931,2278.9,869.309Z" transform="translate(-2257.734 -849.042)" fill="#fcbc86" opacity="0.33"/>
          <path id="XMLID_97_" d="M2278.9,869.309a28.313,28.313,0,0,1,2.12,3.959c.314.9,2.779,2.062,4.482,3.586a7.806,7.806,0,0,0,4.082,1.439c.015-.132.019-.206.019-.206a1.4,1.4,0,0,0,.672-1.121l.045-.784a1.642,1.642,0,0,0,1.022-.5,7.775,7.775,0,0,0-1.448-4.656c-.986-1.255-1.613-5.513-2.017-6.992a3.119,3.119,0,0,0-1.614-2.42c-1.076-.762-1.031-1.031-1.031-1.031s-2.375,1.434-3,1.748a1.3,1.3,0,0,0-.184.116c-.846,1.66-1.589,3.166-1.7,3.529C2280.2,866.48,2279.51,867.931,2278.9,869.309Z" transform="translate(-2257.734 -849.042)" fill="#ea9357"/>
          <path id="XMLID_50_" d="M2323.374,907.965c-.659-.839-1.157-3.017-1.536-4.812-.4.452-.851.981-1.333,1.63a22.625,22.625,0,0,0-1.927,3.093,27.125,27.125,0,0,1-.627,3.048c-.174.654-.325,1.219-.466,1.705a16.316,16.316,0,0,1,1.5,1.163,7.8,7.8,0,0,0,4.082,1.438c.015-.132.02-.206.02-.206a1.4,1.4,0,0,0,.672-1.121l.045-.784a1.642,1.642,0,0,0,1.022-.5A7.767,7.767,0,0,0,2323.374,907.965Z" transform="translate(-2291.214 -885.98)" fill="#ea9357" opacity="0.3"/>
          <path id="XMLID_52_" d="M2350.42,950.513l-1.347,1.865a11.543,11.543,0,0,1-.583,2.062,10.237,10.237,0,0,1-.789,1.611,12.783,12.783,0,0,0,1.583.275c.015-.132.019-.206.019-.206a1.4,1.4,0,0,0,.673-1.12l.045-.784a1.643,1.643,0,0,0,1.022-.5A7.958,7.958,0,0,0,2350.42,950.513Z" transform="translate(-2317.435 -927.076)" fill="#ea9357" opacity="0.4"/>
          <path id="XMLID_72_" d="M2286.807,826.118s-4.393-2.958-9.054-10.309A188.67,188.67,0,0,1,2267,795.46c-.807-1.972-1.3-3.989-3.81-4.482s-7.485-.4-9.367-1.658-7.261-6.589-8.785-7.44-2.51-1.3-3.317-.9a29.817,29.817,0,0,0-4.213,2.779c-.493.538-5.02,5.109-5.6,6.14a59.874,59.874,0,0,0-3.182,5.871,2.124,2.124,0,0,0,.035.749c1.033-.355,2.935.262,4.133.775a3.022,3.022,0,0,1,.914.73,15.654,15.654,0,0,0,2.649-2.568,14.275,14.275,0,0,1,2.219-2.331c.627-.314,3-1.748,3-1.748s-.045.269,1.031,1.031a3.117,3.117,0,0,1,1.613,2.42c.4,1.479,1.031,5.737,2.017,6.992a7.722,7.722,0,0,1,1.434,4.885,11.849,11.849,0,0,1-.448,2.465s-.412,0-1.022-.057l-3.566,11.591c1.14.769,2.51,1.359,2.839,1.689.493.493,5.513,5.423,6.185,6.185a68.3,68.3,0,0,0,7.709,5.289c1.165.583,9.323,3.81,10.891,5.782s16.628,15.6,16.449,15.149S2286.807,826.118,2286.807,826.118Z" transform="translate(-2214.174 -779.84)" fill="#fcbc86"/>
          <path id="XMLID_103_" d="M2257.76,841.768a12.377,12.377,0,0,0-2.512,4.347,3.4,3.4,0,0,1,1.589,1,15.648,15.648,0,0,0,2.648-2.567,14.306,14.306,0,0,1,2.219-2.331c.533-.267,2.476-1.431,3-1.748-.678-1.158-1.316-1.471-1.589-2.752C2262.79,836.169,2259.068,840.785,2257.76,841.768Z" transform="translate(-2237.209 -828.926)" fill="#fcbc86" opacity="0.5"/>
          <path id="XMLID_99_" d="M2435.675,853.191c-.807-1.972-1.3-3.989-3.81-4.482-2.279-.448-6.592-.415-8.775-1.345a4.164,4.164,0,0,0,.841.658c.986.538,2.3.508,3.347,2.271s12.183,18.22,15.813,21.723a46.928,46.928,0,0,0,4.943,3.9q-.79-1.1-1.6-2.38A188.421,188.421,0,0,1,2435.675,853.191Z" transform="translate(-2382.852 -837.57)" fill="#fcbc86" opacity="0.4"/>
          <g id="XMLID_63_" transform="translate(0 0)">
            <path id="XMLID_65_" d="M2359.185,780.854a2.6,2.6,0,0,0,1.313-3.442l-1.141-2.549a2.6,2.6,0,0,0-3.442-1.313l-20.844,9.335,3.271,7.3Z" transform="translate(-2306.474 -773.323)" fill="gray"/>
            <rect id="XMLID_66_" width="19.721" height="8.002" transform="translate(10.607 17.632) rotate(-24.122)" fill="#2d2d2d"/>
            <path id="XMLID_62_" d="M2119.676,967.741l-.8-.706,1.541-.69.4.884Z" transform="translate(-2118.88 -940.814)" fill="gray"/>
            <path id="XMLID_68_" d="M2139.273,918.062l-2.594-5.791-5.968,2.673-2.311,3.515-1.61.721.743,1.66,1.61-.721,4.161.617Z" transform="translate(-2125.744 -893.892)" fill="#111"/>
            <path id="XMLID_71_" d="M2429.7,786.435a2.591,2.591,0,0,0-.214-1.319l-1.141-2.548a2.628,2.628,0,0,0-.2-.367l-13.567,6.076,1.839,4.108Z" transform="translate(-2375.465 -781.026)" fill="gray"/>
            <rect id="XMLID_64_" width="4.501" height="14.962" transform="translate(53.151 0.491) rotate(65.878)" fill="gray"/>
            <rect id="XMLID_69_" width="6.345" height="0.388" transform="translate(10.926 18.388) rotate(65.878)" fill="#111"/>
          </g>
          <path id="XMLID_61_" d="M2236.164,909.893c-1.7-1.524-4.168-2.689-4.482-3.586a26.378,26.378,0,0,0-3.658-6.038,3.018,3.018,0,0,0-.914-.73c-1.2-.513-3.1-1.13-4.133-.775a.984.984,0,0,0-.663.64,4.079,4.079,0,0,0,0,2.913c.269,1.3,1.389,2.331,1.21,3.048a19.36,19.36,0,0,0-.493,3.272,5.26,5.26,0,0,0,1.793,2.958c1.165.9,5.423,3.944,6.1,4.93s3.765,3.765,4.662,5.154a4.877,4.877,0,0,0,1.374,1.269l3.565-11.591A8.154,8.154,0,0,1,2236.164,909.893Z" transform="translate(-2208.396 -882.081)" fill="#fcbc86"/>
          <path id="XMLID_96_" d="M2224.789,900.075a13.077,13.077,0,0,0-.155-1.323,3.448,3.448,0,0,0-1.662.01.984.984,0,0,0-.662.64,4.075,4.075,0,0,0,0,2.913,6.533,6.533,0,0,0,.831,1.845,7.378,7.378,0,0,0,1.23-1.083,3.34,3.34,0,0,0,.406-1.622C2224.813,900.9,2224.8,900.357,2224.789,900.075Z" transform="translate(-2208.391 -882.079)" fill="#f4d5bd"/>
          <g id="XMLID_51_" transform="translate(53.712 42.858)">
            <g id="XMLID_53_">
              <g id="XMLID_54_">
                <path id="XMLID_59_" d="M2555.074,1106.187l-21.165,21.409-8.786-8.685a.567.567,0,0,1,0-.8l20.367-20.6a.567.567,0,0,1,.8,0Z" transform="translate(-2524.954 -1097.337)" fill="#e6e6e6"/>
                <path id="XMLID_287_" d="M2610.948,1154.585l-34.469-33.965c-1.306-1.291-2.873-1.824-3.5-1.19l-23.593,23.865c-.626.634-.076,2.194,1.23,3.485l60.332,59.733Z" transform="translate(-2545.93 -1116.276)" fill="#30323f"/>
                <path id="XMLID_279_" d="M2712.238,1154.585l-34.47-33.965c-1.306-1.291-2.873-1.824-3.5-1.19l-8.412,8.509,46.381,44.978Z" transform="translate(-2647.219 -1116.276)" fill="#30323f" opacity="0.3"/>
              </g>
            </g>
          </g>
        </g>
        <g id="right" transform="translate(-4163 3178.182)">
          <path id="XMLID_86_" d="M399.524,958.857c.693-.617,1.985-1.627,3.446-2.734,3.249-3.7,6.193-7.279,6.319-7.472,1.06-1.622,1.593-3.227.623-4.827a6.6,6.6,0,0,1-1.534-.8c-.228-.318.35-.791.562-1.024a4.655,4.655,0,0,0,.409-.692,3.622,3.622,0,0,0-1.768-4.356,14.1,14.1,0,0,1-1.433.076,1.061,1.061,0,0,1-.491-.925,6.7,6.7,0,0,1,.926-1.442c.077-.142.167-.293.271-.455,1.758-2.753,1.421-4.791-1.083-6.481-.454-.052-.844-.04-.986.118a1.379,1.379,0,0,1-1.8-.143c-.206-.4.526-1.164.526-1.164l2.454-3.108c2.474-3.711,4.89-7.461,7.352-11.181a6.307,6.307,0,0,0,1.053-1.981,2.5,2.5,0,0,0-1-2.7,2.535,2.535,0,0,0-2.645-.038,11.848,11.848,0,0,0-3.736,3.455c-1.549,2-3.037,4.058-4.646,6.011-3.8,4.613-6.988,9.8-12.13,13.172-.575.378-1.019,1.108-1.977.847a20.829,20.829,0,0,1,2.707-5.5,14.235,14.235,0,0,0,2.127-4.052c.608-2.072.437-4.156-1.449-5.161a1.337,1.337,0,0,0-1.074-.106,2.042,2.042,0,0,1,.248,2.852l-.3.369a1.587,1.587,0,0,1-2.235.214l-.081-.067a7.378,7.378,0,0,1-1.455,1.547,14.051,14.051,0,0,0-3.1,3.891c-1.452,2.469-2.83,4.985-4.363,7.4q-.184.291-.35.586c-.71,2.55-1.559,6.054-1.208,7.151.572,1.792,1.55,7.2.786,10.19a3.315,3.315,0,0,1-.5,1.028,9.743,9.743,0,0,1,4.142,4.814c.911,3,4.942,5.755,7.477,6.638S397.249,960.881,399.524,958.857Z" transform="translate(-327.676 -907.178)" fill="#fcbc86"/>
          <g id="XMLID_82_" transform="translate(75.276 16.254)">
            <path id="XMLID_85_" d="M569.137,1034.333a1.379,1.379,0,0,0,1.8.143c.142-.158.532-.171.986-.118-.177-.119-.364-.237-.562-.353-1.111-.65-1.168-1.077-.472-2.106q.619-.917,1.232-1.838l-2.454,3.108S568.931,1033.928,569.137,1034.333Z" transform="translate(-569.1 -1030.061)" fill="#ea9357"/>
            <path id="XMLID_84_" d="M589.523,1116.431a1.061,1.061,0,0,0,.491.925,14.077,14.077,0,0,0,1.433-.076c-.073-.047-.146-.092-.222-.137-1.176-.688-1.27-1.238-.775-2.154A6.692,6.692,0,0,0,589.523,1116.431Z" transform="translate(-586.818 -1103.755)" fill="#ea9357"/>
            <path id="XMLID_83_" d="M610.341,1165.922c-.212.233-.79.707-.562,1.024a6.61,6.61,0,0,0,1.534.8,4.848,4.848,0,0,0-.622-.808c-.412-.438-.26-.836-.089-1.272.057-.146.106-.29.148-.431A4.54,4.54,0,0,1,610.341,1165.922Z" transform="translate(-604.353 -1147.351)" fill="#ea9357"/>
          </g>
          <path id="XMLID_79_" d="M375.74,1128.214c-2.275,2.025-7.377,4.842-9.913,3.959s-6.566-3.635-7.477-6.638a9.744,9.744,0,0,0-4.142-4.814,3.309,3.309,0,0,0,.5-1.028c.764-2.988-.214-8.4-.786-10.19-.35-1.1.5-4.6,1.208-7.151a13.557,13.557,0,0,0-1.433,3.773,17.283,17.283,0,0,0-.383,3.22c-.042,1.4-.085,2.8-.034,4.195.079,2.154-2.983,9.015-3.066,9.205l7.465,18.531,6.989-1.96c2.612-1.712,9.719-8.528,11.926-10.939.854-.933,1.733-1.918,2.591-2.895C377.725,1126.586,376.433,1127.6,375.74,1128.214Z" transform="translate(-303.892 -1076.535)" fill="#ea9357"/>
          <path id="XMLID_78_" d="M459.721,978.592l.3-.37a2.042,2.042,0,0,0-.248-2.852,2.185,2.185,0,0,0-1.207,1.227,14.181,14.181,0,0,1-1.165,2.142l.081.067A1.588,1.588,0,0,0,459.721,978.592Z" transform="translate(-396.904 -966.35)" fill="#f9e4d9"/>
          <path id="XMLID_77_" d="M617.448,918.168l-2.271-1.588a.439.439,0,0,1-.108-.611l1.123-1.606a1.473,1.473,0,0,1,2.052-.363l.576.4a1.473,1.473,0,0,1,.363,2.052l-1.123,1.606A.439.439,0,0,1,617.448,918.168Z" transform="translate(-533.644 -912.867)" fill="#f9e4d9"/>
          <rect id="XMLID_76_" width="28.645" height="7.122" transform="translate(44.395 43.989) rotate(39.559)" fill="#e6e6e6"/>
          <path id="XMLID_274_" d="M63.384,1287.192,39.8,1267.928a2.271,2.271,0,0,0-3.2.323L0,1314.848v53.507l63.706-77.969A2.27,2.27,0,0,0,63.384,1287.192Z" transform="translate(0 -1219.767)" fill="#1b346b"/>
          <path id="XMLID_89_" d="M63.384,1380.525l-6.793-5.548L0,1444.514v17.173l63.706-77.969A2.27,2.27,0,0,0,63.384,1380.525Z" transform="translate(0 -1313.1)" fill="#1b346b" opacity="0.3"/>
        </g>
      </g>
    </g>
  </g>
</svg>
