<svg xmlns="http://www.w3.org/2000/svg" xmlns:xlink="http://www.w3.org/1999/xlink" width="103" height="103" viewBox="0 0 103 103">
  <defs>
    <filter id="Trazado_982547" x="0" y="0" width="103" height="103" filterUnits="userSpaceOnUse">
      <feOffset dy="3" input="SourceAlpha"/>
      <feGaussianBlur stdDeviation="3" result="blur"/>
      <feFlood flood-opacity="0.161"/>
      <feComposite operator="in" in2="blur"/>
      <feComposite in="SourceGraphic"/>
    </filter>
  </defs>
  <g id="Grupo_1242460" data-name="Grupo 1242460" transform="translate(-171 -5412)">
    <g id="Grupo_1242218" data-name="Grupo 1242218" transform="translate(0 668.835)">
      <g id="Grupo_1173169" data-name="Grupo 1173169" transform="translate(180 4749.165)">
        <g id="Grupo_1172017" data-name="Grupo 1172017">
          <g id="Grupo_1167337" data-name="Grupo 1167337">
            <g id="Grupo_1166720" data-name="Grupo 1166720">
              <g id="Grupo_1164305" data-name="Grupo 1164305">
                <g id="Grupo_1163948" data-name="Grupo 1163948">
                  <g id="Grupo_1158168" data-name="Grupo 1158168">
                    <g id="Grupo_1152576" data-name="Grupo 1152576">
                      <g id="Grupo_1148633" data-name="Grupo 1148633">
                        <g id="Grupo_1148525" data-name="Grupo 1148525">
                          <g transform="matrix(1, 0, 0, 1, -9, -6)" filter="url(#Trazado_982547)">
                            <g id="Trazado_982547-2" data-name="Trazado 982547" transform="translate(9 6)" fill="#f2f7e5">
                              <path d="M 42.5 83.5 C 36.96437835693359 83.5 31.59512901306152 82.41617584228516 26.54141235351562 80.27863311767578 C 21.65934181213379 78.21369171142578 17.27448272705078 75.25723266601562 13.50862312316895 71.49137878417969 C 9.742776870727539 67.72553253173828 6.786305904388428 63.34066009521484 4.721364498138428 58.45858764648438 C 2.583823442459106 53.40486907958984 1.5 48.03562164306641 1.5 42.5 C 1.5 36.96437835693359 2.583823442459106 31.59512901306152 4.721364498138428 26.54141235351562 C 6.786305904388428 21.65934181213379 9.742776870727539 17.27448272705078 13.50862312316895 13.50862312316895 C 17.27448272705078 9.742776870727539 21.65934181213379 6.786305904388428 26.54141235351562 4.721364498138428 C 31.59512901306152 2.583823442459106 36.96437835693359 1.5 42.5 1.5 C 48.03562164306641 1.5 53.40486907958984 2.583823442459106 58.45858764648438 4.721364498138428 C 63.34066009521484 6.786305904388428 67.72553253173828 9.742776870727539 71.49137878417969 13.50862312316895 C 75.25723266601562 17.27448272705078 78.21369171142578 21.65934181213379 80.27863311767578 26.54141235351562 C 82.41617584228516 31.59512901306152 83.5 36.96437835693359 83.5 42.5 C 83.5 48.03562164306641 82.41617584228516 53.40486907958984 80.27863311767578 58.45858764648438 C 78.21369171142578 63.34066009521484 75.25723266601562 67.72553253173828 71.49137878417969 71.49137878417969 C 67.72553253173828 75.25723266601562 63.34066009521484 78.21369171142578 58.45858764648438 80.27863311767578 C 53.40486907958984 82.41617584228516 48.03562164306641 83.5 42.5 83.5 Z" stroke="none"/>
                              <path d="M 42.5 3 C 37.16621398925781 3 31.99356079101562 4.043960571289062 27.125732421875 6.102882385253906 C 22.42246627807617 8.092185974121094 18.19785308837891 10.94070434570312 14.56928253173828 14.56928253173828 C 10.94070434570312 18.19785308837891 8.092185974121094 22.42246627807617 6.102882385253906 27.125732421875 C 4.043960571289062 31.99356079101562 3 37.16621398925781 3 42.5 C 3 47.83378601074219 4.043960571289062 53.00643920898438 6.102882385253906 57.874267578125 C 8.092185974121094 62.57753372192383 10.94070434570312 66.80214691162109 14.56928253173828 70.43071746826172 C 18.19785308837891 74.05929565429688 22.42246627807617 76.90781402587891 27.125732421875 78.89711761474609 C 31.99356079101562 80.95603942871094 37.16621398925781 82 42.5 82 C 47.83378601074219 82 53.00643920898438 80.95603942871094 57.874267578125 78.89711761474609 C 62.57753372192383 76.90781402587891 66.80214691162109 74.05929565429688 70.43071746826172 70.43071746826172 C 74.05929565429688 66.80214691162109 76.90781402587891 62.57753372192383 78.89711761474609 57.874267578125 C 80.95603942871094 53.00643920898438 82 47.83378601074219 82 42.5 C 82 37.16621398925781 80.95603942871094 31.99356079101562 78.89711761474609 27.125732421875 C 76.90781402587891 22.42246627807617 74.05929565429688 18.19785308837891 70.43071746826172 14.56928253173828 C 66.80214691162109 10.94070434570312 62.57753372192383 8.092185974121094 57.874267578125 6.102882385253906 C 53.00643920898438 4.043960571289062 47.83378601074219 3 42.5 3 M 42.5 0 C 65.97210693359375 0 85 19.02789306640625 85 42.5 C 85 65.97210693359375 65.97210693359375 85 42.5 85 C 19.02789306640625 85 0 65.97210693359375 0 42.5 C 0 19.02789306640625 19.02789306640625 0 42.5 0 Z" stroke="none" fill="#36ceef"/>
                            </g>
                          </g>
                        </g>
                      </g>
                    </g>
                  </g>
                </g>
              </g>
            </g>
          </g>
        </g>
      </g>
    </g>
    <g id="concepto" transform="translate(203.001 5430)">
      <path id="Trazado_1298547" data-name="Trazado 1298547" d="M120,448.858h-7.315a3.19,3.19,0,0,1-3.191-3.191v-4.308h13.7v4.308A3.19,3.19,0,0,1,120,448.858Zm0,0" transform="translate(-96.494 -388.946)" fill="#426175"/>
      <path id="Trazado_1298548" data-name="Trazado 1298548" d="M110.749,361.532H97.106a1.7,1.7,0,0,1-1.7-1.7V348.22a1.7,1.7,0,0,1,1.7-1.7h13.643a1.7,1.7,0,0,1,1.7,1.7v11.612A1.7,1.7,0,0,1,110.749,361.532Zm0,0" transform="translate(-84.076 -305.369)" fill="#cdd6df"/>
      <path id="Trazado_1298549" data-name="Trazado 1298549" d="M189.885,346.52h-4.679v15.012h4.679a1.7,1.7,0,0,0,1.7-1.7V348.22A1.7,1.7,0,0,0,189.885,346.52Zm0,0" transform="translate(-163.213 -305.369)" fill="#abb2ba"/>
      <path id="Trazado_1298550" data-name="Trazado 1298550" d="M45.422,26.461a18.961,18.961,0,0,0-37.922,0A20.068,20.068,0,0,0,10.794,37.4c2.881,4.416,4.951,7.839,5.408,12.678a2.284,2.284,0,0,0,2.27,2.076H34.45a2.284,2.284,0,0,0,2.27-2.076c.457-4.839,2.527-8.262,5.408-12.678a20.072,20.072,0,0,0,3.294-10.942Zm0,0" transform="translate(-6.61 -6.609)" fill="#fed066"/>
      <path id="Trazado_1298551" data-name="Trazado 1298551" d="M143.494,7.5a19.075,19.075,0,0,0-3.19.269A18.965,18.965,0,0,1,156.076,26.46,20.068,20.068,0,0,1,152.782,37.4c-3.276,5.021-5.5,8.759-5.5,14.754h4.2a2.284,2.284,0,0,0,2.27-2.076c.457-4.839,2.527-8.262,5.408-12.678a20.072,20.072,0,0,0,3.294-10.942A18.961,18.961,0,0,0,143.494,7.5Zm0,0" transform="translate(-123.643 -6.609)" fill="#f5b556"/>
      <path id="Trazado_1298552" data-name="Trazado 1298552" d="M89.519,95.712h-.771a1.153,1.153,0,0,1-1.105-.814,9.318,9.318,0,0,0-.739-1.763,1.155,1.155,0,0,1,.2-1.37l.553-.553a1.158,1.158,0,0,0,0-1.638l-.933-.933a1.159,1.159,0,0,0-1.638,0l-.553.553a1.155,1.155,0,0,1-1.37.2,9.335,9.335,0,0,0-1.763-.739,1.153,1.153,0,0,1-.814-1.105v-.771a1.158,1.158,0,0,0-1.158-1.159H78.1a1.159,1.159,0,0,0-1.158,1.159V87.5a1.154,1.154,0,0,1-.833,1.111,9.28,9.28,0,0,0-1.819.732,1.154,1.154,0,0,1-1.355-.208l-.493-.493a1.159,1.159,0,0,0-1.638,0l-.933.933a1.158,1.158,0,0,0,0,1.638l.443.443a1.154,1.154,0,0,1,.194,1.38,9.281,9.281,0,0,0-.795,1.862,1.16,1.16,0,0,1-1.112.815H68.01a1.158,1.158,0,0,0-1.158,1.158v1.32a1.158,1.158,0,0,0,1.158,1.158h.548a1.154,1.154,0,0,1,1.113.831,9.307,9.307,0,0,0,.787,1.922,1.152,1.152,0,0,1-.2,1.365l-.381.382a1.157,1.157,0,0,0,0,1.638l.933.934a1.159,1.159,0,0,0,1.638,0l.381-.381a1.153,1.153,0,0,1,1.365-.2,9.287,9.287,0,0,0,1.923.787,1.153,1.153,0,0,1,.831,1.113v.548a1.158,1.158,0,0,0,1.158,1.158h1.32a1.158,1.158,0,0,0,1.159-1.158v-.594a1.159,1.159,0,0,1,.815-1.112,9.332,9.332,0,0,0,1.862-.795,1.154,1.154,0,0,1,1.38.194l.443.443a1.159,1.159,0,0,0,1.638,0l.934-.934a1.158,1.158,0,0,0,0-1.638l-.493-.494A1.154,1.154,0,0,1,86.954,102a9.294,9.294,0,0,0,.732-1.818,1.153,1.153,0,0,1,1.111-.833h.721a1.158,1.158,0,0,0,1.158-1.158V96.87a1.159,1.159,0,0,0-1.159-1.159Zm-10.754,7.424A5.606,5.606,0,1,1,84.37,97.53,5.606,5.606,0,0,1,78.764,103.136Zm0,0" transform="translate(-58.913 -75.449)" fill="#f2f2f2"/>
      <path id="Trazado_1298553" data-name="Trazado 1298553" d="M35.931,8.208a.891.891,0,1,0-1.442,1.046,17.939,17.939,0,0,1,3.432,10.6,19.11,19.11,0,0,1-3.149,10.455c-3.046,4.669-5.078,8.1-5.549,13.081A1.393,1.393,0,0,1,28.218,44.6a.817.817,0,0,0-.106.026,1.413,1.413,0,0,1-.271.026H11.861a1.421,1.421,0,0,1-.272-.026.878.878,0,0,0-.106-.026,1.393,1.393,0,0,1-1.005-1.217c-.47-4.979-2.5-8.412-5.549-13.081A19.106,19.106,0,0,1,1.781,19.852a18.07,18.07,0,0,1,30.407-13.2.891.891,0,1,0,1.216-1.3A19.852,19.852,0,0,0,0,19.852,20.882,20.882,0,0,0,3.438,31.28c2.9,4.447,4.835,7.7,5.267,12.275A3.171,3.171,0,0,0,10.439,46.1v8.359a2.6,2.6,0,0,0,1.676,2.424A4.086,4.086,0,0,0,16.193,60.8h7.315a4.086,4.086,0,0,0,4.078-3.916,2.6,2.6,0,0,0,1.676-2.424V46.1A3.169,3.169,0,0,0,31,43.555c.432-4.572,2.366-7.828,5.267-12.274A20.885,20.885,0,0,0,39.7,19.852,19.7,19.7,0,0,0,35.931,8.208ZM17.8,49.9h9.681v1.625H12.22V49.9h2.018a.891.891,0,1,0,0-1.781H12.22V46.438H27.482v1.679H17.8a.891.891,0,0,0,0,1.781Zm8.915,5.373H12.985a.811.811,0,0,1-.766-.808V53.3H27.482v1.158a.811.811,0,0,1-.766.809Zm-3.207,3.75H16.193a2.3,2.3,0,0,1-2.276-1.968H25.785a2.3,2.3,0,0,1-2.276,1.968Zm0,0"/>
      <path id="Trazado_1298554" data-name="Trazado 1298554" d="M81.93,93.817a.263.263,0,0,1,.255-.186h.721a2.051,2.051,0,0,0,2.049-2.049v-1.32a2.052,2.052,0,0,0-2.049-2.049h-.771a.264.264,0,0,1-.253-.181,10.228,10.228,0,0,0-.81-1.932.266.266,0,0,1,.047-.313l.553-.553a2.049,2.049,0,0,0,0-2.9l-.934-.934a2.05,2.05,0,0,0-2.9,0l-.553.553a.265.265,0,0,1-.313.047,10.221,10.221,0,0,0-1.932-.81.264.264,0,0,1-.181-.253v-.771a2.051,2.051,0,0,0-2.049-2.049h-1.32a2.051,2.051,0,0,0-2.049,2.049v.721a.263.263,0,0,1-.186.255,10.2,10.2,0,0,0-1.993.8.264.264,0,0,1-.308-.051l-.493-.494a2.049,2.049,0,0,0-2.9,0l-.934.934a2.049,2.049,0,0,0,0,2.9l.443.443a.264.264,0,0,1,.047.314,10.225,10.225,0,0,0-.871,2.04.269.269,0,0,1-.26.183H61.4a2.052,2.052,0,0,0-2.049,2.049v1.32A2.051,2.051,0,0,0,61.4,93.631h.547a.262.262,0,0,1,.256.184,10.212,10.212,0,0,0,.863,2.106.263.263,0,0,1-.051.308l-.381.381a2.049,2.049,0,0,0,0,2.9l.933.933a2.049,2.049,0,0,0,2.9,0l.382-.381a.261.261,0,0,1,.308-.051,10.214,10.214,0,0,0,2.107.862.263.263,0,0,1,.184.256v.548a2.051,2.051,0,0,0,2.049,2.049h1.32a2.051,2.051,0,0,0,2.049-2.049v-.594a.269.269,0,0,1,.183-.26,10.214,10.214,0,0,0,2.04-.871A.265.265,0,0,1,77.4,100l.443.443a2.049,2.049,0,0,0,2.9,0l.934-.933a2.049,2.049,0,0,0,0-2.9l-.493-.494a.264.264,0,0,1-.051-.308,10.174,10.174,0,0,0,.8-1.993Zm-1.714-.487a8.446,8.446,0,0,1-.661,1.645,2.032,2.032,0,0,0,.364,2.4l.493.494a.268.268,0,0,1,0,.379l-.934.933a.268.268,0,0,1-.379,0l-.443-.443a2.05,2.05,0,0,0-2.447-.341,8.433,8.433,0,0,1-1.684.719,2.062,2.062,0,0,0-1.447,1.965v.594a.268.268,0,0,1-.268.268h-1.32a.268.268,0,0,1-.268-.268v-.548a2.051,2.051,0,0,0-1.478-1.97,8.425,8.425,0,0,1-1.739-.712,2.013,2.013,0,0,0-.968-.246,2.057,2.057,0,0,0-1.454.6l-.382.381a.268.268,0,0,1-.379,0l-.934-.934a.268.268,0,0,1,0-.379l.381-.381a2.052,2.052,0,0,0,.354-2.422,8.426,8.426,0,0,1-.712-1.739,2.051,2.051,0,0,0-1.97-1.478H61.4a.268.268,0,0,1-.268-.268v-1.32a.268.268,0,0,1,.268-.268h.594a2.063,2.063,0,0,0,1.965-1.447,8.416,8.416,0,0,1,.719-1.684,2.051,2.051,0,0,0-.34-2.447l-.443-.443a.268.268,0,0,1,0-.379l.934-.934a.268.268,0,0,1,.379,0l.493.494a2.032,2.032,0,0,0,2.4.364,8.431,8.431,0,0,1,1.644-.661,2.051,2.051,0,0,0,1.48-1.969v-.721a.268.268,0,0,1,.268-.268h1.32a.268.268,0,0,1,.268.268v.771A2.032,2.032,0,0,0,74.526,82.9a8.44,8.44,0,0,1,1.594.668,2.057,2.057,0,0,0,2.427-.351l.553-.553a.268.268,0,0,1,.379,0l.933.934a.268.268,0,0,1,0,.379l-.553.553a2.058,2.058,0,0,0-.352,2.427,8.441,8.441,0,0,1,.669,1.595,2.031,2.031,0,0,0,1.958,1.446h.771a.268.268,0,0,1,.268.268v1.32a.268.268,0,0,1-.268.268h-.721a2.052,2.052,0,0,0-1.968,1.481Zm0,0" transform="translate(-52.3 -68.841)"/>
      <path id="Trazado_1298555" data-name="Trazado 1298555" d="M118.957,131.23a6.5,6.5,0,1,0,6.5,6.5A6.5,6.5,0,0,0,118.957,131.23Zm0,11.212a4.715,4.715,0,1,1,4.715-4.715A4.72,4.72,0,0,1,118.957,142.442Zm0,0" transform="translate(-99.106 -115.646)"/>
    </g>
  </g>
</svg>
