<svg xmlns="http://www.w3.org/2000/svg" xmlns:xlink="http://www.w3.org/1999/xlink" width="113" height="113" viewBox="0 0 113 113">
  <defs>
    <filter id="Trazado_982547" x="0" y="0" width="113" height="113" filterUnits="userSpaceOnUse">
      <feOffset dy="3" input="SourceAlpha"/>
      <feGaussianBlur stdDeviation="3" result="blur"/>
      <feFlood flood-opacity="0.161"/>
      <feComposite operator="in" in2="blur"/>
      <feComposite in="SourceGraphic"/>
    </filter>
  </defs>
  <g id="Grupo_1242474" data-name="Grupo 1242474" transform="translate(-586 -6513.863)">
    <g id="Grupo_1242219" data-name="Grupo 1242219" transform="translate(210 2549.473)">
      <g id="Grupo_1235695" data-name="Grupo 1235695" transform="translate(385 3970.39)">
        <g id="Grupo_1241232" data-name="Grupo 1241232">
          <g id="Grupo_1240425" data-name="Grupo 1240425" transform="translate(0 0)">
            <g id="Grupo_1239772" data-name="Grupo 1239772">
              <g id="Grupo_1236602" data-name="Grupo 1236602">
                <g id="Grupo_1236144" data-name="Grupo 1236144">
                  <g id="Grupo_1235105" data-name="Grupo 1235105">
                    <g id="Grupo_1223793" data-name="Grupo 1223793">
                      <g id="Grupo_1208028" data-name="Grupo 1208028">
                        <g id="Grupo_1177675" data-name="Grupo 1177675">
                          <g id="Grupo_1176928" data-name="Grupo 1176928">
                            <g id="Grupo_1172322" data-name="Grupo 1172322">
                              <g id="Grupo_1164700" data-name="Grupo 1164700">
                                <g id="Grupo_1160931" data-name="Grupo 1160931">
                                  <g id="Grupo_1160749" data-name="Grupo 1160749">
                                    <g id="Grupo_1158891" data-name="Grupo 1158891">
                                      <g id="Grupo_1157406" data-name="Grupo 1157406">
                                        <g id="Grupo_1155793" data-name="Grupo 1155793">
                                          <g id="Grupo_1154704" data-name="Grupo 1154704">
                                            <g id="Grupo_1150790" data-name="Grupo 1150790">
                                              <g id="Grupo_1154214" data-name="Grupo 1154214">
                                                <g id="Grupo_1152583" data-name="Grupo 1152583">
                                                  <g id="Grupo_1146973" data-name="Grupo 1146973">
                                                    <g id="Grupo_1146954" data-name="Grupo 1146954">
                                                      <g transform="matrix(1, 0, 0, 1, -9, -6)" filter="url(#Trazado_982547)">
                                                        <g id="Trazado_982547-2" data-name="Trazado 982547" transform="translate(9 6)" fill="#ffe1b9">
                                                          <path d="M 47.50000762939453 93.49986267089844 C 41.28937911987305 93.49986267089844 35.26534271240234 92.28383636474609 29.59519386291504 89.88558197021484 C 24.11772727966309 87.56880950927734 19.19814109802246 84.25183868408203 14.97310066223145 80.02679443359375 C 10.74804782867432 75.8017578125 7.431074142456055 70.88218688964844 5.114300727844238 65.40471649169922 C 2.716034412384033 59.73458480834961 1.500007629394531 53.71054458618164 1.500007629394531 47.49993133544922 C 1.500007629394531 41.2893180847168 2.716034412384033 35.26527786254883 5.114300727844238 29.59514427185059 C 7.431074142456055 24.11767768859863 10.74804782867432 19.19810485839844 14.97310066223145 14.97306442260742 C 19.19814109802246 10.74802494049072 24.11772727966309 7.431051254272461 29.59519386291504 5.114277839660645 C 35.26534271240234 2.71602463722229 41.28937911987305 1.499997973442078 47.50000762939453 1.499997973442078 C 53.71063613891602 1.499997973442078 59.73467254638672 2.71602463722229 65.40482330322266 5.114277839660645 C 70.88228607177734 7.431051254272461 75.80187225341797 10.74802494049072 80.02691650390625 14.97306442260742 C 84.25196838378906 19.19810485839844 87.56893920898438 24.11767768859863 89.88571166992188 29.59514427185059 C 92.28398132324219 35.26527786254883 93.50000762939453 41.2893180847168 93.50000762939453 47.49993133544922 C 93.50000762939453 53.71054458618164 92.28398132324219 59.73458480834961 89.88571166992188 65.40471649169922 C 87.56893920898438 70.88218688964844 84.25196838378906 75.8017578125 80.02691650390625 80.02679443359375 C 75.80187225341797 84.25183868408203 70.88228607177734 87.56880950927734 65.40482330322266 89.88558197021484 C 59.73467254638672 92.28383636474609 53.71063613891602 93.49986267089844 47.50000762939453 93.49986267089844 Z" stroke="none"/>
                                                          <path d="M 47.50000762939453 2.999992370605469 C 41.4912223815918 2.999992370605469 35.66377639770508 4.1761474609375 30.17951202392578 6.495796203613281 C 24.88085174560547 8.736930847167969 20.12152862548828 11.94596099853516 16.03376007080078 16.03372955322266 C 11.94597625732422 20.12148284912109 8.736961364746094 24.88080596923828 6.495803833007812 30.17946624755859 C 4.176162719726562 35.66371536254883 3.000007629394531 41.49116134643555 3.000007629394531 47.49993133544922 C 3.000007629394531 53.50870132446289 4.176162719726562 59.33614730834961 6.495803833007812 64.82038879394531 C 8.736961364746094 70.11905670166016 11.94597625732422 74.87836456298828 16.03376007080078 78.96613311767578 C 20.12152862548828 83.05390167236328 24.88085174560547 86.26291656494141 30.17951202392578 88.50406646728516 C 35.66377639770508 90.82369995117188 41.4912223815918 91.99985504150391 47.50000762939453 91.99985504150391 C 53.50879287719727 91.99985504150391 59.33623886108398 90.82369995117188 64.82049560546875 88.50406646728516 C 70.11916351318359 86.26291656494141 74.87848663330078 83.05390167236328 78.96625518798828 78.96613311767578 C 83.05403900146484 74.87836456298828 86.26305389404297 70.11905670166016 88.50421142578125 64.82038879394531 C 90.8238525390625 59.33614730834961 92.00000762939453 53.50870132446289 92.00000762939453 47.49993133544922 C 92.00000762939453 41.49116134643555 90.8238525390625 35.66371536254883 88.50421142578125 30.17946624755859 C 86.26305389404297 24.88080596923828 83.05403900146484 20.12148284912109 78.96625518798828 16.03372955322266 C 74.87848663330078 11.94596099853516 70.11916351318359 8.736930847167969 64.82049560546875 6.495796203613281 C 59.33623886108398 4.1761474609375 53.50879287719727 2.999992370605469 47.50000762939453 2.999992370605469 M 47.50000762939453 -7.62939453125e-06 C 73.73352813720703 -7.62939453125e-06 95.00000762939453 21.26644134521484 95.00000762939453 47.49993133544922 C 95.00000762939453 73.73342132568359 73.73352813720703 94.99985504150391 47.50000762939453 94.99985504150391 C 21.26648712158203 94.99985504150391 7.62939453125e-06 73.73342132568359 7.62939453125e-06 47.49993133544922 C 7.62939453125e-06 21.26644134521484 21.26648712158203 -7.62939453125e-06 47.50000762939453 -7.62939453125e-06 Z" stroke="none" fill="#ff9d1c"/>
                                                        </g>
                                                      </g>
                                                    </g>
                                                  </g>
                                                </g>
                                              </g>
                                            </g>
                                          </g>
                                        </g>
                                      </g>
                                    </g>
                                  </g>
                                </g>
                              </g>
                            </g>
                          </g>
                        </g>
                      </g>
                    </g>
                  </g>
                </g>
              </g>
            </g>
          </g>
        </g>
      </g>
    </g>
    <g id="diagrama-de-flujo_2_" data-name="diagrama-de-flujo (2)" transform="translate(568.761 6532.125)">
      <g id="Grupo_1242464" data-name="Grupo 1242464" transform="translate(84.56 42.462)">
        <path id="Trazado_1298563" data-name="Trazado 1298563" d="M345.479,319.587H334.147a3.166,3.166,0,0,1-3.166-3.166v-4.767a3.166,3.166,0,0,1,3.166-3.166h11.332a3.166,3.166,0,0,1,3.166,3.166v4.767A3.166,3.166,0,0,1,345.479,319.587Z" transform="translate(-330.981 -308.488)" fill="#fcb143"/>
      </g>
      <g id="Grupo_1242465" data-name="Grupo 1242465" transform="translate(46.255 42.462)">
        <path id="Trazado_1298564" data-name="Trazado 1298564" d="M67.191,319.587H55.859a3.166,3.166,0,0,1-3.166-3.166v-4.767a3.166,3.166,0,0,1,3.166-3.166H67.191a3.166,3.166,0,0,1,3.166,3.166v4.767A3.166,3.166,0,0,1,67.191,319.587Z" transform="translate(-52.693 -308.488)" fill="#fcb143"/>
      </g>
      <g id="Grupo_1242466" data-name="Grupo 1242466" transform="translate(84.56 42.462)">
        <path id="Trazado_1298565" data-name="Trazado 1298565" d="M345.493,308.489h-.322v4.474a3.151,3.151,0,0,1-3.151,3.151H330.981v.322a3.151,3.151,0,0,0,3.151,3.151h11.361a3.151,3.151,0,0,0,3.151-3.151v-4.8A3.151,3.151,0,0,0,345.493,308.489Z" transform="translate(-330.981 -308.489)" fill="#fa9801"/>
      </g>
      <g id="Grupo_1242467" data-name="Grupo 1242467" transform="translate(46.255 42.462)">
        <path id="Trazado_1298566" data-name="Trazado 1298566" d="M67.205,308.489h-.322v4.474a3.151,3.151,0,0,1-3.151,3.151H52.693v.322a3.151,3.151,0,0,0,3.151,3.151H67.205a3.151,3.151,0,0,0,3.151-3.151v-4.8A3.151,3.151,0,0,0,67.205,308.489Z" transform="translate(-52.693 -308.489)" fill="#fa9801"/>
      </g>
      <g id="Grupo_1242468" data-name="Grupo 1242468" transform="translate(67.371 56.533)">
        <circle id="Elipse_11559" data-name="Elipse 11559" cx="6.457" cy="6.457" r="6.457" fill="#ffe07d"/>
      </g>
      <g id="Grupo_1242469" data-name="Grupo 1242469" transform="translate(67.993 57.155)">
        <path id="Trazado_1298567" data-name="Trazado 1298567" d="M219.227,415.236a6.458,6.458,0,0,1-8.6,8.6,6.457,6.457,0,1,0,8.6-8.6Z" transform="translate(-210.625 -415.236)" fill="#ffd064"/>
      </g>
      <g id="Grupo_1242470" data-name="Grupo 1242470" transform="translate(65.777 22.554)">
        <path id="Trazado_1298568" data-name="Trazado 1298568" d="M201.6,179.556l-6.674-6.674a1.376,1.376,0,0,1,0-1.947l6.674-6.674a1.377,1.377,0,0,1,1.947,0l6.674,6.674a1.376,1.376,0,0,1,0,1.947l-6.674,6.674A1.376,1.376,0,0,1,201.6,179.556Z" transform="translate(-194.526 -163.858)" fill="#fb74c4"/>
      </g>
      <g id="Grupo_1242471" data-name="Grupo 1242471" transform="translate(71.09 27.867)">
        <path id="Trazado_1298569" data-name="Trazado 1298569" d="M243.512,204.223l-1.769-1.769-8.621,8.621,1.769,1.769a1.37,1.37,0,0,0,1.938,0l6.683-6.683a1.37,1.37,0,0,0,0-1.938Z" transform="translate(-233.122 -202.454)" fill="#dd5ca2"/>
      </g>
      <path id="Trazado_1298570" data-name="Trazado 1298570" d="M181.776,19.861H156a.539.539,0,0,1-.539-.539V8.005A.539.539,0,0,1,156,7.466h25.776a.539.539,0,0,1,.539.539V19.321A.54.54,0,0,1,181.776,19.861Z" transform="translate(-95.06 -6.438)" fill="#698ed5"/>
      <g id="Grupo_1242472" data-name="Grupo 1242472" transform="translate(60.4 1.028)">
        <path id="Trazado_1298571" data-name="Trazado 1298571" d="M181.779,7.466h-2.728v8.592a.537.537,0,0,1-.537.537H155.461v2.728a.537.537,0,0,0,.537.537h25.781a.537.537,0,0,0,.537-.537V8a.537.537,0,0,0-.537-.537Z" transform="translate(-155.461 -7.466)" fill="#4073c8"/>
      </g>
      <g id="Grupo_1242473" data-name="Grupo 1242473" transform="translate(45.227 0)">
        <path id="Trazado_1298572" data-name="Trazado 1298572" d="M180.985,31.632v4l-.623-.719a1.028,1.028,0,0,0-1.554,1.345l2.427,2.8a1.028,1.028,0,0,0,1.554,0l2.428-2.8a1.028,1.028,0,1,0-1.553-1.345l-.623.719V30.6a1.028,1.028,0,0,0-1.028-1.028H171.3a2.382,2.382,0,0,0-.468-.668l-6.683-6.683a2.382,2.382,0,0,0-.668-.468v-1.4l2.177-2.513A1.028,1.028,0,0,0,164.1,16.5l-.623.719V14.45H175.34a1.566,1.566,0,0,0,1.565-1.564V1.565A1.566,1.566,0,0,0,175.34,0H159.574a1.028,1.028,0,1,0,0,2.055h15.275V12.395h-24.8V2.055h4.21a1.028,1.028,0,1,0,0-2.055h-4.7a1.566,1.566,0,0,0-1.565,1.565V12.885a1.566,1.566,0,0,0,1.565,1.564h11.863v2.767L160.8,16.5a1.028,1.028,0,0,0-1.554,1.345l2.177,2.513v1.4a2.382,2.382,0,0,0-.668.468l-6.683,6.683a2.4,2.4,0,0,0,0,3.391l6.683,6.683a2.382,2.382,0,0,0,.668.468V49.817L160.8,49.1a1.028,1.028,0,0,0-1.554,1.345l2.427,2.8a1.028,1.028,0,0,0,1.554,0l2.427-2.8A1.028,1.028,0,0,0,164.1,49.1l-.623.719V39.451a2.382,2.382,0,0,0,.668-.468l6.683-6.683a2.382,2.382,0,0,0,.468-.668Zm-11.611-.785-6.683,6.683a.343.343,0,0,1-.484,0l-6.683-6.683a.343.343,0,0,1,0-.485l6.683-6.683a.343.343,0,0,1,.484,0l6.683,6.683a.343.343,0,0,1,0,.485Z" transform="translate(-133.849 0)"/>
        <path id="Trazado_1298573" data-name="Trazado 1298573" d="M339.055,301.023H327.694a4.184,4.184,0,0,0-4.179,4.179V310a4.184,4.184,0,0,0,4.179,4.179h11.361A4.184,4.184,0,0,0,343.234,310v-4.8A4.184,4.184,0,0,0,339.055,301.023ZM341.179,310a2.126,2.126,0,0,1-2.124,2.124H327.694A2.126,2.126,0,0,1,325.57,310v-4.8a2.126,2.126,0,0,1,2.124-2.124h11.361a2.126,2.126,0,0,1,2.124,2.124Z" transform="translate(-285.21 -259.589)"/>
        <path id="Trazado_1298574" data-name="Trazado 1298574" d="M60.767,301.023H49.406a4.184,4.184,0,0,0-4.179,4.179V310a4.184,4.184,0,0,0,4.179,4.179H60.767A4.184,4.184,0,0,0,64.946,310v-4.8A4.184,4.184,0,0,0,60.767,301.023ZM62.891,310a2.126,2.126,0,0,1-2.124,2.124H49.406A2.126,2.126,0,0,1,47.282,310v-4.8a2.126,2.126,0,0,1,2.124-2.124H60.767a2.126,2.126,0,0,1,2.124,2.124Z" transform="translate(-45.227 -259.589)"/>
        <path id="Trazado_1298575" data-name="Trazado 1298575" d="M206.122,403.249a7.485,7.485,0,1,0,0,14.969,7.416,7.416,0,0,0,3.237-.734,1.028,1.028,0,1,0-.89-1.853,5.378,5.378,0,0,1-2.347.532,5.423,5.423,0,1,1,5.122-3.624,1.028,1.028,0,1,0,1.938.683,7.489,7.489,0,0,0-7.061-9.973Z" transform="translate(-177.521 -347.744)"/>
        <path id="Trazado_1298576" data-name="Trazado 1298576" d="M93.819,224.367a1.028,1.028,0,0,0,1.554,0l2.427-2.8a1.028,1.028,0,1,0-1.553-1.345l-.623.719v-4h4.364a1.028,1.028,0,1,0,0-2.055H94.6a1.028,1.028,0,0,0-1.028,1.028v5.031l-.623-.719a1.028,1.028,0,0,0-1.554,1.345Z" transform="translate(-84.821 -185.302)"/>
      </g>
    </g>
  </g>
</svg>
