<svg xmlns="http://www.w3.org/2000/svg" xmlns:xlink="http://www.w3.org/1999/xlink" width="113" height="113" viewBox="0 0 113 113">
  <defs>
    <filter id="Trazado_982547" x="0" y="0" width="113" height="113" filterUnits="userSpaceOnUse">
      <feOffset dy="3" input="SourceAlpha"/>
      <feGaussianBlur stdDeviation="3" result="blur"/>
      <feFlood flood-opacity="0.161"/>
      <feComposite operator="in" in2="blur"/>
      <feComposite in="SourceGraphic"/>
    </filter>
  </defs>
  <g id="Grupo_1242478" data-name="Grupo 1242478" transform="translate(-901 -6513.863)">
    <g id="Grupo_1242220" data-name="Grupo 1242220" transform="translate(525 2549.473)">
      <g id="Grupo_1235695" data-name="Grupo 1235695" transform="translate(385 3970.39)">
        <g id="Grupo_1241232" data-name="Grupo 1241232">
          <g id="Grupo_1240425" data-name="Grupo 1240425" transform="translate(0 0)">
            <g id="Grupo_1239772" data-name="Grupo 1239772">
              <g id="Grupo_1236602" data-name="Grupo 1236602">
                <g id="Grupo_1236144" data-name="Grupo 1236144">
                  <g id="Grupo_1235105" data-name="Grupo 1235105">
                    <g id="Grupo_1223793" data-name="Grupo 1223793">
                      <g id="Grupo_1208028" data-name="Grupo 1208028">
                        <g id="Grupo_1177675" data-name="Grupo 1177675">
                          <g id="Grupo_1176928" data-name="Grupo 1176928">
                            <g id="Grupo_1172322" data-name="Grupo 1172322">
                              <g id="Grupo_1164700" data-name="Grupo 1164700">
                                <g id="Grupo_1160931" data-name="Grupo 1160931">
                                  <g id="Grupo_1160749" data-name="Grupo 1160749">
                                    <g id="Grupo_1158891" data-name="Grupo 1158891">
                                      <g id="Grupo_1157406" data-name="Grupo 1157406">
                                        <g id="Grupo_1155793" data-name="Grupo 1155793">
                                          <g id="Grupo_1154704" data-name="Grupo 1154704">
                                            <g id="Grupo_1150790" data-name="Grupo 1150790">
                                              <g id="Grupo_1154214" data-name="Grupo 1154214">
                                                <g id="Grupo_1152583" data-name="Grupo 1152583">
                                                  <g id="Grupo_1146973" data-name="Grupo 1146973">
                                                    <g id="Grupo_1146954" data-name="Grupo 1146954">
                                                      <g transform="matrix(1, 0, 0, 1, -9, -6)" filter="url(#Trazado_982547)">
                                                        <g id="Trazado_982547-2" data-name="Trazado 982547" transform="translate(9 6)" fill="#ffe1b9">
                                                          <path d="M 47.50000762939453 93.49986267089844 C 41.28937911987305 93.49986267089844 35.26534271240234 92.28383636474609 29.59519386291504 89.88558197021484 C 24.11772727966309 87.56880950927734 19.19814109802246 84.25183868408203 14.97310066223145 80.02679443359375 C 10.74804782867432 75.8017578125 7.431074142456055 70.88218688964844 5.114300727844238 65.40471649169922 C 2.716034412384033 59.73458480834961 1.500007629394531 53.71054458618164 1.500007629394531 47.49993133544922 C 1.500007629394531 41.2893180847168 2.716034412384033 35.26527786254883 5.114300727844238 29.59514427185059 C 7.431074142456055 24.11767768859863 10.74804782867432 19.19810485839844 14.97310066223145 14.97306442260742 C 19.19814109802246 10.74802494049072 24.11772727966309 7.431051254272461 29.59519386291504 5.114277839660645 C 35.26534271240234 2.71602463722229 41.28937911987305 1.499997973442078 47.50000762939453 1.499997973442078 C 53.71063613891602 1.499997973442078 59.73467254638672 2.71602463722229 65.40482330322266 5.114277839660645 C 70.88228607177734 7.431051254272461 75.80187225341797 10.74802494049072 80.02691650390625 14.97306442260742 C 84.25196838378906 19.19810485839844 87.56893920898438 24.11767768859863 89.88571166992188 29.59514427185059 C 92.28398132324219 35.26527786254883 93.50000762939453 41.2893180847168 93.50000762939453 47.49993133544922 C 93.50000762939453 53.71054458618164 92.28398132324219 59.73458480834961 89.88571166992188 65.40471649169922 C 87.56893920898438 70.88218688964844 84.25196838378906 75.8017578125 80.02691650390625 80.02679443359375 C 75.80187225341797 84.25183868408203 70.88228607177734 87.56880950927734 65.40482330322266 89.88558197021484 C 59.73467254638672 92.28383636474609 53.71063613891602 93.49986267089844 47.50000762939453 93.49986267089844 Z" stroke="none"/>
                                                          <path d="M 47.50000762939453 2.999992370605469 C 41.4912223815918 2.999992370605469 35.66377639770508 4.1761474609375 30.17951202392578 6.495796203613281 C 24.88085174560547 8.736930847167969 20.12152862548828 11.94596099853516 16.03376007080078 16.03372955322266 C 11.94597625732422 20.12148284912109 8.736961364746094 24.88080596923828 6.495803833007812 30.17946624755859 C 4.176162719726562 35.66371536254883 3.000007629394531 41.49116134643555 3.000007629394531 47.49993133544922 C 3.000007629394531 53.50870132446289 4.176162719726562 59.33614730834961 6.495803833007812 64.82038879394531 C 8.736961364746094 70.11905670166016 11.94597625732422 74.87836456298828 16.03376007080078 78.96613311767578 C 20.12152862548828 83.05390167236328 24.88085174560547 86.26291656494141 30.17951202392578 88.50406646728516 C 35.66377639770508 90.82369995117188 41.4912223815918 91.99985504150391 47.50000762939453 91.99985504150391 C 53.50879287719727 91.99985504150391 59.33623886108398 90.82369995117188 64.82049560546875 88.50406646728516 C 70.11916351318359 86.26291656494141 74.87848663330078 83.05390167236328 78.96625518798828 78.96613311767578 C 83.05403900146484 74.87836456298828 86.26305389404297 70.11905670166016 88.50421142578125 64.82038879394531 C 90.8238525390625 59.33614730834961 92.00000762939453 53.50870132446289 92.00000762939453 47.49993133544922 C 92.00000762939453 41.49116134643555 90.8238525390625 35.66371536254883 88.50421142578125 30.17946624755859 C 86.26305389404297 24.88080596923828 83.05403900146484 20.12148284912109 78.96625518798828 16.03372955322266 C 74.87848663330078 11.94596099853516 70.11916351318359 8.736930847167969 64.82049560546875 6.495796203613281 C 59.33623886108398 4.1761474609375 53.50879287719727 2.999992370605469 47.50000762939453 2.999992370605469 M 47.50000762939453 -7.62939453125e-06 C 73.73352813720703 -7.62939453125e-06 95.00000762939453 21.26644134521484 95.00000762939453 47.49993133544922 C 95.00000762939453 73.73342132568359 73.73352813720703 94.99985504150391 47.50000762939453 94.99985504150391 C 21.26648712158203 94.99985504150391 7.62939453125e-06 73.73342132568359 7.62939453125e-06 47.49993133544922 C 7.62939453125e-06 21.26644134521484 21.26648712158203 -7.62939453125e-06 47.50000762939453 -7.62939453125e-06 Z" stroke="none" fill="#ff9d1c"/>
                                                        </g>
                                                      </g>
                                                    </g>
                                                  </g>
                                                </g>
                                              </g>
                                            </g>
                                          </g>
                                        </g>
                                      </g>
                                    </g>
                                  </g>
                                </g>
                              </g>
                            </g>
                          </g>
                        </g>
                      </g>
                    </g>
                  </g>
                </g>
              </g>
            </g>
          </g>
        </g>
      </g>
    </g>
    <g id="diagrama-de-flujo_3_" data-name="diagrama-de-flujo (3)" transform="translate(913.854 6535.59)">
      <g id="Grupo_1242476" data-name="Grupo 1242476" transform="translate(10.893 1.029)">
        <path id="Trazado_1298577" data-name="Trazado 1298577" d="M289.4,18.559H270.894a2.1,2.1,0,0,1-2.1-2.1V9.6a2.1,2.1,0,0,1,2.1-2.1H289.4a2.1,2.1,0,0,1,2.1,2.1v6.857A2.1,2.1,0,0,1,289.4,18.559Z" transform="translate(-234.284 -7.5)" fill="#b6c4cf"/>
        <path id="Trazado_1298578" data-name="Trazado 1298578" d="M366.29,7.5h-8.378a2.1,2.1,0,0,1,2.1,2.1v6.857a2.1,2.1,0,0,1-2.1,2.1h8.378a2.1,2.1,0,0,0,2.1-2.1V9.6A2.1,2.1,0,0,0,366.29,7.5Z" transform="translate(-311.172 -7.5)" fill="#9facba"/>
        <path id="Trazado_1298579" data-name="Trazado 1298579" d="M245.6,180.75H210.521a2.1,2.1,0,0,1-2.1-2.1v-6.857a2.1,2.1,0,0,1,2.1-2.1H245.6a2.1,2.1,0,0,1,2.1,2.1v6.857A2.1,2.1,0,0,1,245.6,180.75Z" transform="translate(-182.197 -147.431)" fill="#b6c4cf"/>
        <path id="Trazado_1298580" data-name="Trazado 1298580" d="M426.663,169.691h-8.378a2.1,2.1,0,0,1,2.1,2.1v6.857a2.1,2.1,0,0,1-2.1,2.1h8.378a2.1,2.1,0,0,0,2.1-2.1v-6.857A2.1,2.1,0,0,0,426.663,169.691Z" transform="translate(-363.258 -147.43)" fill="#9facba"/>
        <path id="Trazado_1298581" data-name="Trazado 1298581" d="M275.083,354.753l-9.043-9.043a2.8,2.8,0,0,1,0-3.964l9.043-9.043a2.8,2.8,0,0,1,3.964,0l9.043,9.043a2.8,2.8,0,0,1,0,3.964l-9.043,9.043A2.8,2.8,0,0,1,275.083,354.753Z" transform="translate(-231.201 -287.36)" fill="#fee45a"/>
        <path id="Trazado_1298582" data-name="Trazado 1298582" d="M339.282,341.746l-9.043-9.043a2.8,2.8,0,0,0-3.964,0l-1.66,1.66a2.8,2.8,0,0,1,2.906.661l6.689,6.722a2.8,2.8,0,0,1,0,3.964l-6.7,6.68a2.8,2.8,0,0,1-2.959.643l1.72,1.72a2.8,2.8,0,0,0,3.964,0l9.043-9.043a2.8,2.8,0,0,0,0-3.964Z" transform="translate(-282.393 -287.36)" fill="#fed402"/>
        <path id="Trazado_1298583" data-name="Trazado 1298583" d="M45.321,187.091h-23a.839.839,0,0,1-.839-.839V163.335a.839.839,0,0,1,.839-.839h9.442l-2.251,2.251a2.059,2.059,0,1,0,2.912,2.912l5.766-5.766a2.059,2.059,0,0,0,0-2.912l-5.766-5.766a2.059,2.059,0,0,0-2.981.072,2.1,2.1,0,0,0,.11,2.881l2.21,2.21H22.321a4.957,4.957,0,0,0-4.957,4.957v22.917a4.957,4.957,0,0,0,4.957,4.957h23a.99.99,0,0,0,.99-.99v-2.139A.989.989,0,0,0,45.321,187.091Z" transform="translate(-17.364 -132.695)" fill="#8ac9fe"/>
        <g id="Grupo_1242475" data-name="Grupo 1242475" transform="translate(1.371 19.917)">
          <path id="Trazado_1298584" data-name="Trazado 1298584" d="M103.921,154.361l4.625,4.62a2.059,2.059,0,0,1,0,2.912l-4.393,4.384a2.058,2.058,0,0,1-2.056.513,2.06,2.06,0,0,0,3.43.87l5.766-5.766a2.059,2.059,0,0,0,0-2.912l-5.766-5.766a2.059,2.059,0,0,0-2.981.072,1.979,1.979,0,0,0-.325.486A2.054,2.054,0,0,1,103.921,154.361Z" transform="translate(-91.839 -152.612)" fill="#60b7ff"/>
          <path id="Trazado_1298585" data-name="Trazado 1298585" d="M30.1,248.384V225.467a.839.839,0,0,1,.839-.839H28.194a.839.839,0,0,0-.839.839v22.917a.839.839,0,0,0,.839.839h2.747A.839.839,0,0,1,30.1,248.384Z" transform="translate(-27.355 -214.744)" fill="#60b7ff"/>
          <path id="Trazado_1298586" data-name="Trazado 1298586" d="M203.791,403.826h-2.747a.99.99,0,0,1,.99.99v2.139a.99.99,0,0,1-.99.99h2.747a.99.99,0,0,0,.99-.99v-2.139A.99.99,0,0,0,203.791,403.826Z" transform="translate(-177.205 -369.347)" fill="#60b7ff"/>
        </g>
      </g>
      <g id="Grupo_1242477" data-name="Grupo 1242477" transform="translate(9.864 0)">
        <path id="Trazado_1298587" data-name="Trazado 1298587" d="M239.131,22.261H224.075l1.716-1.716a1.029,1.029,0,0,0-1.456-1.456L222.62,20.8V13.117h8.225a3.134,3.134,0,0,0,3.13-3.13V3.13A3.134,3.134,0,0,0,230.845,0H212.336a3.134,3.134,0,0,0-3.13,3.13V9.987a3.134,3.134,0,0,0,3.13,3.13h8.225V20.8l-1.715-1.715a1.029,1.029,0,0,0-1.456,1.456l1.716,1.716H204.049a3.134,3.134,0,0,0-3.13,3.13v6.857a3.134,3.134,0,0,0,3.13,3.13h16.512v7.688l-1.715-1.715a1.029,1.029,0,0,0-1.456,1.456l2.164,2.164-9.717,9.717a3.837,3.837,0,0,0,0,5.419l9.043,9.043a3.832,3.832,0,0,0,5.419,0l9.043-9.043a3.837,3.837,0,0,0,0-5.419l-9.717-9.717,2.164-2.164a1.029,1.029,0,0,0-1.456-1.456l-1.715,1.715V34.349a1.029,1.029,0,0,0-1.029-1.029H204.049a1.073,1.073,0,0,1-1.072-1.071V25.391a1.073,1.073,0,0,1,1.072-1.071h35.082a1.073,1.073,0,0,1,1.072,1.071v6.857a1.073,1.073,0,0,1-1.072,1.071H226.406a1.029,1.029,0,0,0,0,2.059h12.725a3.134,3.134,0,0,0,3.13-3.13V25.391a3.134,3.134,0,0,0-3.13-3.13ZM222.844,47.1l9.043,9.043a1.775,1.775,0,0,1,0,2.508l-9.043,9.043a1.775,1.775,0,0,1-2.508,0l-9.043-9.043a1.775,1.775,0,0,1,0-2.508l9.043-9.043a1.775,1.775,0,0,1,2.508,0ZM212.336,11.059a1.073,1.073,0,0,1-1.071-1.071V3.13a1.073,1.073,0,0,1,1.071-1.071h18.509a1.073,1.073,0,0,1,1.072,1.071V9.987a1.073,1.073,0,0,1-1.072,1.071H212.336Z" transform="translate(-174.697 0)"/>
        <path id="Trazado_1298588" data-name="Trazado 1298588" d="M314.541,40.286H302.994a1.029,1.029,0,1,0,0,2.059h11.546a1.029,1.029,0,1,0,0-2.059Z" transform="translate(-261.874 -34.757)"/>
        <path id="Trazado_1298589" data-name="Trazado 1298589" d="M273.409,203.506a1.029,1.029,0,0,0-1.029-1.029h-27.5a1.029,1.029,0,0,0,0,2.059h27.5A1.029,1.029,0,0,0,273.409,203.506Z" transform="translate(-211.737 -174.687)"/>
        <path id="Trazado_1298590" data-name="Trazado 1298590" d="M38.85,179.591H16.041V157.055h6.767l-.494.494a3.088,3.088,0,1,0,4.368,4.368l5.766-5.766a3.088,3.088,0,0,0,0-4.368l-5.766-5.766a3.1,3.1,0,0,0-2.257-.9,3.064,3.064,0,0,0-2.213,1.011,3.114,3.114,0,0,0,.143,4.3l.453.453H15.85a5.993,5.993,0,0,0-5.986,5.986v22.917a5.993,5.993,0,0,0,5.986,5.986h9.867a1.029,1.029,0,0,0,0-2.059H15.85a3.932,3.932,0,0,1-3.928-3.928V156.865a3.932,3.932,0,0,1,3.928-3.928h9.442a1.029,1.029,0,0,0,.728-1.757l-2.21-2.21a1.072,1.072,0,0,1-.076-1.46,1.03,1.03,0,0,1,1.491-.037l5.766,5.766a1.03,1.03,0,0,1,0,1.456l-5.766,5.766A1.03,1.03,0,0,1,23.769,159l2.251-2.251A1.029,1.029,0,0,0,25.292,155H15.85a1.87,1.87,0,0,0-1.868,1.868v22.917a1.87,1.87,0,0,0,1.868,1.868H38.81v2.059H30.538a1.029,1.029,0,0,0,0,2.059H38.85a2.021,2.021,0,0,0,2.019-2.019V181.61A2.021,2.021,0,0,0,38.85,179.591Z" transform="translate(-9.864 -125.195)"/>
        <path id="Trazado_1298591" data-name="Trazado 1298591" d="M329.032,375.178a1.029,1.029,0,0,0,1.456,0,1.712,1.712,0,0,1,1.286-.508,1.737,1.737,0,0,1,.712,3.293,3.2,3.2,0,0,0-1.8,2.878,1.029,1.029,0,1,0,2.059,0,1.155,1.155,0,0,1,.656-1.034,3.8,3.8,0,1,0-4.369-6.085A1.029,1.029,0,0,0,329.032,375.178Z" transform="translate(-284.966 -321.469)"/>
        <circle id="Elipse_11560" data-name="Elipse 11560" cx="1.065" cy="1.065" r="1.065" transform="translate(45.712 62.115)"/>
      </g>
    </g>
  </g>
</svg>
