<svg xmlns="http://www.w3.org/2000/svg" xmlns:xlink="http://www.w3.org/1999/xlink" width="106.16" height="106.16" viewBox="0 0 106.16 106.16">
  <defs>
    <filter id="Trazado_982547" x="0" y="0" width="106.16" height="106.16" filterUnits="userSpaceOnUse">
      <feOffset dy="3" input="SourceAlpha"/>
      <feGaussianBlur stdDeviation="3" result="blur"/>
      <feFlood flood-opacity="0.161"/>
      <feComposite operator="in" in2="blur"/>
      <feComposite in="SourceGraphic"/>
    </filter>
  </defs>
  <g id="Grupo_1242381" data-name="Grupo 1242381" transform="translate(-190.42 -1143.423)">
    <g id="Grupo_1242180" data-name="Grupo 1242180" transform="translate(0 -7926.704)">
      <g id="Grupo_1241243" data-name="Grupo 1241243" transform="translate(0 7945.127)">
        <g id="Grupo_1235128" data-name="Grupo 1235128" transform="translate(199.42 1131)">
          <g id="Grupo_1233884" data-name="Grupo 1233884" transform="translate(0 0)">
            <g id="Grupo_1228506" data-name="Grupo 1228506" transform="translate(0 0)">
              <g id="Grupo_1206132" data-name="Grupo 1206132" transform="translate(0 0)">
                <g id="Grupo_1203794" data-name="Grupo 1203794">
                  <g id="Grupo_1203345" data-name="Grupo 1203345">
                    <g id="Grupo_1177900" data-name="Grupo 1177900">
                      <g id="Grupo_1172010" data-name="Grupo 1172010">
                        <g id="Grupo_1171046" data-name="Grupo 1171046">
                          <g id="Grupo_1148525" data-name="Grupo 1148525">
                            <g transform="matrix(1, 0, 0, 1, -9, -6)" filter="url(#Trazado_982547)">
                              <g id="Trazado_982547-2" data-name="Trazado 982547" transform="translate(9 6)" fill="#e9f9fd">
                                <path d="M 44.0802001953125 86.660400390625 C 38.33124923706055 86.660400390625 32.75506210327148 85.53479766845703 27.50652503967285 83.31484985351562 C 22.43628692626953 81.17032623291016 17.88242530822754 78.09992218017578 13.97144985198975 74.18894958496094 C 10.06047534942627 70.27797698974609 6.99007511138916 65.72411346435547 4.845550060272217 60.65387344360352 C 2.625600099563599 55.40533828735352 1.500000238418579 49.82915115356445 1.500000238418579 44.0802001953125 C 1.500000238418579 38.33124923706055 2.625600099563599 32.75506210327148 4.845550060272217 27.50652503967285 C 6.99007511138916 22.43628692626953 10.06047534942627 17.88242530822754 13.97144985198975 13.97144985198975 C 17.88242530822754 10.06047534942627 22.43628692626953 6.99007511138916 27.50652503967285 4.845550060272217 C 32.75506210327148 2.625600099563599 38.33124923706055 1.500000238418579 44.0802001953125 1.500000238418579 C 49.82915115356445 1.500000238418579 55.40533828735352 2.625600099563599 60.65387344360352 4.845550060272217 C 65.72411346435547 6.99007511138916 70.27797698974609 10.06047534942627 74.18894958496094 13.97144985198975 C 78.09992218017578 17.88242530822754 81.17032623291016 22.43628692626953 83.31484985351562 27.50652503967285 C 85.53479766845703 32.75506210327148 86.660400390625 38.33124923706055 86.660400390625 44.0802001953125 C 86.660400390625 49.82915115356445 85.53479766845703 55.40533828735352 83.31484985351562 60.65387344360352 C 81.17032623291016 65.72411346435547 78.09992218017578 70.27797698974609 74.18894958496094 74.18894958496094 C 70.27797698974609 78.09992218017578 65.72411346435547 81.17032623291016 60.65387344360352 83.31484985351562 C 55.40533828735352 85.53479766845703 49.82915115356445 86.660400390625 44.0802001953125 86.660400390625 Z" stroke="none"/>
                                <path d="M 44.0802001953125 3 C 38.53308486938477 3 33.15349960327148 4.085746765136719 28.09085845947266 6.227058410644531 C 23.19941711425781 8.29595947265625 18.80581665039062 11.25841522216797 15.03211212158203 15.03211212158203 C 11.25841522216797 18.80581665039062 8.29595947265625 23.19941711425781 6.227058410644531 28.09085845947266 C 4.085746765136719 33.15349960327148 3 38.53308486938477 3 44.0802001953125 C 3 49.62731552124023 4.085746765136719 55.00691604614258 6.227058410644531 60.06954193115234 C 8.29595947265625 64.96098327636719 11.25841522216797 69.35458374023438 15.03211212158203 73.12828826904297 C 18.80581665039062 76.90198516845703 23.19941711425781 79.86444091796875 28.09085845947266 81.93334197998047 C 33.15349960327148 84.07466125488281 38.53308486938477 85.160400390625 44.0802001953125 85.160400390625 C 49.62731552124023 85.160400390625 55.00691604614258 84.07466125488281 60.06954193115234 81.93334197998047 C 64.96099853515625 79.86444091796875 69.35458374023438 76.90198516845703 73.12828826904297 73.12828826904297 C 76.90198516845703 69.35458374023438 79.86444091796875 64.96099853515625 81.93334197998047 60.06954193115234 C 84.07466125488281 55.00691604614258 85.160400390625 49.62731552124023 85.160400390625 44.0802001953125 C 85.160400390625 38.53308486938477 84.07466125488281 33.15349960327148 81.93334197998047 28.09085845947266 C 79.86444091796875 23.19941711425781 76.90198516845703 18.80581665039062 73.12828826904297 15.03211212158203 C 69.35458374023438 11.25841522216797 64.96098327636719 8.29595947265625 60.06954193115234 6.227058410644531 C 55.00691604614258 4.085746765136719 49.62731552124023 3 44.0802001953125 3 M 44.0802001953125 0 C 68.42502593994141 0 88.160400390625 19.73538970947266 88.160400390625 44.0802001953125 C 88.160400390625 68.42502593994141 68.42502593994141 88.160400390625 44.0802001953125 88.160400390625 C 19.73538970947266 88.160400390625 0 68.42502593994141 0 44.0802001953125 C 0 19.73538970947266 19.73538970947266 0 44.0802001953125 0 Z" stroke="none" fill="#1d7083"/>
                              </g>
                            </g>
                          </g>
                        </g>
                      </g>
                    </g>
                  </g>
                </g>
              </g>
            </g>
          </g>
        </g>
      </g>
    </g>
    <g id="estadisticas_1_" data-name="estadisticas (1)" transform="translate(213.822 1169.827)">
      <g id="Grupo_1242379" data-name="Grupo 1242379" transform="translate(3.208 0.806)">
        <g id="Grupo_1242375" data-name="Grupo 1242375" transform="translate(0)">
          <g id="Grupo_1242374" data-name="Grupo 1242374">
            <path id="Trazado_1298089" data-name="Trazado 1298089" d="M72.24,74.894a277.906,277.906,0,0,1-47.4,0,130.5,130.5,0,0,1-.628-31.656q.263-2.578.628-5.155a277.9,277.9,0,0,1,47.4,0q.365,2.577.628,5.153a130.516,130.516,0,0,1-.628,31.658Z" transform="translate(-22.07 -33.889)" fill="#ececec"/>
            <path id="Trazado_1298090" data-name="Trazado 1298090" d="M78.473,43.236a3.16,3.16,0,0,1-.994.176q-23.336.329-46.67,0a3.186,3.186,0,0,1-.992-.174q.263-2.578.628-5.155a277.9,277.9,0,0,1,47.4,0Q78.209,40.66,78.473,43.236Z" transform="translate(-27.675 -33.889)" fill="#dadada"/>
            <path id="Trazado_1298091" data-name="Trazado 1298091" d="M59.7,14.642q-23.335.33-46.67,0A3.094,3.094,0,0,1,10.109,12.5a4.451,4.451,0,0,1-.036-2.576,3.122,3.122,0,0,1,2.964-2.265q23.335-.33,46.67,0A3.094,3.094,0,0,1,62.632,9.8a4.451,4.451,0,0,1,.036,2.576A3.122,3.122,0,0,1,59.7,14.642Z" transform="translate(-9.901 -7.493)" fill="#986b54"/>
            <path id="Trazado_1298092" data-name="Trazado 1298092" d="M62.509,13.937a3.126,3.126,0,0,1-2.8,1.83q-23.335.329-46.669,0a3.1,3.1,0,0,1-2.926-2.145,4.45,4.45,0,0,1-.035-2.575,3.122,3.122,0,0,1,2.963-2.265q1.091-.016,2.181-.029a3.137,3.137,0,0,0-.159.436,4.445,4.445,0,0,0,.037,2.576,3.092,3.092,0,0,0,2.925,2.144Q40.265,14.223,62.509,13.937Z" transform="translate(-9.901 -8.617)" fill="#845c47"/>
            <path id="Trazado_1298093" data-name="Trazado 1298093" d="M220.273,433.044a4.306,4.306,0,1,1,4.306-4.306A4.311,4.311,0,0,1,220.273,433.044Zm0-5.922a1.617,1.617,0,1,0,1.617,1.617A1.618,1.618,0,0,0,220.273,427.122Z" transform="translate(-193.803 -379.587)" fill="#ffd064"/>
            <g id="Grupo_1242373" data-name="Grupo 1242373" transform="translate(22.164 44.846)">
              <path id="Trazado_1298094" data-name="Trazado 1298094" d="M262.462,452.507a1.617,1.617,0,1,0,0-2.914,1.613,1.613,0,0,1,0,2.914Z" transform="translate(-257.461 -446.744)" fill="#ffc250"/>
              <path id="Trazado_1298095" data-name="Trazado 1298095" d="M217.357,428.738a4.312,4.312,0,0,1,3.61-4.249,4.306,4.306,0,1,0,0,8.5A4.312,4.312,0,0,1,217.357,428.738Z" transform="translate(-215.966 -424.432)" fill="#ffc250"/>
            </g>
          </g>
        </g>
        <g id="Grupo_1242376" data-name="Grupo 1242376" transform="translate(4.548 10.558)">
          <path id="Trazado_1298096" data-name="Trazado 1298096" d="M116.08,221.283c1.066.428,4.066,3.646,3.761,4.7a11.882,11.882,0,0,1-20.9,3.844,46.131,46.131,0,0,0,0-5.5l9.482-1.656S110.23,218.937,116.08,221.283Z" transform="translate(-93.916 -208.155)" fill="#ffd064"/>
          <path id="Trazado_1298097" data-name="Trazado 1298097" d="M199,142.023a11.884,11.884,0,0,1-.468,3.311l-11.411-3.311v-11.88A11.879,11.879,0,0,1,199,142.023Z" transform="translate(-172.604 -127.509)" fill="#80b4fb"/>
          <path id="Trazado_1298098" data-name="Trazado 1298098" d="M88.566,240.583l-9.484,7.155a11.828,11.828,0,0,1-2.4-7.155Z" transform="translate(-74.052 -226.07)" fill="#95d6a4"/>
          <path id="Trazado_1298099" data-name="Trazado 1298099" d="M64.065,105.653v11.88H52.186A11.879,11.879,0,0,1,64.065,105.653Z" transform="translate(-52.186 -105.653)" fill="#db5b6f"/>
        </g>
        <g id="Grupo_1242378" data-name="Grupo 1242378" transform="translate(34.755 13.899)">
          <g id="Grupo_1242377" data-name="Grupo 1242377">
            <path id="Trazado_1298100" data-name="Trazado 1298100" d="M340.338,139.988h-6.587a.732.732,0,0,1-.732-.732v-1.811a.732.732,0,0,1,.732-.732h6.587a.732.732,0,0,1,.732.732v1.811A.732.732,0,0,1,340.338,139.988Z" transform="translate(-333.019 -136.713)" fill="#db5b6f"/>
            <path id="Trazado_1298101" data-name="Trazado 1298101" d="M334.766,248.317h-1.015a.732.732,0,0,1-.732-.732v-1.811a.732.732,0,0,1,.732-.732h1.015a.732.732,0,0,1,.732.732v1.811A.732.732,0,0,1,334.766,248.317Z" transform="translate(-333.019 -233.39)" fill="#95d6a4"/>
            <path id="Trazado_1298102" data-name="Trazado 1298102" d="M343.133,194.153h-9.381a.732.732,0,0,1-.732-.732V191.61a.732.732,0,0,1,.732-.732h9.381a.732.732,0,0,1,.732.732v1.811A.732.732,0,0,1,343.133,194.153Z" transform="translate(-333.02 -185.052)" fill="#80b4fb"/>
            <path id="Trazado_1298103" data-name="Trazado 1298103" d="M344.544,302.481H333.751a.732.732,0,0,1-.732-.732v-1.811a.732.732,0,0,1,.732-.732h10.793a.732.732,0,0,1,.732.732v1.811A.732.732,0,0,1,344.544,302.481Z" transform="translate(-333.019 -281.728)" fill="#ffd064"/>
          </g>
        </g>
      </g>
      <g id="Grupo_1242380" data-name="Grupo 1242380" transform="translate(2.401 0)">
        <path id="Trazado_1298104" data-name="Trazado 1298104" d="M56.71,2.876A3.886,3.886,0,0,0,53.026.164c-15.491-.219-31.2-.219-46.693,0A3.949,3.949,0,0,0,2.6,3.017,5.264,5.264,0,0,0,2.646,6.05,3.837,3.837,0,0,0,4.729,8.4a131.907,131.907,0,0,0,.45,33.521.807.807,0,0,0,.73.691c7.619.651,15.29.986,22.962,1.008v1.286a5.112,5.112,0,1,0,1.613,0V43.623c7.672-.022,15.343-.358,22.962-1.008a.807.807,0,0,0,.73-.691,131.936,131.936,0,0,0,.449-33.532,3.934,3.934,0,0,0,2.126-2.483,5.266,5.266,0,0,0-.042-3.033ZM33.177,49.958a3.5,3.5,0,1,1-3.5-3.5A3.5,3.5,0,0,1,33.177,49.958ZM55.2,5.471A2.326,2.326,0,0,1,53,7.149l-2.2.029a.807.807,0,0,0,.009,1.613h.01q1.1-.013,2.2-.029h.02a130.32,130.32,0,0,1-.376,32.3,278.454,278.454,0,0,1-45.98,0,130.309,130.309,0,0,1-.376-32.3h.019c7.757.109,15.574.164,23.385.164,5.976,0,11.95-.032,17.885-.1a.807.807,0,1,0-.017-1.613c-13.68.148-27.552.125-41.23-.068A2.277,2.277,0,0,1,4.187,5.572a3.627,3.627,0,0,1-.03-2.118,2.326,2.326,0,0,1,2.2-1.678c15.477-.218,31.172-.218,46.647,0a2.277,2.277,0,0,1,2.167,1.577A3.629,3.629,0,0,1,55.2,5.471Z" transform="translate(-2.401 0)"/>
        <path id="Trazado_1298105" data-name="Trazado 1298105" d="M233.466,444.356a2.423,2.423,0,1,0,2.423-2.423A2.426,2.426,0,0,0,233.466,444.356Zm3.233,0a.81.81,0,1,1-.81-.81A.811.811,0,0,1,236.7,444.356Z" transform="translate(-208.613 -394.399)"/>
        <path id="Trazado_1298106" data-name="Trazado 1298106" d="M81.863,122.643a.807.807,0,0,0-.807.807v11.073H69.984a.807.807,0,0,0-.807.807,12.716,12.716,0,0,0,5.341,10.344.807.807,0,0,0,.467.149h0a.807.807,0,0,0,.453-1.474,11.062,11.062,0,0,1-1.9-1.727l8.491-6.406,10.217,2.964a11.084,11.084,0,0,1-14.132,6.569.807.807,0,1,0-.547,1.518,12.688,12.688,0,1,0,4.3-24.626ZM70.82,136.136h8.634l-6.89,5.2A11.092,11.092,0,0,1,70.82,136.136Zm21.873,1.5-10.024-2.908V124.285a11.077,11.077,0,0,1,10.024,13.347Z" transform="translate(-61.995 -109.452)"/>
        <path id="Trazado_1298107" data-name="Trazado 1298107" d="M58.178,110.84V98.96a.807.807,0,0,0-.807-.807A12.7,12.7,0,0,0,44.686,110.84a.807.807,0,0,0,.807.807H57.372A.807.807,0,0,0,58.178,110.84Zm-1.613-.807H46.329A11.091,11.091,0,0,1,56.565,99.8Z" transform="translate(-40.138 -87.596)"/>
        <path id="Trazado_1298108" data-name="Trazado 1298108" d="M327.059,134.1h6.587a1.54,1.54,0,0,0,1.539-1.539v-1.811a1.54,1.54,0,0,0-1.539-1.539h-6.587a1.54,1.54,0,0,0-1.539,1.539v1.811A1.54,1.54,0,0,0,327.059,134.1Zm.075-3.275h6.438v1.662h-6.438Z" transform="translate(-290.765 -115.315)"/>
        <path id="Trazado_1298109" data-name="Trazado 1298109" d="M327.059,242.431h1.015a1.54,1.54,0,0,0,1.539-1.539v-1.811a1.54,1.54,0,0,0-1.539-1.539h-1.015a1.54,1.54,0,0,0-1.539,1.539v1.811A1.54,1.54,0,0,0,327.059,242.431Zm.075-3.275H328v1.662h-.866Z" transform="translate(-290.765 -211.992)"/>
        <path id="Trazado_1298110" data-name="Trazado 1298110" d="M327.059,188.267h9.381a1.54,1.54,0,0,0,1.539-1.539v-1.811a1.54,1.54,0,0,0-1.539-1.539h-9.381a1.54,1.54,0,0,0-1.539,1.539v1.811A1.54,1.54,0,0,0,327.059,188.267Zm.075-3.275h9.231v1.662h-9.231Z" transform="translate(-290.765 -163.654)"/>
        <path id="Trazado_1298111" data-name="Trazado 1298111" d="M327.059,291.707a1.54,1.54,0,0,0-1.539,1.539v1.811a1.54,1.54,0,0,0,1.539,1.539h10.793a1.54,1.54,0,0,0,1.539-1.539v-1.811a1.54,1.54,0,0,0-1.539-1.539Zm10.718,3.275H327.133V293.32h10.644Z" transform="translate(-290.765 -260.331)"/>
      </g>
    </g>
  </g>
</svg>
