<svg xmlns="http://www.w3.org/2000/svg" xmlns:xlink="http://www.w3.org/1999/xlink" width="113" height="113" viewBox="0 0 113 113">
  <defs>
    <filter id="Trazado_982547" x="0" y="0" width="113" height="113" filterUnits="userSpaceOnUse">
      <feOffset dy="3" input="SourceAlpha"/>
      <feGaussianBlur stdDeviation="3" result="blur"/>
      <feFlood flood-opacity="0.161"/>
      <feComposite operator="in" in2="blur"/>
      <feComposite in="SourceGraphic"/>
    </filter>
  </defs>
  <g id="Grupo_1242484" data-name="Grupo 1242484" transform="translate(-1216 -6513.863)">
    <g id="Grupo_1242221" data-name="Grupo 1242221" transform="translate(840 2549.473)">
      <g id="Grupo_1235695" data-name="Grupo 1235695" transform="translate(385 3970.39)">
        <g id="Grupo_1241232" data-name="Grupo 1241232">
          <g id="Grupo_1240425" data-name="Grupo 1240425" transform="translate(0 0)">
            <g id="Grupo_1239772" data-name="Grupo 1239772">
              <g id="Grupo_1236602" data-name="Grupo 1236602">
                <g id="Grupo_1236144" data-name="Grupo 1236144">
                  <g id="Grupo_1235105" data-name="Grupo 1235105">
                    <g id="Grupo_1223793" data-name="Grupo 1223793">
                      <g id="Grupo_1208028" data-name="Grupo 1208028">
                        <g id="Grupo_1177675" data-name="Grupo 1177675">
                          <g id="Grupo_1176928" data-name="Grupo 1176928">
                            <g id="Grupo_1172322" data-name="Grupo 1172322">
                              <g id="Grupo_1164700" data-name="Grupo 1164700">
                                <g id="Grupo_1160931" data-name="Grupo 1160931">
                                  <g id="Grupo_1160749" data-name="Grupo 1160749">
                                    <g id="Grupo_1158891" data-name="Grupo 1158891">
                                      <g id="Grupo_1157406" data-name="Grupo 1157406">
                                        <g id="Grupo_1155793" data-name="Grupo 1155793">
                                          <g id="Grupo_1154704" data-name="Grupo 1154704">
                                            <g id="Grupo_1150790" data-name="Grupo 1150790">
                                              <g id="Grupo_1154214" data-name="Grupo 1154214">
                                                <g id="Grupo_1152583" data-name="Grupo 1152583">
                                                  <g id="Grupo_1146973" data-name="Grupo 1146973">
                                                    <g id="Grupo_1146954" data-name="Grupo 1146954">
                                                      <g transform="matrix(1, 0, 0, 1, -9, -6)" filter="url(#Trazado_982547)">
                                                        <g id="Trazado_982547-2" data-name="Trazado 982547" transform="translate(9 6)" fill="#ffe1b9">
                                                          <path d="M 47.50000762939453 93.49986267089844 C 41.28937911987305 93.49986267089844 35.26534271240234 92.28383636474609 29.59519386291504 89.88558197021484 C 24.11772727966309 87.56880950927734 19.19814109802246 84.25183868408203 14.97310066223145 80.02679443359375 C 10.74804782867432 75.8017578125 7.431074142456055 70.88218688964844 5.114300727844238 65.40471649169922 C 2.716034412384033 59.73458480834961 1.500007629394531 53.71054458618164 1.500007629394531 47.49993133544922 C 1.500007629394531 41.2893180847168 2.716034412384033 35.26527786254883 5.114300727844238 29.59514427185059 C 7.431074142456055 24.11767768859863 10.74804782867432 19.19810485839844 14.97310066223145 14.97306442260742 C 19.19814109802246 10.74802494049072 24.11772727966309 7.431051254272461 29.59519386291504 5.114277839660645 C 35.26534271240234 2.71602463722229 41.28937911987305 1.499997973442078 47.50000762939453 1.499997973442078 C 53.71063613891602 1.499997973442078 59.73467254638672 2.71602463722229 65.40482330322266 5.114277839660645 C 70.88228607177734 7.431051254272461 75.80187225341797 10.74802494049072 80.02691650390625 14.97306442260742 C 84.25196838378906 19.19810485839844 87.56893920898438 24.11767768859863 89.88571166992188 29.59514427185059 C 92.28398132324219 35.26527786254883 93.50000762939453 41.2893180847168 93.50000762939453 47.49993133544922 C 93.50000762939453 53.71054458618164 92.28398132324219 59.73458480834961 89.88571166992188 65.40471649169922 C 87.56893920898438 70.88218688964844 84.25196838378906 75.8017578125 80.02691650390625 80.02679443359375 C 75.80187225341797 84.25183868408203 70.88228607177734 87.56880950927734 65.40482330322266 89.88558197021484 C 59.73467254638672 92.28383636474609 53.71063613891602 93.49986267089844 47.50000762939453 93.49986267089844 Z" stroke="none"/>
                                                          <path d="M 47.50000762939453 2.999992370605469 C 41.4912223815918 2.999992370605469 35.66377639770508 4.1761474609375 30.17951202392578 6.495796203613281 C 24.88085174560547 8.736930847167969 20.12152862548828 11.94596099853516 16.03376007080078 16.03372955322266 C 11.94597625732422 20.12148284912109 8.736961364746094 24.88080596923828 6.495803833007812 30.17946624755859 C 4.176162719726562 35.66371536254883 3.000007629394531 41.49116134643555 3.000007629394531 47.49993133544922 C 3.000007629394531 53.50870132446289 4.176162719726562 59.33614730834961 6.495803833007812 64.82038879394531 C 8.736961364746094 70.11905670166016 11.94597625732422 74.87836456298828 16.03376007080078 78.96613311767578 C 20.12152862548828 83.05390167236328 24.88085174560547 86.26291656494141 30.17951202392578 88.50406646728516 C 35.66377639770508 90.82369995117188 41.4912223815918 91.99985504150391 47.50000762939453 91.99985504150391 C 53.50879287719727 91.99985504150391 59.33623886108398 90.82369995117188 64.82049560546875 88.50406646728516 C 70.11916351318359 86.26291656494141 74.87848663330078 83.05390167236328 78.96625518798828 78.96613311767578 C 83.05403900146484 74.87836456298828 86.26305389404297 70.11905670166016 88.50421142578125 64.82038879394531 C 90.8238525390625 59.33614730834961 92.00000762939453 53.50870132446289 92.00000762939453 47.49993133544922 C 92.00000762939453 41.49116134643555 90.8238525390625 35.66371536254883 88.50421142578125 30.17946624755859 C 86.26305389404297 24.88080596923828 83.05403900146484 20.12148284912109 78.96625518798828 16.03372955322266 C 74.87848663330078 11.94596099853516 70.11916351318359 8.736930847167969 64.82049560546875 6.495796203613281 C 59.33623886108398 4.1761474609375 53.50879287719727 2.999992370605469 47.50000762939453 2.999992370605469 M 47.50000762939453 -7.62939453125e-06 C 73.73352813720703 -7.62939453125e-06 95.00000762939453 21.26644134521484 95.00000762939453 47.49993133544922 C 95.00000762939453 73.73342132568359 73.73352813720703 94.99985504150391 47.50000762939453 94.99985504150391 C 21.26648712158203 94.99985504150391 7.62939453125e-06 73.73342132568359 7.62939453125e-06 47.49993133544922 C 7.62939453125e-06 21.26644134521484 21.26648712158203 -7.62939453125e-06 47.50000762939453 -7.62939453125e-06 Z" stroke="none" fill="#ff9d1c"/>
                                                        </g>
                                                      </g>
                                                    </g>
                                                  </g>
                                                </g>
                                              </g>
                                            </g>
                                          </g>
                                        </g>
                                      </g>
                                    </g>
                                  </g>
                                </g>
                              </g>
                            </g>
                          </g>
                        </g>
                      </g>
                    </g>
                  </g>
                </g>
              </g>
            </g>
          </g>
        </g>
      </g>
    </g>
    <g id="diagrama-de-flujo_4_" data-name="diagrama-de-flujo (4)" transform="translate(1239.083 6533.898)">
      <g id="Grupo_1242481" data-name="Grupo 1242481" transform="translate(0.979 1.033)">
        <path id="Trazado_1298592" data-name="Trazado 1298592" d="M31.823,178.964l-8.311-1.284v-1.7a.261.261,0,0,1,.261-.261l1.993-.794a.261.261,0,0,0,.2-.428l-5.6-6.776a.914.914,0,0,0-1.405,0L13.694,174.5a.261.261,0,0,0,.2.428l1.993.794a.261.261,0,0,1,.261.261v1.7L7.5,178.964a32.431,32.431,0,0,0,32.431,32.431V187.072a8.108,8.108,0,0,1-8.108-8.108Z" transform="translate(-7.5 -146.533)" fill="#ffbd63"/>
        <path id="Trazado_1298593" data-name="Trazado 1298593" d="M200.021,256.053a8.108,8.108,0,0,1-8.108,8.108v9.9h-3.777a.261.261,0,0,1-.261-.261v-1.993a.261.261,0,0,0-.428-.2l-4.824,4.009a.914.914,0,0,0,0,1.405l4.824,4.009a.261.261,0,0,0,.428-.2v-1.993a.261.261,0,0,1,.261-.261h3.777v9.9c16.215,0,30.973-16.216,28.516-32.431H200.021Z" transform="translate(-159.482 -223.622)" fill="#fee97d"/>
        <g id="Grupo_1242479" data-name="Grupo 1242479" transform="translate(32.431 32.431)">
          <path id="Trazado_1298594" data-name="Trazado 1298594" d="M284.514,256.053A32.436,32.436,0,0,1,256,288.25v.234a32.431,32.431,0,0,0,32.431-32.431Z" transform="translate(-255.998 -256.053)" fill="#fbc502"/>
        </g>
        <path id="Trazado_1298595" data-name="Trazado 1298595" d="M280.778,44.023h-1.993a.261.261,0,0,1-.261-.261V39.986h5.989a1.343,1.343,0,0,0,1.345-1.4C285.041,21.324,269.269,7.555,256,7.555V31.878a8.108,8.108,0,0,1,8.108,8.108h9.9v3.777a.261.261,0,0,1-.261.261h-1.993a.261.261,0,0,0-.2.428l4.009,4.824a.914.914,0,0,0,1.405,0l4.009-4.824A.261.261,0,0,0,280.778,44.023Z" transform="translate(-223.567 -7.555)" fill="#e9aadd"/>
        <g id="Grupo_1242480" data-name="Grupo 1242480" transform="translate(32.431 0)">
          <path id="Trazado_1298596" data-name="Trazado 1298596" d="M256,7.555v.234a32.436,32.436,0,0,1,28.516,32.2h3.915A32.431,32.431,0,0,0,256,7.555Z" transform="translate(-255.998 -7.555)" fill="#e889da"/>
        </g>
        <path id="Trazado_1298597" data-name="Trazado 1298597" d="M49.22,19.013,44.4,15a.261.261,0,0,0-.428.2V17.2a.261.261,0,0,1-.261.261H39.931v-9.9A32.431,32.431,0,0,0,7.5,39.985h9.9V36.208a.261.261,0,0,0-.261-.261H15.151a.261.261,0,0,1-.2-.428L18.959,30.7a.914.914,0,0,1,1.405,0l4.009,4.824a.261.261,0,0,1-.2.428H22.18a.261.261,0,0,0-.261.261v3.776h9.9a8.108,8.108,0,0,1,8.108-8.108v-9.9h3.777a.261.261,0,0,1,.261.261v1.993a.261.261,0,0,0,.428.2l4.824-4.009A.914.914,0,0,0,49.22,19.013Z" transform="translate(-7.5 -7.554)" fill="#ff7e8e"/>
        <path id="Trazado_1298598" data-name="Trazado 1298598" d="M230.049,232.131c0,2.243-2.429,3.88-3.01,3.559a4.063,4.063,0,0,1,0-7.119C227.62,228.251,230.049,229.888,230.049,232.131Z" transform="translate(-196.558 -199.692)" fill="#7ee4fa"/>
        <path id="Trazado_1298599" data-name="Trazado 1298599" d="M243.015,224.991a4.043,4.043,0,0,0-1.958.5,4.063,4.063,0,0,1,0,7.119,4.062,4.062,0,1,0,1.958-7.621Z" transform="translate(-210.576 -196.614)" fill="#45cae5"/>
      </g>
      <g id="Grupo_1242483" data-name="Grupo 1242483" transform="translate(0 0.054)">
        <g id="Grupo_1242482" data-name="Grupo 1242482" transform="translate(0 0)">
          <path id="Trazado_1298600" data-name="Trazado 1298600" d="M33.433.054H33.41A33.4,33.4,0,0,0,1.6,23.21a.979.979,0,1,0,1.863.6A31.449,31.449,0,0,1,32.431,2.026v8.911a.979.979,0,0,0,.979.979h3.777a1.241,1.241,0,0,0,1.24-1.24v-.463l3.587,2.981-3.587,2.981v-.463a1.241,1.241,0,0,0-1.24-1.24H33.41a.979.979,0,0,0-.979.979V24.43a9.1,9.1,0,0,0-8.055,8.056h-8v-2.08h1.275a1.24,1.24,0,0,0,.953-2.032L14.6,23.549a1.892,1.892,0,0,0-2.911,0L7.676,28.373a1.24,1.24,0,0,0,.953,2.032H9.9v2.08H1.973a31.689,31.689,0,0,1,.467-4.539.979.979,0,1,0-1.927-.341A33.7,33.7,0,0,0,0,33.464H0a33.415,33.415,0,0,0,64.906,11.17.979.979,0,1,0-1.845-.654A31.452,31.452,0,0,1,34.388,64.9V55.991a.979.979,0,0,0-.979-.979H29.633a1.241,1.241,0,0,0-1.24,1.24v.463l-3.587-2.981,3.587-2.981v.463a1.241,1.241,0,0,0,1.24,1.24H33.41a.979.979,0,0,0,.979-.979V42.5a9.1,9.1,0,0,0,8.055-8.055h8v2.08H49.168a1.24,1.24,0,0,0-.953,2.032l4.009,4.824a1.892,1.892,0,0,0,2.911,0l4.009-4.824a1.24,1.24,0,0,0-.953-2.032H56.915v-2.08h7.932a31.634,31.634,0,0,1-.624,5.361.979.979,0,1,0,1.918.393A33.414,33.414,0,0,0,33.433.054ZM30.351,50.5V49.222a1.24,1.24,0,0,0-2.032-.953l-4.824,4.009a1.892,1.892,0,0,0,0,2.911L28.319,59.2a1.24,1.24,0,0,0,2.032-.953V56.969h2.08V64.9A31.438,31.438,0,0,1,1.972,34.443h8.911a.979.979,0,0,0,.979-.979V29.687a1.241,1.241,0,0,0-1.24-1.24h-.463L13.14,24.86l2.981,3.587h-.463a1.241,1.241,0,0,0-1.24,1.24v3.777a.979.979,0,0,0,.979.979h8.978A9.1,9.1,0,0,0,32.431,42.5v8Zm3.059-9.9a7.137,7.137,0,0,1-7.129-7.129h0a7.129,7.129,0,1,1,7.129,7.129Zm22.526-8.108a.979.979,0,0,0-.979.979V37.24a1.241,1.241,0,0,0,1.24,1.24h.463l-2.981,3.587L50.7,38.48h.463a1.241,1.241,0,0,0,1.24-1.24V33.464a.979.979,0,0,0-.979-.979H42.444a9.1,9.1,0,0,0-8.055-8.055v-8h2.08v1.275a1.24,1.24,0,0,0,2.032.953l4.824-4.009a1.892,1.892,0,0,0,0-2.911L38.5,7.729a1.24,1.24,0,0,0-2.032.954V9.958h-2.08V2.027A31.437,31.437,0,0,1,64.847,32.485Z" transform="translate(0 -0.054)"/>
          <path id="Trazado_1298601" data-name="Trazado 1298601" d="M86.742,310.678H78.634a.979.979,0,1,0,0,1.958h8.108a.979.979,0,0,0,0-1.958Z" transform="translate(-67.52 -270.139)"/>
          <path id="Trazado_1298602" data-name="Trazado 1298602" d="M86.742,341.74H78.634a.979.979,0,1,0,0,1.958h8.108a.979.979,0,1,0,0-1.958Z" transform="translate(-67.52 -297.147)"/>
          <path id="Trazado_1298603" data-name="Trazado 1298603" d="M98.22,372.8H94.166a.979.979,0,1,0,0,1.958H98.22a.979.979,0,1,0,0-1.958Z" transform="translate(-81.025 -324.156)"/>
          <path id="Trazado_1298604" data-name="Trazado 1298604" d="M125.228,95.2h8.108a.979.979,0,0,0,0-1.958h-8.108a.979.979,0,1,0,0,1.958Z" transform="translate(-108.034 -81.08)"/>
          <path id="Trazado_1298605" data-name="Trazado 1298605" d="M125.228,126.262h8.108a.979.979,0,0,0,0-1.958h-8.108a.979.979,0,1,0,0,1.958Z" transform="translate(-108.034 -108.088)"/>
          <path id="Trazado_1298606" data-name="Trazado 1298606" d="M140.759,155.367a.979.979,0,1,0,0,1.958h4.054a.979.979,0,1,0,0-1.958Z" transform="translate(-121.538 -135.098)"/>
          <path id="Trazado_1298607" data-name="Trazado 1298607" d="M350.772,124.3h-8.108a.979.979,0,1,0,0,1.958h8.108a.979.979,0,1,0,0-1.958Z" transform="translate(-297.093 -108.088)"/>
          <path id="Trazado_1298608" data-name="Trazado 1298608" d="M350.772,155.367h-8.108a.979.979,0,1,0,0,1.958h8.108a.979.979,0,1,0,0-1.958Z" transform="translate(-297.093 -135.098)"/>
          <path id="Trazado_1298609" data-name="Trazado 1298609" d="M362.249,186.429h-4.054a.979.979,0,0,0,0,1.958h4.054a.979.979,0,0,0,0-1.958Z" transform="translate(-310.597 -162.106)"/>
          <path id="Trazado_1298610" data-name="Trazado 1298610" d="M319.709,341.74H311.6a.979.979,0,1,0,0,1.958h8.108a.979.979,0,1,0,0-1.958Z" transform="translate(-270.084 -297.147)"/>
          <path id="Trazado_1298611" data-name="Trazado 1298611" d="M320.688,373.782a.979.979,0,0,0-.979-.979H311.6a.979.979,0,1,0,0,1.958h8.108A.979.979,0,0,0,320.688,373.782Z" transform="translate(-270.084 -324.156)"/>
          <path id="Trazado_1298612" data-name="Trazado 1298612" d="M327.132,403.865a.979.979,0,0,0,0,1.958h4.054a.979.979,0,0,0,0-1.958Z" transform="translate(-283.588 -351.165)"/>
          <path id="Trazado_1298613" data-name="Trazado 1298613" d="M226.239,220.694a.979.979,0,0,0-.75,1.164,3.083,3.083,0,1,1-2.247-2.331.979.979,0,0,0,.485-1.9,5.041,5.041,0,1,0,3.674,3.814A.978.978,0,0,0,226.239,220.694Z" transform="translate(-189.059 -189.096)"/>
        </g>
      </g>
    </g>
  </g>
</svg>
