<svg xmlns="http://www.w3.org/2000/svg" xmlns:xlink="http://www.w3.org/1999/xlink" width="106.16" height="106.16" viewBox="0 0 106.16 106.16">
  <defs>
    <filter id="Trazado_982547" x="0" y="0" width="106.16" height="106.16" filterUnits="userSpaceOnUse">
      <feOffset dy="3" input="SourceAlpha"/>
      <feGaussianBlur stdDeviation="3" result="blur"/>
      <feFlood flood-opacity="0.161"/>
      <feComposite operator="in" in2="blur"/>
      <feComposite in="SourceGraphic"/>
    </filter>
  </defs>
  <g id="Grupo_1242382" data-name="Grupo 1242382" transform="translate(-610.42 -1143.423)">
    <g id="Grupo_1242181" data-name="Grupo 1242181" transform="translate(0 -7926.704)">
      <g id="Grupo_1241244" data-name="Grupo 1241244" transform="translate(420 7945.127)">
        <g id="Grupo_1235128" data-name="Grupo 1235128" transform="translate(199.42 1131)">
          <g id="Grupo_1233884" data-name="Grupo 1233884" transform="translate(0 0)">
            <g id="Grupo_1228506" data-name="Grupo 1228506" transform="translate(0 0)">
              <g id="Grupo_1206132" data-name="Grupo 1206132" transform="translate(0 0)">
                <g id="Grupo_1203794" data-name="Grupo 1203794">
                  <g id="Grupo_1203345" data-name="Grupo 1203345">
                    <g id="Grupo_1177900" data-name="Grupo 1177900">
                      <g id="Grupo_1172010" data-name="Grupo 1172010">
                        <g id="Grupo_1171046" data-name="Grupo 1171046">
                          <g id="Grupo_1148525" data-name="Grupo 1148525">
                            <g transform="matrix(1, 0, 0, 1, -9, -6)" filter="url(#Trazado_982547)">
                              <g id="Trazado_982547-2" data-name="Trazado 982547" transform="translate(9 6)" fill="#e9f9fd">
                                <path d="M 44.0802001953125 86.660400390625 C 38.33124923706055 86.660400390625 32.75506210327148 85.53479766845703 27.50652503967285 83.31484985351562 C 22.43628692626953 81.17032623291016 17.88242530822754 78.09992218017578 13.97144985198975 74.18894958496094 C 10.06047534942627 70.27797698974609 6.99007511138916 65.72411346435547 4.845550060272217 60.65387344360352 C 2.625600099563599 55.40533828735352 1.500000238418579 49.82915115356445 1.500000238418579 44.0802001953125 C 1.500000238418579 38.33124923706055 2.625600099563599 32.75506210327148 4.845550060272217 27.50652503967285 C 6.99007511138916 22.43628692626953 10.06047534942627 17.88242530822754 13.97144985198975 13.97144985198975 C 17.88242530822754 10.06047534942627 22.43628692626953 6.99007511138916 27.50652503967285 4.845550060272217 C 32.75506210327148 2.625600099563599 38.33124923706055 1.500000238418579 44.0802001953125 1.500000238418579 C 49.82915115356445 1.500000238418579 55.40533828735352 2.625600099563599 60.65387344360352 4.845550060272217 C 65.72411346435547 6.99007511138916 70.27797698974609 10.06047534942627 74.18894958496094 13.97144985198975 C 78.09992218017578 17.88242530822754 81.17032623291016 22.43628692626953 83.31484985351562 27.50652503967285 C 85.53479766845703 32.75506210327148 86.660400390625 38.33124923706055 86.660400390625 44.0802001953125 C 86.660400390625 49.82915115356445 85.53479766845703 55.40533828735352 83.31484985351562 60.65387344360352 C 81.17032623291016 65.72411346435547 78.09992218017578 70.27797698974609 74.18894958496094 74.18894958496094 C 70.27797698974609 78.09992218017578 65.72411346435547 81.17032623291016 60.65387344360352 83.31484985351562 C 55.40533828735352 85.53479766845703 49.82915115356445 86.660400390625 44.0802001953125 86.660400390625 Z" stroke="none"/>
                                <path d="M 44.0802001953125 3 C 38.53308486938477 3 33.15349960327148 4.085746765136719 28.09085845947266 6.227058410644531 C 23.19941711425781 8.29595947265625 18.80581665039062 11.25841522216797 15.03211212158203 15.03211212158203 C 11.25841522216797 18.80581665039062 8.29595947265625 23.19941711425781 6.227058410644531 28.09085845947266 C 4.085746765136719 33.15349960327148 3 38.53308486938477 3 44.0802001953125 C 3 49.62731552124023 4.085746765136719 55.00691604614258 6.227058410644531 60.06954193115234 C 8.29595947265625 64.96098327636719 11.25841522216797 69.35458374023438 15.03211212158203 73.12828826904297 C 18.80581665039062 76.90198516845703 23.19941711425781 79.86444091796875 28.09085845947266 81.93334197998047 C 33.15349960327148 84.07466125488281 38.53308486938477 85.160400390625 44.0802001953125 85.160400390625 C 49.62731552124023 85.160400390625 55.00691604614258 84.07466125488281 60.06954193115234 81.93334197998047 C 64.96099853515625 79.86444091796875 69.35458374023438 76.90198516845703 73.12828826904297 73.12828826904297 C 76.90198516845703 69.35458374023438 79.86444091796875 64.96099853515625 81.93334197998047 60.06954193115234 C 84.07466125488281 55.00691604614258 85.160400390625 49.62731552124023 85.160400390625 44.0802001953125 C 85.160400390625 38.53308486938477 84.07466125488281 33.15349960327148 81.93334197998047 28.09085845947266 C 79.86444091796875 23.19941711425781 76.90198516845703 18.80581665039062 73.12828826904297 15.03211212158203 C 69.35458374023438 11.25841522216797 64.96098327636719 8.29595947265625 60.06954193115234 6.227058410644531 C 55.00691604614258 4.085746765136719 49.62731552124023 3 44.0802001953125 3 M 44.0802001953125 0 C 68.42502593994141 0 88.160400390625 19.73538970947266 88.160400390625 44.0802001953125 C 88.160400390625 68.42502593994141 68.42502593994141 88.160400390625 44.0802001953125 88.160400390625 C 19.73538970947266 88.160400390625 0 68.42502593994141 0 44.0802001953125 C 0 19.73538970947266 19.73538970947266 0 44.0802001953125 0 Z" stroke="none" fill="#1d7083"/>
                              </g>
                            </g>
                          </g>
                        </g>
                      </g>
                    </g>
                  </g>
                </g>
              </g>
            </g>
          </g>
        </g>
      </g>
    </g>
    <g id="lupa_1_" data-name="lupa (1)" transform="translate(633.641 1163.97)">
      <path id="Trazado_1298112" data-name="Trazado 1298112" d="M355.6,334.891l-3.81-3.813-8.12,8.818,3.751,3.754a34.327,34.327,0,0,0,8.179-8.758" transform="translate(-297.682 -286.343)" fill="#eaecf0"/>
      <path id="Trazado_1298113" data-name="Trazado 1298113" d="M387.443,367.138l-7.56-7.565a34.327,34.327,0,0,1-8.179,8.758l7.273,7.277a5.8,5.8,0,0,0,8.2,0l.263-.263A5.806,5.806,0,0,0,387.443,367.138Zm0,0" transform="translate(-321.966 -311.026)" fill="#bbb8c7"/>
      <path id="Trazado_1298114" data-name="Trazado 1298114" d="M18.282,18.809a28.317,28.317,0,1,0,39.981,0,28.428,28.428,0,0,0-39.981,0Zm0,0" transform="translate(-8.665 -8.664)" fill="#0082a0"/>
      <path id="Trazado_1298115" data-name="Trazado 1298115" d="M97.955,86.23a22.429,22.429,0,0,0-4.91-24.147,22.186,22.186,0,0,0-31.45,0,22.382,22.382,0,0,0-6.231,19.366" transform="translate(-47.712 -47.682)" fill="#eaecf0"/>
      <path id="Trazado_1298116" data-name="Trazado 1298116" d="M295.91,240.836v17.51a22.4,22.4,0,0,0,10.4-11.023Zm0,0" transform="translate(-256.315 -208.176)" fill="#49e298"/>
      <path id="Trazado_1298117" data-name="Trazado 1298117" d="M216.34,242.065V260.7q.329.011.661.01a22.065,22.065,0,0,0,9.987-2.366v-17.51Zm0,0" transform="translate(-187.392 -208.176)" fill="#f26a5b"/>
      <path id="Trazado_1298118" data-name="Trazado 1298118" d="M57.566,193.132a22.366,22.366,0,0,0,10.6,15.387V184.148Zm0,0" transform="translate(-49.864 -159.074)" fill="#5fccf5"/>
      <path id="Trazado_1298119" data-name="Trazado 1298119" d="M136.77,184.148v24.371a22,22,0,0,0,10.648,3.08V192.963Zm0,0" transform="translate(-118.47 -159.074)" fill="#ffd36c"/>
      <path id="Trazado_1298120" data-name="Trazado 1298120" d="M66.424,55.167,55.642,44.379A29.814,29.814,0,0,0,50.547,9.2,29.609,29.609,0,0,0,0,30.2,29.606,29.606,0,0,0,45.69,55.151L56.064,65.53a7.136,7.136,0,0,0,10.1,0l.263-.263a7.153,7.153,0,0,0,0-10.1ZM10.565,49.311a27.119,27.119,0,0,1,0-38.221,26.869,26.869,0,0,1,38.086,0,27.119,27.119,0,0,1,0,38.221,26.869,26.869,0,0,1-38.086,0ZM50.547,51.2a29.964,29.964,0,0,0,3.668-4.463l1.978,1.979a33.033,33.033,0,0,1-6.344,6.808l-1.956-1.957A30.082,30.082,0,0,0,50.547,51.2ZM64.53,63.374l-.263.263a4.46,4.46,0,0,1-6.311,0l-6.207-6.21c.916-.752,1.8-1.553,2.638-2.395a35.666,35.666,0,0,0,3.725-4.4l6.418,6.421A4.472,4.472,0,0,1,64.53,63.374Zm0,0" transform="translate(0 0)"/>
      <path id="Trazado_1298121" data-name="Trazado 1298121" d="M90.386,78.366a1.354,1.354,0,0,0,.167-.3,23.726,23.726,0,0,0-5.2-25.589,23.524,23.524,0,0,0-33.346,0A23.82,23.82,0,0,0,45.4,73a1.336,1.336,0,0,0,.035.158,1.225,1.225,0,0,0,.017.149A23.7,23.7,0,0,0,56.686,89.615l0,0a23.472,23.472,0,0,0,11.289,3.265h0c.22.007.448.011.7.011a23.255,23.255,0,0,0,10.582-2.505l.007,0A23.734,23.734,0,0,0,90.29,78.7a1.354,1.354,0,0,0,.1-.333Zm-36.487-24a20.848,20.848,0,0,1,29.555,0A21.048,21.048,0,0,1,88.4,76.178l-9.031-5.634-.008-.005-.022-.013-.011-.006-.015-.009-.01-.005-.025-.014-.01-.005-.016-.008-.008,0-.029-.013-.009,0-.055-.024-.006,0-.059-.021h0a1.327,1.327,0,0,0-.344-.066h0l-.041,0h-.087l-.031,0h0c-.028,0-.056,0-.084.008L68.43,71.514,58.222,63.063h0l-.014-.011,0,0-.014-.011,0,0-.013-.01-.007-.005-.011-.008L58.143,63,58.132,63l-.01-.007-.008-.006-.013-.008-.005,0-.016-.01,0,0-.018-.011h0a1.38,1.38,0,0,0-.193-.1h0l-.018-.007-.006,0-.014-.005-.01,0-.01,0-.015-.005-.005,0a1.343,1.343,0,0,0-.667-.042h0l-.022,0h0l-.021,0h0l-.02,0h0l-.021.006h0L57,62.807h0a1.334,1.334,0,0,0-.266.108h0l-.019.01,0,0-.015.008-.008,0-.013.007-.008.005-.011.007-.012.008-.007,0-.015.01,0,0L56.6,63l0,0a1.29,1.29,0,0,0-.1.08L47.812,70.44A21.127,21.127,0,0,1,53.9,54.366ZM48.231,73.594l7.8-6.611V85.946A21.253,21.253,0,0,1,53.9,84.075a20.853,20.853,0,0,1-5.668-10.481Zm10.476-6.655,7.971,6.6V90.121a20.778,20.778,0,0,1-7.971-2.434ZM69.354,74.1l7.971-.92V88.349a20.558,20.558,0,0,1-7.971,1.858Zm14.1,9.973A21.092,21.092,0,0,1,80,86.88V74.092l7.347,4.583A20.862,20.862,0,0,1,83.454,84.075Zm0,0" transform="translate(-39.068 -39.02)"/>
      <path id="Trazado_1298122" data-name="Trazado 1298122" d="M88.506,122.535a1.338,1.338,0,0,1-.866-2.359l5.253-4.453a1.338,1.338,0,0,1,1.719-.01l3.1,2.563A1.338,1.338,0,0,1,96,120.338l-2.232-1.849-4.4,3.728a1.332,1.332,0,0,1-.865.317Zm0,0" transform="translate(-75.504 -99.53)"/>
      <path id="Trazado_1298123" data-name="Trazado 1298123" d="M174.095,157.044a1.348,1.348,0,0,1-.511-.1,1.331,1.331,0,0,1-.435-.289,1.364,1.364,0,0,1-.166-.2,1.34,1.34,0,0,1-.2-1,1.348,1.348,0,0,1,.2-.482,1.273,1.273,0,0,1,.166-.2,1.394,1.394,0,0,1,.2-.166,1.426,1.426,0,0,1,.232-.123,1.265,1.265,0,0,1,.25-.076,1.338,1.338,0,0,1,.524,0,1.264,1.264,0,0,1,.25.076,1.427,1.427,0,0,1,.232.123,1.317,1.317,0,0,1,.2.166,1.271,1.271,0,0,1,.166.2,1.346,1.346,0,0,1,.2.482,1.348,1.348,0,0,1-.2,1,1.314,1.314,0,0,1-.37.37,1.428,1.428,0,0,1-.232.123,1.348,1.348,0,0,1-.512.1Zm0,0" transform="translate(-149.642 -133.28)"/>
      <path id="Trazado_1298124" data-name="Trazado 1298124" d="M219.7,183.356a1.325,1.325,0,0,1-.707-.2l-5.646-3.521-9.722,1.123a1.338,1.338,0,0,1-1.007-.3l-2.8-2.317a1.338,1.338,0,1,1,1.707-2.062l2.358,1.952,9.62-1.111a1.333,1.333,0,0,1,.862.194l6.042,3.769a1.338,1.338,0,0,1-.71,2.474Zm0,0" transform="translate(-172.665 -151.817)"/>
    </g>
  </g>
</svg>
