<svg xmlns="http://www.w3.org/2000/svg" xmlns:xlink="http://www.w3.org/1999/xlink" width="106.16" height="106.16" viewBox="0 0 106.16 106.16">
  <defs>
    <filter id="Trazado_982547" x="0" y="0" width="106.16" height="106.16" filterUnits="userSpaceOnUse">
      <feOffset dy="3" input="SourceAlpha"/>
      <feGaussianBlur stdDeviation="3" result="blur"/>
      <feFlood flood-opacity="0.161"/>
      <feComposite operator="in" in2="blur"/>
      <feComposite in="SourceGraphic"/>
    </filter>
  </defs>
  <g id="Grupo_1242388" data-name="Grupo 1242388" transform="translate(-1030.42 -1143.423)">
    <g id="Grupo_1242182" data-name="Grupo 1242182" transform="translate(0 -7926.704)">
      <g id="Grupo_1241245" data-name="Grupo 1241245" transform="translate(840 7945.127)">
        <g id="Grupo_1235128" data-name="Grupo 1235128" transform="translate(199.42 1131)">
          <g id="Grupo_1233884" data-name="Grupo 1233884" transform="translate(0 0)">
            <g id="Grupo_1228506" data-name="Grupo 1228506" transform="translate(0 0)">
              <g id="Grupo_1206132" data-name="Grupo 1206132" transform="translate(0 0)">
                <g id="Grupo_1203794" data-name="Grupo 1203794">
                  <g id="Grupo_1203345" data-name="Grupo 1203345">
                    <g id="Grupo_1177900" data-name="Grupo 1177900">
                      <g id="Grupo_1172010" data-name="Grupo 1172010">
                        <g id="Grupo_1171046" data-name="Grupo 1171046">
                          <g id="Grupo_1148525" data-name="Grupo 1148525">
                            <g transform="matrix(1, 0, 0, 1, -9, -6)" filter="url(#Trazado_982547)">
                              <g id="Trazado_982547-2" data-name="Trazado 982547" transform="translate(9 6)" fill="#e9f9fd">
                                <path d="M 44.0802001953125 86.660400390625 C 38.33124923706055 86.660400390625 32.75506210327148 85.53479766845703 27.50652503967285 83.31484985351562 C 22.43628692626953 81.17032623291016 17.88242530822754 78.09992218017578 13.97144985198975 74.18894958496094 C 10.06047534942627 70.27797698974609 6.99007511138916 65.72411346435547 4.845550060272217 60.65387344360352 C 2.625600099563599 55.40533828735352 1.500000238418579 49.82915115356445 1.500000238418579 44.0802001953125 C 1.500000238418579 38.33124923706055 2.625600099563599 32.75506210327148 4.845550060272217 27.50652503967285 C 6.99007511138916 22.43628692626953 10.06047534942627 17.88242530822754 13.97144985198975 13.97144985198975 C 17.88242530822754 10.06047534942627 22.43628692626953 6.99007511138916 27.50652503967285 4.845550060272217 C 32.75506210327148 2.625600099563599 38.33124923706055 1.500000238418579 44.0802001953125 1.500000238418579 C 49.82915115356445 1.500000238418579 55.40533828735352 2.625600099563599 60.65387344360352 4.845550060272217 C 65.72411346435547 6.99007511138916 70.27797698974609 10.06047534942627 74.18894958496094 13.97144985198975 C 78.09992218017578 17.88242530822754 81.17032623291016 22.43628692626953 83.31484985351562 27.50652503967285 C 85.53479766845703 32.75506210327148 86.660400390625 38.33124923706055 86.660400390625 44.0802001953125 C 86.660400390625 49.82915115356445 85.53479766845703 55.40533828735352 83.31484985351562 60.65387344360352 C 81.17032623291016 65.72411346435547 78.09992218017578 70.27797698974609 74.18894958496094 74.18894958496094 C 70.27797698974609 78.09992218017578 65.72411346435547 81.17032623291016 60.65387344360352 83.31484985351562 C 55.40533828735352 85.53479766845703 49.82915115356445 86.660400390625 44.0802001953125 86.660400390625 Z" stroke="none"/>
                                <path d="M 44.0802001953125 3 C 38.53308486938477 3 33.15349960327148 4.085746765136719 28.09085845947266 6.227058410644531 C 23.19941711425781 8.29595947265625 18.80581665039062 11.25841522216797 15.03211212158203 15.03211212158203 C 11.25841522216797 18.80581665039062 8.29595947265625 23.19941711425781 6.227058410644531 28.09085845947266 C 4.085746765136719 33.15349960327148 3 38.53308486938477 3 44.0802001953125 C 3 49.62731552124023 4.085746765136719 55.00691604614258 6.227058410644531 60.06954193115234 C 8.29595947265625 64.96098327636719 11.25841522216797 69.35458374023438 15.03211212158203 73.12828826904297 C 18.80581665039062 76.90198516845703 23.19941711425781 79.86444091796875 28.09085845947266 81.93334197998047 C 33.15349960327148 84.07466125488281 38.53308486938477 85.160400390625 44.0802001953125 85.160400390625 C 49.62731552124023 85.160400390625 55.00691604614258 84.07466125488281 60.06954193115234 81.93334197998047 C 64.96099853515625 79.86444091796875 69.35458374023438 76.90198516845703 73.12828826904297 73.12828826904297 C 76.90198516845703 69.35458374023438 79.86444091796875 64.96099853515625 81.93334197998047 60.06954193115234 C 84.07466125488281 55.00691604614258 85.160400390625 49.62731552124023 85.160400390625 44.0802001953125 C 85.160400390625 38.53308486938477 84.07466125488281 33.15349960327148 81.93334197998047 28.09085845947266 C 79.86444091796875 23.19941711425781 76.90198516845703 18.80581665039062 73.12828826904297 15.03211212158203 C 69.35458374023438 11.25841522216797 64.96098327636719 8.29595947265625 60.06954193115234 6.227058410644531 C 55.00691604614258 4.085746765136719 49.62731552124023 3 44.0802001953125 3 M 44.0802001953125 0 C 68.42502593994141 0 88.160400390625 19.73538970947266 88.160400390625 44.0802001953125 C 88.160400390625 68.42502593994141 68.42502593994141 88.160400390625 44.0802001953125 88.160400390625 C 19.73538970947266 88.160400390625 0 68.42502593994141 0 44.0802001953125 C 0 19.73538970947266 19.73538970947266 0 44.0802001953125 0 Z" stroke="none" fill="#1d7083"/>
                              </g>
                            </g>
                          </g>
                        </g>
                      </g>
                    </g>
                  </g>
                </g>
              </g>
            </g>
          </g>
        </g>
      </g>
    </g>
    <g id="reloj-de-arena" transform="translate(1052.034 1151.496)">
      <g id="Grupo_1242386" data-name="Grupo 1242386" transform="translate(0.921 13.337)">
        <g id="Grupo_1242384" data-name="Grupo 1242384" transform="translate(3.343 1.818)">
          <path id="Trazado_1298125" data-name="Trazado 1298125" d="M248.59,231.429l.28.488-10.162,5.265a1.709,1.709,0,0,0-1.521,1.523l-5.265,10.162-.489-.28A12.536,12.536,0,0,1,225.2,236.3l.566-5.025a2.3,2.3,0,0,0-2.543-2.543l3.416-.327a1.968,1.968,0,0,0,1.771-1.771l.327-3.416a2.3,2.3,0,0,0,2.543,2.543l5.025-.566A12.535,12.535,0,0,1,248.59,231.429Z" transform="translate(-200.051 -200.048)" fill="#dff6fd"/>
          <path id="Trazado_1298126" data-name="Trazado 1298126" d="M92.227,74.471,89.471,87.2A5.362,5.362,0,0,1,87.2,89.466L74.476,92.222A12.5,12.5,0,0,1,72.952,90.1l-1.325-2.316L76.8,77.469l10.992-5.847,2.316,1.325A12.5,12.5,0,0,1,92.227,74.471Z" transform="translate(-67.088 -67.084)" fill="#dff6fd"/>
          <path id="Trazado_1298127" data-name="Trazado 1298127" d="M116.673,105.564l-.566,5.025L115.78,114a1.968,1.968,0,0,1-1.771,1.771l-3.416.327-5.025.566a12.539,12.539,0,0,1-10.76-4.114l10.167-5.315a5.362,5.362,0,0,0,2.269-2.269L112.559,94.8a12.539,12.539,0,0,1,4.114,10.76Z" transform="translate(-87.42 -87.417)" fill="#fdb441"/>
          <path id="Trazado_1298128" data-name="Trazado 1298128" d="M310.938,293.978l1.046,1.828-6.034,9.449-10.132,6.717-1.827-1.045,1.458-13.969a1.709,1.709,0,0,1,1.521-1.523Z" transform="translate(-262.119 -262.109)" fill="#fdb441"/>
          <path id="Trazado_1298129" data-name="Trazado 1298129" d="M227.405,263.492a2.773,2.773,0,0,1,.455,1.015l.726,3.733c.644,3.311,3.123,7.093,6.45,9.938l-3.114,6.01-.489-.28a12.536,12.536,0,0,1-6.232-12.284l.566-5.025a2.3,2.3,0,0,0-2.543-2.543l3.416-.327A1.952,1.952,0,0,0,227.405,263.492Z" transform="translate(-200.051 -235.37)" fill="#c8effe"/>
          <path id="Trazado_1298130" data-name="Trazado 1298130" d="M82.961,173.244l-8.484,1.837a12.5,12.5,0,0,1-1.524-2.118l-1.325-2.316,4.555-4.555,1.555,2.086a22.887,22.887,0,0,0,5.225,5.065Z" transform="translate(-67.088 -149.943)" fill="#c8effe"/>
          <path id="Trazado_1298131" data-name="Trazado 1298131" d="M114.773,217.969a1.952,1.952,0,0,1-.765.237l-3.416.327-5.025.566a12.539,12.539,0,0,1-10.76-4.114l6.5-3.4a17.245,17.245,0,0,0,7.647,4.125l3.733.726A3.685,3.685,0,0,1,114.773,217.969Z" transform="translate(-87.42 -189.847)" fill="#fe9738"/>
          <path id="Trazado_1298132" data-name="Trazado 1298132" d="M298.726,368.449l1.646,1.226-4.555,4.555-1.827-1.045.859-8.224a22.929,22.929,0,0,0,3.437,3.16Z" transform="translate(-262.119 -324.366)" fill="#fe9738"/>
          <path id="Trazado_1298133" data-name="Trazado 1298133" d="M298.715,316.592l17.877-17.877a.915.915,0,0,0,.162-1.074l-1.465-2.777a.915.915,0,0,0-1.456-.22l-19.189,19.189a.915.915,0,0,0,.22,1.456l2.777,1.465A.915.915,0,0,0,298.715,316.592Z" transform="translate(-262.458 -262.458)" fill="#685e68"/>
          <path id="Trazado_1298134" data-name="Trazado 1298134" d="M52.848,34.969,34.971,52.847a.915.915,0,0,0-.162,1.074L36.274,56.7a.915.915,0,0,0,1.456.22L56.918,37.728a.915.915,0,0,0-.22-1.456l-2.777-1.465A.915.915,0,0,0,52.848,34.969Z" transform="translate(-34.702 -34.701)" fill="#685e68"/>
          <g id="Grupo_1242383" data-name="Grupo 1242383" transform="translate(0 14.171)">
            <path id="Trazado_1298135" data-name="Trazado 1298135" d="M302.69,423.094l-3.975,3.975a.913.913,0,0,1-1.073.162l-2.778-1.466a.915.915,0,0,1-.219-1.456l3.975-3.975a.915.915,0,0,0,.22,1.456l2.777,1.466A.915.915,0,0,0,302.69,423.094Z" transform="translate(-262.458 -387.106)" fill="#554e56"/>
            <path id="Trazado_1298136" data-name="Trazado 1298136" d="M38.943,149.99a.916.916,0,0,0-.163,1.074l1.466,2.777a.915.915,0,0,0,1.455.22l-3.975,3.975a.915.915,0,0,1-1.456-.219L34.8,155.039a.913.913,0,0,1,.162-1.073Z" transform="translate(-34.699 -149.99)" fill="#554e56"/>
          </g>
        </g>
        <g id="Grupo_1242385" data-name="Grupo 1242385" transform="translate(0 0)">
          <path id="Trazado_1298137" data-name="Trazado 1298137" d="M33.136,289.172A24.37,24.37,0,0,1,16.48,276.617l1.791-.4a1.372,1.372,0,0,0,.716-2.266L12.7,267.08a1.372,1.372,0,0,0-2.321.513l-2.81,8.885a1.372,1.372,0,0,0,1.6,1.754l2.053-.454a29.606,29.606,0,0,0,20.865,16.515,2.614,2.614,0,0,0,1.048-5.121Z" transform="translate(-7.5 -236.308)" fill="#97da7b"/>
          <path id="Trazado_1298138" data-name="Trazado 1298138" d="M304.982,36.026l-2.053.454a29.606,29.606,0,0,0-20.865-16.515,2.614,2.614,0,0,0-1.048,5.121,24.37,24.37,0,0,1,16.656,12.555l-1.79.4a1.372,1.372,0,0,0-.716,2.266l6.291,6.875a1.372,1.372,0,0,0,2.321-.513l2.81-8.885a1.372,1.372,0,0,0-1.6-1.754Z" transform="translate(-245.563 -19.911)" fill="#97da7b"/>
        </g>
      </g>
      <g id="Grupo_1242387" data-name="Grupo 1242387" transform="translate(0 12.416)">
        <path id="Trazado_1298139" data-name="Trazado 1298139" d="M81.765,60.094a1.837,1.837,0,0,0-2.923-.442l-.658.658-.726-1.268a13.451,13.451,0,0,0-13.187-6.69l-5.024.565a1.378,1.378,0,0,1-1.524-1.524l.565-5.024A13.45,13.45,0,0,0,51.6,33.182l-1.268-.726.658-.658a1.836,1.836,0,0,0-.442-2.924L47.77,27.41a1.827,1.827,0,0,0-2.155.326l-5.5,5.494a.922.922,0,0,0,1.3,1.3l5.486-5.493L49.678,30.5l-1.5,1.5-.007.006L32.007,48.172a.913.913,0,0,0-.063.074l-1.437,1.438-1.466-2.769,9.349-9.349a.922.922,0,1,0-1.3-1.3l-9.349,9.349a1.83,1.83,0,0,0-.326,2.156l1.465,2.777a1.82,1.82,0,0,0,1.351.958,1.874,1.874,0,0,0,.281.021,1.817,1.817,0,0,0,1.292-.538l.658-.658.726,1.268a13.45,13.45,0,0,0,13.188,6.69l5.024-.565a1.378,1.378,0,0,1,1.524,1.524l-.565,5.024a13.45,13.45,0,0,0,6.69,13.187l1.269.726-.658.658a1.837,1.837,0,0,0,.442,2.923l2.777,1.465a1.829,1.829,0,0,0,2.156-.326L82.905,65.027a1.828,1.828,0,0,0,.325-2.156ZM33.809,48.977l15.17-15.17,1.7.975a11.659,11.659,0,0,1,1.416.954l-4.971,9.51a4.422,4.422,0,0,1-1.879,1.879L35.738,52.1a11.668,11.668,0,0,1-.954-1.416Zm12.356,7.477A11.606,11.606,0,0,1,37.041,53.5L46.1,48.76A6.258,6.258,0,0,0,48.761,46.1L53.5,37.039a11.607,11.607,0,0,1,2.959,9.124l-.565,5.024c0,.005,0,.01,0,.015h0l-.328,3.417a1.048,1.048,0,0,1-.942.941l-3.416.327h-.015Zm15.5,20.377-.694-.4,1.394-13.372a.79.79,0,0,1,.7-.7l1.292-.135a.922.922,0,0,0-.192-1.834l-1.291.135a2.642,2.642,0,0,0-2.345,2.343L59.224,75.4a11.608,11.608,0,0,1-5.038-10.923l.565-5.024a3.2,3.2,0,0,0-.434-2.01L54.8,57.4a2.894,2.894,0,0,0,2.6-2.6l.046-.48a3.2,3.2,0,0,0,2.01.434l5.024-.565A11.607,11.607,0,0,1,75.4,59.222l-6.974.728a.922.922,0,1,0,.192,1.834l7.818-.816.4.694-7.585,7.585ZM63.728,81.6l-2.764-1.458L80.139,60.963l1.462,2.76Z" transform="translate(-23.855 -25.379)"/>
        <path id="Trazado_1298140" data-name="Trazado 1298140" d="M381.6,315.441a.922.922,0,0,0-1.309,1.3l.007.007a.911.911,0,0,0,.649.271.924.924,0,0,0,.653-1.576Z" transform="translate(-333.313 -277.956)"/>
        <path id="Trazado_1298141" data-name="Trazado 1298141" d="M146.986,232.49a.922.922,0,0,0-.005,1.3l.007.007a.911.911,0,0,0,.649.271.924.924,0,1,0-.651-1.582Z" transform="translate(-128.68 -205.205)"/>
        <path id="Trazado_1298142" data-name="Trazado 1298142" d="M164.211,217.785a.922.922,0,0,0,0-1.3l-.014-.014a.922.922,0,0,0-1.3,1.3l.014.014a.922.922,0,0,0,1.3,0Z" transform="translate(-142.634 -191.149)"/>
        <path id="Trazado_1298143" data-name="Trazado 1298143" d="M168.8,234.374a.922.922,0,0,0-1.3,1.3l.014.014a.922.922,0,0,0,1.3-1.3Z" transform="translate(-146.669 -206.855)"/>
        <path id="Trazado_1298144" data-name="Trazado 1298144" d="M371.2,332.955a.922.922,0,0,0-.005,1.3l.007.007a.911.911,0,0,0,.649.271.924.924,0,1,0-.651-1.582Z" transform="translate(-325.336 -293.321)"/>
        <path id="Trazado_1298145" data-name="Trazado 1298145" d="M361.843,315.668a.922.922,0,1,0-1.3,1.309l.007.007a.911.911,0,0,0,.644.266.924.924,0,0,0,.647-1.582Z" transform="translate(-315.989 -278.159)"/>
        <path id="Trazado_1298146" data-name="Trazado 1298146" d="M26.743,281.679a23.442,23.442,0,0,1-15.432-11.018l.581-.128a2.293,2.293,0,0,0,1.2-3.788L6.8,259.869a2.294,2.294,0,0,0-3.88.857l-2.81,8.885a2.295,2.295,0,0,0,2.683,2.932l1.34-.3a30.678,30.678,0,0,0,1.8,3.152.922.922,0,0,0,1.543-1.009,28.808,28.808,0,0,1-2-3.589.922.922,0,0,0-1.034-.511l-2.052.453a.451.451,0,0,1-.528-.576l2.81-8.885a.45.45,0,0,1,.762-.168l6.291,6.876a.449.449,0,0,1-.235.742l-1.791.4a.922.922,0,0,0-.617,1.329,25.291,25.291,0,0,0,17.287,13.028,1.692,1.692,0,0,1-.336,3.35,1.748,1.748,0,0,1-.342-.034A28.623,28.623,0,0,1,9.98,277.677.922.922,0,0,0,8.6,278.9a30.465,30.465,0,0,0,16.732,9.712,3.6,3.6,0,0,0,.709.071,3.536,3.536,0,0,0,.706-7Z" transform="translate(0 -228.798)"/>
        <path id="Trazado_1298147" data-name="Trazado 1298147" d="M300.388,29.244a2.271,2.271,0,0,0-2.187-.692h0l-1.34.3a30.814,30.814,0,0,0-7.69-9.807,30.5,30.5,0,0,0-13.5-6.553,3.535,3.535,0,0,0-1.418,6.927,23.442,23.442,0,0,1,15.432,11.018l-.581.128a2.294,2.294,0,0,0-1.2,3.788l6.291,6.875a2.267,2.267,0,0,0,1.682.747,2.342,2.342,0,0,0,.506-.056,2.27,2.27,0,0,0,1.692-1.548l2.81-8.885A2.271,2.271,0,0,0,300.388,29.244Zm-1.263,1.684-2.81,8.885a.45.45,0,0,1-.761.168l-6.291-6.875a.45.45,0,0,1,.235-.744l1.79-.4a.922.922,0,0,0,.617-1.329,25.291,25.291,0,0,0-17.287-13.029,1.692,1.692,0,0,1,.335-3.349,1.7,1.7,0,0,1,.343.035,28.649,28.649,0,0,1,12.685,6.156,28.941,28.941,0,0,1,7.529,9.844.922.922,0,0,0,1.035.511l2.053-.453a.45.45,0,0,1,.526.575Z" transform="translate(-238.06 -12.416)"/>
      </g>
    </g>
  </g>
</svg>
