<svg xmlns="http://www.w3.org/2000/svg" xmlns:xlink="http://www.w3.org/1999/xlink" width="113" height="113" viewBox="0 0 113 113">
  <defs>
    <filter id="Trazado_982547" x="0" y="0" width="113" height="113" filterUnits="userSpaceOnUse">
      <feOffset dy="3" input="SourceAlpha"/>
      <feGaussianBlur stdDeviation="3" result="blur"/>
      <feFlood flood-opacity="0.161"/>
      <feComposite operator="in" in2="blur"/>
      <feComposite in="SourceGraphic"/>
    </filter>
  </defs>
  <g id="Grupo_1235221" data-name="Grupo 1235221" transform="translate(-324 -3176.669)">
    <g id="Grupo_1235055" data-name="Grupo 1235055" transform="translate(333 3182.669)">
      <g id="Grupo_1232525" data-name="Grupo 1232525">
        <g id="Grupo_1230095" data-name="Grupo 1230095">
          <g id="Grupo_1224255" data-name="Grupo 1224255">
            <g id="Grupo_1223775" data-name="Grupo 1223775">
              <g id="Grupo_1206275" data-name="Grupo 1206275">
                <g id="Grupo_1203802" data-name="Grupo 1203802">
                  <g id="Grupo_1202424" data-name="Grupo 1202424">
                    <g id="Grupo_1178325" data-name="Grupo 1178325">
                      <g id="Grupo_1177679" data-name="Grupo 1177679">
                        <g id="Grupo_1172010" data-name="Grupo 1172010">
                          <g id="Grupo_1171046" data-name="Grupo 1171046">
                            <g id="Grupo_1148525" data-name="Grupo 1148525">
                              <g transform="matrix(1, 0, 0, 1, -9, -6)" filter="url(#Trazado_982547)">
                                <g id="Trazado_982547-2" data-name="Trazado 982547" transform="translate(9 6)" fill="#ffe1b9">
                                  <path d="M 47.5 93.5 C 41.28937149047852 93.5 35.26533508300781 92.28397369384766 29.59518623352051 89.88570404052734 C 24.11771965026855 87.56893157958984 19.19813346862793 84.25196075439453 14.97309303283691 80.02691650390625 C 10.74804019927979 75.80186462402344 7.431066513061523 70.88229370117188 5.114293098449707 65.40481567382812 C 2.716026782989502 59.73468017578125 1.5 53.71062850952148 1.5 47.5 C 1.5 41.28937149047852 2.716026782989502 35.26533508300781 5.114293098449707 29.59518623352051 C 7.431066513061523 24.11771965026855 10.74804019927979 19.19813346862793 14.97309303283691 14.97309303283691 C 19.19813346862793 10.74804019927979 24.11771965026855 7.431066513061523 29.59518623352051 5.114293098449707 C 35.26533508300781 2.716026782989502 41.28937149047852 1.5 47.5 1.5 C 53.71062850952148 1.5 59.73468017578125 2.716026782989502 65.40481567382812 5.114293098449707 C 70.88229370117188 7.431066513061523 75.80186462402344 10.74804019927979 80.02691650390625 14.97309303283691 C 84.25196075439453 19.19813346862793 87.56893157958984 24.11771965026855 89.88570404052734 29.59518623352051 C 92.28397369384766 35.26533508300781 93.5 41.28937149047852 93.5 47.5 C 93.5 53.71062850952148 92.28397369384766 59.73468017578125 89.88570404052734 65.40481567382812 C 87.56893157958984 70.88229370117188 84.25196075439453 75.80186462402344 80.02691650390625 80.02691650390625 C 75.80186462402344 84.25196075439453 70.88229370117188 87.56893157958984 65.40481567382812 89.88570404052734 C 59.73468017578125 92.28397369384766 53.71062850952148 93.5 47.5 93.5 Z" stroke="none"/>
                                  <path d="M 47.5 3 C 41.49121475219727 3 35.66376876831055 4.176155090332031 30.17950439453125 6.495796203613281 C 24.88084411621094 8.736953735351562 20.12152099609375 11.94598388671875 16.03375244140625 16.03375244140625 C 11.94598388671875 20.12152099609375 8.736953735351562 24.88084411621094 6.495796203613281 30.17950439453125 C 4.176155090332031 35.66376876831055 3 41.49121475219727 3 47.5 C 3 53.50878524780273 4.176155090332031 59.33623123168945 6.495796203613281 64.82049560546875 C 8.736953735351562 70.11915588378906 11.94598388671875 74.87847900390625 16.03375244140625 78.96624755859375 C 20.12152099609375 83.05401611328125 24.88084411621094 86.26304626464844 30.17950439453125 88.50419616699219 C 35.66376876831055 90.82384490966797 41.49121475219727 92 47.5 92 C 53.50878524780273 92 59.33623123168945 90.82384490966797 64.82049560546875 88.50419616699219 C 70.11915588378906 86.26304626464844 74.87847900390625 83.05401611328125 78.96624755859375 78.96624755859375 C 83.05401611328125 74.87847900390625 86.26304626464844 70.11915588378906 88.50419616699219 64.82049560546875 C 90.82384490966797 59.33623123168945 92 53.50878524780273 92 47.5 C 92 41.49121475219727 90.82384490966797 35.66376876831055 88.50419616699219 30.17950439453125 C 86.26304626464844 24.88084411621094 83.05401611328125 20.12152099609375 78.96624755859375 16.03375244140625 C 74.87847900390625 11.94598388671875 70.11915588378906 8.736953735351562 64.82049560546875 6.495796203613281 C 59.33623123168945 4.176155090332031 53.50878524780273 3 47.5 3 M 47.5 0 C 73.7335205078125 0 95 21.2664794921875 95 47.5 C 95 73.7335205078125 73.7335205078125 95 47.5 95 C 21.2664794921875 95 0 73.7335205078125 0 47.5 C 0 21.2664794921875 21.2664794921875 0 47.5 0 Z" stroke="none" fill="#ff9d1c"/>
                                </g>
                              </g>
                            </g>
                          </g>
                        </g>
                      </g>
                    </g>
                  </g>
                </g>
              </g>
            </g>
          </g>
        </g>
      </g>
    </g>
    <g id="pregunta_1_" data-name="pregunta (1)" transform="translate(347.728 3180.645)">
      <g id="Grupo_1235219" data-name="Grupo 1235219" transform="translate(0.967 15.971)">
        <g id="Grupo_1235213" data-name="Grupo 1235213" transform="translate(14.323 0)">
          <path id="Trazado_1295332" data-name="Trazado 1295332" d="M154,40.233A17.74,17.74,0,1,1,136.271,22.5,17.732,17.732,0,0,1,154,40.233Z" transform="translate(-118.539 -22.5)" fill="#ffe85f"/>
          <path id="Trazado_1295333" data-name="Trazado 1295333" d="M260.231,40.233A17.74,17.74,0,0,1,240.5,57.852a17.733,17.733,0,0,0,0-35.24,17.74,17.74,0,0,1,19.732,17.621Z" transform="translate(-224.767 -22.5)" fill="#ffcf48"/>
          <g id="Grupo_1235212" data-name="Grupo 1235212" transform="translate(10.61 5.478)">
            <path id="Trazado_1295334" data-name="Trazado 1295334" d="M214.864,71.565a7.043,7.043,0,0,0-14.072.446,1.935,1.935,0,0,0,3.87,0,3.173,3.173,0,0,1,3.379-3.167A3.207,3.207,0,0,1,211,71.8a3.155,3.155,0,0,1-2.1,3.2,4.481,4.481,0,0,0-3,4.187,1.935,1.935,0,0,0,3.87,0,.6.6,0,0,1,.433-.543A7.083,7.083,0,0,0,214.864,71.565Z" transform="translate(-200.792 -64.968)" fill="#616270"/>
            <circle id="Elipse_11559" data-name="Elipse 11559" cx="1.935" cy="1.935" r="1.935" transform="translate(5.107 19.956)" fill="#616270"/>
          </g>
        </g>
        <g id="Grupo_1235218" data-name="Grupo 1235218" transform="translate(0 22.873)">
          <g id="Grupo_1235217" data-name="Grupo 1235217">
            <path id="Trazado_1295335" data-name="Trazado 1295335" d="M36.228,417.06a26.893,26.893,0,0,1-28.728,0,5.954,5.954,0,0,1,5.951-5.956H30.278A5.954,5.954,0,0,1,36.228,417.06Z" transform="translate(-7.5 -383.849)" fill="#f35"/>
            <path id="Trazado_1295336" data-name="Trazado 1295336" d="M36.228,417.06a26.893,26.893,0,0,1-28.728,0,5.965,5.965,0,0,1,.054-.808,46.189,46.189,0,0,0,14.311,2.385,24.232,24.232,0,0,0,11.515-2.9c-.515-1.207-2.42-4.636-4.382-4.636h1.28A5.954,5.954,0,0,1,36.228,417.06Z" transform="translate(-7.5 -383.849)" fill="#e52870"/>
            <path id="Trazado_1295337" data-name="Trazado 1295337" d="M322.2,228.55H297.53c1.33-2.5,1.833-20.323,1.833-20.323v-.061c0-5.5,4.157-7.918,9.081-8.294q.7-.054,1.419-.054c5.536,0,10.535,2.34,10.5,8.409C320.365,208.227,320.868,226.046,322.2,228.55Z" transform="translate(-260.118 -199.818)" fill="#ff8150"/>
            <path id="Trazado_1295338" data-name="Trazado 1295338" d="M395.893,228.55h-2.838c-1.33-2.5-1.833-20.323-1.833-20.323.031-5.545-4.139-7.977-9.082-8.355q.7-.054,1.419-.054c5.536,0,10.535,2.34,10.5,8.409,0,0,.5,17.819,1.833,20.323Z" transform="translate(-333.814 -199.818)" fill="#f55"/>
            <g id="Grupo_1235214" data-name="Grupo 1235214" transform="translate(7.229 7.179)">
              <path id="Trazado_1295339" data-name="Trazado 1295339" d="M73.515,272.916a10.231,10.231,0,0,0,.027,2.634,2.863,2.863,0,0,1-2.862,2.866,2.826,2.826,0,0,1-1.032-.192,2.864,2.864,0,0,1-1.832-2.674,10.24,10.24,0,0,0,.027-2.635c-2.852-2.309-4.3-4.345-4.3-6.047,0-.181.006-.362.022-.535.074-.749.09-3.229.05-5.444l7.062-5.415,4.977,3.816,2.085,1.6c-.04,2.215-.023,4.692.05,5.441.015.177.022.359.022.539,0,1.7-1.446,3.737-4.3,6.049Z" transform="translate(-63.545 -255.473)" fill="#ffdcc5"/>
              <path id="Trazado_1295340" data-name="Trazado 1295340" d="M114.722,298.68a10.231,10.231,0,0,0,.027,2.634,2.863,2.863,0,0,1-2.862,2.866,2.826,2.826,0,0,1-1.032-.192,2.864,2.864,0,0,0,1.83-2.674,17.1,17.1,0,0,1-.027-3.408c2.852-2.312,4.062-4.084,4.3-5.275a1.93,1.93,0,0,0-.022-.539c-.049-.5-.072-4.063-.071-7.039l2.085,1.6c-.04,2.215-.023,4.692.05,5.441.015.177.022.359.022.539C119.02,294.334,117.574,296.368,114.722,298.68Z" transform="translate(-104.752 -281.237)" fill="#ffc6bb"/>
            </g>
            <path id="Trazado_1295341" data-name="Trazado 1295341" d="M63.349,208.71a3.735,3.735,0,0,1-7.22,1.344,4.038,4.038,0,0,1-4.859,0,3.735,3.735,0,1,1-5.369-4.57,2.588,2.588,0,0,1,2.99-4.17,2.778,2.778,0,0,1,4.8-.221h.017l0,0a2.781,2.781,0,0,1,5.019.784,2.184,2.184,0,0,1,2.491,3.461A3.739,3.739,0,0,1,63.349,208.71Z" transform="translate(-39.335 -199.818)" fill="#9e5c47"/>
            <path id="Trazado_1295342" data-name="Trazado 1295342" d="M128.561,208.71a3.736,3.736,0,0,1-3.235,3.7,3.739,3.739,0,0,0-1.229-5.8,2.184,2.184,0,0,0-2.492-3.461,2.782,2.782,0,0,0-2.684-2.055l0,0a2.781,2.781,0,0,1,5.019.784,2.184,2.184,0,0,1,2.491,3.461A3.739,3.739,0,0,1,128.561,208.71Z" transform="translate(-104.547 -199.818)" fill="#893636"/>
            <g id="Grupo_1235215" data-name="Grupo 1235215" transform="translate(35.382 27.256)">
              <path id="Trazado_1295343" data-name="Trazado 1295343" d="M310.518,417.069a26.893,26.893,0,0,1-28.728,0,5.954,5.954,0,0,1,5.951-5.956h16.827A5.954,5.954,0,0,1,310.518,417.069Z" transform="translate(-281.79 -411.113)" fill="#33cfff"/>
              <path id="Trazado_1295344" data-name="Trazado 1295344" d="M310.518,417.069a26.893,26.893,0,0,1-28.728,0,5.963,5.963,0,0,1,.054-.807,46.189,46.189,0,0,0,14.311,2.385,24.233,24.233,0,0,0,11.515-2.9c-.515-1.207-2.42-4.636-4.382-4.636h1.28A5.954,5.954,0,0,1,310.518,417.069Z" transform="translate(-281.79 -411.113)" fill="#33a8ff"/>
            </g>
            <g id="Grupo_1235216" data-name="Grupo 1235216" transform="translate(42.612 9.696)">
              <path id="Trazado_1295345" data-name="Trazado 1295345" d="M347.812,289.911a10.231,10.231,0,0,0,.027,2.634,2.864,2.864,0,0,1-2.864,2.866,2.813,2.813,0,0,1-1.029-.192h0a2.863,2.863,0,0,1-1.832-2.674,10.241,10.241,0,0,0,.027-2.635c-2.852-2.309-4.3-4.345-4.3-6.047,0-.181.006-.362.022-.535.074-.749.09-3.229.05-5.444h6.869a2.9,2.9,0,0,0,2.893-2.9,2.9,2.9,0,0,0,2.278,2.83,2.858,2.858,0,0,0,.617.067h1.467c-.04,2.215-.023,4.692.05,5.441.015.177.022.359.022.539C352.11,285.565,350.664,287.6,347.812,289.911Z" transform="translate(-337.842 -274.986)" fill="#ffdcc5"/>
              <path id="Trazado_1295346" data-name="Trazado 1295346" d="M389.028,309.021a10.23,10.23,0,0,0,.027,2.634,2.864,2.864,0,0,1-2.864,2.866,2.813,2.813,0,0,1-1.029-.192,2.867,2.867,0,0,0,1.829-2.674,17.1,17.1,0,0,1-.027-3.408c2.852-2.312,4.3-4.3,4.3-5.275,0-.181-.006-.362-.022-.539-.041-.417-.063-2.953-.07-5.507a2.858,2.858,0,0,0,.617.067h1.467c-.04,2.215-.023,4.692.05,5.441.016.177.022.359.022.539,0,1.7-1.446,3.737-4.3,6.048Z" transform="translate(-379.058 -294.096)" fill="#ffc6bb"/>
            </g>
          </g>
        </g>
      </g>
      <g id="Grupo_1235220" data-name="Grupo 1235220" transform="translate(0 15.004)">
        <path id="Trazado_1295347" data-name="Trazado 1295347" d="M23.746,219.57H19.074a9.26,9.26,0,0,1,.017-1.174c2.921-2.431,4.342-4.574,4.342-6.542,0-.213-.009-.423-.027-.634-.061-.624-.083-2.73-.053-4.842a4.7,4.7,0,0,0,.808-7.9,3.153,3.153,0,0,0-2.938-4.291q-.147,0-.292.013a3.75,3.75,0,0,0-5.6-1.068,3.748,3.748,0,0,0-5.176.471,3.554,3.554,0,0,0-3.971,5.151,4.7,4.7,0,0,0,1.126,7.619c.03,2.112.008,4.22-.054,4.855-.017.2-.026.4-.026.62,0,1.968,1.421,4.111,4.342,6.541a9.271,9.271,0,0,1,.017,1.174H6.917A6.928,6.928,0,0,0,0,226.493a.967.967,0,0,0,.45.817,27.8,27.8,0,0,0,4.885,2.458.967.967,0,0,0,.695-1.806,25.86,25.86,0,0,1-4.068-1.992A4.992,4.992,0,0,1,6.918,221.5h4.706a3.832,3.832,0,0,0,7.416,0h4.707a4.992,4.992,0,0,1,4.955,4.466,25.832,25.832,0,0,1-13.369,3.711,26.1,26.1,0,0,1-5.266-.535.967.967,0,0,0-.391,1.895,28.045,28.045,0,0,0,5.657.575,27.759,27.759,0,0,0,14.881-4.307.968.968,0,0,0,.45-.817,6.928,6.928,0,0,0-6.918-6.923ZM8.023,199.781a.968.968,0,0,0,.174-1.539,1.621,1.621,0,0,1,1.87-2.613.967.967,0,0,0,1.314-.4,1.811,1.811,0,0,1,3.13-.145.968.968,0,0,0,.813.442h.017a.968.968,0,0,0,.813-.442,1.813,1.813,0,0,1,3.275.508.967.967,0,0,0,1.317.636,1.2,1.2,0,0,1,.479-.1,1.218,1.218,0,0,1,.907,2.027.967.967,0,0,0,.305,1.517,2.769,2.769,0,1,1-3.771,3.5.967.967,0,0,0-1.486-.424,3.069,3.069,0,0,1-3.694,0,.967.967,0,0,0-1.486.424,2.767,2.767,0,1,1-3.976-3.388Zm7.309,22.655a1.9,1.9,0,0,1-1.9-1.839,11.175,11.175,0,0,0,.02-2.81.968.968,0,0,0-.352-.637c-3.256-2.637-3.939-4.335-3.939-5.3,0-.16.006-.312.018-.441.071-.728.087-2.71.069-4.538l.165,0a4.735,4.735,0,0,0,3.859-2.02,5.027,5.027,0,0,0,4.113,0,4.735,4.735,0,0,0,3.859,2.02l.165,0c-.019,1.828,0,3.806.068,4.522.012.145.019.3.019.457,0,.96-.684,2.659-3.94,5.3a.968.968,0,0,0-.352.637,11.173,11.173,0,0,0,.02,2.809,1.9,1.9,0,0,1-1.9,1.839Z" transform="translate(0 -169.443)"/>
        <path id="Trazado_1295348" data-name="Trazado 1295348" d="M302.749,221.43c-.768-1.865-1.424-11.442-1.659-19.751a8.487,8.487,0,0,0-2.382-6.266c-1.988-2-5.214-3.1-9.086-3.1s-7.1,1.1-9.086,3.1a8.486,8.486,0,0,0-2.382,6.266c-.235,8.309-.891,17.886-1.659,19.751a6.908,6.908,0,0,0-2.2,5.063.967.967,0,0,0,.45.817,27.758,27.758,0,0,0,14.881,4.307,28.047,28.047,0,0,0,5.657-.575.967.967,0,0,0-.391-1.895,26.1,26.1,0,0,1-5.266.535,25.832,25.832,0,0,1-13.369-3.711,4.992,4.992,0,0,1,4.955-4.466h4.706a3.832,3.832,0,0,0,7.416,0h4.707a4.992,4.992,0,0,1,4.955,4.466,25.862,25.862,0,0,1-4.068,1.992.967.967,0,1,0,.695,1.806,27.808,27.808,0,0,0,4.885-2.458.967.967,0,0,0,.45-.817,6.908,6.908,0,0,0-2.2-5.063Zm-13.128,1.006a1.9,1.9,0,0,1-1.9-1.839,11.176,11.176,0,0,0,.02-2.81.967.967,0,0,0-.352-.637c-3.256-2.637-3.939-4.335-3.939-5.3,0-.16.006-.311.018-.441.072-.732.088-2.733.068-4.571h5.887a3.852,3.852,0,0,0,2.894-1.309,3.852,3.852,0,0,0,2.894,1.309h.486c-.019,1.836,0,3.834.067,4.555.012.144.019.3.019.457,0,.96-.684,2.659-3.94,5.3a.967.967,0,0,0-.352.637,11.184,11.184,0,0,0,.02,2.809A1.9,1.9,0,0,1,289.622,222.436Zm3.743-2.866a9.261,9.261,0,0,1,.017-1.174c2.921-2.432,4.342-4.574,4.342-6.542,0-.214-.009-.423-.027-.634-.066-.673-.086-3.063-.045-5.328h0c0-.006,0-.012,0-.017a.967.967,0,0,0-.967-.967h-1.467a1.93,1.93,0,0,1-1.927-1.93.967.967,0,0,0-1.935,0,1.93,1.93,0,0,1-1.927,1.93H282.56a.967.967,0,0,0-.967.967c0,.006,0,.012,0,.018h0c.041,2.266.021,4.658-.046,5.342-.017.2-.026.4-.026.62,0,1.968,1.421,4.111,4.342,6.541a9.279,9.279,0,0,1,.017,1.174h-4.672a6.88,6.88,0,0,0-2.41.433c.876-5.168,1.22-15.814,1.29-18.285q0-.016,0-.033a6.627,6.627,0,0,1,1.819-4.907c1.622-1.631,4.361-2.529,7.715-2.529s6.093.9,7.714,2.529a6.628,6.628,0,0,1,1.819,4.907q0,.016,0,.033c0,.045.13,4.526.419,9.254.283,4.622.582,7.361.86,9.027a6.879,6.879,0,0,0-2.4-.429h-4.672Z" transform="translate(-238.908 -169.442)"/>
        <path id="Trazado_1295349" data-name="Trazado 1295349" d="M209.3,64.972a8.01,8.01,0,0,0-16,.506,2.9,2.9,0,1,0,5.8,0,2.206,2.206,0,0,1,2.352-2.2,2.226,2.226,0,0,1,2.055,2.055,2.2,2.2,0,0,1-1.459,2.225,5.451,5.451,0,0,0-3.644,5.1,2.9,2.9,0,0,0,5.79.3,8.057,8.057,0,0,0,5.107-7.979ZM203.344,71.2a1.554,1.554,0,0,0-1.075,1.454.967.967,0,1,1-1.935,0,3.512,3.512,0,0,1,2.36-3.276,4.115,4.115,0,0,0,2.74-4.167,4.188,4.188,0,0,0-3.867-3.866q-.134-.008-.266-.008a4.14,4.14,0,0,0-4.14,4.14.967.967,0,0,1-1.935,0,6.1,6.1,0,0,1,1.915-4.428,6.075,6.075,0,0,1,10.223,4.042A6.111,6.111,0,0,1,203.344,71.2Z" transform="translate(-168.358 -51.989)"/>
        <path id="Trazado_1295350" data-name="Trazado 1295350" d="M219.571,285.423a.967.967,0,0,0-1.134-.765,16.9,16.9,0,0,1-8.007-.388.967.967,0,1,0-.553,1.854,18.839,18.839,0,0,0,8.929.433A.968.968,0,0,0,219.571,285.423Z" transform="translate(-182.202 -249.5)"/>
        <path id="Trazado_1295351" data-name="Trazado 1295351" d="M156.331,21.448a16.765,16.765,0,0,1,28.2,12.256c0,.417-.015.838-.046,1.253a.967.967,0,0,0,.894,1.036l.072,0a.967.967,0,0,0,.964-.9c.034-.462.051-.931.051-1.4a18.7,18.7,0,0,0-31.459-13.67.967.967,0,0,0,1.32,1.414Z" transform="translate(-134.748 -15.004)"/>
        <path id="Trazado_1295352" data-name="Trazado 1295352" d="M112.1,89.338a.968.968,0,0,0,.963-1.069,17.022,17.022,0,0,1-.093-1.778,16.68,16.68,0,0,1,2.863-9.373.967.967,0,0,0-1.6-1.083,18.608,18.608,0,0,0-3.194,10.456,19.027,19.027,0,0,0,.1,1.98.968.968,0,0,0,.961.866Z" transform="translate(-96.711 -67.792)"/>
        <path id="Trazado_1295353" data-name="Trazado 1295353" d="M235.789,212.171a2.9,2.9,0,1,0,2.9,2.9A2.906,2.906,0,0,0,235.789,212.171Zm0,3.87a.968.968,0,1,1,.968-.968A.969.969,0,0,1,235.789,216.041Z" transform="translate(-202.845 -186.738)"/>
      </g>
    </g>
  </g>
</svg>
