<svg xmlns="http://www.w3.org/2000/svg" xmlns:xlink="http://www.w3.org/1999/xlink" width="113" height="113" viewBox="0 0 113 113">
  <defs>
    <filter id="Trazado_982547" x="0" y="0" width="113" height="113" filterUnits="userSpaceOnUse">
      <feOffset dy="3" input="SourceAlpha"/>
      <feGaussianBlur stdDeviation="3" result="blur"/>
      <feFlood flood-opacity="0.161"/>
      <feComposite operator="in" in2="blur"/>
      <feComposite in="SourceGraphic"/>
    </filter>
  </defs>
  <g id="Grupo_1235259" data-name="Grupo 1235259" transform="translate(-1164 -3176.259)">
    <g id="Grupo_1235057" data-name="Grupo 1235057" transform="translate(1173 3182.259)">
      <g id="Grupo_1232527" data-name="Grupo 1232527">
        <g id="Grupo_1230106" data-name="Grupo 1230106">
          <g id="Grupo_1224275" data-name="Grupo 1224275">
            <g id="Grupo_1224268" data-name="Grupo 1224268">
              <g id="Grupo_1223779" data-name="Grupo 1223779">
                <g id="Grupo_1206283" data-name="Grupo 1206283">
                  <g id="Grupo_1203804" data-name="Grupo 1203804">
                    <g id="Grupo_1202426" data-name="Grupo 1202426">
                      <g id="Grupo_1178323" data-name="Grupo 1178323">
                        <g id="Grupo_1177681" data-name="Grupo 1177681">
                          <g id="Grupo_1172010" data-name="Grupo 1172010">
                            <g id="Grupo_1171046" data-name="Grupo 1171046">
                              <g id="Grupo_1148525" data-name="Grupo 1148525">
                                <g transform="matrix(1, 0, 0, 1, -9, -6)" filter="url(#Trazado_982547)">
                                  <g id="Trazado_982547-2" data-name="Trazado 982547" transform="translate(9 6)" fill="#ffe1b9">
                                    <path d="M 47.5 93.5 C 41.28937149047852 93.5 35.26533508300781 92.28397369384766 29.59518623352051 89.88570404052734 C 24.11771965026855 87.56893157958984 19.19813346862793 84.25196075439453 14.97309303283691 80.02691650390625 C 10.74804019927979 75.80186462402344 7.431066513061523 70.88229370117188 5.114293098449707 65.40481567382812 C 2.716026782989502 59.73468017578125 1.5 53.71062850952148 1.5 47.5 C 1.5 41.28937149047852 2.716026782989502 35.26533508300781 5.114293098449707 29.59518623352051 C 7.431066513061523 24.11771965026855 10.74804019927979 19.19813346862793 14.97309303283691 14.97309303283691 C 19.19813346862793 10.74804019927979 24.11771965026855 7.431066513061523 29.59518623352051 5.114293098449707 C 35.26533508300781 2.716026782989502 41.28937149047852 1.5 47.5 1.5 C 53.71062850952148 1.5 59.73468017578125 2.716026782989502 65.40481567382812 5.114293098449707 C 70.88229370117188 7.431066513061523 75.80186462402344 10.74804019927979 80.02691650390625 14.97309303283691 C 84.25196075439453 19.19813346862793 87.56893157958984 24.11771965026855 89.88570404052734 29.59518623352051 C 92.28397369384766 35.26533508300781 93.5 41.28937149047852 93.5 47.5 C 93.5 53.71062850952148 92.28397369384766 59.73468017578125 89.88570404052734 65.40481567382812 C 87.56893157958984 70.88229370117188 84.25196075439453 75.80186462402344 80.02691650390625 80.02691650390625 C 75.80186462402344 84.25196075439453 70.88229370117188 87.56893157958984 65.40481567382812 89.88570404052734 C 59.73468017578125 92.28397369384766 53.71062850952148 93.5 47.5 93.5 Z" stroke="none"/>
                                    <path d="M 47.5 3 C 41.49121475219727 3 35.66376876831055 4.176155090332031 30.17950439453125 6.495796203613281 C 24.88084411621094 8.736953735351562 20.12152099609375 11.94598388671875 16.03375244140625 16.03375244140625 C 11.94598388671875 20.12152099609375 8.736953735351562 24.88084411621094 6.495796203613281 30.17950439453125 C 4.176155090332031 35.66376876831055 3 41.49121475219727 3 47.5 C 3 53.50878524780273 4.176155090332031 59.33623123168945 6.495796203613281 64.82049560546875 C 8.736953735351562 70.11915588378906 11.94598388671875 74.87847900390625 16.03375244140625 78.96624755859375 C 20.12152099609375 83.05401611328125 24.88084411621094 86.26304626464844 30.17950439453125 88.50419616699219 C 35.66376876831055 90.82384490966797 41.49121475219727 92 47.5 92 C 53.50878524780273 92 59.33623123168945 90.82384490966797 64.82049560546875 88.50419616699219 C 70.11915588378906 86.26304626464844 74.87847900390625 83.05401611328125 78.96624755859375 78.96624755859375 C 83.05401611328125 74.87847900390625 86.26304626464844 70.11915588378906 88.50419616699219 64.82049560546875 C 90.82384490966797 59.33623123168945 92 53.50878524780273 92 47.5 C 92 41.49121475219727 90.82384490966797 35.66376876831055 88.50419616699219 30.17950439453125 C 86.26304626464844 24.88084411621094 83.05401611328125 20.12152099609375 78.96624755859375 16.03375244140625 C 74.87847900390625 11.94598388671875 70.11915588378906 8.736953735351562 64.82049560546875 6.495796203613281 C 59.33623123168945 4.176155090332031 53.50878524780273 3 47.5 3 M 47.5 0 C 73.7335205078125 0 95 21.2664794921875 95 47.5 C 95 73.7335205078125 73.7335205078125 95 47.5 95 C 21.2664794921875 95 0 73.7335205078125 0 47.5 C 0 21.2664794921875 21.2664794921875 0 47.5 0 Z" stroke="none" fill="#ff9d1c"/>
                                  </g>
                                </g>
                              </g>
                            </g>
                          </g>
                        </g>
                      </g>
                    </g>
                  </g>
                </g>
              </g>
            </g>
          </g>
        </g>
      </g>
    </g>
    <g id="charla" transform="translate(1188.5 3197.76)">
      <path id="Trazado_1295370" data-name="Trazado 1295370" d="M24.015,21.8A10.013,10.013,0,0,0,31.8,10H58a4,4,0,0,1,4,4V30a4,4,0,0,1-4,4H57v8L47,34H28a4,4,0,0,1-4-4V21.8Z" fill="#c0dafc"/>
      <path id="Trazado_1295371" data-name="Trazado 1295371" d="M24.015,21.8H24V30a4,4,0,0,0,4,4H47l10,8V34h.047V14H31.792a10.007,10.007,0,0,1-7.777,7.8Z" fill="#d7ecff"/>
      <path id="Trazado_1295372" data-name="Trazado 1295372" d="M41.578,34H28a4,4,0,0,1-4-4V26.017c-.331-.011-.665-.017-1-.017C11.4,26,2,32.716,2,41c0,6.261,5.37,11.626,13,13.873V62l10.127-6.076h.02C35.737,55.154,44,48.767,44,41A11.7,11.7,0,0,0,41.578,34Z" fill="#78a0d4"/>
      <circle id="Elipse_11560" data-name="Elipse 11560" cx="10" cy="10" r="10" transform="translate(12 2)" fill="#f0ae42"/>
      <path id="Trazado_1295373" data-name="Trazado 1295373" d="M20.8,12.019l-.769-3.842A1.862,1.862,0,0,1,20,7.82,1.82,1.82,0,0,1,21.82,6h.36A1.82,1.82,0,0,1,24,7.82a1.862,1.862,0,0,1-.035.357L23.2,12.019a1.224,1.224,0,0,1-2.4,0Z" fill="#fce797"/>
      <circle id="Elipse_11561" data-name="Elipse 11561" cx="2" cy="2" r="2" transform="translate(20 15)" fill="#fce797"/>
      <g id="Grupo_1235257" data-name="Grupo 1235257">
        <circle id="Elipse_11562" data-name="Elipse 11562" cx="2" cy="2" r="2" transform="translate(33 22)" fill="#78a0d4"/>
        <circle id="Elipse_11563" data-name="Elipse 11563" cx="2" cy="2" r="2" transform="translate(41 22)" fill="#78a0d4"/>
        <circle id="Elipse_11564" data-name="Elipse 11564" cx="2" cy="2" r="2" transform="translate(49 22)" fill="#78a0d4"/>
      </g>
      <g id="Grupo_1235258" data-name="Grupo 1235258">
        <path id="Trazado_1295374" data-name="Trazado 1295374" d="M15,45a2,2,0,1,1,2-2A2,2,0,0,1,15,45Z" fill="#c0dafc"/>
        <path id="Trazado_1295375" data-name="Trazado 1295375" d="M23,45a2,2,0,1,1,2-2A2,2,0,0,1,23,45Z" fill="#c0dafc"/>
        <path id="Trazado_1295376" data-name="Trazado 1295376" d="M31,45a2,2,0,1,1,2-2A2,2,0,0,1,31,45Z" fill="#c0dafc"/>
      </g>
      <path id="Trazado_1295377" data-name="Trazado 1295377" d="M58,9H32.574A11,11,0,1,0,22,23c.338,0,.67-.021,1-.051V25C10.869,25,1,32.178,1,41c0,6.366,5.076,12.04,13,14.61V62a1,1,0,0,0,1.515.857L25.437,56.9C36.6,56.014,45,49.2,45,41a12.388,12.388,0,0,0-1.6-6h3.249l9.726,7.781A1,1,0,0,0,58,42V35a5.006,5.006,0,0,0,5-5V14a5.006,5.006,0,0,0-5-5ZM13,12a9,9,0,1,1,9,9,9,9,0,0,1-9-9ZM43,41c0,7.2-7.706,13.184-17.921,13.925a1,1,0,0,0-.467.141L16,60.233v-5.36a1,1,0,0,0-.718-.959C7.821,51.717,3,46.647,3,41c0-7.72,8.972-14,20-14v3a5.006,5.006,0,0,0,5,5H41.053A10.51,10.51,0,0,1,43,41ZM61,30a3,3,0,0,1-3,3H57a1,1,0,0,0-1,1v5.919l-8.375-6.7A1,1,0,0,0,47,33H28a3,3,0,0,1-3-3V22.574A11.013,11.013,0,0,0,33,12c0-.338-.021-.67-.051-1H58a3,3,0,0,1,3,3Z"/>
      <path id="Trazado_1295378" data-name="Trazado 1295378" d="M22.181,5h-.362A2.823,2.823,0,0,0,19,7.82a2.865,2.865,0,0,0,.055.553l.768,3.843a2.22,2.22,0,0,0,4.354,0l.768-3.844A2.818,2.818,0,0,0,22.181,5Zm.8,2.98-.768,3.843a.229.229,0,0,1-.432,0l-.768-3.842A.792.792,0,0,1,21,7.82.82.82,0,0,1,21.819,7h.362A.82.82,0,0,1,23,7.82a.775.775,0,0,1-.016.16Z"/>
      <circle id="Elipse_11565" data-name="Elipse 11565" cx="2" cy="2" r="2" transform="translate(20 15)"/>
      <circle id="Elipse_11566" data-name="Elipse 11566" cx="2" cy="2" r="2" transform="translate(33 22)"/>
      <circle id="Elipse_11567" data-name="Elipse 11567" cx="2" cy="2" r="2" transform="translate(41 22)"/>
      <circle id="Elipse_11568" data-name="Elipse 11568" cx="2" cy="2" r="2" transform="translate(49 22)"/>
      <circle id="Elipse_11569" data-name="Elipse 11569" cx="2" cy="2" r="2" transform="translate(13 41)"/>
      <circle id="Elipse_11570" data-name="Elipse 11570" cx="2" cy="2" r="2" transform="translate(21 41)"/>
      <circle id="Elipse_11571" data-name="Elipse 11571" cx="2" cy="2" r="2" transform="translate(29 41)"/>
    </g>
  </g>
</svg>
