<svg xmlns="http://www.w3.org/2000/svg" xmlns:xlink="http://www.w3.org/1999/xlink" width="108" height="108" viewBox="0 0 108 108">
  <defs>
    <filter id="Trazado_904820" x="0" y="0" width="108" height="108" filterUnits="userSpaceOnUse">
      <feOffset dy="3" input="SourceAlpha"/>
      <feGaussianBlur stdDeviation="3" result="blur"/>
      <feFlood flood-opacity="0.161"/>
      <feComposite operator="in" in2="blur"/>
      <feComposite in="SourceGraphic"/>
    </filter>
  </defs>
  <g id="Grupo_1242407" data-name="Grupo 1242407" transform="translate(-198 -3137)">
    <g id="Grupo_1242194" data-name="Grupo 1242194" transform="translate(0 884.144)">
      <g id="Grupo_1235130" data-name="Grupo 1235130" transform="translate(207 2258.856)">
        <g id="Grupo_1233818" data-name="Grupo 1233818" transform="translate(0 0)">
          <g id="Grupo_1228307" data-name="Grupo 1228307">
            <g id="Grupo_1228100" data-name="Grupo 1228100" transform="translate(0 0)">
              <g id="Grupo_1221597" data-name="Grupo 1221597" transform="translate(0 0)">
                <g id="Grupo_1219744" data-name="Grupo 1219744">
                  <g id="Grupo_1202418" data-name="Grupo 1202418">
                    <g id="Grupo_1177315" data-name="Grupo 1177315">
                      <g id="Grupo_1173585" data-name="Grupo 1173585">
                        <g id="Grupo_1173428" data-name="Grupo 1173428">
                          <g id="Grupo_1171958" data-name="Grupo 1171958">
                            <g id="Grupo_1167341" data-name="Grupo 1167341">
                              <g id="Grupo_1166792" data-name="Grupo 1166792">
                                <g transform="matrix(1, 0, 0, 1, -9, -6)" filter="url(#Trazado_904820)">
                                  <g id="Trazado_904820-2" data-name="Trazado 904820" transform="translate(9 6)" fill="#fff4e6">
                                    <path d="M 44.99999618530273 88.49992370605469 C 39.12687301635742 88.49992370605469 33.43022155761719 87.34999847412109 28.06829643249512 85.08209991455078 C 22.88852119445801 82.8912353515625 18.23629570007324 79.75452423095703 14.24084663391113 75.75907135009766 C 10.24540901184082 71.76363372802734 7.108683586120605 67.11141204833984 4.917821407318115 61.93164825439453 C 2.649921178817749 56.56972503662109 1.499996185302734 50.87307357788086 1.499996185302734 44.99996185302734 C 1.499996185302734 39.12683868408203 2.649921178817749 33.43019866943359 4.917821407318115 28.06827354431152 C 7.108683586120605 22.88850021362305 10.24540901184082 18.23628616333008 14.24084663391113 14.24083709716797 C 18.23629570007324 10.24539947509766 22.88852119445801 7.108686923980713 28.06829643249512 4.917824268341064 C 33.43022155761719 2.649924278259277 39.12687301635742 1.499999403953552 44.99999618530273 1.499999403953552 C 50.87311935424805 1.499999403953552 56.56977081298828 2.649924278259277 61.93169784545898 4.917824268341064 C 67.11147308349609 7.108686923980713 71.76369476318359 10.24539947509766 75.75914764404297 14.24083709716797 C 79.75458526611328 18.23628616333008 82.89131164550781 22.88850021362305 85.08216857910156 28.06827354431152 C 87.35007476806641 33.43019866943359 88.5 39.12683868408203 88.5 44.99996185302734 C 88.5 50.87307357788086 87.35007476806641 56.56972503662109 85.08216857910156 61.93164825439453 C 82.89131164550781 67.11141204833984 79.75458526611328 71.76363372802734 75.75914764404297 75.75907135009766 C 71.76369476318359 79.75452423095703 67.11147308349609 82.8912353515625 61.93169784545898 85.08209991455078 C 56.56977081298828 87.34999847412109 50.87311935424805 88.49992370605469 44.99999618530273 88.49992370605469 Z" stroke="none"/>
                                    <path d="M 44.99999618530273 3.000007629394531 C 39.32870864868164 3.000007629394531 33.82865142822266 4.110061645507812 28.65262603759766 6.299331665039062 C 23.65165710449219 8.414558410644531 19.15968322753906 11.44333648681641 15.301513671875 15.30150604248047 C 11.44333648681641 19.15967559814453 8.414566040039062 23.65163421630859 6.299339294433594 28.65260314941406 C 4.110054016113281 33.82863235473633 2.999992370605469 39.32867431640625 2.999992370605469 44.99996185302734 C 2.999992370605469 50.67124938964844 4.110054016113281 56.17129135131836 6.299339294433594 61.34732055664062 C 8.414566040039062 66.34828948974609 11.44333648681641 70.84024810791016 15.301513671875 74.69841766357422 C 19.15968322753906 78.55658721923828 23.65165710449219 81.58535003662109 28.65262603759766 83.70059204101562 C 33.82865142822266 85.88986206054688 39.32870864868164 86.99991607666016 44.99999618530273 86.99991607666016 C 50.67128372192383 86.99991607666016 56.17134094238281 85.88986206054688 61.34736633300781 83.70059204101562 C 66.34834289550781 81.58535003662109 70.84030914306641 78.55658721923828 74.69847869873047 74.69841766357422 C 78.55665588378906 70.84024810791016 81.58542633056641 66.34828948974609 83.70065307617188 61.34732055664062 C 85.88993835449219 56.17129135131836 87 50.67124938964844 87 44.99996185302734 C 87 39.32867431640625 85.88993835449219 33.82863235473633 83.70065307617188 28.65260314941406 C 81.58542633056641 23.65163421630859 78.55665588378906 19.15967559814453 74.69847869873047 15.30150604248047 C 70.84030914306641 11.44333648681641 66.34834289550781 8.414558410644531 61.34736633300781 6.299331665039062 C 56.17134094238281 4.110061645507812 50.67128372192383 3.000007629394531 44.99999618530273 3.000007629394531 M 44.99999618530273 7.62939453125e-06 C 69.85281372070312 7.62939453125e-06 90 20.14716339111328 90 44.99996185302734 C 90 69.85274505615234 69.85281372070312 89.99991607666016 44.99999618530273 89.99991607666016 C 20.14717864990234 89.99991607666016 -7.62939453125e-06 69.85274505615234 -7.62939453125e-06 44.99996185302734 C -7.62939453125e-06 20.14716339111328 20.14717864990234 7.62939453125e-06 44.99999618530273 7.62939453125e-06 Z" stroke="none" fill="#ff9d1c"/>
                                  </g>
                                </g>
                              </g>
                            </g>
                          </g>
                        </g>
                      </g>
                    </g>
                  </g>
                </g>
              </g>
            </g>
          </g>
        </g>
      </g>
    </g>
    <g id="procedimiento_2_" data-name="procedimiento (2)" transform="translate(215 3137.768)">
      <g id="Grupo_1242405" data-name="Grupo 1242405" transform="translate(0.996 19.727)">
        <path id="Trazado_1298190" data-name="Trazado 1298190" d="M197,159.275h-2.835a10.779,10.779,0,0,0-1.616-3.9l2-2a1.017,1.017,0,0,0,0-1.438L193,150.374a1.017,1.017,0,0,0-1.438,0l-2,2a10.774,10.774,0,0,0-3.9-1.616v-2.835a1.017,1.017,0,0,0-1.017-1.017h-2.2a1.017,1.017,0,0,0-1.017,1.017v2.835a10.779,10.779,0,0,0-3.9,1.616l-2-2a1.017,1.017,0,0,0-1.438,0l-1.558,1.558a1.017,1.017,0,0,0,0,1.438l2,2a10.777,10.777,0,0,0-1.616,3.9H170.07a1.017,1.017,0,0,0-1.017,1.017v2.2a1.017,1.017,0,0,0,1.017,1.017H172.9a10.779,10.779,0,0,0,1.616,3.9l-2,2a1.017,1.017,0,0,0,0,1.438l1.558,1.558a1.017,1.017,0,0,0,1.438,0l2-2a10.775,10.775,0,0,0,3.9,1.616v2.835a1.017,1.017,0,0,0,1.017,1.017h2.2a1.017,1.017,0,0,0,1.017-1.017v-2.835a10.779,10.779,0,0,0,3.9-1.616l2,2a1.017,1.017,0,0,0,1.438,0l1.558-1.558a1.017,1.017,0,0,0,0-1.438l-2-2a10.777,10.777,0,0,0,1.616-3.9H197a1.017,1.017,0,0,0,1.017-1.017v-2.2A1.017,1.017,0,0,0,197,159.275Zm-13.466,6.566a4.447,4.447,0,1,1,4.447-4.447A4.447,4.447,0,0,1,183.536,165.841Z" transform="translate(-147.605 -130.889)" fill="#7a8c98"/>
        <g id="Grupo_1242400" data-name="Grupo 1242400" transform="translate(25.827 16.022)">
          <path id="Trazado_1298191" data-name="Trazado 1298191" d="M268.651,147.928v2.146a.689.689,0,0,0,.689.689h2.033v-2.834a1.017,1.017,0,0,0-1.017-1.017h-2.2a1.016,1.016,0,0,0-.259.035A1.017,1.017,0,0,1,268.651,147.928Z" transform="translate(-259.15 -146.911)" fill="#6b7e89"/>
          <path id="Trazado_1298192" data-name="Trazado 1298192" d="M328.786,172.607a1.017,1.017,0,0,1,0,1.438l-1.616,1.616a.691.691,0,0,0-.1.845,10.771,10.771,0,0,1,1.209,2.918.691.691,0,0,0,.668.526h2.171a10.779,10.779,0,0,0-1.616-3.9l2-2a1.017,1.017,0,0,0,0-1.438l-1.558-1.558a1.017,1.017,0,0,0-1.438,0l-.642.642Z" transform="translate(-310.385 -167.586)" fill="#6b7e89"/>
          <path id="Trazado_1298193" data-name="Trazado 1298193" d="M203.4,173.054a10.809,10.809,0,0,1,1.766-.955l-1.05-1.05a1.017,1.017,0,0,0-1.438,0l-.642.642Z" transform="translate(-202.039 -167.587)" fill="#6b7e89"/>
          <path id="Trazado_1298194" data-name="Trazado 1298194" d="M329.5,275.857a10.777,10.777,0,0,0,1.616-3.9h-2.171a.69.69,0,0,0-.668.526,10.774,10.774,0,0,1-1.209,2.918.691.691,0,0,0,.1.845l1.616,1.616a1.017,1.017,0,0,1,0,1.438l-.916.916.642.642a1.017,1.017,0,0,0,1.438,0l1.558-1.558a1.017,1.017,0,0,0,0-1.438Z" transform="translate(-310.385 -255.356)" fill="#6b7e89"/>
          <path id="Trazado_1298195" data-name="Trazado 1298195" d="M361.8,240.043h-2.721a1.017,1.017,0,0,1,1.017,1.017v2.2a1.017,1.017,0,0,1-1.017,1.017H361.8a1.017,1.017,0,0,0,1.017-1.017v-2.2A1.017,1.017,0,0,0,361.8,240.043Z" transform="translate(-338.226 -227.679)" fill="#6b7e89"/>
          <path id="Trazado_1298196" data-name="Trazado 1298196" d="M203.4,323.9l-1.363,1.363.642.642a1.017,1.017,0,0,0,1.438,0l1.05-1.05A10.821,10.821,0,0,1,203.4,323.9Z" transform="translate(-202.039 -300.406)" fill="#6b7e89"/>
          <path id="Trazado_1298197" data-name="Trazado 1298197" d="M268.651,338.914a1.016,1.016,0,0,1-.758.982,1.015,1.015,0,0,0,.259.035h2.2a1.017,1.017,0,0,0,1.017-1.017v-2.835H269.34a.689.689,0,0,0-.689.689Z" transform="translate(-259.15 -310.965)" fill="#6b7e89"/>
        </g>
        <g id="Grupo_1242401" data-name="Grupo 1242401" transform="translate(9.143 2.253)">
          <path id="Trazado_1298198" data-name="Trazado 1298198" d="M124.124,50.482a29.519,29.519,0,0,0-11.759-7.235.9.9,0,0,0-1.186.858V46.37a.9.9,0,0,0,.6.848,25.855,25.855,0,0,1,15.4,15.033.9.9,0,0,0,.84.575H130.3a.9.9,0,0,0,.853-1.2A29.536,29.536,0,0,0,124.124,50.482ZM127.586,79.5a25.848,25.848,0,0,1-15.808,16.189.9.9,0,0,0-.6.849V98.8a.9.9,0,0,0,1.186.858,29.789,29.789,0,0,0,19.189-19.617.9.9,0,0,0-.865-1.164h-2.247a.9.9,0,0,0-.856.619ZM79.108,82.621a11.694,11.694,0,0,1-1.98.5.9.9,0,0,0-.672,1.282A29.85,29.85,0,0,0,93.941,99.659a.9.9,0,0,0,1.186-.858V96.535a.9.9,0,0,0-.6-.849A25.862,25.862,0,0,1,80.208,83.07.9.9,0,0,0,79.108,82.621Z" transform="translate(-76.365 -43.201)" fill="#d8ecfe"/>
        </g>
        <g id="Grupo_1242403" data-name="Grupo 1242403" transform="translate(9.443 2.253)">
          <g id="Grupo_1242402" data-name="Grupo 1242402">
            <path id="Trazado_1298199" data-name="Trazado 1298199" d="M348.658,50.482a29.536,29.536,0,0,1,7.028,11.142.9.9,0,0,1-.486,1.124.9.9,0,0,0,.364.079h2.286a.9.9,0,0,0,.853-1.2,29.809,29.809,0,0,0-18.786-18.377.9.9,0,0,0-1.166.675,29.592,29.592,0,0,1,9.908,6.561Z" transform="translate(-304.216 -43.202)" fill="#c4e2ff"/>
            <path id="Trazado_1298200" data-name="Trazado 1298200" d="M358.241,311.928h-2.247a.9.9,0,0,0-.383.087.9.9,0,0,1,.479,1.076,29.8,29.8,0,0,1-17.339,18.942.9.9,0,0,0,1.166.675,29.789,29.789,0,0,0,19.189-19.617A.9.9,0,0,0,358.241,311.928Z" transform="translate(-304.217 -276.252)" fill="#c4e2ff"/>
            <path id="Trazado_1298201" data-name="Trazado 1298201" d="M96.488,352.865a25.862,25.862,0,0,1-14.32-12.616.9.9,0,0,0-1.1-.449,11.7,11.7,0,0,1-1.98.5.9.9,0,0,0-.462.221.935.935,0,0,1,.94.488,25.461,25.461,0,0,0,13.906,11.857.9.9,0,0,1,.6.849v1.306a.9.9,0,0,1-.674.873q1.23.529,2.5.945a.9.9,0,0,0,1.186-.859v-2.265A.9.9,0,0,0,96.488,352.865Z" transform="translate(-78.625 -300.381)" fill="#c4e2ff"/>
          </g>
        </g>
        <g id="Grupo_1242404" data-name="Grupo 1242404" transform="translate(32.886)">
          <path id="Trazado_1298202" data-name="Trazado 1298202" d="M260.147,32.656H256.7a1.487,1.487,0,0,1-1.487-1.487v-3.45a1.487,1.487,0,0,1,1.487-1.487h3.449a1.487,1.487,0,0,1,1.487,1.487v3.449A1.487,1.487,0,0,1,260.147,32.656Z" transform="translate(-255.211 -26.232)" fill="#8ac9fe"/>
          <path id="Trazado_1298203" data-name="Trazado 1298203" d="M272.76,27.717v3.45a1.487,1.487,0,0,1-1.487,1.487H268.04a1.487,1.487,0,0,0,1.487-1.487v-3.45a1.487,1.487,0,0,0-1.487-1.487h3.233a1.487,1.487,0,0,1,1.487,1.487Z" transform="translate(-266.337 -26.23)" fill="#60b7ff"/>
          <path id="Trazado_1298204" data-name="Trazado 1298204" d="M260.147,443.807H256.7a1.487,1.487,0,0,1-1.487-1.487v-3.449a1.487,1.487,0,0,1,1.487-1.487h3.449a1.487,1.487,0,0,1,1.487,1.487v3.449A1.487,1.487,0,0,1,260.147,443.807Z" transform="translate(-255.211 -382.799)" fill="#fee45a"/>
          <path id="Trazado_1298205" data-name="Trazado 1298205" d="M272.76,438.867v3.45a1.487,1.487,0,0,1-1.487,1.487H268.04a1.487,1.487,0,0,0,1.487-1.487v-3.45a1.487,1.487,0,0,0-1.487-1.487h3.233A1.487,1.487,0,0,1,272.76,438.867Z" transform="translate(-266.337 -382.796)" fill="#fed402"/>
        </g>
        <path id="Trazado_1298206" data-name="Trazado 1298206" d="M461.052,232.038H457.6a1.487,1.487,0,0,1-1.487-1.487V227.1a1.487,1.487,0,0,1,1.487-1.487h3.449a1.487,1.487,0,0,1,1.487,1.487v3.449A1.487,1.487,0,0,1,461.052,232.038Z" transform="translate(-396.558 -199.145)" fill="#e759aa"/>
        <path id="Trazado_1298207" data-name="Trazado 1298207" d="M473.67,227.1v3.449a1.488,1.488,0,0,1-1.487,1.487H468.95a1.488,1.488,0,0,0,1.487-1.487V227.1a1.488,1.488,0,0,0-1.487-1.488h3.233A1.488,1.488,0,0,1,473.67,227.1Z" transform="translate(-407.688 -199.14)" fill="#dd4aa5"/>
        <circle id="Elipse_11557" data-name="Elipse 11557" cx="8.017" cy="8.017" r="8.017" transform="translate(0 22.487)" fill="#80d261"/>
        <path id="Trazado_1298208" data-name="Trazado 1298208" d="M54.485,195.61a8.027,8.027,0,0,0-2.052.266,8.019,8.019,0,0,1,0,15.5,8.018,8.018,0,1,0,2.052-15.769Z" transform="translate(-46.468 -173.123)" fill="#62c13a"/>
      </g>
      <g id="Grupo_1242406" data-name="Grupo 1242406" transform="translate(0 18.732)">
        <path id="Trazado_1298209" data-name="Trazado 1298209" d="M187.2,166.614l1.558-1.558a2.013,2.013,0,0,0,0-2.846l-1.447-1.447A11.686,11.686,0,0,0,188.452,158H190.5a2.015,2.015,0,0,0,2.012-2.013v-2.2a2.015,2.015,0,0,0-2.012-2.013h-2.046a11.692,11.692,0,0,0-1.143-2.758l1.447-1.447a2.012,2.012,0,0,0,0-2.846l-1.558-1.558a2.015,2.015,0,0,0-2.846,0l-1.447,1.447a11.686,11.686,0,0,0-2.758-1.143v-2.046a2.015,2.015,0,0,0-2.013-2.013h-2.2a2.015,2.015,0,0,0-2.013,2.013v2.046a11.689,11.689,0,0,0-2.758,1.143l-1.447-1.447a2.013,2.013,0,0,0-2.846,0l-1.558,1.558a2.013,2.013,0,0,0,0,2.846l1.447,1.447a11.679,11.679,0,0,0-1.143,2.758h-2.046a2.015,2.015,0,0,0-2.013,2.012v2.2A2.015,2.015,0,0,0,163.567,158h2.046a11.687,11.687,0,0,0,1.143,2.758l-1.447,1.447a2.013,2.013,0,0,0,0,2.846l1.558,1.558a2.013,2.013,0,0,0,2.846,0l1.447-1.447a11.686,11.686,0,0,0,2.758,1.143v2.046a2.015,2.015,0,0,0,2.013,2.013h2.2a2.015,2.015,0,0,0,2.013-2.013V166.31a11.689,11.689,0,0,0,2.758-1.143l1.447,1.447A2.015,2.015,0,0,0,187.2,166.614Zm-4.7-3.536a9.742,9.742,0,0,1-3.54,1.467,1,1,0,0,0-.8.977v2.835a.021.021,0,0,1-.021.021h-2.2a.021.021,0,0,1-.021-.021v-2.835a1,1,0,0,0-.8-.977,9.744,9.744,0,0,1-3.54-1.467,1,1,0,0,0-1.258.124l-2.005,2a.024.024,0,0,1-.03,0l-1.558-1.558a.023.023,0,0,1,0-.03l2-2a1,1,0,0,0,.123-1.258,9.743,9.743,0,0,1-1.467-3.54,1,1,0,0,0-.977-.8h-2.835a.021.021,0,0,1-.021-.021v-2.2a.021.021,0,0,1,.021-.021H166.4a1,1,0,0,0,.977-.8,9.743,9.743,0,0,1,1.467-3.54,1,1,0,0,0-.123-1.258l-2-2a.023.023,0,0,1,0-.03l1.558-1.558a.024.024,0,0,1,.03,0l2.005,2a1,1,0,0,0,1.258.124,9.742,9.742,0,0,1,3.54-1.467,1,1,0,0,0,.8-.977v-2.834a.021.021,0,0,1,.021-.021h2.2a.021.021,0,0,1,.021.021v2.835a1,1,0,0,0,.8.977,9.744,9.744,0,0,1,3.54,1.467,1,1,0,0,0,1.258-.124l2.005-2a.021.021,0,0,1,.03,0l1.558,1.558a.023.023,0,0,1,0,.03l-2,2a1,1,0,0,0-.123,1.258,9.741,9.741,0,0,1,1.467,3.54,1,1,0,0,0,.977.8H190.5a.021.021,0,0,1,.021.021v2.2a.021.021,0,0,1-.021.021h-2.835a1,1,0,0,0-.977.8,9.738,9.738,0,0,1-1.467,3.54,1,1,0,0,0,.123,1.258l2.005,2a.024.024,0,0,1,0,.03l-1.558,1.558a.021.021,0,0,1-.03,0l-2-2A1,1,0,0,0,182.5,163.078Z" transform="translate(-140.106 -123.391)"/>
        <path id="Trazado_1298210" data-name="Trazado 1298210" d="M242.588,216.994a3.464,3.464,0,0,1,2.994,1.733,1,1,0,0,0,1.726-.993,5.443,5.443,0,1,0-4.72,8.154,5.406,5.406,0,0,0,4.656-2.623,1,1,0,1,0-1.7-1.033,3.452,3.452,0,1,1-2.954-5.238Z" transform="translate(-205.662 -188.946)"/>
        <path id="Trazado_1298211" data-name="Trazado 1298211" d="M332.357,41.66a24.757,24.757,0,0,1,14.8,14.452,1.906,1.906,0,0,0,1.77,1.214h2.285a1.9,1.9,0,0,0,1.793-2.527A30.8,30.8,0,0,0,333.589,35.8a1.9,1.9,0,0,0-2.489,1.805v2.265a1.9,1.9,0,0,0,1.257,1.786Zm.734-3.924a28.336,28.336,0,0,1,11.244,6.954h0a28.385,28.385,0,0,1,6.749,10.644h-2.091a26.743,26.743,0,0,0-15.9-15.527Z" transform="translate(-287.143 -33.457)"/>
        <path id="Trazado_1298212" data-name="Trazado 1298212" d="M351.605,304.429h-2.247a1.894,1.894,0,0,0-1.8,1.3,24.944,24.944,0,0,1-15.2,15.563,1.9,1.9,0,0,0-1.259,1.787v2.265a1.922,1.922,0,0,0,2.489,1.805,30.312,30.312,0,0,0,12.155-7.478,30.679,30.679,0,0,0,7.68-12.8,1.9,1.9,0,0,0-1.819-2.446Zm-7.27,13.837a28.339,28.339,0,0,1-11.244,6.954v-2.071a26.951,26.951,0,0,0,16.335-16.728h2.055A28.69,28.69,0,0,1,344.336,318.266Z" transform="translate(-287.143 -266.5)"/>
        <path id="Trazado_1298213" data-name="Trazado 1298213" d="M88.348,345.431A24.71,24.71,0,0,1,74.581,333.3a1.906,1.906,0,0,0-2.315-.938h0a10.741,10.741,0,0,1-1.811.456,1.9,1.9,0,0,0-1.41,2.7,30.624,30.624,0,0,0,5.918,8.291,30.311,30.311,0,0,0,12.155,7.478,1.942,1.942,0,0,0,2.49-1.805v-2.265a1.9,1.9,0,0,0-1.259-1.787Zm-.732,3.925A28.337,28.337,0,0,1,76.372,342.4a28.642,28.642,0,0,1-5.478-7.637,12.752,12.752,0,0,0,1.947-.494,26.691,26.691,0,0,0,14.776,13.013Z" transform="translate(-59.712 -290.635)"/>
        <path id="Trazado_1298214" data-name="Trazado 1298214" d="M250.193,27.147h3.449a2.486,2.486,0,0,0,2.483-2.483v-3.45a2.486,2.486,0,0,0-2.483-2.483h-3.449a2.486,2.486,0,0,0-2.483,2.483v3.449A2.486,2.486,0,0,0,250.193,27.147Zm-.491-5.932a.492.492,0,0,1,.491-.491h3.449a.492.492,0,0,1,.491.491v3.449a.492.492,0,0,1-.491.491h-3.449a.492.492,0,0,1-.491-.491Z" transform="translate(-214.824 -18.732)"/>
        <path id="Trazado_1298215" data-name="Trazado 1298215" d="M253.643,429.883h-3.449a2.486,2.486,0,0,0-2.483,2.483v3.449a2.486,2.486,0,0,0,2.483,2.483h3.449a2.486,2.486,0,0,0,2.483-2.483v-3.449A2.486,2.486,0,0,0,253.643,429.883Zm.491,5.932a.492.492,0,0,1-.491.491h-3.449a.492.492,0,0,1-.491-.491v-3.449a.492.492,0,0,1,.491-.491h3.449a.492.492,0,0,1,.491.491Z" transform="translate(-214.825 -375.298)"/>
        <path id="Trazado_1298216" data-name="Trazado 1298216" d="M454.548,218.114H451.1a2.486,2.486,0,0,0-2.483,2.483v3.449a2.486,2.486,0,0,0,2.483,2.483h3.449a2.486,2.486,0,0,0,2.483-2.483V220.6A2.486,2.486,0,0,0,454.548,218.114Zm.491,5.932a.492.492,0,0,1-.491.491H451.1a.492.492,0,0,1-.491-.491V220.6a.492.492,0,0,1,.491-.491h3.449a.492.492,0,0,1,.491.491Z" transform="translate(-389.058 -191.644)"/>
        <path id="Trazado_1298217" data-name="Trazado 1298217" d="M41.316,237.479a1,1,0,0,0,0,1.408l1.647,1.648a1,1,0,0,0,1.408,0l3.494-3.494a1,1,0,1,0-1.408-1.408l-2.79,2.79-.943-.943a1,1,0,0,0-1.408,0Z" transform="translate(-35.578 -206.583)"/>
        <path id="Trazado_1298218" data-name="Trazado 1298218" d="M18.026,199.186a9.055,9.055,0,0,0-6.5-8.658,1,1,0,0,0-.554,1.913,7.021,7.021,0,1,1-4.049.039,1,1,0,1,0-.592-1.9,9.014,9.014,0,1,0,11.7,8.607Z" transform="translate(0 -167.686)"/>
        <path id="Trazado_1298219" data-name="Trazado 1298219" d="M139.8,24.71h7.574L145.977,26.1a1,1,0,0,0,1.408,1.408l3.093-3.093a1,1,0,0,0,0-1.408l-3.093-3.093a1,1,0,0,0-1.408,1.408l1.393,1.393H139.8a1,1,0,0,0,0,1.991Z" transform="translate(-120.374 -19.507)"/>
      </g>
    </g>
  </g>
</svg>
