<svg xmlns="http://www.w3.org/2000/svg" xmlns:xlink="http://www.w3.org/1999/xlink" width="400" height="493" viewBox="0 0 400 493">
  <defs>
    <clipPath id="clip-path">
      <rect id="Rectángulo_423434" data-name="Rectángulo 423434" width="400" height="493" transform="translate(1020 4333)" fill="#fff" stroke="#707070" stroke-width="1"/>
    </clipPath>
  </defs>
  <g id="Grupo_1242458" data-name="Grupo 1242458" transform="translate(-1020 -4333)">
    <rect id="Rectángulo_423449" data-name="Rectángulo 423449" width="261" height="493" transform="translate(1066 4333)" fill="#e9f9fd"/>
    <g id="Enmascarar_grupo_1211540" data-name="Enmascarar grupo 1211540" clip-path="url(#clip-path)">
      <g id="Grupo_1242457" data-name="Grupo 1242457" transform="translate(-780.69 3733.652)">
        <g id="Grupo_1242426" data-name="Grupo 1242426" transform="translate(1836.152 654.546)">
          <g id="Grupo_1242424" data-name="Grupo 1242424">
            <path id="Trazado_1298383" data-name="Trazado 1298383" d="M2168.949,948.387a11.133,11.133,0,0,0-2.138.754c-16.725-52.975-51.751-156.385-79.939-189.385l3.565-3.017c29.156,34.137,64.3,138.168,80.99,191.318A14.432,14.432,0,0,0,2168.949,948.387Z" transform="translate(-2050.893 -715.43)" fill="#b0c66b"/>
            <g id="Grupo_1242413" data-name="Grupo 1242413" transform="translate(1.564)">
              <path id="Trazado_1298384" data-name="Trazado 1298384" d="M2007.325,655.322c-7.348-.227-5.444,6.506-1.2,14.313s14,9.484,20,16.176,5.18,12.716,10.294,16.836,12.955,8.117,10.879,3.422-5.42-3.671-6.718-10.469-6.44-23.434-12.24-27.033S2014.445,655.542,2007.325,655.322Z" transform="translate(-2002.374 -655.316)" fill="#b0c66b"/>
            </g>
            <g id="Grupo_1242414" data-name="Grupo 1242414" transform="translate(50.043 5.596)">
              <path id="Trazado_1298385" data-name="Trazado 1298385" d="M2131.107,670.666c-4.644-4.477-7.414,1.024-9.3,8.6s3.462,14.419,3.378,22.3-4.2,11.323-3.327,17.015,3.594,12.912,5.039,8.636-1.34-5.581,1.863-10.767,9.761-19.036,8.132-24.794S2135.608,675,2131.107,670.666Z" transform="translate(-2121.402 -669.056)" fill="#b0c66b"/>
            </g>
            <g id="Grupo_1242415" data-name="Grupo 1242415" transform="translate(0 49.258)">
              <path id="Trazado_1298386" data-name="Trazado 1298386" d="M1999.079,782.093c-2.448-5.955,3.716-6.464,11.487-5.386s12.163,8.564,19.551,11.423,12.127.337,17.113,3.262,10.708,8.126,6.181,7.867-4.708-3.315-10.738-2.289-21.393,1.927-26.158-1.722S2001.449,787.864,1999.079,782.093Z" transform="translate(-1998.535 -776.256)" fill="#b0c66b"/>
            </g>
            <g id="Grupo_1242416" data-name="Grupo 1242416" transform="translate(70.229 47.791)">
              <path id="Trazado_1298387" data-name="Trazado 1298387" d="M2184.407,774.542c-4.234-4.863-7.475.376-10.021,7.761s2.183,14.664,1.408,22.513-5.178,10.915-4.809,16.661,2.448,13.175,4.261,9.041-.845-5.677,2.8-10.564,11.4-18.115,10.277-23.993S2188.509,779.255,2184.407,774.542Z" transform="translate(-2170.964 -772.656)" fill="#b0c66b"/>
            </g>
            <g id="Grupo_1242417" data-name="Grupo 1242417" transform="translate(20.137 86.859)">
              <path id="Trazado_1298388" data-name="Trazado 1298388" d="M2048.329,873.958c-1.916-6.145,4.269-6.117,11.916-4.367s11.365,9.588,18.474,13.078,12.051,1.389,16.761,4.736,9.954,9.025,5.467,8.374-4.4-3.712-10.5-3.213-21.48.061-25.907-3.988S2050.186,879.913,2048.329,873.958Z" transform="translate(-2047.977 -868.577)" fill="#b0c66b"/>
            </g>
            <g id="Grupo_1242418" data-name="Grupo 1242418" transform="translate(88.231 91.554)">
              <path id="Trazado_1298389" data-name="Trazado 1298389" d="M2228.606,881.99c-4.234-4.863-7.476.376-10.021,7.761s2.183,14.664,1.408,22.513-5.178,10.915-4.809,16.661,2.448,13.175,4.262,9.041-.845-5.676,2.8-10.564,11.4-18.115,10.277-23.993S2232.712,886.7,2228.606,881.99Z" transform="translate(-2215.163 -880.104)" fill="#b0c66b"/>
            </g>
            <g id="Grupo_1242419" data-name="Grupo 1242419" transform="translate(38.14 130.622)">
              <path id="Trazado_1298390" data-name="Trazado 1298390" d="M2092.528,981.406c-1.915-6.145,4.269-6.117,11.917-4.367s11.364,9.588,18.473,13.078,12.051,1.389,16.762,4.736,9.954,9.025,5.466,8.374-4.4-3.712-10.5-3.213-21.48.061-25.907-3.988S2094.386,987.362,2092.528,981.406Z" transform="translate(-2092.177 -976.025)" fill="#b0c66b"/>
            </g>
            <g id="Grupo_1242420" data-name="Grupo 1242420" transform="translate(102.582 134.692)">
              <path id="Trazado_1298391" data-name="Trazado 1298391" d="M2268.922,988.256c-3.675-5.294-7.472-.437-10.812,6.627s.561,14.814-1.07,22.531-6.344,10.287-6.608,16.039.987,13.362,3.244,9.449-.217-5.734,3.943-10.2,13.314-16.77,12.847-22.734S2272.482,993.386,2268.922,988.256Z" transform="translate(-2250.397 -986.017)" fill="#b0c66b"/>
            </g>
            <g id="Grupo_1242421" data-name="Grupo 1242421" transform="translate(54.635 173.186)">
              <path id="Trazado_1298392" data-name="Trazado 1298392" d="M2133.028,1085.909c-1.915-6.145,4.269-6.117,11.916-4.367s11.365,9.588,18.474,13.078,12.051,1.389,16.761,4.736,9.954,9.025,5.467,8.374-4.4-3.712-10.5-3.213-21.48.061-25.907-3.988S2134.886,1091.864,2133.028,1085.909Z" transform="translate(-2132.677 -1080.528)" fill="#b0c66b"/>
            </g>
            <g id="Grupo_1242422" data-name="Grupo 1242422" transform="translate(116.829 191.034)">
              <path id="Trazado_1298393" data-name="Trazado 1298393" d="M2301.251,1143.158c.334,4.679-6.911,14.281-10.2,17.758a7.019,7.019,0,0,0-2.234,5.047,14.862,14.862,0,0,0-2.219.309c-.327.074-.653.185-.979.293a27.7,27.7,0,0,1-.208-5.1c.238-4.51,3.947-6.5,5.268-12.542s-1.7-12.141.96-17.662,5.661-9.309,8.514-5.138C2302.925,1130.161,2300.917,1138.478,2301.251,1143.158Z" transform="translate(-2285.379 -1124.349)" fill="#b0c66b"/>
            </g>
            <g id="Grupo_1242423" data-name="Grupo 1242423" transform="translate(79.248 213.347)">
              <path id="Trazado_1298394" data-name="Trazado 1298394" d="M2202,1179.87c5.543,1.268,8.238,6.95,13.391,9.48s8.735,1.007,12.15,3.433c2.763,1.963,5.714,4.994,5.039,5.843-.221.04-.448.068-.664.116-.122.028-.242.076-.364.109-.022,0-.027,0-.05,0-3.252-.471-3.188-2.69-7.608-2.328s-15.57.044-18.779-2.891-10.407-6.281-11.753-10.6C2191.972,1178.583,2196.456,1178.6,2202,1179.87Z" transform="translate(-2193.106 -1179.134)" fill="#b0c66b"/>
            </g>
          </g>
          <g id="Grupo_1242425" data-name="Grupo 1242425" transform="translate(0.341 120.594)">
            <path id="Trazado_1298395" data-name="Trazado 1298395" d="M2083.224,1090.944c-1.741-9.771-3.342-19.528-4.9-29.139l-1.5-9.191c-1.355-8.3-2.893-17.7-6.874-26.084-5.625-11.834-15.823-21.038-24.822-29.161a1.063,1.063,0,0,0-1.485.07,1.046,1.046,0,0,0,.07,1.477c8.857,7.992,18.894,17.048,24.34,28.51,3.854,8.114,5.368,17.364,6.7,25.524l1.493,9.188c1.5,9.255,3.037,18.647,4.7,28.059A10.063,10.063,0,0,1,2083.224,1090.944Z" transform="translate(-2025.455 -978.488)" fill="#8fa159"/>
            <path id="Trazado_1298396" data-name="Trazado 1298396" d="M1999.974,959a19.389,19.389,0,0,1,4.08-5.077c1.767-1.576,4.088-2.9,6.411-2.419a9.379,9.379,0,0,1,3.57,1.94,20.026,20.026,0,0,1,5.242,5.044,17.942,17.942,0,0,1,1.626,3.664c1.048,3,1.94,6.3.887,9.3a4.433,4.433,0,0,1-2.371,2.776,6.182,6.182,0,0,1-2.717.2c-3.173-.243-6.538-.555-9.082-2.458a15.732,15.732,0,0,1-2.764-2.886q-2.358-2.956-4.534-6.05a4.141,4.141,0,0,1-.948-2.135A3.767,3.767,0,0,1,1999.974,959Z" transform="translate(-1999.373 -951.404)" fill="#8fa159"/>
            <path id="Trazado_1298397" data-name="Trazado 1298397" d="M2075.406,996.77a6.554,6.554,0,0,1-1.335-7.681l1.347-3.8c.677-1.909,1.421-3.914,2.987-5.205,2.754-2.27,7.246-1.316,9.585,1.375a10.322,10.322,0,0,1,1.731,9.85,14.51,14.51,0,0,1-6.666,7.782,5.743,5.743,0,0,1-3.586.98C2077.687,999.817,2076.445,998.237,2075.406,996.77Z" transform="translate(-2043.235 -967.651)" fill="#8fa159"/>
            <path id="Trazado_1298398" data-name="Trazado 1298398" d="M2106.043,1039.318a7.929,7.929,0,0,1,.577-4.5,8.03,8.03,0,0,1,2.03-2.121l2.855-2.331a10.427,10.427,0,0,1,4.806-2.66c3.229-.478,6.284,2.379,6.832,5.581a9.438,9.438,0,0,1-3.329,8.506,13.338,13.338,0,0,1-8.9,2.943,5.239,5.239,0,0,1-3.266-.921C2106.372,1042.772,2106.157,1040.952,2106.043,1039.318Z" transform="translate(-2062.557 -996.595)" fill="#8fa159"/>
            <path id="Trazado_1298399" data-name="Trazado 1298399" d="M2123.948,1087.213a5.984,5.984,0,0,1,.973-7.05l2.227-2.932a10.389,10.389,0,0,1,4.046-3.707c3.027-1.217,6.669.848,7.957,3.833a9.423,9.423,0,0,1-1.232,9.046,13.307,13.307,0,0,1-7.962,4.937,5.247,5.247,0,0,1-3.392-.134C2125.084,1090.492,2124.441,1088.773,2123.948,1087.213Z" transform="translate(-2072.813 -1023.575)" fill="#8fa159"/>
            <path id="Trazado_1298400" data-name="Trazado 1298400" d="M2026.967,1034.43l1.322,4.6c.38,1.323.891,2.8,2.15,3.37a4.459,4.459,0,0,0,2.847.006,26.492,26.492,0,0,0,12.051-6.553,3.081,3.081,0,0,0,.958-1.355c.233-.879-.292-1.767-.4-2.671a15.2,15.2,0,0,0-.07-2.327,3.665,3.665,0,0,0-1.718-1.94,13.565,13.565,0,0,0-15.837,1.239,5.031,5.031,0,0,0-1.63,2.287A6.145,6.145,0,0,0,2026.967,1034.43Z" transform="translate(-2015.462 -995.364)" fill="#8fa159"/>
            <path id="Trazado_1298401" data-name="Trazado 1298401" d="M2063.786,1069.642l1.044,3.633a3.834,3.834,0,0,0,1.7,2.663,3.52,3.52,0,0,0,2.25,0,20.938,20.938,0,0,0,9.524-5.179,2.437,2.437,0,0,0,.758-1.071c.184-.695-.231-1.4-.312-2.111a12.019,12.019,0,0,0-.055-1.839,2.9,2.9,0,0,0-1.358-1.533,10.72,10.72,0,0,0-12.516.979,3.978,3.978,0,0,0-1.288,1.807A4.906,4.906,0,0,0,2063.786,1069.642Z" transform="translate(-2037.342 -1017.335)" fill="#8fa159"/>
            <path id="Trazado_1298402" data-name="Trazado 1298402" d="M2074.416,1105.089q-.221,1.876-.442,3.753c-.127,1.08-.207,2.313.538,3.109a3.514,3.514,0,0,0,2.075.866,21.008,21.008,0,0,0,10.794-1.131,2.448,2.448,0,0,0,1.113-.7c.439-.571.327-1.377.529-2.067a12.022,12.022,0,0,0,.661-1.718,2.885,2.885,0,0,0-.66-1.935,10.707,10.707,0,0,0-11.93-3.891,4,4,0,0,0-1.888,1.175A4.862,4.862,0,0,0,2074.416,1105.089Z" transform="translate(-2043.541 -1039.98)" fill="#8fa159"/>
            <path id="Trazado_1298403" data-name="Trazado 1298403" d="M2133.707,1141.424a3.767,3.767,0,0,1-2.8-1.621,6.152,6.152,0,0,1-.6-5.447,15.072,15.072,0,0,1,2.96-4.824q1.514-1.824,3.177-3.519a9.333,9.333,0,0,1,3.785-2.664,6,6,0,0,1,6.681,3.046,8.381,8.381,0,0,1-.174,7.617,14.727,14.727,0,0,1-5.484,5.6,9.115,9.115,0,0,1-3.091,1.35c-.857.162-1.74.123-2.605.239A10.957,10.957,0,0,1,2133.707,1141.424Z" transform="translate(-2076.764 -1053.198)" fill="#8fa159"/>
            <path id="Trazado_1298404" data-name="Trazado 1298404" d="M2098.672,1150.355a8.094,8.094,0,0,0-1.158-2.076c-1.973-2.83-4.474-5.893-7.93-6.07a5.919,5.919,0,0,0-4.748,2.053,1.792,1.792,0,0,0-.446.819,1.986,1.986,0,0,0,.26,1.154,29.31,29.31,0,0,0,4.174,6.042c1.62,1.963,3.464,4.045,5.977,4.492a3.261,3.261,0,0,0,3.577-1.45,4.4,4.4,0,0,0,.294-1.164A8.21,8.21,0,0,0,2098.672,1150.355Z" transform="translate(-2049.753 -1064.491)" fill="#8fa159"/>
            <path id="Trazado_1298405" data-name="Trazado 1298405" d="M2137.768,1186.3a10.481,10.481,0,0,1,1.656-2.282c1.912-2.449,2.5-5.942,5.046-7.732a5.493,5.493,0,0,1,6.048-.124,5.038,5.038,0,0,1,1.973,5.623,9.549,9.549,0,0,1-3.324,3.969l-3,2.473a13.02,13.02,0,0,1-3.207,2.148,4.423,4.423,0,0,1-3.752-.015A3.339,3.339,0,0,1,2137.768,1186.3Z" transform="translate(-2081.269 -1084.118)" fill="#8fa159"/>
            <path id="Trazado_1298406" data-name="Trazado 1298406" d="M2098.442,1188.19c-1.439-.751-3.127-1.518-4.622-.885-1.735.735-2.24,2.992-1.955,4.846a7.443,7.443,0,0,0,1.094,2.981c1.9,2.872,5.742,3.593,9.164,4.062a4.722,4.722,0,0,0,1.427.049,2.871,2.871,0,0,0,2.159-2.1,4.657,4.657,0,0,0-.354-3.091C2104.1,1191.245,2101.175,1189.62,2098.442,1188.19Z" transform="translate(-2054.149 -1091.085)" fill="#8fa159"/>
          </g>
        </g>
        <g id="Grupo_1242429" data-name="Grupo 1242429" transform="translate(1916.916 683.623)">
          <g id="Grupo_1242427" data-name="Grupo 1242427" transform="translate(0 0)">
            <path id="Trazado_1298407" data-name="Trazado 1298407" d="M2418.89,764.8a2.71,2.71,0,0,0-2.717-2.7h-264.03a2.711,2.711,0,0,0-2.717,2.7v359.823a2.71,2.71,0,0,0,2.717,2.7h264.03a2.71,2.71,0,0,0,2.717-2.7Z" transform="translate(-2149.425 -721.511)" fill="#7d89bd"/>
            <rect id="Rectángulo_423440" data-name="Rectángulo 423440" width="253.746" height="346.242" transform="translate(7.858 49.144)" fill="#fff"/>
            <path id="Trazado_1298408" data-name="Trazado 1298408" d="M2454.271,687.521h-47.116a21.727,21.727,0,0,0,2.561-10.238,22.081,22.081,0,0,0-44.162,0,21.727,21.727,0,0,0,2.561,10.238H2321a4.647,4.647,0,0,0-4.659,4.635v13.236h142.592V692.156A4.648,4.648,0,0,0,2454.271,687.521Zm-66.636-18.8a8.563,8.563,0,1,1-8.607,8.562A8.595,8.595,0,0,1,2387.635,668.72Z" transform="translate(-2252.902 -655.317)" fill="#33bac1"/>
          </g>
          <rect id="Rectángulo_423441" data-name="Rectángulo 423441" width="43.096" height="42.871" transform="translate(33.922 215.651)" fill="#fcb036"/>
          <path id="Trazado_1298409" data-name="Trazado 1298409" d="M2265.867,1270.465a2.577,2.577,0,0,1-1.816-.748l-10.272-10.218a2.545,2.545,0,0,1,0-3.612,2.576,2.576,0,0,1,3.632,0l8.311,8.268,17.457-20.257a2.571,2.571,0,0,1,3.619-.277,2.539,2.539,0,0,1,.279,3.6l-19.26,22.353a2.568,2.568,0,0,1-1.851.891C2265.931,1270.465,2265.9,1270.465,2265.867,1270.465Z" transform="translate(-2213.652 -1019.647)" fill="#fff"/>
          <rect id="Rectángulo_423442" data-name="Rectángulo 423442" width="43.096" height="42.871" transform="translate(35.161 292.241)" fill="#fcb036"/>
          <path id="Trazado_1298410" data-name="Trazado 1298410" d="M2269.137,1471.986a2.578,2.578,0,0,1-1.816-.748l-10.272-10.219a2.545,2.545,0,0,1,0-3.612,2.576,2.576,0,0,1,3.631,0l8.311,8.268,17.456-20.257a2.572,2.572,0,0,1,3.619-.277,2.539,2.539,0,0,1,.278,3.6l-19.259,22.353a2.567,2.567,0,0,1-1.851.891C2269.2,1471.986,2269.171,1471.986,2269.137,1471.986Z" transform="translate(-2215.679 -1144.577)" fill="#fff"/>
          <path id="Trazado_1298411" data-name="Trazado 1298411" d="M2511.384,1247.426H2382.39a5.571,5.571,0,0,1,0-11.142h128.994a5.571,5.571,0,1,1,0,11.142Z" transform="translate(-2290.395 -1015.481)" fill="#e4e6f0"/>
          <path id="Trazado_1298412" data-name="Trazado 1298412" d="M2446.878,1303.806h-64.5a5.571,5.571,0,0,1,0-11.142h64.5a5.571,5.571,0,1,1,0,11.142Z" transform="translate(-2290.39 -1050.433)" fill="#e4e6f0"/>
          <path id="Trazado_1298413" data-name="Trazado 1298413" d="M2511.384,1448.946H2382.39a5.571,5.571,0,0,1,0-11.142h128.994a5.571,5.571,0,1,1,0,11.142Z" transform="translate(-2290.395 -1140.411)" fill="#e4e6f0"/>
          <path id="Trazado_1298414" data-name="Trazado 1298414" d="M2446.878,1505.316h-64.5a5.571,5.571,0,0,1,0-11.142h64.5a5.571,5.571,0,1,1,0,11.142Z" transform="translate(-2290.39 -1175.358)" fill="#e4e6f0"/>
          <g id="Grupo_1242428" data-name="Grupo 1242428" transform="translate(86.735 83.745)">
            <path id="Trazado_1298415" data-name="Trazado 1298415" d="M2377.64,877.667H2389.3a20.681,20.681,0,0,1,4.362.445,10.388,10.388,0,0,1,3.617,1.482,7.409,7.409,0,0,1,2.469,2.795,9.428,9.428,0,0,1,.915,4.382,8.769,8.769,0,0,1-1.66,5.4,7.48,7.48,0,0,1-4.852,2.815l7.66,12.66h-7.958l-6.3-11.982h-3.277v11.982h-6.639V877.667Zm6.64,12.406h3.916q.894,0,1.894-.063a5.951,5.951,0,0,0,1.809-.381,3.13,3.13,0,0,0,1.341-.995,3.016,3.016,0,0,0,.532-1.905,2.915,2.915,0,0,0-1.66-2.858,5.331,5.331,0,0,0-1.66-.487,13.6,13.6,0,0,0-1.83-.127h-4.341Z" transform="translate(-2377.64 -876.906)" fill="#7d89bd"/>
            <path id="Trazado_1298416" data-name="Trazado 1298416" d="M2449.98,877.667h6.639v29.977h-6.639Z" transform="translate(-2422.486 -876.906)" fill="#7d89bd"/>
            <path id="Trazado_1298417" data-name="Trazado 1298417" d="M2494.574,883.75a4.736,4.736,0,0,0-2.192-1.5,7.906,7.906,0,0,0-2.618-.487,6.911,6.911,0,0,0-1.49.17,5.75,5.75,0,0,0-1.448.529,3.145,3.145,0,0,0-1.106.953,2.628,2.628,0,0,0,.6,3.514,9.673,9.673,0,0,0,2.575,1.228q1.553.508,3.341,1.016a13.839,13.839,0,0,1,3.341,1.44,7.9,7.9,0,0,1,2.575,2.5,7.582,7.582,0,0,1,1.021,4.192,9.6,9.6,0,0,1-.937,4.361,8.854,8.854,0,0,1-2.532,3.091,10.779,10.779,0,0,1-3.7,1.82,17.063,17.063,0,0,1-9.9-.3,13.651,13.651,0,0,1-4.681-2.879l4.724-5.165a6.88,6.88,0,0,0,2.575,2.1,7.275,7.275,0,0,0,4.852.55,5.352,5.352,0,0,0,1.489-.572,3.212,3.212,0,0,0,1.064-.974,2.418,2.418,0,0,0,.4-1.4,2.531,2.531,0,0,0-1.043-2.138,9.644,9.644,0,0,0-2.617-1.334q-1.575-.549-3.4-1.1a15.293,15.293,0,0,1-3.4-1.482,8.175,8.175,0,0,1-2.617-2.456,6.994,6.994,0,0,1-1.043-4.022,8.966,8.966,0,0,1,.958-4.234,9.2,9.2,0,0,1,2.554-3.049,11.125,11.125,0,0,1,3.681-1.842,15.15,15.15,0,0,1,4.3-.614,16.992,16.992,0,0,1,4.937.72,11.425,11.425,0,0,1,4.3,2.413Z" transform="translate(-2439.499 -875.664)" fill="#7d89bd"/>
            <path id="Trazado_1298418" data-name="Trazado 1298418" d="M2548.3,877.667h6.639v12.448l11.7-12.448h8.682l-13.406,13.93,14.555,16.047H2567.2l-12.257-14.227v14.227H2548.3Z" transform="translate(-2483.439 -876.906)" fill="#7d89bd"/>
          </g>
          <rect id="Rectángulo_423443" data-name="Rectángulo 423443" width="43.095" height="42.871" transform="translate(33.953 143.923)" fill="#fcb036"/>
          <path id="Trazado_1298419" data-name="Trazado 1298419" d="M2265.956,1081.735a2.577,2.577,0,0,1-1.815-.748l-10.272-10.218a2.545,2.545,0,0,1,0-3.612,2.576,2.576,0,0,1,3.631,0l8.311,8.267,17.457-20.257a2.571,2.571,0,0,1,3.619-.277,2.54,2.54,0,0,1,.279,3.6l-19.26,22.353a2.567,2.567,0,0,1-1.85.891C2266.021,1081.735,2265.987,1081.735,2265.956,1081.735Z" transform="translate(-2213.708 -902.646)" fill="#fff"/>
          <path id="Trazado_1298420" data-name="Trazado 1298420" d="M2511.464,1058.7H2382.47a5.571,5.571,0,0,1,0-11.142h128.994a5.571,5.571,0,0,1,0,11.142Z" transform="translate(-2290.445 -898.48)" fill="#e4e6f0"/>
          <path id="Trazado_1298421" data-name="Trazado 1298421" d="M2446.968,1115.076h-64.5a5.571,5.571,0,1,1,0-11.142h64.5a5.571,5.571,0,0,1,0,11.142Z" transform="translate(-2290.446 -933.432)" fill="#e4e6f0"/>
        </g>
        <g id="Grupo_1242444" data-name="Grupo 1242444" transform="translate(1804.906 794.682)">
          <path id="Trazado_1298422" data-name="Trazado 1298422" d="M2131.93,1209.448c.517.358,8.768,3.206,12.946-3.31s-5.727-13.355-5.727-13.355Z" transform="translate(-1972.146 -1114.013)" fill="#f0b48f"/>
          <g id="Grupo_1242442" data-name="Grupo 1242442" transform="translate(0 0)">
            <path id="Trazado_1298423" data-name="Trazado 1298423" d="M1884.694,1064.5c-2.863,0-5.215-1.963-6.286-5.253-.935-2.871-.662-6.656,1.669-8.334a59.074,59.074,0,0,1,7.418-4.364,30.476,30.476,0,0,0,2.768-1.536c.993-.687.294-2.546-.516-4.7-.325-.863-.66-1.754-.913-2.646-.847-2.985.925-5.255,5.126-6.566.372-.116.744-.227,1.114-.335,3.116-.924,5.806-1.724,6.164-5.337.582-5.883,2.039-10.021,4.329-12.3a.264.264,0,0,1,.374.372c-2.2,2.19-3.609,6.22-4.181,11.98-.391,3.965-3.375,4.85-6.536,5.787-.366.108-.736.219-1.108.333-3.936,1.229-5.543,3.223-4.777,5.924.247.871.58,1.753.9,2.6.886,2.358,1.65,4.392.323,5.312a30.408,30.408,0,0,1-2.824,1.571,58.484,58.484,0,0,0-7.354,4.325c-2.127,1.531-2.353,5.057-1.476,7.748,1,3.063,3.159,4.891,5.784,4.891a.262.262,0,1,1,0,.523Z" transform="translate(-1816.713 -1007.487)" fill="#88442b"/>
            <path id="Trazado_1298424" data-name="Trazado 1298424" d="M1917.272,1000.218c-2.744.666-7.915,2.6-9.275,9.887s.941,10.823-2.825,12.592-9.624,2.706-9.206,7.6,3.033,6.556-.314,9.054-10.461,4.163-9.519,9.47,7.741,8.222,7.741,8.222,17.888-6.765,18.516-7.181,22.072-8.846,22.072-8.846,8.683-3.33,7.636-10.2-3.557-7.077-4.08-10.823.837-7.181,0-11.656S1930.558,996.993,1917.272,1000.218Z" transform="translate(-1821.539 -999.385)" fill="#88442b"/>
            <g id="Grupo_1242431" data-name="Grupo 1242431" transform="translate(93.16 245.311)">
              <path id="Trazado_1298425" data-name="Trazado 1298425" d="M1958.236,1680.787c-1.839.384-1.341,6.392-.834,10.441a56.689,56.689,0,0,0,1.152,6.533c3.41.538,12.991.319,13.386.06s.416-4.829,1.466-4.955,1.424,4.446,3.521,4.977,20.855,2.7,23.492.1,2.83-16.439.076-16.843-18.635-.214-26.376-.771A93.97,93.97,0,0,0,1958.236,1680.787Z" transform="translate(-1956.713 -1648.2)" fill="#fcb036"/>
              <path id="Trazado_1298426" data-name="Trazado 1298426" d="M1960.13,1677.994c1.7,2.162,4.058,2.27,7.5,2.09s5.122-.76,8.565-.255,20.569.777,23.327.3,4.043-1.745,2.569-2.241-40.641-2.434-40.641-2.434Z" transform="translate(-1958.608 -1645.406)" fill="#313440"/>
              <path id="Trazado_1298427" data-name="Trazado 1298427" d="M1963.234,1601.68s-4.515,13.594-5.134,19.858-2.606,10.368-1.237,12.333,8.856.627,11.218.638,11.413,1.03,18.3,1.061,15.75-.125,15.364-1.89a2.1,2.1,0,0,0-1.961-1.771,1.635,1.635,0,0,0-.975-2.159c-1.572-.595-12.2-1.817-15.136-4.964s-6.5-6.732-1.754-23.106Z" transform="translate(-1956.392 -1601.68)" fill="#f0b48f"/>
              <path id="Trazado_1298428" data-name="Trazado 1298428" d="M2054.3,1673.986a.243.243,0,0,0,.041-.088.233.233,0,0,0-.178-.28,17.369,17.369,0,0,0-2.8-.409c-.954-.005-1.857-.008-3.233-.111a.233.233,0,0,0-.252.217.236.236,0,0,0,.218.25c1.392.1,2.3.107,3.265.112a17.3,17.3,0,0,1,2.7.4A.239.239,0,0,0,2054.3,1673.986Z" transform="translate(-2010.613 -1644.01)" fill="#313440"/>
              <path id="Trazado_1298429" data-name="Trazado 1298429" d="M1976.262,1643.279a1.915,1.915,0,0,0,.115-.17.235.235,0,0,0-.089-.319.249.249,0,0,0-.321.088,4.774,4.774,0,0,1-1.975,1.562c-1.367.672-2.628-1.373-2.64-1.393a.234.234,0,1,0-.4.24c.059.1,1.5,2.434,3.251,1.573A5.714,5.714,0,0,0,1976.262,1643.279Z" transform="translate(-1965.002 -1626.03)" fill="#313440"/>
              <path id="Trazado_1298430" data-name="Trazado 1298430" d="M2022.629,1667.5s1.21-6.523,3.185-7.82c0,0-8.134-.559-14.279-5.939,0,0-5.28,6.635-5.049,13.687Z" transform="translate(-1986.079 -1632.536)" fill="#313440"/>
              <g id="Grupo_1242430" data-name="Grupo 1242430" transform="translate(0.224 36.151)">
                <path id="Trazado_1298431" data-name="Trazado 1298431" d="M1958.936,1713.334c-.021-.131-.043-.28-.064-.417.481.1.965.2,1.438.31,3.277.732,6.662,1.488,10.007,1.054.891-.115,1.79-.318,2.661-.513.268-.06.539-.12.811-.178q-.049.2-.092.422l-.631.139c-.879.2-1.788.4-2.7.519-3.414.439-6.835-.321-10.144-1.062C1959.8,1713.513,1959.364,1713.427,1958.936,1713.334Z" transform="translate(-1958.086 -1703.762)" fill="#313440"/>
                <path id="Trazado_1298432" data-name="Trazado 1298432" d="M1999.661,1714.006c-.053-.131-.1-.256-.157-.374a12.151,12.151,0,0,1,1.705-.144h.068a19.85,19.85,0,0,1,3.973.561c.385.083.771.164,1.156.238a52.867,52.867,0,0,0,12.537.576c2.722-.135,5.463-.37,8.174-.67-.03.14-.066.268-.1.4-2.673.294-5.374.525-8.056.658-1.458.072-3.017.127-4.634.12a43.4,43.4,0,0,1-8-.7c-.388-.075-.775-.158-1.163-.239a18.674,18.674,0,0,0-3.958-.553A11.137,11.137,0,0,0,1999.661,1714.006Z" transform="translate(-1982.169 -1704.1)" fill="#313440"/>
                <path id="Trazado_1298433" data-name="Trazado 1298433" d="M1992.146,1703.186c-2.078-.075-4.176-.329-6.2-.574a56.635,56.635,0,0,0-7.928-.588,57.372,57.372,0,0,0-6.915.695,53.035,53.035,0,0,1-7.6.7h-.192a32.9,32.9,0,0,1-5.617-.6c-.015-.135-.031-.27-.046-.408a32.869,32.869,0,0,0,5.667.617h.189a52.467,52.467,0,0,0,7.541-.7,58.288,58.288,0,0,1,6.963-.7,56.181,56.181,0,0,1,7.983.591c2.021.243,4.11.5,6.171.571a36.746,36.746,0,0,0,10.732-1.233c0,.136-.009.273-.013.409A37.053,37.053,0,0,1,1992.146,1703.186Z" transform="translate(-1957.36 -1697.032)" fill="#313440"/>
                <path id="Trazado_1298434" data-name="Trazado 1298434" d="M2002.241,1690.826a7.072,7.072,0,0,1-2.337.507c-7.041.639-14.323,1.3-21.458.094-.262-.044-.524-.091-.787-.136a17.517,17.517,0,0,0-3.65-.394,17.905,17.905,0,0,0-2.378.294c-.5.085-1.012.172-1.524.231a28.3,28.3,0,0,1-3.368.12h-.052l-5.554-.029a14.226,14.226,0,0,1-4.19-.469c0-.138,0-.275,0-.409a13.441,13.441,0,0,0,4.188.487l5.592.03h.036a27.935,27.935,0,0,0,3.3-.117c.5-.057,1.01-.144,1.5-.227a18.119,18.119,0,0,1,2.431-.3,17.885,17.885,0,0,1,3.732.4c.261.047.522.094.784.138,7.084,1.193,14.341.535,21.357-.1a6.452,6.452,0,0,0,2.3-.506C2002.192,1690.57,2002.22,1690.692,2002.241,1690.826Z" transform="translate(-1956.943 -1690.439)" fill="#313440"/>
              </g>
            </g>
            <g id="Grupo_1242433" data-name="Grupo 1242433" transform="translate(0 239.828)">
              <path id="Trazado_1298435" data-name="Trazado 1298435" d="M1771.906,1680.787c1.839.384,1.341,6.392.835,10.441a56.669,56.669,0,0,1-1.152,6.533c-3.41.538-12.991.319-13.386.06s-.415-4.829-1.466-4.955-1.423,4.446-3.521,4.977-20.855,2.7-23.492.1-2.83-16.439-.076-16.843,18.635-.214,26.376-.771A94,94,0,0,1,1771.906,1680.787Z" transform="translate(-1727.662 -1642.718)" fill="#fcb036"/>
              <path id="Trazado_1298436" data-name="Trazado 1298436" d="M1774.323,1677.994c-1.7,2.162-4.058,2.27-7.5,2.09s-5.122-.76-8.564-.255-20.569.777-23.327.3-4.044-1.745-2.569-2.241,40.641-2.434,40.641-2.434Z" transform="translate(-1730.079 -1639.924)" fill="#313440"/>
              <path id="Trazado_1298437" data-name="Trazado 1298437" d="M1781.09,1588.22s-9.424,19.075-8.805,25.339,2.606,10.369,1.237,12.333-8.856.627-11.218.638-11.413,1.03-18.3,1.061-15.75-.125-15.364-1.89a2.1,2.1,0,0,1,1.961-1.771,1.635,1.635,0,0,1,.975-2.159c1.572-.595,12.2-1.817,15.136-4.964s8.021-8.814,10.951-27.546Z" transform="translate(-1728.232 -1588.22)" fill="#f0b48f"/>
              <path id="Trazado_1298438" data-name="Trazado 1298438" d="M1732.692,1673.986a.245.245,0,0,1-.041-.088.233.233,0,0,1,.178-.28,17.369,17.369,0,0,1,2.8-.409c.954-.005,1.857-.008,3.234-.111a.233.233,0,0,1,.252.217.236.236,0,0,1-.218.25c-1.392.1-2.3.107-3.265.112a17.3,17.3,0,0,0-2.7.4A.243.243,0,0,1,1732.692,1673.986Z" transform="translate(-1730.616 -1638.527)" fill="#313440"/>
              <path id="Trazado_1298439" data-name="Trazado 1298439" d="M1812.159,1643.279a1.948,1.948,0,0,1-.115-.17.235.235,0,0,1,.089-.319.249.249,0,0,1,.32.088,4.776,4.776,0,0,0,1.975,1.562c1.367.672,2.628-1.373,2.64-1.393a.234.234,0,1,1,.4.24c-.059.1-1.5,2.434-3.251,1.573A5.757,5.757,0,0,1,1812.159,1643.279Z" transform="translate(-1777.658 -1620.548)" fill="#313440"/>
              <path id="Trazado_1298440" data-name="Trazado 1298440" d="M1745.645,1667.5s-1.211-6.523-3.185-7.82c0,0,8.134-.559,14.278-5.939,0,0,5.28,6.635,5.049,13.687Z" transform="translate(-1736.433 -1627.054)" fill="#313440"/>
              <g id="Grupo_1242432" data-name="Grupo 1242432" transform="translate(0.005 41.633)">
                <path id="Trazado_1298441" data-name="Trazado 1298441" d="M1815.776,1713.334c.021-.131.043-.28.064-.417-.481.1-.965.2-1.438.31-3.276.732-6.662,1.488-10.007,1.054-.891-.115-1.79-.318-2.661-.513-.268-.06-.539-.12-.811-.178q.05.2.093.422l.631.139c.879.2,1.788.4,2.7.519,3.414.439,6.835-.321,10.144-1.062C1814.909,1713.513,1815.345,1713.427,1815.776,1713.334Z" transform="translate(-1771.09 -1703.762)" fill="#313440"/>
                <path id="Trazado_1298442" data-name="Trazado 1298442" d="M1756.563,1714.006c.053-.131.105-.256.157-.374a12.149,12.149,0,0,0-1.705-.144h-.068a19.85,19.85,0,0,0-3.973.561c-.385.083-.771.164-1.156.238a52.868,52.868,0,0,1-12.537.576c-2.722-.135-5.463-.37-8.174-.67.03.14.066.268.1.4,2.673.294,5.374.525,8.056.658,1.458.072,3.017.127,4.634.12a43.4,43.4,0,0,0,8-.7c.388-.075.775-.158,1.163-.239a18.671,18.671,0,0,1,3.958-.553A11.036,11.036,0,0,1,1756.563,1714.006Z" transform="translate(-1728.523 -1704.1)" fill="#313440"/>
                <path id="Trazado_1298443" data-name="Trazado 1298443" d="M1738.422,1703.186c2.078-.075,4.176-.329,6.2-.574a56.635,56.635,0,0,1,7.928-.588,57.371,57.371,0,0,1,6.915.695,53.037,53.037,0,0,0,7.6.7h.192a32.9,32.9,0,0,0,5.617-.6c.015-.135.03-.27.046-.408a32.874,32.874,0,0,1-5.667.617h-.189a52.467,52.467,0,0,1-7.541-.7,58.284,58.284,0,0,0-6.963-.7,56.178,56.178,0,0,0-7.983.591c-2.021.243-4.11.5-6.171.571a36.743,36.743,0,0,1-10.732-1.233c0,.136.009.273.013.409A37.058,37.058,0,0,0,1738.422,1703.186Z" transform="translate(-1727.676 -1697.032)" fill="#313440"/>
                <path id="Trazado_1298444" data-name="Trazado 1298444" d="M1728.26,1690.826a7.076,7.076,0,0,0,2.337.507c7.041.639,14.323,1.3,21.458.094.262-.044.524-.091.787-.136a17.522,17.522,0,0,1,3.65-.394,17.9,17.9,0,0,1,2.377.294c.5.085,1.012.172,1.524.231a28.3,28.3,0,0,0,3.368.12h.052l5.554-.029a14.227,14.227,0,0,0,4.191-.469c0-.138,0-.275,0-.409a13.442,13.442,0,0,1-4.188.487l-5.592.03h-.036a27.934,27.934,0,0,1-3.3-.117c-.5-.057-1.01-.144-1.5-.227a18.123,18.123,0,0,0-2.431-.3,17.886,17.886,0,0,0-3.732.4c-.261.047-.522.094-.784.138-7.084,1.193-14.341.535-21.357-.1a6.452,6.452,0,0,1-2.3-.506C1728.3,1690.57,1728.281,1690.692,1728.26,1690.826Z" transform="translate(-1728.022 -1690.439)" fill="#313440"/>
              </g>
            </g>
            <path id="Trazado_1298445" data-name="Trazado 1298445" d="M1964.3,1118.162a15.657,15.657,0,0,0-2.327-7.462c-1.6-2.347-2.317-2.45-2.607-5.269l-.963-10.2c-12.074-6.267-19.072,1.338-27.918-3.491-5.169,1.383-15.859,4.5-19.735,10.087-4.045,5.828,7.139,22.908,7.139,22.908l9.232,26.059c11.276-1.412,22.226-2.86,33.279-4.272l-.107-20.112S1964.926,1124.891,1964.3,1118.162Z" transform="translate(-1835.657 -1054.125)" fill="#fcb036"/>
            <path id="Trazado_1298446" data-name="Trazado 1298446" d="M1830.356,1260.856a117.912,117.912,0,0,1,15.279-22.816,356.24,356.24,0,0,0,39.446-3.492c3.29,6.4,9.137,18.759,9.883,27.076,1.047,11.656-9,133.157-9,133.157s-30.056,6.233-46.375-.427l24.046-120.254-2.361-.427-29.844,120.895s-21.893.811-29.843-.855a121.468,121.468,0,0,1-22.737-7.83S1820.316,1279.8,1830.356,1260.856Z" transform="translate(-1758.001 -1138.768)" fill="#33bac1"/>
            <path id="Trazado_1298447" data-name="Trazado 1298447" d="M1946.389,1228.282l33.654-4s.91,1.613,2.231,4.182a356.187,356.187,0,0,1-39.445,3.492A42.409,42.409,0,0,1,1946.389,1228.282Z" transform="translate(-1855.193 -1132.68)" fill="#313440"/>
            <path id="Trazado_1298448" data-name="Trazado 1298448" d="M1947.684,1144.58l-.024-.02.016.033Z" transform="translate(-1858.057 -1085.431)" fill="#c63919"/>
            <path id="Trazado_1298449" data-name="Trazado 1298449" d="M1947.7,1144.64Z" transform="translate(-1858.08 -1085.478)" fill="#c63919"/>
            <path id="Trazado_1298450" data-name="Trazado 1298450" d="M1966.5,1173.6a20.488,20.488,0,0,1-5.814-.859.261.261,0,1,1,.169-.495c.092.031,9.512,3.094,14.359-2.73a.271.271,0,0,1,.372-.035.264.264,0,0,1,.035.37C1973.137,1172.837,1969.541,1173.6,1966.5,1173.6Z" transform="translate(-1865.67 -1100.17)" fill="#313440"/>
            <path id="Trazado_1298451" data-name="Trazado 1298451" d="M1985.216,1276.318a.267.267,0,0,1-.088-.014.263.263,0,0,1-.16-.335c.053-.149,5.319-15.095,5.112-36.646a.263.263,0,0,1,.261-.264h0a.263.263,0,0,1,.263.26c.208,21.65-5.087,36.677-5.14,36.827A.264.264,0,0,1,1985.216,1276.318Z" transform="translate(-1880.16 -1141.441)" fill="#313440"/>
            <path id="Trazado_1298452" data-name="Trazado 1298452" d="M1991.647,1266.338a.262.262,0,0,1-.14-.485l5.455-3.38a76.76,76.76,0,0,0,1.745-24.155.262.262,0,0,1,.232-.288.247.247,0,0,1,.29.231,77.22,77.22,0,0,1-1.784,24.446.259.259,0,0,1-.115.157l-5.543,3.435A.265.265,0,0,1,1991.647,1266.338Z" transform="translate(-1883.972 -1140.828)" fill="#313440"/>
            <path id="Trazado_1298453" data-name="Trazado 1298453" d="M1992.668,1329.637a.261.261,0,0,1-.027-.521l9.206-.971a.248.248,0,0,1,.288.233.259.259,0,0,1-.232.286l-9.208.971A.118.118,0,0,1,1992.668,1329.637Z" transform="translate(-1884.577 -1194.239)" fill="#313440"/>
            <path id="Trazado_1298454" data-name="Trazado 1298454" d="M1949.665,1049.669a.108.108,0,0,1-.03-.008,2.414,2.414,0,0,1-.168-4.044c.565-.3,1.327-.246,2.628.188a.1.1,0,0,1,.064.128.1.1,0,0,1-.129.064c-1.226-.41-1.964-.47-2.467-.2a1.966,1.966,0,0,0-.86,1.334,1.926,1.926,0,0,0,1.015,2.345.1.1,0,0,1,.051.134A.108.108,0,0,1,1949.665,1049.669Z" transform="translate(-1858.501 -1026.675)" fill="#313440"/>
            <path id="Trazado_1298455" data-name="Trazado 1298455" d="M1847.61,1320.633c9.772-24.043,19.338-46.879,23.5-54.732a117.882,117.882,0,0,1,15.279-22.816c.219-.007.433-.017.651-.025l10.478,12.161-27.052,72.622Z" transform="translate(-1798.756 -1143.813)" fill="#33bac1"/>
            <g id="Grupo_1242434" data-name="Grupo 1242434" transform="translate(50.588 184.029)">
              <path id="Trazado_1298456" data-name="Trazado 1298456" d="M1872.992,1451.22l18.2,5.007-16.48,66.761s-13.216.489-22.84-.074Z" transform="translate(-1851.869 -1451.22)" fill="#33bac1"/>
              <path id="Trazado_1298457" data-name="Trazado 1298457" d="M1927.98,1530.956l13.185-65.937,16.444.364-5.5,68.574C1943.779,1534.251,1934.713,1533.7,1927.98,1530.956Z" transform="translate(-1896.981 -1459.399)" fill="#33bac1"/>
            </g>
            <path id="Trazado_1298458" data-name="Trazado 1298458" d="M2000.72,1337.3l15.029-76.467,3.705-11.91c3.056,6.553,6.456,15.012,7.013,21.221.495,5.506-1.487,35.526-3.715,65.67Z" transform="translate(-1889.506 -1147.288)" fill="#33bac1"/>
            <path id="Trazado_1298459" data-name="Trazado 1298459" d="M1925.174,1259c-.193,0-.3,0-.3,0a.266.266,0,0,1-.265-.27.261.261,0,0,1,.263-.254c.014,0,.088,0,.314,0,1.776,0,10.815-.264,15.654-5.456,2.485-2.665,3.5-6.23,3.019-10.6a.261.261,0,0,1,.232-.288.268.268,0,0,1,.29.231c.5,4.527-.563,8.232-3.157,11.013C1936.236,1258.719,1926.991,1259,1925.174,1259Z" transform="translate(-1844.393 -1143.261)" fill="#313440"/>
            <path id="Trazado_1298460" data-name="Trazado 1298460" d="M2032.9,1249.562c-7.983,0-12.3-11.444-12.486-11.941a.259.259,0,0,1,.156-.335.267.267,0,0,1,.337.156c.043.119,4.378,11.6,12.005,11.6.13,0,.259,0,.391-.01h.014a.262.262,0,0,1,.014.523C2033.19,1249.557,2033.047,1249.562,2032.9,1249.562Z" transform="translate(-1901.171 -1140.38)" fill="#313440"/>
            <path id="Trazado_1298461" data-name="Trazado 1298461" d="M1988.88,1226.572l10.093-1,.574,5.739-10.093,1Z" transform="translate(-1882.488 -1133.446)" fill="#fff"/>
            <path id="Trazado_1298462" data-name="Trazado 1298462" d="M2054.461,1131.895c-5.048-1.208-15.339-5.891-28.448-24.113-1.155-1.605-6.559-5.868-10.583-7.721l-9.346,19.7c.677.634,2.068,2.081,3.541,3.613,13.846,14.4,29.857,29.853,44.835,31.336v-22.82Z" transform="translate(-1892.686 -1059.056)" fill="#fcb036"/>
            <path id="Trazado_1298463" data-name="Trazado 1298463" d="M2032.421,1158.272l-.2-.239a6.688,6.688,0,0,0,1.888-5.455,15.661,15.661,0,0,0-2.8-6.917l.25-.189a15.994,15.994,0,0,1,2.865,7.08A6.862,6.862,0,0,1,2032.421,1158.272Z" transform="translate(-1907.631 -1085.972)" fill="#313440"/>
            <path id="Trazado_1298464" data-name="Trazado 1298464" d="M2000.614,1040.8s2.728-2.836,5.056-2.033,2.7,5.773.216,6.769-5.5-.912-5.5-.912Z" transform="translate(-1889.31 -1022.644)" fill="#e0a886"/>
            <path id="Trazado_1298465" data-name="Trazado 1298465" d="M2008.493,1046.739a.116.116,0,0,0,.03-.008,2.414,2.414,0,0,0,.168-4.044c-.565-.3-1.326-.246-2.628.188a.1.1,0,0,0-.064.128.1.1,0,0,0,.129.064c1.226-.41,1.964-.47,2.467-.2a1.966,1.966,0,0,1,.86,1.334,1.926,1.926,0,0,1-1.015,2.346.1.1,0,0,0-.051.134A.1.1,0,0,0,2008.493,1046.739Z" transform="translate(-1892.631 -1024.938)" fill="#313440"/>
            <path id="Trazado_1298466" data-name="Trazado 1298466" d="M1977.682,1071.171c-.2-2.026-.337-4.252-.337-4.252l-9.949-3.025C1969.141,1067.994,1973.3,1069.692,1977.682,1071.171Z" transform="translate(-1869.754 -1037.62)" fill="#313440"/>
            <path id="Trazado_1298467" data-name="Trazado 1298467" d="M1975.51,1076.251s-4.162-.063-5.079-2.594a19.375,19.375,0,0,1-.448-3.085c-4.383-1.476-8.541-3.176-10.286-7.277l-1.349-.41s1.61,8.9.435,10.292-4.377,2.029-4.377,2.029,6.642,10.223,16.71,9.2C1980.19,1083.493,1975.51,1076.251,1975.51,1076.251Z" transform="translate(-1862.056 -1037.022)" fill="#f0b48f"/>
            <path id="Trazado_1298468" data-name="Trazado 1298468" d="M1973.582,1009.675c.745,1.867.03,4.732.711,8.63s.974,11.739-4.586,13.284a15.761,15.761,0,0,1-10.454-.79c-1.608-.749-3.542-3.752-4.328-6.473l-3.406-8.55a10.527,10.527,0,0,1,7.474-13.158q.2-.05.406-.094C1970.731,1000.1,1973.582,1009.675,1973.582,1009.675Z" transform="translate(-1860.095 -1001.014)" fill="#f0b48f"/>
            <path id="Trazado_1298469" data-name="Trazado 1298469" d="M1978.058,1042.049c-.044-.521.093-.958.305-.976s.421.39.465.911-.093.958-.305.976S1978.1,1042.57,1978.058,1042.049Z" transform="translate(-1876.069 -1024.093)" fill="#313440"/>
            <path id="Trazado_1298470" data-name="Trazado 1298470" d="M1999.148,1041.4c-.044-.521.093-.958.305-.976s.421.39.465.912-.093.958-.305.976S1999.193,1041.916,1999.148,1041.4Z" transform="translate(-1888.569 -1023.708)" fill="#313440"/>
            <path id="Trazado_1298471" data-name="Trazado 1298471" d="M1974.2,1037.545a.409.409,0,0,0,.268-.113,2.956,2.956,0,0,1,2.4-.572.406.406,0,1,0,.116-.8,3.752,3.752,0,0,0-3.082.792.4.4,0,0,0-.007.573A.4.4,0,0,0,1974.2,1037.545Z" transform="translate(-1873.535 -1021.092)" fill="#313440"/>
            <path id="Trazado_1298472" data-name="Trazado 1298472" d="M1996.542,1035.4a.408.408,0,0,0,.291-.019,2.959,2.959,0,0,1,2.455.244.41.41,0,0,0,.549-.174.4.4,0,0,0-.175-.547,3.756,3.756,0,0,0-3.173-.259.4.4,0,0,0-.2.539A.4.4,0,0,0,1996.542,1035.4Z" transform="translate(-1886.859 -1020.146)" fill="#313440"/>
            <path id="Trazado_1298473" data-name="Trazado 1298473" d="M1984.355,1057.663c.541.107,1.086.129,1.628.209.578.085,1.014.446.873,1.058-.57,2.468-4.037,2.2-5.845,1.5a2.694,2.694,0,0,1-1.13-.75,1.781,1.781,0,0,1,.14-2.471,2.9,2.9,0,0,1,2.321-.07c.62.15,1.227.351,1.849.5C1984.245,1057.639,1984.3,1057.651,1984.355,1057.663Z" transform="translate(-1876.9 -1033.488)" fill="#fff"/>
            <path id="Trazado_1298474" data-name="Trazado 1298474" d="M1952.95,1020.347s4.463-3.677,9-12.28c0,0,6.276,4.579,7.741,5.2s2.232,3.122,2.232,3.122a18.131,18.131,0,0,0,.209-7.354c-.907-4.718-9.066-9.436-16.667-6.522s-8.159,11.725-8.159,11.725l2.3,6.313Z" transform="translate(-1857.844 -1000.709)" fill="#88442b"/>
            <path id="Trazado_1298475" data-name="Trazado 1298475" d="M1972.881,1008.085a.154.154,0,0,1-.142-.09,15.923,15.923,0,0,0-6.9-6.312.154.154,0,0,1-.068-.211.161.161,0,0,1,.212-.068,16.208,16.208,0,0,1,7.044,6.456.154.154,0,0,1-.074.209A.132.132,0,0,1,1972.881,1008.085Z" transform="translate(-1868.778 -1000.572)" fill="#fff"/>
            <path id="Trazado_1298476" data-name="Trazado 1298476" d="M2008,1040.855l-.037-.277,1.727-.228.037.277Z" transform="translate(-1893.797 -1023.665)" fill="#313440"/>
            <path id="Trazado_1298477" data-name="Trazado 1298477" d="M1973.143,1039.786a4.162,4.162,0,1,1,3.457-4.178A3.864,3.864,0,0,1,1973.143,1039.786Zm-.151-7.946a3.885,3.885,0,1,0,3.322,3.773A3.583,3.583,0,0,0,1972.992,1031.84Z" transform="translate(-1871.019 -1018.454)" fill="#313440"/>
            <path id="Trazado_1298478" data-name="Trazado 1298478" d="M1998.713,1039.316a4.162,4.162,0,1,1,3.458-4.179A3.863,3.863,0,0,1,1998.713,1039.316Zm-.146-7.946a3.885,3.885,0,1,0,3.323,3.773A3.583,3.583,0,0,0,1998.566,1031.369Z" transform="translate(-1886.175 -1018.175)" fill="#313440"/>
            <path id="Trazado_1298479" data-name="Trazado 1298479" d="M1986.448,1041.244l-.159-.232c2.271-1.528,3.783-.266,3.8-.252l-.185.212C1989.849,1040.926,1988.538,1039.843,1986.448,1041.244Z" transform="translate(-1880.952 -1023.61)" fill="#313440"/>
            <path id="Trazado_1298480" data-name="Trazado 1298480" d="M1951.275,1044.218l-.025-.281,7.559-.7.025.281Z" transform="translate(-1860.184 -1025.378)" fill="#313440"/>
            <path id="Trazado_1298481" data-name="Trazado 1298481" d="M1952.521,1043.733s-2.728-2.836-5.056-2.033-2.7,5.773-.216,6.769,5.5-.912,5.5-.912Z" transform="translate(-1856.804 -1024.38)" fill="#f0b48f"/>
            <path id="Trazado_1298482" data-name="Trazado 1298482" d="M1991.928,1047.683a.1.1,0,0,1-.079-.046.1.1,0,0,1,.033-.132,2.021,2.021,0,0,0,.853-1.565,1.547,1.547,0,0,0-.442-1.03,7.26,7.26,0,0,1-.659-1.044.1.1,0,0,1,.043-.129.1.1,0,0,1,.13.042,7.063,7.063,0,0,0,.643,1.017,1.708,1.708,0,0,1,.478,1.151,2.191,2.191,0,0,1-.946,1.721A.1.1,0,0,1,1991.928,1047.683Z" transform="translate(-1884.115 -1025.667)" fill="#313440"/>
            <g id="Grupo_1242437" data-name="Grupo 1242437" transform="translate(110.8 17.218)">
              <path id="Trazado_1298483" data-name="Trazado 1298483" d="M2037.017,1168.851l-35.821,42.8a6.4,6.4,0,0,0,.83,9.041h0a6.475,6.475,0,0,0,9.088-.826l35.82-42.8a6.4,6.4,0,0,0-.83-9.041h0A6.475,6.475,0,0,0,2037.017,1168.851Z" transform="translate(-1999.702 -1097.396)" fill="#f05923"/>
              <path id="Trazado_1298484" data-name="Trazado 1298484" d="M2124.6,1162.74l-9.55,11.414-11.978-9.921,9.552-11.413Z" transform="translate(-2071.381 -1087.884)" fill="#69739e"/>
              <g id="Grupo_1242435" data-name="Grupo 1242435" transform="translate(32.143 3.81)" opacity="0.32">
                <ellipse id="Elipse_11558" data-name="Elipse 11558" cx="37.512" cy="37.319" rx="37.512" ry="37.319" fill="#9baaa2"/>
              </g>
              <path id="Trazado_1298485" data-name="Trazado 1298485" d="M2132.689,1155.446a28.648,28.648,0,0,0,6.682,4.132l-4.33,5.174a34.976,34.976,0,0,1-11.976-9.921l4.33-5.174A28.538,28.538,0,0,0,2132.689,1155.446Z" transform="translate(-2085.245 -1085.69)" fill="#313440"/>
              <g id="Grupo_1242436" data-name="Grupo 1242436" transform="translate(28.312)">
                <path id="Trazado_1298486" data-name="Trazado 1298486" d="M2159.858,950.512a41.046,41.046,0,0,1,5.319,57.948,41.552,41.552,0,0,1-58.249,5.291,41.046,41.046,0,0,1-5.318-57.949A41.552,41.552,0,0,1,2159.858,950.512Zm-4.923,5.883a33.822,33.822,0,0,0-47.411,4.306,33.412,33.412,0,0,0,4.329,47.168,33.824,33.824,0,0,0,47.412-4.306A33.41,33.41,0,0,0,2154.936,956.395Z" transform="translate(-2092.053 -941.003)" fill="#69739e"/>
              </g>
              <path id="Trazado_1298487" data-name="Trazado 1298487" d="M2117.054,970.513a35.987,35.987,0,0,0,4.663,50.806,36.431,36.431,0,0,0,51.069-4.639,35.987,35.987,0,0,0-4.664-50.805A36.431,36.431,0,0,0,2117.054,970.513Zm49.406-2.652a33.41,33.41,0,0,1,4.329,47.167,33.823,33.823,0,0,1-47.411,4.306,33.411,33.411,0,0,1-4.329-47.168A33.823,33.823,0,0,1,2166.461,967.861Z" transform="translate(-2075.267 -952.469)" fill="#9fa4af" opacity="0.52"/>
              <path id="Trazado_1298488" data-name="Trazado 1298488" d="M2268.254,1085.89c3.693-4.412,6.25-15.244.117-16.589s-20.971,17.28-15.406,21.854C2257.506,1094.888,2264.437,1090.449,2268.254,1085.89Z" transform="translate(-2174.472 -1029.921)" fill="#fff" opacity="0.42"/>
              <path id="Trazado_1298489" data-name="Trazado 1298489" d="M2194.074,1074.857c1.435-5.453,11.817-14.119,5.9-15.537-27.869-6.675-26.86,29.056-19.643,29.219C2193.1,1088.831,2192.566,1080.6,2194.074,1074.857Z" transform="translate(-2121.955 -1022.472)" fill="#fff" opacity="0.42"/>
            </g>
            <g id="Grupo_1242441" data-name="Grupo 1242441" transform="translate(98.193 119.824)">
              <path id="Trazado_1298490" data-name="Trazado 1298490" d="M1984.072,1341.478a1.974,1.974,0,0,1-.367-.865l-1.981-11.9a2.012,2.012,0,0,1,3.97-.653l1.981,11.9a2.012,2.012,0,0,1-3.6,1.518Z" transform="translate(-1976.423 -1313.02)" fill="#f0b48f"/>
              <path id="Trazado_1298491" data-name="Trazado 1298491" d="M2018.2,1338.249l0-.005-1.976-3.826a.134.134,0,0,1,.015-.143l.324-.4a.134.134,0,0,1,.187-.02.13.13,0,0,1,.021.185l-.27.336,1.935,3.747a.131.131,0,0,1-.058.178A.139.139,0,0,1,2018.2,1338.249Z" transform="translate(-1996.877 -1317.433)" fill="#313440"/>
              <path id="Trazado_1298492" data-name="Trazado 1298492" d="M2016.111,1334.549a2.642,2.642,0,0,1-.23-.366l-5.606-10.791a2.681,2.681,0,0,1,4.769-2.453l5.606,10.791a2.665,2.665,0,0,1-1.151,3.6A2.7,2.7,0,0,1,2016.111,1334.549Z" transform="translate(-1993.184 -1308.938)" fill="#f0b48f"/>
              <path id="Trazado_1298493" data-name="Trazado 1298493" d="M1992.131,1342.723a2.68,2.68,0,0,1-.23-.366l-5.605-10.791a2.665,2.665,0,0,1,1.151-3.6,2.694,2.694,0,0,1,3.617,1.146l5.606,10.791a2.665,2.665,0,0,1-1.151,3.6A2.693,2.693,0,0,1,1992.131,1342.723Z" transform="translate(-1978.971 -1313.785)" fill="#f0b48f"/>
              <path id="Trazado_1298494" data-name="Trazado 1298494" d="M2004.125,1340.27a2.764,2.764,0,0,1-.323-.565l-5.52-13.171a2.682,2.682,0,0,1,4.955-2.055l5.52,13.171a2.682,2.682,0,0,1-4.632,2.62Z" transform="translate(-1986.131 -1310.92)" fill="#f0b48f"/>
              <path id="Trazado_1298495" data-name="Trazado 1298495" d="M1988.978,1296.72c3.477,1.527,5.482,2.3,6.631,2.451s7.245,3.4,10.052,4.367c2.6.894,3.3,3.438-.045,4.187-3.126.7-8.468-3.4-8.085-2.529,1.181,2.69,1.583,3.685,1.583,3.685l-11.943,4.688-2.9-.667-2.374-5.779Z" transform="translate(-1976.543 -1295.441)" fill="#f0b48f"/>
              <path id="Trazado_1298496" data-name="Trazado 1298496" d="M1978.915,1293.58s5.612,3.051,6.259,4.878c1.838,5.186,1.836,7.622,1.836,7.622s-8.443,9.685-10.265,7.552c-1.714-2.007-8-14.537-8-14.537Z" transform="translate(-1968.749 -1293.58)" fill="#f0b48f"/>
              <g id="Grupo_1242438" data-name="Grupo 1242438" transform="translate(18.202 11.711)">
                <path id="Trazado_1298497" data-name="Trazado 1298497" d="M2015.008,1324.128a.111.111,0,0,1-.157-.12l.317-1.587a.11.11,0,0,1,.217.042l-.317,1.587A.122.122,0,0,1,2015.008,1324.128Z" transform="translate(-2014.275 -1322.333)" fill="#313440"/>
                <path id="Trazado_1298498" data-name="Trazado 1298498" d="M2013.5,1323.422a.107.107,0,0,0-.05.051.109.109,0,0,0,.051.146l1.463.708a.11.11,0,1,0,.1-.2l-1.462-.707A.106.106,0,0,0,2013.5,1323.422Z" transform="translate(-2013.44 -1322.971)" fill="#313440"/>
              </g>
              <g id="Grupo_1242439" data-name="Grupo 1242439" transform="translate(13.669 13.096)">
                <path id="Trazado_1298499" data-name="Trazado 1298499" d="M2003.878,1327.528a.106.106,0,0,1-.07.009.11.11,0,0,1-.087-.129l.317-1.587a.11.11,0,0,1,.217.042l-.317,1.587A.111.111,0,0,1,2003.878,1327.528Z" transform="translate(-2003.145 -1325.733)" fill="#313440"/>
                <path id="Trazado_1298500" data-name="Trazado 1298500" d="M2002.371,1326.822a.107.107,0,0,0-.05.05.109.109,0,0,0,.05.146l1.463.708a.11.11,0,0,0,.1-.2l-1.463-.708A.106.106,0,0,0,2002.371,1326.822Z" transform="translate(-2002.31 -1326.371)" fill="#313440"/>
              </g>
              <g id="Grupo_1242440" data-name="Grupo 1242440" transform="translate(9.82 14.924)">
                <path id="Trazado_1298501" data-name="Trazado 1298501" d="M1994.428,1332.018a.107.107,0,0,1-.071.009.11.11,0,0,1-.087-.129l.317-1.587a.11.11,0,0,1,.217.042l-.317,1.587A.121.121,0,0,1,1994.428,1332.018Z" transform="translate(-1993.695 -1330.223)" fill="#313440"/>
                <path id="Trazado_1298502" data-name="Trazado 1298502" d="M1992.921,1331.312a.11.11,0,0,0,0,.2l1.462.708a.11.11,0,0,0,.1-.2l-1.462-.708A.105.105,0,0,0,1992.921,1331.312Z" transform="translate(-1992.859 -1330.861)" fill="#313440"/>
              </g>
              <path id="Trazado_1298503" data-name="Trazado 1298503" d="M2036.558,1315.229c.121-.378.275-.8.285-.828a.133.133,0,0,1,.17-.079.125.125,0,0,1,.08.17c0,.009-.335.917-.4,1.244a3.879,3.879,0,0,0,2.135.178c.164-.052.258-.123.256-.211a.13.13,0,0,1,.141-.123.132.132,0,0,1,.124.14.473.473,0,0,1-.322.4,3.783,3.783,0,0,1-2.5-.18.219.219,0,0,1-.1-.214A4.9,4.9,0,0,1,2036.558,1315.229Z" transform="translate(-2008.858 -1305.869)" fill="#313440"/>
              <path id="Trazado_1298504" data-name="Trazado 1298504" d="M2006.99,1352.151a.112.112,0,0,1-.026.015.1.1,0,0,1-.13-.052l-3.478-8.27a.1.1,0,0,1,.052-.13.1.1,0,0,1,.13.052l3.478,8.27A.1.1,0,0,1,2006.99,1352.151Z" transform="translate(-1989.256 -1323.29)" fill="#313440"/>
              <path id="Trazado_1298505" data-name="Trazado 1298505" d="M1993.859,1348.847a.157.157,0,0,1-.029.018.1.1,0,0,1-.13-.059l-1.307-3.5a.106.106,0,0,1,.059-.129.1.1,0,0,1,.13.059l1.307,3.5A.113.113,0,0,1,1993.859,1348.847Z" transform="translate(-1982.759 -1324.157)" fill="#313440"/>
              <path id="Trazado_1298506" data-name="Trazado 1298506" d="M2025.806,1351.745a.1.1,0,0,1-.015-.1.109.109,0,0,1,.137-.065c1.123.391,1.887-.747,2.045-1.007l-1.217-2.238c-.819-.123-2.186.973-2.2.984a.108.108,0,0,1-.151-.015l0,0a.107.107,0,0,1,.018-.147c.061-.05,1.518-1.216,2.428-1.019a.115.115,0,0,1,.072.054l1.27,2.335a.105.105,0,0,1,0,.1c-.008.016-.923,1.646-2.333,1.156A.118.118,0,0,1,2025.806,1351.745Z" transform="translate(-2001.722 -1325.903)" fill="#313440"/>
              <path id="Trazado_1298507" data-name="Trazado 1298507" d="M2012.946,1359.946a.1.1,0,0,1-.015-.1.109.109,0,0,1,.137-.065c1.123.391,1.887-.747,2.046-1.007l-1.218-2.238c-.819-.123-2.185.973-2.2.984a.108.108,0,0,1-.151-.015l0,0a.106.106,0,0,1,.018-.146c.061-.05,1.518-1.216,2.428-1.019a.115.115,0,0,1,.073.053l1.27,2.335a.105.105,0,0,1,0,.1c-.008.016-.923,1.647-2.333,1.156A.1.1,0,0,1,2012.946,1359.946Z" transform="translate(-1994.1 -1330.763)" fill="#313440"/>
              <path id="Trazado_1298508" data-name="Trazado 1298508" d="M2000.761,1360.31a.105.105,0,0,1,0-.1.109.109,0,0,1,.145-.045c1.055.547,1.975-.471,2.169-.705l-.883-2.388c-.793-.238-2.3.651-2.3.651a.113.113,0,0,1-.163-.027l0,0a.106.106,0,0,1,.038-.143c.067-.04,1.678-.986,2.55-.662a.114.114,0,0,1,.064.064l.921,2.492a.1.1,0,0,1-.017.1c-.01.014-1.151,1.5-2.475.811C2000.806,1360.355,2000.769,1360.33,2000.761,1360.31Z" transform="translate(-1987.1 -1331.062)" fill="#313440"/>
              <path id="Trazado_1298509" data-name="Trazado 1298509" d="M1986.433,1358.5a.092.092,0,0,1,.016-.086.1.1,0,0,1,.132-.015c.818.643,1.777-.083,1.983-.253l-.366-2.2c-.643-.334-2.089.184-2.1.19a.094.094,0,0,1-.121-.055v0a.093.093,0,0,1,.057-.116c.065-.024,1.607-.576,2.3-.154,0,0,.041.039.045.065l.382,2.3a.091.091,0,0,1-.031.084c-.011.011-1.237,1.1-2.264.295A.126.126,0,0,1,1986.433,1358.5Z" transform="translate(-1978.955 -1330.369)" fill="#313440"/>
            </g>
            <path id="Trazado_1298510" data-name="Trazado 1298510" d="M1928.737,1198.372l13.333-12.083c-.122-.133-12.467-13.7-17.844-24.809-5.588-11.549-11.225-34.165-12.982-48.042l-5.88-1.738c-14.51,11.707-4.033,43.828,2.612,57.562C1914.5,1182.756,1928.159,1197.741,1928.737,1198.372Z" transform="translate(-1828.658 -1065.955)" fill="#fcb036"/>
            <path id="Trazado_1298511" data-name="Trazado 1298511" d="M1920.808,1122.886c-2.355-3.671-6.971-5.1-7.017-5.117l.091-.3c.048.014,4.773,1.478,7.191,5.248Z" transform="translate(-1837.982 -1069.374)" fill="#313440"/>
            <path id="Trazado_1298512" data-name="Trazado 1298512" d="M1939.5,1164.852c-.022-.088-2.155-8.732-2.331-9.524l.307-.068c.174.788,2.307,9.428,2.328,9.516Z" transform="translate(-1851.837 -1091.774)" fill="#313440"/>
          </g>
          <g id="Grupo_1242443" data-name="Grupo 1242443" transform="translate(152.389 78.422)">
            <path id="Trazado_1298513" data-name="Trazado 1298513" d="M2132.952,1198.276l-5.406-5.579a2.523,2.523,0,0,0-3.556-.065,2.485,2.485,0,0,0-.46,2.982,2.52,2.52,0,0,0-3.1.3,2.482,2.482,0,0,0-.7,2.344,2.514,2.514,0,0,0-2.533.563,2.487,2.487,0,0,0-.44,3.022,2.24,2.24,0,0,0-2.353,3.67l4.846,5a2.262,2.262,0,0,0,3.188.058,2.226,2.226,0,0,0,.587-2.251,2.458,2.458,0,0,0,3.067-.318,2.482,2.482,0,0,0,.7-2.353,2.51,2.51,0,0,0,2.535-.555,2.485,2.485,0,0,0,.461-2.98,2.483,2.483,0,0,0,3.1-.3A2.49,2.49,0,0,0,2132.952,1198.276Z" transform="translate(-2113.774 -1191.93)" fill="#e0a886"/>
            <path id="Trazado_1298514" data-name="Trazado 1298514" d="M2137.5,1200.867a.1.1,0,0,1,.02-.113.1.1,0,0,1,.137,0l6.259,6.5a.1.1,0,1,1-.14.133l-6.259-6.5A.182.182,0,0,1,2137.5,1200.867Z" transform="translate(-2127.828 -1197.144)" fill="#313440"/>
            <path id="Trazado_1298515" data-name="Trazado 1298515" d="M2128.175,1207.367a.1.1,0,0,1,.017-.11.1.1,0,0,1,.138,0l4,3.835a.1.1,0,0,1-.135.138l-4-3.835A.072.072,0,0,1,2128.175,1207.367Z" transform="translate(-2122.303 -1200.997)" fill="#313440"/>
            <path id="Trazado_1298516" data-name="Trazado 1298516" d="M2124.565,1220.177a.1.1,0,0,1,.153-.113l4.578,4.3a.094.094,0,0,1,0,.136.1.1,0,0,1-.137,0l-4.578-4.3A.1.1,0,0,1,2124.565,1220.177Z" transform="translate(-2120.164 -1208.59)" fill="#313440"/>
            <path id="Trazado_1298517" data-name="Trazado 1298517" d="M2120.875,1216.167a.1.1,0,0,1,.013-.106.1.1,0,0,1,.137-.011l.672.573a.1.1,0,0,1,.011.136.1.1,0,0,1-.137.011l-.672-.573A.067.067,0,0,1,2120.875,1216.167Z" transform="translate(-2117.976 -1206.213)" fill="#313440"/>
            <path id="Trazado_1298518" data-name="Trazado 1298518" d="M2140.987,1198.059a.111.111,0,0,1-.025-.015l-1.589-1.278a.1.1,0,0,1-.038-.078,2.739,2.739,0,0,1,.959-1.955.1.1,0,0,1,.141.013.1.1,0,0,1-.012.141,2.59,2.59,0,0,0-.886,1.756l1.514,1.218a2.766,2.766,0,0,0,2.02-1.955l-1.3-1.079a.1.1,0,0,1-.013-.14.1.1,0,0,1,.141-.013l1.352,1.121a.1.1,0,0,1,.034.1,3.007,3.007,0,0,1-2.244,2.172A.167.167,0,0,1,2140.987,1198.059Z" transform="translate(-2128.925 -1193.542)" fill="#313440"/>
            <path id="Trazado_1298519" data-name="Trazado 1298519" d="M2131.527,1205.1a.109.109,0,0,1-.023-.017l-1.486-1.4a.1.1,0,0,1-.031-.081,2.739,2.739,0,0,1,1.106-1.877.1.1,0,0,1,.14.023.1.1,0,0,1-.022.14,2.59,2.59,0,0,0-1.018,1.683l1.417,1.329a2.768,2.768,0,0,0,2.163-1.8l-1.215-1.175a.1.1,0,0,1,0-.141.1.1,0,0,1,.142,0l1.262,1.22a.1.1,0,0,1,.026.1,3.01,3.01,0,0,1-2.4,1.995A.142.142,0,0,1,2131.527,1205.1Z" transform="translate(-2123.383 -1197.728)" fill="#313440"/>
            <path id="Trazado_1298520" data-name="Trazado 1298520" d="M2123.647,1213.251a.092.092,0,0,1-.023-.017l-1.486-1.4a.1.1,0,0,1-.031-.081,2.74,2.74,0,0,1,1.107-1.877.1.1,0,0,1,.14.023.1.1,0,0,1-.023.14,2.592,2.592,0,0,0-1.018,1.683l1.417,1.329a2.769,2.769,0,0,0,2.163-1.8l-1.215-1.175a.1.1,0,0,1,0-.141.1.1,0,0,1,.142,0l1.262,1.22a.1.1,0,0,1,.026.1,3.012,3.012,0,0,1-2.4,1.995A.092.092,0,0,1,2123.647,1213.251Z" transform="translate(-2118.712 -1202.559)" fill="#313440"/>
            <path id="Trazado_1298521" data-name="Trazado 1298521" d="M2116.755,1222.222a.086.086,0,0,1-.022-.016l-1.408-1.321a.092.092,0,0,1-.03-.076,2.594,2.594,0,0,1,1.048-1.778.1.1,0,0,1,.133.022.094.094,0,0,1-.021.132,2.454,2.454,0,0,0-.964,1.595l1.341,1.259a2.623,2.623,0,0,0,2.049-1.7l-1.151-1.113a.093.093,0,0,1,0-.134.1.1,0,0,1,.135,0l1.2,1.156a.1.1,0,0,1,.025.1,2.851,2.851,0,0,1-2.277,1.89A.086.086,0,0,1,2116.755,1222.222Z" transform="translate(-2114.675 -1207.983)" fill="#313440"/>
          </g>
        </g>
        <g id="Grupo_1242445" data-name="Grupo 1242445" transform="translate(1956.7 725.889)">
          <path id="Trazado_1298522" data-name="Trazado 1298522" d="M2190.55,930.072a14.874,14.874,0,0,1,1.127-5.761,14.18,14.18,0,0,1,3.14-4.725,14.471,14.471,0,0,1,4.742-3.124,15.535,15.535,0,0,1,11.59,0,14.515,14.515,0,0,1,4.749,3.124,14.3,14.3,0,0,1,3.14,4.725,15.306,15.306,0,0,1,0,11.53,14.163,14.163,0,0,1-7.889,7.841,15.534,15.534,0,0,1-11.59,0,14.346,14.346,0,0,1-4.742-3.116,14.187,14.187,0,0,1-3.14-4.725A14.9,14.9,0,0,1,2190.55,930.072Zm26.877-23.692h-24.143v-75.9h24.143Z" transform="translate(-2190.55 -830.481)" fill="#f05923"/>
        </g>
        <g id="Grupo_1242446" data-name="Grupo 1242446" transform="translate(2124.565 774.338)">
          <path id="Trazado_1298523" data-name="Trazado 1298523" d="M2832.246,1194.591l57.574.079-.836-213.777-57.574-.081Z" transform="translate(-2827.321 -933.051)" fill="#fcdba6"/>
          <path id="Trazado_1298524" data-name="Trazado 1298524" d="M2850.5,1188.1l-1.831-217.757-17.444,4.936.9,212.616,10.86,2.541Z" transform="translate(-2827.205 -926.353)" fill="#fcb036"/>
          <path id="Trazado_1298525" data-name="Trazado 1298525" d="M2958.089,1190.127l-.991-214.153-18.968-2.056,1.629,219.675,10.857,2.54Z" transform="translate(-2895.585 -928.641)" fill="#fcb036"/>
          <path id="Trazado_1298526" data-name="Trazado 1298526" d="M2834.27,1561.4l26.694,52.741c.9,1.779,4.56,1.765,5.405-.022l25.04-52.939a1.378,1.378,0,0,0,.14-.609c-.022-1.442-.562-7.225-7.846-7.235a9.763,9.763,0,0,0-7.779,3.349,3.639,3.639,0,0,1-4.864.074,10.317,10.317,0,0,0-7.565-3.1,12.853,12.853,0,0,0-8.968,3.767,3.616,3.616,0,0,1-4.762-.128,8.669,8.669,0,0,0-6.818-3.317c-5.382-.008-7.942,4.508-8.713,6.2A1.366,1.366,0,0,0,2834.27,1561.4Z" transform="translate(-2829.045 -1299.274)" fill="#f0b48f"/>
          <path id="Trazado_1298527" data-name="Trazado 1298527" d="M2884.14,1671.771l8.829,17.444c.9,1.779,4.561,1.765,5.406-.022l8.54-18.057A87.707,87.707,0,0,0,2884.14,1671.771Z" transform="translate(-2861.05 -1374.345)" fill="#313440"/>
          <path id="Trazado_1298528" data-name="Trazado 1298528" d="M2860.473,848.265h0c15.945.032,28.908,11.6,28.954,25.834l.07,21.833-57.743-.118-.07-21.833C2831.639,859.746,2844.529,848.233,2860.473,848.265Z" transform="translate(-2827.496 -848.265)" fill="#f05923"/>
          <path id="Trazado_1298529" data-name="Trazado 1298529" d="M2824.158,993.049l59.068.155a3.175,3.175,0,0,0,3.048-3.293h0a3.216,3.216,0,0,0-3.066-3.309l-59.068-.155a3.174,3.174,0,0,0-3.048,3.293h0A3.219,3.219,0,0,0,2824.158,993.049Z" transform="translate(-2820.721 -936.655)" fill="#33bac1"/>
          <path id="Trazado_1298530" data-name="Trazado 1298530" d="M2823.126,974.72l59.068.155a3.174,3.174,0,0,0,3.047-3.293h0a3.215,3.215,0,0,0-3.066-3.309l-59.067-.155a3.174,3.174,0,0,0-3.048,3.293h0A3.214,3.214,0,0,0,2823.126,974.72Z" transform="translate(-2820.06 -924.931)" fill="#33bac1"/>
          <path id="Trazado_1298531" data-name="Trazado 1298531" d="M2825.047,956.4l59.068.155a3.176,3.176,0,0,0,3.047-3.294h0a3.217,3.217,0,0,0-3.066-3.309l-59.068-.155a3.175,3.175,0,0,0-3.048,3.294h0A3.22,3.22,0,0,0,2825.047,956.4Z" transform="translate(-2821.289 -913.213)" fill="#33bac1"/>
          <rect id="Rectángulo_423444" data-name="Rectángulo 423444" width="1.082" height="199.915" transform="translate(42.19 58.67) rotate(-0.447)" fill="#313440"/>
          <rect id="Rectángulo_423445" data-name="Rectángulo 423445" width="1.082" height="199.448" transform="translate(21.043 59.739) rotate(-0.447)" fill="#313440"/>
          <rect id="Rectángulo_423446" data-name="Rectángulo 423446" width="1.082" height="56.805" transform="matrix(0.006, -1, 1, 0.006, 4.717, 56.648)" fill="#313440"/>
          <rect id="Rectángulo_423447" data-name="Rectángulo 423447" width="1.082" height="58.356" transform="matrix(0.006, -1, 1, 0.006, 3.823, 50.112)" fill="#313440"/>
          <rect id="Rectángulo_423448" data-name="Rectángulo 423448" width="1.082" height="59.067" transform="matrix(0.006, -1, 1, 0.006, 3.098, 43.507)" fill="#313440"/>
        </g>
        <g id="Grupo_1242449" data-name="Grupo 1242449" transform="translate(1812.743 638.862)">
          <path id="Trazado_1298532" data-name="Trazado 1298532" d="M1769.38,734.516l34.892-56.474h4.3l33.069,57.148-1.432,6.839H1775.5l-6.12-4.145Z" transform="translate(-1766.996 -675.424)" fill="#fff"/>
          <g id="Grupo_1242448" data-name="Grupo 1242448">
            <path id="Trazado_1298533" data-name="Trazado 1298533" d="M1833.07,740.076h-62.536a7.364,7.364,0,0,1-6.444-3.706,7.286,7.286,0,0,1,.017-7.4l31.655-54.157a7.454,7.454,0,0,1,12.891.07l30.883,54.151a7.283,7.283,0,0,1-.042,7.368A7.367,7.367,0,0,1,1833.07,740.076ZM1802.188,676.9a1.614,1.614,0,0,0-1.417.811l-31.656,54.154a1.594,1.594,0,0,0,0,1.632,1.613,1.613,0,0,0,1.423.816h62.536a1.617,1.617,0,0,0,1.42-.81,1.6,1.6,0,0,0,.008-1.624l-30.886-54.154A1.613,1.613,0,0,0,1802.188,676.9Z" transform="translate(-1763.089 -671.135)" fill="#f05923"/>
            <g id="Grupo_1242447" data-name="Grupo 1242447" transform="translate(33.324 18.158)">
              <path id="Trazado_1298534" data-name="Trazado 1298534" d="M1851.02,755.3a5.416,5.416,0,0,1,.41-2.1,5.162,5.162,0,0,1,1.143-1.719,5.27,5.27,0,0,1,1.725-1.137,5.653,5.653,0,0,1,4.218,0,5.281,5.281,0,0,1,1.729,1.137,5.211,5.211,0,0,1,1.143,1.719,5.574,5.574,0,0,1,0,4.2,5.157,5.157,0,0,1-2.872,2.854,5.652,5.652,0,0,1-4.218,0,5.165,5.165,0,0,1-2.869-2.854A5.434,5.434,0,0,1,1851.02,755.3Zm9.781-8.623h-8.786V719.049h8.786Z" transform="translate(-1851.02 -719.049)" fill="#f05923"/>
            </g>
          </g>
        </g>
        <g id="Grupo_1242452" data-name="Grupo 1242452" transform="translate(2009.611 856.909)">
          <path id="Trazado_1298535" data-name="Trazado 1298535" d="M2430.71,1219.765l37.5-60.695h4.619l35.544,61.42-1.543,7.348h-69.541l-6.578-4.452Z" transform="translate(-2428.148 -1156.258)" fill="#fff"/>
          <g id="Grupo_1242451" data-name="Grupo 1242451" transform="translate(0)">
            <path id="Trazado_1298536" data-name="Trazado 1298536" d="M2499.63,1226.258h-67.209a7.915,7.915,0,0,1-6.926-3.983,7.831,7.831,0,0,1,.019-7.955l34.021-58.2a8.01,8.01,0,0,1,13.854.075l33.191,58.2a7.828,7.828,0,0,1-.046,7.919A7.918,7.918,0,0,1,2499.63,1226.258Zm-33.19-67.9a1.734,1.734,0,0,0-1.523.871l-34.021,58.2a1.713,1.713,0,0,0,0,1.754,1.733,1.733,0,0,0,1.529.877h67.209a1.738,1.738,0,0,0,1.526-.871,1.719,1.719,0,0,0,.009-1.745l-33.194-58.2A1.738,1.738,0,0,0,2466.44,1158.358Z" transform="translate(-2424.419 -1152.166)" fill="#f05923"/>
            <g id="Grupo_1242450" data-name="Grupo 1242450" transform="translate(35.814 19.515)">
              <path id="Trazado_1298537" data-name="Trazado 1298537" d="M2512.35,1239.034a5.811,5.811,0,0,1,.441-2.253,5.554,5.554,0,0,1,1.229-1.848,5.66,5.66,0,0,1,1.854-1.222,6.074,6.074,0,0,1,4.533,0,5.682,5.682,0,0,1,1.858,1.222,5.593,5.593,0,0,1,1.228,1.848,5.986,5.986,0,0,1,0,4.51,5.541,5.541,0,0,1-3.086,3.067,6.074,6.074,0,0,1-4.533,0,5.553,5.553,0,0,1-3.083-3.067A5.827,5.827,0,0,1,2512.35,1239.034Zm10.516-9.266h-9.443v-29.687h9.443Z" transform="translate(-2512.35 -1200.081)" fill="#f05923"/>
            </g>
          </g>
        </g>
        <g id="Grupo_1242455" data-name="Grupo 1242455" transform="translate(2124.565 654.297)">
          <path id="Trazado_1298538" data-name="Trazado 1298538" d="M2711.64,708.219l29.688-48.047h3.653l28.136,48.621-1.218,5.818h-55.054l-5.205-3.526Z" transform="translate(-2709.611 -657.945)" fill="#fff"/>
          <g id="Grupo_1242454" data-name="Grupo 1242454" transform="translate(0)">
            <path id="Trazado_1298539" data-name="Trazado 1298539" d="M2766.2,713.358h-53.2a6.265,6.265,0,0,1-5.483-3.153,6.2,6.2,0,0,1,.014-6.3l26.932-46.075a6.341,6.341,0,0,1,10.968.06l26.275,46.071a6.2,6.2,0,0,1-.036,6.269A6.267,6.267,0,0,1,2766.2,713.358Zm-26.275-53.75a1.372,1.372,0,0,0-1.205.69l-26.932,46.073a1.359,1.359,0,0,0,0,1.389,1.373,1.373,0,0,0,1.21.694h53.2a1.377,1.377,0,0,0,1.208-.69,1.361,1.361,0,0,0,.007-1.382l-26.277-46.073A1.374,1.374,0,0,0,2739.922,659.608Z" transform="translate(-2706.658 -654.705)" fill="#f05923"/>
            <g id="Grupo_1242453" data-name="Grupo 1242453" transform="translate(28.352 15.448)">
              <path id="Trazado_1298540" data-name="Trazado 1298540" d="M2776.27,723.472a4.607,4.607,0,0,1,.349-1.784,4.386,4.386,0,0,1,.972-1.463,4.487,4.487,0,0,1,1.469-.967,4.811,4.811,0,0,1,3.588,0,4.5,4.5,0,0,1,1.471.967,4.427,4.427,0,0,1,.972,1.463,4.741,4.741,0,0,1,0,3.57,4.383,4.383,0,0,1-2.443,2.428,4.811,4.811,0,0,1-3.588,0,4.442,4.442,0,0,1-1.469-.965,4.391,4.391,0,0,1-.972-1.463A4.584,4.584,0,0,1,2776.27,723.472Zm8.321-7.337h-7.476v-23.5h7.476Z" transform="translate(-2776.27 -692.634)" fill="#f05923"/>
            </g>
          </g>
        </g>
        <path id="Trazado_1298541" data-name="Trazado 1298541" d="M1806.77,999.988l10.048-2.957-9.919-3.589a8.145,8.145,0,0,1-5.791-6.3l-2.871-14.982-3.694,14.529a8.154,8.154,0,0,1-6.392,5.992l-9.466,3.032,9.009,3.364a8.146,8.146,0,0,1,6.065,6.595l2.333,14.486,4.111-14.371A8.157,8.157,0,0,1,1806.77,999.988Z" transform="translate(-32.077 -188.568)" fill="#e4e6f0"/>
        <path id="Trazado_1298542" data-name="Trazado 1298542" d="M2926.427,693.685l6.278-1.847-6.2-2.242a5.088,5.088,0,0,1-3.618-3.934l-1.794-9.36-2.308,9.077a5.094,5.094,0,0,1-3.993,3.743l-5.914,1.894,5.629,2.1a5.088,5.088,0,0,1,3.788,4.12l1.458,9.05,2.568-8.978A5.1,5.1,0,0,1,2926.427,693.685Z" transform="translate(-701.953 -13.209)" fill="#e4e6f0"/>
        <path id="Trazado_1298543" data-name="Trazado 1298543" d="M2090.218,1497.344l6.278-1.847-6.2-2.242a5.089,5.089,0,0,1-3.618-3.933l-1.794-9.36-2.308,9.077a5.094,5.094,0,0,1-3.993,3.744l-5.914,1.894,5.629,2.1a5.088,5.088,0,0,1,3.788,4.12l1.458,9.05,2.568-8.978A5.1,5.1,0,0,1,2090.218,1497.344Z" transform="translate(-206.325 -489.544)" fill="#e4e6f0"/>
        <g id="Grupo_1242456" data-name="Grupo 1242456" transform="translate(1724.566 1089.731)">
          <path id="Trazado_1298544" data-name="Trazado 1298544" d="M2317.879,1726.32h-69.794a1.261,1.261,0,0,1,0-2.522h69.794a1.261,1.261,0,0,1,0,2.522Z" transform="translate(-2034.112 -1723.798)" fill="#535b7d"/>
          <path id="Trazado_1298545" data-name="Trazado 1298545" d="M1927.567,1726.374h0l-201.74-.052a1.261,1.261,0,0,1,0-2.522h0l201.739.052a1.261,1.261,0,0,1,0,2.522Z" transform="translate(-1724.566 -1723.799)" fill="#535b7d"/>
          <path id="Trazado_1298546" data-name="Trazado 1298546" d="M2702.214,1726.32H2492.206a1.261,1.261,0,0,1,0-2.522h210.008a1.261,1.261,0,1,1,0,2.522Z" transform="translate(-2178.805 -1723.798)" fill="#535b7d"/>
        </g>
      </g>
    </g>
  </g>
</svg>
