<svg xmlns="http://www.w3.org/2000/svg" xmlns:xlink="http://www.w3.org/1999/xlink" width="103" height="103" viewBox="0 0 103 103">
  <defs>
    <filter id="Trazado_982547" x="0" y="0" width="103" height="103" filterUnits="userSpaceOnUse">
      <feOffset dy="3" input="SourceAlpha"/>
      <feGaussianBlur stdDeviation="3" result="blur"/>
      <feFlood flood-opacity="0.161"/>
      <feComposite operator="in" in2="blur"/>
      <feComposite in="SourceGraphic"/>
    </filter>
  </defs>
  <g id="Grupo_1235265" data-name="Grupo 1235265" transform="translate(-171 -4743.165)">
    <g id="Grupo_1173169" data-name="Grupo 1173169" transform="translate(180 4749.165)">
      <g id="Grupo_1172017" data-name="Grupo 1172017">
        <g id="Grupo_1167337" data-name="Grupo 1167337">
          <g id="Grupo_1166720" data-name="Grupo 1166720">
            <g id="Grupo_1164305" data-name="Grupo 1164305">
              <g id="Grupo_1163948" data-name="Grupo 1163948">
                <g id="Grupo_1158168" data-name="Grupo 1158168">
                  <g id="Grupo_1152576" data-name="Grupo 1152576">
                    <g id="Grupo_1148633" data-name="Grupo 1148633">
                      <g id="Grupo_1148525" data-name="Grupo 1148525">
                        <g transform="matrix(1, 0, 0, 1, -9, -6)" filter="url(#Trazado_982547)">
                          <g id="Trazado_982547-2" data-name="Trazado 982547" transform="translate(9 6)" fill="#f2f7e5">
                            <path d="M 42.5 83.5 C 36.96437835693359 83.5 31.59512901306152 82.41617584228516 26.54141235351562 80.27863311767578 C 21.65934181213379 78.21369171142578 17.27448272705078 75.25723266601562 13.50862312316895 71.49137878417969 C 9.742776870727539 67.72553253173828 6.786305904388428 63.34066009521484 4.721364498138428 58.45858764648438 C 2.583823442459106 53.40486907958984 1.5 48.03562164306641 1.5 42.5 C 1.5 36.96437835693359 2.583823442459106 31.59512901306152 4.721364498138428 26.54141235351562 C 6.786305904388428 21.65934181213379 9.742776870727539 17.27448272705078 13.50862312316895 13.50862312316895 C 17.27448272705078 9.742776870727539 21.65934181213379 6.786305904388428 26.54141235351562 4.721364498138428 C 31.59512901306152 2.583823442459106 36.96437835693359 1.5 42.5 1.5 C 48.03562164306641 1.5 53.40486907958984 2.583823442459106 58.45858764648438 4.721364498138428 C 63.34066009521484 6.786305904388428 67.72553253173828 9.742776870727539 71.49137878417969 13.50862312316895 C 75.25723266601562 17.27448272705078 78.21369171142578 21.65934181213379 80.27863311767578 26.54141235351562 C 82.41617584228516 31.59512901306152 83.5 36.96437835693359 83.5 42.5 C 83.5 48.03562164306641 82.41617584228516 53.40486907958984 80.27863311767578 58.45858764648438 C 78.21369171142578 63.34066009521484 75.25723266601562 67.72553253173828 71.49137878417969 71.49137878417969 C 67.72553253173828 75.25723266601562 63.34066009521484 78.21369171142578 58.45858764648438 80.27863311767578 C 53.40486907958984 82.41617584228516 48.03562164306641 83.5 42.5 83.5 Z" stroke="none"/>
                            <path d="M 42.5 3 C 37.16621398925781 3 31.99356079101562 4.043960571289062 27.125732421875 6.102882385253906 C 22.42246627807617 8.092185974121094 18.19785308837891 10.94070434570312 14.56928253173828 14.56928253173828 C 10.94070434570312 18.19785308837891 8.092185974121094 22.42246627807617 6.102882385253906 27.125732421875 C 4.043960571289062 31.99356079101562 3 37.16621398925781 3 42.5 C 3 47.83378601074219 4.043960571289062 53.00643920898438 6.102882385253906 57.874267578125 C 8.092185974121094 62.57753372192383 10.94070434570312 66.80214691162109 14.56928253173828 70.43071746826172 C 18.19785308837891 74.05929565429688 22.42246627807617 76.90781402587891 27.125732421875 78.89711761474609 C 31.99356079101562 80.95603942871094 37.16621398925781 82 42.5 82 C 47.83378601074219 82 53.00643920898438 80.95603942871094 57.874267578125 78.89711761474609 C 62.57753372192383 76.90781402587891 66.80214691162109 74.05929565429688 70.43071746826172 70.43071746826172 C 74.05929565429688 66.80214691162109 76.90781402587891 62.57753372192383 78.89711761474609 57.874267578125 C 80.95603942871094 53.00643920898438 82 47.83378601074219 82 42.5 C 82 37.16621398925781 80.95603942871094 31.99356079101562 78.89711761474609 27.125732421875 C 76.90781402587891 22.42246627807617 74.05929565429688 18.19785308837891 70.43071746826172 14.56928253173828 C 66.80214691162109 10.94070434570312 62.57753372192383 8.092185974121094 57.874267578125 6.102882385253906 C 53.00643920898438 4.043960571289062 47.83378601074219 3 42.5 3 M 42.5 0 C 65.97210693359375 0 85 19.02789306640625 85 42.5 C 85 65.97210693359375 65.97210693359375 85 42.5 85 C 19.02789306640625 85 0 65.97210693359375 0 42.5 C 0 19.02789306640625 19.02789306640625 0 42.5 0 Z" stroke="none" fill="#36ceef"/>
                          </g>
                        </g>
                      </g>
                    </g>
                  </g>
                </g>
              </g>
            </g>
          </g>
        </g>
      </g>
    </g>
    <g id="Grupo_1235263" data-name="Grupo 1235263" transform="translate(197.216 4763.902)">
      <path id="Trazado_1295379" data-name="Trazado 1295379" d="M267.8,390.28l-4.287,6.1H240.993V384.175h22.522Z" transform="translate(-217.235 -345.884)" fill="#9dc6fb"/>
      <path id="Trazado_1295380" data-name="Trazado 1295380" d="M35.359,90.644a9.967,9.967,0,0,0,9.955,9.956L33.1,104.018,25.5,100.6a22.175,22.175,0,0,1,19.814-32.12V80.688A9.967,9.967,0,0,0,35.359,90.644Z" transform="translate(-21.557 -62.308)" fill="#ffe07d"/>
      <path id="Trazado_1295381" data-name="Trazado 1295381" d="M180.461,90.643A22.166,22.166,0,0,1,158.3,112.808H148.93V100.6H158.3a9.956,9.956,0,0,0,0-19.911l-4.287-6.1,4.287-6.1a22.166,22.166,0,0,1,22.165,22.165Z" transform="translate(-134.539 -62.307)" fill="#a2e19f"/>
      <path id="Trazado_1295382" data-name="Trazado 1295382" d="M29.744,100.6A22.185,22.185,0,0,1,45.315,68.884v-.4A22.185,22.185,0,0,0,25.5,100.6l7.605,3.419,2.615-.732Z" transform="translate(-21.558 -62.308)" fill="#f1cb86"/>
      <g id="Grupo_1235260" data-name="Grupo 1235260" transform="translate(23.757 18.38)">
        <path id="Trazado_1295383" data-name="Trazado 1295383" d="M240.988,188.477a9.956,9.956,0,0,1,0,19.911h4.244a9.956,9.956,0,1,0,0-19.911Z" transform="translate(-240.988 -188.477)" fill="#97cf92"/>
      </g>
      <path id="Trazado_1295384" data-name="Trazado 1295384" d="M26.168,390.279l-4.288,6.1H9.422a1.932,1.932,0,0,1-1.932-1.932v-8.345a1.932,1.932,0,0,1,1.932-1.932H21.881Z" transform="translate(-7.49 -345.883)" fill="#e28086"/>
      <path id="Trazado_1295385" data-name="Trazado 1295385" d="M11.94,396.385H9.423a1.933,1.933,0,0,1-1.933-1.932v-8.345a1.933,1.933,0,0,1,1.933-1.932H11.94a1.933,1.933,0,0,0-1.933,1.932v8.345A1.933,1.933,0,0,0,11.94,396.385Z" transform="translate(-7.49 -345.885)" fill="#dd636e"/>
      <g id="Grupo_1235262" data-name="Grupo 1235262" transform="translate(28.108)">
        <path id="Trazado_1295386" data-name="Trazado 1295386" d="M304.738,20.518l-1.193-.494a8.544,8.544,0,0,0,0-1.928l1.192-.493a2.386,2.386,0,1,0-1.827-4.409l-1.192.493a8.552,8.552,0,0,0-1.364-1.363l.494-1.193A2.386,2.386,0,1,0,296.441,9.3l-.494,1.193a8.545,8.545,0,0,0-1.928,0L293.525,9.3a2.386,2.386,0,1,0-4.409,1.827l.494,1.192a8.555,8.555,0,0,0-1.363,1.364l-1.193-.494a2.386,2.386,0,1,0-1.826,4.409l1.193.494a8.573,8.573,0,0,0,0,1.928l-1.192.494a2.386,2.386,0,1,0,1.826,4.409l1.192-.494.017.021,0,0A8.5,8.5,0,0,0,289.61,25.8l-.494,1.193a2.385,2.385,0,0,0,3.194,3.084h0a2.374,2.374,0,0,0,1.215-1.258l.494-1.193a8.575,8.575,0,0,0,1.928,0l.493,1.192a2.386,2.386,0,1,0,4.409-1.826l-.493-1.192a8.571,8.571,0,0,0,1.363-1.364l1.193.494a2.386,2.386,0,1,0,1.827-4.409Zm-9.756,2.55a4.008,4.008,0,1,1,4.008-4.008A4.008,4.008,0,0,1,294.983,23.068Z" transform="translate(-283.753 -7.831)" fill="#4a80aa"/>
        <g id="Grupo_1235261" data-name="Grupo 1235261">
          <path id="Trazado_1295387" data-name="Trazado 1295387" d="M403.867,10.495a8.539,8.539,0,0,1,1.928,0l.494-1.193A2.378,2.378,0,0,1,407.5,8.045l-.076-.033A2.385,2.385,0,0,0,404.311,9.3l-.469,1.133Z" transform="translate(-391.624 -7.829)" fill="#407093"/>
          <path id="Trazado_1295388" data-name="Trazado 1295388" d="M285.914,69.365a2.386,2.386,0,0,1,1.292-3.118l1.192-.494a8.579,8.579,0,0,1,0-1.928l-1.193-.494a2.386,2.386,0,0,1-.074-4.377l-.078-.032a2.386,2.386,0,1,0-1.826,4.409l1.193.494a8.573,8.573,0,0,0,0,1.928l-1.192.494a2.386,2.386,0,1,0,1.826,4.409l.078-.032A2.378,2.378,0,0,1,285.914,69.365Z" transform="translate(-283.753 -53.56)" fill="#407093"/>
          <path id="Trazado_1295389" data-name="Trazado 1295389" d="M406.291,203.552l-.493-1.192a8.568,8.568,0,0,1-1.928,0l-.025.061.469,1.132a2.386,2.386,0,0,0,3.118,1.292l.076-.033A2.377,2.377,0,0,1,406.291,203.552Z" transform="translate(-391.625 -182.567)" fill="#407093"/>
          <path id="Trazado_1295390" data-name="Trazado 1295390" d="M331.967,176.651a2.386,2.386,0,0,1-3.194-3.084l.494-1.193a8.5,8.5,0,0,1-1.345-1.339l0,0a.181.181,0,0,0-.017-.021h1.978a8.533,8.533,0,0,0,1.364,1.363l-.494,1.193A2.386,2.386,0,0,0,331.967,176.651Z" transform="translate(-323.412 -154.408)" fill="#407093"/>
          <path id="Trazado_1295391" data-name="Trazado 1295391" d="M331.967,8.049a2.386,2.386,0,0,0-3.194,3.084l.494,1.193a8.5,8.5,0,0,0-1.345,1.339l0,0a.182.182,0,0,1-.017.021h1.978a8.534,8.534,0,0,1,1.364-1.363l-.494-1.193A2.386,2.386,0,0,1,331.967,8.049Z" transform="translate(-323.412 -7.833)" fill="#407093"/>
        </g>
      </g>
    </g>
    <g id="Grupo_1235264" data-name="Grupo 1235264" transform="translate(196.454 4763.139)">
      <path id="Trazado_1295392" data-name="Trazado 1295392" d="M47.665,38.94a.763.763,0,0,0-.625-.324H45.535a23.107,23.107,0,0,0,.934-15.851,3.146,3.146,0,0,0,.2-2.81l-.281-.679a9.384,9.384,0,0,0,.667-.668l.679.281a3.149,3.149,0,0,0,2.41-5.819l-.679-.281a9.358,9.358,0,0,0,0-.944l.679-.281a3.149,3.149,0,1,0-2.41-5.819l-.679.281a9.363,9.363,0,0,0-.668-.667l.281-.679a3.149,3.149,0,0,0-5.819-2.41l-.281.679a9.327,9.327,0,0,0-.944,0l-.281-.679a3.149,3.149,0,0,0-5.819,2.41l.281.679a9.383,9.383,0,0,0-.667.668l-.679-.281a3.154,3.154,0,0,0-3.8,1.124,23.4,23.4,0,0,0-8.623.062.763.763,0,0,0,.295,1.5,21.474,21.474,0,0,1,2.679-.352l-3.406,4.849a.763.763,0,0,0,0,.877L23.115,18.8a10.716,10.716,0,0,0-4.1,19.818H5.181A21.444,21.444,0,0,1,17.494,9.2a.763.763,0,0,0-.5-1.442A22.977,22.977,0,0,0,3.5,38.615H2.694A2.7,2.7,0,0,0,0,41.311v8.344a2.7,2.7,0,0,0,2.694,2.7H47.041a.763.763,0,0,0,.625-.325l.966-1.376a.763.763,0,1,0-1.249-.877l-.738,1.051H32.778A23.111,23.111,0,0,0,44.8,40.141h1.846L50.4,45.483l-1.26,1.794a.763.763,0,1,0,1.249.877l1.568-2.232a.763.763,0,0,0,0-.877ZM29.757,8.034a1.625,1.625,0,0,1,2.121-.878l1.193.494a.763.763,0,0,0,.889-.23A7.814,7.814,0,0,1,35.2,6.177a.763.763,0,0,0,.229-.889L34.937,4.1a1.623,1.623,0,0,1,3-1.242l.494,1.192a.763.763,0,0,0,.791.466,7.812,7.812,0,0,1,1.757,0,.763.763,0,0,0,.791-.466l.494-1.193a1.623,1.623,0,0,1,3,1.242l-.494,1.193a.763.763,0,0,0,.23.889A7.815,7.815,0,0,1,46.24,7.419a.763.763,0,0,0,.889.229l1.192-.494a1.623,1.623,0,1,1,1.242,3l-1.192.494a.763.763,0,0,0-.466.791,7.811,7.811,0,0,1,0,1.756.763.763,0,0,0,.466.791l1.193.494a1.623,1.623,0,1,1-1.242,3l-1.193-.494a.763.763,0,0,0-.889.23A7.823,7.823,0,0,1,45,18.458a.763.763,0,0,0-.229.889l.494,1.192a1.623,1.623,0,1,1-3,1.242l-.494-1.192a.763.763,0,0,0-.791-.466,7.813,7.813,0,0,1-1.757,0,.764.764,0,0,0-.791.466l-.494,1.193a1.623,1.623,0,0,1-3-1.242l.494-1.193a.763.763,0,0,0-.23-.889,7.819,7.819,0,0,1-1.243-1.241.763.763,0,0,0-.889-.23l-1.192.494a1.623,1.623,0,1,1-1.242-3l1.192-.494a.763.763,0,0,0,.466-.791,7.811,7.811,0,0,1,0-1.756.763.763,0,0,0-.466-.791l-1.193-.494a1.625,1.625,0,0,1-.878-2.121Zm-14.43,21.39a9.192,9.192,0,1,1,9.192,9.192,9.2,9.2,0,0,1-9.192-9.192ZM1.526,49.654V41.31a1.17,1.17,0,0,1,1.168-1.169H14.756l3.751,5.341-3.752,5.342H2.694a1.17,1.17,0,0,1-1.168-1.17Zm38.126-5.1a21.261,21.261,0,0,1-15.133,6.269h-7.9l3.444-4.9a.763.763,0,0,0,0-.877l-3.443-4.9h7.9a10.718,10.718,0,0,0,.4-21.428l-3.757-5.35,3.746-5.334a21.683,21.683,0,0,1,3.214.3,3.154,3.154,0,0,0,1.926,3.239l.679.281a9.328,9.328,0,0,0,0,.944l-.679.281a3.149,3.149,0,1,0,2.41,5.819l.679-.281a9.384,9.384,0,0,0,.668.667l-.281.679a3.149,3.149,0,1,0,5.819,2.41l.281-.679a9.357,9.357,0,0,0,.944,0l.281.679a3.153,3.153,0,0,0,4.115,1.7c.087-.036.17-.076.252-.118a21.54,21.54,0,0,1,.7,5.472A21.262,21.262,0,0,1,39.652,44.556Z" transform="translate(0 -0.324)"/>
      <path id="Trazado_1295393" data-name="Trazado 1295393" d="M351.994,80.851a4.771,4.771,0,1,0-4.771-4.771A4.776,4.776,0,0,0,351.994,80.851Zm-3.245-4.771a3.243,3.243,0,0,1,.022-.372,21.755,21.755,0,0,1,2.776,2.346c.385.385.756.789,1.112,1.2a3.245,3.245,0,0,1-3.91-3.176Zm3.245-3.245a3.243,3.243,0,0,1,2.083,5.73c-.458-.551-.944-1.085-1.451-1.591a23.249,23.249,0,0,0-3.3-2.74,3.243,3.243,0,0,1,2.667-1.4Z" transform="translate(-311.895 -64.087)"/>
    </g>
  </g>
</svg>
