<svg xmlns="http://www.w3.org/2000/svg" xmlns:xlink="http://www.w3.org/1999/xlink" width="108" height="108" viewBox="0 0 108 108">
  <defs>
    <filter id="Trazado_904820" x="0" y="0" width="108" height="108" filterUnits="userSpaceOnUse">
      <feOffset dy="3" input="SourceAlpha"/>
      <feGaussianBlur stdDeviation="3" result="blur"/>
      <feFlood flood-opacity="0.161"/>
      <feComposite operator="in" in2="blur"/>
      <feComposite in="SourceGraphic"/>
    </filter>
  </defs>
  <g id="Grupo_1242639" data-name="Grupo 1242639" transform="translate(-197 -361)">
    <g id="Grupo_1242223" data-name="Grupo 1242223" transform="translate(206 367)">
      <g id="Grupo_1235155" data-name="Grupo 1235155" transform="translate(0 0)">
        <g id="Grupo_1233818" data-name="Grupo 1233818">
          <g id="Grupo_1228307" data-name="Grupo 1228307">
            <g id="Grupo_1228100" data-name="Grupo 1228100">
              <g id="Grupo_1221597" data-name="Grupo 1221597">
                <g id="Grupo_1219744" data-name="Grupo 1219744">
                  <g id="Grupo_1202418" data-name="Grupo 1202418">
                    <g id="Grupo_1177315" data-name="Grupo 1177315">
                      <g id="Grupo_1173585" data-name="Grupo 1173585">
                        <g id="Grupo_1173428" data-name="Grupo 1173428">
                          <g id="Grupo_1171958" data-name="Grupo 1171958">
                            <g id="Grupo_1167341" data-name="Grupo 1167341">
                              <g id="Grupo_1166792" data-name="Grupo 1166792">
                                <g transform="matrix(1, 0, 0, 1, -9, -6)" filter="url(#Trazado_904820)">
                                  <g id="Trazado_904820-2" data-name="Trazado 904820" transform="translate(9 6)" fill="#e9f9fd">
                                    <path d="M 44.99999237060547 88.49993133544922 C 39.12686920166016 88.49993133544922 33.43022918701172 87.35000610351562 28.06829261779785 85.08209991455078 C 22.88853073120117 82.89124298095703 18.23630523681641 79.75453186035156 14.24085521697998 75.75907897949219 C 10.24540519714355 71.76364135742188 7.108692169189453 67.11141204833984 4.917829990386963 61.9316520690918 C 2.649929761886597 56.56972885131836 1.500004887580872 50.87307739257812 1.500004887580872 44.99996566772461 C 1.500004887580872 39.1268424987793 2.649929761886597 33.43020248413086 4.917829990386963 28.06827735900879 C 7.108692169189453 22.88850402832031 10.24540519714355 18.23628997802734 14.24085521697998 14.24084091186523 C 18.23630523681641 10.24540328979492 22.88853073120117 7.108690738677979 28.06829261779785 4.91782808303833 C 33.43022918701172 2.649928092956543 39.12686920166016 1.500003218650818 44.99999237060547 1.500003218650818 C 50.87311553955078 1.500003218650818 56.56976699829102 2.649928092956543 61.93169403076172 4.91782808303833 C 67.11146545410156 7.108690738677979 71.76369476318359 10.24540328979492 75.75914001464844 14.24084091186523 C 79.75457763671875 18.23628997802734 82.89130401611328 22.88850402832031 85.08216857910156 28.06827735900879 C 87.35006713867188 33.43020248413086 88.49999237060547 39.1268424987793 88.49999237060547 44.99996566772461 C 88.49999237060547 50.87307739257812 87.35006713867188 56.56972885131836 85.08216857910156 61.9316520690918 C 82.89130401611328 67.11141204833984 79.75457763671875 71.76364135742188 75.75914001464844 75.75907897949219 C 71.76369476318359 79.75453186035156 67.11146545410156 82.89124298095703 61.93169403076172 85.08209991455078 C 56.56976699829102 87.35000610351562 50.87311553955078 88.49993133544922 44.99999237060547 88.49993133544922 Z" stroke="none"/>
                                    <path d="M 44.99999237060547 2.999992370605469 C 39.32870483398438 2.999992370605469 33.82866287231445 4.110054016113281 28.65262222290039 6.299324035644531 C 23.65164947509766 8.414566040039062 19.15969085693359 11.44332122802734 15.30150604248047 15.30149078369141 C 11.44333648681641 19.15968322753906 8.414566040039062 23.65163421630859 6.299331665039062 28.65260696411133 C 4.11004638671875 33.82863616943359 2.999992370605469 39.32867813110352 2.999992370605469 44.99996566772461 C 2.999992370605469 50.67123794555664 4.11004638671875 56.17129516601562 6.299331665039062 61.34732055664062 C 8.414566040039062 66.34829711914062 11.44333648681641 70.84025573730469 15.30150604248047 74.69842529296875 C 19.15969085693359 78.55659484863281 23.65164947509766 81.58535003662109 28.65262222290039 83.70059204101562 C 33.82866287231445 85.88986206054688 39.32870483398438 86.99992370605469 44.99999237060547 86.99992370605469 C 50.67127990722656 86.99992370605469 56.17132186889648 85.88986206054688 61.34736633300781 83.70059204101562 C 66.34833526611328 81.58535003662109 70.84029388427734 78.55659484863281 74.69846343994141 74.69842529296875 C 78.55663299560547 70.84025573730469 81.58540344238281 66.34829711914062 83.70063781738281 61.34732055664062 C 85.88992309570312 56.17129516601562 86.99997711181641 50.67123794555664 86.99997711181641 44.99996566772461 C 86.99997711181641 39.32867813110352 85.88992309570312 33.82863616943359 83.70063781738281 28.65260696411133 C 81.58540344238281 23.65163421630859 78.55663299560547 19.15968322753906 74.69846343994141 15.30149078369141 C 70.84029388427734 11.44332122802734 66.34833526611328 8.414566040039062 61.34736633300781 6.299324035644531 C 56.17132186889648 4.110054016113281 50.67127990722656 2.999992370605469 44.99999237060547 2.999992370605469 M 44.99999237060547 -7.62939453125e-06 C 69.85279083251953 -7.62939453125e-06 89.99997711181641 20.14716339111328 89.99997711181641 44.99996566772461 C 89.99997711181641 69.85275268554688 69.85279083251953 89.99992370605469 44.99999237060547 89.99992370605469 C 20.14719390869141 89.99992370605469 -7.62939453125e-06 69.85275268554688 -7.62939453125e-06 44.99996566772461 C -7.62939453125e-06 20.14716339111328 20.14719390869141 -7.62939453125e-06 44.99999237060547 -7.62939453125e-06 Z" stroke="none" fill="#1d7083"/>
                                  </g>
                                </g>
                              </g>
                            </g>
                          </g>
                        </g>
                      </g>
                    </g>
                  </g>
                </g>
              </g>
            </g>
          </g>
        </g>
      </g>
    </g>
    <g id="proceso-de-trabajo_5_" data-name="proceso-de-trabajo (5)" transform="translate(219.836 380.835)">
      <g id="Grupo_1242637" data-name="Grupo 1242637" transform="translate(0.974 0.974)">
        <path id="Trazado_1298908" data-name="Trazado 1298908" d="M57.7,10.5h0A27.7,27.7,0,0,0,30.148,35.4l7.312-.342A20.522,20.522,0,0,1,57.7,17.708l-.033.011v2.8l7.069-5.712L57.671,8v2.507" transform="translate(-27.452 -8)" fill="#ffe27a"/>
        <path id="Trazado_1298909" data-name="Trazado 1298909" d="M108.621,74.75l5.324-4.3A20.495,20.495,0,0,0,88.161,89.3l.249-.012a20.522,20.522,0,0,1,20.244-17.346l-.033.011Z" transform="translate(-78.402 -62.231)" fill="#f9cf58"/>
        <path id="Trazado_1298910" data-name="Trazado 1298910" d="M170.387,155.49l-2.316-.348a10.807,10.807,0,0,0-1.7-4.11l1.392-1.884a.829.829,0,0,0-.081-1.078l-1.2-1.2a.829.829,0,0,0-1.078-.081l-1.884,1.392a10.806,10.806,0,0,0-4.11-1.7l-.348-2.316a.829.829,0,0,0-.819-.705h-1.7a.829.829,0,0,0-.819.705l-.348,2.316a10.805,10.805,0,0,0-4.11,1.7l-1.884-1.392a.829.829,0,0,0-1.078.081l-1.2,1.2a.829.829,0,0,0-.081,1.078l1.392,1.884a10.806,10.806,0,0,0-1.7,4.11l-2.316.348a.829.829,0,0,0-.705.819V158a.829.829,0,0,0,.705.82l2.316.348a10.807,10.807,0,0,0,1.7,4.11l-1.392,1.884a.829.829,0,0,0,.081,1.078l1.2,1.2a.829.829,0,0,0,1.078.081l1.884-1.392a10.806,10.806,0,0,0,4.11,1.7l.348,2.316a.829.829,0,0,0,.819.705h1.7a.829.829,0,0,0,.819-.705l.348-2.316a10.805,10.805,0,0,0,4.11-1.7l1.884,1.392a.829.829,0,0,0,1.078-.081l1.2-1.2a.829.829,0,0,0,.081-1.078l-1.392-1.884a10.807,10.807,0,0,0,1.7-4.11l2.316-.348a.829.829,0,0,0,.705-.82v-1.7A.829.829,0,0,0,170.387,155.49Zm-13,7.151a5.484,5.484,0,1,1,5.484-5.484A5.484,5.484,0,0,1,157.392,162.641Z" transform="translate(-127.173 -126.966)" fill="#ff4755"/>
        <path id="Trazado_1298911" data-name="Trazado 1298911" d="M10.524,204.769c0,.009,0,.019,0,.028a27.7,27.7,0,0,0,24.9,27.555L35,225.027A20.487,20.487,0,0,1,17.737,204.8c0-.009,0-.019,0-.028h2.782L14.808,197.7,8,204.769h2.507" transform="translate(-8 -174.607)" fill="#8bcaff"/>
        <path id="Trazado_1298912" data-name="Trazado 1298912" d="M204.769,296.173h.056a20.487,20.487,0,0,0,20.229-17.255l7.333-.5a27.7,27.7,0,0,1-27.561,24.966h-.056v2.5l-7.069-6.808,7.069-5.711v2.8Z" transform="translate(-174.607 -245.501)" fill="#98db7c"/>
        <path id="Trazado_1298913" data-name="Trazado 1298913" d="M222.153,266.1a5.507,5.507,0,0,0-.11-1.1,5.485,5.485,0,0,1-10.748,0,5.484,5.484,0,1,0,10.858,1.1Z" transform="translate(-186.45 -233.714)" fill="#fc2b3a"/>
        <path id="Trazado_1298914" data-name="Trazado 1298914" d="M216.629,301.2a27.82,27.82,0,0,1-5.489-.545l5.433,5.232v-2.5h.056a27.7,27.7,0,0,0,27.561-24.965l-.377.392A27.7,27.7,0,0,1,216.629,301.2Z" transform="translate(-186.41 -245.502)" fill="#82d361"/>
        <path id="Trazado_1298915" data-name="Trazado 1298915" d="M50.939,280.755a27.709,27.709,0,0,1-22.121-24.987h-.085c0,.009,0,.019,0,.028a27.7,27.7,0,0,0,24.9,27.555Z" transform="translate(-26.209 -225.606)" fill="#6cc4ff"/>
        <path id="Trazado_1298916" data-name="Trazado 1298916" d="M303.628,57.191c0-.009,0-.019,0-.028A27.7,27.7,0,0,0,278.664,29.6L283,33.78l-3.894,3.146a20.487,20.487,0,0,1,17.307,20.237c0,.009,0,.019,0,.028h-2.839l5.711,7.069,6.808-7.069Z" transform="translate(-245.714 -26.972)" fill="#ffba57"/>
        <g id="Grupo_1242636" data-name="Grupo 1242636" transform="translate(33.394 8.217)">
          <path id="Trazado_1298917" data-name="Trazado 1298917" d="M284.465,75.5l-2.149,1.736a20.489,20.489,0,0,1,17.277,19.147q.029-.547.03-1.1A20.49,20.49,0,0,0,284.465,75.5Z" transform="translate(-282.316 -75.501)" fill="#ffac3e"/>
        </g>
      </g>
      <g id="Grupo_1242638" data-name="Grupo 1242638" transform="translate(0 0)">
        <path id="Trazado_1298918" data-name="Trazado 1298918" d="M209.981,203.347a6.413,6.413,0,0,0-6.021,8.612.915.915,0,1,0,1.718-.629,4.58,4.58,0,1,1,1.943,2.353.915.915,0,0,0-.944,1.567,6.41,6.41,0,1,0,3.3-11.9Z" transform="translate(-178.789 -178.592)"/>
        <path id="Trazado_1298919" data-name="Trazado 1298919" d="M163.743,147.781l-1.7-.255a11.654,11.654,0,0,0-1.356-3.272l1.02-1.381a1.735,1.735,0,0,0-.17-2.271l-1.2-1.2a1.735,1.735,0,0,0-2.271-.17l-1.38,1.02a11.649,11.649,0,0,0-3.272-1.356l-.255-1.7a1.735,1.735,0,0,0-1.726-1.486h-1.7a1.735,1.735,0,0,0-1.726,1.486l-.255,1.7a11.65,11.65,0,0,0-3.272,1.356l-1.38-1.02a1.735,1.735,0,0,0-2.271.17l-1.2,1.2a1.734,1.734,0,0,0-.17,2.271l1.02,1.38a11.641,11.641,0,0,0-1.356,3.272l-1.7.255a1.735,1.735,0,0,0-1.486,1.726v1.7a1.735,1.735,0,0,0,1.486,1.726l1.7.255a11.65,11.65,0,0,0,1.356,3.272l-1.02,1.38a1.735,1.735,0,0,0,.17,2.271l1.2,1.2a1.735,1.735,0,0,0,2.271.17l1.38-1.02a11.648,11.648,0,0,0,3.272,1.356l.255,1.7A1.735,1.735,0,0,0,149.736,165h1.7a1.735,1.735,0,0,0,1.726-1.486l.255-1.7a11.649,11.649,0,0,0,3.272-1.356l1.381,1.02a1.735,1.735,0,0,0,2.271-.17l1.2-1.2a1.735,1.735,0,0,0,.17-2.271l-1.02-1.38a11.646,11.646,0,0,0,1.356-3.272l1.7-.255a1.735,1.735,0,0,0,1.486-1.726v-1.7a1.734,1.734,0,0,0-1.486-1.726Zm-.344,3.352-2.249.338a.914.914,0,0,0-.763.736,9.863,9.863,0,0,1-1.563,3.771.915.915,0,0,0,.019,1.06l1.352,1.83-1.1,1.1-1.83-1.352a.915.915,0,0,0-1.06-.019,9.863,9.863,0,0,1-3.771,1.563.915.915,0,0,0-.736.763l-.338,2.249h-1.553l-.338-2.249a.915.915,0,0,0-.736-.763,9.864,9.864,0,0,1-3.771-1.563.914.914,0,0,0-1.06.019l-1.83,1.352-1.1-1.1,1.352-1.83a.915.915,0,0,0,.019-1.06,9.862,9.862,0,0,1-1.563-3.771.915.915,0,0,0-.763-.736l-2.249-.338V149.58l2.249-.338a.915.915,0,0,0,.763-.736,9.863,9.863,0,0,1,1.563-3.771.914.914,0,0,0-.019-1.06l-1.352-1.83,1.1-1.1,1.83,1.352a.915.915,0,0,0,1.06.019,9.866,9.866,0,0,1,3.771-1.563.915.915,0,0,0,.736-.763l.338-2.249h1.553l.338,2.249a.915.915,0,0,0,.736.763,9.862,9.862,0,0,1,3.771,1.563.915.915,0,0,0,1.06-.019l1.83-1.352,1.1,1.1-1.352,1.83a.915.915,0,0,0-.019,1.06,9.863,9.863,0,0,1,1.563,3.771.915.915,0,0,0,.763.736l2.249.338Z" transform="translate(-119.394 -119.192)"/>
        <path id="Trazado_1298920" data-name="Trazado 1298920" d="M62.256,30.835a.915.915,0,0,0-.842-.557H59.843A28.665,28.665,0,0,0,34.338,2.672L31.826.254a.921.921,0,0,0-1.549.659v1.6A28.462,28.462,0,0,0,14.692,7.721a.915.915,0,1,0,1.054,1.5A26.661,26.661,0,0,1,31.192,4.328a.915.915,0,0,0,.915-.915v-.35l4.787,4.61-4.787,3.868v-.9a.915.915,0,0,0-.915-.915A21.445,21.445,0,0,0,10.406,25.9L8.445,23.478a.921.921,0,0,0-1.371-.06L4.926,25.65a26.8,26.8,0,0,1,8.068-14.208A.915.915,0,1,0,11.753,10.1,28.608,28.608,0,0,0,2.707,27.954L.253,30.5a.921.921,0,0,0,.659,1.549H2.54a28.666,28.666,0,0,0,25.443,27.6L30.5,62.075a.921.921,0,0,0,1.549-.659v-1.6A28.444,28.444,0,0,0,47.886,54.47a.915.915,0,1,0-1.067-1.487A26.65,26.65,0,0,1,31.181,58h-.046a.915.915,0,0,0-.915.915v.35l-4.787-4.61,4.787-3.868v.9a.915.915,0,0,0,.909.915h.062A21.445,21.445,0,0,0,51.963,36.477l1.918,2.374a.921.921,0,0,0,1.371.06l2.22-2.3a26.818,26.818,0,0,1-7.916,14.127.915.915,0,1,0,1.252,1.334,28.625,28.625,0,0,0,8.875-17.757l2.39-2.482a.914.914,0,0,0,.183-.992ZM23.477,53.883a.921.921,0,0,0-.06,1.371l2.261,2.178A26.844,26.844,0,0,1,4.356,31.168v-.031a.915.915,0,0,0-.915-.915H3.063l4.61-4.787,3.868,4.787h-.873a.912.912,0,0,0-.915.912v.031A21.445,21.445,0,0,0,25.884,51.938Zm20.508-7.858a19.6,19.6,0,0,1-11.935,4.73V48.872a.921.921,0,0,0-1.49-.712l-2.851,2.3A19.615,19.615,0,0,1,11.6,32.051h1.854a.921.921,0,0,0,.712-1.49l-2.285-2.828A19.614,19.614,0,0,1,30.277,11.577v1.88a.921.921,0,0,0,1.49.712l2.862-2.312A19.614,19.614,0,0,1,50.78,30.278H48.87a.921.921,0,0,0-.712,1.49l2.331,2.885a19.619,19.619,0,0,1-6.5,11.372Zm10.668-9.13-3.868-4.787h.929a.912.912,0,0,0,.915-.912v-.031A21.446,21.446,0,0,0,36.457,10.379L38.85,8.446a.921.921,0,0,0,.06-1.371L36.634,4.884A26.843,26.843,0,0,1,58.027,31.161v.031a.915.915,0,0,0,.915.915h.322Z" transform="translate(0 0)"/>
      </g>
    </g>
  </g>
</svg>
