<svg xmlns="http://www.w3.org/2000/svg" xmlns:xlink="http://www.w3.org/1999/xlink" width="108" height="108" viewBox="0 0 108 108">
  <defs>
    <filter id="Trazado_904820" x="0" y="0" width="108" height="108" filterUnits="userSpaceOnUse">
      <feOffset dy="3" input="SourceAlpha"/>
      <feGaussianBlur stdDeviation="3" result="blur"/>
      <feFlood flood-opacity="0.161"/>
      <feComposite operator="in" in2="blur"/>
      <feComposite in="SourceGraphic"/>
    </filter>
  </defs>
  <g id="Grupo_1235296" data-name="Grupo 1235296" transform="translate(-618 -548.419)">
    <g id="Grupo_1235069" data-name="Grupo 1235069" transform="translate(1 -271.036)">
      <g id="Grupo_1233818" data-name="Grupo 1233818" transform="translate(0 13.455)">
        <g id="Grupo_1228307" data-name="Grupo 1228307" transform="translate(0 -3017.921)">
          <g id="Grupo_1228100" data-name="Grupo 1228100" transform="translate(626 3829.921)">
            <g id="Grupo_1221597" data-name="Grupo 1221597" transform="translate(0 0)">
              <g id="Grupo_1219744" data-name="Grupo 1219744">
                <g id="Grupo_1202418" data-name="Grupo 1202418">
                  <g id="Grupo_1177315" data-name="Grupo 1177315">
                    <g id="Grupo_1173585" data-name="Grupo 1173585">
                      <g id="Grupo_1173428" data-name="Grupo 1173428">
                        <g id="Grupo_1171958" data-name="Grupo 1171958">
                          <g id="Grupo_1167341" data-name="Grupo 1167341">
                            <g id="Grupo_1166792" data-name="Grupo 1166792">
                              <g transform="matrix(1, 0, 0, 1, -9, -6)" filter="url(#Trazado_904820)">
                                <g id="Trazado_904820-2" data-name="Trazado 904820" transform="translate(9 6)" fill="#f6f3ef">
                                  <path d="M 44.99999618530273 88.49995422363281 C 39.12687301635742 88.49995422363281 33.43022155761719 87.35002899169922 28.06829643249512 85.08213043212891 C 22.88852119445801 82.89126586914062 18.23629570007324 79.75455474853516 14.24084663391113 75.75910186767578 C 10.24540901184082 71.76364898681641 7.108683586120605 67.11144256591797 4.917821407318115 61.93166351318359 C 2.649921178817749 56.56974029541016 1.499996185302734 50.87310028076172 1.499996185302734 44.99997711181641 C 1.499996185302734 39.12685394287109 2.649921178817749 33.43021392822266 4.917821407318115 28.06828880310059 C 7.108683586120605 22.88851547241211 10.24540901184082 18.23630142211914 14.24084663391113 14.24085235595703 C 18.23629570007324 10.24540233612061 22.88852119445801 7.108689785003662 28.06829643249512 4.917827129364014 C 33.43022155761719 2.649927139282227 39.12687301635742 1.500002145767212 44.99999618530273 1.500002145767212 C 50.87311935424805 1.500002145767212 56.56977081298828 2.649927139282227 61.93169784545898 4.917827129364014 C 67.11147308349609 7.108689785003662 71.76369476318359 10.24540233612061 75.75914764404297 14.24085235595703 C 79.75458526611328 18.23630142211914 82.89131164550781 22.88851547241211 85.08216857910156 28.06828880310059 C 87.35007476806641 33.43021392822266 88.5 39.12685394287109 88.5 44.99997711181641 C 88.5 50.87310028076172 87.35007476806641 56.56974029541016 85.08216857910156 61.93166351318359 C 82.89131164550781 67.11144256591797 79.75458526611328 71.76364898681641 75.75914764404297 75.75910186767578 C 71.76369476318359 79.75455474853516 67.11147308349609 82.89126586914062 61.93169784545898 85.08213043212891 C 56.56977081298828 87.35002899169922 50.87311935424805 88.49995422363281 44.99999618530273 88.49995422363281 Z" stroke="none"/>
                                  <path d="M 44.99999618530273 2.999992370605469 C 39.32870864868164 2.999992370605469 33.82865142822266 4.11004638671875 28.65262603759766 6.299331665039062 C 23.65165710449219 8.414566040039062 19.15968322753906 11.44333648681641 15.301513671875 15.30150604248047 C 11.44333648681641 19.15967559814453 8.414566040039062 23.65163421630859 6.299339294433594 28.65260696411133 C 4.110054016113281 33.82864761352539 2.999992370605469 39.32868957519531 2.999992370605469 44.99997711181641 C 2.999992370605469 50.6712646484375 4.110054016113281 56.17130661010742 6.299339294433594 61.34733581542969 C 8.414566040039062 66.34830474853516 11.44333648681641 70.84026336669922 15.301513671875 74.69844818115234 C 19.15968322753906 78.55661773681641 23.65165710449219 81.58537292480469 28.65262603759766 83.70062255859375 C 33.82865142822266 85.889892578125 39.32870864868164 86.99994659423828 44.99999618530273 86.99994659423828 C 50.67128372192383 86.99994659423828 56.17134094238281 85.889892578125 61.34736633300781 83.70062255859375 C 66.34834289550781 81.58537292480469 70.84030914306641 78.55661773681641 74.69847869873047 74.69844818115234 C 78.55665588378906 70.84026336669922 81.58542633056641 66.34830474853516 83.70065307617188 61.34733581542969 C 85.88993835449219 56.17130661010742 87 50.6712646484375 87 44.99997711181641 C 87 39.32868957519531 85.88993835449219 33.82864761352539 83.70065307617188 28.65260696411133 C 81.58542633056641 23.65163421630859 78.55665588378906 19.15967559814453 74.69847869873047 15.30150604248047 C 70.84030914306641 11.44333648681641 66.34834289550781 8.414566040039062 61.34736633300781 6.299331665039062 C 56.17134094238281 4.11004638671875 50.67128372192383 2.999992370605469 44.99999618530273 2.999992370605469 M 44.99999618530273 -7.62939453125e-06 C 69.85281372070312 -7.62939453125e-06 90 20.14717864990234 90 44.99997711181641 C 90 69.85277557373047 69.85281372070312 89.99994659423828 44.99999618530273 89.99994659423828 C 20.14717864990234 89.99994659423828 -7.62939453125e-06 69.85277557373047 -7.62939453125e-06 44.99997711181641 C -7.62939453125e-06 20.14717864990234 20.14717864990234 -7.62939453125e-06 44.99999618530273 -7.62939453125e-06 Z" stroke="none" fill="#7b776f"/>
                                </g>
                              </g>
                            </g>
                          </g>
                        </g>
                      </g>
                    </g>
                  </g>
                </g>
              </g>
            </g>
          </g>
        </g>
      </g>
    </g>
    <g id="gestion-de-equipos_4_" data-name="gestion-de-equipos (4)" transform="translate(642.093 567.475)">
      <g id="Grupo_1235272" data-name="Grupo 1235272" transform="translate(16.572 1.312)">
        <g id="Grupo_1235267" data-name="Grupo 1235267">
          <circle id="Elipse_11572" data-name="Elipse 11572" cx="13.336" cy="13.336" r="13.336" fill="#f7e365"/>
        </g>
        <g id="Grupo_1235268" data-name="Grupo 1235268" transform="translate(2.632 2.632)">
          <path id="Trazado_1295394" data-name="Trazado 1295394" d="M183.045,30.468a13.336,13.336,0,0,1-18.659,18.659,13.336,13.336,0,1,0,18.659-18.659Z" transform="translate(-164.386 -30.468)" fill="#f3d332"/>
        </g>
        <g id="Grupo_1235271" data-name="Grupo 1235271" transform="translate(5.39 4.933)">
          <g id="Grupo_1235269" data-name="Grupo 1235269">
            <path id="Trazado_1295395" data-name="Trazado 1295395" d="M201.839,58.519l1.734-1.883a1.18,1.18,0,0,0,.154-1.39l-1.021-1.768a1.18,1.18,0,0,0-1.28-.561l-2.5.56-.08-.046-.763-2.442a1.18,1.18,0,0,0-1.126-.828h-2.041a1.18,1.18,0,0,0-1.126.828l-.763,2.442-.08.046-2.5-.56a1.18,1.18,0,0,0-1.28.561l-1.021,1.768a1.18,1.18,0,0,0,.154,1.39l1.734,1.883v.091l-1.734,1.883a1.18,1.18,0,0,0-.154,1.39l1.021,1.768a1.18,1.18,0,0,0,1.28.561l2.5-.56.08.046.763,2.442a1.18,1.18,0,0,0,1.126.828h2.041a1.18,1.18,0,0,0,1.126-.828l.763-2.442.079-.046,2.5.56a1.18,1.18,0,0,0,1.28-.561l1.021-1.768a1.18,1.18,0,0,0-.154-1.39l-1.734-1.883v-.091Zm-5.9,1.934a1.888,1.888,0,1,1,1.888-1.888A1.888,1.888,0,0,1,195.939,60.452Z" transform="translate(-187.994 -50.161)" fill="#62a4fb"/>
          </g>
          <g id="Grupo_1235270" data-name="Grupo 1235270" transform="translate(5.174 2.727)">
            <path id="Trazado_1295396" data-name="Trazado 1295396" d="M240.953,79.228v-.091l1.734-1.883a1.18,1.18,0,0,0,.154-1.39L241.821,74.1a1.18,1.18,0,0,0-1.28-.561l-1.417.318a8.313,8.313,0,0,1-6.841,10.9l.625,2a1.18,1.18,0,0,0,1.126.828h2.041a1.18,1.18,0,0,0,1.126-.828l.763-2.442.079-.046,2.5.56a1.18,1.18,0,0,0,1.28-.561l1.021-1.768a1.18,1.18,0,0,0-.154-1.39Z" transform="translate(-232.282 -73.507)" fill="#5392f9"/>
          </g>
        </g>
      </g>
      <g id="Grupo_1235288" data-name="Grupo 1235288" transform="translate(13.149 23.05)">
        <g id="Grupo_1235277" data-name="Grupo 1235277" transform="translate(18.884)">
          <g id="Grupo_1235273" data-name="Grupo 1235273" transform="translate(0 9.441)">
            <path id="Trazado_1295397" data-name="Trazado 1295397" d="M274.2,279.081v11.2h14.634v-11.2a4.249,4.249,0,0,0-4.249-4.249h-6.137A4.249,4.249,0,0,0,274.2,279.081Z" transform="translate(-274.198 -274.832)" fill="#e175a5"/>
          </g>
          <g id="Grupo_1235274" data-name="Grupo 1235274" transform="translate(0 9.441)">
            <path id="Trazado_1295398" data-name="Trazado 1295398" d="M282.222,279.08a7.045,7.045,0,0,0-1.42-4.249h-2.356a4.249,4.249,0,0,0-4.249,4.249v11.2h8.024Z" transform="translate(-274.198 -274.831)" fill="#de5791"/>
          </g>
          <g id="Grupo_1235275" data-name="Grupo 1235275" transform="translate(2.596)">
            <circle id="Elipse_11573" data-name="Elipse 11573" cx="4.721" cy="4.721" r="4.721" fill="#fed2a4"/>
          </g>
          <g id="Grupo_1235276" data-name="Grupo 1235276" transform="translate(3.15 0.554)">
            <path id="Trazado_1295399" data-name="Trazado 1295399" d="M307.55,198.759a4.721,4.721,0,0,1-6.386,6.386,4.721,4.721,0,1,0,6.386-6.386Z" transform="translate(-301.164 -198.759)" fill="#ffbd86"/>
          </g>
        </g>
        <g id="Grupo_1235282" data-name="Grupo 1235282">
          <g id="Grupo_1235278" data-name="Grupo 1235278" transform="translate(0 9.441)">
            <path id="Trazado_1295400" data-name="Trazado 1295400" d="M112.552,279.081v11.2h14.634v-11.2a4.249,4.249,0,0,0-4.249-4.249H116.8A4.249,4.249,0,0,0,112.552,279.081Z" transform="translate(-112.552 -274.832)" fill="#e175a5"/>
          </g>
          <g id="Grupo_1235279" data-name="Grupo 1235279" transform="translate(6.61 9.441)">
            <path id="Trazado_1295401" data-name="Trazado 1295401" d="M177.154,290.283v-11.2a4.249,4.249,0,0,0-4.249-4.249H170.55a7.044,7.044,0,0,0-1.42,4.249v11.2Z" transform="translate(-169.13 -274.832)" fill="#de5791"/>
          </g>
          <g id="Grupo_1235280" data-name="Grupo 1235280" transform="translate(2.596)">
            <circle id="Elipse_11574" data-name="Elipse 11574" cx="4.721" cy="4.721" r="4.721" fill="#fed2a4"/>
          </g>
          <g id="Grupo_1235281" data-name="Grupo 1235281" transform="translate(3.15 0.554)">
            <path id="Trazado_1295402" data-name="Trazado 1295402" d="M145.9,198.759a4.721,4.721,0,0,1-6.386,6.386,4.721,4.721,0,1,0,6.386-6.386Z" transform="translate(-139.518 -198.759)" fill="#ffbd86"/>
          </g>
        </g>
        <g id="Grupo_1235287" data-name="Grupo 1235287" transform="translate(9.442)">
          <g id="Grupo_1235283" data-name="Grupo 1235283" transform="translate(0 9.441)">
            <path id="Trazado_1295403" data-name="Trazado 1295403" d="M193.375,279.081v11.2h14.634v-11.2a4.249,4.249,0,0,0-4.249-4.249h-6.137A4.249,4.249,0,0,0,193.375,279.081Z" transform="translate(-193.375 -274.832)" fill="#62a4fb"/>
          </g>
          <g id="Grupo_1235284" data-name="Grupo 1235284" transform="translate(7.317 9.441)">
            <path id="Trazado_1295404" data-name="Trazado 1295404" d="M259.075,274.832h-3.068a4.249,4.249,0,0,1,4.249,4.249v11.2h3.068v-11.2a4.249,4.249,0,0,0-4.249-4.249Z" transform="translate(-256.007 -274.832)" fill="#5392f9"/>
          </g>
          <g id="Grupo_1235285" data-name="Grupo 1235285" transform="translate(2.596)">
            <circle id="Elipse_11575" data-name="Elipse 11575" cx="4.721" cy="4.721" r="4.721" fill="#fed2a4"/>
          </g>
          <g id="Grupo_1235286" data-name="Grupo 1235286" transform="translate(3.15 0.554)">
            <path id="Trazado_1295405" data-name="Trazado 1295405" d="M226.727,198.759a4.721,4.721,0,0,1-6.386,6.386,4.721,4.721,0,1,0,6.386-6.386Z" transform="translate(-220.341 -198.759)" fill="#ffbd86"/>
          </g>
        </g>
      </g>
      <g id="Grupo_1235294" data-name="Grupo 1235294" transform="translate(0.876 38.209)">
        <g id="Grupo_1235289" data-name="Grupo 1235289" transform="translate(7.553 4.068)">
          <path id="Trazado_1295406" data-name="Trazado 1295406" d="M72.152,358.6H76.4V373.7H72.152Z" transform="translate(-72.152 -358.597)" fill="#d3effd"/>
        </g>
        <g id="Grupo_1235290" data-name="Grupo 1235290" transform="translate(11.802)">
          <path id="Trazado_1295407" data-name="Trazado 1295407" d="M153.952,324.6a2.832,2.832,0,0,0-4.006,0l-8.9,8.9H132.83a2.832,2.832,0,0,0,0-5.665h-8.969l-1.82-1.475a9.251,9.251,0,0,0-11.559-.075l-1.964,1.55v15.106l17.095,1.072a9.441,9.441,0,0,0,3.377-.4l13.281-4.1a4.722,4.722,0,0,0,1.945-1.172l9.735-9.735A2.832,2.832,0,0,0,153.952,324.6Z" transform="translate(-108.519 -323.775)" fill="#fed2a4"/>
        </g>
        <g id="Grupo_1235291" data-name="Grupo 1235291" transform="translate(28.77)">
          <path id="Trazado_1295408" data-name="Trazado 1295408" d="M282.227,324.6a2.832,2.832,0,0,0-4.006,0l-8.9,8.9h-1.689a34.672,34.672,0,0,1-2.839,3.212,31.7,31.7,0,0,1-11.027,7.293l.127.008a9.439,9.439,0,0,0,3.377-.4l13.281-4.1a4.721,4.721,0,0,0,1.945-1.172l9.735-9.735A2.832,2.832,0,0,0,282.227,324.6Z" transform="translate(-253.763 -323.775)" fill="#ffbd86"/>
        </g>
        <g id="Grupo_1235292" data-name="Grupo 1235292" transform="translate(0 2.18)">
          <path id="Trazado_1295409" data-name="Trazado 1295409" d="M7.5,342.434h7.553v18.883H7.5Z" transform="translate(-7.5 -342.434)" fill="#62a4fb"/>
        </g>
        <g id="Grupo_1235293" data-name="Grupo 1235293" transform="translate(4.957 2.18)">
          <path id="Trazado_1295410" data-name="Trazado 1295410" d="M49.928,342.434h2.6v18.883h-2.6Z" transform="translate(-49.928 -342.434)" fill="#5392f9"/>
        </g>
      </g>
      <g id="Grupo_1235295" data-name="Grupo 1235295" transform="translate(0 0.435)">
        <circle id="Elipse_11576" data-name="Elipse 11576" cx="0.944" cy="0.944" r="0.944" transform="translate(3.709 42.787)"/>
        <circle id="Elipse_11577" data-name="Elipse 11577" cx="0.944" cy="0.944" r="0.944" transform="translate(3.709 46.563)"/>
        <path id="Trazado_1295411" data-name="Trazado 1295411" d="M237.872,101.19a2.764,2.764,0,1,0-2.764,2.764A2.768,2.768,0,0,0,237.872,101.19Zm-2.764,1.012a1.012,1.012,0,1,1,1.012-1.012A1.013,1.013,0,0,1,235.108,102.2Z" transform="translate(-205.199 -86.978)"/>
        <path id="Trazado_1295412" data-name="Trazado 1295412" d="M58.73,38.419a3.709,3.709,0,0,0-5.245,0l-5.942,5.942V41.478a.876.876,0,1,0-1.752,0v4.636l-.952.952h-4.7a3.71,3.71,0,0,0-2.037-5.5V36.74a5.1,5.1,0,0,0-1.271-3.372h5.589a3.376,3.376,0,0,1,3.372,3.373v.648a.876.876,0,1,0,1.752,0v-.648A5.132,5.132,0,0,0,43.333,31.7a5.59,5.59,0,0,0-1.691-9.032,14.252,14.252,0,0,0,2.478-8.02A14.089,14.089,0,0,0,39.838,4.482a.876.876,0,1,0-1.224,1.254,12.35,12.35,0,0,1,3.753,8.911A12.489,12.489,0,0,1,39.821,22.2c-.155-.013-.312-.021-.471-.021a5.6,5.6,0,0,0-4.721,2.6A5.638,5.638,0,0,0,32.7,22.921a2.079,2.079,0,0,0,.2-.438l.541-1.732,1.77.4a2.047,2.047,0,0,0,2.231-.978L38.454,18.4a2.048,2.048,0,0,0-.268-2.421l-1.229-1.334,1.229-1.334a2.047,2.047,0,0,0,.268-2.421L37.434,9.124A2.047,2.047,0,0,0,35.2,8.146l-1.77.4-.541-1.732a2.048,2.048,0,0,0-1.963-1.443H28.887a2.048,2.048,0,0,0-1.963,1.443l-.541,1.732-1.77-.4a2.047,2.047,0,0,0-2.231.978l-1.021,1.768a2.048,2.048,0,0,0,.268,2.421l1.229,1.334L21.63,15.982a2.048,2.048,0,0,0-.268,2.421l1.021,1.768a2.047,2.047,0,0,0,2.231.978l1.77-.4.541,1.732a2.074,2.074,0,0,0,.2.438,5.637,5.637,0,0,0-1.933,1.849,5.6,5.6,0,0,0-4.721-2.6c-.159,0-.316.008-.471.021A12.46,12.46,0,0,1,29.908,2.187a12.333,12.333,0,0,1,5.609,1.331.876.876,0,0,0,.79-1.564,14.068,14.068,0,0,0-6.4-1.519A14.213,14.213,0,0,0,18.174,22.667,5.59,5.59,0,0,0,16.483,31.7a5.132,5.132,0,0,0-4.211,5.042V41.4H9.305V40.389a.876.876,0,0,0-.876-.876H.876A.876.876,0,0,0,0,40.389V59.272a.876.876,0,0,0,.876.876H8.429a.876.876,0,0,0,.876-.876V58.26h3.351l11.491.721a.876.876,0,1,0,.11-1.749l-10.7-.672V42.7l1.631-1.287a8.374,8.374,0,0,1,10.463.069l1.82,1.474a.876.876,0,0,0,.552.2h8.969a1.956,1.956,0,0,1,0,3.913H26.84a.876.876,0,0,0-.62.257l-1.239,1.239A.876.876,0,1,0,26.22,49.8l.983-.983h18a.877.877,0,0,0,.62-.257l8.9-8.9a1.956,1.956,0,0,1,2.767,2.767l-9.735,9.735a3.857,3.857,0,0,1-1.584.954l-13.282,4.1a8.523,8.523,0,0,1-3.063.364l-1.49-.093a.876.876,0,1,0-.11,1.749l1.49.093q.326.02.651.02a10.254,10.254,0,0,0,3.039-.46l13.281-4.1A5.616,5.616,0,0,0,49,53.4l9.735-9.735a3.714,3.714,0,0,0,0-5.245ZM39.35,23.926a3.844,3.844,0,1,1-3.844,3.844,3.849,3.849,0,0,1,3.844-3.844ZM28.888,22.174a.3.3,0,0,1-.29-.213l-.763-2.442a.876.876,0,0,0-.4-.5l-.079-.046a.876.876,0,0,0-.631-.1l-2.5.56a.3.3,0,0,1-.33-.145L22.88,17.527a.3.3,0,0,1,.04-.358l1.734-1.883a.876.876,0,0,0,.232-.594V14.6a.876.876,0,0,0-.232-.594l-1.734-1.883a.3.3,0,0,1-.04-.358L23.9,10a.3.3,0,0,1,.33-.145l2.5.56a.876.876,0,0,0,.631-.1l.079-.046a.876.876,0,0,0,.4-.5L28.6,7.334a.3.3,0,0,1,.29-.213h2.041a.3.3,0,0,1,.29.213l.763,2.442a.876.876,0,0,0,.4.5l.08.046a.876.876,0,0,0,.631.1l2.5-.56a.3.3,0,0,1,.33.145l1.021,1.768a.3.3,0,0,1-.04.358l-1.734,1.883a.876.876,0,0,0-.232.594v.091a.876.876,0,0,0,.232.594L36.9,17.169a.3.3,0,0,1,.04.358l-1.021,1.768a.3.3,0,0,1-.33.145l-2.5-.56a.875.875,0,0,0-.629.1l-.081.046a.876.876,0,0,0-.4.5l-.763,2.442a.3.3,0,0,1-.29.213H28.888Zm1.021,1.752a3.844,3.844,0,1,1-3.844,3.844,3.849,3.849,0,0,1,3.844-3.844Zm-9.442,0a3.844,3.844,0,1,1-3.844,3.844,3.849,3.849,0,0,1,3.844-3.844ZM7.553,58.4h-5.8V41.265h5.8ZM9.305,43.154h2.5V56.507h-2.5Zm7.747-4.732A10.1,10.1,0,0,0,14.1,40.039l-.074.059V36.74A3.376,3.376,0,0,1,17.4,33.368h5.588a5.1,5.1,0,0,0-1.271,3.372v1.212a10.078,10.078,0,0,0-4.663.469Zm9.7,1.7a10.131,10.131,0,0,0-3.285-1.774V36.74a3.376,3.376,0,0,1,3.372-3.372h6.137a3.376,3.376,0,0,1,3.372,3.372V41.4H28.33Z" transform="translate(0 -0.435)"/>
      </g>
    </g>
  </g>
</svg>
