<svg xmlns="http://www.w3.org/2000/svg" xmlns:xlink="http://www.w3.org/1999/xlink" width="108" height="108" viewBox="0 0 108 108">
  <defs>
    <filter id="Trazado_904820" x="0" y="0" width="108" height="108" filterUnits="userSpaceOnUse">
      <feOffset dy="3" input="SourceAlpha"/>
      <feGaussianBlur stdDeviation="3" result="blur"/>
      <feFlood flood-opacity="0.161"/>
      <feComposite operator="in" in2="blur"/>
      <feComposite in="SourceGraphic"/>
    </filter>
  </defs>
  <g id="Grupo_1235171" data-name="Grupo 1235171" transform="translate(-197 -485.455)">
    <g id="Grupo_1235053" data-name="Grupo 1235053" transform="translate(206 491.455)">
      <g id="Grupo_1233818" data-name="Grupo 1233818" transform="translate(0 0)">
        <g id="Grupo_1228307" data-name="Grupo 1228307">
          <g id="Grupo_1228100" data-name="Grupo 1228100" transform="translate(0)">
            <g id="Grupo_1221597" data-name="Grupo 1221597">
              <g id="Grupo_1219744" data-name="Grupo 1219744">
                <g id="Grupo_1202418" data-name="Grupo 1202418">
                  <g id="Grupo_1177315" data-name="Grupo 1177315">
                    <g id="Grupo_1173585" data-name="Grupo 1173585">
                      <g id="Grupo_1173428" data-name="Grupo 1173428">
                        <g id="Grupo_1171958" data-name="Grupo 1171958">
                          <g id="Grupo_1167341" data-name="Grupo 1167341">
                            <g id="Grupo_1166792" data-name="Grupo 1166792">
                              <g transform="matrix(1, 0, 0, 1, -9, -6)" filter="url(#Trazado_904820)">
                                <g id="Trazado_904820-2" data-name="Trazado 904820" transform="translate(9 6)" fill="#e9f9fd">
                                  <path d="M 44.99999618530273 88.49995422363281 C 39.12687301635742 88.49995422363281 33.43022155761719 87.35002899169922 28.06829643249512 85.08213043212891 C 22.88852119445801 82.89126586914062 18.23629570007324 79.75455474853516 14.24084663391113 75.75910186767578 C 10.24540901184082 71.76364898681641 7.108683586120605 67.11144256591797 4.917821407318115 61.93166351318359 C 2.649921178817749 56.56974029541016 1.499996185302734 50.87310028076172 1.499996185302734 44.99997711181641 C 1.499996185302734 39.12685394287109 2.649921178817749 33.43021392822266 4.917821407318115 28.06828880310059 C 7.108683586120605 22.88851547241211 10.24540901184082 18.23630142211914 14.24084663391113 14.24085235595703 C 18.23629570007324 10.24540233612061 22.88852119445801 7.108689785003662 28.06829643249512 4.917827129364014 C 33.43022155761719 2.649927139282227 39.12687301635742 1.500002145767212 44.99999618530273 1.500002145767212 C 50.87311935424805 1.500002145767212 56.56977081298828 2.649927139282227 61.93169784545898 4.917827129364014 C 67.11147308349609 7.108689785003662 71.76369476318359 10.24540233612061 75.75914764404297 14.24085235595703 C 79.75458526611328 18.23630142211914 82.89131164550781 22.88851547241211 85.08216857910156 28.06828880310059 C 87.35007476806641 33.43021392822266 88.5 39.12685394287109 88.5 44.99997711181641 C 88.5 50.87310028076172 87.35007476806641 56.56974029541016 85.08216857910156 61.93166351318359 C 82.89131164550781 67.11144256591797 79.75458526611328 71.76364898681641 75.75914764404297 75.75910186767578 C 71.76369476318359 79.75455474853516 67.11147308349609 82.89126586914062 61.93169784545898 85.08213043212891 C 56.56977081298828 87.35002899169922 50.87311935424805 88.49995422363281 44.99999618530273 88.49995422363281 Z" stroke="none"/>
                                  <path d="M 44.99999618530273 2.999992370605469 C 39.32870864868164 2.999992370605469 33.82865142822266 4.11004638671875 28.65262603759766 6.299331665039062 C 23.65165710449219 8.414566040039062 19.15968322753906 11.44333648681641 15.301513671875 15.30150604248047 C 11.44333648681641 19.15967559814453 8.414566040039062 23.65163421630859 6.299339294433594 28.65260696411133 C 4.110054016113281 33.82864761352539 2.999992370605469 39.32868957519531 2.999992370605469 44.99997711181641 C 2.999992370605469 50.6712646484375 4.110054016113281 56.17130661010742 6.299339294433594 61.34733581542969 C 8.414566040039062 66.34830474853516 11.44333648681641 70.84026336669922 15.301513671875 74.69844818115234 C 19.15968322753906 78.55661773681641 23.65165710449219 81.58537292480469 28.65262603759766 83.70062255859375 C 33.82865142822266 85.889892578125 39.32870864868164 86.99994659423828 44.99999618530273 86.99994659423828 C 50.67128372192383 86.99994659423828 56.17134094238281 85.889892578125 61.34736633300781 83.70062255859375 C 66.34834289550781 81.58537292480469 70.84030914306641 78.55661773681641 74.69847869873047 74.69844818115234 C 78.55665588378906 70.84026336669922 81.58542633056641 66.34830474853516 83.70065307617188 61.34733581542969 C 85.88993835449219 56.17130661010742 87 50.6712646484375 87 44.99997711181641 C 87 39.32868957519531 85.88993835449219 33.82864761352539 83.70065307617188 28.65260696411133 C 81.58542633056641 23.65163421630859 78.55665588378906 19.15967559814453 74.69847869873047 15.30150604248047 C 70.84030914306641 11.44333648681641 66.34834289550781 8.414566040039062 61.34736633300781 6.299331665039062 C 56.17134094238281 4.11004638671875 50.67128372192383 2.999992370605469 44.99999618530273 2.999992370605469 M 44.99999618530273 -7.62939453125e-06 C 69.85281372070312 -7.62939453125e-06 90 20.14717864990234 90 44.99997711181641 C 90 69.85277557373047 69.85281372070312 89.99994659423828 44.99999618530273 89.99994659423828 C 20.14717864990234 89.99994659423828 -7.62939453125e-06 69.85277557373047 -7.62939453125e-06 44.99997711181641 C -7.62939453125e-06 20.14717864990234 20.14717864990234 -7.62939453125e-06 44.99999618530273 -7.62939453125e-06 Z" stroke="none" fill="#1d7083"/>
                                </g>
                              </g>
                            </g>
                          </g>
                        </g>
                      </g>
                    </g>
                  </g>
                </g>
              </g>
            </g>
          </g>
        </g>
      </g>
    </g>
    <g id="mision-cumplida_4_" data-name="mision-cumplida (4)" transform="translate(212.733 498.095)">
      <g id="Grupo_1235170" data-name="Grupo 1235170" transform="translate(9.162 9.072)">
        <g id="Grupo_1235168" data-name="Grupo 1235168" transform="translate(0 0)">
          <path id="Trazado_1295143" data-name="Trazado 1295143" d="M47,20.076a20.992,20.992,0,0,1,6.147,2.548l3.994-1.774,4.708,4.708-1.774,3.993A20.99,20.99,0,0,1,62.619,35.7l4.075,1.569v6.658l-4.076,1.569a20.992,20.992,0,0,1-2.548,6.147l1.774,3.994-4.708,4.708-3.993-1.774A20.987,20.987,0,0,1,47,61.118l-1.569,4.075H38.769L37.2,61.117a20.993,20.993,0,0,1-6.147-2.548l-3.994,1.774-4.708-4.708,1.774-3.993a20.992,20.992,0,0,1-2.549-6.148L17.5,43.925V37.268L21.577,35.7a20.991,20.991,0,0,1,2.548-6.147l-1.773-3.994,4.708-4.708,3.994,1.774A21,21,0,0,1,37.2,20.076L38.769,16h6.657Z" transform="translate(-17.501 -16)" fill="#ffe177" fill-rule="evenodd"/>
          <path id="Trazado_1295144" data-name="Trazado 1295144" d="M95.394,58.569,91.4,60.343l-.615-.615,3.745-1.663q.426.263.864.5Zm15.942-38.493a20.992,20.992,0,0,1,6.147,2.548l-1.135.5a27.689,27.689,0,0,0-7.011-3.053L107.768,16h2Zm6.148,38.493a20.987,20.987,0,0,1-6.148,2.549l-1.569,4.075h-2l1.569-4.075a27.68,27.68,0,0,0,7.013-3.053Zm-26.7-37.1.615-.615,3.994,1.774q-.438.242-.864.5Zm29.308,0,1.385-.615,4.708,4.708-1.774,3.993A20.991,20.991,0,0,1,126.96,35.7l4.075,1.569v6.658l-4.076,1.569a20.992,20.992,0,0,1-2.548,6.147l1.774,3.994-4.708,4.708-1.385-.615,4.093-4.093-1.774-3.994a20.992,20.992,0,0,0,2.548-6.147l4.076-1.569V37.268L124.96,35.7a20.991,20.991,0,0,0-2.549-6.148l1.774-3.993Z" transform="translate(-81.842 -16)" fill="#ffd064" fill-rule="evenodd"/>
          <circle id="Elipse_11551" data-name="Elipse 11551" cx="13.042" cy="13.042" r="13.042" transform="translate(8.907 14.893) rotate(-13.3)" fill="#eceff1"/>
          <path id="Trazado_1295145" data-name="Trazado 1295145" d="M125.225,110.68a13.042,13.042,0,0,0,0,26.085q.524,0,1.037-.041a13.043,13.043,0,0,1,0-26Q125.749,110.681,125.225,110.68Z" transform="translate(-100.629 -99.126)" fill="#d1d1d6" fill-rule="evenodd"/>
        </g>
        <g id="Grupo_1235169" data-name="Grupo 1235169" transform="translate(24.249 24.651)">
          <circle id="Elipse_11552" data-name="Elipse 11552" cx="15.304" cy="15.304" r="15.304" transform="translate(0 3.318)" fill="#fe646f"/>
          <path id="Trazado_1295146" data-name="Trazado 1295146" d="M337.225,245.192a15.3,15.3,0,1,1,0,30.607c-.2,0-.408-.005-.61-.013a15.3,15.3,0,0,0,0-30.581C336.817,245.2,337.021,245.192,337.225,245.192Z" transform="translate(-321.921 -241.874)" fill="#fd4755" fill-rule="evenodd"/>
          <circle id="Elipse_11553" data-name="Elipse 11553" cx="9.834" cy="9.834" r="9.834" transform="translate(5.469 8.788)" fill="#eceff1"/>
          <path id="Trazado_1295147" data-name="Trazado 1295147" d="M270.863,290.011c.205,0,.408.007.61.019a9.834,9.834,0,0,0,0,19.63c-.2.012-.405.019-.61.019a9.834,9.834,0,0,1,0-19.669Z" transform="translate(-255.56 -281.223)" fill="#d1d1d6" fill-rule="evenodd"/>
          <circle id="Elipse_11554" data-name="Elipse 11554" cx="4.365" cy="4.365" r="4.365" transform="translate(9.618 16.253) rotate(-22.514)" fill="#fe646f"/>
          <path id="Trazado_1295148" data-name="Trazado 1295148" d="M310.213,334.829a4.4,4.4,0,0,1,.61.043,4.365,4.365,0,0,0,0,8.644,4.365,4.365,0,1,1-.61-8.687Z" transform="translate(-294.909 -320.572)" fill="#fd4755" fill-rule="evenodd"/>
          <path id="Trazado_1295149" data-name="Trazado 1295149" d="M412.242,223.842l-5.469,5.469a.357.357,0,0,1-.336.1l-4.29-.925a.359.359,0,0,1-.281-.281l-.925-4.29a.357.357,0,0,1,.1-.336l5.469-5.469a.366.366,0,0,1,.617.182l.825,3.828a.359.359,0,0,0,.281.281l3.828.825a.366.366,0,0,1,.182.617Z" transform="translate(-378.389 -218.001)" fill="#e3a76f" fill-rule="evenodd"/>
          <path id="Trazado_1295150" data-name="Trazado 1295150" d="M418.5,261.219l-5.469,5.469a.357.357,0,0,1-.336.1l-4.29-.925a.359.359,0,0,1-.281-.281l-.064-.3,4.268.92a.357.357,0,0,0,.336-.1l5.469-5.469a.39.39,0,0,0,.052-.064l.133.029a.366.366,0,0,1,.182.617Z" transform="translate(-384.647 -255.378)" fill="#c48958" fill-rule="evenodd"/>
        </g>
      </g>
      <path id="Trazado_1295151" data-name="Trazado 1295151" d="M65.6,39.652l-2.446-.527L58.71,43.568l2.444.527ZM37.13,8.109a.977.977,0,0,1,.685.6l1.387,3.6a21.921,21.921,0,0,1,5.484,2.274l3.531-1.568a.976.976,0,0,1,1.087.2l4.707,4.707a.976.976,0,0,1,.2,1.086l-1.568,3.53a21.917,21.917,0,0,1,2.274,5.487l3.6,1.386a.977.977,0,0,1,.625.911v1.489a.976.976,0,1,1-1.953,0V31l-3.449-1.328a.972.972,0,0,1-.6-.685,19.97,19.97,0,0,0-2.431-5.863.977.977,0,0,1-.061-.908l1.5-3.38L48.4,15.073l-3.381,1.5a.977.977,0,0,1-.908-.061,19.965,19.965,0,0,0-5.861-2.429.973.973,0,0,1-.685-.6l-1.329-3.45H30.917l-1.329,3.451a.978.978,0,0,1-.685.6,19.97,19.97,0,0,0-5.861,2.429.977.977,0,0,1-.908.061l-3.381-1.5-3.76,3.759,1.5,3.381a.979.979,0,0,1-.061.908A19.949,19.949,0,0,0,14,28.984a.98.98,0,0,1-.6.685L9.955,31v5.317L13.4,37.642a.977.977,0,0,1,.6.685,19.959,19.959,0,0,0,2.431,5.863.979.979,0,0,1,.061.908l-1.5,3.38,3.76,3.759,3.381-1.5a.977.977,0,0,1,.908.061A19.97,19.97,0,0,0,28.9,53.225a.976.976,0,0,1,.685.6l1.371,3.559a.976.976,0,0,1-.448,1.844h-.265a.975.975,0,0,1-.911-.626L27.948,55a21.9,21.9,0,0,1-5.484-2.273l-3.532,1.568a.974.974,0,0,1-1.086-.2l-4.708-4.707a.976.976,0,0,1-.2-1.086l1.568-3.53a21.883,21.883,0,0,1-2.275-5.486l-3.6-1.387A.974.974,0,0,1,8,36.984V30.327a.975.975,0,0,1,.624-.911l3.6-1.387A21.884,21.884,0,0,1,14.5,22.544l-1.568-3.531a.976.976,0,0,1,.2-1.086l4.708-4.707a.975.975,0,0,1,1.086-.2l3.532,1.568a21.906,21.906,0,0,1,5.484-2.274l1.387-3.6a.974.974,0,0,1,.685-.6h7.11ZM62.858,52.332a14.322,14.322,0,1,1-8.1-12.9,1.006,1.006,0,0,0,.021.206l.9,4.2-.217.218a10.814,10.814,0,1,0,1.378,1.383l.221-.221,4.2.9a.959.959,0,0,0,.189.021,14.355,14.355,0,0,1,1.406,6.2Zm-8.776-6.9a8.872,8.872,0,1,0,1.377,1.385l-2.512,2.511a5.351,5.351,0,1,1-1.374-1.387Zm-2.554,5.316-2.288,2.288a.977.977,0,1,1-1.382-1.38l2.3-2.3a3.389,3.389,0,1,0,1.371,1.391ZM56.8,39.742,61.245,35.3l.527,2.445L57.33,42.187Zm11.442.024-5.2,5.2a16.279,16.279,0,1,1-7.1-7.125l5.185-5.185a.977.977,0,0,1,1.645.485l.638,2.965.3-.3a.976.976,0,0,1,1.381,1.38l-.3.3,2.964.639a.976.976,0,0,1,.485,1.645ZM32.923,38.63l7.054-8.721a.976.976,0,1,0-1.518-1.228l-6.372,7.877-3.465-3.465a.976.976,0,0,0-1.38,1.38l4.232,4.233a.978.978,0,0,0,.691.286h.052A.978.978,0,0,0,32.923,38.63ZM30.76,45.391A12.067,12.067,0,1,1,45.639,33.477a.975.975,0,0,0,.975.962h.014a.975.975,0,0,0,.962-.99A14.018,14.018,0,1,0,22.618,42.4a14.088,14.088,0,0,0,7.688,4.888.967.967,0,0,0,.227.027.976.976,0,0,0,.226-1.926Z" fill="#242222" fill-rule="evenodd"/>
    </g>
  </g>
</svg>
