<svg id="Grupo_1235584" data-name="Grupo 1235584" xmlns="http://www.w3.org/2000/svg" xmlns:xlink="http://www.w3.org/1999/xlink" width="400" height="403" viewBox="0 0 400 403">
  <defs>
    <clipPath id="clip-path">
      <rect id="Rectángulo_423013" data-name="Rectángulo 423013" width="400" height="403" fill="#fff" stroke="#707070" stroke-width="1"/>
    </clipPath>
  </defs>
  <rect id="Rectángulo_423057" data-name="Rectángulo 423057" width="337" height="403" transform="translate(63)" fill="#fff4e6"/>
  <g id="Enmascarar_grupo_1211524" data-name="Enmascarar grupo 1211524" clip-path="url(#clip-path)">
    <g id="_4678435_5581" data-name="4678435_5581" transform="translate(0 90.059)">
      <g id="Grupo_1235540" data-name="Grupo 1235540" transform="translate(94.999)">
        <g id="Grupo_1235476" data-name="Grupo 1235476" transform="translate(1.663)">
          <path id="Trazado_1295878" data-name="Trazado 1295878" d="M342.665,187.648V121.131l5.426-1.051-2.713-17.153-2.713.245V46.392a3.5,3.5,0,0,0-3.5-3.5H132.451a3.5,3.5,0,0,0-3.5,3.5V187.648a3.5,3.5,0,0,0,3.5,3.5H339.164A3.5,3.5,0,0,0,342.665,187.648Z" transform="translate(-126.325 -38.691)" fill="#5f6368" opacity="0.4"/>
          <path id="Trazado_1295879" data-name="Trazado 1295879" d="M352.726,182.4V41.142a3.5,3.5,0,0,0-3.5-3.5H142.512a3.5,3.5,0,0,0-3.5,3.5V182.4a3.5,3.5,0,0,0,3.5,3.5H349.225A3.5,3.5,0,0,0,352.726,182.4Z" transform="translate(-139.012 -37.642)" fill="#6b747e"/>
          <rect id="Rectángulo_423014" data-name="Rectángulo 423014" width="204.263" height="138.806" transform="translate(4.725 4.726)" fill="#fafaf8"/>
          <path id="Trazado_1295880" data-name="Trazado 1295880" d="M349.18,43.548v2.625H147.018v136.18h-2.1V43.548Z" transform="translate(-140.192 -38.822)" fill="#5f6368" opacity="0.4"/>
          <g id="Grupo_1235475" data-name="Grupo 1235475" transform="translate(10.085 13.14)">
            <g id="Grupo_1235474" data-name="Grupo 1235474">
              <path id="Trazado_1295881" data-name="Trazado 1295881" d="M149.935,66.743c7.688-.5,15.467-.318,23.172-.392q12.074-.116,24.147-.214,24.669-.184,49.339-.375c32.377-.252,64.887.173,97.2-2.136,1.072-.077,1.411,1.584.324,1.659-31.766,2.21-63.686,1.672-95.509,1.778q-24.664.083-49.329.2-12.069.052-24.138.074c-8.367.018-16.82.335-25.175-.112C149.694,67.216,149.651,66.762,149.935,66.743Z" transform="translate(-149.741 -55.971)" fill="#ffc2cc"/>
              <path id="Trazado_1295882" data-name="Trazado 1295882" d="M245.645,115.128q.136-15.1.22-30.2c.057-10.035-.212-20.155.358-30.176.032-.562.97-.624,1-.045.5,9.734.182,19.56.127,29.3q-.085,15.1-.222,30.195c-.184,20.469-.339,40.954-.916,61.416-.022.757-1.164.647-1.161-.1C245.117,155.4,245.463,135.26,245.645,115.128Z" transform="translate(-128.73 -54.11)" fill="#ffc2cc"/>
              <path id="Trazado_1295883" data-name="Trazado 1295883" d="M346.351,86.1c-.038-10.406-.656-21.033.2-31.409.064-.775,1.328-.875,1.39-.062.747,9.762.14,19.73.046,29.513q-.15,15.7-.238,31.406c-.1,20.945.094,41.9-.107,62.841-.01.984-1.509.843-1.513-.126-.075-20.592.235-41.19.262-61.781Q346.415,101.288,346.351,86.1Z" transform="translate(-310.408 -54.061)" fill="#ffc2cc"/>
              <path id="Trazado_1295884" data-name="Trazado 1295884" d="M167.631,147.023c-.038,10.406-.656,21.033.2,31.409.064.775,1.328.875,1.39.062.747-9.761.14-19.73.046-29.513q-.15-15.7-.238-31.406c-.1-20.945.093-41.9-.107-62.841-.01-.984-1.509-.843-1.512.126-.075,20.592.235,41.189.262,61.781Q167.7,131.833,167.631,147.023Z" transform="translate(11.335 -54.061)" fill="#ffc2cc"/>
            </g>
          </g>
        </g>
        <path id="Trazado_1295885" data-name="Trazado 1295885" d="M182.042,61.155H217.8a1.312,1.312,0,1,0,0-2.625H182.042a1.312,1.312,0,0,0,0,2.625Z" transform="translate(-37.119 -41.814)" fill="#aec4c2"/>
        <path id="Trazado_1295886" data-name="Trazado 1295886" d="M194.991,56.344h15.031a1.312,1.312,0,1,0,0-2.625H194.991a1.312,1.312,0,1,0,0,2.625Z" transform="translate(-39.706 -40.853)" fill="#ff5b98"/>
        <g id="Grupo_1235483" data-name="Grupo 1235483" transform="translate(194.401 30.957)">
          <g id="Grupo_1235478" data-name="Grupo 1235478">
            <g id="Grupo_1235477" data-name="Grupo 1235477">
              <path id="Trazado_1295887" data-name="Trazado 1295887" d="M151.383,78.95h9.5a1.312,1.312,0,0,0,0-2.625h-9.5a1.312,1.312,0,0,0,0,2.625Z" transform="translate(-150.071 -76.325)" fill="#aec4c2"/>
            </g>
          </g>
          <g id="Grupo_1235480" data-name="Grupo 1235480" transform="translate(0 5.485)">
            <g id="Grupo_1235479" data-name="Grupo 1235479">
              <path id="Trazado_1295888" data-name="Trazado 1295888" d="M151.383,85.8h9.5a1.312,1.312,0,0,0,0-2.625h-9.5a1.312,1.312,0,0,0,0,2.625Z" transform="translate(-150.071 -83.179)" fill="#aec4c2"/>
            </g>
          </g>
          <g id="Grupo_1235482" data-name="Grupo 1235482" transform="translate(4.75 10.969)">
            <g id="Grupo_1235481" data-name="Grupo 1235481">
              <path id="Trazado_1295889" data-name="Trazado 1295889" d="M151.383,92.657h4.75a1.312,1.312,0,0,0,0-2.625h-4.75a1.312,1.312,0,1,0,0,2.625Z" transform="translate(-150.071 -90.032)" fill="#aec4c2"/>
            </g>
          </g>
        </g>
        <g id="Grupo_1235490" data-name="Grupo 1235490" transform="translate(194.401 88.638)">
          <g id="Grupo_1235485" data-name="Grupo 1235485" transform="translate(2.101)">
            <g id="Grupo_1235484" data-name="Grupo 1235484">
              <path id="Trazado_1295890" data-name="Trazado 1295890" d="M154.694,151.029h4.75a1.313,1.313,0,0,0,0-2.626h-4.75a1.313,1.313,0,0,0,0,2.626Z" transform="translate(-153.382 -148.403)" fill="#aec4c2"/>
            </g>
          </g>
          <g id="Grupo_1235487" data-name="Grupo 1235487" transform="translate(0 5.485)">
            <g id="Grupo_1235486" data-name="Grupo 1235486">
              <path id="Trazado_1295891" data-name="Trazado 1295891" d="M151.383,157.883h9.5a1.313,1.313,0,0,0,0-2.626h-9.5a1.313,1.313,0,0,0,0,2.626Z" transform="translate(-150.071 -155.257)" fill="#aec4c2"/>
            </g>
          </g>
          <g id="Grupo_1235489" data-name="Grupo 1235489" transform="translate(0.025 10.969)">
            <g id="Grupo_1235488" data-name="Grupo 1235488">
              <path id="Trazado_1295892" data-name="Trazado 1295892" d="M151.383,164.736h9.476a1.313,1.313,0,0,0,0-2.626h-9.476a1.313,1.313,0,0,0,0,2.626Z" transform="translate(-150.071 -162.11)" fill="#aec4c2"/>
            </g>
          </g>
        </g>
        <g id="Grupo_1235497" data-name="Grupo 1235497" transform="translate(93.583 115.739)">
          <g id="Grupo_1235492" data-name="Grupo 1235492" transform="translate(2.1)">
            <g id="Grupo_1235491" data-name="Grupo 1235491">
              <path id="Trazado_1295893" data-name="Trazado 1295893" d="M280.675,184.894h4.75a1.313,1.313,0,0,0,0-2.626h-4.75a1.313,1.313,0,0,0,0,2.626Z" transform="translate(-279.362 -182.268)" fill="#aec4c2"/>
            </g>
          </g>
          <g id="Grupo_1235494" data-name="Grupo 1235494" transform="translate(0 5.484)">
            <g id="Grupo_1235493" data-name="Grupo 1235493">
              <path id="Trazado_1295894" data-name="Trazado 1295894" d="M277.363,191.747h9.5a1.313,1.313,0,0,0,0-2.626h-9.5a1.313,1.313,0,0,0,0,2.626Z" transform="translate(-276.05 -189.121)" fill="#aec4c2"/>
            </g>
          </g>
          <g id="Grupo_1235496" data-name="Grupo 1235496" transform="translate(0.024 10.969)">
            <g id="Grupo_1235495" data-name="Grupo 1235495">
              <path id="Trazado_1295895" data-name="Trazado 1295895" d="M277.363,198.6h9.477a1.313,1.313,0,0,0,0-2.626h-9.477a1.313,1.313,0,0,0,0,2.626Z" transform="translate(-276.05 -195.975)" fill="#aec4c2"/>
            </g>
          </g>
        </g>
        <g id="Grupo_1235499" data-name="Grupo 1235499" transform="translate(194.401 52.661)">
          <g id="Grupo_1235498" data-name="Grupo 1235498">
            <path id="Trazado_1295896" data-name="Trazado 1295896" d="M151.383,106.072h9.5a1.312,1.312,0,0,0,0-2.625h-9.5a1.312,1.312,0,0,0,0,2.625Z" transform="translate(-150.071 -103.447)" fill="#aec4c2"/>
          </g>
        </g>
        <g id="Grupo_1235501" data-name="Grupo 1235501" transform="translate(196.502 119.874)">
          <g id="Grupo_1235500" data-name="Grupo 1235500">
            <path id="Trazado_1295897" data-name="Trazado 1295897" d="M151.383,190.061h7.4a1.313,1.313,0,0,0,0-2.626h-7.4a1.313,1.313,0,0,0,0,2.626Z" transform="translate(-150.071 -187.435)" fill="#aec4c2"/>
          </g>
        </g>
        <path id="Trazado_1295898" data-name="Trazado 1295898" d="M363.09,61.155h12.557a1.312,1.312,0,1,0,0-2.625H363.09a1.312,1.312,0,1,0,0,2.625Z" transform="translate(-339.854 -41.814)" fill="#aec4c2"/>
        <path id="Trazado_1295899" data-name="Trazado 1295899" d="M358.86,56.344h20.283a1.312,1.312,0,1,0,0-2.625H358.86a1.312,1.312,0,1,0,0,2.625Z" transform="translate(-339.965 -40.853)" fill="#ff5b98"/>
        <path id="Trazado_1295900" data-name="Trazado 1295900" d="M276.966,61.155h34.265a1.312,1.312,0,1,0,0-2.625H276.966a1.312,1.312,0,1,0,0,2.625Z" transform="translate(-206.516 -41.814)" fill="#aec4c2"/>
        <path id="Trazado_1295901" data-name="Trazado 1295901" d="M263.844,56.344H288.4a1.312,1.312,0,1,0,0-2.625H263.844a1.312,1.312,0,1,0,0,2.625Z" transform="translate(-173.18 -40.853)" fill="#ff5b98"/>
        <path id="Trazado_1295902" data-name="Trazado 1295902" d="M306.879,56.344H322.2a1.312,1.312,0,1,0,0-2.625H306.879a1.312,1.312,0,1,0,0,2.625Z" transform="translate(-241.42 -40.853)" fill="#ff5b98"/>
        <g id="Grupo_1235502" data-name="Grupo 1235502" transform="translate(140.222 94.334)">
          <path id="Trazado_1295903" data-name="Trazado 1295903" d="M224.227,160.334c1.1-1.171,4.622-3.511,6.172-2.189a.811.811,0,0,1-.5,1.4c-4.671.146-6.881,4.706-7.246,8.717-.038.422-.715.429-.815.038A8.551,8.551,0,0,1,224.227,160.334Z" transform="translate(-221.603 -155.967)" fill="#aec4c2"/>
          <path id="Trazado_1295904" data-name="Trazado 1295904" d="M219.973,155.526a13.806,13.806,0,0,1,5.335,1.06.726.726,0,0,1,.383.811,13.822,13.822,0,0,1-1.126,2.662c-.4.8-.652,1.555-1.5,1.915-.427.18-.8-.211-.857-.6-.116-.808.426-1.432.8-2.12.313-.581.607-1.168.937-1.734a18.74,18.74,0,0,0-4.025-1.31A.35.35,0,0,1,219.973,155.526Z" transform="translate(-215.085 -155.521)" fill="#aec4c2"/>
        </g>
        <g id="Grupo_1235503" data-name="Grupo 1235503" transform="translate(118.821 37.261)">
          <path id="Trazado_1295905" data-name="Trazado 1295905" d="M256.61,92.372c-.344,1.571-2.159,5.387-4.168,5.05a.811.811,0,0,1-.29-1.463c3.932-2.527,3.483-7.574,1.732-11.2-.184-.382.394-.735.679-.452A8.552,8.552,0,0,1,256.61,92.372Z" transform="translate(-250.564 -84.203)" fill="#aec4c2"/>
          <path id="Trazado_1295906" data-name="Trazado 1295906" d="M257.89,99.5a13.784,13.784,0,0,1-5.122,1.833.725.725,0,0,1-.745-.5,13.844,13.844,0,0,1-.4-2.863,3.3,3.3,0,0,1,.3-2.416.664.664,0,0,1,1.042.071,3.525,3.525,0,0,1,.407,2.228c.03.659.079,1.313.088,1.969a18.7,18.7,0,0,0,4.126-.947A.351.351,0,0,1,257.89,99.5Z" transform="translate(-251.541 -86.426)" fill="#aec4c2"/>
        </g>
        <g id="Grupo_1235504" data-name="Grupo 1235504" transform="translate(70.729 67.639)">
          <path id="Trazado_1295907" data-name="Trazado 1295907" d="M306.849,125.891c-.968,1.284-2.679,5.149-1.115,6.453a.811.811,0,0,0,1.3-.732c-.645-4.629,3.475-7.577,7.368-8.614.41-.109.3-.778-.1-.81A8.549,8.549,0,0,0,306.849,125.891Z" transform="translate(-302.928 -122.163)" fill="#aec4c2"/>
          <path id="Trazado_1295908" data-name="Trazado 1295908" d="M311.147,130.434a13.776,13.776,0,0,0,1.947,5.079.726.726,0,0,0,.864.239,13.776,13.776,0,0,0,2.434-1.56c.716-.532,1.422-.906,1.633-1.805.106-.451-.344-.755-.733-.744-.816.022-1.34.662-1.955,1.144-.519.407-1.048.8-1.552,1.217a18.721,18.721,0,0,1-1.971-3.746A.349.349,0,0,0,311.147,130.434Z" transform="translate(-311.143 -123.738)" fill="#aec4c2"/>
        </g>
        <path id="Trazado_1295909" data-name="Trazado 1295909" d="M261.809,103.978c7.09-7.6,18.66-3.149,24.723,3.106.218.225-.134.511-.356.314a26.317,26.317,0,0,0-5.181-3.619c.521.389,1.02.8,1.49,1.215,3.564,3.139,6.1,7.658,5.447,12.489-1.352,10-15.594,9.5-22.246,6.321C257.714,119.99,255.843,110.377,261.809,103.978ZM264.767,121c5.541,4.179,16.241,4.577,20.39-1.682,4.585-6.915-5.517-16.39-12.069-15.986-.733.046-1.195-.948-.431-1.305a6.086,6.086,0,0,1,1.384-.459,14.846,14.846,0,0,0-8.552,1.577C258.1,106.973,258.691,116.422,264.767,121Z" transform="translate(-168.12 -50.091)" fill="#ffc2cc"/>
        <g id="Grupo_1235538" data-name="Grupo 1235538" transform="translate(0 0.005)">
          <g id="Grupo_1235505" data-name="Grupo 1235505" transform="translate(159.982 43.714)">
            <path id="Trazado_1295910" data-name="Trazado 1295910" d="M204.009,110.025l-15.78.831-1.142-13.912h15.78Z" transform="translate(-187.087 -93.206)" fill="#5f6368" opacity="0.4"/>
            <rect id="Rectángulo_423015" data-name="Rectángulo 423015" width="15.78" height="15.78" transform="translate(0)" fill="#d4f031"/>
          </g>
          <g id="Grupo_1235506" data-name="Grupo 1235506" transform="translate(132.677 27.065)">
            <path id="Trazado_1295911" data-name="Trazado 1295911" d="M238.129,89.22l-15.78.831-1.142-13.912h15.78Z" transform="translate(-221.207 -72.401)" fill="#5f6368" opacity="0.4"/>
            <rect id="Rectángulo_423016" data-name="Rectángulo 423016" width="15.78" height="15.78" transform="translate(0)" fill="#d4f031"/>
          </g>
          <g id="Grupo_1235507" data-name="Grupo 1235507" transform="translate(14.775 59.584)">
            <path id="Trazado_1295912" data-name="Trazado 1295912" d="M382.39,128.816,371.1,130.685l-1.142-13.912h15.781Z" transform="translate(-369.962 -113.036)" fill="#5f6368" opacity="0.4"/>
            <rect id="Rectángulo_423017" data-name="Rectángulo 423017" width="15.78" height="15.78" transform="translate(0.001)" fill="#d4f031"/>
          </g>
          <g id="Grupo_1235508" data-name="Grupo 1235508" transform="translate(27.348 105.402)">
            <path id="Trazado_1295913" data-name="Trazado 1295913" d="M369.9,187.939H354.738L353.6,174.027h15.78Z" transform="translate(-353.596 -170.29)" fill="#5f6368" opacity="0.4"/>
            <rect id="Rectángulo_423018" data-name="Rectángulo 423018" width="15.78" height="15.78" transform="translate(0)" fill="#d4f031"/>
          </g>
          <g id="Grupo_1235509" data-name="Grupo 1235509" transform="translate(137.074 110.489)">
            <path id="Trazado_1295914" data-name="Trazado 1295914" d="M232.635,193.465l-15.78.831-1.142-13.912h15.78Z" transform="translate(-215.713 -176.647)" fill="#5f6368" opacity="0.4"/>
            <rect id="Rectángulo_423019" data-name="Rectángulo 423019" width="15.78" height="15.78" transform="translate(0)" fill="#8bd6f5"/>
          </g>
          <g id="Grupo_1235510" data-name="Grupo 1235510" transform="translate(66.882 112.358)">
            <path id="Trazado_1295915" data-name="Trazado 1295915" d="M320.346,195.8l-15.78.831-1.142-13.912H319.2Z" transform="translate(-303.424 -178.982)" fill="#5f6368" opacity="0.4"/>
            <rect id="Rectángulo_423020" data-name="Rectángulo 423020" width="15.78" height="15.78" transform="translate(0)" fill="#8bd6f5"/>
          </g>
          <g id="Grupo_1235511" data-name="Grupo 1235511" transform="translate(52.182 108.183)">
            <path id="Trazado_1295916" data-name="Trazado 1295916" d="M338.714,190.584l-15.781.831L321.791,177.5h15.78Z" transform="translate(-321.791 -173.765)" fill="#5f6368" opacity="0.4"/>
            <rect id="Rectángulo_423021" data-name="Rectángulo 423021" width="15.78" height="15.78" transform="translate(0)" fill="#ff5b98"/>
          </g>
          <g id="Grupo_1235512" data-name="Grupo 1235512" transform="translate(94.858 84.487)">
            <path id="Trazado_1295917" data-name="Trazado 1295917" d="M284.211,160.595l-15.468,3.231-3.254-13.574,15.6-2.41Z" transform="translate(-264.907 -144.145)" fill="#5f6368" opacity="0.4"/>
            <rect id="Rectángulo_423022" data-name="Rectángulo 423022" width="15.781" height="15.781" transform="matrix(-0.988, 0.153, -0.153, -0.988, 18.005, 15.596)" fill="#d4f031"/>
          </g>
          <g id="Grupo_1235513" data-name="Grupo 1235513" transform="translate(107.949 115.915)">
            <path id="Trazado_1295918" data-name="Trazado 1295918" d="M268.777,200.59l-15.795.5-.847-13.933,15.777.335Z" transform="translate(-251.878 -183.424)" fill="#5f6368" opacity="0.4"/>
            <rect id="Rectángulo_423023" data-name="Rectángulo 423023" width="15.781" height="15.781" transform="matrix(-1, -0.021, 0.021, -1, 15.777, 16.112)" fill="#ff5b98"/>
          </g>
          <g id="Grupo_1235514" data-name="Grupo 1235514" transform="translate(168.443 106.751)">
            <path id="Trazado_1295919" data-name="Trazado 1295919" d="M193.436,188.8l-15.781.831-1.142-13.912h15.781Z" transform="translate(-176.513 -171.976)" fill="#5f6368" opacity="0.4"/>
            <rect id="Rectángulo_423024" data-name="Rectángulo 423024" width="15.78" height="15.78" transform="translate(0.001)" fill="#d4f031"/>
          </g>
          <g id="Grupo_1235515" data-name="Grupo 1235515" transform="translate(150.045 105.417)">
            <path id="Trazado_1295920" data-name="Trazado 1295920" d="M214.323,189.789l-15.688-1.9,1.273-13.9,15.544,2.72Z" transform="translate(-197.835 -170.297)" fill="#5f6368" opacity="0.4"/>
            <rect id="Rectángulo_423025" data-name="Rectángulo 423025" width="15.78" height="15.78" transform="matrix(-0.985, -0.172, 0.172, -0.985, 15.544, 18.264)" fill="#d4f031"/>
          </g>
          <g id="Grupo_1235516" data-name="Grupo 1235516" transform="translate(172.856 24.374)">
            <path id="Trazado_1295921" data-name="Trazado 1295921" d="M187.922,85.857l-15.78.831L171,72.776h15.78Z" transform="translate(-171 -69.039)" fill="#5f6368" opacity="0.4"/>
            <rect id="Rectángulo_423026" data-name="Rectángulo 423026" width="15.78" height="15.78" transform="translate(0)" fill="#8bd6f5"/>
          </g>
          <g id="Grupo_1235517" data-name="Grupo 1235517" transform="translate(110.36 81.123)">
            <path id="Trazado_1295922" data-name="Trazado 1295922" d="M266.016,156.769l-15.78.831-1.143-13.912h15.781Z" transform="translate(-249.093 -139.951)" fill="#5f6368" opacity="0.4"/>
            <rect id="Rectángulo_423027" data-name="Rectángulo 423027" width="15.78" height="15.78" transform="translate(0.001)" fill="#8bd6f5"/>
          </g>
          <g id="Grupo_1235518" data-name="Grupo 1235518" transform="translate(68.632 84.669)">
            <path id="Trazado_1295923" data-name="Trazado 1295923" d="M318.159,161.2l-15.78.83-1.142-13.912h15.78Z" transform="translate(-301.237 -144.382)" fill="#5f6368" opacity="0.4"/>
            <rect id="Rectángulo_423028" data-name="Rectángulo 423028" width="15.78" height="15.78" transform="translate(0)" fill="#ff5b98"/>
          </g>
          <g id="Grupo_1235519" data-name="Grupo 1235519" transform="translate(51.545 82.568)">
            <path id="Trazado_1295924" data-name="Trazado 1295924" d="M339.51,158.576l-15.781.831-1.142-13.912h15.781Z" transform="translate(-322.587 -141.757)" fill="#5f6368" opacity="0.4"/>
            <rect id="Rectángulo_423029" data-name="Rectángulo 423029" width="15.78" height="15.78" transform="translate(0.001)" fill="#8bd6f5"/>
          </g>
          <g id="Grupo_1235520" data-name="Grupo 1235520" transform="translate(12.593 93.672)">
            <path id="Trazado_1295925" data-name="Trazado 1295925" d="M388.185,172.45l-15.78.831-1.142-13.912h15.78Z" transform="translate(-371.263 -155.632)" fill="#5f6368" opacity="0.4"/>
            <rect id="Rectángulo_423030" data-name="Rectángulo 423030" width="15.78" height="15.78" transform="translate(0)" fill="#8bd6f5"/>
          </g>
          <g id="Grupo_1235521" data-name="Grupo 1235521" transform="translate(0 135.581)">
            <path id="Trazado_1295926" data-name="Trazado 1295926" d="M396.931,226.534l.438,2.358-14.7,2.7-2.188-11.543,6.024,6.481Z" transform="translate(-375.228 -209.661)" fill="#5f6368" opacity="0.4"/>
            <rect id="Rectángulo_423031" data-name="Rectángulo 423031" width="15.78" height="15.78" transform="translate(18.427 15.507) rotate(169.338)" fill="#ff5b98"/>
          </g>
          <g id="Grupo_1235522" data-name="Grupo 1235522" transform="translate(12.593 31.668)">
            <path id="Trazado_1295927" data-name="Trazado 1295927" d="M388.185,94.972,372.4,95.8l-1.142-13.912h15.78Z" transform="translate(-371.263 -78.153)" fill="#5f6368" opacity="0.4"/>
            <rect id="Rectángulo_423032" data-name="Rectángulo 423032" width="15.78" height="15.78" transform="translate(0)" fill="#8bd6f5"/>
          </g>
          <g id="Grupo_1235523" data-name="Grupo 1235523" transform="translate(203.124 59.825)">
            <path id="Trazado_1295928" data-name="Trazado 1295928" d="M150.8,131.6l-8.9,1.085-2.887-13.656,11.786-1.991Z" transform="translate(-138.545 -113.33)" fill="#5f6368" opacity="0.4"/>
            <rect id="Rectángulo_423033" data-name="Rectángulo 423033" width="15.78" height="15.78" transform="translate(17.646 15.654) rotate(172.75)" fill="#d4f031"/>
          </g>
          <g id="Grupo_1235524" data-name="Grupo 1235524" transform="translate(172.218 86.434)">
            <path id="Trazado_1295929" data-name="Trazado 1295929" d="M188.719,163.407l-15.78.831L171.8,150.326h15.78Z" transform="translate(-171.797 -146.588)" fill="#5f6368" opacity="0.4"/>
            <rect id="Rectángulo_423034" data-name="Rectángulo 423034" width="15.78" height="15.78" transform="translate(0)" fill="#8bd6f5"/>
          </g>
          <g id="Grupo_1235525" data-name="Grupo 1235525" transform="translate(154.34 86.434)">
            <path id="Trazado_1295930" data-name="Trazado 1295930" d="M211.059,163.407l-15.78.831-1.142-13.912h15.78Z" transform="translate(-194.137 -146.588)" fill="#5f6368" opacity="0.4"/>
            <rect id="Rectángulo_423035" data-name="Rectángulo 423035" width="15.78" height="15.78" transform="translate(0)" fill="#d4f031"/>
          </g>
          <g id="Grupo_1235526" data-name="Grupo 1235526" transform="translate(146.405 62.801)">
            <path id="Trazado_1295931" data-name="Trazado 1295931" d="M219.8,133.495l-15.468,3.231-3.254-13.574,15.6-2.41Z" transform="translate(-200.501 -117.046)" fill="#5f6368" opacity="0.4"/>
            <rect id="Rectángulo_423036" data-name="Rectángulo 423036" width="15.781" height="15.781" transform="matrix(-0.988, 0.153, -0.153, -0.988, 18.005, 15.596)" fill="#ff5b98"/>
          </g>
          <g id="Grupo_1235527" data-name="Grupo 1235527" transform="translate(58.165 35.34)">
            <path id="Trazado_1295932" data-name="Trazado 1295932" d="M331.079,99.521l-15.76,1.15-1.424-13.885,15.777-.32Z" transform="translate(-313.82 -82.738)" fill="#5f6368" opacity="0.4"/>
            <rect id="Rectángulo_423037" data-name="Rectángulo 423037" width="15.78" height="15.78" transform="translate(16.098 15.777) rotate(178.837)" fill="#8bd6f5"/>
          </g>
          <g id="Grupo_1235528" data-name="Grupo 1235528" transform="translate(24.539 27.965)">
            <path id="Trazado_1295933" data-name="Trazado 1295933" d="M373.1,90.3l-15.761,1.15-1.424-13.885,15.778-.32Z" transform="translate(-355.839 -73.522)" fill="#5f6368" opacity="0.4"/>
            <rect id="Rectángulo_423038" data-name="Rectángulo 423038" width="15.78" height="15.78" transform="translate(16.098 15.777) rotate(178.837)" fill="#ff5b98"/>
          </g>
          <g id="Grupo_1235529" data-name="Grupo 1235529" transform="translate(98.184 53.839)">
            <path id="Trazado_1295934" data-name="Trazado 1295934" d="M281.074,122.641l-15.761,1.151-1.424-13.886,15.778-.319Z" transform="translate(-263.815 -105.856)" fill="#5f6368" opacity="0.4"/>
            <rect id="Rectángulo_423039" data-name="Rectángulo 423039" width="15.78" height="15.78" transform="translate(16.098 15.777) rotate(178.837)" fill="#ff5b98"/>
          </g>
          <g id="Grupo_1235530" data-name="Grupo 1235530" transform="translate(154.299 24.76)">
            <path id="Trazado_1295935" data-name="Trazado 1295935" d="M209.894,88.054l-15.78-.859.35-13.954,15.691,1.685Z" transform="translate(-193.173 -69.517)" fill="#5f6368" opacity="0.4"/>
            <rect id="Rectángulo_423040" data-name="Rectángulo 423040" width="15.781" height="15.781" transform="translate(15.69 17.376) rotate(-173.869)" fill="#ffe028"/>
          </g>
          <g id="Grupo_1235531" data-name="Grupo 1235531" transform="translate(79.828 79.762)">
            <path id="Trazado_1295936" data-name="Trazado 1295936" d="M302.963,156.757l-15.78-.859.35-13.954,15.691,1.685Z" transform="translate(-286.25 -138.242)" fill="#5f6368" opacity="0.4"/>
            <rect id="Rectángulo_423041" data-name="Rectángulo 423041" width="15.781" height="15.781" transform="matrix(-0.994, -0.107, 0.107, -0.994, 15.69, 17.374)" fill="#ffe028"/>
          </g>
          <g id="Grupo_1235532" data-name="Grupo 1235532" transform="translate(102.458 25.815)">
            <path id="Trazado_1295937" data-name="Trazado 1295937" d="M274.681,89.348,258.9,88.489l.349-13.954,15.691,1.685Z" transform="translate(-257.966 -70.83)" fill="#5f6368" opacity="0.4"/>
            <rect id="Rectángulo_423042" data-name="Rectángulo 423042" width="15.781" height="15.781" transform="matrix(-0.994, -0.107, 0.107, -0.994, 15.69, 17.374)" fill="#8bd6f5"/>
          </g>
          <g id="Grupo_1235533" data-name="Grupo 1235533" transform="translate(88.521 29.216)">
            <path id="Trazado_1295938" data-name="Trazado 1295938" d="M292.653,91.74,277,93.918l-2.329-13.763,15.723-1.35Z" transform="translate(-274.362 -75.084)" fill="#5f6368" opacity="0.4"/>
            <rect id="Rectángulo_423043" data-name="Rectángulo 423043" width="15.78" height="15.78" transform="translate(17.073 15.722) rotate(175.089)" fill="#d4f031"/>
          </g>
          <g id="Grupo_1235534" data-name="Grupo 1235534" transform="translate(68.479 26.353)">
            <path id="Trazado_1295939" data-name="Trazado 1295939" d="M318.007,88.834l-15.8.35-.719-13.94,15.774.48Z" transform="translate(-301.135 -71.51)" fill="#5f6368" opacity="0.4"/>
            <rect id="Rectángulo_423044" data-name="Rectángulo 423044" width="15.78" height="15.78" transform="translate(15.772 16.252) rotate(-178.258)" fill="#ffe028"/>
          </g>
          <g id="Grupo_1235535" data-name="Grupo 1235535" transform="translate(48.048)">
            <path id="Trazado_1295940" data-name="Trazado 1295940" d="M340.4,57.2l-15.753-.482.744-13.608,12.587-.2-.1,3.135h2.736Z" transform="translate(-321.852 -38.699)" fill="#5f6368" opacity="0.4"/>
            <rect id="Rectángulo_423045" data-name="Rectángulo 423045" width="15.78" height="15.78" transform="translate(15.772 16.252) rotate(-178.258)" fill="#ffe028"/>
          </g>
          <g id="Grupo_1235536" data-name="Grupo 1235536" transform="translate(37.755 145.101)">
            <path id="Trazado_1295941" data-name="Trazado 1295941" d="M350.1,238.527l-14.7-.482c1.464-3.095,1.562-7.809.743-13.608l9.961-.2.43,3.135h4.312C351.093,231.988,350.923,235.849,350.1,238.527Z" transform="translate(-330.492 -220.017)" fill="#5f6368" opacity="0.4"/>
            <path id="Trazado_1295942" data-name="Trazado 1295942" d="M355.387,235.218l-15.773-.48c1.522-3.9,1.348-9.49.48-15.773l15.773.48C356.813,225.934,357.308,231.92,355.387,235.218Z" transform="translate(-339.614 -218.965)" fill="#ffe028"/>
          </g>
          <g id="Grupo_1235537" data-name="Grupo 1235537" transform="translate(26.784 70.341)">
            <path id="Trazado_1295943" data-name="Trazado 1295943" d="M370.113,143.8l-15.8.35-.719-13.94,15.773.479Z" transform="translate(-353.243 -126.477)" fill="#5f6368" opacity="0.4"/>
            <rect id="Rectángulo_423046" data-name="Rectángulo 423046" width="15.78" height="15.78" transform="translate(15.772 16.252) rotate(-178.258)" fill="#ffe028"/>
          </g>
        </g>
        <g id="Grupo_1235539" data-name="Grupo 1235539" transform="translate(84.948 54.414)">
          <path id="Trazado_1295944" data-name="Trazado 1295944" d="M298.662,122.247a.689.689,0,0,1,.788-.258.6.6,0,0,1,.268.172.823.823,0,0,1,.153.673c0,.008.017.226,0,.125a.817.817,0,0,1-.146.587.687.687,0,0,1-.947.178A1.024,1.024,0,0,1,298.662,122.247Z" transform="translate(-297.014 -108.896)" fill="#ffc2cc"/>
          <path id="Trazado_1295945" data-name="Trazado 1295945" d="M299.156,106.095a.689.689,0,0,1,1.169-.214c.9,1.328.84,2.981.964,4.55a20.176,20.176,0,0,1-.128,5.216.5.5,0,0,1-.984.045c-.372-1.627-.5-3.289-.711-4.942C299.269,109.209,298.735,107.614,299.156,106.095Z" transform="translate(-298.999 -105.638)" fill="#ffc2cc"/>
        </g>
      </g>
      <g id="Grupo_1235583" data-name="Grupo 1235583" transform="translate(0 35.469)">
        <g id="Grupo_1235541" data-name="Grupo 1235541" transform="translate(16.193 273.167)">
          <path id="Trazado_1295946" data-name="Trazado 1295946" d="M30.421,427.615h378.5a2.153,2.153,0,1,0,0-4.305H30.421a2.153,2.153,0,0,0,0,4.305Z" transform="translate(-28.268 -423.31)" fill="#9fb8ca"/>
        </g>
        <g id="Grupo_1235542" data-name="Grupo 1235542" transform="translate(0 273.167)">
          <path id="Trazado_1295947" data-name="Trazado 1295947" d="M516.609,427.615h5.616a2.153,2.153,0,1,0,0-4.305h-5.616a2.153,2.153,0,1,0,0,4.305Z" transform="translate(-514.456 -423.31)" fill="#9fb8ca"/>
        </g>
        <g id="Grupo_1235546" data-name="Grupo 1235546" transform="translate(12.258)">
          <path id="Trazado_1295948" data-name="Trazado 1295948" d="M453.529,261.9l-3.608,117.357a6.831,6.831,0,0,0,13.643.664l7.8-117.153a8.932,8.932,0,1,0-17.824-1.187C453.537,261.67,453.532,261.8,453.529,261.9Z" transform="translate(-422.077 -116.174)" fill="#322e46"/>
          <path id="Trazado_1295949" data-name="Trazado 1295949" d="M418,263.5l.541,116.211a6.831,6.831,0,0,0,13.657.2l3.945-116.145a9.075,9.075,0,1,0-18.139-.616C418,263.258,418,263.4,418,263.5Z" transform="translate(-361.299 -116.403)" fill="#322e46"/>
          <path id="Trazado_1295950" data-name="Trazado 1295950" d="M462.607,247.4h-43.29V217.331L415.9,162.983c16.137-5.692,32.275-3,48.412,2.694l-1.707,52.935Z" transform="translate(-387.781 -97.517)" fill="#8bd6f5"/>
          <path id="Trazado_1295951" data-name="Trazado 1295951" d="M486.5,165.753l-2.256,2.512c-1.452,1.629-3.495,3.946-5.906,6.814s-5.172,6.277-7.978,10.177c-1.4,1.953-2.813,4.029-4.161,6.286a43.558,43.558,0,0,0-3.684,7.546,21.593,21.593,0,0,0-1.165,4.846,12.725,12.725,0,0,0,.827,6.324,10.559,10.559,0,0,0,1.95,3.052,11.414,11.414,0,0,0,2.542,2.083,15.532,15.532,0,0,0,4.849,1.878,31.759,31.759,0,0,0,7.823.575c2.327-.078,4.433-.3,6.35-.555,3.827-.508,6.894-1.18,9.036-1.646,1.071-.232,1.9-.443,2.47-.587l.87-.218a4.524,4.524,0,0,0-1.736-8.867l-.082.013-3.22.474c-2.039.3-4.962.68-8.384.961-1.706.127-3.544.215-5.393.17a21.63,21.63,0,0,1-5.224-.643,4.662,4.662,0,0,1-1.562-.69c-.146-.1-.158-.167-.158-.179s.066.022.078.033c.038.054,0-.219.1-.782a11.3,11.3,0,0,1,.707-2.173,32.789,32.789,0,0,1,3.011-5.294c1.208-1.787,2.544-3.54,3.9-5.216,2.711-3.355,5.489-6.409,7.911-9s4.53-4.71,5.992-6.177l2.346-2.334.017-.017a6.805,6.805,0,0,0-9.6-9.648C486.682,165.562,486.584,165.665,486.5,165.753Z" transform="translate(-461.27 -98.248)" fill="#8bd6f5"/>
          <path id="Trazado_1295952" data-name="Trazado 1295952" d="M345.53,175.481l2.1,2.74,2.486,3.2c.986,1.229,2.062,2.614,3.32,4.121.617.754,1.267,1.539,1.973,2.348l1.061,1.235,1.147,1.268a58.513,58.513,0,0,0,5.4,5.322c.531.451,1.052.906,1.678,1.349a21.366,21.366,0,0,0,1.9,1.316l1.04.634c.34.212.772.4,1.159.59.4.188.784.384,1.213.554q.673.24,1.356.461l.686.214.746.15c.5.094,1,.186,1.5.254a15.444,15.444,0,0,0,3.115-.038,16.6,16.6,0,0,0,5.519-1.67,31.547,31.547,0,0,0,7.317-5.493c1.955-1.919,3.661-3.838,5.265-5.7,3.164-3.725,5.88-7.224,8.213-10.214l7.687-9.941.006-.007a4.653,4.653,0,0,0-7.2-5.885l-8.2,9.5c-2.455,2.824-5.317,6.121-8.432,9.412-1.56,1.626-3.186,3.257-4.842,4.716a20.834,20.834,0,0,1-4.77,3.281,4.751,4.751,0,0,1-1.671.394c-.224.061-.415-.062-.619-.033a2.945,2.945,0,0,0-.326-.1c-.054-.013-.11-.024-.166-.032l-.19-.091a13.355,13.355,0,0,1-3.846-2.769,46.846,46.846,0,0,1-4.018-4.433l-.935-1.151-.9-1.164c-.59-.754-1.152-1.512-1.689-2.246-1.081-1.444-2.052-2.841-2.918-4.048l-2.214-3.184-1.953-2.849a6.8,6.8,0,1,0-11.225,7.694C345.378,175.278,345.461,175.39,345.53,175.481Z" transform="translate(-278.422 -97.685)" fill="#8bd6f5"/>
          <path id="Trazado_1295953" data-name="Trazado 1295953" d="M461.325,253.532v12.582h-43.29V253.532C435.324,258.9,449.69,258.785,461.325,253.532Z" transform="translate(-386.499 -116.232)" fill="#322e46"/>
          <path id="Trazado_1295954" data-name="Trazado 1295954" d="M449.338,157.517l-4.694,7.752-9.422-7.752V142.224h14.116Z" transform="translate(-388.266 -94)" fill="#ffbe85"/>
          <path id="Trazado_1295955" data-name="Trazado 1295955" d="M435.222,151.882v-4.3h14.116v4.3c0,3.143-3.16,5.692-7.058,5.692h0C438.382,157.574,435.222,155.025,435.222,151.882Z" transform="translate(-388.266 -95.069)" fill="#f29a6b"/>
          <path id="Trazado_1295956" data-name="Trazado 1295956" d="M453.771,97.788h-35.1V126.5a14.833,14.833,0,0,0,14.833,14.833h9.969a10.292,10.292,0,0,0,10.293-10.293V97.788Z" transform="translate(-379.456 -85.124)" fill="#ffbe85"/>
          <path id="Trazado_1295957" data-name="Trazado 1295957" d="M423.206,97.788l.667,21.118a9.743,9.743,0,0,0,5.526,8.479l.36.173.919-1.4a3.742,3.742,0,0,1,3.4-1.684l12.314.9a3.742,3.742,0,0,1,3.229,2.411l.469,1.243.455-.628a13.078,13.078,0,0,0,2.385-6.04l.836-6.636v15.319a10.293,10.293,0,0,1-10.292,10.294h-9.972A14.832,14.832,0,0,1,418.674,126.5V97.788Z" transform="translate(-379.455 -85.124)" fill="#592f31"/>
          <path id="Trazado_1295958" data-name="Trazado 1295958" d="M435.884,84.052c.085.065.169.131.251.2,1.972,1.613,3.278,3.905,5.152,5.631a3.849,3.849,0,0,0,2.346,1.2,3.087,3.087,0,0,0,2.7-1.884,9.051,9.051,0,0,0,.658-3.4c1.749-.936,4.017.387,4.814,2.2s.543,3.9.274,5.865c3.1,1.478,3.857,5.641,3.173,9.005-.51,2.5-4.153,8.428-6.393,10.173l-.078-11.583s-5.727,5.341-29.116-2.36c.935,4,1.85,8.309.3,12.115-1.172,2.883-3.595,5.038-5.939,7.086a54.461,54.461,0,0,1-3.588-17.968,13.016,13.016,0,0,1,.808-5.725,7.393,7.393,0,0,1,3.549-3.555c1.483-.715,3.151-.435,4.718-.313a10.232,10.232,0,0,1,16.361-6.681Z" transform="translate(-374.581 -81.964)" fill="#592f31"/>
          <path id="Trazado_1295959" data-name="Trazado 1295959" d="M467.287,124.913c.571,3.091-.717,5.921-2.878,6.32s-4.376-1.782-4.947-4.874.717-5.921,2.878-6.32S466.716,121.821,467.287,124.913Z" transform="translate(-425.641 -89.559)" fill="#ffbe85"/>
          <path id="Trazado_1295960" data-name="Trazado 1295960" d="M442.533,125.113a3.479,3.479,0,0,1-.927-2.434c0-1.725,1.092-3.123,2.438-3.123s2.438,1.4,2.438,3.123a3.479,3.479,0,0,1-.927,2.434Z" transform="translate(-390.518 -89.472)" fill="#592f31"/>
          <path id="Trazado_1295961" data-name="Trazado 1295961" d="M423.263,125.113a3.479,3.479,0,0,1-.927-2.434c0-1.725,1.092-3.123,2.438-3.123s2.438,1.4,2.438,3.123a3.479,3.479,0,0,1-.927,2.434Z" transform="translate(-355.827 -89.472)" fill="#633b38"/>
          <path id="Trazado_1295962" data-name="Trazado 1295962" d="M434.192,143.517h0c-2.963.1-5.678-2.674-6.706-6.849l-.871-3.538,14.289.947-.6,2.718C439.442,140.745,437.007,143.421,434.192,143.517Z" transform="translate(-372.943 -92.184)" fill="#fec296"/>
          <path id="Trazado_1295963" data-name="Trazado 1295963" d="M434.2,139.775h0a5.5,5.5,0,0,1-5.251-3.858l-.61-1.945,11.564.779-.558,1.471A5.5,5.5,0,0,1,434.2,139.775Z" transform="translate(-373.328 -92.352)" fill="#592f31"/>
          <path id="Trazado_1295964" data-name="Trazado 1295964" d="M439.185,136.57h-9.969a5.481,5.481,0,0,1-.264-.653l-.61-1.945,11.564.779-.558,1.471C439.3,136.343,439.238,136.454,439.185,136.57Z" transform="translate(-373.328 -92.352)" fill="#fff"/>
          <path id="Trazado_1295965" data-name="Trazado 1295965" d="M433.672,181.777l2.923-4.48h5.583l3.54,4.48Z" transform="translate(-383.405 -101.005)" fill="#6369a0"/>
          <path id="Trazado_1295966" data-name="Trazado 1295966" d="M439.413,237.194h0c1.529,0,4.513-1.262,4.447-2.791L439.8,180.89l1.492-4.285-2.779-3.428-2.8,3.428,1.619,4.025L434.881,234.4C434.861,235.932,437.885,237.194,439.413,237.194Z" transform="translate(-382.516 -100.182)" fill="#1d182e"/>
          <path id="Trazado_1295967" data-name="Trazado 1295967" d="M345.865,153.334l2.478,1.757a4.706,4.706,0,0,1-.432,7.949l-8.9,4.956a3.077,3.077,0,0,1-4.539-2.228l-.254-1.683a10.86,10.86,0,0,1,3.577-9.792l.659-.579A5.987,5.987,0,0,1,345.865,153.334Z" transform="translate(-208.326 -95.999)" fill="#ffbe85"/>
          <g id="Grupo_1235543" data-name="Grupo 1235543" transform="translate(24.733 94.116)">
            <path id="Trazado_1295968" data-name="Trazado 1295968" d="M472.809,217.549a1.723,1.723,0,0,0,.982-3.139l-20.984-14.534a1.723,1.723,0,1,0-1.961,2.832l20.984,14.534A1.717,1.717,0,0,0,472.809,217.549Z" transform="translate(-450.104 -199.57)" fill="#1d182e"/>
          </g>
          <path id="Trazado_1295969" data-name="Trazado 1295969" d="M463.447,206.645l2.748,1.295a4.706,4.706,0,0,1,.97,7.9l-7.89,6.443a3.077,3.077,0,0,1-4.86-1.4l-.547-1.613a10.863,10.863,0,0,1,1.8-10.268l.548-.685A5.986,5.986,0,0,1,463.447,206.645Z" transform="translate(-422.286 -106.753)" fill="#ffbe85"/>
          <g id="Grupo_1235544" data-name="Grupo 1235544" transform="translate(12.301 261.205)">
            <path id="Trazado_1295970" data-name="Trazado 1295970" d="M458.779,422.351h29.786a59.532,59.532,0,0,0-.786-13.988H475.763c-4.194,3.875-8.6,6.515-16.984,9.727Z" transform="translate(-458.779 -408.363)" fill="#231922"/>
          </g>
          <g id="Grupo_1235545" data-name="Grupo 1235545" transform="translate(57.079 261.205)">
            <path id="Trazado_1295971" data-name="Trazado 1295971" d="M432.744,422.351H402.959a59.531,59.531,0,0,1,.786-13.988H415.76c4.194,3.875,8.6,6.515,16.984,9.727Z" transform="translate(-402.825 -408.363)" fill="#231922"/>
          </g>
          <rect id="Rectángulo_423047" data-name="Rectángulo 423047" width="6.994" height="1.866" transform="translate(65.88 24.211)" fill="#592f31"/>
          <rect id="Rectángulo_423048" data-name="Rectángulo 423048" width="6.994" height="1.866" transform="translate(49.507 24.211)" fill="#592f31"/>
          <path id="Trazado_1295972" data-name="Trazado 1295972" d="M344.837,144.162c.122,1.154-.708,2.167-1.493,3.021q-3.017,3.282-6.195,6.41a1.848,1.848,0,0,1-1.165.675c-1.056.021-1.581-1.656-2.633-1.561q4.457-4,8.915-8.006a3.682,3.682,0,0,1,1.212-.825A1.255,1.255,0,0,1,344.837,144.162Z" transform="translate(-202.253 -94.314)" fill="#ffbe85"/>
        </g>
        <g id="Grupo_1235557" data-name="Grupo 1235557" transform="translate(194.877 140.239)">
          <g id="Grupo_1235548" data-name="Grupo 1235548" transform="translate(28.564 78.053)">
            <g id="Grupo_1235547" data-name="Grupo 1235547">
              <rect id="Rectángulo_423049" data-name="Rectángulo 423049" width="9.293" height="43.662" fill="#814a5e"/>
            </g>
          </g>
          <rect id="Rectángulo_423050" data-name="Rectángulo 423050" width="12.759" height="14.321" transform="translate(26.831 78.053)" fill="#602a37"/>
          <g id="Grupo_1235552" data-name="Grupo 1235552" transform="translate(2.564 118.57)">
            <g id="Grupo_1235549" data-name="Grupo 1235549" transform="translate(29.077 0)">
              <path id="Trazado_1295973" data-name="Trazado 1295973" d="M232.215,419.929a3.144,3.144,0,0,0,2.336-5.247c-6.2-6.893-18.032-8.376-29.621-9.3a3.144,3.144,0,1,0-.5,6.268c9.872.79,20.794,2.066,25.448,7.24A3.139,3.139,0,0,0,232.215,419.929Z" transform="translate(-201.534 -405.369)" fill="#602a37"/>
            </g>
            <g id="Grupo_1235550" data-name="Grupo 1235550" transform="translate(0 0)">
              <path id="Trazado_1295974" data-name="Trazado 1295974" d="M241.012,419.929a3.138,3.138,0,0,0,2.338-1.042c4.653-5.174,15.576-6.45,25.448-7.24a3.144,3.144,0,1,0-.5-6.268c-11.589.927-23.422,2.41-29.621,9.3a3.144,3.144,0,0,0,2.337,5.247Z" transform="translate(-237.869 -405.369)" fill="#602a37"/>
            </g>
            <g id="Grupo_1235551" data-name="Grupo 1235551" transform="translate(27.534)">
              <path id="Trazado_1295975" data-name="Trazado 1295975" d="M241.013,419.929a3.144,3.144,0,0,0,3.144-3.144v-8.272a3.144,3.144,0,0,0-6.288,0v8.272A3.144,3.144,0,0,0,241.013,419.929Z" transform="translate(-237.869 -405.369)" fill="#602a37"/>
            </g>
          </g>
          <g id="Grupo_1235553" data-name="Grupo 1235553" transform="translate(56.612 124.277)">
            <path id="Trazado_1295976" data-name="Trazado 1295976" d="M204.037,423.918a5.709,5.709,0,1,0-5.709-5.709A5.715,5.715,0,0,0,204.037,423.918Zm0-8.275a2.566,2.566,0,1,1-2.565,2.566A2.569,2.569,0,0,1,204.037,415.643Z" transform="translate(-198.328 -412.5)" fill="#814a5e"/>
          </g>
          <g id="Grupo_1235554" data-name="Grupo 1235554" transform="translate(0 124.277)">
            <path id="Trazado_1295977" data-name="Trazado 1295977" d="M274.779,423.918a5.709,5.709,0,1,0-5.708-5.709A5.715,5.715,0,0,0,274.779,423.918Zm0-8.275a2.566,2.566,0,1,1-2.565,2.566A2.569,2.569,0,0,1,274.779,415.643Z" transform="translate(-269.071 -412.5)" fill="#814a5e"/>
          </g>
          <g id="Grupo_1235555" data-name="Grupo 1235555" transform="translate(28.665 123.884)">
            <path id="Trazado_1295978" data-name="Trazado 1295978" d="M244.572,424.213a1.965,1.965,0,0,0,1.965-1.965v-8.275a1.965,1.965,0,0,0-3.931,0v8.275A1.965,1.965,0,0,0,244.572,424.213Z" transform="translate(-242.607 -412.009)" fill="#814a5e"/>
          </g>
          <g id="Grupo_1235556" data-name="Grupo 1235556" transform="translate(33.642 123.884)">
            <path id="Trazado_1295979" data-name="Trazado 1295979" d="M238.352,424.213a1.965,1.965,0,0,0,1.965-1.965v-8.275a1.965,1.965,0,0,0-3.931,0v8.275A1.965,1.965,0,0,0,238.352,424.213Z" transform="translate(-236.387 -412.009)" fill="#814a5e"/>
          </g>
          <path id="Trazado_1295980" data-name="Trazado 1295980" d="M199.484,257.2H229a4.386,4.386,0,0,1,4.117,5.911c-7.542,20.283-10.828,42.488-10.824,66.177a5.948,5.948,0,0,1-5.94,5.965H186.386C184.441,297.533,183.913,262.44,199.484,257.2Z" transform="translate(-155.026 -257.205)" fill="#de3d3e"/>
          <path id="Trazado_1295981" data-name="Trazado 1295981" d="M199.2,351.6h59.154a5.945,5.945,0,0,0,5.945-5.945v-1.331a5.287,5.287,0,0,0-5.287-5.287H204.483a5.287,5.287,0,0,0-5.287,5.287V351.6Z" transform="translate(-196.96 -273.551)" fill="#de3d3e"/>
          <path id="Trazado_1295982" data-name="Trazado 1295982" d="M202.931,257.2h17.727a4.386,4.386,0,0,1,4.117,5.911c-7.542,20.283-10.828,42.488-10.824,66.177a5.948,5.948,0,0,1-5.94,5.965H185.9C183.958,297.533,187.36,262.44,202.931,257.2Z" transform="translate(-146.684 -257.205)" fill="#c03d3e"/>
        </g>
        <g id="Grupo_1235562" data-name="Grupo 1235562" transform="translate(166.39 54.528)">
          <path id="Trazado_1295983" data-name="Trazado 1295983" d="M242.52,318l30.641-8.458,9.951,24.056H242.52Z" transform="translate(-221.96 -181.947)" fill="#322e46"/>
          <path id="Trazado_1295984" data-name="Trazado 1295984" d="M275.356,226.036l-.393.465-.471.559c-.186.222-.386.45-.683.833-.565.714-1.255,1.591-1.9,2.532-.347.475-.69.991-1.044,1.538s-.728,1.12-1.087,1.729c-.744,1.209-1.471,2.538-2.2,3.94s-1.437,2.884-2.12,4.4c-1.379,3.03-2.658,6.2-3.977,9.133a44.865,44.865,0,0,1-4.217,7.746,19.914,19.914,0,0,1-2.348,2.787c-.387.419-.818.747-1.208,1.106-.418.318-.811.641-1.219.912a18.393,18.393,0,0,1-2.338,1.353c-.375.167-.715.345-1.049.48l-.932.357c-.559.225-1.044.333-1.353.443l-.484.152,2.311,9.654.69-.168c.45-.123,1.112-.245,1.949-.516l1.388-.443c.5-.171,1.042-.4,1.621-.627a28.814,28.814,0,0,0,3.774-1.9c.671-.4,1.341-.867,2.034-1.346.662-.518,1.374-1.032,2.024-1.637a30.553,30.553,0,0,0,3.789-3.987,55.347,55.347,0,0,0,5.868-9.365c1.635-3.16,3.067-6.2,4.474-8.88q1.049-2.017,2.069-3.741c.681-1.143,1.336-2.2,1.979-3.115.313-.47.624-.905.93-1.307s.584-.794.868-1.136c.565-.73,1.027-1.236,1.4-1.669.162-.2.412-.457.608-.664l.5-.531.418-.443Z" transform="translate(-226.925 -165.268)" fill="#3e3d5e"/>
          <path id="Trazado_1295985" data-name="Trazado 1295985" d="M179.284,234.767l1.945,1.973c1.252,1.269,3.006,3.023,5.02,5.13,1,1.053,2.069,2.193,3.132,3.4,1.085,1.209,2.129,2.493,3.14,3.816a27.807,27.807,0,0,1,2.562,4,8.821,8.821,0,0,1,1.061,3.213,1.9,1.9,0,0,1-.551,1.645c-.183.157-.3.335-.5.513-.235.17-.463.349-.685.536a14.517,14.517,0,0,1-1.79,1.007c-.335.153-.647.321-.992.466l-1.074.4c-.685.29-1.46.487-2.181.711s-1.468.4-2.185.571-1.41.345-2.109.462l-1.981.375c-.635.109-1.252.187-1.825.275-1.146.175-2.151.317-3,.4l-2.638.294.7,9.9,2.87-.182c.911-.044,2.027-.146,3.311-.28.643-.067,1.323-.122,2.047-.211l2.29-.321c.795-.1,1.637-.255,2.509-.426s1.769-.319,2.714-.575,1.9-.446,2.913-.8l1.525-.5c.518-.188,1.051-.424,1.582-.641a25.653,25.653,0,0,0,3.282-1.664q.846-.57,1.688-1.176c.561-.436,1.118-.983,1.663-1.493a18.985,18.985,0,0,0,1.541-1.869,19.524,19.524,0,0,0,1.259-2.257,16.747,16.747,0,0,0,.783-2.518,13.378,13.378,0,0,0,.283-2.534,19.452,19.452,0,0,0-1.885-8.305,39.1,39.1,0,0,0-3.391-5.963c-1.192-1.733-2.382-3.331-3.538-4.753-1.151-1.442-2.258-2.737-3.28-3.923-2.045-2.353-3.76-4.236-4.918-5.529l-1.842-2.053Z" transform="translate(-92.124 -165.238)" fill="#3e3d5e"/>
          <g id="Grupo_1235558" data-name="Grupo 1235558" transform="translate(51.069 131.399)">
            <path id="Trazado_1295986" data-name="Trazado 1295986" d="M244.858,327.355l.024-13.059h-41.02l.8,20.249h32.989A7.2,7.2,0,0,0,244.858,327.355Z" transform="translate(-203.862 -314.296)" fill="#322e46"/>
          </g>
          <path id="Trazado_1295987" data-name="Trazado 1295987" d="M242.379,296.431H201.471c-.127-22.875-2.873-52.686-3.038-74.181a1.939,1.939,0,0,1,1.974-1.946l43.161.587a3.131,3.131,0,0,1,3.1,3.018C247.172,240,242.331,263.979,242.379,296.431Z" transform="translate(-150.271 -164.123)" fill="#ecebea"/>
          <path id="Trazado_1295988" data-name="Trazado 1295988" d="M240.687,244.979l-2.581-4.48h-5.582l-3.882,4.48Z" transform="translate(-168.429 -168.157)" fill="#b1bfbf"/>
          <path id="Trazado_1295989" data-name="Trazado 1295989" d="M236.983,299.535h0c-1.529,0-5.279-1.262-5.1-2.791l8.951-52.653-1.164-4.285,3.041-3.428,2.542,3.428-1.927,4.025-.739,52.913C242.493,298.272,238.511,299.535,236.983,299.535Z" transform="translate(-175.591 -167.334)" fill="#52a7d4"/>
          <path id="Trazado_1295990" data-name="Trazado 1295990" d="M243.567,220.892l-12.065-.164c-1.731,16.254-11.7,35.364-17.965,56.07-6.208-19.444-5.772-47.586-2.784-56.352l-10.347-.141a1.939,1.939,0,0,0-1.974,1.946c.165,21.494,2.911,52.092,3.038,74.967h40.908c-.049-32.453,4.794-57.216,4.289-73.307A3.133,3.133,0,0,0,243.567,220.892Z" transform="translate(-150.268 -164.123)" fill="#3e3d5e"/>
          <path id="Trazado_1295991" data-name="Trazado 1295991" d="M224.263,288.021c-.226.767-.45,1.529-.683,2.3-.246-.77-.482-1.536-.719-2.3H202.947c.381,7.976.667,15.712.706,22.722h40.908c-.012-8.053.278-15.632.711-22.722Z" transform="translate(-152.451 -177.649)" fill="#322e46"/>
          <g id="Grupo_1235559" data-name="Grupo 1235559" transform="translate(60.248 36.336)">
            <path id="Trazado_1295992" data-name="Trazado 1295992" d="M226,227.606s-4.3-5.364-4.3-9.476l-1.6-11.168h18.065V218.13C238.158,222.242,226,227.606,226,227.606Z" transform="translate(-219.306 -197.794)" fill="#ffbe85"/>
            <path id="Trazado_1295993" data-name="Trazado 1295993" d="M223.415,212.9l-2.34-8.225,18.066-9.168v17.63C232.891,214.229,227.359,214.506,223.415,212.9Z" transform="translate(-221.075 -195.506)" fill="#ffbe85"/>
          </g>
          <path id="Trazado_1295994" data-name="Trazado 1295994" d="M206.213,246.448l2.069,4.368H200.57l2.069-4.368A1.977,1.977,0,0,1,206.213,246.448Z" transform="translate(-113.559 -169.119)" fill="#ecebea"/>
          <path id="Trazado_1295995" data-name="Trazado 1295995" d="M214.079,275.147c1.529-3.432,4.582-6.015,7.513-8.429a1.528,1.528,0,0,1,.727-.4,1.458,1.458,0,0,1,.82.216c5.276,2.635,10.026,8.291,8.738,14.416-2,1.17-4.009,2.9-6.335,2.839a19.35,19.35,0,0,1-10.707-3.909,3.623,3.623,0,0,1-1.243-1.354,3.417,3.417,0,0,1,.123-2.464Q213.88,275.594,214.079,275.147Z" transform="translate(-147.642 -173.312)" fill="#ffbe85"/>
          <path id="Trazado_1295996" data-name="Trazado 1295996" d="M301.414,273.607c-1.529-3.432-4.582-6.015-7.513-8.429a1.516,1.516,0,0,0-.727-.4,1.458,1.458,0,0,0-.82.216c-3.813,1.9-7.352,5.387-8.535,9.484a5.956,5.956,0,0,0,2.987,6.89,6.381,6.381,0,0,0,3.144.88,19.35,19.35,0,0,0,10.707-3.908,3.624,3.624,0,0,0,1.243-1.354,3.418,3.418,0,0,0-.123-2.464C301.669,274.209,301.547,273.9,301.414,273.607Z" transform="translate(-273.799 -173.005)" fill="#ffbe85"/>
          <path id="Trazado_1295997" data-name="Trazado 1295997" d="M284.533,327.408l.539,67.091a4.869,4.869,0,0,0,9.726.3l4.619-66.934a7.451,7.451,0,1,0-14.866-1.026C284.537,327.023,284.532,327.225,284.533,327.408Z" transform="translate(-271.903 -184.016)" fill="#3e3d5e"/>
          <path id="Trazado_1295998" data-name="Trazado 1295998" d="M246.567,326.615s.034,1.073.093,2.952c.011.88.025,1.949.041,3.175-.006,1.281-.011,2.726-.018,4.3-.061,6.341-.309,14.9-.548,23.507s-.435,17.246-.436,23.772c0,1.63,0,3.126.018,4.46s.021,2.488.054,3.453c.052,1.922.082,3.02.082,3.02a4.867,4.867,0,0,0,9.725.121l.006-.122s.05-1.048.139-2.883c.036-.914.118-2.037.2-3.321s.184-2.736.308-4.323c.479-6.345,1.308-14.846,2.192-23.381s1.777-17.108,2.332-23.632c.13-1.641.25-3.144.355-4.477.086-1.389.16-2.6.222-3.6.082-1.878.129-2.951.129-2.951a7.45,7.45,0,1,0-14.887-.651q-.012.273,0,.542Z" transform="translate(-202.855 -183.819)" fill="#3e3d5e"/>
          <g id="Grupo_1235560" data-name="Grupo 1235560" transform="translate(0 208.985)">
            <path id="Trazado_1295999" data-name="Trazado 1295999" d="M309.767,411.574l-9.119-.323a7.988,7.988,0,0,0-3.524.683l-7.776,3.455a4.354,4.354,0,0,0-2.586,3.98v3.684h25.745v-8.739A2.741,2.741,0,0,0,309.767,411.574Z" transform="translate(-286.762 -411.247)" fill="#231922"/>
            <path id="Trazado_1296000" data-name="Trazado 1296000" d="M312.509,419.991V424.8H286.764v-3.685a4.336,4.336,0,0,1,.155-1.124Z" transform="translate(-286.764 -412.993)" fill="#3e3d5e"/>
          </g>
          <path id="Trazado_1296001" data-name="Trazado 1296001" d="M248.166,411.451h8.68a4.682,4.682,0,0,1,3.524,1.6l1.247,1.425a6.858,6.858,0,0,1,1.7,4.515v3.939H244.391v-7.7A3.775,3.775,0,0,1,248.166,411.451Z" transform="translate(-203.658 -202.302)" fill="#231922"/>
          <path id="Trazado_1296002" data-name="Trazado 1296002" d="M263.249,419.786a6.839,6.839,0,0,1,.062.87v3.939H244.39v-4.809Z" transform="translate(-203.656 -203.967)" fill="#3e3d5e"/>
          <g id="Grupo_1235561" data-name="Grupo 1235561" transform="translate(46.704)">
            <path id="Trazado_1296003" data-name="Trazado 1296003" d="M224.189,158.9l4.718.373a19.575,19.575,0,0,1,17.939,20.976c-1.3,15.952-14.713,19.622-15.168,25.372l-7.129-13.445-1.324,3.612a11.806,11.806,0,0,1-7.906,7.306l-3.441.962c-5.886-.466-9.644-1.781-8.9-7.639.417-3.269.6-4.509,1.072-9.083.4-3.86.5-8.105.938-12.4A17.894,17.894,0,0,1,224.189,158.9Z" transform="translate(-200.746 -151.848)" fill="#ffbe85"/>
            <path id="Trazado_1296004" data-name="Trazado 1296004" d="M256.891,194.188c.511.316,1.048.459,1.391.084a1.082,1.082,0,0,0,.2-.611,39.879,39.879,0,0,0,.419-7.925,9.6,9.6,0,0,1-3,4.765,2.751,2.751,0,0,0-.531.59,1.839,1.839,0,0,0,.2,1.854A4.8,4.8,0,0,0,256.891,194.188Z" transform="translate(-254.674 -157.219)" fill="#ffbe85"/>
            <path id="Trazado_1296005" data-name="Trazado 1296005" d="M252.382,190.312a5.9,5.9,0,0,0,.535-2.086c.154-1.945-.538-3.586-1.545-3.665s-1.948,1.432-2.1,3.377a5.915,5.915,0,0,0,.2,2.145Z" transform="translate(-243.876 -156.983)" fill="#592f31"/>
            <path id="Trazado_1296006" data-name="Trazado 1296006" d="M224.2,192.292a17.971,17.971,0,0,1,.648-4.8,6.853,6.853,0,0,0-.587-5.047,3.8,3.8,0,0,0-4.472-1.7,4.777,4.777,0,0,0-1.737,1.424,11.766,11.766,0,0,0-1.5,12.338,7.16,7.16,0,0,1,.948,2.485c.155,2.065-1.741,3.632-3.277,4.647a15.275,15.275,0,0,1-11.68,1.7,7.651,7.651,0,0,1-3.971-1.933,3.457,3.457,0,0,1-.644-4.1c.761-1.169,2.267-1.53,3.54-2.1a4.283,4.283,0,0,0,1.762-1.39c.325-.467.775-1.481.386-2.021a.96.96,0,0,0-.607-.314,16.688,16.688,0,0,1-3.206-.52,1.171,1.171,0,0,1-.034-2.088,2.511,2.511,0,0,1,1.728-.323,5.846,5.846,0,0,1,4.252,3.314c.218.431.454.931.919,1.064a1.452,1.452,0,0,0,1.11-.277,9.184,9.184,0,0,0,3.654-4.713,20.855,20.855,0,0,0,1.083-5.957c.134-2.061-.091-4.072-.082-6.12.007-1.625.187-3.15-.585-4.691-1.517-3.027-5.81-3.789-7.392-6.784a8.374,8.374,0,0,1-.766-3.617,10.727,10.727,0,0,1,.905-5.406,13.023,13.023,0,0,1,2.4-2.976c1.068-1.085,2.3-2.243,3.817-2.286a9.713,9.713,0,0,0,.144,2.911,13.044,13.044,0,0,1,7.531-1.761,2.432,2.432,0,0,1,1.834.739c.327.436.357,1.034.655,1.49.541.828,1.719.9,2.7.779a26.1,26.1,0,0,1,7.657.579c7.811,1.536,14.83,7.675,16.309,15.5a23.708,23.708,0,0,1-.073,8.249,26.53,26.53,0,0,1-8.786,16.161c-3.969,3.3-11.573,7.33-13.969.481A10.443,10.443,0,0,1,224.2,192.292Z" transform="translate(-197.504 -150.101)" fill="#592f31"/>
            <path id="Trazado_1296007" data-name="Trazado 1296007" d="M224.7,188.716c-2.232,2.9-2.146,6.717.193,8.515s6.044.9,8.276-2,2.146-6.717-.193-8.514S226.93,185.811,224.7,188.716Z" transform="translate(-204.779 -157.229)" fill="#ffbe85"/>
            <path id="Trazado_1296008" data-name="Trazado 1296008" d="M253.3,202.109c.416-.325.8-.168,1.28-.11.626.074,1.257.056,1.882.138a.244.244,0,0,1,.084.462,4.179,4.179,0,0,1-1.615.329c-.555.012-1.317.135-1.665-.4A.3.3,0,0,1,253.3,202.109Z" transform="translate(-250.775 -160.449)" fill="#ae2e34"/>
            <rect id="Rectángulo_423051" data-name="Rectángulo 423051" width="6.092" height="2.31" transform="translate(10.389 24.211) rotate(-175.48)" fill="#95422f"/>
          </g>
        </g>
        <rect id="Rectángulo_423052" data-name="Rectángulo 423052" width="26.994" height="103.987" transform="translate(283.859 170.479)" fill="#602a37"/>
        <path id="Trazado_1296009" data-name="Trazado 1296009" d="M97.578,291.926h216.8a6.14,6.14,0,0,0,6.14-6.14v0a6.14,6.14,0,0,0-6.14-6.14H97.578a6.14,6.14,0,0,0-6.14,6.14v0A6.14,6.14,0,0,0,97.578,291.926Z" transform="translate(27.929 -121.448)" fill="#95422f"/>
        <path id="Trazado_1296010" data-name="Trazado 1296010" d="M380.47,279.644H271.082a6.141,6.141,0,0,0,0,12.282H380.47a6.141,6.141,0,0,0,0-12.282Z" transform="translate(-177.011 -121.448)" fill="#b97244"/>
        <g id="Grupo_1235569" data-name="Grupo 1235569" transform="translate(289.436 57.257)">
          <path id="Trazado_1296011" data-name="Trazado 1296011" d="M80.589,235.286l1.448,9.107c.206,1.331.432,2.77.616,4.228s.349,2.968.4,4.373a13.752,13.752,0,0,1-.233,3.533,4.434,4.434,0,0,1-.309.9c-.092.066-.086.208-.2.274a.767.767,0,0,0-.113.146c-.051.047-.125.087-.181.14a7.024,7.024,0,0,1-2.919,1.14,25.778,25.778,0,0,1-4.423.48c-.765.04-1.543.042-2.314.032-.761.008-1.528-.026-2.273-.055-1.484-.045-2.923-.162-4.246-.26-2.655-.22-4.892-.472-6.459-.663l-2.465-.3-.07-.008a4.6,4.6,0,0,0-1.424,9.076l2.534.484c1.615.3,3.931.723,6.759,1.147,1.42.2,2.955.427,4.626.591.832.087,1.685.181,2.585.234.888.07,1.806.127,2.767.145a36.258,36.258,0,0,0,6.175-.276,17.95,17.95,0,0,0,7.342-2.514c.32-.211.641-.412.952-.647q.461-.38.908-.781a13.631,13.631,0,0,0,1.626-1.783,14.791,14.791,0,0,0,2.065-4,23.987,23.987,0,0,0,1.131-6.973c.065-2.045-.014-3.878-.122-5.558s-.24-3.222-.364-4.632c-.506-5.492-.843-9.153-.843-9.153l-.006-.057a6.541,6.541,0,0,0-13.026,1.2C80.548,235,80.568,235.151,80.589,235.286Z" transform="translate(-4.099 -168.333)" fill="#602a37"/>
          <path id="Trazado_1296012" data-name="Trazado 1296012" d="M57.449,292.531H94.558c-7.819-20.185-.475-38.285,1.122-57.857a6.319,6.319,0,0,0-6.308-6.814h-22.9C49.684,253.086,58.679,271.344,57.449,292.531Z" transform="translate(-8.431 -168.362)" fill="#602a37"/>
          <path id="Trazado_1296013" data-name="Trazado 1296013" d="M131.093,231.439l-1.226,2.472c-.392.8-.869,1.773-1.415,2.89l-1.8,3.74c-1.31,2.726-2.8,5.938-4.4,9.152-.8,1.594-1.64,3.21-2.5,4.571a11.848,11.848,0,0,1-2.51,3.037c-.192.191-.431.285-.635.455-.258.108-.455.272-.751.371a6.451,6.451,0,0,1-.892.327,8.921,8.921,0,0,1-1.034.277,34.436,34.436,0,0,1-4.97.638c-1.749.126-3.534.178-5.22.234l-4.821.114-10.073.242a4.6,4.6,0,0,0-.072,9.187l.072,0,9.983.365,4.894.18c1.761.048,3.612.109,5.621.087a44.76,44.76,0,0,0,6.561-.463c.6-.1,1.215-.2,1.865-.373a17.083,17.083,0,0,0,1.956-.575,20.3,20.3,0,0,0,2-.83,18.75,18.75,0,0,0,1.918-1.13,22.483,22.483,0,0,0,5.607-5.671c1.366-1.9,2.416-3.692,3.413-5.4s1.878-3.317,2.726-4.842l2.348-4.249,1.981-3.547,1.537-2.71,1.373-2.393a6.539,6.539,0,1,0-11.343-6.509C131.217,231.2,131.149,231.327,131.093,231.439Z" transform="translate(-78.813 -168.351)" fill="#814a5e"/>
          <path id="Trazado_1296014" data-name="Trazado 1296014" d="M55.12,332.974h82.347c2.4-6.926,1.791-15.084-1.414-24.3H98.945l-37.108,8.69a10.2,10.2,0,0,0-7.529,12.572Z" transform="translate(-49.927 -184.503)" fill="#6369a0"/>
          <g id="Grupo_1235564" data-name="Grupo 1235564" transform="translate(14.215 148.471)">
            <path id="Trazado_1296015" data-name="Trazado 1296015" d="M136.623,394.273H124.607c2.538-20.4-6.5-31.211-13.43-55.233h15.551C131.753,344.783,134.44,367.679,136.623,394.273Z" transform="translate(-107.623 -339.04)" fill="#f29a6b"/>
            <g id="Grupo_1235563" data-name="Grupo 1235563" transform="translate(0 54.646)">
              <path id="Trazado_1296016" data-name="Trazado 1296016" d="M114.288,421.3l8.55-.022a12.3,12.3,0,0,0,6.581-1.929l4.322-2.755,1.31,4.717h4.762a59.531,59.531,0,0,0-.786-13.988H127.012c-3.209,6.209-8.5,8.774-16.983,9.727h0A4.249,4.249,0,0,0,114.288,421.3Z" transform="translate(-110.029 -407.325)" fill="#c03d3e"/>
              <path id="Trazado_1296017" data-name="Trazado 1296017" d="M125.82,414.01a59.349,59.349,0,0,0,7.474-6.685h-5.922a15.8,15.8,0,0,1-8.58,7.8,11.69,11.69,0,0,0,.752,2.046A24.9,24.9,0,0,0,125.82,414.01Z" transform="translate(-110.389 -407.325)" fill="#f29a6b"/>
            </g>
          </g>
          <g id="Grupo_1235566" data-name="Grupo 1235566" transform="translate(1.641 148.471)">
            <path id="Trazado_1296018" data-name="Trazado 1296018" d="M152.336,394.273H140.32c2.538-20.4-6.5-31.211-13.43-55.233h15.551C147.466,344.783,150.154,367.679,152.336,394.273Z" transform="translate(-123.337 -339.04)" fill="#ffbe85"/>
            <g id="Grupo_1235565" data-name="Grupo 1235565" transform="translate(0 54.646)">
              <path id="Trazado_1296019" data-name="Trazado 1296019" d="M130,421.3l8.55-.022a12.3,12.3,0,0,0,6.581-1.929l4.323-2.755,1.31,4.717h4.762a59.53,59.53,0,0,0-.786-13.988H142.724c-3.209,6.209-8.5,8.774-16.983,9.727h0A4.247,4.247,0,0,0,130,421.3Z" transform="translate(-125.741 -407.325)" fill="#de3d3e"/>
              <path id="Trazado_1296020" data-name="Trazado 1296020" d="M141.533,414.01a59.351,59.351,0,0,0,7.474-6.685h-5.922a15.8,15.8,0,0,1-8.58,7.8,11.693,11.693,0,0,0,.752,2.046A24.9,24.9,0,0,0,141.533,414.01Z" transform="translate(-126.103 -407.325)" fill="#ffbe85"/>
            </g>
          </g>
          <g id="Grupo_1235567" data-name="Grupo 1235567" transform="translate(6.74 75.023)">
            <path id="Trazado_1296021" data-name="Trazado 1296021" d="M144.984,265.249a1.18,1.18,0,0,0,1.051-.642l8-15.632a1.179,1.179,0,0,0-2.1-1.075l-8,15.632a1.179,1.179,0,0,0,1.048,1.717Z" transform="translate(-143.806 -247.259)" fill="#6369a0"/>
          </g>
          <path id="Trazado_1296022" data-name="Trazado 1296022" d="M150.544,275.867a13.644,13.644,0,0,0,7.065-.088,5.19,5.19,0,0,0,1.448-.575c1.7-1.07,2.786-4.958,2.37-6.876-.615-2.841-3.457-5.207-5.767-6.71a1.473,1.473,0,0,0-.628-.278,1.187,1.187,0,0,0-.987.409c-2.764,3.218-5.294,6.245-6.925,10.225a2.481,2.481,0,0,0-.263,1.253c.1.724.772,1.21,1.386,1.609A8.524,8.524,0,0,0,150.544,275.867Z" transform="translate(-146.844 -175.048)" fill="#ffbe85"/>
          <path id="Trazado_1296023" data-name="Trazado 1296023" d="M47.693,351.6h59.154a5.945,5.945,0,0,0,5.945-5.945v-1.331a5.287,5.287,0,0,0-5.287-5.287H52.979a5.287,5.287,0,0,0-5.287,5.287V351.6Z" transform="translate(-18.772 -190.569)" fill="#de3d3e"/>
          <g id="Grupo_1235568" data-name="Grupo 1235568" transform="translate(41.728)">
            <rect id="Rectángulo_423053" data-name="Rectángulo 423053" width="12.006" height="16.054" transform="translate(19.825 43.484)" fill="#ffbe85"/>
            <path id="Trazado_1296024" data-name="Trazado 1296024" d="M74.765,157.606h4.854a19.417,19.417,0,0,1,19.414,19.418c0,16.068-13.121,20.789-13.121,26.567h-17.5c-5.9,0-9.754-1.015-9.472-6.913.158-3.292-2.114-4.543-2-9.139.093-3.885-.146-8.131-.042-12.459A17.89,17.89,0,0,1,74.765,157.606Z" transform="translate(-54.081 -154.329)" fill="#ffbe85"/>
            <path id="Trazado_1296025" data-name="Trazado 1296025" d="M110.511,194.82c.534.275,1.08.375,1.393-.026a1.079,1.079,0,0,0,.155-.626,39.966,39.966,0,0,0-.207-7.933,9.6,9.6,0,0,1-2.614,4.986,2.74,2.74,0,0,0-.483.63,1.837,1.837,0,0,0,.347,1.833A4.77,4.77,0,0,0,110.511,194.82Z" transform="translate(-108.631 -160.048)" fill="#ffbe85"/>
            <path id="Trazado_1296026" data-name="Trazado 1296026" d="M105.054,188.432a5.923,5.923,0,0,0,.37-2.122c0-1.951-.819-3.532-1.829-3.532s-1.829,1.581-1.829,3.532a5.906,5.906,0,0,0,.37,2.122Z" transform="translate(-96.405 -159.357)" fill="#592f31"/>
            <path id="Trazado_1296027" data-name="Trazado 1296027" d="M107.529,184.1a.751.751,0,0,0-.658-.383c-.615-.022-1.22.069-1.833.1a4.192,4.192,0,0,1-1.565-.274c-.146-.047-.244.1-.226.226.194,1.4,2.573,1.583,3.624,1.46a.791.791,0,0,0,.731-.564A.689.689,0,0,0,107.529,184.1Z" transform="translate(-99.802 -159.508)" fill="#592f31"/>
            <path id="Trazado_1296028" data-name="Trazado 1296028" d="M105.444,177.424a5.438,5.438,0,0,0-3.918-2.393c-1.424-.186-3.5.113-4.077,1.581a.605.605,0,0,0,.584.757c.98-.083,1.673-.775,2.612-1.073a5.022,5.022,0,0,1,4.587,1.288C105.339,177.68,105.536,177.555,105.444,177.424Z" transform="translate(-92.972 -157.8)" fill="#95422f"/>
            <path id="Trazado_1296029" data-name="Trazado 1296029" d="M66.236,192.476c-.88-3.36,1.008-6.356,1.328-9.874.158-1.729-.532-3.736-2.166-4.321-1.12-.4-2.418-.045-3.512-.51-1.415-.6-1.953-2.293-2.294-3.792a33.566,33.566,0,0,0-2.219-7.489,9.278,9.278,0,0,0-5.613-5.11c4.388-5.968,14.4-8.538,21.471-7.719,7.907.915,15.388,6.481,17.479,14.164a23.692,23.692,0,0,1,.577,8.229,26.538,26.538,0,0,1-7.485,16.8c-4.193,4.082-12.491,8.405-16.632,1.75A7.715,7.715,0,0,1,66.236,192.476Z" transform="translate(-42.371 -153.512)" fill="#95422f"/>
            <path id="Trazado_1296030" data-name="Trazado 1296030" d="M49.134,161.991a4.091,4.091,0,0,1,3.359-2.895,6.664,6.664,0,0,1,2.23-.02c2.768.6,3.814,4.941,4.044,7.722a5.739,5.739,0,0,1-.4,3.323c-1.381,2.363-4.708,3.127-6.708,1.489a8.709,8.709,0,0,1-2.828-8.736Q48.967,162.408,49.134,161.991Z" transform="translate(-7.213 -154.605)" fill="#de3d3e"/>
            <path id="Trazado_1296031" data-name="Trazado 1296031" d="M36.4,177.566q.152-.487.3-.974a20.656,20.656,0,0,0,1.28-7.246c-.042-.647-.153-2.12-1.12-2.09a6.746,6.746,0,0,0-1.293.4c-2.644.624-4.512-2.821-4.17-4.958a7,7,0,0,1,2.1-3.732c3.752-3.753,10.824-3.988,14.072.209,1.557,2.012,2.072,4.622,2.43,7.14a86.237,86.237,0,0,1,.607,18.662c-.625,8.2-2.272,17.1,2,24.126a75.623,75.623,0,0,1-16.433,3.532,2.318,2.318,0,0,1-2.038-.461,2.257,2.257,0,0,1-.415-1.128,38.622,38.622,0,0,1-.5-7.727q-1.2,3.851-2.393,7.7c-1.95-5.148-.707-10.727.336-15.9C32.342,189.213,34.591,183.345,36.4,177.566Z" transform="translate(14.021 -154.026)" fill="#95422f"/>
            <path id="Trazado_1296032" data-name="Trazado 1296032" d="M77.664,183.62c-2,3.071-1.609,6.865.863,8.472s6.1.421,8.092-2.65,1.609-6.865-.863-8.473S79.661,180.548,77.664,183.62Z" transform="translate(-58.57 -158.853)" fill="#ffbe85"/>
            <path id="Trazado_1296033" data-name="Trazado 1296033" d="M101.3,199.668c1.14-.31,3.909-.586,5.867-2.041-.92,3.956-3.759,4.951-4.64,5.536C102.222,201.583,101.561,200.92,101.3,199.668Z" transform="translate(-97.774 -162.323)" fill="#95422f"/>
            <path id="Trazado_1296034" data-name="Trazado 1296034" d="M107.364,198.26a19.671,19.671,0,0,1-5.073,1.534,8.465,8.465,0,0,0,.675,1.8l3.636-1.072Z" transform="translate(-98.766 -162.45)" fill="#fff"/>
            <path id="Trazado_1296035" data-name="Trazado 1296035" d="M68.157,221.655H85.845l.786,4.965H67.371Z" transform="translate(-50.088 -167.122)" fill="#6369a0"/>
          </g>
        </g>
        <g id="Grupo_1235580" data-name="Grupo 1235580" transform="translate(316.119 140.239)">
          <g id="Grupo_1235571" data-name="Grupo 1235571" transform="translate(28.564 78.053)">
            <g id="Grupo_1235570" data-name="Grupo 1235570">
              <rect id="Rectángulo_423054" data-name="Rectángulo 423054" width="9.293" height="43.662" fill="#814a5e"/>
            </g>
          </g>
          <rect id="Rectángulo_423055" data-name="Rectángulo 423055" width="12.759" height="14.321" transform="translate(26.832 78.053)" fill="#602a37"/>
          <g id="Grupo_1235575" data-name="Grupo 1235575" transform="translate(2.565 118.57)">
            <g id="Grupo_1235572" data-name="Grupo 1235572" transform="translate(29.078 0)">
              <path id="Trazado_1296036" data-name="Trazado 1296036" d="M80.71,419.929a3.144,3.144,0,0,0,2.336-5.247c-6.2-6.893-18.032-8.376-29.621-9.3a3.144,3.144,0,1,0-.5,6.268c9.872.79,20.794,2.066,25.448,7.24A3.136,3.136,0,0,0,80.71,419.929Z" transform="translate(-50.03 -405.369)" fill="#602a37"/>
            </g>
            <g id="Grupo_1235573" data-name="Grupo 1235573" transform="translate(0 0)">
              <path id="Trazado_1296037" data-name="Trazado 1296037" d="M89.509,419.929a3.136,3.136,0,0,0,2.338-1.042c4.653-5.174,15.576-6.45,25.448-7.24a3.144,3.144,0,1,0-.5-6.268c-11.589.927-23.422,2.41-29.621,9.3a3.144,3.144,0,0,0,2.336,5.247Z" transform="translate(-86.366 -405.369)" fill="#602a37"/>
            </g>
            <g id="Grupo_1235574" data-name="Grupo 1235574" transform="translate(27.534)">
              <path id="Trazado_1296038" data-name="Trazado 1296038" d="M89.509,419.929a3.144,3.144,0,0,0,3.144-3.144v-8.272a3.144,3.144,0,0,0-6.288,0v8.272A3.144,3.144,0,0,0,89.509,419.929Z" transform="translate(-86.365 -405.369)" fill="#602a37"/>
            </g>
          </g>
          <g id="Grupo_1235576" data-name="Grupo 1235576" transform="translate(56.613 124.277)">
            <path id="Trazado_1296039" data-name="Trazado 1296039" d="M52.534,423.918a5.709,5.709,0,1,0-5.709-5.709A5.715,5.715,0,0,0,52.534,423.918Zm0-8.275a2.566,2.566,0,1,1-2.565,2.566A2.569,2.569,0,0,1,52.534,415.643Z" transform="translate(-46.825 -412.5)" fill="#814a5e"/>
          </g>
          <g id="Grupo_1235577" data-name="Grupo 1235577" transform="translate(0 124.277)">
            <path id="Trazado_1296040" data-name="Trazado 1296040" d="M123.277,423.918a5.709,5.709,0,1,0-5.709-5.709A5.715,5.715,0,0,0,123.277,423.918Zm0-8.275a2.566,2.566,0,1,1-2.565,2.566A2.569,2.569,0,0,1,123.277,415.643Z" transform="translate(-117.568 -412.5)" fill="#814a5e"/>
          </g>
          <g id="Grupo_1235578" data-name="Grupo 1235578" transform="translate(28.665 123.884)">
            <path id="Trazado_1296041" data-name="Trazado 1296041" d="M93.068,424.213a1.965,1.965,0,0,0,1.965-1.965v-8.275a1.965,1.965,0,0,0-3.931,0v8.275A1.965,1.965,0,0,0,93.068,424.213Z" transform="translate(-91.103 -412.009)" fill="#814a5e"/>
          </g>
          <g id="Grupo_1235579" data-name="Grupo 1235579" transform="translate(33.644 123.884)">
            <path id="Trazado_1296042" data-name="Trazado 1296042" d="M86.848,424.213a1.965,1.965,0,0,0,1.965-1.965v-8.275a1.965,1.965,0,0,0-3.93,0v8.275A1.964,1.964,0,0,0,86.848,424.213Z" transform="translate(-84.883 -412.009)" fill="#814a5e"/>
          </g>
          <path id="Trazado_1296043" data-name="Trazado 1296043" d="M47.98,257.2H77.5a4.387,4.387,0,0,1,4.118,5.911C74.07,283.4,70.785,305.6,70.788,329.293a5.948,5.948,0,0,1-5.94,5.965H34.882C32.936,297.533,32.408,262.44,47.98,257.2Z" transform="translate(-3.52 -257.205)" fill="#de3d3e"/>
          <path id="Trazado_1296044" data-name="Trazado 1296044" d="M51.427,257.2H69.153a4.387,4.387,0,0,1,4.118,5.911C65.728,283.4,62.443,305.6,62.446,329.293a5.948,5.948,0,0,1-5.94,5.965H34.4C32.453,297.533,35.855,262.44,51.427,257.2Z" transform="translate(4.822 -257.205)" fill="#c03d3e"/>
        </g>
        <rect id="Rectángulo_423056" data-name="Rectángulo 423056" width="26.994" height="104.714" transform="translate(148.594 170.479)" fill="#95422f"/>
        <g id="Grupo_1235581" data-name="Grupo 1235581" transform="translate(106.778 122.166)">
          <path id="Trazado_1296045" data-name="Trazado 1296045" d="M295.524,276.111h66.659a3.689,3.689,0,0,1-3.688,3.688H299.212a3.688,3.688,0,0,1-3.688-3.688Z" transform="translate(-283.836 -242.908)" fill="#9e8c9e"/>
          <path id="Trazado_1296046" data-name="Trazado 1296046" d="M372.657,276.111H347.969a3.688,3.688,0,0,0,3.688,3.688h17.312a3.688,3.688,0,0,0,3.688-3.688Z" transform="translate(-336.28 -242.908)" fill="#bdb5c7"/>
          <path id="Trazado_1296047" data-name="Trazado 1296047" d="M337.591,267.824h40.541a1.686,1.686,0,0,0,1.61-2.184l-8.817-28.513a3.557,3.557,0,0,0-3.4-2.506H326.986a1.686,1.686,0,0,0-1.61,2.184l8.817,28.513A3.557,3.557,0,0,0,337.591,267.824Z" transform="translate(-325.3 -234.621)" fill="#bdb5c7"/>
          <path id="Trazado_1296048" data-name="Trazado 1296048" d="M338.124,266.308a1.528,1.528,0,0,1-1.468-1.083l-8.684-28.079H368.06a1.529,1.529,0,0,1,1.468,1.083l8.684,28.079Z" transform="translate(-325.833 -235.125)" fill="#1d182e"/>
        </g>
        <g id="Grupo_1235582" data-name="Grupo 1235582" transform="translate(271.565 126.645)">
          <path id="Trazado_1296049" data-name="Trazado 1296049" d="M169.505,240.218h14.408l-.785,31.857H170.291Z" transform="translate(-169.505 -240.218)" fill="#aeced6"/>
          <path id="Trazado_1296050" data-name="Trazado 1296050" d="M171.736,251.023l.313,12.694a4.984,4.984,0,0,0,4.982,4.862h.248a4.984,4.984,0,0,0,4.982-4.862l.313-12.694H171.736Z" transform="translate(-169.951 -242.376)" fill="#caffff"/>
        </g>
      </g>
    </g>
  </g>
</svg>
