<svg xmlns="http://www.w3.org/2000/svg" xmlns:xlink="http://www.w3.org/1999/xlink" width="113" height="113" viewBox="0 0 113 113">
  <defs>
    <filter id="Trazado_982547" x="0" y="0" width="113" height="113" filterUnits="userSpaceOnUse">
      <feOffset dy="3" input="SourceAlpha"/>
      <feGaussianBlur stdDeviation="3" result="blur"/>
      <feFlood flood-opacity="0.161"/>
      <feComposite operator="in" in2="blur"/>
      <feComposite in="SourceGraphic"/>
    </filter>
  </defs>
  <g id="Grupo_1242463" data-name="Grupo 1242463" transform="translate(-271 -6513.863)">
    <g id="Grupo_1242092" data-name="Grupo 1242092" transform="translate(-105 2549.473)">
      <g id="Grupo_1235695" data-name="Grupo 1235695" transform="translate(385 3970.39)">
        <g id="Grupo_1241232" data-name="Grupo 1241232">
          <g id="Grupo_1240425" data-name="Grupo 1240425" transform="translate(0 0)">
            <g id="Grupo_1239772" data-name="Grupo 1239772">
              <g id="Grupo_1236602" data-name="Grupo 1236602">
                <g id="Grupo_1236144" data-name="Grupo 1236144">
                  <g id="Grupo_1235105" data-name="Grupo 1235105">
                    <g id="Grupo_1223793" data-name="Grupo 1223793">
                      <g id="Grupo_1208028" data-name="Grupo 1208028">
                        <g id="Grupo_1177675" data-name="Grupo 1177675">
                          <g id="Grupo_1176928" data-name="Grupo 1176928">
                            <g id="Grupo_1172322" data-name="Grupo 1172322">
                              <g id="Grupo_1164700" data-name="Grupo 1164700">
                                <g id="Grupo_1160931" data-name="Grupo 1160931">
                                  <g id="Grupo_1160749" data-name="Grupo 1160749">
                                    <g id="Grupo_1158891" data-name="Grupo 1158891">
                                      <g id="Grupo_1157406" data-name="Grupo 1157406">
                                        <g id="Grupo_1155793" data-name="Grupo 1155793">
                                          <g id="Grupo_1154704" data-name="Grupo 1154704">
                                            <g id="Grupo_1150790" data-name="Grupo 1150790">
                                              <g id="Grupo_1154214" data-name="Grupo 1154214">
                                                <g id="Grupo_1152583" data-name="Grupo 1152583">
                                                  <g id="Grupo_1146973" data-name="Grupo 1146973">
                                                    <g id="Grupo_1146954" data-name="Grupo 1146954">
                                                      <g transform="matrix(1, 0, 0, 1, -9, -6)" filter="url(#Trazado_982547)">
                                                        <g id="Trazado_982547-2" data-name="Trazado 982547" transform="translate(9 6)" fill="#ffe1b9">
                                                          <path d="M 47.50000762939453 93.49986267089844 C 41.28937911987305 93.49986267089844 35.26534271240234 92.28383636474609 29.59519386291504 89.88558197021484 C 24.11772727966309 87.56880950927734 19.19814109802246 84.25183868408203 14.97310066223145 80.02679443359375 C 10.74804782867432 75.8017578125 7.431074142456055 70.88218688964844 5.114300727844238 65.40471649169922 C 2.716034412384033 59.73458480834961 1.500007629394531 53.71054458618164 1.500007629394531 47.49993133544922 C 1.500007629394531 41.2893180847168 2.716034412384033 35.26527786254883 5.114300727844238 29.59514427185059 C 7.431074142456055 24.11767768859863 10.74804782867432 19.19810485839844 14.97310066223145 14.97306442260742 C 19.19814109802246 10.74802494049072 24.11772727966309 7.431051254272461 29.59519386291504 5.114277839660645 C 35.26534271240234 2.71602463722229 41.28937911987305 1.499997973442078 47.50000762939453 1.499997973442078 C 53.71063613891602 1.499997973442078 59.73467254638672 2.71602463722229 65.40482330322266 5.114277839660645 C 70.88228607177734 7.431051254272461 75.80187225341797 10.74802494049072 80.02691650390625 14.97306442260742 C 84.25196838378906 19.19810485839844 87.56893920898438 24.11767768859863 89.88571166992188 29.59514427185059 C 92.28398132324219 35.26527786254883 93.50000762939453 41.2893180847168 93.50000762939453 47.49993133544922 C 93.50000762939453 53.71054458618164 92.28398132324219 59.73458480834961 89.88571166992188 65.40471649169922 C 87.56893920898438 70.88218688964844 84.25196838378906 75.8017578125 80.02691650390625 80.02679443359375 C 75.80187225341797 84.25183868408203 70.88228607177734 87.56880950927734 65.40482330322266 89.88558197021484 C 59.73467254638672 92.28383636474609 53.71063613891602 93.49986267089844 47.50000762939453 93.49986267089844 Z" stroke="none"/>
                                                          <path d="M 47.50000762939453 2.999992370605469 C 41.4912223815918 2.999992370605469 35.66377639770508 4.1761474609375 30.17951202392578 6.495796203613281 C 24.88085174560547 8.736930847167969 20.12152862548828 11.94596099853516 16.03376007080078 16.03372955322266 C 11.94597625732422 20.12148284912109 8.736961364746094 24.88080596923828 6.495803833007812 30.17946624755859 C 4.176162719726562 35.66371536254883 3.000007629394531 41.49116134643555 3.000007629394531 47.49993133544922 C 3.000007629394531 53.50870132446289 4.176162719726562 59.33614730834961 6.495803833007812 64.82038879394531 C 8.736961364746094 70.11905670166016 11.94597625732422 74.87836456298828 16.03376007080078 78.96613311767578 C 20.12152862548828 83.05390167236328 24.88085174560547 86.26291656494141 30.17951202392578 88.50406646728516 C 35.66377639770508 90.82369995117188 41.4912223815918 91.99985504150391 47.50000762939453 91.99985504150391 C 53.50879287719727 91.99985504150391 59.33623886108398 90.82369995117188 64.82049560546875 88.50406646728516 C 70.11916351318359 86.26291656494141 74.87848663330078 83.05390167236328 78.96625518798828 78.96613311767578 C 83.05403900146484 74.87836456298828 86.26305389404297 70.11905670166016 88.50421142578125 64.82038879394531 C 90.8238525390625 59.33614730834961 92.00000762939453 53.50870132446289 92.00000762939453 47.49993133544922 C 92.00000762939453 41.49116134643555 90.8238525390625 35.66371536254883 88.50421142578125 30.17946624755859 C 86.26305389404297 24.88080596923828 83.05403900146484 20.12148284912109 78.96625518798828 16.03372955322266 C 74.87848663330078 11.94596099853516 70.11916351318359 8.736930847167969 64.82049560546875 6.495796203613281 C 59.33623886108398 4.1761474609375 53.50879287719727 2.999992370605469 47.50000762939453 2.999992370605469 M 47.50000762939453 -7.62939453125e-06 C 73.73352813720703 -7.62939453125e-06 95.00000762939453 21.26644134521484 95.00000762939453 47.49993133544922 C 95.00000762939453 73.73342132568359 73.73352813720703 94.99985504150391 47.50000762939453 94.99985504150391 C 21.26648712158203 94.99985504150391 7.62939453125e-06 73.73342132568359 7.62939453125e-06 47.49993133544922 C 7.62939453125e-06 21.26644134521484 21.26648712158203 -7.62939453125e-06 47.50000762939453 -7.62939453125e-06 Z" stroke="none" fill="#ff9d1c"/>
                                                        </g>
                                                      </g>
                                                    </g>
                                                  </g>
                                                </g>
                                              </g>
                                            </g>
                                          </g>
                                        </g>
                                      </g>
                                    </g>
                                  </g>
                                </g>
                              </g>
                            </g>
                          </g>
                        </g>
                      </g>
                    </g>
                  </g>
                </g>
              </g>
            </g>
          </g>
        </g>
      </g>
    </g>
    <g id="diagrama-de-flujo_1_" data-name="diagrama-de-flujo (1)" transform="translate(258.785 6534.781)">
      <g id="Grupo_1242461" data-name="Grupo 1242461" transform="translate(37.003 1.287)">
        <path id="Trazado_1298556" data-name="Trazado 1298556" d="M45.741,140.342H67.489v29.077H45.741Z" transform="translate(-45.741 -123.594)" fill="#ff7d97"/>
        <path id="Trazado_1298557" data-name="Trazado 1298557" d="M348.223,10.014h14.539V24.553H348.223Z" transform="translate(-309.353 -10.014)" fill="#99ebfa"/>
        <path id="Trazado_1298558" data-name="Trazado 1298558" d="M348.178,196.976h14.539v14.539H348.178Z" transform="translate(-309.314 -172.951)" fill="#ffee80"/>
        <path id="Trazado_1298559" data-name="Trazado 1298559" d="M348.134,383.939h14.539v14.539H348.134Z" transform="translate(-309.275 -335.888)" fill="#a0e5a5"/>
      </g>
      <g id="Grupo_1242462" data-name="Grupo 1242462" transform="translate(35.715 0)">
        <path id="Trazado_1298560" data-name="Trazado 1298560" d="M296,0,281.46,0a1.285,1.285,0,0,0-1.285,1.285V7.269l-7.273,0a1.285,1.285,0,0,0-1.285,1.285l0,6.986a1.286,1.286,0,0,0,2.57,0v-5.7h5.988v5.984a1.285,1.285,0,0,0,1.285,1.285l14.539,0a1.285,1.285,0,0,0,1.285-1.285l0-14.539A1.285,1.285,0,0,0,296,0ZM294.71,14.542l-11.969,0V8.555h0V2.57l11.969,0Z" transform="translate(-241.299 0)"/>
        <path id="Trazado_1298561" data-name="Trazado 1298561" d="M90.408,137.6l-14.539,0a1.285,1.285,0,0,0-1.285,1.285v5.984H68.6v-5.422a1.286,1.286,0,0,0-2.57,0v5.422H60.037l0-13.253a1.285,1.285,0,0,0-1.285-1.285l-21.748-.005a1.285,1.285,0,0,0-1.285,1.285l-.007,29.077A1.285,1.285,0,0,0,37,161.969l21.748.005a1.285,1.285,0,0,0,1.285-1.285l0-13.254h5.988l-.005,22.74a1.285,1.285,0,0,0,1.285,1.285l7.273,0v5.984a1.285,1.285,0,0,0,1.285,1.285l14.539,0a1.285,1.285,0,0,0,1.285-1.285l0-14.539a1.285,1.285,0,0,0-1.285-1.285l-14.539,0a1.285,1.285,0,0,0-1.285,1.285v5.984H68.589l.005-21.455h5.988v5.984a1.285,1.285,0,0,0,1.285,1.285l14.539,0a1.285,1.285,0,0,0,1.285-1.285l0-14.539a1.286,1.286,0,0,0-1.285-1.285ZM57.463,159.4l-19.178,0,.006-26.507,19.178,0Zm31.654,4.8,0,11.968-11.969,0,0-11.968Zm0-12.057-11.969,0v-5.984h0v-5.984l11.969,0Z" transform="translate(-35.715 -113.575)"/>
        <path id="Trazado_1298562" data-name="Trazado 1298562" d="M271.706,153.428a1.284,1.284,0,1,0,.7-1.678A1.3,1.3,0,0,0,271.706,153.428Z" transform="translate(-241.297 -132.167)"/>
      </g>
    </g>
  </g>
</svg>
