<svg xmlns="http://www.w3.org/2000/svg" xmlns:xlink="http://www.w3.org/1999/xlink" width="106.16" height="106.16" viewBox="0 0 106.16 106.16">
  <defs>
    <filter id="Trazado_982547" x="0" y="0" width="106.16" height="106.16" filterUnits="userSpaceOnUse">
      <feOffset dy="3" input="SourceAlpha"/>
      <feGaussianBlur stdDeviation="3" result="blur"/>
      <feFlood flood-opacity="0.161"/>
      <feComposite operator="in" in2="blur"/>
      <feComposite in="SourceGraphic"/>
    </filter>
  </defs>
  <g id="Grupo_1242389" data-name="Grupo 1242389" transform="translate(-610.42 -1313.117)">
    <g id="Grupo_1242184" data-name="Grupo 1242184" transform="translate(0 -7926.704)">
      <g id="Grupo_1241247" data-name="Grupo 1241247" transform="translate(420 8114.82)">
        <g id="Grupo_1235128" data-name="Grupo 1235128" transform="translate(199.42 1131)">
          <g id="Grupo_1233884" data-name="Grupo 1233884" transform="translate(0 0)">
            <g id="Grupo_1228506" data-name="Grupo 1228506" transform="translate(0 0)">
              <g id="Grupo_1206132" data-name="Grupo 1206132" transform="translate(0 0)">
                <g id="Grupo_1203794" data-name="Grupo 1203794">
                  <g id="Grupo_1203345" data-name="Grupo 1203345">
                    <g id="Grupo_1177900" data-name="Grupo 1177900">
                      <g id="Grupo_1172010" data-name="Grupo 1172010">
                        <g id="Grupo_1171046" data-name="Grupo 1171046">
                          <g id="Grupo_1148525" data-name="Grupo 1148525">
                            <g transform="matrix(1, 0, 0, 1, -9, -6)" filter="url(#Trazado_982547)">
                              <g id="Trazado_982547-2" data-name="Trazado 982547" transform="translate(9 6)" fill="#e9f9fd">
                                <path d="M 44.0802001953125 86.660400390625 C 38.33124923706055 86.660400390625 32.75506210327148 85.53479766845703 27.50652503967285 83.31484985351562 C 22.43628692626953 81.17032623291016 17.88242530822754 78.09992218017578 13.97144985198975 74.18894958496094 C 10.06047534942627 70.27797698974609 6.99007511138916 65.72411346435547 4.845550060272217 60.65387344360352 C 2.625600099563599 55.40533828735352 1.500000238418579 49.82915115356445 1.500000238418579 44.0802001953125 C 1.500000238418579 38.33124923706055 2.625600099563599 32.75506210327148 4.845550060272217 27.50652503967285 C 6.99007511138916 22.43628692626953 10.06047534942627 17.88242530822754 13.97144985198975 13.97144985198975 C 17.88242530822754 10.06047534942627 22.43628692626953 6.99007511138916 27.50652503967285 4.845550060272217 C 32.75506210327148 2.625600099563599 38.33124923706055 1.500000238418579 44.0802001953125 1.500000238418579 C 49.82915115356445 1.500000238418579 55.40533828735352 2.625600099563599 60.65387344360352 4.845550060272217 C 65.72411346435547 6.99007511138916 70.27797698974609 10.06047534942627 74.18894958496094 13.97144985198975 C 78.09992218017578 17.88242530822754 81.17032623291016 22.43628692626953 83.31484985351562 27.50652503967285 C 85.53479766845703 32.75506210327148 86.660400390625 38.33124923706055 86.660400390625 44.0802001953125 C 86.660400390625 49.82915115356445 85.53479766845703 55.40533828735352 83.31484985351562 60.65387344360352 C 81.17032623291016 65.72411346435547 78.09992218017578 70.27797698974609 74.18894958496094 74.18894958496094 C 70.27797698974609 78.09992218017578 65.72411346435547 81.17032623291016 60.65387344360352 83.31484985351562 C 55.40533828735352 85.53479766845703 49.82915115356445 86.660400390625 44.0802001953125 86.660400390625 Z" stroke="none"/>
                                <path d="M 44.0802001953125 3 C 38.53308486938477 3 33.15349960327148 4.085746765136719 28.09085845947266 6.227058410644531 C 23.19941711425781 8.29595947265625 18.80581665039062 11.25841522216797 15.03211212158203 15.03211212158203 C 11.25841522216797 18.80581665039062 8.29595947265625 23.19941711425781 6.227058410644531 28.09085845947266 C 4.085746765136719 33.15349960327148 3 38.53308486938477 3 44.0802001953125 C 3 49.62731552124023 4.085746765136719 55.00691604614258 6.227058410644531 60.06954193115234 C 8.29595947265625 64.96098327636719 11.25841522216797 69.35458374023438 15.03211212158203 73.12828826904297 C 18.80581665039062 76.90198516845703 23.19941711425781 79.86444091796875 28.09085845947266 81.93334197998047 C 33.15349960327148 84.07466125488281 38.53308486938477 85.160400390625 44.0802001953125 85.160400390625 C 49.62731552124023 85.160400390625 55.00691604614258 84.07466125488281 60.06954193115234 81.93334197998047 C 64.96099853515625 79.86444091796875 69.35458374023438 76.90198516845703 73.12828826904297 73.12828826904297 C 76.90198516845703 69.35458374023438 79.86444091796875 64.96099853515625 81.93334197998047 60.06954193115234 C 84.07466125488281 55.00691604614258 85.160400390625 49.62731552124023 85.160400390625 44.0802001953125 C 85.160400390625 38.53308486938477 84.07466125488281 33.15349960327148 81.93334197998047 28.09085845947266 C 79.86444091796875 23.19941711425781 76.90198516845703 18.80581665039062 73.12828826904297 15.03211212158203 C 69.35458374023438 11.25841522216797 64.96098327636719 8.29595947265625 60.06954193115234 6.227058410644531 C 55.00691604614258 4.085746765136719 49.62731552124023 3 44.0802001953125 3 M 44.0802001953125 0 C 68.42502593994141 0 88.160400390625 19.73538970947266 88.160400390625 44.0802001953125 C 88.160400390625 68.42502593994141 68.42502593994141 88.160400390625 44.0802001953125 88.160400390625 C 19.73538970947266 88.160400390625 0 68.42502593994141 0 44.0802001953125 C 0 19.73538970947266 19.73538970947266 0 44.0802001953125 0 Z" stroke="none" fill="#1d7083"/>
                              </g>
                            </g>
                          </g>
                        </g>
                      </g>
                    </g>
                  </g>
                </g>
              </g>
            </g>
          </g>
        </g>
      </g>
    </g>
    <g id="diagrama_1_" data-name="diagrama (1)" transform="translate(634.202 1333.664)">
      <path id="Trazado_1298148" data-name="Trazado 1298148" d="M42.669,418.132H49.28V423.8H42.669Z" transform="translate(-37.944 -371.857)" fill="#ed1c24"/>
      <path id="Trazado_1298149" data-name="Trazado 1298149" d="M136.534,392.532h6.611v8.5h-6.611Z" transform="translate(-121.421 -349.09)" fill="#fbb03b"/>
      <path id="Trazado_1298150" data-name="Trazado 1298150" d="M230.4,349.866h6.611v13.221H230.4Z" transform="translate(-204.898 -311.146)" fill="#f8cf26"/>
      <path id="Trazado_1298151" data-name="Trazado 1298151" d="M324.264,290.134h6.611v19.832h-6.611Z" transform="translate(-288.375 -258.025)" fill="#39b54a"/>
      <path id="Trazado_1298152" data-name="Trazado 1298152" d="M418.129,170.669h6.611v33.053h-6.611Z" transform="translate(-371.851 -151.781)" fill="#0071bc"/>
      <path id="Trazado_1298153" data-name="Trazado 1298153" d="M42.669,51.205H54.946v1.889H42.669Z" transform="translate(-37.944 -45.538)"/>
      <path id="Trazado_1298154" data-name="Trazado 1298154" d="M42.669,85.337H54.946v1.889H42.669Z" transform="translate(-37.944 -75.893)"/>
      <path id="Trazado_1298155" data-name="Trazado 1298155" d="M42.669,119.47h8.5v1.889h-8.5Z" transform="translate(-37.944 -106.248)"/>
      <path id="Trazado_1298156" data-name="Trazado 1298156" d="M42.669,153.6h8.5v1.889h-8.5Z" transform="translate(-37.944 -136.604)"/>
      <path id="Trazado_1298157" data-name="Trazado 1298157" d="M0,494.931H56.666v1.889H0Z" transform="translate(0 -440.157)"/>
      <path id="Trazado_1298158" data-name="Trazado 1298158" d="M78.395,7.72l1.524-4.355L82.7,8.922a.945.945,0,1,0,1.691-.844L80.61.522A.944.944,0,0,0,79.344.1h0L71.788,3.877a.945.945,0,0,0,.844,1.691L78.1,2.833,76.611,7.1a50.4,50.4,0,0,1-43.2,33.512l.161,1.889A52.286,52.286,0,0,0,78.395,7.72Z" transform="translate(-29.71)"/>
      <path id="Trazado_1298159" data-name="Trazado 1298159" d="M35.08,409.6a.945.945,0,0,0-.944.944v5.666a.945.945,0,0,0,.944.944h6.611a.945.945,0,0,0,.944-.944v-5.666a.945.945,0,0,0-.944-.944Zm5.666,5.666H36.025v-3.778h4.722Z" transform="translate(-30.355 -364.268)"/>
      <path id="Trazado_1298160" data-name="Trazado 1298160" d="M128.945,384a.945.945,0,0,0-.944.944v8.5a.945.945,0,0,0,.944.944h6.611a.945.945,0,0,0,.944-.944v-8.5a.945.945,0,0,0-.944-.944Zm5.666,8.5H129.89v-6.611h4.722Z" transform="translate(-113.832 -341.502)"/>
      <path id="Trazado_1298161" data-name="Trazado 1298161" d="M222.81,341.333a.945.945,0,0,0-.944.944V355.5a.945.945,0,0,0,.944.944h6.611a.945.945,0,0,0,.944-.944V342.277a.945.945,0,0,0-.944-.944Zm5.666,13.221h-4.722V343.222h4.722Z" transform="translate(-197.309 -303.557)"/>
      <path id="Trazado_1298162" data-name="Trazado 1298162" d="M316.675,281.6a.945.945,0,0,0-.944.944v19.832a.945.945,0,0,0,.944.944h6.611a.945.945,0,0,0,.944-.944V282.545a.945.945,0,0,0-.944-.944Zm5.666,19.832H317.62V283.49h4.722Z" transform="translate(-280.786 -250.436)"/>
      <path id="Trazado_1298163" data-name="Trazado 1298163" d="M410.54,162.136a.945.945,0,0,0-.944.944v33.053a.945.945,0,0,0,.944.944h6.611a.945.945,0,0,0,.944-.944V163.08a.945.945,0,0,0-.944-.944Zm5.666,33.053h-4.722V164.025h4.722Z" transform="translate(-364.263 -144.193)"/>
    </g>
  </g>
</svg>
