<svg xmlns="http://www.w3.org/2000/svg" xmlns:xlink="http://www.w3.org/1999/xlink" width="106.16" height="106.16" viewBox="0 0 106.16 106.16">
  <defs>
    <filter id="Trazado_982547" x="0" y="0" width="106.16" height="106.16" filterUnits="userSpaceOnUse">
      <feOffset dy="3" input="SourceAlpha"/>
      <feGaussianBlur stdDeviation="3" result="blur"/>
      <feFlood flood-opacity="0.161"/>
      <feComposite operator="in" in2="blur"/>
      <feComposite in="SourceGraphic"/>
    </filter>
  </defs>
  <g id="Grupo_1242656" data-name="Grupo 1242656" transform="translate(-190.42 -1509.127)">
    <g id="Grupo_1242180" data-name="Grupo 1242180" transform="translate(0 -7561)">
      <g id="Grupo_1241243" data-name="Grupo 1241243" transform="translate(0 7945.127)">
        <g id="Grupo_1235128" data-name="Grupo 1235128" transform="translate(199.42 1131)">
          <g id="Grupo_1233884" data-name="Grupo 1233884" transform="translate(0 0)">
            <g id="Grupo_1228506" data-name="Grupo 1228506" transform="translate(0 0)">
              <g id="Grupo_1206132" data-name="Grupo 1206132" transform="translate(0 0)">
                <g id="Grupo_1203794" data-name="Grupo 1203794">
                  <g id="Grupo_1203345" data-name="Grupo 1203345">
                    <g id="Grupo_1177900" data-name="Grupo 1177900">
                      <g id="Grupo_1172010" data-name="Grupo 1172010">
                        <g id="Grupo_1171046" data-name="Grupo 1171046">
                          <g id="Grupo_1148525" data-name="Grupo 1148525">
                            <g transform="matrix(1, 0, 0, 1, -9, -6)" filter="url(#Trazado_982547)">
                              <g id="Trazado_982547-2" data-name="Trazado 982547" transform="translate(9 6)" fill="#e9f9fd">
                                <path d="M 44.0802001953125 86.660400390625 C 38.33124923706055 86.660400390625 32.75506210327148 85.53479766845703 27.50652503967285 83.31484985351562 C 22.43628692626953 81.17032623291016 17.88242530822754 78.09992218017578 13.97144985198975 74.18894958496094 C 10.06047534942627 70.27797698974609 6.99007511138916 65.72411346435547 4.845550060272217 60.65387344360352 C 2.625600099563599 55.40533828735352 1.500000238418579 49.82915115356445 1.500000238418579 44.0802001953125 C 1.500000238418579 38.33124923706055 2.625600099563599 32.75506210327148 4.845550060272217 27.50652503967285 C 6.99007511138916 22.43628692626953 10.06047534942627 17.88242530822754 13.97144985198975 13.97144985198975 C 17.88242530822754 10.06047534942627 22.43628692626953 6.99007511138916 27.50652503967285 4.845550060272217 C 32.75506210327148 2.625600099563599 38.33124923706055 1.500000238418579 44.0802001953125 1.500000238418579 C 49.82915115356445 1.500000238418579 55.40533828735352 2.625600099563599 60.65387344360352 4.845550060272217 C 65.72411346435547 6.99007511138916 70.27797698974609 10.06047534942627 74.18894958496094 13.97144985198975 C 78.09992218017578 17.88242530822754 81.17032623291016 22.43628692626953 83.31484985351562 27.50652503967285 C 85.53479766845703 32.75506210327148 86.660400390625 38.33124923706055 86.660400390625 44.0802001953125 C 86.660400390625 49.82915115356445 85.53479766845703 55.40533828735352 83.31484985351562 60.65387344360352 C 81.17032623291016 65.72411346435547 78.09992218017578 70.27797698974609 74.18894958496094 74.18894958496094 C 70.27797698974609 78.09992218017578 65.72411346435547 81.17032623291016 60.65387344360352 83.31484985351562 C 55.40533828735352 85.53479766845703 49.82915115356445 86.660400390625 44.0802001953125 86.660400390625 Z" stroke="none"/>
                                <path d="M 44.0802001953125 3 C 38.53308486938477 3 33.15349960327148 4.085746765136719 28.09085845947266 6.227058410644531 C 23.19941711425781 8.29595947265625 18.80581665039062 11.25841522216797 15.03211212158203 15.03211212158203 C 11.25841522216797 18.80581665039062 8.29595947265625 23.19941711425781 6.227058410644531 28.09085845947266 C 4.085746765136719 33.15349960327148 3 38.53308486938477 3 44.0802001953125 C 3 49.62731552124023 4.085746765136719 55.00691604614258 6.227058410644531 60.06954193115234 C 8.29595947265625 64.96098327636719 11.25841522216797 69.35458374023438 15.03211212158203 73.12828826904297 C 18.80581665039062 76.90198516845703 23.19941711425781 79.86444091796875 28.09085845947266 81.93334197998047 C 33.15349960327148 84.07466125488281 38.53308486938477 85.160400390625 44.0802001953125 85.160400390625 C 49.62731552124023 85.160400390625 55.00691604614258 84.07466125488281 60.06954193115234 81.93334197998047 C 64.96099853515625 79.86444091796875 69.35458374023438 76.90198516845703 73.12828826904297 73.12828826904297 C 76.90198516845703 69.35458374023438 79.86444091796875 64.96099853515625 81.93334197998047 60.06954193115234 C 84.07466125488281 55.00691604614258 85.160400390625 49.62731552124023 85.160400390625 44.0802001953125 C 85.160400390625 38.53308486938477 84.07466125488281 33.15349960327148 81.93334197998047 28.09085845947266 C 79.86444091796875 23.19941711425781 76.90198516845703 18.80581665039062 73.12828826904297 15.03211212158203 C 69.35458374023438 11.25841522216797 64.96098327636719 8.29595947265625 60.06954193115234 6.227058410644531 C 55.00691604614258 4.085746765136719 49.62731552124023 3 44.0802001953125 3 M 44.0802001953125 0 C 68.42502593994141 0 88.160400390625 19.73538970947266 88.160400390625 44.0802001953125 C 88.160400390625 68.42502593994141 68.42502593994141 88.160400390625 44.0802001953125 88.160400390625 C 19.73538970947266 88.160400390625 0 68.42502593994141 0 44.0802001953125 C 0 19.73538970947266 19.73538970947266 0 44.0802001953125 0 Z" stroke="none" fill="#1d7083"/>
                              </g>
                            </g>
                          </g>
                        </g>
                      </g>
                    </g>
                  </g>
                </g>
              </g>
            </g>
          </g>
        </g>
      </g>
    </g>
    <g id="yo-asi_1_" data-name="yo-asi (1)" transform="translate(211.088 1527.143)">
      <g id="Grupo_1242654" data-name="Grupo 1242654" transform="translate(0.956 0.95)">
        <g id="Grupo_1242642" data-name="Grupo 1242642">
          <g id="Grupo_1242640" data-name="Grupo 1242640">
            <circle id="Elipse_11621" data-name="Elipse 11621" cx="31.463" cy="31.463" r="31.463" fill="#dbedff"/>
          </g>
          <g id="Grupo_1242641" data-name="Grupo 1242641" transform="translate(0 0)">
            <path id="Trazado_1298921" data-name="Trazado 1298921" d="M13.591,38.963A31.465,31.465,0,0,1,42.033,7.645c-.994-.095-2-.145-3.02-.145a31.463,31.463,0,1,0,0,62.925c1.019,0,2.026-.05,3.02-.145A31.465,31.465,0,0,1,13.591,38.963Z" transform="translate(-7.55 -7.5)" fill="#b5dcff"/>
          </g>
        </g>
        <g id="Grupo_1242643" data-name="Grupo 1242643" transform="translate(7.676 4.305)">
          <path id="Trazado_1298922" data-name="Trazado 1298922" d="M91.961,41.5A27.15,27.15,0,0,0,68.174,55.547h47.574A27.15,27.15,0,0,0,91.961,41.5Z" transform="translate(-68.174 -41.501)" fill="#1ca8ff"/>
        </g>
        <g id="Grupo_1242644" data-name="Grupo 1242644" transform="translate(7.676 44.574)">
          <path id="Trazado_1298923" data-name="Trazado 1298923" d="M91.961,373.6a27.15,27.15,0,0,0,23.787-14.046H68.174A27.15,27.15,0,0,0,91.961,373.6Z" transform="translate(-68.174 -359.558)" fill="#1ca8ff"/>
        </g>
        <path id="Trazado_1298924" data-name="Trazado 1298924" d="M97.287,42.024A27.194,27.194,0,0,0,68.173,55.547H78.827A27.2,27.2,0,0,1,97.287,42.024Z" transform="translate(-60.498 -37.196)" fill="#0094fd"/>
        <path id="Trazado_1298925" data-name="Trazado 1298925" d="M78.828,359.558H68.174a27.194,27.194,0,0,0,29.114,13.523A27.2,27.2,0,0,1,78.828,359.558Z" transform="translate(-60.498 -314.984)" fill="#0094fd"/>
        <g id="Grupo_1242646" data-name="Grupo 1242646" transform="translate(11.938 21.704)">
          <g id="Grupo_1242645" data-name="Grupo 1242645">
            <path id="Trazado_1298926" data-name="Trazado 1298926" d="M103.74,198.441a1.9,1.9,0,0,1-1.9-1.9V180.823a1.9,1.9,0,0,1,3.8,0v15.719A1.9,1.9,0,0,1,103.74,198.441Z" transform="translate(-101.841 -178.924)" fill="#8479c2"/>
          </g>
        </g>
        <g id="Grupo_1242648" data-name="Grupo 1242648" transform="translate(19.03 21.704)">
          <g id="Grupo_1242647" data-name="Grupo 1242647">
            <path id="Trazado_1298927" data-name="Trazado 1298927" d="M164.607,198.443c-3.713,0-6.734-2.649-6.734-5.906a1.9,1.9,0,0,1,3.8,0c0,1.143,1.344,2.108,2.936,2.108s2.936-.965,2.936-2.108a1.558,1.558,0,0,0-1.276-1.5l-4.227-1.014a5.356,5.356,0,0,1-4.188-5.192c0-3.257,3.021-5.906,6.734-5.906s6.734,2.649,6.734,5.906a1.9,1.9,0,1,1-3.8,0c0-1.143-1.344-2.108-2.936-2.108s-2.936.965-2.936,2.108a1.558,1.558,0,0,0,1.276,1.5l4.227,1.014a5.356,5.356,0,0,1,4.188,5.192C171.342,195.794,168.321,198.443,164.607,198.443Z" transform="translate(-157.852 -178.926)" fill="#8479c2"/>
          </g>
        </g>
        <g id="Grupo_1242650" data-name="Grupo 1242650" transform="translate(35.13 21.704)">
          <g id="Grupo_1242649" data-name="Grupo 1242649">
            <path id="Trazado_1298928" data-name="Trazado 1298928" d="M292.976,198.441c-4.54,0-7.958-4.5-7.958-9.759s3.419-9.759,7.958-9.759,7.958,4.5,7.958,9.759S297.513,198.441,292.976,198.441Zm0-15.719c-2.255,0-4.16,2.73-4.16,5.96s1.9,5.96,4.16,5.96,4.16-2.73,4.16-5.96S295.231,182.722,292.976,182.722Z" transform="translate(-285.018 -178.924)" fill="#8479c2"/>
          </g>
        </g>
        <g id="Grupo_1242653" data-name="Grupo 1242653" transform="translate(11.938 21.704)">
          <path id="Trazado_1298929" data-name="Trazado 1298929" d="M103.74,196.542V180.823a1.9,1.9,0,0,1,.95-1.643,1.9,1.9,0,0,0-2.849,1.643v15.719a1.9,1.9,0,0,0,2.849,1.643A1.9,1.9,0,0,1,103.74,196.542Z" transform="translate(-101.841 -178.924)" fill="#6e60b8"/>
          <g id="Grupo_1242651" data-name="Grupo 1242651" transform="translate(7.092)">
            <path id="Trazado_1298930" data-name="Trazado 1298930" d="M218.708,279.7a3.853,3.853,0,0,0,.95.118c1.591,0,2.936-.965,2.936-2.108,0-.762-.551-.769-1.276-.943l-1.34-.322a1.472,1.472,0,0,1,.717,1.265,2.337,2.337,0,0,1-1.986,1.989Z" transform="translate(-211.003 -264.095)" fill="#6e60b8"/>
            <path id="Trazado_1298931" data-name="Trazado 1298931" d="M220.529,211.033a1.9,1.9,0,0,0,2.849,1.643,1.9,1.9,0,0,1-.95-1.643c0-1.143-1.344-2.108-2.936-2.108a3.855,3.855,0,0,0-.95.118A2.337,2.337,0,0,1,220.529,211.033Z" transform="translate(-210.859 -205.127)" fill="#6e60b8"/>
            <path id="Trazado_1298932" data-name="Trazado 1298932" d="M162.041,190.022l1.03.247a6.209,6.209,0,0,1-3.319-5.439c0-2.974,2.52-5.44,5.785-5.846a7.685,7.685,0,0,0-.95-.06c-3.713,0-6.734,2.649-6.734,5.906A5.356,5.356,0,0,0,162.041,190.022Z" transform="translate(-157.853 -178.924)" fill="#6e60b8"/>
            <path id="Trazado_1298933" data-name="Trazado 1298933" d="M159.918,273.329a1.9,1.9,0,0,1,.95-1.643,1.9,1.9,0,0,0-2.849,1.643c0,3.257,3.021,5.906,6.734,5.906a7.713,7.713,0,0,0,.95-.06C162.438,278.769,159.918,276.3,159.918,273.329Z" transform="translate(-157.998 -259.718)" fill="#6e60b8"/>
          </g>
          <g id="Grupo_1242652" data-name="Grupo 1242652" transform="translate(23.192 0)">
            <path id="Trazado_1298934" data-name="Trazado 1298934" d="M355.373,220.679a2.866,2.866,0,0,0,.95.166c2.255,0,4.16-2.73,4.16-5.96s-1.9-5.96-4.16-5.96a2.869,2.869,0,0,0-.95.166c1.815.635,3.21,3.03,3.21,5.795S357.188,220.045,355.373,220.679Z" transform="translate(-346.465 -205.126)" fill="#6e60b8"/>
            <path id="Trazado_1298935" data-name="Trazado 1298935" d="M286.918,188.683c0-4.891,2.951-9.113,7.008-9.689a6.752,6.752,0,0,0-.95-.069c-4.539,0-7.958,4.493-7.958,9.759s3.418,9.759,7.958,9.759a6.747,6.747,0,0,0,.95-.069C289.868,197.8,286.918,193.572,286.918,188.683Z" transform="translate(-285.019 -178.924)" fill="#6e60b8"/>
          </g>
        </g>
      </g>
      <g id="Grupo_1242655" data-name="Grupo 1242655">
        <path id="Trazado_1298936" data-name="Trazado 1298936" d="M32.412,64.824A32.412,32.412,0,1,0,0,32.412,32.394,32.394,0,0,0,32.412,64.824Zm0-62.925A30.513,30.513,0,1,1,1.9,32.412,30.548,30.548,0,0,1,32.412,1.9Z"/>
        <path id="Trazado_1298937" data-name="Trazado 1298937" d="M61.114,49.828a.949.949,0,0,0,1.29-.372,26.259,26.259,0,0,1,3.214-4.584h3.314a30.521,30.521,0,0,0-1.825,3.769.95.95,0,1,0,1.761.71,28.087,28.087,0,0,1,2.279-4.48H77.73c-.316,1.241-.6,2.564-.844,3.961a.95.95,0,1,0,1.871.327c.276-1.578.59-3.006.931-4.288H91.031c.341,1.283.655,2.71.931,4.288a.95.95,0,1,0,1.871-.327c-.244-1.4-.527-2.72-.844-3.961h6.583a28.1,28.1,0,0,1,2.279,4.48.95.95,0,1,0,1.761-.711,30.519,30.519,0,0,0-1.825-3.769H105.1a26.254,26.254,0,0,1,3.214,4.584.95.95,0,0,0,1.662-.918,28.114,28.114,0,0,0-49.236,0,.95.95,0,0,0,.372,1.29Zm42.152-6.855H100.6a23.8,23.8,0,0,0-4.045-4.561A26.273,26.273,0,0,1,103.266,42.973Zm-5.018,0H92.46a21.742,21.742,0,0,0-2.98-6.438A18.08,18.08,0,0,1,98.247,42.973ZM85.36,35.9c1.571,0,3.543,2.23,5.114,7.073H80.246C81.816,38.13,83.788,35.9,85.36,35.9Zm-4.12.635a21.743,21.743,0,0,0-2.98,6.438H72.472A18.08,18.08,0,0,1,81.24,36.535Zm-7.07,1.877a23.8,23.8,0,0,0-4.045,4.561h-2.67A26.269,26.269,0,0,1,74.169,38.413Z" transform="translate(-52.948 -29.696)"/>
        <path id="Trazado_1298938" data-name="Trazado 1298938" d="M85.36,368a28.136,28.136,0,0,0,24.618-14.537.95.95,0,0,0-1.662-.918,26.259,26.259,0,0,1-3.214,4.584h-3.314a30.519,30.519,0,0,0,1.825-3.769.95.95,0,0,0-1.761-.711,28.084,28.084,0,0,1-2.279,4.48H92.989c.316-1.241.6-2.564.844-3.961a.95.95,0,1,0-1.871-.327c-.276,1.578-.59,3.006-.931,4.288H79.688c-.341-1.283-.655-2.71-.931-4.288a.95.95,0,1,0-1.871.327c.244,1.4.527,2.72.844,3.961H71.147a28.084,28.084,0,0,1-2.279-4.48.95.95,0,1,0-1.761.71,30.533,30.533,0,0,0,1.825,3.769H65.618a26.253,26.253,0,0,1-3.214-4.584.95.95,0,0,0-1.662.918A28.136,28.136,0,0,0,85.36,368Zm15.236-8.972h2.67a26.267,26.267,0,0,1-6.716,4.561A23.8,23.8,0,0,0,100.6,359.029Zm-8.136,0h5.788a18.08,18.08,0,0,1-8.768,6.438A21.74,21.74,0,0,0,92.46,359.029Zm-1.986,0c-1.57,4.843-3.542,7.073-5.114,7.073s-3.543-2.23-5.114-7.073Zm-12.213,0a21.742,21.742,0,0,0,2.98,6.438,18.08,18.08,0,0,1-8.768-6.438Zm-8.136,0a23.8,23.8,0,0,0,4.045,4.561,26.275,26.275,0,0,1-6.716-4.561Z" transform="translate(-52.948 -307.482)"/>
        <path id="Trazado_1298939" data-name="Trazado 1298939" d="M94.292,174.273v15.719a2.849,2.849,0,0,0,5.7,0V174.273a2.849,2.849,0,0,0-5.7,0Zm3.8,0v15.719a.95.95,0,0,1-1.9,0V174.273a.95.95,0,0,1,1.9,0Z" transform="translate(-82.354 -149.72)"/>
        <path id="Trazado_1298940" data-name="Trazado 1298940" d="M159.938,190.657a.95.95,0,1,0,.554,1.816,6.965,6.965,0,0,0,5.2-6.488,6.226,6.226,0,0,0-2.392-4.9,2.854,2.854,0,0,0,2.371-2.809c0-3.78-3.447-6.856-7.684-6.856s-7.684,3.075-7.684,6.856a6.226,6.226,0,0,0,2.392,4.9,2.853,2.853,0,0,0-2.371,2.809,6.965,6.965,0,0,0,5.178,6.48.95.95,0,0,0,.559-1.815,5.084,5.084,0,0,1-3.838-4.665.95.95,0,0,1,1.9,0c0,1.686,1.743,3.057,3.886,3.057s3.885-1.372,3.885-3.057a2.5,2.5,0,0,0-2-2.422l-4.227-1.015a4.425,4.425,0,0,1-3.46-4.269c0-2.733,2.6-4.956,5.785-4.956s5.785,2.224,5.785,4.956a.95.95,0,0,1-1.9,0c0-1.686-1.743-3.057-3.885-3.057s-3.886,1.372-3.886,3.057a2.5,2.5,0,0,0,2,2.422l4.227,1.015a4.425,4.425,0,0,1,3.46,4.269,5.085,5.085,0,0,1-3.857,4.671Zm-.49-5.246c.129.031.548.164.548.575,0,.536-.868,1.158-1.986,1.158s-1.986-.623-1.986-1.158a2.832,2.832,0,0,0-.428-1.5Zm-2.9-6.555c-.129-.031-.548-.164-.548-.575,0-.536.868-1.158,1.986-1.158s1.986.623,1.986,1.158a2.831,2.831,0,0,0,.428,1.5Z" transform="translate(-131.275 -149.721)"/>
        <path id="Trazado_1298941" data-name="Trazado 1298941" d="M312.578,201.424c-2.817,0-5.109,3.1-5.109,6.91s2.292,6.91,5.109,6.91,5.109-3.1,5.109-6.91S315.4,201.424,312.578,201.424Zm0,11.921c-1.71,0-3.21-2.342-3.21-5.011s1.5-5.011,3.21-5.011,3.21,2.342,3.21,5.011S314.288,213.345,312.578,213.345Z" transform="translate(-268.54 -175.922)"/>
        <path id="Trazado_1298942" data-name="Trazado 1298942" d="M294.3,180.85a.95.95,0,0,0,.757-1.109c-.925-4.9-4.5-8.316-8.683-8.316-5.124,0-8.908,4.971-8.908,10.708s3.786,10.708,8.908,10.708c4.188,0,7.758-3.42,8.683-8.316a.95.95,0,0,0-1.866-.352c-.752,3.986-3.556,6.769-6.817,6.769-3.864,0-7.008-3.952-7.008-8.809s3.144-8.809,7.008-8.809c3.261,0,6.064,2.784,6.817,6.77a.95.95,0,0,0,1.109.757Z" transform="translate(-242.34 -149.72)"/>
      </g>
    </g>
  </g>
</svg>
