<svg xmlns="http://www.w3.org/2000/svg" xmlns:xlink="http://www.w3.org/1999/xlink" width="106.16" height="106.16" viewBox="0 0 106.16 106.16">
  <defs>
    <filter id="Trazado_982547" x="0" y="0" width="106.16" height="106.16" filterUnits="userSpaceOnUse">
      <feOffset dy="3" input="SourceAlpha"/>
      <feGaussianBlur stdDeviation="3" result="blur"/>
      <feFlood flood-opacity="0.161"/>
      <feComposite operator="in" in2="blur"/>
      <feComposite in="SourceGraphic"/>
    </filter>
  </defs>
  <g id="Grupo_1242399" data-name="Grupo 1242399" transform="translate(-1030.42 -1313.117)">
    <g id="Grupo_1242185" data-name="Grupo 1242185" transform="translate(0 -7757.01)">
      <g id="Grupo_1241245" data-name="Grupo 1241245" transform="translate(840 7945.127)">
        <g id="Grupo_1235128" data-name="Grupo 1235128" transform="translate(199.42 1131)">
          <g id="Grupo_1233884" data-name="Grupo 1233884" transform="translate(0 0)">
            <g id="Grupo_1228506" data-name="Grupo 1228506" transform="translate(0 0)">
              <g id="Grupo_1206132" data-name="Grupo 1206132" transform="translate(0 0)">
                <g id="Grupo_1203794" data-name="Grupo 1203794">
                  <g id="Grupo_1203345" data-name="Grupo 1203345">
                    <g id="Grupo_1177900" data-name="Grupo 1177900">
                      <g id="Grupo_1172010" data-name="Grupo 1172010">
                        <g id="Grupo_1171046" data-name="Grupo 1171046">
                          <g id="Grupo_1148525" data-name="Grupo 1148525">
                            <g transform="matrix(1, 0, 0, 1, -9, -6)" filter="url(#Trazado_982547)">
                              <g id="Trazado_982547-2" data-name="Trazado 982547" transform="translate(9 6)" fill="#e9f9fd">
                                <path d="M 44.0802001953125 86.660400390625 C 38.33124923706055 86.660400390625 32.75506210327148 85.53479766845703 27.50652503967285 83.31484985351562 C 22.43628692626953 81.17032623291016 17.88242530822754 78.09992218017578 13.97144985198975 74.18894958496094 C 10.06047534942627 70.27797698974609 6.99007511138916 65.72411346435547 4.845550060272217 60.65387344360352 C 2.625600099563599 55.40533828735352 1.500000238418579 49.82915115356445 1.500000238418579 44.0802001953125 C 1.500000238418579 38.33124923706055 2.625600099563599 32.75506210327148 4.845550060272217 27.50652503967285 C 6.99007511138916 22.43628692626953 10.06047534942627 17.88242530822754 13.97144985198975 13.97144985198975 C 17.88242530822754 10.06047534942627 22.43628692626953 6.99007511138916 27.50652503967285 4.845550060272217 C 32.75506210327148 2.625600099563599 38.33124923706055 1.500000238418579 44.0802001953125 1.500000238418579 C 49.82915115356445 1.500000238418579 55.40533828735352 2.625600099563599 60.65387344360352 4.845550060272217 C 65.72411346435547 6.99007511138916 70.27797698974609 10.06047534942627 74.18894958496094 13.97144985198975 C 78.09992218017578 17.88242530822754 81.17032623291016 22.43628692626953 83.31484985351562 27.50652503967285 C 85.53479766845703 32.75506210327148 86.660400390625 38.33124923706055 86.660400390625 44.0802001953125 C 86.660400390625 49.82915115356445 85.53479766845703 55.40533828735352 83.31484985351562 60.65387344360352 C 81.17032623291016 65.72411346435547 78.09992218017578 70.27797698974609 74.18894958496094 74.18894958496094 C 70.27797698974609 78.09992218017578 65.72411346435547 81.17032623291016 60.65387344360352 83.31484985351562 C 55.40533828735352 85.53479766845703 49.82915115356445 86.660400390625 44.0802001953125 86.660400390625 Z" stroke="none"/>
                                <path d="M 44.0802001953125 3 C 38.53308486938477 3 33.15349960327148 4.085746765136719 28.09085845947266 6.227058410644531 C 23.19941711425781 8.29595947265625 18.80581665039062 11.25841522216797 15.03211212158203 15.03211212158203 C 11.25841522216797 18.80581665039062 8.29595947265625 23.19941711425781 6.227058410644531 28.09085845947266 C 4.085746765136719 33.15349960327148 3 38.53308486938477 3 44.0802001953125 C 3 49.62731552124023 4.085746765136719 55.00691604614258 6.227058410644531 60.06954193115234 C 8.29595947265625 64.96098327636719 11.25841522216797 69.35458374023438 15.03211212158203 73.12828826904297 C 18.80581665039062 76.90198516845703 23.19941711425781 79.86444091796875 28.09085845947266 81.93334197998047 C 33.15349960327148 84.07466125488281 38.53308486938477 85.160400390625 44.0802001953125 85.160400390625 C 49.62731552124023 85.160400390625 55.00691604614258 84.07466125488281 60.06954193115234 81.93334197998047 C 64.96099853515625 79.86444091796875 69.35458374023438 76.90198516845703 73.12828826904297 73.12828826904297 C 76.90198516845703 69.35458374023438 79.86444091796875 64.96099853515625 81.93334197998047 60.06954193115234 C 84.07466125488281 55.00691604614258 85.160400390625 49.62731552124023 85.160400390625 44.0802001953125 C 85.160400390625 38.53308486938477 84.07466125488281 33.15349960327148 81.93334197998047 28.09085845947266 C 79.86444091796875 23.19941711425781 76.90198516845703 18.80581665039062 73.12828826904297 15.03211212158203 C 69.35458374023438 11.25841522216797 64.96098327636719 8.29595947265625 60.06954193115234 6.227058410644531 C 55.00691604614258 4.085746765136719 49.62731552124023 3 44.0802001953125 3 M 44.0802001953125 0 C 68.42502593994141 0 88.160400390625 19.73538970947266 88.160400390625 44.0802001953125 C 88.160400390625 68.42502593994141 68.42502593994141 88.160400390625 44.0802001953125 88.160400390625 C 19.73538970947266 88.160400390625 0 68.42502593994141 0 44.0802001953125 C 0 19.73538970947266 19.73538970947266 0 44.0802001953125 0 Z" stroke="none" fill="#1d7083"/>
                              </g>
                            </g>
                          </g>
                        </g>
                      </g>
                    </g>
                  </g>
                </g>
              </g>
            </g>
          </g>
        </g>
      </g>
    </g>
    <g id="supervision" transform="translate(1053.5 1311.795)">
      <g id="Grupo_1242390" data-name="Grupo 1242390" transform="translate(36.146 57.7)">
        <path id="Trazado_1298164" data-name="Trazado 1298164" d="M325.958,321.529l-2.758,2.758a1.758,1.758,0,0,1-2.486,0l-12.265-12.265,5.244-5.244,12.265,12.265A1.758,1.758,0,0,1,325.958,321.529Z" transform="translate(-308.449 -306.778)" fill="#9d6b6b"/>
      </g>
      <g id="Grupo_1242391" data-name="Grupo 1242391" transform="translate(39.211 57.7)">
        <path id="Trazado_1298165" data-name="Trazado 1298165" d="M349.041,319.043l-12.265-12.265-2.18,2.18,10.2,10.2a1.6,1.6,0,0,1,0,2.263l-1.933,1.933.937.937a1.758,1.758,0,0,0,2.487,0l2.757-2.757A1.758,1.758,0,0,0,349.041,319.043Z" transform="translate(-334.596 -306.778)" fill="#785252"/>
      </g>
      <g id="Grupo_1242392" data-name="Grupo 1242392" transform="translate(13.241 34.795)">
        <circle id="Elipse_11551" data-name="Elipse 11551" cx="17.036" cy="17.036" r="17.036" transform="translate(0 0)" fill="#b3d8fb"/>
      </g>
      <g id="Grupo_1242393" data-name="Grupo 1242393" transform="translate(15.321 36.875)">
        <path id="Trazado_1298166" data-name="Trazado 1298166" d="M157.741,131.977a17.04,17.04,0,0,0-3.882-2.91,17.041,17.041,0,0,1-23.121,23.121,17.038,17.038,0,1,0,27-20.211Z" transform="translate(-130.739 -129.067)" fill="#89c6fc"/>
      </g>
      <g id="Grupo_1242394" data-name="Grupo 1242394" transform="translate(18.644 45.3)">
        <path id="Trazado_1298167" data-name="Trazado 1298167" d="M181.8,206.2a1.9,1.9,0,0,1,0,2.755c-2.042,1.938-6.226,5.237-11.056,5.237s-9.014-3.3-11.056-5.237a1.9,1.9,0,0,1,0-2.755c2.042-1.938,6.226-5.237,11.056-5.237S179.756,204.258,181.8,206.2Z" transform="translate(-159.095 -200.96)" fill="#fceed9"/>
      </g>
      <g id="Grupo_1242395" data-name="Grupo 1242395" transform="translate(18.692 48.479)">
        <path id="Trazado_1298168" data-name="Trazado 1298168" d="M182.157,230.147a24.39,24.39,0,0,0-2.475-2.058,1.9,1.9,0,0,1-.544,1.795c-2.042,1.938-6.226,5.237-11.056,5.237a15.075,15.075,0,0,1-8.581-3.179,1.887,1.887,0,0,0,.544.96c2.042,1.938,6.226,5.237,11.056,5.237s9.014-3.3,11.056-5.237A1.9,1.9,0,0,0,182.157,230.147Z" transform="translate(-159.502 -228.089)" fill="#fad59a"/>
      </g>
      <g id="Grupo_1242396" data-name="Grupo 1242396" transform="translate(26.856 48.479)">
        <circle id="Elipse_11552" data-name="Elipse 11552" cx="3.435" cy="3.435" r="3.435" transform="translate(0 0)" fill="#7c8b96"/>
      </g>
      <g id="Grupo_1242397" data-name="Grupo 1242397" transform="translate(27.046 48.67)">
        <path id="Trazado_1298169" data-name="Trazado 1298169" d="M235.167,229.714a3.435,3.435,0,0,1-4.373,4.373,3.435,3.435,0,1,0,4.373-4.373Z" transform="translate(-230.794 -229.714)" fill="#465961"/>
      </g>
      <g id="Grupo_1242398" data-name="Grupo 1242398" transform="translate(0 24.637)">
        <path id="Trazado_1298170" data-name="Trazado 1298170" d="M144.509,136.415a.879.879,0,1,0-1.243,1.243l2.889,2.889a.909.909,0,0,1,0,1.243l-2.757,2.757a.88.88,0,0,1-1.243,0l-8.249-8.249a17.846,17.846,0,0,0,4-4l2.551,2.551a.879.879,0,0,0,1.243-1.243l-2.814-2.814a17.916,17.916,0,1,0-28.538,3.274.879.879,0,1,0,1.28-1.206,16.157,16.157,0,1,1,23.192.354,16.259,16.259,0,0,1-20.066,2.231.879.879,0,1,0-.942,1.485,17.911,17.911,0,0,0,18.583.346l8.513,8.513a2.641,2.641,0,0,0,3.73,0l2.757-2.757a2.641,2.641,0,0,0,0-3.73Z" transform="translate(-93.121 -94.597)"/>
        <path id="Trazado_1298171" data-name="Trazado 1298171" d="M170.006,195.837a.879.879,0,0,0-.451-1.159,13.506,13.506,0,0,0-5.436-1.22c-5.125,0-9.506,3.432-11.661,5.478a2.78,2.78,0,0,0,0,4.031c2.155,2.046,6.536,5.478,11.661,5.478s9.506-3.432,11.661-5.478a2.78,2.78,0,0,0,0-4.031,25.229,25.229,0,0,0-2.423-2.03.879.879,0,0,0-1.041,1.417,23.464,23.464,0,0,1,2.253,1.888,1.021,1.021,0,0,1,0,1.48c-1.965,1.866-5.936,5-10.451,5s-8.485-3.13-10.451-5a1.021,1.021,0,0,1,0-1.48c1.965-1.866,5.936-5,10.451-5a11.763,11.763,0,0,1,4.728,1.071A.879.879,0,0,0,170.006,195.837Z" transform="translate(-133.827 -173.674)"/>
        <path id="Trazado_1298172" data-name="Trazado 1298172" d="M221.667,224.9a4.314,4.314,0,1,0,4.314-4.314A4.319,4.319,0,0,0,221.667,224.9Zm6.871,0a2.556,2.556,0,1,1-2.556-2.556A2.559,2.559,0,0,1,228.538,224.9Z" transform="translate(-195.69 -197.623)"/>
        <path id="Trazado_1298173" data-name="Trazado 1298173" d="M381.612,46.71a.877.877,0,0,0,.622-.257l3.836-3.836,1.656,1.656a1.313,1.313,0,0,0,1.854,0l4.652-4.652V40.8a.879.879,0,0,0,1.758,0V37.543a.879.879,0,0,0-.879-.879h-3.257a.879.879,0,1,0,0,1.758h1.089l-4.29,4.291L387,41.057a1.313,1.313,0,0,0-1.854,0l-4.153,4.153a.879.879,0,0,0,.622,1.5Z" transform="translate(-336.115 -35.255)"/>
        <path id="Trazado_1298174" data-name="Trazado 1298174" d="M5.467,33.692A4.527,4.527,0,1,0,.94,29.164,4.533,4.533,0,0,0,5.467,33.692Zm0-7.3A2.769,2.769,0,1,1,2.7,29.164,2.772,2.772,0,0,1,5.467,26.4Z" transform="translate(-0.83 -24.637)"/>
        <path id="Trazado_1298175" data-name="Trazado 1298175" d="M6.614,127.624a4.527,4.527,0,1,0,4.527,4.527A4.533,4.533,0,0,0,6.614,127.624Zm0,7.3a2.769,2.769,0,1,1,2.769-2.769A2.772,2.772,0,0,1,6.614,134.92Z" transform="translate(-1.842 -115.555)"/>
        <path id="Trazado_1298176" data-name="Trazado 1298176" d="M6.614,229.406a4.527,4.527,0,1,0,4.527,4.527A4.533,4.533,0,0,0,6.614,229.406Zm0,7.3a2.769,2.769,0,1,1,2.769-2.769A2.772,2.772,0,0,1,6.614,236.7Z" transform="translate(-1.842 -205.41)"/>
        <path id="Trazado_1298177" data-name="Trazado 1298177" d="M102.066,38.369h7.781a.879.879,0,1,0,0-1.758h-7.781a.879.879,0,1,0,0,1.758Z" transform="translate(-89.329 -35.208)"/>
        <path id="Trazado_1298178" data-name="Trazado 1298178" d="M102.066,70.34h3.89a.879.879,0,0,0,0-1.758h-3.89a.879.879,0,1,0,0,1.758Z" transform="translate(-89.329 -63.432)"/>
        <path id="Trazado_1298179" data-name="Trazado 1298179" d="M465.532,142.775h-4.293a.879.879,0,1,0,0,1.758h4.293a.879.879,0,1,0,0-1.758Z" transform="translate(-406.411 -128.931)"/>
        <circle id="Elipse_11553" data-name="Elipse 11553" cx="0.977" cy="0.977" r="0.977" transform="translate(50.591 13.77)"/>
        <path id="Trazado_1298180" data-name="Trazado 1298180" d="M465.532,173.356h-4.293a.879.879,0,1,0,0,1.758h4.293a.879.879,0,1,0,0-1.758Z" transform="translate(-406.411 -155.928)"/>
        <circle id="Elipse_11554" data-name="Elipse 11554" cx="0.977" cy="0.977" r="0.977" transform="translate(50.591 17.354)"/>
        <path id="Trazado_1298181" data-name="Trazado 1298181" d="M267.221,440.751h-4.293a.879.879,0,1,0,0,1.758h4.293a.879.879,0,1,0,0-1.758Z" transform="translate(-231.34 -391.988)"/>
        <path id="Trazado_1298182" data-name="Trazado 1298182" d="M234.374,440.115a.977.977,0,1,0,.977.977A.977.977,0,0,0,234.374,440.115Z" transform="translate(-206.046 -391.426)"/>
        <path id="Trazado_1298183" data-name="Trazado 1298183" d="M267.221,471.333h-4.293a.879.879,0,1,0,0,1.758h4.293a.879.879,0,0,0,0-1.758Z" transform="translate(-231.34 -418.986)"/>
        <circle id="Elipse_11555" data-name="Elipse 11555" cx="0.977" cy="0.977" r="0.977" transform="translate(27.351 52.273)"/>
        <path id="Trazado_1298184" data-name="Trazado 1298184" d="M465.532,204h-4.293a.879.879,0,1,0,0,1.758h4.293a.879.879,0,1,0,0-1.758Z" transform="translate(-406.411 -182.982)"/>
        <path id="Trazado_1298185" data-name="Trazado 1298185" d="M465.532,234.583h-4.293a.879.879,0,0,0,0,1.758h4.293a.879.879,0,0,0,0-1.758Z" transform="translate(-406.411 -209.98)"/>
        <circle id="Elipse_11556" data-name="Elipse 11556" cx="0.977" cy="0.977" r="0.977" transform="translate(50.591 24.529)"/>
        <path id="Trazado_1298186" data-name="Trazado 1298186" d="M465.532,265.165h-4.293a.879.879,0,1,0,0,1.758h4.293a.879.879,0,1,0,0-1.758Z" transform="translate(-406.411 -236.978)"/>
        <path id="Trazado_1298187" data-name="Trazado 1298187" d="M465.532,295.746h-4.293a.879.879,0,0,0,0,1.758h4.293a.879.879,0,0,0,0-1.758Z" transform="translate(-406.411 -263.975)"/>
        <path id="Trazado_1298188" data-name="Trazado 1298188" d="M432.685,295.11a.977.977,0,1,0,.977.977A.977.977,0,0,0,432.685,295.11Z" transform="translate(-381.117 -263.414)"/>
        <path id="Trazado_1298189" data-name="Trazado 1298189" d="M23.727,399.656h-3.29v-5.027a1.35,1.35,0,0,0-1.348-1.348H15.9a1.35,1.35,0,0,0-1.348,1.348v5.027H13.3v-8.174a1.35,1.35,0,0,0-1.348-1.348H8.762a1.35,1.35,0,0,0-1.348,1.348v8.174H6.331v-2.779a1.35,1.35,0,0,0-1.348-1.348H1.794a1.35,1.35,0,0,0-1.348,1.348v2.893a.879.879,0,0,0,.433,1.644H23.727a.879.879,0,1,0,0-1.758Zm-7.416-4.616h2.368v4.616H16.311Zm-7.138-3.147H11.54v7.764H9.172Zm-6.968,5.4H4.573v2.368H2.2Z" transform="translate(0 -347.302)"/>
      </g>
    </g>
  </g>
</svg>
