<svg xmlns="http://www.w3.org/2000/svg" xmlns:xlink="http://www.w3.org/1999/xlink" width="400" height="333" viewBox="0 0 400 333">
  <defs>
    <clipPath id="clip-path">
      <rect id="Rectángulo_423534" data-name="Rectángulo 423534" width="400" height="333" transform="translate(1020 1769)" fill="#fff" stroke="#707070" stroke-width="1"/>
    </clipPath>
    <clipPath id="clip-path-2">
      <rect id="Rectángulo_423249" data-name="Rectángulo 423249" width="282" height="312" transform="translate(0.42 0.074)" fill="#fff" stroke="#707070" stroke-width="1"/>
    </clipPath>
    <linearGradient id="linear-gradient" y1="0.5" x2="1" y2="0.5" gradientUnits="objectBoundingBox">
      <stop offset="0" stop-color="#40d5e6"/>
      <stop offset="1" stop-color="#57f"/>
    </linearGradient>
    <linearGradient id="linear-gradient-5" y1="0.5" x2="1" y2="0.5" gradientUnits="objectBoundingBox">
      <stop offset="0" stop-color="#ff9340"/>
      <stop offset="1" stop-color="#ffce45"/>
    </linearGradient>
    <linearGradient id="linear-gradient-6" y1="0.5" x2="1" y2="0.5" gradientUnits="objectBoundingBox">
      <stop offset="0" stop-color="#c97332"/>
      <stop offset="1" stop-color="#ffce45"/>
    </linearGradient>
    <linearGradient id="linear-gradient-9" y1="0.5" x2="1" y2="0.5" gradientUnits="objectBoundingBox">
      <stop offset="0" stop-color="#ff9f55"/>
      <stop offset="1" stop-color="#ffd255"/>
    </linearGradient>
  </defs>
  <g id="Enmascarar_grupo_1211544" data-name="Enmascarar grupo 1211544" transform="translate(-1020 -1769)" clip-path="url(#clip-path)">
    <path id="Trazado_1299077" data-name="Trazado 1299077" d="M57,0h94a57,57,0,0,1,57,57V255a57,57,0,0,1-57,57H57A57,57,0,0,1,0,255V57A57,57,0,0,1,57,0Z" transform="translate(1093 1790)" fill="#f6f3ef"/>
    <g id="Enmascarar_grupo_1211534" data-name="Enmascarar grupo 1211534" transform="translate(1078.58 1789.926)" clip-path="url(#clip-path-2)">
      <g id="Grupo_1241874" data-name="Grupo 1241874" transform="translate(0 0)">
        <g id="Grupo_1241640" data-name="Grupo 1241640" transform="translate(32.813 40.237)">
          <g id="Grupo_1241637" data-name="Grupo 1241637" transform="translate(0.339 0)">
            <g id="Grupo_1241630" data-name="Grupo 1241630" transform="translate(3.845 42.096)">
              <g id="Grupo_1241629" data-name="Grupo 1241629">
                <g id="Grupo_1241628" data-name="Grupo 1241628">
                  <path id="Trazado_1297704" data-name="Trazado 1297704" d="M352.674,589.148s22.046-9.475,30.561,3.367-3.414,12.041-3.414,12.041-.663,5.937-11.924-8.114C362.591,589.82,352.674,589.148,352.674,589.148Z" transform="translate(-352.674 -585.782)" fill="#bbd070"/>
                </g>
              </g>
            </g>
            <g id="Grupo_1241633" data-name="Grupo 1241633" transform="translate(0 8.203)">
              <g id="Grupo_1241632" data-name="Grupo 1241632">
                <g id="Grupo_1241631" data-name="Grupo 1241631">
                  <path id="Trazado_1297705" data-name="Trazado 1297705" d="M331.064,395.955s19.571-6.07,32.456,18.754,24.469,26.786,24.469,26.786S343.725,449.437,331.064,395.955Z" transform="translate(-331.064 -395.301)" fill="#97a43c"/>
                </g>
              </g>
            </g>
            <g id="Grupo_1241636" data-name="Grupo 1241636" transform="translate(24.411)">
              <g id="Grupo_1241635" data-name="Grupo 1241635">
                <g id="Grupo_1241634" data-name="Grupo 1241634">
                  <path id="Trazado_1297706" data-name="Trazado 1297706" d="M492.63,405.031c-1.714,8.253-20.6-7.661-22.465-21.933s1.844-24.742-1.911-33.9C468.254,349.2,501.069,364.391,492.63,405.031Z" transform="translate(-468.254 -349.201)" fill="#48753a"/>
                </g>
              </g>
            </g>
          </g>
          <g id="Grupo_1241638" data-name="Grupo 1241638" transform="translate(34.169 11.064)">
            <path id="Trazado_1297707" data-name="Trazado 1297707" d="M541.257,414.8a7.559,7.559,0,0,0-2.21.325,6.312,6.312,0,0,0-11.818.758,4.609,4.609,0,0,0-1.632-.3,4.3,4.3,0,0,0-4.407,4.189h26.276C547.465,417.032,544.685,414.8,541.257,414.8Z" transform="translate(-521.189 -411.379)" fill="#ebebeb"/>
          </g>
          <g id="Grupo_1241639" data-name="Grupo 1241639" transform="translate(0 28.427)">
            <path id="Trazado_1297708" data-name="Trazado 1297708" d="M344.461,511.576a5.773,5.773,0,0,0-1.685.247,4.813,4.813,0,0,0-9.011.578,3.514,3.514,0,0,0-1.245-.226,3.281,3.281,0,0,0-3.361,3.194h20.036C349.195,513.275,347.075,511.576,344.461,511.576Z" transform="translate(-329.159 -508.964)" fill="#ebebeb"/>
          </g>
        </g>
        <g id="Grupo_1241645" data-name="Grupo 1241645" transform="translate(2.306 198.295)">
          <path id="Trazado_1297709" data-name="Trazado 1297709" d="M233.17,1148.22c3.319-1.587,6.621,8.977,6.621,8.977,5.64,7.453,13.523-2.462,12.752,8.679-1.349,19.5,22.441,6.131,11.465,26.485s9.691,11.509,2.87,27.921,2.02,35.987-8.243,27.943c0,0-9.036-19.815-18.355-25.946s5.583-13.4,2.667-21.732c-4.235-12.094-14.438-11.619-7.081-24.617S221.89,1153.614,233.17,1148.22Z" transform="translate(-229.808 -1148.057)" fill="url(#linear-gradient)"/>
          <g id="Grupo_1241641" data-name="Grupo 1241641" transform="translate(13.358 20.667)">
            <path id="Trazado_1297710" data-name="Trazado 1297710" d="M307.966,1312.059c-4.448-3.128-9.654-24.929-9.965-37.914-.159-6.651-2.125-9.423-3.86-11.868-1.658-2.337-3.09-4.355-2.256-8.99,1.594-8.857-2.6-12.68-2.64-12.717l.485-.553c.187.163,4.552,4.106,2.879,13.4-.779,4.33.505,6.141,2.132,8.434,1.707,2.406,3.831,5.4,4,12.276.333,13.936,5.656,34.52,9.653,37.331Z" transform="translate(-289.245 -1240.017)" fill="#fff"/>
          </g>
          <g id="Grupo_1241642" data-name="Grupo 1241642" transform="translate(28.232 50.658)">
            <path id="Trazado_1297711" data-name="Trazado 1297711" d="M360.938,1417.132a9.5,9.5,0,0,1-1.881-.2,4.1,4.1,0,0,1-3.341-2.688c-1.2-3.429,1.579-9,3.834-11.686a17.146,17.146,0,0,0,3.409-11.052c-.067-1.072-.179-2.063-.277-2.939-.284-2.53-.489-4.359.6-5.579.958-1.076,2.807-1.542,6.182-1.558,5.92-.028,8.261-2.479,10.142-4.448a10.745,10.745,0,0,1,2.47-2.127h0c2.95-1.61,6.075-1.847,7.431-.563.644.61,1.187,1.805.121,4.034a15.582,15.582,0,0,1-3.254,4.363c-1.366,1.394-2.269,2.315-1.8,4.151.11.431.238.866.365,1.3.913,3.122,1.947,6.66-3.4,9.06-1.134.51-2.167.915-3.078,1.273-3.729,1.464-5.98,2.347-8.521,7.711-.492,1.038-.926,2.022-1.346,2.974C366.595,1413.7,365.079,1417.13,360.938,1417.132Zm21.489-41.636a10.065,10.065,0,0,0-2.29,1.989c-1.977,2.071-4.438,4.647-10.67,4.676-3.1.015-4.842.419-5.636,1.312-.869.976-.679,2.667-.417,5.009.1.883.211,1.885.28,2.974a17.572,17.572,0,0,1-3.579,11.57c-2.232,2.658-4.761,7.948-3.7,10.971a3.414,3.414,0,0,0,2.793,2.21c5.031,1.016,6.42-2.131,8.722-7.347.422-.956.858-1.945,1.354-2.992,2.666-5.628,5.153-6.6,8.918-8.081.9-.354,1.928-.757,3.045-1.259,4.758-2.138,3.9-5.074,2.991-8.183-.13-.445-.26-.888-.372-1.327-.573-2.237.557-3.39,1.987-4.848a14.756,14.756,0,0,0,3.116-4.166c.483-1.01.882-2.382.037-3.183-1.112-1.056-3.937-.766-6.572.674Z" transform="translate(-355.427 -1373.462)" fill="url(#linear-gradient)"/>
          </g>
          <g id="Grupo_1241643" data-name="Grupo 1241643" transform="translate(31.207 56.532)">
            <path id="Trazado_1297712" data-name="Trazado 1297712" d="M369.4,1441.638l-.735-.038c.036-.69.963-16.96,7.5-21.722,7.167-5.224,9.426-10.838,10.5-14.606,1.268-4.441,7.722-5.627,8-5.676l.128.725c-.062.011-6.275,1.156-7.417,5.153-1.106,3.873-3.426,9.641-10.776,15C370.341,1425.03,369.407,1441.474,369.4,1441.638Z" transform="translate(-368.664 -1399.597)" fill="url(#linear-gradient)"/>
          </g>
          <path id="Trazado_1297713" data-name="Trazado 1297713" d="M351.8,1221.188c-4.643-1.592-3.678,7.357-5.64,13.978s-21.826,2.888-13.488,19.469-10.545,5.545-4.9,20.014.491,29.943,6.621,26.007,3.444-22.156,9.82-24.321,7.417-4.69,1.1-10.576,16.542-11.729,10.9-23.613S357.16,1223.028,351.8,1221.188Z" transform="translate(-304.918 -1204.608)" fill="url(#linear-gradient)"/>
          <g id="Grupo_1241644" data-name="Grupo 1241644" transform="translate(29.427 37.336)">
            <path id="Trazado_1297714" data-name="Trazado 1297714" d="M363.627,1372.2c-.584-2.477-5.571-24.275-.918-26.909,4.1-2.322,4-11.355,3.36-19.884-.566-7.55,9.13-11.079,9.544-11.226l.246.694c-.1.034-9.58,3.489-9.056,10.477.657,8.759.727,18.054-3.731,20.579-3.533,2-.28,19.519,1.271,26.1Z" transform="translate(-360.743 -1314.183)" fill="#fff"/>
          </g>
          <path id="Trazado_1297715" data-name="Trazado 1297715" d="M323.7,1537.8l-6.629,25.151H302.258l-6.629-25.151Z" transform="translate(-280.836 -1450.208)" fill="url(#linear-gradient-5)"/>
          <path id="Trazado_1297716" data-name="Trazado 1297716" d="M323.7,1537.8s-14.594,2.74-14.594,25.15h-6.85l-6.629-25.15Z" transform="translate(-280.837 -1450.208)" fill="url(#linear-gradient-6)"/>
        </g>
        <rect id="Rectángulo_423255" data-name="Rectángulo 423255" width="181.525" height="181.525" transform="translate(60.113 89.629)" fill="#fff"/>
        <g id="Grupo_1241646" data-name="Grupo 1241646" transform="translate(181.562 36.86)">
          <path id="Trazado_1297717" data-name="Trazado 1297717" d="M1372.793,364.577a37.573,37.573,0,0,0-4.018-9.688l4.091-6.152-5.675-5.675-5.675-5.675-6.152,4.091a37.565,37.565,0,0,0-9.688-4.018l-1.456-7.237h-16.052l-1.456,7.237a37.562,37.562,0,0,0-9.688,4.018l-6.152-4.091-5.675,5.675-5.675,5.675,4.091,6.152a37.569,37.569,0,0,0-4.018,9.688l-7.237,1.457v16.052l7.237,1.456a37.565,37.565,0,0,0,4.018,9.688l-4.091,6.152,5.675,5.675,5.675,5.675,6.152-4.091a37.565,37.565,0,0,0,9.688,4.018l1.456,7.237h16.052l1.456-7.237a37.559,37.559,0,0,0,9.688-4.018l6.152,4.091,5.675-5.675,5.675-5.675-4.091-6.152a37.572,37.572,0,0,0,4.018-9.688l7.237-1.456V366.033Zm-36.6,37.606a28.123,28.123,0,1,1,28.123-28.123A28.123,28.123,0,0,1,1336.192,402.182Z" transform="translate(-1292.355 -330.222)" fill="url(#linear-gradient)"/>
        </g>
        <g id="Grupo_1241647" data-name="Grupo 1241647" transform="translate(241.526 119.887)">
          <path id="Trazado_1297718" data-name="Trazado 1297718" d="M1666.238,812.586a17.218,17.218,0,0,0-1.842-4.441l1.875-2.82-2.6-2.6-2.6-2.6L1658.247,802a17.222,17.222,0,0,0-4.441-1.842l-.668-3.318h-7.359l-.668,3.318A17.217,17.217,0,0,0,1640.67,802l-2.821-1.875-2.6,2.6-2.6,2.6,1.875,2.82a17.234,17.234,0,0,0-1.842,4.441l-3.318.668v7.359l3.318.668a17.234,17.234,0,0,0,1.842,4.441l-1.875,2.82,2.6,2.6,2.6,2.6,2.821-1.875a17.221,17.221,0,0,0,4.442,1.842l.668,3.318h7.359l.668-3.318a17.22,17.22,0,0,0,4.441-1.842l2.821,1.875,2.6-2.6,2.6-2.6-1.875-2.82a17.221,17.221,0,0,0,1.842-4.441l3.318-.668v-7.359Zm-16.779,17.24a12.893,12.893,0,1,1,12.893-12.893A12.893,12.893,0,0,1,1649.459,829.826Z" transform="translate(-1629.361 -796.836)" fill="url(#linear-gradient)"/>
        </g>
        <g id="Grupo_1241648" data-name="Grupo 1241648" transform="translate(60.113 71.139)">
          <path id="Trazado_1297719" data-name="Trazado 1297719" d="M482.587,541.39H664.11v-3.917a14.6,14.6,0,0,0-14.6-14.6H497.191a14.6,14.6,0,0,0-14.6,14.6Z" transform="translate(-482.587 -522.869)" fill="url(#linear-gradient-9)"/>
        </g>
        <g id="Grupo_1241651" data-name="Grupo 1241651" transform="translate(130.354 47.882)">
          <g id="Grupo_1241649" data-name="Grupo 1241649" transform="translate(6.203)">
            <path id="Trazado_1297720" data-name="Trazado 1297720" d="M913.1,406.363a.9.9,0,0,1-.9-.9V393.061a.9.9,0,1,1,1.794,0v12.405A.9.9,0,0,1,913.1,406.363Z" transform="translate(-912.207 -392.164)" fill="#ffdf69"/>
          </g>
          <g id="Grupo_1241650" data-name="Grupo 1241650" transform="translate(0 6.203)">
            <path id="Trazado_1297721" data-name="Trazado 1297721" d="M890.649,428.817H878.244a.9.9,0,1,1,0-1.794h12.405a.9.9,0,0,1,0,1.794Z" transform="translate(-877.347 -427.023)" fill="#ffdf69"/>
          </g>
        </g>
        <g id="Grupo_1241654" data-name="Grupo 1241654" transform="translate(15.028 145.051)">
          <g id="Grupo_1241653" data-name="Grupo 1241653" transform="translate(0)">
            <g id="Grupo_1241652" data-name="Grupo 1241652">
              <path id="Trazado_1297722" data-name="Trazado 1297722" d="M234.564,947.007l-5.02-4.377a.989.989,0,0,1,1.3-1.491l3.55,3.1,5.063-5.647a.989.989,0,0,1,1.473,1.32Z" transform="translate(-229.204 -938.259)" fill="#ffdf69"/>
            </g>
          </g>
        </g>
        <path id="Trazado_1297723" data-name="Trazado 1297723" d="M1285.991,123.064H1261.47V144.58l3.744-3.743h20.777Z" transform="translate(-1062.767 -123.064)" fill="#ffce55"/>
        <g id="Grupo_1241659" data-name="Grupo 1241659" transform="translate(261.934 176.515)">
          <g id="Grupo_1241655" data-name="Grupo 1241655" transform="translate(0 0)">
            <path id="Trazado_1297724" data-name="Trazado 1297724" d="M1623.515,1131.952a3.038,3.038,0,0,1-1.812-.546,2.276,2.276,0,0,1-.987-1.657,13.818,13.818,0,0,0-1.141-3.459,6.1,6.1,0,1,1,7.3-.439,13.151,13.151,0,0,0-.508,3.429,2.668,2.668,0,0,1-2.626,2.662C1623.67,1131.947,1623.591,1131.95,1623.515,1131.952Zm-.657-16.361a5.6,5.6,0,0,0-2.951,10.318l.06.039.031.064a14.39,14.39,0,0,1,1.214,3.666l0,.019a1.783,1.783,0,0,0,.78,1.3,2.57,2.57,0,0,0,1.711.444,2.172,2.172,0,0,0,2.169-2.133v-.019a13.732,13.732,0,0,1,.546-3.649l.021-.076.061-.05a5.6,5.6,0,0,0-3.643-9.925Z" transform="translate(-1616.832 -1115.092)" fill="#ffd255"/>
          </g>
          <g id="Grupo_1241656" data-name="Grupo 1241656" transform="translate(3.978 7.941)">
            <path id="Trazado_1297725" data-name="Trazado 1297725" d="M1640.582,1166.667l-1.391-6.551,1.484,1.018.772-1.027.82.824,1.192-1.21-.188,6.706-.5-.014.155-5.437-.657.665-.769-.774-.713.948-.847-.582,1.132,5.331Z" transform="translate(-1639.19 -1159.72)" fill="#ffd255"/>
          </g>
          <g id="Grupo_1241657" data-name="Grupo 1241657" transform="translate(4.72 16.06)">
            <rect id="Rectángulo_423256" data-name="Rectángulo 423256" width="4.329" height="1.744" transform="matrix(0.997, -0.083, 0.083, 0.997, 0, 0.358)" fill="#ffd255"/>
          </g>
          <g id="Grupo_1241658" data-name="Grupo 1241658" transform="translate(3.878 14.224)">
            <rect id="Rectángulo_423257" data-name="Rectángulo 423257" width="5.721" height="2.808" transform="matrix(0.997, -0.083, 0.083, 0.997, 0, 0.474)" fill="#ffd255"/>
          </g>
        </g>
        <path id="Trazado_1297726" data-name="Trazado 1297726" d="M1788.949,281.606h6.5l-1.989-4.126h-6.5Z" transform="translate(-1494.755 -250.004)" fill="#ffd179"/>
        <path id="Trazado_1297727" data-name="Trazado 1297727" d="M1771.859,281.606h1.55l-1.991-4.126h-1.548Z" transform="translate(-1480.705 -250.004)" fill="#ffd179"/>
        <path id="Trazado_1297728" data-name="Trazado 1297728" d="M1650.822,263.521h26.318l-.874-2.063H1649.95Z" transform="translate(-1382.123 -236.833)" fill="#ffd179"/>
        <path id="Trazado_1297729" data-name="Trazado 1297729" d="M169.616,665.714h8.471l-2.593-5.378h-8.471Z" transform="translate(-163.059 -564.737)" fill="#ffd179"/>
        <path id="Trazado_1297730" data-name="Trazado 1297730" d="M147.34,665.714h2.019l-2.593-5.378h-2.018Z" transform="translate(-144.747 -564.737)" fill="#ffd179"/>
        <rect id="Rectángulo_423258" data-name="Rectángulo 423258" width="42.934" height="42.934" transform="translate(60.113 135.857)" fill="#ffdf69"/>
        <rect id="Rectángulo_423259" data-name="Rectángulo 423259" width="42.934" height="42.934" transform="translate(60.113 89.629)" fill="#bab7b8"/>
        <rect id="Rectángulo_423260" data-name="Rectángulo 423260" width="42.934" height="42.934" transform="translate(106.31 89.629)" fill="#bab7b8"/>
        <rect id="Rectángulo_423261" data-name="Rectángulo 423261" width="42.934" height="42.934" transform="translate(152.506 135.653)" fill="#bab7b8"/>
        <rect id="Rectángulo_423262" data-name="Rectángulo 423262" width="42.934" height="42.934" transform="translate(198.703 135.653)" fill="#ffdf69"/>
        <rect id="Rectángulo_423263" data-name="Rectángulo 423263" width="42.934" height="42.934" transform="translate(198.703 89.66)" fill="#bab7b8"/>
        <rect id="Rectángulo_423264" data-name="Rectángulo 423264" width="42.934" height="42.934" transform="translate(106.31 181.85)" fill="#bab7b8"/>
        <rect id="Rectángulo_423265" data-name="Rectángulo 423265" width="42.934" height="42.934" transform="translate(106.31 228.048)" fill="#ffdf69"/>
        <rect id="Rectángulo_423266" data-name="Rectángulo 423266" width="42.934" height="42.934" transform="translate(152.506 228.048)" fill="#bab7b8"/>
        <rect id="Rectángulo_423267" data-name="Rectángulo 423267" width="42.934" height="42.934" transform="translate(60.113 181.953)" fill="#bab7b8"/>
        <g id="Grupo_1241660" data-name="Grupo 1241660" transform="translate(192.01 228.048)">
          <path id="Trazado_1297731" data-name="Trazado 1297731" d="M1273.479,1404.71s-.03,19.873-4.689,36.72l-9.929,6.214h-35.008c6.651-17.7,6.691-42.934,6.691-42.934Z" transform="translate(-1223.853 -1404.71)" fill="#ffdf69"/>
          <path id="Trazado_1297732" data-name="Trazado 1297732" d="M1420.6,1616.628v-6.358h9.929Z" transform="translate(-1385.592 -1573.694)" fill="#deba35"/>
        </g>
        <g id="Grupo_1241661" data-name="Grupo 1241661" transform="translate(145.814 181.85)">
          <path id="Trazado_1297733" data-name="Trazado 1297733" d="M1013.855,1145.07s-.03,19.873-4.689,36.72L999.237,1188H964.229c6.651-17.7,6.691-42.934,6.691-42.934Z" transform="translate(-964.229 -1145.07)" fill="#4ba2f4"/>
          <path id="Trazado_1297734" data-name="Trazado 1297734" d="M1160.97,1356.988v-6.358h9.931Z" transform="translate(-1125.963 -1314.054)" fill="#375eab"/>
        </g>
        <g id="Grupo_1241662" data-name="Grupo 1241662" transform="translate(145.814 89.66)">
          <path id="Trazado_1297735" data-name="Trazado 1297735" d="M1013.855,626.958s-.03,19.873-4.689,36.72l-9.929,6.214H964.229c6.651-17.7,6.691-42.934,6.691-42.934Z" transform="translate(-964.229 -626.958)" fill="#ffdf69"/>
          <path id="Trazado_1297736" data-name="Trazado 1297736" d="M1160.97,838.873v-6.358h9.931Z" transform="translate(-1125.963 -795.94)" fill="#deba35"/>
        </g>
        <g id="Grupo_1241664" data-name="Grupo 1241664" transform="translate(53.42 228.048)">
          <g id="Grupo_1241663" data-name="Grupo 1241663" transform="translate(0)">
            <path id="Trazado_1297737" data-name="Trazado 1297737" d="M494.6,1404.71s-.03,19.873-4.689,36.72l-9.929,6.214H444.971c6.651-17.7,6.691-42.934,6.691-42.934Z" transform="translate(-444.971 -1404.71)" fill="#bab7b8"/>
            <path id="Trazado_1297738" data-name="Trazado 1297738" d="M641.716,1616.628v-6.358h9.929Z" transform="translate(-606.708 -1573.694)" fill="#bab7b8"/>
          </g>
        </g>
        <g id="Grupo_1241669" data-name="Grupo 1241669" transform="translate(99.617 135.857)">
          <g id="Grupo_1241665" data-name="Grupo 1241665" transform="translate(0 0)">
            <path id="Trazado_1297739" data-name="Trazado 1297739" d="M754.225,886.587s-.03,19.873-4.688,36.72l-9.929,6.214H704.6c6.651-17.7,6.691-42.934,6.691-42.934Z" transform="translate(-704.6 -886.587)" fill="#4ba2f4"/>
            <path id="Trazado_1297740" data-name="Trazado 1297740" d="M901.345,1098.5v-6.359h9.929Z" transform="translate(-866.337 -1055.565)" fill="#375eab"/>
          </g>
          <g id="Grupo_1241668" data-name="Grupo 1241668" transform="translate(18.796 13.568)">
            <g id="Grupo_1241666" data-name="Grupo 1241666" transform="translate(6.901)">
              <path id="Trazado_1297741" data-name="Trazado 1297741" d="M850.017,978.639a1,1,0,0,1-1-1v-13.8a1,1,0,0,1,2,0v13.8A1,1,0,0,1,850.017,978.639Z" transform="translate(-849.019 -962.842)" fill="#fff"/>
            </g>
            <g id="Grupo_1241667" data-name="Grupo 1241667" transform="translate(0 6.901)">
              <path id="Trazado_1297742" data-name="Trazado 1297742" d="M825.036,1003.621h-13.8a1,1,0,1,1,0-2h13.8a1,1,0,1,1,0,2Z" transform="translate(-810.237 -1001.625)" fill="#fff"/>
            </g>
          </g>
        </g>
        <g id="Grupo_1241670" data-name="Grupo 1241670" transform="translate(192.01 181.85)">
          <path id="Trazado_1297743" data-name="Trazado 1297743" d="M1273.479,1145.07s-.03,19.873-4.689,36.72l-9.929,6.214h-35.008c6.651-17.7,6.691-42.934,6.691-42.934Z" transform="translate(-1223.853 -1145.07)" fill="#bab7b8"/>
          <path id="Trazado_1297744" data-name="Trazado 1297744" d="M1420.6,1356.988v-6.358h9.929Z" transform="translate(-1385.592 -1314.054)" fill="#bab7b8"/>
        </g>
        <g id="Grupo_1241673" data-name="Grupo 1241673" transform="translate(164.708 105.077)">
          <g id="Grupo_1241672" data-name="Grupo 1241672">
            <g id="Grupo_1241671" data-name="Grupo 1241671">
              <path id="Trazado_1297745" data-name="Trazado 1297745" d="M1077.072,724.469l-6.236-5.437a1.228,1.228,0,0,1,1.614-1.852l4.41,3.845,6.289-7.015a1.228,1.228,0,0,1,1.829,1.64Z" transform="translate(-1070.414 -713.602)" fill="#fff"/>
            </g>
          </g>
        </g>
        <rect id="Rectángulo_423268" data-name="Rectángulo 423268" width="12.035" height="0.844" transform="translate(94.841 37.372) rotate(180)" fill="#ffd887"/>
        <rect id="Rectángulo_423269" data-name="Rectángulo 423269" width="12.035" height="3.547" transform="translate(94.841 41.665) rotate(180)" fill="#ffd887"/>
        <rect id="Rectángulo_423270" data-name="Rectángulo 423270" width="7.1" height="0.53" transform="translate(154.425 20.539) rotate(180)" fill="#ffd887"/>
        <rect id="Rectángulo_423271" data-name="Rectángulo 423271" width="7.1" height="1.435" transform="translate(154.425 22.206) rotate(180)" fill="#ffd887"/>
        <rect id="Rectángulo_423272" data-name="Rectángulo 423272" width="0.53" height="9.938" transform="translate(97.347 41.919) rotate(180)" fill="#ffd989"/>
        <g id="Grupo_1241709" data-name="Grupo 1241709" transform="translate(149.244 9.007)">
          <g id="Grupo_1241675" data-name="Grupo 1241675" transform="translate(3.302 89.833)">
            <g id="Grupo_1241674" data-name="Grupo 1241674">
              <path id="Trazado_1297746" data-name="Trazado 1297746" d="M1060.4,647.836s-2.525,4.281-3.592,4.98c-1.447.949-.541,1.909.147,1.91s4.2.252,4.972-.626,1.157-3.509,1.877-4.2,1.462-3.423-.351-4.088C1061.851,645.228,1060.4,647.836,1060.4,647.836Z" transform="translate(-1056.037 -645.729)" fill="#484e7d"/>
            </g>
          </g>
          <g id="Grupo_1241677" data-name="Grupo 1241677" transform="translate(5.265 89.919)">
            <g id="Grupo_1241676" data-name="Grupo 1241676">
              <path id="Trazado_1297747" data-name="Trazado 1297747" d="M1068.209,646.247s-2.893,5.014-3.391,5.754.939.74,1.829.388,3.131-3.948,3.452-4.6a2.417,2.417,0,0,0,.069-1.677Z" transform="translate(-1064.716 -646.11)" fill="#202338"/>
            </g>
          </g>
          <g id="Grupo_1241679" data-name="Grupo 1241679" transform="translate(10.667 92.754)">
            <g id="Grupo_1241678" data-name="Grupo 1241678">
              <path id="Trazado_1297748" data-name="Trazado 1297748" d="M1089.623,658.643l-.667,5.14-.355.016.111-3.7Z" transform="translate(-1088.6 -658.643)" fill="#484e7d"/>
            </g>
          </g>
          <g id="Grupo_1241681" data-name="Grupo 1241681" transform="translate(28.346 89.849)">
            <g id="Grupo_1241680" data-name="Grupo 1241680">
              <path id="Trazado_1297749" data-name="Trazado 1297749" d="M1171.122,647.89s-2.526,4.281-3.592,4.98c-1.447.949-.541,1.909.147,1.91s4.2.252,4.972-.626,1.157-3.509,1.877-4.2,1.487-3.494-.35-4.088C1172.565,645.349,1171.122,647.89,1171.122,647.89Z" transform="translate(-1166.758 -645.799)" fill="#484e7d"/>
            </g>
          </g>
          <g id="Grupo_1241683" data-name="Grupo 1241683" transform="translate(30.311 89.919)">
            <g id="Grupo_1241682" data-name="Grupo 1241682">
              <path id="Trazado_1297750" data-name="Trazado 1297750" d="M1178.789,646.258s-2.741,5-3.239,5.744.938.74,1.829.388,3.131-3.948,3.452-4.6a2.417,2.417,0,0,0,.069-1.677Z" transform="translate(-1175.448 -646.11)" fill="#202338"/>
            </g>
          </g>
          <g id="Grupo_1241685" data-name="Grupo 1241685" transform="translate(35.711 92.754)">
            <g id="Grupo_1241684" data-name="Grupo 1241684">
              <path id="Trazado_1297751" data-name="Trazado 1297751" d="M1200.343,658.643l-.667,5.14-.355.016.111-3.7Z" transform="translate(-1199.32 -658.643)" fill="#484e7d"/>
            </g>
          </g>
          <g id="Grupo_1241687" data-name="Grupo 1241687" transform="translate(8.756 49.411)">
            <g id="Grupo_1241686" data-name="Grupo 1241686">
              <path id="Trazado_1297752" data-name="Trazado 1297752" d="M1082.115,507.53s6.613-14.025,7.505-22.867a4.4,4.4,0,0,1,2.837-3.662l22.854-10.413s-4.985-3.8-14.675-3.554c0,0-12.9,5.265-16.039,7.808-.424.342-.669.636-.68.861-.018.33-.094,1.361-.216,2.868-.582,7.112-2.209,24.8-3.547,29.1C1080.153,507.667,1079.99,508.568,1082.115,507.53Z" transform="translate(-1080.151 -467.022)" fill="#202338"/>
            </g>
          </g>
          <g id="Grupo_1241689" data-name="Grupo 1241689" transform="translate(18.99 47.84)">
            <g id="Grupo_1241688" data-name="Grupo 1241688">
              <path id="Trazado_1297753" data-name="Trazado 1297753" d="M1154.63,469.686c-.708,6.178-9.526,5.47-9.526,5.47h-10.687a66.682,66.682,0,0,1,3.891,11.516c1.15,5.592,3.862,15.485,3.862,15.485s-.178.336-2.111.148c0,0-8.389-16.721-11.6-20.924a28.39,28.39,0,0,1-3.012-8.743c-.115-.986-.044-1.747.324-2.056a26.69,26.69,0,0,1,2.36-1.612c3.348-2.111,9.161-5.361,12.4-6.089,4.338-.975,11.2-2.8,11.2-2.8A11.817,11.817,0,0,1,1154.63,469.686Z" transform="translate(-1125.395 -460.078)" fill="#202338"/>
            </g>
          </g>
          <g id="Grupo_1241690" data-name="Grupo 1241690" transform="translate(12.518 47.841)">
            <path id="Trazado_1297754" data-name="Trazado 1297754" d="M1113.389,475.157h9.573s8.818.707,9.525-5.47a11.811,11.811,0,0,0-2.9-9.608s-4.658,1.241-8.726,2.223a31.5,31.5,0,0,0-7.356-.642s-15.692,1.593-16.722,8.709C1096.785,470.37,1104,466.5,1113.389,475.157Z" transform="translate(-1096.783 -460.079)" fill="#384c9e"/>
          </g>
          <g id="Grupo_1241692" data-name="Grupo 1241692" transform="translate(27.245)">
            <g id="Grupo_1241691" data-name="Grupo 1241691">
              <path id="Trazado_1297755" data-name="Trazado 1297755" d="M1170.764,248.626s4.174-.649,5.928,2.624-.1,5.278.581,6.405,3.163,2.665,2.822,4.445-3.1,3.769-2.408,5.344a15.574,15.574,0,0,1,1.1,2.738c-.057.128-16.9,3.024-16.9,3.024a15.792,15.792,0,0,1,2.284-3.322c1.051-.961,2.168-1.265.869-4.662s-2.413-5.006-1.869-7.555.347-4.9,2.881-7.16A7.491,7.491,0,0,1,1170.764,248.626Z" transform="translate(-1161.891 -248.574)" fill="#282b45"/>
            </g>
          </g>
          <g id="Grupo_1241693" data-name="Grupo 1241693" transform="translate(13.866 17.696)">
            <path id="Trazado_1297756" data-name="Trazado 1297756" d="M1132.792,353.161c-.1-.646-1.17-2.965-1.79-5.581,5.209-8.461,7.07-14.23,5.34-17.023-1.91-3.083-6.694-3.748-6.694-3.748l-6.237.235s-5.76,1.767-8.487,4.8c-2.53,2.812-7.042,16.863-7.309,17.484-1.355,3.147-4.688,12.759-4.865,12.795s2.614.312,2.614.312,2.7-5.84,4.569-10.561c.331-.839,1.377-3.227,2.463-5.477h0c.221-.459.444-.913.663-1.346a13.645,13.645,0,0,1,1.329-2.171,15.429,15.429,0,0,0,2.022,3.961,26.076,26.076,0,0,0,.92,4.068,5.868,5.868,0,0,1,.232,1.475c.11,1.506.1,3.668.2,5.008l-.105.125c-2.477,2.948-2.29,2.28-2.115,2.411.377.283,2.72,2.075,3,1.75.389-.455.212-.081,2.715-2.575.717.061,1.515.112,2.354.14h0c4.081.138,9.132-.235,10.589-2.287C1134.2,356.954,1133.292,356.355,1132.792,353.161Zm-1.859-12.834a2.051,2.051,0,0,1,.373-.44l0,0-.006.007-.522.713A2.761,2.761,0,0,1,1130.932,340.326Z" transform="translate(-1102.743 -326.809)" fill="#4ba2f4"/>
          </g>
          <g id="Grupo_1241695" data-name="Grupo 1241695" transform="translate(34.01 11.033)">
            <g id="Grupo_1241694" data-name="Grupo 1241694">
              <path id="Trazado_1297757" data-name="Trazado 1297757" d="M1198.56,298.219a7.706,7.706,0,0,0,0,5.794c-.236,2.075-6.06,8.146-6.591,7.474-.429-.541.063-4.912.27-6.588.05-.4.083-.651.083-.651a3.228,3.228,0,0,0-.05-.815h0s0,0,0,0a4.34,4.34,0,0,0-.3-.984s4.914-4.788,6.338-5.085C1198.68,297.287,1198.816,297.518,1198.56,298.219Z" transform="translate(-1191.799 -297.35)" fill="#eea886"/>
            </g>
          </g>
          <g id="Grupo_1241696" data-name="Grupo 1241696" transform="translate(38.919 27.299)">
            <path id="Trazado_1297758" data-name="Trazado 1297758" d="M1222.14,369.264s-4.839,9.644-3.662,16.65c.6,3.542-4.975-12.331-4.975-12.331Z" transform="translate(-1213.503 -369.264)" fill="#4ba2f4"/>
          </g>
          <g id="Grupo_1241698" data-name="Grupo 1241698" transform="translate(30.519 1.43)">
            <g id="Grupo_1241697" data-name="Grupo 1241697">
              <path id="Trazado_1297759" data-name="Trazado 1297759" d="M1178.964,256.114s-4.257,3.578-1.871,10.691,7.42,2.242,7.9,1.7c.744-.839,1.82-5.014,1.651-7.015C1186.487,259.6,1186.555,251.967,1178.964,256.114Z" transform="translate(-1176.367 -254.898)" fill="#eea886"/>
            </g>
          </g>
          <g id="Grupo_1241700" data-name="Grupo 1241700" transform="translate(29.67 0.716)">
            <g id="Grupo_1241699" data-name="Grupo 1241699">
              <path id="Trazado_1297760" data-name="Trazado 1297760" d="M1176.555,255.1c.465-.2,2.473,2.747,3.443,3.417s3.2,2.778,3.616,4.894,1.01-5.257.081-7.7-2.209-6.046-7.488-2.429-3.186,8.686-3.186,8.686S1174.2,256.112,1176.555,255.1Z" transform="translate(-1172.613 -251.741)" fill="#282b45"/>
            </g>
          </g>
          <g id="Grupo_1241702" data-name="Grupo 1241702" transform="translate(38.271 6.815)">
            <g id="Grupo_1241701" data-name="Grupo 1241701">
              <path id="Trazado_1297761" data-name="Trazado 1297761" d="M1210.647,279.882c.045-.881,1.861-1.842,1.99-.542s-.741,2.925-1.348,2.9S1210.6,280.695,1210.647,279.882Z" transform="translate(-1210.637 -278.705)" fill="#eea886"/>
            </g>
          </g>
          <g id="Grupo_1241703" data-name="Grupo 1241703" transform="translate(28.684 30.773)">
            <path id="Trazado_1297762" data-name="Trazado 1297762" d="M1182,384.622l0,0-.006.007c-.044.064-.249.358-.567.81-1.46,2.086-5.3,7.537-6.712,9.244l0,0,0,0-5.627,6.691-.25.3-.248.295-.125.149c-.1-1.34-.092-3.5-.2-5.008,1.545-.829,6.368-3.828,13.37-12.055q.185-.217.373-.44h0Z" transform="translate(-1168.255 -384.622)" fill="#3c82c4"/>
          </g>
          <g id="Grupo_1241704" data-name="Grupo 1241704" transform="translate(32.38 41.504)">
            <path id="Trazado_1297763" data-name="Trazado 1297763" d="M1192.4,432.064l-5.454,8.623h0c-.839-.029-1.637-.079-2.354-.14,0,0,6.406-6.384,6.838-7.027Z" transform="translate(-1184.593 -432.064)" fill="#3c82c4"/>
          </g>
          <g id="Grupo_1241705" data-name="Grupo 1241705" transform="translate(34.453 13.882)">
            <path id="Trazado_1297764" data-name="Trazado 1297764" d="M1199.043,309.947s-.219,3.669-5.287,4.7c.05-.4.083-.651.083-.651a3.228,3.228,0,0,0-.05-.815l.01,0a4.885,4.885,0,0,0,2.314-.379l0,0a5.209,5.209,0,0,0,1.323-.8A6.457,6.457,0,0,0,1199.043,309.947Z" transform="translate(-1193.756 -309.947)" fill="#a77860"/>
          </g>
          <g id="Grupo_1241706" data-name="Grupo 1241706" transform="translate(23.481 28.522)">
            <path id="Trazado_1297765" data-name="Trazado 1297765" d="M1147.279,379.912a13.606,13.606,0,0,0-1.329,2.171c-.219.433-.442.887-.663,1.346a15.449,15.449,0,0,1,2.124-8.761C1146.879,375.757,1147.279,379.912,1147.279,379.912Z" transform="translate(-1145.25 -374.669)" fill="#3c82c4"/>
          </g>
          <g id="Grupo_1241707" data-name="Grupo 1241707" transform="translate(13.874 49.598)">
            <path id="Trazado_1297766" data-name="Trazado 1297766" d="M1105.39,471.572s-2.1.352-2.614-.312l1.324-3.411,2.737.523Z" transform="translate(-1102.776 -467.848)" fill="#e55353"/>
          </g>
          <path id="Trazado_1297767" data-name="Trazado 1297767" d="M1137.05,484.366l-18.41-1.992,8.317,6.256Z" transform="translate(-1101.178 -429.491)" fill="#026bba"/>
          <path id="Trazado_1297768" data-name="Trazado 1297768" d="M1154.242,495.445l10.093-3.18v-1.083l-10.434,3.094Z" transform="translate(-1128.463 -436.305)" fill="#013963"/>
          <g id="Grupo_1241708" data-name="Grupo 1241708" transform="translate(21.382 51.929)">
            <path id="Trazado_1297769" data-name="Trazado 1297769" d="M1138.271,478.153s-.824.7-1.026.948-1.033,1.191-1.236,1.415.449.38,2.022-.877S1138.271,478.153,1138.271,478.153Z" transform="translate(-1135.973 -478.153)" fill="#eea886"/>
          </g>
          <path id="Trazado_1297770" data-name="Trazado 1297770" d="M1144.465,469.288s-1.427.374-2.425.573a7.141,7.141,0,0,0-2.979,1.647c-.394.571-1.354,3.845-1.6,4.12s.254.485.714.1a1.11,1.11,0,0,0,1.733.109c1.04-.884,1.55-2.2,2.107-2.6s3.89-2.556,3.89-2.556S1145.3,468.653,1144.465,469.288Z" transform="translate(-1115.687 -419.269)" fill="#eea886"/>
          <path id="Trazado_1297771" data-name="Trazado 1297771" d="M1067.219,440.087l-5.368-18.453-20.411-1.992,5.594,16.985Z" transform="translate(-1041.44 -380.948)" fill="#013963"/>
          <path id="Trazado_1297772" data-name="Trazado 1297772" d="M1085.529,453.4c.4,1.055,1.2,1.728,1.795,1.5s.751-1.26.353-2.315-1.2-1.728-1.8-1.5S1085.131,452.341,1085.529,453.4Z" transform="translate(-1075.387 -405.242)" fill="#026bba"/>
          <path id="Trazado_1297773" data-name="Trazado 1297773" d="M1159.33,462.189a21.326,21.326,0,0,1,2.738,2.357s3.938-3.859,4.341-4.264l-4.351-.948Z" transform="translate(-1132.664 -411.662)" fill="#4ba2f4"/>
          <path id="Trazado_1297774" data-name="Trazado 1297774" d="M1123.87,515.877v0a4.3,4.3,0,0,1,1.227-1.456s-1.119-3.183-.86-5.045A36.337,36.337,0,0,0,1123.87,515.877Z" transform="translate(-1105.195 -450.387)" fill="#202338"/>
        </g>
        <g id="Grupo_1241752" data-name="Grupo 1241752" transform="translate(115.762 185.594)">
          <g id="Grupo_1241710" data-name="Grupo 1241710" transform="translate(37.83 13.73)">
            <path id="Trazado_1297775" data-name="Trazado 1297775" d="M969,1360.95a6.213,6.213,0,0,1,.036-1.426c.2-.783-.094-2.052.892-2.667s3.817,1.962,4.04,2.682-.836,1.947-3.051,2.978S969,1360.95,969,1360.95Z" transform="translate(-968.975 -1356.763)" fill="#eea886"/>
          </g>
          <g id="Grupo_1241711" data-name="Grupo 1241711" transform="translate(38.482 8.673)">
            <path id="Trazado_1297776" data-name="Trazado 1297776" d="M971.968,1338.958a33.552,33.552,0,0,1,2.218-2.909c1.107-1.29,2.662-2.736,2.99-2.461.5.417-.912,1.457-1.923,2.81-.931,1.246-.536,1.157-.536,1.157s-.114.019,1.168-1.139c1.378-1.245,2.91-2.526,3.183-2.306.338.273.357.335-.068.869.311-.254.426-.2.546-.084.621.623-1.115,2.771-1.8,3.623.534-.651,1-1.072,1.129-.446.153.717-2.44,3.641-3.267,4.778C974.7,1344.091,971.968,1338.958,971.968,1338.958Z" transform="translate(-971.968 -1333.553)" fill="#eea886"/>
          </g>
          <g id="Grupo_1241715" data-name="Grupo 1241715" transform="translate(0 117.067)">
            <g id="Grupo_1241714" data-name="Grupo 1241714">
              <g id="Grupo_1241713" data-name="Grupo 1241713">
                <g id="Grupo_1241712" data-name="Grupo 1241712">
                  <path id="Trazado_1297777" data-name="Trazado 1297777" d="M800.689,1831.419s2.7,1.593,3.916,2.186,5.962.762,6.431,1.207.3,1.862-.489,2.007-6.549.666-8.472.216-5.519.307-6.316.037-.283-4.564.025-5.528S800.689,1831.419,800.689,1831.419Z" transform="translate(-795.335 -1831.082)" fill="#181929"/>
                </g>
              </g>
            </g>
          </g>
          <g id="Grupo_1241719" data-name="Grupo 1241719" transform="translate(0.659 115.65)">
            <g id="Grupo_1241718" data-name="Grupo 1241718">
              <g id="Grupo_1241717" data-name="Grupo 1241717">
                <g id="Grupo_1241716" data-name="Grupo 1241716">
                  <path id="Trazado_1297778" data-name="Trazado 1297778" d="M803.281,1824.58l-.224,1.755s-3.6.674-4.695.119l.27-1.824Z" transform="translate(-798.362 -1824.58)" fill="#22243b"/>
                </g>
              </g>
            </g>
          </g>
          <g id="Grupo_1241720" data-name="Grupo 1241720" transform="translate(0 48.004)">
            <path id="Trazado_1297779" data-name="Trazado 1297779" d="M815.37,1521.767c-.038,1.216-.26,3.854-.518,6.623-.057.615-.118,1.238-.177,1.852-.359,3.727-.722,7.175-.722,7.175-.455,2.967-1.394,8.119-2.443,12.014h0c-.3,1.124-.614,2.143-.927,2.975a7.355,7.355,0,0,1-.905,1.821c-2.233,2.852-7.353,28.139-7.353,28.139l-6.989-.053s1.537-17.123,3.082-21.463c1.723-4.847,4.718-11.38,3.974-16.055-.465-2.934-1.066-12.272-1.066-12.272s-.584-10.494,2.16-18.18C804.172,1512.423,815.37,1521.767,815.37,1521.767Z" transform="translate(-795.336 -1514.083)" fill="#292c47"/>
          </g>
          <g id="Grupo_1241724" data-name="Grupo 1241724" transform="translate(19.592 117.684)">
            <g id="Grupo_1241723" data-name="Grupo 1241723">
              <g id="Grupo_1241722" data-name="Grupo 1241722">
                <g id="Grupo_1241721" data-name="Grupo 1241721">
                  <path id="Trazado_1297780" data-name="Trazado 1297780" d="M890.666,1834.293s2.676,1.625,3.889,2.232,5.952.833,6.415,1.284.275,1.866-.513,2-6.556.587-8.474.114-5.522.241-6.316-.039-.228-4.567.091-5.527S890.666,1834.293,890.666,1834.293Z" transform="translate(-885.264 -1833.915)" fill="#181929"/>
                </g>
              </g>
            </g>
          </g>
          <g id="Grupo_1241728" data-name="Grupo 1241728" transform="translate(20.298 116.303)">
            <g id="Grupo_1241727" data-name="Grupo 1241727">
              <g id="Grupo_1241726" data-name="Grupo 1241726">
                <g id="Grupo_1241725" data-name="Grupo 1241725">
                  <path id="Trazado_1297781" data-name="Trazado 1297781" d="M893.444,1827.58l-.245,1.752s-3.611.631-4.7.063l.292-1.821Z" transform="translate(-888.503 -1827.574)" fill="#22243b"/>
                </g>
              </g>
            </g>
          </g>
          <g id="Grupo_1241729" data-name="Grupo 1241729" transform="translate(9.827 48.863)">
            <path id="Trazado_1297782" data-name="Trazado 1297782" d="M847.5,1560.4c-.182-5.593-.676-9.308-2.115-12.539-1.209-2.713-2.243-11.234-2.243-11.234s-3.276-9.985-2.612-18.12c.166-2.031,12.826,3.076,12.826,3.076a74.932,74.932,0,0,1,1.424,7.677,169.6,169.6,0,0,1,1.073,26.086c-.979,3.488,1.494,30.929,1.494,30.929h-7.126a132.537,132.537,0,0,1-2.065-15.833S847.43,1561.364,847.5,1560.4Z" transform="translate(-840.442 -1518.025)" fill="#292c47"/>
          </g>
          <g id="Grupo_1241731" data-name="Grupo 1241731" transform="translate(5.947 17.498)">
            <g id="Grupo_1241730" data-name="Grupo 1241730">
              <path id="Trazado_1297783" data-name="Trazado 1297783" d="M833.412,1375.426s3.32,5.443,4.291,8.48.189,11.868.36,13.643c.531,5.506,1.307,11.569,1.307,11.569l-11.13,7.109a110.016,110.016,0,0,1-3.74-10.476,48.859,48.859,0,0,1-1.866-14.536c.051-10.964,5.977-17.154,5.977-17.154Z" transform="translate(-822.633 -1374.06)" fill="#cfbeb6"/>
            </g>
          </g>
          <g id="Grupo_1241733" data-name="Grupo 1241733" transform="translate(9.719 2.135)">
            <g id="Grupo_1241732" data-name="Grupo 1241732">
              <path id="Trazado_1297784" data-name="Trazado 1297784" d="M851.042,1305.671s2.282,2.443,1.638,3.085c-.533.531,1.566,2.964,1.864,3.374s-.932,1.087-1.134,1.454-.083,4.2-1.139,4.592-6.39-.023-8.085-1.057-4.427-7-4.231-9.868S847.029,1301.414,851.042,1305.671Z" transform="translate(-839.944 -1303.54)" fill="#eea886"/>
            </g>
          </g>
          <g id="Grupo_1241735" data-name="Grupo 1241735" transform="translate(12.568 6.28)">
            <g id="Grupo_1241734" data-name="Grupo 1241734">
              <path id="Trazado_1297785" data-name="Trazado 1297785" d="M859.114,1332.23s-.039.325-.091.83c-.02.212-.046.452-.068.716-.013.156-.026.322-.042.491,0,.046-.01.091-.013.137-.007.078-.013.156-.02.238-.026.368-.052.749-.072,1.126a11.861,11.861,0,0,0,.049,2.422c.28,1.419-5.833-4.57-5.833-4.57a69.985,69.985,0,0,0,.267-9.866C853.037,1318.533,859.114,1332.23,859.114,1332.23Z" transform="translate(-853.024 -1322.567)" fill="#eea886"/>
            </g>
          </g>
          <g id="Grupo_1241737" data-name="Grupo 1241737" transform="translate(8.746)">
            <g id="Grupo_1241736" data-name="Grupo 1241736">
              <path id="Trazado_1297786" data-name="Trazado 1297786" d="M848.018,1298.546s1.079-2.547-2.25-4.315c-3.92-2.081-8.075,3.145-8.627,3.453s-3.058,3.127-.605,6.866c3.094,4.717,2.931,4.559,2.931,4.559s.31-3.48.29-4.151c-.037-1.227,3.182-1.373,3.182-1.373s-1.322-1.76.148-2.549S846.276,1298.371,848.018,1298.546Z" transform="translate(-835.478 -1293.742)" fill="#3a3f47"/>
            </g>
          </g>
          <g id="Grupo_1241739" data-name="Grupo 1241739" transform="translate(12.07 8.374)">
            <g id="Grupo_1241738" data-name="Grupo 1241738">
              <path id="Trazado_1297787" data-name="Trazado 1297787" d="M853.184,1333.2c-.234-.329-1.094-1.783-2.2-.506s1.86,3.663,2.1,3.64S855.156,1335.971,853.184,1333.2Z" transform="translate(-850.738 -1332.178)" fill="#eea886"/>
            </g>
          </g>
          <g id="Grupo_1241740" data-name="Grupo 1241740" transform="translate(6.354 51.91)">
            <path id="Trazado_1297788" data-name="Trazado 1297788" d="M841.436,1535.005s-.554-2.6-.661-2.993L824.5,1534.72l.167,2.1S836.393,1536.12,841.436,1535.005Z" transform="translate(-824.499 -1532.012)" fill="#23263d"/>
          </g>
          <g id="Grupo_1241741" data-name="Grupo 1241741" transform="translate(3.475 43.431)">
            <path id="Trazado_1297789" data-name="Trazado 1297789" d="M812.716,1493.09a49.219,49.219,0,0,1-1.415,23.4c-.478,1.538,10.84-.239,10.84-.239Z" transform="translate(-811.285 -1493.09)" fill="#384c9e"/>
          </g>
          <g id="Grupo_1241743" data-name="Grupo 1241743" transform="translate(4.232 17.501)">
            <g id="Grupo_1241742" data-name="Grupo 1241742">
              <path id="Trazado_1297790" data-name="Trazado 1297790" d="M829.809,1422.368s-8.039,1.765-10.3.967a161.506,161.506,0,0,1-4.432-24.084c-.089-.937-.164-1.875-.225-2.808v0c-.64-9.869,1.872-19.882,7.6-22.372.161.109,8.223,7.217,8.069,13.722q-.017.661-.02,1.324c-.005.8,0,1.6.018,2.4h0c.051,2.475.2,4.943.423,7.34.022.25.046.5.071.747q.059.6.123,1.2.086.795.179,1.575A53.689,53.689,0,0,1,829.809,1422.368Z" transform="translate(-814.758 -1374.07)" fill="#384c9e"/>
            </g>
          </g>
          <g id="Grupo_1241744" data-name="Grupo 1241744" transform="translate(18.952 23.501)">
            <path id="Trazado_1297791" data-name="Trazado 1297791" d="M882.326,1401.728a89.412,89.412,0,0,1,2.092,13.539c.483,6.312,1.128,10.775,1.128,10.775l.966,3.125.4-3.014s-.354-8.145-.827-11.459c-.476-3.341-.685-7.582-3.355-13.084Z" transform="translate(-882.326 -1401.61)" fill="#d44040"/>
          </g>
          <g id="Grupo_1241745" data-name="Grupo 1241745" transform="translate(18.532 21.718)">
            <path id="Trazado_1297792" data-name="Trazado 1297792" d="M880.647,1395.333a.894.894,0,0,0,.441.213c.258.039.628-.374-.693-2.118Z" transform="translate(-880.395 -1393.429)" fill="#d44040"/>
          </g>
          <g id="Grupo_1241747" data-name="Grupo 1241747" transform="translate(11.926 16.599)">
            <g id="Grupo_1241746" data-name="Grupo 1241746">
              <path id="Trazado_1297793" data-name="Trazado 1297793" d="M850.788,1369.93s3.743,3.525,5.971,4.3l.425,3.377-7.109-6.779Z" transform="translate(-850.074 -1369.93)" fill="#eddad3"/>
            </g>
          </g>
          <g id="Grupo_1241748" data-name="Grupo 1241748" transform="translate(8.902 16.681)">
            <path id="Trazado_1297794" data-name="Trazado 1297794" d="M842.447,1383.873c-1.475-.524-7.608-3.5-5.977-6.976s5.835-1.626,9-.213c3.312,1.479,11.128,6.024,11.747,5.6a37.541,37.541,0,0,0,3.811-5.155c.489-.862,3.44-6.374,3.718-6.789s4.559,3.194,4.559,3.194-7.7,13.671-9.769,15.848S842.447,1383.873,842.447,1383.873Z" transform="translate(-836.197 -1370.308)" fill="#384c9e"/>
          </g>
          <g id="Grupo_1241749" data-name="Grupo 1241749" transform="translate(12.808 71.785)">
            <path id="Trazado_1297795" data-name="Trazado 1297795" d="M857.49,1634.8h0c-.3,1.124-.614,2.143-.927,2.975h0l-2.437-14.54C854.742,1624.615,857.49,1634.8,857.49,1634.8Z" transform="translate(-854.125 -1623.235)" fill="#181929"/>
          </g>
          <g id="Grupo_1241750" data-name="Grupo 1241750" transform="translate(12.939 29.186)">
            <path id="Trazado_1297796" data-name="Trazado 1297796" d="M861.781,1433.468l-7.053-5.761c1.868,1,6.46,3.1,7.035,3.36Q861.755,1432.267,861.781,1433.468Z" transform="translate(-854.727 -1427.707)" fill="#27356e"/>
          </g>
          <g id="Grupo_1241751" data-name="Grupo 1241751" transform="translate(14.202 15.848)">
            <path id="Trazado_1297797" data-name="Trazado 1297797" d="M864.9,1367.451c-.02.212-.054.413-.076.677-.013.156-.026.322-.042.491a7.294,7.294,0,0,1-4.254-2.132C861.475,1367.242,864.9,1367.451,864.9,1367.451Z" transform="translate(-860.524 -1366.487)" fill="#a77860"/>
          </g>
        </g>
        <g id="Grupo_1241845" data-name="Grupo 1241845" transform="translate(54.752 136.728)">
          <g id="Grupo_1241755" data-name="Grupo 1241755" transform="translate(23.792 90.063)">
            <g id="Grupo_1241754" data-name="Grupo 1241754">
              <g id="Grupo_1241753" data-name="Grupo 1241753">
                <path id="Trazado_1297798" data-name="Trazado 1297798" d="M579.2,1437.523s-.55,2.159-.624,2.484-3.46-.57-3.46-.57l0-2.64S578.8,1437.168,579.2,1437.523Z" transform="translate(-575.115 -1436.797)" fill="#666fb3"/>
              </g>
            </g>
          </g>
          <g id="Grupo_1241758" data-name="Grupo 1241758" transform="translate(22.486 92.468)">
            <g id="Grupo_1241757" data-name="Grupo 1241757">
              <g id="Grupo_1241756" data-name="Grupo 1241756">
                <path id="Trazado_1297799" data-name="Trazado 1297799" d="M573.215,1449.725a9.377,9.377,0,0,0,1.94,2.129c.992.69,4.823,1.582,5.382,2.246.4.479.965,2.292-5.181,1.464-4.366-.588-6.52-.44-6.913-1.2s1.245-5.169,1.245-5.169A8.4,8.4,0,0,0,573.215,1449.725Z" transform="translate(-568.383 -1449.194)" fill="#2d314f"/>
              </g>
            </g>
          </g>
          <g id="Grupo_1241761" data-name="Grupo 1241761" transform="translate(25.007 27.098)">
            <g id="Grupo_1241760" data-name="Grupo 1241760" transform="translate(0 0)">
              <g id="Grupo_1241759" data-name="Grupo 1241759">
                <rect id="Rectángulo_423273" data-name="Rectángulo 423273" width="147.757" height="1.553" transform="translate(0 147.062) rotate(-84.445)" fill="#b8b8b8"/>
              </g>
            </g>
          </g>
          <g id="Grupo_1241764" data-name="Grupo 1241764" transform="translate(0 24.671)">
            <g id="Grupo_1241763" data-name="Grupo 1241763" transform="translate(0 0)">
              <g id="Grupo_1241762" data-name="Grupo 1241762" transform="translate(0)">
                <rect id="Rectángulo_423274" data-name="Rectángulo 423274" width="147.757" height="1.553" transform="translate(0 147.062) rotate(-84.445)" fill="#b8b8b8"/>
              </g>
            </g>
          </g>
          <g id="Grupo_1241792" data-name="Grupo 1241792" transform="translate(5.683 26.862)">
            <g id="Grupo_1241767" data-name="Grupo 1241767" transform="translate(9.035 0)">
              <g id="Grupo_1241766" data-name="Grupo 1241766" transform="translate(0)">
                <g id="Grupo_1241765" data-name="Grupo 1241765" transform="translate(0)">
                  <rect id="Rectángulo_423275" data-name="Rectángulo 423275" width="1.553" height="25.125" transform="translate(0 1.546) rotate(-84.456)" fill="#b8b8b8"/>
                </g>
              </g>
            </g>
            <g id="Grupo_1241770" data-name="Grupo 1241770" transform="translate(7.905 11.625)">
              <g id="Grupo_1241769" data-name="Grupo 1241769" transform="translate(0 0)">
                <g id="Grupo_1241768" data-name="Grupo 1241768" transform="translate(0)">
                  <rect id="Rectángulo_423276" data-name="Rectángulo 423276" width="1.553" height="25.125" transform="translate(0 1.546) rotate(-84.456)" fill="#b8b8b8"/>
                </g>
              </g>
            </g>
            <g id="Grupo_1241773" data-name="Grupo 1241773" transform="translate(6.779 23.26)">
              <g id="Grupo_1241772" data-name="Grupo 1241772" transform="translate(0 0)">
                <g id="Grupo_1241771" data-name="Grupo 1241771" transform="translate(0)">
                  <rect id="Rectángulo_423277" data-name="Rectángulo 423277" width="1.553" height="25.125" transform="translate(0 1.546) rotate(-84.456)" fill="#b8b8b8"/>
                </g>
              </g>
            </g>
            <g id="Grupo_1241776" data-name="Grupo 1241776" transform="translate(5.65 34.889)">
              <g id="Grupo_1241775" data-name="Grupo 1241775" transform="translate(0 0)">
                <g id="Grupo_1241774" data-name="Grupo 1241774" transform="translate(0)">
                  <rect id="Rectángulo_423278" data-name="Rectángulo 423278" width="1.553" height="25.125" transform="translate(0 1.546) rotate(-84.456)" fill="#b8b8b8"/>
                </g>
              </g>
            </g>
            <g id="Grupo_1241779" data-name="Grupo 1241779" transform="translate(4.52 46.514)">
              <g id="Grupo_1241778" data-name="Grupo 1241778" transform="translate(0 0)">
                <g id="Grupo_1241777" data-name="Grupo 1241777" transform="translate(0)">
                  <rect id="Rectángulo_423279" data-name="Rectángulo 423279" width="1.553" height="25.125" transform="translate(0 1.546) rotate(-84.456)" fill="#b8b8b8"/>
                </g>
              </g>
            </g>
            <g id="Grupo_1241782" data-name="Grupo 1241782" transform="translate(3.392 58.143)">
              <g id="Grupo_1241781" data-name="Grupo 1241781" transform="translate(0 0)">
                <g id="Grupo_1241780" data-name="Grupo 1241780" transform="translate(0)">
                  <rect id="Rectángulo_423280" data-name="Rectángulo 423280" width="1.553" height="25.125" transform="translate(0 1.546) rotate(-84.456)" fill="#b8b8b8"/>
                </g>
              </g>
            </g>
            <g id="Grupo_1241785" data-name="Grupo 1241785" transform="translate(2.262 69.775)">
              <g id="Grupo_1241784" data-name="Grupo 1241784" transform="translate(0 0)">
                <g id="Grupo_1241783" data-name="Grupo 1241783" transform="translate(0)">
                  <rect id="Rectángulo_423281" data-name="Rectángulo 423281" width="1.553" height="25.125" transform="translate(0 1.546) rotate(-84.456)" fill="#b8b8b8"/>
                </g>
              </g>
            </g>
            <g id="Grupo_1241788" data-name="Grupo 1241788" transform="translate(1.132 81.4)">
              <g id="Grupo_1241787" data-name="Grupo 1241787" transform="translate(0 0)">
                <g id="Grupo_1241786" data-name="Grupo 1241786" transform="translate(0)">
                  <rect id="Rectángulo_423282" data-name="Rectángulo 423282" width="1.553" height="25.125" transform="translate(0 1.546) rotate(-84.456)" fill="#b8b8b8"/>
                </g>
              </g>
            </g>
            <g id="Grupo_1241791" data-name="Grupo 1241791" transform="translate(0 93.013)">
              <g id="Grupo_1241790" data-name="Grupo 1241790" transform="translate(0 0)">
                <g id="Grupo_1241789" data-name="Grupo 1241789">
                  <rect id="Rectángulo_423283" data-name="Rectángulo 423283" width="1.553" height="25.125" transform="translate(0 1.546) rotate(-84.456)" fill="#b8b8b8"/>
                </g>
              </g>
            </g>
          </g>
          <g id="Grupo_1241805" data-name="Grupo 1241805" transform="translate(1.173 131.513)">
            <g id="Grupo_1241795" data-name="Grupo 1241795" transform="translate(3.38 0)">
              <g id="Grupo_1241794" data-name="Grupo 1241794" transform="translate(0)">
                <g id="Grupo_1241793" data-name="Grupo 1241793" transform="translate(0)">
                  <rect id="Rectángulo_423284" data-name="Rectángulo 423284" width="1.553" height="25.125" transform="matrix(0.097, -0.995, 0.995, 0.097, 0, 1.546)" fill="#b8b8b8"/>
                </g>
              </g>
            </g>
            <g id="Grupo_1241798" data-name="Grupo 1241798" transform="translate(2.256 11.635)">
              <g id="Grupo_1241797" data-name="Grupo 1241797" transform="translate(0 0)">
                <g id="Grupo_1241796" data-name="Grupo 1241796">
                  <rect id="Rectángulo_423285" data-name="Rectángulo 423285" width="1.553" height="25.125" transform="translate(0 1.546) rotate(-84.456)" fill="#b8b8b8"/>
                </g>
              </g>
            </g>
            <g id="Grupo_1241801" data-name="Grupo 1241801" transform="translate(1.129 23.268)">
              <g id="Grupo_1241800" data-name="Grupo 1241800" transform="translate(0 0)">
                <g id="Grupo_1241799" data-name="Grupo 1241799" transform="translate(0)">
                  <rect id="Rectángulo_423286" data-name="Rectángulo 423286" width="1.553" height="25.125" transform="translate(0 1.546) rotate(-84.456)" fill="#b8b8b8"/>
                </g>
              </g>
            </g>
            <g id="Grupo_1241804" data-name="Grupo 1241804" transform="translate(0 34.897)">
              <g id="Grupo_1241803" data-name="Grupo 1241803" transform="translate(0 0)">
                <g id="Grupo_1241802" data-name="Grupo 1241802" transform="translate(0)">
                  <rect id="Rectángulo_423287" data-name="Rectángulo 423287" width="1.553" height="25.125" transform="translate(0 1.546) rotate(-84.456)" fill="#b8b8b8"/>
                </g>
              </g>
            </g>
          </g>
          <g id="Grupo_1241808" data-name="Grupo 1241808" transform="translate(54.051 2.655)">
            <g id="Grupo_1241807" data-name="Grupo 1241807">
              <g id="Grupo_1241806" data-name="Grupo 1241806">
                <path id="Trazado_1297800" data-name="Trazado 1297800" d="M738.023,990.234a2.313,2.313,0,0,1-.544.5s-.423.16-.716.291a2.173,2.173,0,0,0-.222.111,4.245,4.245,0,0,1-1.2.634c-.578.166-3.193.762-3.193.762l-.608-1.552-.436-1.253a26.57,26.57,0,0,1,2.941-3.353,1.415,1.415,0,0,1,.152-.054,5.41,5.41,0,0,1,1.109-.1c.092-.016,1.014-.12,1.213.072a.906.906,0,0,1,.313.824,2.167,2.167,0,0,1,.557,1.053,1.347,1.347,0,0,1,.363,1.132S738.2,989.854,738.023,990.234Z" transform="translate(-731.107 -986.178)" fill="#eea886"/>
              </g>
            </g>
          </g>
          <g id="Grupo_1241811" data-name="Grupo 1241811" transform="translate(30.045 5.832)">
            <g id="Grupo_1241810" data-name="Grupo 1241810">
              <g id="Grupo_1241809" data-name="Grupo 1241809">
                <path id="Trazado_1297801" data-name="Trazado 1297801" d="M610.245,1023.777a35.875,35.875,0,0,1,4.09-2.268c5.036-2.52,11.253-7.087,12.435-7.746,1.817-1.014,7.56-8.03,7.56-8.03-.3-1.057-3.019-3.178-3.019-3.178s-8.705,8.245-10.607,9.26c-1.636.872-9.717,1.754-11.943,1.983l-.569.057C605.868,1017.026,608.947,1024.613,610.245,1023.777Z" transform="translate(-607.349 -1002.555)" fill="#3e426b"/>
              </g>
            </g>
          </g>
          <g id="Grupo_1241814" data-name="Grupo 1241814" transform="translate(13.653 43.615)">
            <g id="Grupo_1241813" data-name="Grupo 1241813">
              <g id="Grupo_1241812" data-name="Grupo 1241812">
                <path id="Trazado_1297802" data-name="Trazado 1297802" d="M541.242,1199.061s2.463,9.147,3.113,12.417c.566,2.849,1.7,10.437,1.866,12.241s-7.271,19.266-8.045,22.42l-6.772-1.087s7.145-18.174,5.281-22.213c-2.772-6.006-3.133-5.825-5.317-10.773s-7.183-5.065-8.526-14.246C522.842,1197.819,539.424,1196.149,541.242,1199.061Z" transform="translate(-522.842 -1197.343)" fill="#2d314f"/>
              </g>
            </g>
          </g>
          <g id="Grupo_1241817" data-name="Grupo 1241817" transform="translate(17.195 0.478)">
            <g id="Grupo_1241816" data-name="Grupo 1241816">
              <g id="Grupo_1241815" data-name="Grupo 1241815">
                <path id="Trazado_1297803" data-name="Trazado 1297803" d="M543.919,975.367s4.5-1.68,6.57,1.744,1.874,10.276-.393,11.119-5.672.4-6.832-1.74a17.16,17.16,0,0,1-2.158-7.308A4.509,4.509,0,0,1,543.919,975.367Z" transform="translate(-541.104 -974.955)" fill="#eea886"/>
              </g>
            </g>
          </g>
          <g id="Grupo_1241820" data-name="Grupo 1241820" transform="translate(18.42 9.399)">
            <g id="Grupo_1241819" data-name="Grupo 1241819">
              <g id="Grupo_1241818" data-name="Grupo 1241818">
                <path id="Trazado_1297804" data-name="Trazado 1297804" d="M554.43,1025.09a3.773,3.773,0,0,0,.119,1.759c.3.581-5.656.6-5.656.6a39.244,39.244,0,0,0-1.4-5.827C546.575,1018.949,554.43,1025.09,554.43,1025.09Z" transform="translate(-547.418 -1020.946)" fill="#eea886"/>
              </g>
            </g>
          </g>
          <g id="Grupo_1241823" data-name="Grupo 1241823" transform="translate(16.813)">
            <g id="Grupo_1241822" data-name="Grupo 1241822">
              <g id="Grupo_1241821" data-name="Grupo 1241821">
                <path id="Trazado_1297805" data-name="Trazado 1297805" d="M540.816,982.562s.411.678,2.089.415,3.726-2.5,4.426-2.741.707-.657.707-.657l.439.641.744.047s-.679-2,.345-2.812-1.063-6.464-6.445-4.584c0,0-4.134,1.139-3.983,3.49S539.891,981.391,540.816,982.562Z" transform="translate(-539.134 -972.491)" fill="#d88a51"/>
              </g>
            </g>
          </g>
          <g id="Grupo_1241826" data-name="Grupo 1241826" transform="translate(24.037 5.375)">
            <g id="Grupo_1241825" data-name="Grupo 1241825">
              <g id="Grupo_1241824" data-name="Grupo 1241824">
                <path id="Trazado_1297806" data-name="Trazado 1297806" d="M577.945,1001.059c-.094-.394-1.1-1.521-1.481-.314s.58,2.829,1.118,2.69S578.184,1002.06,577.945,1001.059Z" transform="translate(-576.376 -1000.203)" fill="#eea886"/>
              </g>
            </g>
          </g>
          <g id="Grupo_1241828" data-name="Grupo 1241828" transform="translate(8.421 17.273)">
            <g id="Grupo_1241827" data-name="Grupo 1241827">
              <path id="Trazado_1297807" data-name="Trazado 1297807" d="M495.906,1075a2.652,2.652,0,0,0,1.182,1.543,1.925,1.925,0,0,0,1.026.337l.267.009h0l4.673.159s3.474-11.228-3.042-15.51C499.81,1061.562,495.453,1069.59,495.906,1075Z" transform="translate(-495.873 -1061.54)" fill="#3e426b"/>
            </g>
          </g>
          <g id="Grupo_1241831" data-name="Grupo 1241831" transform="translate(22.486 92.467)">
            <g id="Grupo_1241830" data-name="Grupo 1241830">
              <g id="Grupo_1241829" data-name="Grupo 1241829">
                <path id="Trazado_1297808" data-name="Trazado 1297808" d="M568.444,1454.359c.393.761,2.547.613,6.913,1.2a19.951,19.951,0,0,0,2.871.212l.255-2.627a19.79,19.79,0,0,1-3.327-1.3,9.378,9.378,0,0,1-1.94-2.129,8.385,8.385,0,0,1-3.527-.531S568.051,1453.6,568.444,1454.359Z" transform="translate(-568.383 -1449.19)" fill="#2d314f"/>
              </g>
            </g>
          </g>
          <g id="Grupo_1241833" data-name="Grupo 1241833" transform="translate(19.314 14.529)">
            <g id="Grupo_1241832" data-name="Grupo 1241832">
              <path id="Trazado_1297809" data-name="Trazado 1297809" d="M558.152,1047.824s-3.667-.853-5.734-.156l-.312.289s-.628,1.2,1.737,1.308S559.924,1049.541,558.152,1047.824Z" transform="translate(-552.03 -1047.395)" fill="#3e426b"/>
            </g>
          </g>
          <g id="Grupo_1241836" data-name="Grupo 1241836" transform="translate(7.022 100.161)">
            <g id="Grupo_1241835" data-name="Grupo 1241835">
              <g id="Grupo_1241834" data-name="Grupo 1241834">
                <path id="Trazado_1297810" data-name="Trazado 1297810" d="M492.74,1489.581s-.55,2.159-.624,2.484-3.46-.57-3.46-.57l0-2.641S492.344,1489.224,492.74,1489.581Z" transform="translate(-488.656 -1488.855)" fill="#666fb3"/>
              </g>
            </g>
          </g>
          <g id="Grupo_1241839" data-name="Grupo 1241839" transform="translate(5.878 44.092)">
            <g id="Grupo_1241838" data-name="Grupo 1241838">
              <g id="Grupo_1241837" data-name="Grupo 1241837">
                <path id="Trazado_1297811" data-name="Trazado 1297811" d="M490.535,1199.8a71.328,71.328,0,0,0-1.6,10.189c-.338,4.71-.953,9.877-1.441,14.8-.545,5.492-2.1,14.371-2.18,17.309s-2.554,15.778-2.554,15.778l6.326.727s4.11-22.69,5.08-25.01,5.784-18.855,5.946-20.711S490.535,1199.8,490.535,1199.8Z" transform="translate(-482.76 -1199.8)" fill="#2d314f"/>
              </g>
            </g>
          </g>
          <g id="Grupo_1241842" data-name="Grupo 1241842" transform="translate(5.716 102.564)">
            <g id="Grupo_1241841" data-name="Grupo 1241841">
              <g id="Grupo_1241840" data-name="Grupo 1241840">
                <path id="Trazado_1297812" data-name="Trazado 1297812" d="M486.757,1501.774a9.381,9.381,0,0,0,1.94,2.129c.992.69,4.822,1.582,5.382,2.245.4.479.965,2.292-5.18,1.465-4.366-.588-6.521-.44-6.913-1.2s1.245-5.169,1.245-5.169A8.4,8.4,0,0,0,486.757,1501.774Z" transform="translate(-481.925 -1501.243)" fill="#2d314f"/>
              </g>
            </g>
          </g>
          <g id="Grupo_1241844" data-name="Grupo 1241844" transform="translate(11.336 14.959)">
            <g id="Grupo_1241843" data-name="Grupo 1241843">
              <path id="Trazado_1297813" data-name="Trazado 1297813" d="M532.9,1091.409c.539-.077-1.338-16.137-1.194-17.144.1-.672.081-5.891.042-9.145l.587-3.293a14.968,14.968,0,0,1,1.289-.815c.816-.471,1.839-1.009,2.975-1.577-.132-.778-.224-1.39-.259-1.748a6.577,6.577,0,0,0-3.328-5.07,5.442,5.442,0,0,0-.759-.378c-.418-.178-.829-.35-1.228-.514-2.653-1.092-6.021-2.116-6.021-2.116h-5.413a45.865,45.865,0,0,0-6.576,1.828,4.612,4.612,0,0,0-.887.487l.735,15.431,0,.01c0,.005,0,.012,0,.02.331,2.171.68,4.732.8,6.528.048.733-.791,4.67-1.228,8.283l-1.531,8.647S511.784,1094.428,532.9,1091.409Z" transform="translate(-510.899 -1049.61)" fill="#3e426b"/>
            </g>
          </g>
        </g>
        <g id="Grupo_1241848" data-name="Grupo 1241848" transform="translate(210.534 241.618)">
          <g id="Grupo_1241846" data-name="Grupo 1241846" transform="translate(6.899)">
            <path id="Trazado_1297814" data-name="Trazado 1297814" d="M1367.73,1496.768a1,1,0,0,1-1-1v-13.8a1,1,0,0,1,2,0v13.8A1,1,0,0,1,1367.73,1496.768Z" transform="translate(-1366.732 -1480.971)" fill="#fff"/>
          </g>
          <g id="Grupo_1241847" data-name="Grupo 1241847" transform="translate(0 6.899)">
            <path id="Trazado_1297815" data-name="Trazado 1297815" d="M1342.758,1521.74h-13.8a1,1,0,0,1,0-2h13.8a1,1,0,0,1,0,2Z" transform="translate(-1327.959 -1519.744)" fill="#fff"/>
          </g>
        </g>
        <g id="Grupo_1241873" data-name="Grupo 1241873" transform="translate(206.735 218.915)">
          <path id="Trazado_1297816" data-name="Trazado 1297816" d="M1015.9,1813.14A25.621,25.621,0,0,1,1017,1817.4c-.061.76-4.409.791-4.409.791l-1.429-2.038Z" transform="translate(-943.043 -1732.849)" fill="#163342"/>
          <g id="Grupo_1241849" data-name="Grupo 1241849" transform="translate(63.478 83.765)">
            <path id="Trazado_1297817" data-name="Trazado 1297817" d="M1010.611,1830.36a5.137,5.137,0,0,1,1.087,1.939c.059.735,1.322,3.967.852,4.76s-4.173.911-6.024.617-5.877.324-6.288-.47-.646-1.95.558-2.4,3.967-1.625,4.466-2.86S1010.611,1830.36,1010.611,1830.36Z" transform="translate(-999.906 -1830.36)" fill="#21243b"/>
          </g>
          <g id="Grupo_1241851" data-name="Grupo 1241851" transform="translate(13.412 0.298)">
            <g id="Grupo_1241850" data-name="Grupo 1241850">
              <path id="Trazado_1297818" data-name="Trazado 1297818" d="M1259.895,1416.56s-4.887.873-4.93,5.011,3.743,10.132,6.2,9.689,5.259-2.628,5.165-5.146a17.738,17.738,0,0,0-1.927-7.64A4.668,4.668,0,0,0,1259.895,1416.56Z" transform="translate(-1254.965 -1416.543)" fill="#eea886"/>
            </g>
          </g>
          <g id="Grupo_1241853" data-name="Grupo 1241853" transform="translate(12.709 0)">
            <g id="Grupo_1241852" data-name="Grupo 1241852">
              <path id="Trazado_1297819" data-name="Trazado 1297819" d="M1267.573,1423.016s-.009.845-1.69,1.513-4.769-.268-5.544-.113-1-.218-1-.218l-.055.825-.657.447s-.461-2.2-1.841-2.39-2.531-6.5,3.422-7.7c0,0,4.407-1.2,5.544,1.039S1267.787,1421.443,1267.573,1423.016Z" transform="translate(-1255.673 -1415.064)" fill="#3a3f47"/>
            </g>
          </g>
          <g id="Grupo_1241854" data-name="Grupo 1241854" transform="translate(5.257 30.794)">
            <path id="Trazado_1297820" data-name="Trazado 1297820" d="M1333.279,1569.683a1.48,1.48,0,0,1-.758-.346c-.481-.491-.526-1.527-1.494-1.6s-1.862,2.867-1.708,3.471,1.442,1.088,3.467.99S1333.279,1569.683,1333.279,1569.683Z" transform="translate(-1329.301 -1567.738)" fill="#eea886"/>
          </g>
          <g id="Grupo_1241855" data-name="Grupo 1241855" transform="translate(0 28.896)">
            <path id="Trazado_1297821" data-name="Trazado 1297821" d="M1348.757,1560.3a30.306,30.306,0,0,0-2.844-1.257c-1.349-.51-3.017-.873-3.2-.641-.4.515,1.171.879,2.478,1.471a10.412,10.412,0,0,1,1,.458s.089-.029-1.327-.379c-1.522-.376-3.113-.61-3.315-.325-.1.139-.277.622.362.6-.332-.065-.28-.115-.313.017-.171.685,2,1.576,2.86,1.93-.663-.267-1.175-.4-1,.107.2.576,3.32,1.7,4.4,2.208C1349.043,1565.04,1348.757,1560.3,1348.757,1560.3Z" transform="translate(-1341.448 -1558.327)" fill="#eea886"/>
          </g>
          <g id="Grupo_1241856" data-name="Grupo 1241856" transform="translate(30.452 12.404)">
            <path id="Trazado_1297822" data-name="Trazado 1297822" d="M1136.729,1476.662a37.08,37.08,0,0,1,5.209,0c2.155.221,5.132,1.984,6.935,2.493s6.151,3.433,6.034,3.832a32.491,32.491,0,0,1-4.917,9.019C1147.322,1495.313,1136.729,1476.662,1136.729,1476.662Z" transform="translate(-1136.729 -1476.564)" fill="#4ba2f4"/>
          </g>
          <g id="Grupo_1241857" data-name="Grupo 1241857" transform="translate(37.039 14.419)">
            <path id="Trazado_1297823" data-name="Trazado 1297823" d="M1164.578,1486.55s3.292,2.438,4.438,4.671a18.064,18.064,0,0,1,1.537,4.894Z" transform="translate(-1164.578 -1486.55)" fill="#3c82c4"/>
          </g>
          <g id="Grupo_1241858" data-name="Grupo 1241858" transform="translate(25.334 86.733)">
            <path id="Trazado_1297824" data-name="Trazado 1297824" d="M1185.773,1845.342a8,8,0,0,1-1.484,1.264c-.544.264-7.038,1.381-7.478,1.91s-.441,2.615,1.234,2.615,7.258-.029,8.2,0,4.912.823,5.321,0,.371-4.663-.355-5.583S1185.773,1845.342,1185.773,1845.342Z" transform="translate(-1176.562 -1845.077)" fill="#21243b"/>
          </g>
          <g id="Grupo_1241859" data-name="Grupo 1241859" transform="translate(34.546 85.83)">
            <path id="Trazado_1297825" data-name="Trazado 1297825" d="M1179.809,1840.6l-.2,1.167s1.734.793,5.436.206v-1.205Z" transform="translate(-1179.609 -1840.6)" fill="#2a617d"/>
          </g>
          <g id="Grupo_1241862" data-name="Grupo 1241862" transform="translate(21.205 10.25)">
            <g id="Grupo_1241861" data-name="Grupo 1241861">
              <g id="Grupo_1241860" data-name="Grupo 1241860">
                <path id="Trazado_1297826" data-name="Trazado 1297826" d="M1239.146,1465.88s2.957,2.511,3.8,2.306-2.9,5.311-2.9,5.311-3.561-3.506-4.364-3.612S1239.146,1465.88,1239.146,1465.88Z" transform="translate(-1235.58 -1465.88)" fill="#eea886"/>
              </g>
            </g>
          </g>
          <g id="Grupo_1241863" data-name="Grupo 1241863" transform="translate(6.981 18.827)">
            <path id="Trazado_1297827" data-name="Trazado 1297827" d="M1268.2,1509.747c1.006.608,1.175.8,1.058,3.683s-1.312,5.2-1.4,5.995-1.687,8.663-2.128,9.1-5.709-.586-6.774-.916c-1.6-.494-8.345-2.781-8.345-2.781l1.485-3.1s8.522,1.9,8.8,1.235.941-6.26,1.177-7.475-.174-3.123,1.276-6C1264.638,1506.911,1268.2,1509.747,1268.2,1509.747Z" transform="translate(-1250.605 -1508.407)" fill="#4ba2f4"/>
          </g>
          <g id="Grupo_1241864" data-name="Grupo 1241864" transform="translate(23.428 35.25)">
            <path id="Trazado_1297828" data-name="Trazado 1297828" d="M1132.823,1596.412s-1.806,1.922-2.312,2.547a100.682,100.682,0,0,0-8.757,13.5c-.588,1.371,2.911,11.069,4.349,14.457.754,1.776,5.74,14.017,5.583,14.292s5.275.455,7.7-.8c0,0-3.492-10.348-4.229-12.377-1.111-3.064-4.964-11.55-5.081-12.373s6.229-7.608,8.344-8.9a80.487,80.487,0,0,0,7.875-6.465c.587-.588,3.918-2.155,3.6-5.133a10.409,10.409,0,0,0-2.527-5.328Z" transform="translate(-1121.688 -1589.831)" fill="#2d314f"/>
          </g>
          <g id="Grupo_1241865" data-name="Grupo 1241865" transform="translate(41.131 34.753)">
            <path id="Trazado_1297829" data-name="Trazado 1297829" d="M1007.765,1601.814s.33.87.795,2.089c1,2.618,2.607,6.842,2.875,7.509.392.98,2.351,5.212,3.291,6.035s16.416,19.394,16.455,19.551,7.406-1.009,7.759-2.145c0,0-9.992-12.744-11.285-14.349s-4-4-4.9-7.8-7.364-18.414-7.384-18.963c0,0-1.04-4.505-2.548-5.877s-6.994.235-7.855,3.1S1007.765,1601.814,1007.765,1601.814Z" transform="translate(-1004.838 -1587.368)" fill="#2d314f"/>
          </g>
          <g id="Grupo_1241866" data-name="Grupo 1241866" transform="translate(22.613 12.038)">
            <path id="Trazado_1297830" data-name="Trazado 1297830" d="M1241.085,1475.24l-1.249-.493a9.382,9.382,0,0,0-4.976,3.252l.156.755S1239.826,1477.711,1241.085,1475.24Z" transform="translate(-1234.86 -1474.747)" fill="#d4d8e8"/>
          </g>
          <g id="Grupo_1241867" data-name="Grupo 1241867" transform="translate(44.058 45.495)">
            <path id="Trazado_1297831" data-name="Trazado 1297831" d="M1138.321,1644.326s.33.87.794,2.088a51.905,51.905,0,0,0,3.457-5.793c-.156.112-.66.584-.776.689S1138.321,1644.326,1138.321,1644.326Z" transform="translate(-1138.321 -1640.621)" fill="#1b2738"/>
          </g>
          <g id="Grupo_1241869" data-name="Grupo 1241869" transform="translate(17.12 7.796)">
            <g id="Grupo_1241868" data-name="Grupo 1241868">
              <path id="Trazado_1297832" data-name="Trazado 1297832" d="M1284.208,1454.9c-.111-.359.157-1.731,1.033-.95s.873,2.531.378,2.674S1284.489,1455.813,1284.208,1454.9Z" transform="translate(-1284.185 -1453.717)" fill="#eea886"/>
            </g>
          </g>
          <g id="Grupo_1241871" data-name="Grupo 1241871" transform="translate(20.417 0.866)">
            <g id="Grupo_1241870" data-name="Grupo 1241870" transform="translate(0)">
              <path id="Trazado_1297833" data-name="Trazado 1297833" d="M1255.47,1419.769s4.24-3.015,4.264,7.265Z" transform="translate(-1255.47 -1419.357)" fill="#3a3f47"/>
            </g>
          </g>
          <g id="Grupo_1241872" data-name="Grupo 1241872" transform="translate(19.268 12.497)">
            <path id="Trazado_1297834" data-name="Trazado 1297834" d="M1139.071,1495.455a4.964,4.964,0,0,0,.589.719c.089.078.2.168.322.269h0a49.491,49.491,0,0,0,5.122,3.491c1.372.745,3.972,7.018,3.972,7.018s12.269-.828,15.09-7.175a56.154,56.154,0,0,0-3.82-7.111c-1.822-2.644-5.818-12.165-7.934-13.517s-3.937-2.233-8.11-2.116a8.749,8.749,0,0,0-6.485,3.428s-3.174,3.408-3.486,5.21C1134.063,1487.224,1137.506,1493.275,1139.071,1495.455Z" transform="translate(-1134.317 -1477.025)" fill="#4ba2f4"/>
          </g>
        </g>
      </g>
    </g>
  </g>
</svg>
