<svg xmlns="http://www.w3.org/2000/svg" xmlns:xlink="http://www.w3.org/1999/xlink" width="108" height="108" viewBox="0 0 108 108">
  <defs>
    <filter id="Trazado_904820" x="0" y="0" width="108" height="108" filterUnits="userSpaceOnUse">
      <feOffset dy="3" input="SourceAlpha"/>
      <feGaussianBlur stdDeviation="3" result="blur"/>
      <feFlood flood-opacity="0.161"/>
      <feComposite operator="in" in2="blur"/>
      <feComposite in="SourceGraphic"/>
    </filter>
  </defs>
  <g id="Grupo_1235209" data-name="Grupo 1235209" transform="translate(-197 -2094)">
    <g id="Grupo_1235054" data-name="Grupo 1235054" transform="translate(206 2100)">
      <g id="Grupo_1233818" data-name="Grupo 1233818" transform="translate(0 0)">
        <g id="Grupo_1228307" data-name="Grupo 1228307">
          <g id="Grupo_1228100" data-name="Grupo 1228100">
            <g id="Grupo_1221597" data-name="Grupo 1221597">
              <g id="Grupo_1219744" data-name="Grupo 1219744">
                <g id="Grupo_1202418" data-name="Grupo 1202418">
                  <g id="Grupo_1177315" data-name="Grupo 1177315">
                    <g id="Grupo_1173585" data-name="Grupo 1173585">
                      <g id="Grupo_1173428" data-name="Grupo 1173428">
                        <g id="Grupo_1171958" data-name="Grupo 1171958">
                          <g id="Grupo_1167341" data-name="Grupo 1167341">
                            <g id="Grupo_1166792" data-name="Grupo 1166792">
                              <g transform="matrix(1, 0, 0, 1, -9, -6)" filter="url(#Trazado_904820)">
                                <g id="Trazado_904820-2" data-name="Trazado 904820" transform="translate(9 6)" fill="#fbfbf9">
                                  <path d="M 44.99999618530273 88.49994659423828 C 39.12687301635742 88.49994659423828 33.43022155761719 87.35002136230469 28.06829643249512 85.08212280273438 C 22.88852119445801 82.89125823974609 18.23629570007324 79.75454711914062 14.24084663391113 75.75910186767578 C 10.24540901184082 71.76364898681641 7.108683586120605 67.11143493652344 4.917821407318115 61.93165969848633 C 2.649921178817749 56.56973648071289 1.499996185302734 50.87309646606445 1.499996185302734 44.99997329711914 C 1.499996185302734 39.12685012817383 2.649921178817749 33.43021011352539 4.917821407318115 28.06828498840332 C 7.108683586120605 22.88851165771484 10.24540901184082 18.23629760742188 14.24084663391113 14.24084854125977 C 18.23629570007324 10.24539852142334 22.88852119445801 7.108685970306396 28.06829643249512 4.917823314666748 C 33.43022155761719 2.649923324584961 39.12687301635742 1.499998331069946 44.99999618530273 1.499998331069946 C 50.87311935424805 1.499998331069946 56.56977081298828 2.649923324584961 61.93169784545898 4.917823314666748 C 67.11147308349609 7.108685970306396 71.76369476318359 10.24539852142334 75.75914764404297 14.24084854125977 C 79.75458526611328 18.23629760742188 82.89131164550781 22.88851165771484 85.08216857910156 28.06828498840332 C 87.35007476806641 33.43021011352539 88.5 39.12685012817383 88.5 44.99997329711914 C 88.5 50.87309646606445 87.35007476806641 56.56973648071289 85.08216857910156 61.93165969848633 C 82.89131164550781 67.11143493652344 79.75458526611328 71.76364898681641 75.75914764404297 75.75910186767578 C 71.76369476318359 79.75454711914062 67.11147308349609 82.89125823974609 61.93169784545898 85.08212280273438 C 56.56977081298828 87.35002136230469 50.87311935424805 88.49994659423828 44.99999618530273 88.49994659423828 Z" stroke="none"/>
                                  <path d="M 44.99999618530273 3 C 39.32870864868164 3 33.82865142822266 4.110061645507812 28.65262603759766 6.299331665039062 C 23.65165710449219 8.414573669433594 19.15968322753906 11.44332885742188 15.301513671875 15.30149841308594 C 11.44333648681641 19.15969085693359 8.414566040039062 23.65164184570312 6.299339294433594 28.65261459350586 C 4.110054016113281 33.82864379882812 2.999992370605469 39.32868576049805 2.999992370605469 44.99997329711914 C 2.999992370605469 50.67126083374023 4.110054016113281 56.17130279541016 6.299339294433594 61.34732818603516 C 8.414566040039062 66.34829711914062 11.44333648681641 70.84025573730469 15.301513671875 74.69844055175781 C 19.15968322753906 78.55661773681641 23.65165710449219 81.58537292480469 28.65262603759766 83.70061492919922 C 33.82865142822266 85.88988494873047 39.32870864868164 86.99994659423828 44.99999618530273 86.99994659423828 C 50.67128372192383 86.99994659423828 56.17134094238281 85.88988494873047 61.34736633300781 83.70061492919922 C 66.34834289550781 81.58537292480469 70.84030914306641 78.55661773681641 74.69847869873047 74.69844055175781 C 78.55665588378906 70.84025573730469 81.58542633056641 66.34829711914062 83.70065307617188 61.34732818603516 C 85.88993835449219 56.17130279541016 87 50.67126083374023 87 44.99997329711914 C 87 39.32868576049805 85.88993835449219 33.82864379882812 83.70065307617188 28.65261459350586 C 81.58542633056641 23.65164184570312 78.55665588378906 19.15969085693359 74.69847869873047 15.30149841308594 C 70.84030914306641 11.44332885742188 66.34834289550781 8.414573669433594 61.34736633300781 6.299331665039062 C 56.17134094238281 4.110061645507812 50.67128372192383 3 44.99999618530273 3 M 44.99999618530273 0 C 69.85281372070312 0 90 20.14717102050781 90 44.99997329711914 C 90 69.85277557373047 69.85281372070312 89.99994659423828 44.99999618530273 89.99994659423828 C 20.14717864990234 89.99994659423828 -7.62939453125e-06 69.85277557373047 -7.62939453125e-06 44.99997329711914 C -7.62939453125e-06 20.14717102050781 20.14717864990234 0 44.99999618530273 0 Z" stroke="none" fill="#7b776f"/>
                                </g>
                              </g>
                            </g>
                          </g>
                        </g>
                      </g>
                    </g>
                  </g>
                </g>
              </g>
            </g>
          </g>
        </g>
      </g>
    </g>
    <g id="sistema-operacional_2_" data-name="sistema-operacional (2)" transform="translate(218 2112)">
      <g id="Grupo_1235198" data-name="Grupo 1235198">
        <g id="Grupo_1235194" data-name="Grupo 1235194">
          <path id="Trazado_1295319" data-name="Trazado 1295319" d="M27.4,17a10.918,10.918,0,0,0-.48-3.2l2.87-1.85L26.55,6.9,23.67,8.75A11.107,11.107,0,0,0,19.4,6.43V3h-6V6.42A11,11,0,0,0,9.13,8.75L6.25,6.9,3,11.95,5.87,13.8A11.256,11.256,0,0,0,5.4,17a10.918,10.918,0,0,0,.48,3.2L3,22.05,6.25,27.1l2.88-1.85a11,11,0,0,0,4.27,2.33V31h6V27.58a11,11,0,0,0,4.27-2.33l2.88,1.85,3.25-5.05L26.93,20.2A11.256,11.256,0,0,0,27.4,17Zm-11,6a6,6,0,1,1,6-6A6,6,0,0,1,16.4,23Z" fill="#8aba55"/>
        </g>
        <g id="Grupo_1235195" data-name="Grupo 1235195">
          <path id="Trazado_1295320" data-name="Trazado 1295320" d="M60.6,49a10.918,10.918,0,0,0-.48-3.2L63,43.95,59.75,38.9l-2.88,1.85a11,11,0,0,0-4.27-2.33V35h-6v3.42a11,11,0,0,0-4.27,2.33L39.45,38.9,36.2,43.95l2.87,1.85a10.907,10.907,0,0,0,0,6.4L36.2,54.05l3.25,5.05,2.88-1.85a11,11,0,0,0,4.27,2.33V63h6V59.58a11,11,0,0,0,4.27-2.33l2.88,1.85L63,54.05,60.13,52.2A11.256,11.256,0,0,0,60.6,49Zm-11,6a6,6,0,1,1,6-6A6,6,0,0,1,49.6,55Z" fill="#7cb5e8"/>
        </g>
        <g id="Grupo_1235196" data-name="Grupo 1235196">
          <path id="Trazado_1295321" data-name="Trazado 1295321" d="M18.02,36.29a15.214,15.214,0,0,0,2.06,4.98l-2.42,3.27,3.8,3.8,3.27-2.42a15.214,15.214,0,0,0,4.98,2.06l.6,4.02h5.37l.6-4.02a15.214,15.214,0,0,0,4.98-2.06l3.27,2.42,3.8-3.8-2.42-3.27a15.214,15.214,0,0,0,2.06-4.98l4.02-.6V30.32l-4.02-.6a15.214,15.214,0,0,0-2.06-4.98l2.42-3.27-3.8-3.8-3.27,2.42a15.214,15.214,0,0,0-4.98-2.06L35.69,14H30.32l-.6,4.02a15.214,15.214,0,0,0-4.98,2.06l-3.27-2.42-3.8,3.8,2.42,3.27a15.214,15.214,0,0,0-2.06,4.98l-4.03.6v5.37ZM25.75,33A7.25,7.25,0,1,1,33,40.25,7.249,7.249,0,0,1,25.75,33Z" fill="#ffab03"/>
        </g>
        <g id="Grupo_1235197" data-name="Grupo 1235197" opacity="0.3">
          <path id="Trazado_1295322" data-name="Trazado 1295322" d="M45.92,24.73l2.42-3.27-3.8-3.8-3.27,2.42a15.214,15.214,0,0,0-4.98-2.06L35.69,14H30.32l-.6,4.02a15.214,15.214,0,0,0-4.98,2.06l-.59-.43A17.618,17.618,0,0,0,23.82,23a17.324,17.324,0,0,0,2.13,8.35,7.25,7.25,0,1,1,10.03,8.26,17.293,17.293,0,0,0,5.27.81,17.578,17.578,0,0,0,5.65-.95,15.007,15.007,0,0,0,1.09-3.19l4.02-.6V30.31l-4.02-.6a15.545,15.545,0,0,0-2.07-4.98Z" fill="#fff"/>
        </g>
      </g>
      <g id="Grupo_1235208" data-name="Grupo 1235208">
        <g id="Grupo_1235199" data-name="Grupo 1235199">
          <path id="Trazado_1295323" data-name="Trazado 1295323" d="M35.69,52.75H30.32a.744.744,0,0,1-.74-.64l-.53-3.52a16,16,0,0,1-4.28-1.77l-2.86,2.11a.759.759,0,0,1-.98-.07l-3.8-3.8a.758.758,0,0,1-.07-.98l2.11-2.86a15.867,15.867,0,0,1-1.77-4.28l-3.52-.52a.744.744,0,0,1-.64-.74V30.31a.744.744,0,0,1,.64-.74l3.52-.52a16.193,16.193,0,0,1,1.77-4.28l-2.11-2.86a.759.759,0,0,1,.07-.98l3.8-3.8a.758.758,0,0,1,.98-.07l2.86,2.11a15.867,15.867,0,0,1,4.28-1.77l.53-3.52a.752.752,0,0,1,.74-.64h5.37a.744.744,0,0,1,.74.64l.53,3.52a16,16,0,0,1,4.28,1.77l2.86-2.11a.759.759,0,0,1,.98.07l3.8,3.8a.758.758,0,0,1,.07.98l-2.11,2.86a15.867,15.867,0,0,1,1.77,4.28l3.52.52a.744.744,0,0,1,.64.74v5.37a.744.744,0,0,1-.64.74l-3.52.52a16,16,0,0,1-1.77,4.28l2.11,2.86a.759.759,0,0,1-.07.98l-3.8,3.8a.758.758,0,0,1-.98.07l-2.86-2.11a15.867,15.867,0,0,1-4.28,1.77l-.53,3.52A.752.752,0,0,1,35.69,52.75Zm-4.73-1.5h4.08l.5-3.38a.746.746,0,0,1,.58-.62,14.691,14.691,0,0,0,4.74-1.96.737.737,0,0,1,.85.03l2.75,2.03,2.88-2.89-2.03-2.75a.737.737,0,0,1-.03-.85,14.26,14.26,0,0,0,1.96-4.74.745.745,0,0,1,.62-.58l3.38-.5V30.96l-3.38-.5a.746.746,0,0,1-.62-.58,14.6,14.6,0,0,0-1.96-4.74.737.737,0,0,1,.03-.85l2.03-2.75-2.88-2.88-2.75,2.03a.754.754,0,0,1-.85.03,14.6,14.6,0,0,0-4.74-1.96.745.745,0,0,1-.58-.62l-.5-3.38H30.96l-.5,3.38a.746.746,0,0,1-.58.62,14.691,14.691,0,0,0-4.74,1.96.737.737,0,0,1-.85-.03l-2.75-2.03-2.89,2.88,2.03,2.75a.737.737,0,0,1,.03.85,14.6,14.6,0,0,0-1.96,4.74.745.745,0,0,1-.62.58l-3.38.5v4.08l3.38.5a.746.746,0,0,1,.62.58,14.691,14.691,0,0,0,1.96,4.74.737.737,0,0,1-.03.85l-2.03,2.75,2.89,2.89,2.75-2.03a.737.737,0,0,1,.85-.03,14.6,14.6,0,0,0,4.74,1.96.745.745,0,0,1,.58.62ZM33,41a8,8,0,1,1,8-8A8.011,8.011,0,0,1,33,41Zm0-14.5A6.5,6.5,0,1,0,39.5,33,6.506,6.506,0,0,0,33,26.5Z"/>
        </g>
        <g id="Grupo_1235200" data-name="Grupo 1235200">
          <path id="Trazado_1295324" data-name="Trazado 1295324" d="M33,61.75A28.786,28.786,0,0,1,4.25,33a.75.75,0,0,1,1.5,0A27.275,27.275,0,0,0,33,60.25a.75.75,0,0,1,0,1.5Z"/>
        </g>
        <g id="Grupo_1235201" data-name="Grupo 1235201">
          <path id="Trazado_1295325" data-name="Trazado 1295325" d="M61,33.75a.755.755,0,0,1-.75-.75A27.275,27.275,0,0,0,33,5.75a.75.75,0,0,1,0-1.5A28.786,28.786,0,0,1,61.75,33,.755.755,0,0,1,61,33.75Z"/>
        </g>
        <g id="Grupo_1235202" data-name="Grupo 1235202">
          <path id="Trazado_1295326" data-name="Trazado 1295326" d="M61,34.75a.742.742,0,0,1-.53-.22l-3-3a.75.75,0,0,1,1.06-1.06L61,32.94l2.47-2.47a.75.75,0,0,1,1.06,1.06l-3,3a.742.742,0,0,1-.53.22Z"/>
        </g>
        <g id="Grupo_1235203" data-name="Grupo 1235203">
          <path id="Trazado_1295327" data-name="Trazado 1295327" d="M8,35.75a.742.742,0,0,1-.53-.22L5,33.06,2.53,35.53a.75.75,0,0,1-1.06-1.06l3-3a.754.754,0,0,1,1.06,0l3,3a.754.754,0,0,1,0,1.06.742.742,0,0,1-.53.22Z"/>
        </g>
        <g id="Grupo_1235204" data-name="Grupo 1235204">
          <path id="Trazado_1295328" data-name="Trazado 1295328" d="M12.98,28.18a.587.587,0,0,1-.23-.04,11.762,11.762,0,0,1-3.68-1.97L6.65,27.73a.758.758,0,0,1-1.04-.23L2.36,22.45a.742.742,0,0,1-.1-.56.75.75,0,0,1,.33-.47L5,19.87A11.576,11.576,0,0,1,4.64,17,12.067,12.067,0,0,1,5,14.13L2.59,12.58a.75.75,0,0,1-.33-.47.781.781,0,0,1,.1-.56L5.62,6.5a.745.745,0,0,1,1.03-.23L9.07,7.83a12.021,12.021,0,0,1,3.58-1.96V3a.755.755,0,0,1,.75-.75h6a.755.755,0,0,1,.75.75V5.87a11.8,11.8,0,0,1,3.58,1.96l2.42-1.56a.758.758,0,0,1,1.04.23l2.64,4.1a.749.749,0,1,1-1.26.81L26.34,7.94,24.09,9.39a.752.752,0,0,1-.9-.07,10.2,10.2,0,0,0-3.98-2.17.759.759,0,0,1-.55-.72V3.75h-4.5V6.42a.739.739,0,0,1-.55.72A10.2,10.2,0,0,0,9.63,9.31a.752.752,0,0,1-.9.07L6.47,7.94,4.04,11.72l2.24,1.44a.75.75,0,0,1,.31.85A10.507,10.507,0,0,0,6.15,17a10.062,10.062,0,0,0,.45,2.98.75.75,0,0,1-.31.85L4.05,22.27l2.43,3.78L8.73,24.6a.752.752,0,0,1,.9.07,10.134,10.134,0,0,0,3.59,2.04.754.754,0,0,1-.24,1.47Z"/>
        </g>
        <g id="Grupo_1235205" data-name="Grupo 1235205">
          <path id="Trazado_1295329" data-name="Trazado 1295329" d="M14.93,23.56a1.1,1.1,0,0,1-.18-.02,6.747,6.747,0,1,1,7.52-9.87.748.748,0,0,1-1.3.74,5.245,5.245,0,1,0-5.84,7.67.742.742,0,0,1,.54.91A.766.766,0,0,1,14.93,23.56Z"/>
        </g>
        <g id="Grupo_1235206" data-name="Grupo 1235206">
          <path id="Trazado_1295330" data-name="Trazado 1295330" d="M52.6,63.75h-6a.755.755,0,0,1-.75-.75V60.13a11.591,11.591,0,0,1-3.58-1.96l-2.42,1.56a.716.716,0,0,1-.57.1.75.75,0,0,1-.47-.33l-2.64-4.1a.749.749,0,1,1,1.26-.81l2.23,3.47,2.25-1.45a.752.752,0,0,1,.9.07,10.074,10.074,0,0,0,3.98,2.17.759.759,0,0,1,.55.72v2.67h4.5V59.57a.739.739,0,0,1,.55-.72,10.272,10.272,0,0,0,3.98-2.17.752.752,0,0,1,.9-.07l2.25,1.45,2.43-3.78-2.24-1.44a.75.75,0,0,1-.31-.85,10.092,10.092,0,0,0,0-5.96.75.75,0,0,1,.31-.85l2.24-1.44-2.43-3.78-2.25,1.45a.752.752,0,0,1-.9-.07,10.134,10.134,0,0,0-3.59-2.04.753.753,0,1,1,.47-1.43,11.762,11.762,0,0,1,3.68,1.97l2.42-1.56a.742.742,0,0,1,.56-.1.75.75,0,0,1,.47.33l3.25,5.05a.758.758,0,0,1-.23,1.04L61,46.13a11.62,11.62,0,0,1,0,5.74l2.41,1.55a.745.745,0,0,1,.22,1.04l-3.25,5.05a.75.75,0,0,1-.47.33.781.781,0,0,1-.56-.1l-2.42-1.56a11.8,11.8,0,0,1-3.58,1.96V63a.749.749,0,0,1-.75.75Z"/>
        </g>
        <g id="Grupo_1235207" data-name="Grupo 1235207">
          <path id="Trazado_1295331" data-name="Trazado 1295331" d="M49.6,55.75a6.769,6.769,0,0,1-5.87-3.42.75.75,0,0,1,.28-1.02.741.741,0,0,1,1.02.28,5.245,5.245,0,1,0,5.84-7.67.742.742,0,0,1-.54-.91.749.749,0,0,1,.91-.54A6.741,6.741,0,0,1,49.6,55.75Z"/>
        </g>
      </g>
    </g>
  </g>
</svg>
