<svg xmlns="http://www.w3.org/2000/svg" xmlns:xlink="http://www.w3.org/1999/xlink" width="108" height="108" viewBox="0 0 108 108">
  <defs>
    <filter id="Trazado_904820" x="0" y="0" width="108" height="108" filterUnits="userSpaceOnUse">
      <feOffset dy="3" input="SourceAlpha"/>
      <feGaussianBlur stdDeviation="3" result="blur"/>
      <feFlood flood-opacity="0.161"/>
      <feComposite operator="in" in2="blur"/>
      <feComposite in="SourceGraphic"/>
    </filter>
  </defs>
  <g id="Grupo_1235402" data-name="Grupo 1235402" transform="translate(-198 -2252.856)">
    <g id="Grupo_1235130" data-name="Grupo 1235130" transform="translate(207 2258.856)">
      <g id="Grupo_1233818" data-name="Grupo 1233818" transform="translate(0 0)">
        <g id="Grupo_1228307" data-name="Grupo 1228307">
          <g id="Grupo_1228100" data-name="Grupo 1228100" transform="translate(0 0)">
            <g id="Grupo_1221597" data-name="Grupo 1221597" transform="translate(0 0)">
              <g id="Grupo_1219744" data-name="Grupo 1219744">
                <g id="Grupo_1202418" data-name="Grupo 1202418">
                  <g id="Grupo_1177315" data-name="Grupo 1177315">
                    <g id="Grupo_1173585" data-name="Grupo 1173585">
                      <g id="Grupo_1173428" data-name="Grupo 1173428">
                        <g id="Grupo_1171958" data-name="Grupo 1171958">
                          <g id="Grupo_1167341" data-name="Grupo 1167341">
                            <g id="Grupo_1166792" data-name="Grupo 1166792">
                              <g transform="matrix(1, 0, 0, 1, -9, -6)" filter="url(#Trazado_904820)">
                                <g id="Trazado_904820-2" data-name="Trazado 904820" transform="translate(9 6)" fill="#f2f7e5">
                                  <path d="M 44.99999618530273 88.49992370605469 C 39.12687301635742 88.49992370605469 33.43022155761719 87.34999847412109 28.06829643249512 85.08209991455078 C 22.88852119445801 82.8912353515625 18.23629570007324 79.75452423095703 14.24084663391113 75.75907135009766 C 10.24540901184082 71.76363372802734 7.108683586120605 67.11141204833984 4.917821407318115 61.93164825439453 C 2.649921178817749 56.56972503662109 1.499996185302734 50.87307357788086 1.499996185302734 44.99996185302734 C 1.499996185302734 39.12683868408203 2.649921178817749 33.43019866943359 4.917821407318115 28.06827354431152 C 7.108683586120605 22.88850021362305 10.24540901184082 18.23628616333008 14.24084663391113 14.24083709716797 C 18.23629570007324 10.24539947509766 22.88852119445801 7.108686923980713 28.06829643249512 4.917824268341064 C 33.43022155761719 2.649924278259277 39.12687301635742 1.499999403953552 44.99999618530273 1.499999403953552 C 50.87311935424805 1.499999403953552 56.56977081298828 2.649924278259277 61.93169784545898 4.917824268341064 C 67.11147308349609 7.108686923980713 71.76369476318359 10.24539947509766 75.75914764404297 14.24083709716797 C 79.75458526611328 18.23628616333008 82.89131164550781 22.88850021362305 85.08216857910156 28.06827354431152 C 87.35007476806641 33.43019866943359 88.5 39.12683868408203 88.5 44.99996185302734 C 88.5 50.87307357788086 87.35007476806641 56.56972503662109 85.08216857910156 61.93164825439453 C 82.89131164550781 67.11141204833984 79.75458526611328 71.76363372802734 75.75914764404297 75.75907135009766 C 71.76369476318359 79.75452423095703 67.11147308349609 82.8912353515625 61.93169784545898 85.08209991455078 C 56.56977081298828 87.34999847412109 50.87311935424805 88.49992370605469 44.99999618530273 88.49992370605469 Z" stroke="none"/>
                                  <path d="M 44.99999618530273 3.000007629394531 C 39.32870864868164 3.000007629394531 33.82865142822266 4.110061645507812 28.65262603759766 6.299331665039062 C 23.65165710449219 8.414558410644531 19.15968322753906 11.44333648681641 15.301513671875 15.30150604248047 C 11.44333648681641 19.15967559814453 8.414566040039062 23.65163421630859 6.299339294433594 28.65260314941406 C 4.110054016113281 33.82863235473633 2.999992370605469 39.32867431640625 2.999992370605469 44.99996185302734 C 2.999992370605469 50.67124938964844 4.110054016113281 56.17129135131836 6.299339294433594 61.34732055664062 C 8.414566040039062 66.34828948974609 11.44333648681641 70.84024810791016 15.301513671875 74.69841766357422 C 19.15968322753906 78.55658721923828 23.65165710449219 81.58535003662109 28.65262603759766 83.70059204101562 C 33.82865142822266 85.88986206054688 39.32870864868164 86.99991607666016 44.99999618530273 86.99991607666016 C 50.67128372192383 86.99991607666016 56.17134094238281 85.88986206054688 61.34736633300781 83.70059204101562 C 66.34834289550781 81.58535003662109 70.84030914306641 78.55658721923828 74.69847869873047 74.69841766357422 C 78.55665588378906 70.84024810791016 81.58542633056641 66.34828948974609 83.70065307617188 61.34732055664062 C 85.88993835449219 56.17129135131836 87 50.67124938964844 87 44.99996185302734 C 87 39.32867431640625 85.88993835449219 33.82863235473633 83.70065307617188 28.65260314941406 C 81.58542633056641 23.65163421630859 78.55665588378906 19.15967559814453 74.69847869873047 15.30150604248047 C 70.84030914306641 11.44333648681641 66.34834289550781 8.414558410644531 61.34736633300781 6.299331665039062 C 56.17134094238281 4.110061645507812 50.67128372192383 3.000007629394531 44.99999618530273 3.000007629394531 M 44.99999618530273 7.62939453125e-06 C 69.85281372070312 7.62939453125e-06 90 20.14716339111328 90 44.99996185302734 C 90 69.85274505615234 69.85281372070312 89.99991607666016 44.99999618530273 89.99991607666016 C 20.14717864990234 89.99991607666016 -7.62939453125e-06 69.85274505615234 -7.62939453125e-06 44.99996185302734 C -7.62939453125e-06 20.14716339111328 20.14717864990234 7.62939453125e-06 44.99999618530273 7.62939453125e-06 Z" stroke="none" fill="#496406"/>
                                </g>
                              </g>
                            </g>
                          </g>
                        </g>
                      </g>
                    </g>
                  </g>
                </g>
              </g>
            </g>
          </g>
        </g>
      </g>
    </g>
    <g id="trabajo-en-equipo_10_" data-name="trabajo-en-equipo (10)" transform="translate(222.898 2274.754)">
      <g id="Grupo_1235385" data-name="Grupo 1235385" transform="translate(0.848 0.848)">
        <g id="Grupo_1235381" data-name="Grupo 1235381">
          <circle id="Elipse_11587" data-name="Elipse 11587" cx="5.743" cy="5.743" r="5.743" fill="#f1d0a5"/>
        </g>
        <g id="Grupo_1235382" data-name="Grupo 1235382" transform="translate(4.24 0.001)">
          <path id="Trazado_1295748" data-name="Trazado 1295748" d="M44.771,7.685a5.741,5.741,0,0,1,0,11.084,5.742,5.742,0,1,0,0-11.084Z" transform="translate(-44.771 -7.485)" fill="#f1b986"/>
        </g>
        <g id="Grupo_1235383" data-name="Grupo 1235383" transform="translate(4.884 4.884)">
          <path id="Trazado_1295749" data-name="Trazado 1295749" d="M51.783,65.426,55.356,69,69,55.356l-3.573-3.573a4.594,4.594,0,0,0-6.5,0l-7.147,7.147A4.594,4.594,0,0,0,51.783,65.426Z" transform="translate(-50.437 -50.437)" fill="#9dc6fb"/>
        </g>
        <g id="Grupo_1235384" data-name="Grupo 1235384" transform="translate(11.428 4.884)">
          <path id="Trazado_1295750" data-name="Trazado 1295750" d="M109.942,51.783l-1.949,1.949a4.594,4.594,0,0,1,6.5,0l3.573,3.573,1.949-1.949-3.573-3.573A4.594,4.594,0,0,0,109.942,51.783Z" transform="translate(-107.993 -50.437)" fill="#80b4fb"/>
        </g>
      </g>
      <g id="Grupo_1235390" data-name="Grupo 1235390" transform="translate(33.908 0.848)">
        <g id="Grupo_1235386" data-name="Grupo 1235386" transform="translate(11.962)">
          <circle id="Elipse_11588" data-name="Elipse 11588" cx="5.743" cy="5.743" r="5.743" fill="#f1d0a5"/>
        </g>
        <g id="Grupo_1235387" data-name="Grupo 1235387" transform="translate(11.963 4.24)">
          <path id="Trazado_1295751" data-name="Trazado 1295751" d="M414.8,44.771a5.741,5.741,0,0,1-11.084,0,5.742,5.742,0,1,0,11.084,0Z" transform="translate(-403.512 -44.771)" fill="#f1b986"/>
        </g>
        <g id="Grupo_1235388" data-name="Grupo 1235388" transform="translate(0 4.884)">
          <path id="Trazado_1295752" data-name="Trazado 1295752" d="M301.854,51.783l-3.573,3.573L311.925,69l3.573-3.573a4.594,4.594,0,0,0,0-6.5l-7.147-7.147A4.594,4.594,0,0,0,301.854,51.783Z" transform="translate(-298.281 -50.437)" fill="#dd5790"/>
        </g>
        <g id="Grupo_1235389" data-name="Grupo 1235389" transform="translate(11.695 11.428)">
          <path id="Trazado_1295753" data-name="Trazado 1295753" d="M406.672,109.942l-1.949-1.949a4.594,4.594,0,0,1,0,6.5l-3.573,3.573,1.949,1.949,3.573-3.573A4.594,4.594,0,0,0,406.672,109.942Z" transform="translate(-401.15 -107.993)" fill="#da387d"/>
        </g>
      </g>
      <g id="Grupo_1235395" data-name="Grupo 1235395" transform="translate(0.848 33.908)">
        <g id="Grupo_1235391" data-name="Grupo 1235391" transform="translate(0 11.962)">
          <circle id="Elipse_11589" data-name="Elipse 11589" cx="5.743" cy="5.743" r="5.743" fill="#f1d0a5"/>
        </g>
        <g id="Grupo_1235392" data-name="Grupo 1235392" transform="translate(4.24 11.963)">
          <path id="Trazado_1295754" data-name="Trazado 1295754" d="M44.771,414.8a5.741,5.741,0,0,0,0-11.084,5.742,5.742,0,1,1,0,11.084Z" transform="translate(-44.771 -403.512)" fill="#f1b986"/>
        </g>
        <g id="Grupo_1235393" data-name="Grupo 1235393" transform="translate(4.884)">
          <path id="Trazado_1295755" data-name="Trazado 1295755" d="M51.783,301.854l3.573-3.573L69,311.925,65.426,315.5a4.594,4.594,0,0,1-6.5,0l-7.147-7.147A4.594,4.594,0,0,1,51.783,301.854Z" transform="translate(-50.437 -298.281)" fill="#e49542"/>
        </g>
        <g id="Grupo_1235394" data-name="Grupo 1235394" transform="translate(11.428 11.695)">
          <path id="Trazado_1295756" data-name="Trazado 1295756" d="M109.942,406.672l-1.949-1.949a4.594,4.594,0,0,0,6.5,0l3.573-3.573,1.949,1.949-3.573,3.573A4.594,4.594,0,0,1,109.942,406.672Z" transform="translate(-107.993 -401.15)" fill="#e28424"/>
        </g>
      </g>
      <g id="Grupo_1235400" data-name="Grupo 1235400" transform="translate(33.908 33.908)">
        <g id="Grupo_1235396" data-name="Grupo 1235396" transform="translate(11.962 11.962)">
          <circle id="Elipse_11590" data-name="Elipse 11590" cx="5.743" cy="5.743" r="5.743" fill="#f1d0a5"/>
        </g>
        <g id="Grupo_1235397" data-name="Grupo 1235397" transform="translate(11.963 11.962)">
          <path id="Trazado_1295757" data-name="Trazado 1295757" d="M414.8,410.745a5.741,5.741,0,0,0-11.084,0,5.742,5.742,0,1,1,11.084,0Z" transform="translate(-403.512 -403.5)" fill="#f1b986"/>
        </g>
        <g id="Grupo_1235398" data-name="Grupo 1235398" transform="translate(0 0)">
          <path id="Trazado_1295758" data-name="Trazado 1295758" d="M301.854,315.5l-3.573-3.573,13.644-13.644,3.573,3.573a4.594,4.594,0,0,1,0,6.5l-7.147,7.147A4.594,4.594,0,0,1,301.854,315.5Z" transform="translate(-298.281 -298.281)" fill="#c8ea73"/>
        </g>
        <g id="Grupo_1235399" data-name="Grupo 1235399" transform="translate(11.695)">
          <path id="Trazado_1295759" data-name="Trazado 1295759" d="M406.672,308.35l-1.949,1.949a4.594,4.594,0,0,0,0-6.5l-3.573-3.573,1.949-1.949,3.573,3.573A4.594,4.594,0,0,1,406.672,308.35Z" transform="translate(-401.15 -298.28)" fill="#b7e445"/>
        </g>
      </g>
      <g id="Grupo_1235401" data-name="Grupo 1235401" transform="translate(-0.002 -0.002)">
        <path id="Trazado_1295760" data-name="Trazado 1295760" d="M51.281,45.029l.447-.447a5.448,5.448,0,0,0,0-7.7L48.4,33.555V24.648l3.324-3.323a5.448,5.448,0,0,0,0-7.7l-.447-.447c.11.005.221.009.331.009a6.6,6.6,0,1,0-6.584-6.261l-.447-.447a5.448,5.448,0,0,0-7.7,0L33.555,9.8H24.648L21.325,6.474a5.448,5.448,0,0,0-7.7,0l-.447.447A6.6,6.6,0,1,0,6.59,13.183c.11,0,.221,0,.331-.009l-.447.447a5.448,5.448,0,0,0,0,7.7L9.8,24.648v8.907L6.475,36.879a5.447,5.447,0,0,0,0,7.7l.447.447a6.6,6.6,0,1,0,6.252,6.252l.447.447a5.447,5.447,0,0,0,7.7,0L24.648,48.4h8.907l3.323,3.324a5.448,5.448,0,0,0,7.7,0l.447-.447a6.6,6.6,0,1,0,6.253-6.253ZM10.048,55.07a4.888,4.888,0,1,1,0-6.915A4.858,4.858,0,0,1,10.048,55.07ZM48.155,3.133a4.89,4.89,0,1,1,.012,6.927l-.024-.024A4.9,4.9,0,0,1,48.155,3.133ZM3.133,10.048a4.89,4.89,0,1,1,6.927-.012l-.024.024A4.9,4.9,0,0,1,3.133,10.048ZM20.118,50.522a3.741,3.741,0,0,1-5.291,0L7.681,43.376a3.741,3.741,0,0,1,0-5.291l2.97-2.97,2.205,2.205L11.835,38.34a.853.853,0,1,0,1.206,1.206l1.021-1.021,5.616,5.616-1.021,1.021a.853.853,0,1,0,1.206,1.206l1.021-1.021,2.205,2.205Zm23.257,0a3.742,3.742,0,0,1-5.292,0l-2.97-2.971,2.205-2.205,1.021,1.021a.853.853,0,1,0,1.206-1.206l-1.021-1.021,1.508-1.508a.853.853,0,1,0-1.206-1.206L33.556,46.7H24.648L11.5,33.555V24.648l5.7-5.7A.853.853,0,0,0,16,17.738l-1.939,1.939-1.021-1.021a.853.853,0,1,0-1.206,1.206l1.021,1.021-2.205,2.205L7.68,20.119a3.742,3.742,0,0,1,0-5.292l7.147-7.147a3.742,3.742,0,0,1,5.292,0l2.97,2.971-2.205,2.205-1.021-1.021a.853.853,0,0,0-1.206,1.206l1.021,1.021-.864.864a.853.853,0,1,0,1.206,1.206s4.592-4.663,4.628-4.628h8.908L38.5,16.454a.853.853,0,1,0,1.206-1.206l-1.185-1.185,1.021-1.021a.853.853,0,0,0-1.206-1.206l-1.021,1.021-2.205-2.205,2.969-2.97a3.742,3.742,0,0,1,5.292,0l7.147,7.147a3.742,3.742,0,0,1,0,5.292l-2.971,2.97-2.205-2.205,1.021-1.021a.853.853,0,1,0-1.206-1.206l-1.021,1.021-1.616-1.616a.853.853,0,1,0-1.206,1.206l5.38,5.38v8.908L41.64,38.614a.853.853,0,1,0,1.206,1.206l1.295-1.295,1.021,1.021a.853.853,0,1,0,1.206-1.206L45.347,37.32l2.205-2.205,2.97,2.969a3.742,3.742,0,0,1,0,5.292ZM55.07,55.07a4.89,4.89,0,0,1-6.927-6.9l.024-.024a4.89,4.89,0,0,1,6.9,6.927Z" transform="translate(0.002 0.002)"/>
        <path id="Trazado_1295761" data-name="Trazado 1295761" d="M230.686,147.162a.85.85,0,0,0-.246-.519l-1.952-1.952a.853.853,0,1,0-1.206,1.206l.5.5h-3.684a.853.853,0,1,0,0,1.705h3.684l-.5.5a.853.853,0,0,0,1.206,1.206l1.952-1.952a.854.854,0,0,0,.246-.688Z" transform="translate(-197.863 -128.021)"/>
        <path id="Trazado_1295762" data-name="Trazado 1295762" d="M323.567,227.283a.853.853,0,0,0-1.206,0l-.5.5V224.1a.853.853,0,1,0-1.705,0v3.684l-.5-.5a.853.853,0,1,0-1.206,1.206l1.952,1.952a.86.86,0,0,0,1.206,0l1.952-1.952A.853.853,0,0,0,323.567,227.283Z" transform="translate(-282.031 -197.864)"/>
        <path id="Trazado_1295763" data-name="Trazado 1295763" d="M229.86,320.161h-3.684l.5-.5a.853.853,0,0,0-1.206-1.206l-1.952,1.952a.86.86,0,0,0,0,1.206l1.952,1.952a.853.853,0,0,0,1.206-1.206l-.5-.5h3.684a.853.853,0,1,0,0-1.705Z" transform="translate(-197.885 -282.033)"/>
        <path id="Trazado_1295764" data-name="Trazado 1295764" d="M147.85,223.515a.86.86,0,0,0-1.206,0l-1.952,1.952a.853.853,0,0,0,1.206,1.206l.5-.5v3.684a.853.853,0,1,0,1.705,0v-3.684l.5.5a.853.853,0,1,0,1.206-1.206Z" transform="translate(-128.021 -197.886)"/>
      </g>
    </g>
  </g>
</svg>
