<svg xmlns="http://www.w3.org/2000/svg" xmlns:xlink="http://www.w3.org/1999/xlink" width="295" height="371" viewBox="0 0 295 371">
  <defs>
    <clipPath id="clip-path">
      <rect id="Rectángulo_423012" data-name="Rectángulo 423012" width="295" height="371" transform="translate(180 2644)" fill="#fff" stroke="#707070" stroke-width="1"/>
    </clipPath>
  </defs>
  <g id="Enmascarar_grupo_1211523" data-name="Enmascarar grupo 1211523" transform="translate(-180 -2644)" clip-path="url(#clip-path)">
    <g id="OBJECTS" transform="translate(92 2570.595)">
      <g id="Grupo_1235449" data-name="Grupo 1235449">
        <g id="Grupo_1235405" data-name="Grupo 1235405" transform="translate(13.581 22.096)">
          <g id="Grupo_1235403" data-name="Grupo 1235403" transform="translate(75.222 104.879)">
            <path id="Trazado_1295767" data-name="Trazado 1295767" d="M125.573,123.374a33.123,33.123,0,0,0-12.8-.623l-3.882-9.376-11.375,4.051,2.92,9.719a33.118,33.118,0,0,0-9.577,8.651l-9.372-3.883-5.178,10.908,8.934,4.806a33.126,33.126,0,0,0-.649,12.889L75.222,164.4l4.051,11.375,9.719-2.92a33.114,33.114,0,0,0,8.573,9.52l-3.883,9.391.079.038,10.908,5.178.078.038,4.821-8.946a33.123,33.123,0,0,0,12.8.623l3.882,9.376,11.375-4.051L134.7,184.3a33.13,33.13,0,0,0,9.577-8.651l9.372,3.884,5.178-10.908-8.934-4.806a33.126,33.126,0,0,0,.649-12.889l9.376-3.882-4.051-11.375-9.719,2.92a33.114,33.114,0,0,0-8.573-9.52l3.883-9.391-.079-.037-10.908-5.178-.079-.037ZM138.2,165.518a22.838,22.838,0,1,1-10.838-30.426A22.839,22.839,0,0,1,138.2,165.518Z" transform="translate(-75.222 -113.375)" fill="#c6ddff"/>
          </g>
          <g id="Grupo_1235404" data-name="Grupo 1235404" transform="translate(122.192 48.966)">
            <path id="Trazado_1295768" data-name="Trazado 1295768" d="M190.76,63.5a24.576,24.576,0,0,0-8.709-3.81l-.217-7.527-8.958-.193-.54,7.51a24.579,24.579,0,0,0-8.925,3.472l-5.474-5.167-6.47,6.2,4.927,5.691a24.572,24.572,0,0,0-3.852,8.768l-7.527.217-.193,8.958,7.511.54a24.575,24.575,0,0,0,3.432,8.865l-5.172,5.487.045.047,6.2,6.47.045.046,5.7-4.931a24.589,24.589,0,0,0,8.709,3.81l.217,7.527,8.958.193.54-7.511a24.571,24.571,0,0,0,8.925-3.472l5.475,5.167,6.47-6.2-4.927-5.691A24.573,24.573,0,0,0,200.8,89.2l7.527-.217.193-8.958-7.511-.54a24.575,24.575,0,0,0-3.432-8.865l5.172-5.487-.045-.046-6.2-6.47-.045-.046ZM188.4,96.055a16.946,16.946,0,1,1,.514-23.96A16.947,16.947,0,0,1,188.4,96.055Z" transform="translate(-144.821 -51.966)" fill="#c6ddff"/>
          </g>
        </g>
        <g id="Grupo_1235421" data-name="Grupo 1235421" transform="translate(13.242 38.016)">
          <path id="Trazado_1295785" data-name="Trazado 1295785" d="M336.164,49.743a32.194,32.194,0,0,0-12.242-2.262L321.4,37.946,309.92,40.371l1.55,9.74A32.187,32.187,0,0,0,301.123,57.2L292.6,52.241l-6.4,9.833,7.98,5.789a32.2,32.2,0,0,0-2.3,12.329l-9.534,2.521,2.425,11.481,9.74-1.55a32.19,32.19,0,0,0,7.019,10.282l-4.96,8.54.071.046,9.833,6.4.071.046,5.8-7.989a32.179,32.179,0,0,0,12.242,2.262l2.521,9.534,11.481-2.425-1.55-9.74a32.188,32.188,0,0,0,10.347-7.088l8.522,4.958,6.4-9.833-7.98-5.789a32.2,32.2,0,0,0,2.3-12.329L366.168,77l-2.425-11.481L354,67.072a32.19,32.19,0,0,0-7.019-10.282l4.96-8.54-.071-.046-9.833-6.4-.071-.046Zm6.689,42.227a22.194,22.194,0,1,1-6.486-30.709A22.194,22.194,0,0,1,342.854,91.97Z" fill="#98ccfe"/>
          <g id="Grupo_1235420" data-name="Grupo 1235420" transform="translate(305.74 61.347)">
            <path id="Trazado_1295786" data-name="Trazado 1295786" d="M324.068,79.832a18.518,18.518,0,0,0,7.015,30.477l11.694-35.131A18.511,18.511,0,0,0,324.068,79.832Z" transform="translate(-318.724 -74.334)" fill="#71bfff"/>
            <path id="Trazado_1295787" data-name="Trazado 1295787" d="M349.637,75.647l-11.694,35.131a18.516,18.516,0,1,0,11.694-35.131Z" transform="translate(-325.583 -74.802)" fill="#30a4f2"/>
          </g>
          <path id="Trazado_1295788" data-name="Trazado 1295788" d="M346.007,107.9a14.1,14.1,0,1,1,3.711-2.7,14.069,14.069,0,0,1-3.711,2.7Z" transform="translate(-15.451 -15.448)" fill="#98ccfe"/>
        </g>
        <g id="Grupo_1235423" data-name="Grupo 1235423" transform="translate(0 13.728)">
          <path id="Trazado_1295789" data-name="Trazado 1295789" d="M348.56,187.622a25.117,25.117,0,0,0-9.573,1.664l-4.43-6.294-7.745,4.888,3.774,6.708a25.135,25.135,0,0,0-5.651,7.993l-7.58-1.317-2.021,8.932,7.409,2.073a25.129,25.129,0,0,0,1.66,9.646l-6.294,4.43L323,234.088l6.708-3.774a25.119,25.119,0,0,0,7.925,5.622l-1.314,7.594.064.015,8.932,2.021.064.015,2.082-7.421a25.133,25.133,0,0,0,9.573-1.664l4.43,6.294,7.745-4.887-3.774-6.708a25.135,25.135,0,0,0,5.651-7.993l7.58,1.317,2.021-8.932-7.41-2.073a25.129,25.129,0,0,0-1.66-9.646l6.294-4.43-4.888-7.745-6.708,3.774a25.119,25.119,0,0,0-7.925-5.622l1.314-7.594-.064-.015-8.932-2.021-.064-.015ZM364.9,216.711A17.321,17.321,0,1,1,351.831,196,17.322,17.322,0,0,1,364.9,216.711Z" transform="translate(0)" fill="#98ccfe"/>
          <g id="Grupo_1235422" data-name="Grupo 1235422" transform="translate(333.556 198.44)">
            <path id="Trazado_1295790" data-name="Trazado 1295790" d="M338.668,210.771a14.452,14.452,0,0,0,13.4,20.4l-.967-28.88A14.445,14.445,0,0,0,338.668,210.771Z" transform="translate(-337.382 -202.273)" fill="#71bfff"/>
            <path id="Trazado_1295791" data-name="Trazado 1295791" d="M353.978,202.289l.967,28.88a14.45,14.45,0,1,0-.967-28.88Z" transform="translate(-340.262 -202.269)" fill="#30a4f2"/>
          </g>
          <path id="Trazado_1295792" data-name="Trazado 1295792" d="M360.586,224.952a11.008,11.008,0,1,1,1.983-2.981,10.98,10.98,0,0,1-1.983,2.981Z" transform="translate(-4.554 -4.557)" fill="#98ccfe"/>
        </g>
        <g id="Grupo_1235425" data-name="Grupo 1235425">
          <path id="Trazado_1295793" data-name="Trazado 1295793" d="M268.057,290.523a69.552,69.552,0,0,0-17.778-20.191l8.449-19.563-22.743-11.212-10.372,18.615A69.568,69.568,0,0,0,198.57,256.4l-7.857-19.8L166.7,244.75l5.827,20.491a69.574,69.574,0,0,0-20.369,17.876L132.6,274.668l-11.211,22.743L140,307.783a69.568,69.568,0,0,0-1.8,26.841l-19.83,7.885.059.174,8.154,24.009.059.174,20.53-5.822a69.552,69.552,0,0,0,17.778,20.191L156.5,400.8l22.743,11.212L189.614,393.4a69.563,69.563,0,0,0,27.042,1.775l7.857,19.8,24.009-8.154L242.7,386.327a69.574,69.574,0,0,0,20.369-17.876l19.564,8.449,11.211-22.742-18.615-10.372a69.568,69.568,0,0,0,1.806-26.841l19.83-7.885-.059-.174-8.154-24.009-.059-.174Zm-45.022,80.67a47.958,47.958,0,1,1,29.989-60.832A47.957,47.957,0,0,1,223.035,371.193Z" fill="#98ccfe"/>
          <g id="Grupo_1235424" data-name="Grupo 1235424">
            <path id="Trazado_1295794" data-name="Trazado 1295794" d="M194.747,287.9a40.015,40.015,0,0,0-15.921,65.675L235.4,297A40,40,0,0,0,194.747,287.9Z" fill="#71bfff"/>
            <path id="Trazado_1295795" data-name="Trazado 1295795" d="M235.4,297l-56.573,56.573A40.009,40.009,0,1,0,235.4,297Z" fill="#30a4f2"/>
          </g>
          <path id="Trazado_1295796" data-name="Trazado 1295796" d="M207.611,356.2a30.459,30.459,0,1,1,9.78-1.625,30.4,30.4,0,0,1-9.78,1.625Z" fill="#98ccfe"/>
        </g>
        <g id="Grupo_1235427" data-name="Grupo 1235427" transform="translate(0 55.028)">
          <path id="Trazado_1295797" data-name="Trazado 1295797" d="M372.358,310.958a40.161,40.161,0,0,0-3.768-15.067l9.518-7.8-8.694-11.777-10.253,6.8a40.165,40.165,0,0,0-13.4-8.077l1.218-12.238-14.475-2.18-2.442,12.054a40.163,40.163,0,0,0-15.185,3.771l-7.8-9.518L295.3,275.623l6.8,10.254a40.163,40.163,0,0,0-8.039,13.289L281.8,297.954l-.016.1-2.18,14.475-.016.1,12.073,2.454a40.161,40.161,0,0,0,3.768,15.067l-9.518,7.8,8.694,11.777,10.254-6.8a40.156,40.156,0,0,0,13.4,8.077l-1.218,12.238,14.476,2.18,2.442-12.054a40.158,40.158,0,0,0,15.185-3.771l7.8,9.518,11.777-8.694-6.8-10.254a40.165,40.165,0,0,0,8.039-13.289L382.22,328.1l.016-.1,2.18-14.475.016-.1ZM327.887,340.4a27.688,27.688,0,1,1,31.5-23.255A27.687,27.687,0,0,1,327.887,340.4Z" fill="#98ccfe"/>
          <g id="Grupo_1235426" data-name="Grupo 1235426" transform="translate(308.908 289.922)">
            <path id="Trazado_1295798" data-name="Trazado 1295798" d="M342.264,305.89a23.1,23.1,0,0,0-13.041,36.77l35.846-29.13A23.093,23.093,0,0,0,342.264,305.89Z" transform="translate(-324.3 -305.306)" fill="#71bfff"/>
            <path id="Trazado_1295799" data-name="Trazado 1295799" d="M367.654,317.848l-35.846,29.13a23.1,23.1,0,1,0,35.846-29.13Z" transform="translate(-326.885 -309.624)" fill="#30a4f2"/>
          </g>
          <path id="Trazado_1295800" data-name="Trazado 1295800" d="M348.506,348.788a17.59,17.59,0,1,1,5.713-.353,17.552,17.552,0,0,1-5.713.353Z" transform="translate(-18.302 -18.294)" fill="#98ccfe"/>
        </g>
        <g id="Grupo_1235429" data-name="Grupo 1235429">
          <path id="Trazado_1295801" data-name="Trazado 1295801" d="M280.275,133.679A59.889,59.889,0,0,0,261.8,119.725l3.744-17.956-21.114-5.525-5.53,17.488a59.886,59.886,0,0,0-23.11,3.175l-10.046-15.339L186.9,112.591l8.453,16.271a59.861,59.861,0,0,0-14.087,18.593l-17.956-3.744-5.525,21.114,17.488,5.53a59.875,59.875,0,0,0,3.115,22.945l-15.359,10.074.08.136,11.023,18.836.08.136,16.306-8.456A59.881,59.881,0,0,0,209,227.98l-3.745,17.956,21.114,5.525,5.53-17.489A59.878,59.878,0,0,0,255.01,230.8l10.046,15.34,18.836-11.023-8.453-16.272a59.869,59.869,0,0,0,14.087-18.592l17.956,3.744,5.525-21.114-17.489-5.53A59.875,59.875,0,0,0,292.4,154.4l15.359-10.074-.08-.136-11.023-18.836-.08-.136Zm-24.027,75.8A41.278,41.278,0,1,1,271.026,153,41.278,41.278,0,0,1,256.248,209.479Z" fill="#98ccfe"/>
          <g id="Grupo_1235428" data-name="Grupo 1235428">
            <path id="Trazado_1295802" data-name="Trazado 1295802" d="M224.326,141.244a34.443,34.443,0,0,0-13.7,56.529l48.694-48.694A34.428,34.428,0,0,0,224.326,141.244Z" fill="#71bfff"/>
            <path id="Trazado_1295803" data-name="Trazado 1295803" d="M259.316,149.079l-48.694,48.694a34.437,34.437,0,1,0,48.694-48.694Z" fill="#30a4f2"/>
          </g>
          <path id="Trazado_1295804" data-name="Trazado 1295804" d="M235.4,200.035a26.226,26.226,0,1,1,8.418-1.4,26.167,26.167,0,0,1-8.418,1.4Z" fill="#98ccfe"/>
        </g>
        <g id="Grupo_1235438" data-name="Grupo 1235438" transform="translate(49)">
          <g id="Grupo_1235432" data-name="Grupo 1235432">
            <path id="Trazado_1295805" data-name="Trazado 1295805" d="M74.13,389.6,55.992,369.948l-6.4,5.512,18.138,19.65Z" fill="#2bbf8a"/>
            <g id="Grupo_1235430" data-name="Grupo 1235430">
              <path id="Trazado_1295806" data-name="Trazado 1295806" d="M63.19,412.948A14.716,14.716,0,0,1,50.818,406.2L40.4,390.033,37.5,392.019l11.3,17.548a14.716,14.716,0,0,0,12.372,6.748H77.33a17.288,17.288,0,0,0-1.3-3.367H63.19Z" fill="#b2d5ff"/>
              <path id="Trazado_1295807" data-name="Trazado 1295807" d="M63.19,412.948H76.028a17.279,17.279,0,0,0-7.285-7.4,8.474,8.474,0,0,1-4.449-8.449l.581-5.085-10.588-11.47L40.4,390.032,50.818,406.2A14.716,14.716,0,0,0,63.19,412.948Z" fill="#2b2b38"/>
            </g>
            <g id="Grupo_1235431" data-name="Grupo 1235431">
              <path id="Trazado_1295808" data-name="Trazado 1295808" d="M93.868,338.3A93.061,93.061,0,0,0,62.73,363.871L57.059,371.1l16,17.338,38.409-36.207A15.678,15.678,0,0,0,116,344.32l4.125-18.046L96.665,305.64Z" fill="#12a072"/>
              <path id="Trazado_1295809" data-name="Trazado 1295809" d="M98.4,285.348,96.665,305.64l23.462,20.632,5.483-23.986Z" fill="#047a4a"/>
            </g>
          </g>
          <g id="Grupo_1235433" data-name="Grupo 1235433">
            <path id="Trazado_1295810" data-name="Trazado 1295810" d="M150.631,251.372c8.522-21.388,7.56-31.436,6.167-34.294-1.936-3.971-12.383-7.349-12.383-7.349-7.584,1.745-14.5,6.732-19.9,12.331s-9.552,12.287-13.219,19.151a183.951,183.951,0,0,0-9.326,20.349l33.866,20.187q2.382-4.252,4.435-8.174l-1.236-43.953Z" fill="#e6f0cd"/>
            <path id="Trazado_1295811" data-name="Trazado 1295811" d="M139.034,229.62l1.236,43.953a236.732,236.732,0,0,0,10.362-22.2Z" fill="#b2d5ff"/>
          </g>
          <path id="Trazado_1295812" data-name="Trazado 1295812" d="M150.008,202.192a27.042,27.042,0,0,1-3.729,7.308,23.214,23.214,0,0,0,9.081,6.694,31.318,31.318,0,0,1,6.84-10.249A37.47,37.47,0,0,1,150.008,202.192Z" fill="#ff896f"/>
          <path id="Trazado_1295813" data-name="Trazado 1295813" d="M144.414,209.729l2.334-2.534,11.337,6.4-2.268,6.135Z" fill="#cee29d"/>
          <g id="Grupo_1235434" data-name="Grupo 1235434">
            <circle id="Elipse_11594" data-name="Elipse 11594" cx="18.227" cy="18.227" r="18.227" transform="translate(135.929 190.079) rotate(-45)" fill="#fec5a7"/>
            <path id="Trazado_1295814" data-name="Trazado 1295814" d="M151.936,200.655a6.139,6.139,0,0,1-3.721-4.038,5.411,5.411,0,0,1,1.424-5.239,4.84,4.84,0,0,1,5.288-.87,4.383,4.383,0,0,1,2.342,4.735,20.834,20.834,0,0,0,9.016-9.009c2.561.637,5.019,1.827,7.654,1.984a15.066,15.066,0,0,0,7.7-1.37,9.211,9.211,0,0,0,4.908-5.892,8.5,8.5,0,0,0-3.988-8.9,10.294,10.294,0,0,0-9.971-.021c-2.758-3.392-7.7-5.306-12.067-5.3a19.822,19.822,0,0,0-13.833,5.824,21.158,21.158,0,0,0-6.019,13.8,21.953,21.953,0,0,0,5.808,15.829C148.049,201.676,150.369,201.171,151.936,200.655Z" fill="#18004c"/>
          </g>
          <path id="Trazado_1295815" data-name="Trazado 1295815" d="M135.834,281.747l31.821,41.7a17.6,17.6,0,0,1,3.5,12.613l-5.983,54.163H140.651l.4-10.41a158.254,158.254,0,0,1,7.227-41.514h0l-45.406-40.1A21.919,21.919,0,0,1,97.1,273.465l4.87-11.9Z" fill="#12a072"/>
          <path id="Trazado_1295816" data-name="Trazado 1295816" d="M138.751,398.444h27.3l.9-8.225h-27.3Z" fill="#2bbf8a"/>
          <g id="Grupo_1235435" data-name="Grupo 1235435">
            <path id="Trazado_1295817" data-name="Trazado 1295817" d="M176.251,408.113h0a11.019,11.019,0,0,1-7.789-3.226l-6.443-6.443h-17.2L142.6,412.581h42.5A11.009,11.009,0,0,0,176.251,408.113Z" fill="#2b2b38"/>
            <path id="Trazado_1295818" data-name="Trazado 1295818" d="M185.1,412.581H142.6l-.585,3.734h44.945l-.391-1.046A10.992,10.992,0,0,0,185.1,412.581Z" fill="#b2d5ff"/>
          </g>
          <path id="Trazado_1295819" data-name="Trazado 1295819" d="M156.4,218.153c2.906,9.181-12.237,39.666-10.121,59.86l7.961,6.579,3.844-7.646c-3.4-21.517,5.155-55.979-.96-60.752Z" fill="#ff3040"/>
          <g id="Grupo_1235437" data-name="Grupo 1235437">
            <path id="Trazado_1295820" data-name="Trazado 1295820" d="M201.126,276.279a7.231,7.231,0,0,0-4.8,1.821l-5.166-2.221-3.6,6.535,6.657,3.383a7.268,7.268,0,1,0,6.91-9.518Z" fill="#fec5a7"/>
            <g id="Grupo_1235436" data-name="Grupo 1235436">
              <path id="Trazado_1295821" data-name="Trazado 1295821" d="M192.693,275.212l-6.041-3.191L181.9,282.409l6.791,2.939Z" fill="#f2f7e5"/>
              <path id="Trazado_1295822" data-name="Trazado 1295822" d="M159.618,257.741l-5.218-30.98a7.815,7.815,0,0,0-8.293-6.5h0a7.816,7.816,0,0,0-7.074,9.356c1.875,9.214,3.9,19.788,5.772,28.986a16.634,16.634,0,0,0,9.7,11.944l27.4,11.859,4.751-10.388Z" fill="#cee29d"/>
            </g>
          </g>
        </g>
        <g id="Grupo_1235444" data-name="Grupo 1235444" transform="translate(8.469)">
          <path id="Trazado_1295823" data-name="Trazado 1295823" d="M279.1,212.342l-2.94-3.178a6.734,6.734,0,1,0-6.382,3.673l3.631,4.928Z" fill="#ff896f"/>
          <g id="Grupo_1235439" data-name="Grupo 1235439">
            <path id="Trazado_1295824" data-name="Trazado 1295824" d="M225.954,212.157a6.734,6.734,0,1,0-6.382,3.673l2.668,3.621,5.245-5.639Z" fill="#fec5a7"/>
            <path id="Trazado_1295825" data-name="Trazado 1295825" d="M280.575,229.3l-8.763,5.1a19.67,19.67,0,0,1-1.172,3.287,5.043,5.043,0,0,0,1.556,6.13C272.142,234.465,279.964,236.182,280.575,229.3Z" fill="#3054f2"/>
            <path id="Trazado_1295826" data-name="Trazado 1295826" d="M322.242,273.745l-7.179-17.6a38.706,38.706,0,0,1-2.706-18.163l1.664-18.112a9.133,9.133,0,0,0-9.1-9.969H282.691a14.1,14.1,0,0,0-9.335,3.533L252,232.312l-18.629-14.52-7.495,8.057L242.187,240.8a12.874,12.874,0,0,0,14.952,1.762l14.674-8.156,8.763-5.1c-.611,6.879-8.434,5.162-8.379,14.521.134.1.258.21.4.3l.024.015a4.509,4.509,0,0,1,2.238,4.143l-1.653,25.464h49.032Z" fill="#4f6aff"/>
            <path id="Trazado_1295827" data-name="Trazado 1295827" d="M227.811,213.463l-.325.35-5.245,5.639-1.543,1.657,5.172,4.741,7.5-8.058Z" fill="#3054f2"/>
            <path id="Trazado_1295828" data-name="Trazado 1295828" d="M301.714,206.727H286.742l-.871,3.18h16.715Z" fill="#3054f2"/>
          </g>
          <g id="Grupo_1235441" data-name="Grupo 1235441">
            <path id="Trazado_1295829" data-name="Trazado 1295829" d="M269.428,412.175a2.673,2.673,0,0,1-.267-2.06,5.37,5.37,0,0,1-1.912.367H264.2a5.381,5.381,0,0,0-5.036,3.483l-.886,2.349h11.715a15.88,15.88,0,0,0,6.458-1.373l2.417-1.077.2,2.45h5.84L284.127,409C279.208,408.944,274.358,412.685,269.428,412.175Z" fill="#4f6aff"/>
            <path id="Trazado_1295830" data-name="Trazado 1295830" d="M306.67,412.175a2.686,2.686,0,0,1-.237-2.163,5.367,5.367,0,0,1-2.176.47h-3.05a5.381,5.381,0,0,0-5.036,3.483l-.886,2.349h11.949a15.88,15.88,0,0,0,6.458-1.373l2.417-1.077.2,2.45h5.606L321.135,409C316.3,409.063,311.522,412.677,306.67,412.175Z" fill="#4f6aff"/>
            <g id="Grupo_1235440" data-name="Grupo 1235440">
              <path id="Trazado_1295831" data-name="Trazado 1295831" d="M261.495,347.431l11.037,56.64a5.3,5.3,0,0,1-3.371,6.045,2.674,2.674,0,0,0,.267,2.06c4.93.51,9.78-3.231,14.7-3.174l-.413-3.867.106-22.939a107.94,107.94,0,0,0-6.577-37.6l.135-.332a80.822,80.822,0,0,1-16.219-5.273A27.953,27.953,0,0,0,261.495,347.431Z" fill="#fec5a7"/>
              <path id="Trazado_1295832" data-name="Trazado 1295832" d="M322.242,273.745H273.21l-11.76,63.223c-.125.669-.217,1.343-.292,2.018a80.825,80.825,0,0,0,16.219,5.273l20.365-50.109-.258,48.054.736,3.779a80.33,80.33,0,0,0,16.139-2.366Z" fill="#ff896f"/>
              <path id="Trazado_1295833" data-name="Trazado 1295833" d="M320.827,382.2a107.94,107.94,0,0,0-6.577-37.6l.11-.975a80.33,80.33,0,0,1-16.139,2.366l11.319,58.088a5.383,5.383,0,0,1-2.252,5.477h0a5.357,5.357,0,0,1-.855.464,2.685,2.685,0,0,0,.237,2.163c4.852.5,9.626-3.113,14.464-3.173l-.413-3.868Z" fill="#fec5a7"/>
            </g>
          </g>
          <path id="Trazado_1295834" data-name="Trazado 1295834" d="M323.742,333.846c-19.167,5.623-50.691,7.8-68.1-5.2l17.568-54.906h49.032l2.051,3.555a35.084,35.084,0,0,1,3.019,28.427C324.217,315.185,322.479,326,323.742,333.846Z" fill="#18004c"/>
          <g id="Grupo_1235443" data-name="Grupo 1235443">
            <g id="Grupo_1235442" data-name="Grupo 1235442">
              <circle id="Elipse_11595" data-name="Elipse 11595" cx="18.227" cy="18.227" r="18.227" transform="translate(274.019 169.185)" fill="#fec5a7"/>
            </g>
            <path id="Trazado_1295835" data-name="Trazado 1295835" d="M300.5,209.907H288.118l-.8-6.36H299.7Z" fill="#fec5a7"/>
            <path id="Trazado_1295836" data-name="Trazado 1295836" d="M285.827,221.88c.114,4.453.228,8.952,2.158,13.042A16.69,16.69,0,0,0,303.921,244c5.2-.45,11.146-6.443,13.427-10.843,3.771-7.275,1.414-13.178-1.127-20.3-1.509-4.228-1.944-8.751-2.368-13.221-.8-8.445-.857-15.843-5.264-23.225-3.808-6.377-11.13-10.8-18.677-10.094-7.649.713-14.585,7.2-15.083,14.862-.556,8.548,4.378,14.734,6.924,22.567,1.586,4.877,3.574,8.793,3.917,14.071C285.757,219.161,285.792,220.518,285.827,221.88Z" fill="#18004c"/>
          </g>
        </g>
        <g id="Grupo_1235448" data-name="Grupo 1235448" transform="translate(63.572)">
          <path id="Trazado_1295840" data-name="Trazado 1295840" d="M237.14,424.742c0-1.551.819-2.809,1.829-2.809h77.176c1.01,0,1.829-1.258,1.829-2.809s-.819-2.809-1.829-2.809H27.06c-1.01,0-1.829,1.258-1.829,2.809s.819,2.809,1.829,2.809H52.629c1.01,0,1.829,1.258,1.829,2.809s-.819,2.809-1.829,2.809H46.962c-1.01,0-1.829,1.258-1.829,2.809s.819,2.809,1.829,2.809H118.27c1.01,0,1.829,1.258,1.829,2.809s-.819,2.809-1.829,2.809H92.559c-1.01,0-1.829,1.258-1.829,2.809s.819,2.809,1.829,2.809H250.646c1.01,0,1.829-1.258,1.829-2.809s-.819-2.809-1.829-2.809H207.838c-1.01,0-1.829-1.258-1.829-2.809s.819-2.809,1.829-2.809h88.4c1.01,0,1.829-1.258,1.829-2.809s-.819-2.809-1.829-2.809H238.969C237.959,427.551,237.14,426.293,237.14,424.742Z" fill="#98ccfe"/>
        </g>
      </g>
    </g>
  </g>
</svg>
